<?xml version="1.0" encoding="utf-8"?>
<!-- Generator: Adobe Illustrator 13.0.2, SVG Export Plug-In . SVG Version: 6.00 Build 14948)  -->
<svg version="1.2" baseProfile="tiny" id="Layer_1" xmlns="http://www.w3.org/2000/svg" xmlns:xlink="http://www.w3.org/1999/xlink"
	 x="0px" y="0px" width="247.938px" height="156.079px" viewBox="0 0 247.938 156.079" xml:space="preserve">
<g>
	<polygon fill="#CA2128" stroke="#000000" stroke-width="5.7406" stroke-linecap="round" stroke-linejoin="round" points="
		164.654,62.629 211.396,29.183 229.883,37.319 172.584,77.003 	"/>
	<polygon fill="#A01D27" stroke="#000000" stroke-width="5.7406" stroke-linecap="round" stroke-linejoin="round" points="
		229.883,37.319 245.068,85.091 175.504,99.275 173.645,75.913 	"/>
	<g>
		<g>
			<path fill="#636363" stroke="#000000" stroke-width="5.7406" stroke-linecap="round" stroke-linejoin="round" d="M113.994,98.626
				l62.649,8.813c18.726,4.014-2.712-65.553-17.067-53.605L113.994,98.626z"/>
			<path fill="#424242" stroke="#000000" stroke-width="5.7406" stroke-linecap="round" stroke-linejoin="round" d="M26.555,93.839
				l14.542,5.227l18.672,53.687l-17.468-6.989c-3.844-1.593-4.783-3.693-6.487-8.3l-12.58-40.249
				c-1.072-2.628,0.794-4.029,3.346-3.348"/>
			<path fill="#424242" stroke="#000000" stroke-width="5.7406" stroke-linecap="round" stroke-linejoin="round" d="M103.127,64.226
				l-78.575,29.51l16.524,5.243l86.927-31.948l-10.509-3.763C111.942,60.963,107.042,63.069,103.127,64.226z"/>
			<path fill="#636363" stroke="#000000" stroke-width="5.7406" stroke-linecap="round" stroke-linejoin="round" d="M47.82,96.48
				l74.361-27.635c6.665-2.417,9.931-1.489,11.046,2.742l13.167,41.001c1.734,5.991,0.574,8.564-3.808,10.338l-76.464,29.826
				c-6.142,1.455-7.833-0.733-8.97-4.304l-13.849-42.602C41.299,99.82,42.707,98.415,47.82,96.48z"/>
		</g>
		<g>
			<path fill="#444444" stroke="#000000" stroke-width="4.5925" stroke-linecap="round" stroke-linejoin="round" d="M121.753,36.283
				c0,18.76-12.719,33.986-28.418,33.986c-15.69,0-28.416-15.226-28.416-33.986c0-18.771,12.726-33.986,28.416-33.986
				C109.034,2.296,121.753,17.511,121.753,36.283z"/>
			<path fill="#DCDBDB" stroke="#000000" stroke-width="4.5925" stroke-linecap="round" stroke-linejoin="round" d="M129.454,36.283
				c0,18.76-12.72,33.986-28.417,33.986c-15.692,0-28.412-15.226-28.412-33.986c0-18.771,12.719-33.986,28.412-33.986
				C116.734,2.296,129.454,17.511,129.454,36.283z"/>
			<path fill="#FFFFFF" stroke="#000000" stroke-width="1.9161" stroke-linecap="round" stroke-linejoin="round" d="M105.475,36.274
				c0,2.924-1.985,5.303-4.438,5.303c-2.451,0-4.417-2.379-4.417-5.303c0-2.92,1.967-5.294,4.417-5.294
				C103.49,30.979,105.475,33.354,105.475,36.274z"/>
			<path fill="#231F20" stroke="#000000" stroke-width="0.2421" stroke-linecap="round" stroke-linejoin="round" d="M103.08,36.274
				c0,1.356-0.913,2.453-2.043,2.453c-1.132,0-2.041-1.097-2.041-2.453c0-1.343,0.908-2.444,2.041-2.444
				C102.167,33.83,103.08,34.931,103.08,36.274z"/>
			<path fill="#5B5B5B" stroke="#000000" stroke-width="3.2147" stroke-linecap="round" stroke-linejoin="round" d="M91.567,11.6
				c4.622-4.245,12.609-5.085,18.276-1.303c6.81,4.537-3.146,17.646-8.618,17.646C96.189,27.943,86.197,16.525,91.567,11.6z"/>
			<path fill="#5B5B5B" stroke="#000000" stroke-width="3.2147" stroke-linecap="round" stroke-linejoin="round" d="M90.935,60.795
				c4.628,4.245,12.607,5.088,18.28,1.307c6.801-4.541-3.137-17.65-8.611-17.65C95.563,44.452,85.571,55.873,90.935,60.795z"/>
			<path fill="#5B5B5B" stroke="#000000" stroke-width="3.2147" stroke-linecap="round" stroke-linejoin="round" d="M80.432,45.405
				c-3.608-4.628-4.317-12.611-1.105-18.282c3.853-6.804,15.004,3.15,15.004,8.615C94.33,40.777,84.618,50.767,80.432,45.405z"/>
			<path fill="#5B5B5B" stroke="#000000" stroke-width="3.2147" stroke-linecap="round" stroke-linejoin="round" d="M121.78,46.031
				c3.615-4.615,4.326-12.603,1.112-18.278c-3.862-6.803-14.995,3.142-14.995,8.611C107.897,41.416,117.598,51.401,121.78,46.031z"
				/>
		</g>
		<g>
			<path fill="#444444" stroke="#000000" stroke-width="4.5925" stroke-linecap="round" stroke-linejoin="round" d="M65.437,53.984
				c0,20.848-14.127,37.756-31.569,37.756c-17.446,0-31.571-16.908-31.571-37.756c0-20.868,14.125-37.769,31.571-37.769
				C51.309,16.215,65.437,33.117,65.437,53.984z"/>
			<path fill="#DCDBDB" stroke="#000000" stroke-width="4.5925" stroke-linecap="round" stroke-linejoin="round" d="M73.989,53.984
				c0,20.848-14.123,37.756-31.564,37.756c-17.449,0-31.567-16.908-31.567-37.756c0-20.868,14.118-37.769,31.567-37.769
				C59.866,16.215,73.989,33.117,73.989,53.984z"/>
			<path fill="#FFFFFF" stroke="#000000" stroke-width="1.9161" stroke-linecap="round" stroke-linejoin="round" d="M47.351,53.98
				c0,3.247-2.2,5.884-4.926,5.884c-2.736,0-4.918-2.637-4.918-5.884c0-3.26,2.182-5.889,4.918-5.889
				C45.151,48.091,47.351,50.72,47.351,53.98z"/>
			<path fill="#231F20" stroke="#000000" stroke-width="0.2689" stroke-linecap="round" stroke-linejoin="round" d="M44.685,53.98
				c0,1.496-1.002,2.718-2.26,2.718c-1.263,0-2.272-1.222-2.272-2.718c0-1.504,1.009-2.715,2.272-2.715
				C43.683,51.265,44.685,52.476,44.685,53.98z"/>
			<path fill="#5B5B5B" stroke="#000000" stroke-width="3.2147" stroke-linecap="round" stroke-linejoin="round" d="M31.903,26.555
				c5.126-4.716,14.004-5.651,20.307-1.446c7.559,5.045-3.496,19.608-9.577,19.608C37.029,44.717,25.943,32.027,31.903,26.555z"/>
			<path fill="#5B5B5B" stroke="#000000" stroke-width="3.2147" stroke-linecap="round" stroke-linejoin="round" d="M31.194,81.221
				c5.142,4.714,14.006,5.652,20.312,1.455c7.555-5.052-3.496-19.612-9.566-19.612C36.336,63.064,25.234,75.752,31.194,81.221z"/>
			<path fill="#5B5B5B" stroke="#000000" stroke-width="3.2147" stroke-linecap="round" stroke-linejoin="round" d="M19.534,64.118
				c-4.016-5.142-4.799-14.011-1.238-20.319c4.283-7.557,16.666,3.498,16.666,9.573C34.962,58.976,24.18,70.072,19.534,64.118z"/>
			<path fill="#5B5B5B" stroke="#000000" stroke-width="3.2147" stroke-linecap="round" stroke-linejoin="round" d="M65.463,64.811
				c4.016-5.133,4.814-13.995,1.24-20.31c-4.285-7.553-16.67,3.496-16.67,9.577C50.033,59.678,60.815,70.778,65.463,64.811z"/>
		</g>
	</g>
</g>
</svg>
