<?xml version="1.0" encoding="utf-8"?>
<!-- Generator: Adobe Illustrator 13.0.2, SVG Export Plug-In . SVG Version: 6.00 Build 14948)  -->
<svg version="1.2" baseProfile="tiny" id="Layer_1" xmlns="http://www.w3.org/2000/svg" xmlns:xlink="http://www.w3.org/1999/xlink"
	 x="0px" y="0px" width="245.113px" height="249.232px" viewBox="0 0 245.113 249.232" xml:space="preserve">
<g>
	<g>
		<path fill="none" stroke="#010101" stroke-width="10.1528" stroke-linecap="round" stroke-linejoin="round" d="M19.564,235.851
			c86.604,12.816,216.654-7.376,216.654-56.862c0-55.62-153.508-45.119-153.508-103.442c0-45.947,83.169-56.35,145.738-56.35"/>
		<path fill="none" stroke="#77ABD3" stroke-width="10.1528" stroke-linecap="round" stroke-linejoin="round" d="M13.916,230.053
			c86.606,12.814,216.657-7.374,216.657-56.862c0-55.622-153.51-45.118-153.51-103.444c0-45.944,83.168-56.35,145.74-56.35"/>
	</g>
	<g>
		
			<rect x="221.913" y="9.383" fill="#231F20" stroke="#000000" stroke-width="7.252" stroke-linecap="round" stroke-linejoin="round" width="19.574" height="19.577"/>
		
			<rect x="215.555" y="3.626" fill="#010101" stroke="#E6E529" stroke-width="7.252" stroke-linecap="round" stroke-linejoin="round" width="19.576" height="19.577"/>
	</g>
	<g>
		
			<rect x="9.983" y="226.033" fill="#231F20" stroke="#000000" stroke-width="7.252" stroke-linecap="round" stroke-linejoin="round" width="19.575" height="19.573"/>
		
			<rect x="3.626" y="220.273" fill="#010101" stroke="#E6E529" stroke-width="7.252" stroke-linecap="round" stroke-linejoin="round" width="19.576" height="19.578"/>
	</g>
</g>
</svg>
