<?xml version="1.0" encoding="utf-8"?>
<!-- Generator: Adobe Illustrator 13.0.2, SVG Export Plug-In . SVG Version: 6.00 Build 14948)  -->
<svg version="1.2" baseProfile="tiny" id="Layer_1" xmlns="http://www.w3.org/2000/svg" xmlns:xlink="http://www.w3.org/1999/xlink"
	 x="0px" y="0px" width="184.68px" height="238.399px" viewBox="0 0 184.68 238.399" xml:space="preserve">
<g>
	<polygon fill="#010101" points="56.447,87.179 56.444,21.081 114.708,9.326 114.708,75.552 	"/>
	<polygon fill="#010101" points="56.555,217.655 56.553,151.558 114.807,139.802 114.807,206.026 	"/>
	<polygon fill="#010101" points="0.002,164.892 0,98.79 58.264,87.036 58.264,153.263 	"/>
	<polygon fill="#010101" points="112.756,142.617 112.754,76.516 171.018,64.762 171.018,130.988 	"/>
	<g>
		<polygon fill="#A1A0A0" points="56.326,153.487 0.068,164.795 9.163,169.596 65.22,158.468 		"/>
		<polygon fill="#A1A0A0" points="171.028,130.881 114.786,141.959 123.823,146.839 182.18,135.08 		"/>
		<polygon fill="#A1A0A0" points="123.995,80.405 65.559,92.367 56.426,87.489 114.819,75.487 		"/>
	</g>
	<g>
		<polygon fill="#4F5051" points="114.685,9.32 114.69,75.42 123.917,80.353 123.914,14.255 		"/>
		<polygon fill="#4F5051" points="114.69,205.963 114.685,141.901 123.823,146.839 123.823,212.933 		"/>
		<polygon fill="#4F5051" points="56.326,87.433 56.331,153.534 65.562,158.468 65.559,92.367 		"/>
	</g>
	<polygon fill="#7A7A7A" points="9.822,102.955 0,98.79 9.824,96.817 	"/>
	<polyline fill="#575858" points="64.744,26.861 56.444,21.081 56.444,28.619 	"/>
	<g>
		<polygon fill="#FFFFFF" stroke="#010101" stroke-width="5" stroke-linecap="round" stroke-linejoin="round" points="
			65.457,26.135 65.432,92.416 9.197,103.667 9.197,37.442 		"/>
		<polygon fill="#FFFFFF" stroke="#010101" stroke-width="5" stroke-linecap="round" stroke-linejoin="round" points="
			123.917,80.353 123.914,14.255 182.18,2.5 182.18,68.726 		"/>
		<polygon fill="#FFFFFF" stroke="#010101" stroke-width="5" stroke-linecap="round" stroke-linejoin="round" points="
			65.457,158.365 65.432,224.645 9.197,235.899 9.197,169.671 		"/>
		<polygon fill="#FFFFFF" stroke="#010101" stroke-width="5" stroke-linecap="round" stroke-linejoin="round" points="
			123.917,212.933 123.914,146.836 182.18,135.08 182.18,201.305 		"/>
		<polygon fill="#FFFFFF" stroke="#010101" stroke-width="5" stroke-linecap="round" stroke-linejoin="round" points="
			65.562,158.468 65.559,92.367 123.823,80.612 123.823,146.839 		"/>
	</g>
</g>
</svg>
