<?xml version="1.0" encoding="utf-8"?>
<!-- Generator: Adobe Illustrator 13.0.2, SVG Export Plug-In . SVG Version: 6.00 Build 14948)  -->
<svg version="1.2" baseProfile="tiny" id="Layer_1" xmlns="http://www.w3.org/2000/svg" xmlns:xlink="http://www.w3.org/1999/xlink"
	 x="0px" y="0px" width="243.242px" height="227.025px" viewBox="0 0 243.242 227.025" xml:space="preserve">
<g>
	
		<rect x="101.904" y="85.724" fill="#77ABD3" stroke="#010101" stroke-width="6.25" stroke-linecap="round" stroke-linejoin="round" width="138.213" height="138.177"/>
	<path fill="#010101" stroke="#010101" stroke-width="2.5" stroke-linecap="round" stroke-linejoin="round" d="M17.664,74.291H6.365
		L31.763,7.701h10.896l25.896,66.589H56.258l-5.201-14.299H22.861L17.664,74.291z M40.76,31.798c-2-5.601-3.799-11.498-3.799-11.498
		h-0.2c0,0-1.799,5.999-3.801,11.498l-6.897,18.997h21.596L40.76,31.798z"/>
	<path stroke="#010101" stroke-width="2.5" stroke-linecap="round" stroke-linejoin="round" d="M94.855,74.291H75.059V7.701h20.098
		c12.397,0,22.495,4.299,22.495,16.598c0,8.3-4.6,13.1-11.897,14.999v0.2c8.099,1.299,14.697,6.797,14.697,16.196
		C120.451,69.293,109.953,74.291,94.855,74.291z M94.058,16.6h-7.9v18.997h7.7c8.696,0,12.495-3.101,12.495-9.799
		C106.353,19.399,102.153,16.6,94.058,16.6z M95.057,44.095h-8.899v21.296h8.298c9.7,0,14.5-2.998,14.5-10.298
		C108.955,48.097,105.054,44.095,95.057,44.095z"/>
	<path fill="#010101" stroke="#010101" stroke-width="2.5" stroke-linecap="round" stroke-linejoin="round" d="M159.961,75.489
		c-21.896,0-33.396-16.597-33.396-34.595c0-18.096,11.9-34.392,33.597-34.392c8.599,0,14.3,1.899,19.397,5.199L174.26,20
		c-3.801-2.5-8.2-4.1-14.398-4.1c-14,0-21.396,11.398-21.396,24.596c0,13.596,7.1,25.496,21.696,25.496
		c7.2,0,11.999-2.4,15.599-5.298l4.896,7.896C177.158,71.791,169.461,75.489,159.961,75.489z"/>
	<path fill="#FFFFFF" stroke="#FFFFFF" stroke-width="2.5" stroke-linecap="round" stroke-linejoin="round" d="M12.549,69.039H1.25
		L26.646,2.447h10.898l25.894,66.592H51.143l-5.2-14.299H17.747L12.549,69.039z M35.645,26.545
		c-2.002-5.599-3.799-11.498-3.799-11.498h-0.2c0,0-1.802,5.999-3.801,11.498l-6.897,18.998h21.597L35.645,26.545z"/>
	<path fill="#FFFFFF" stroke="#FFFFFF" stroke-width="2.5" stroke-linecap="round" stroke-linejoin="round" d="M89.741,69.039
		H69.943V2.447h20.096c12.397,0,22.498,4.301,22.498,16.599c0,8.298-4.6,13.098-11.897,14.998v0.2
		c8.096,1.299,14.697,6.797,14.697,16.196C115.337,64.039,104.839,69.039,89.741,69.039z M88.94,11.348h-7.9v18.995h7.7
		c8.699,0,12.498-3.098,12.498-9.797C101.238,14.146,97.039,11.348,88.94,11.348z M89.941,38.844H81.04v21.294h8.301
		c9.697,0,14.497-2.998,14.497-10.298C103.838,42.843,99.939,38.844,89.941,38.844z"/>
	<path fill="#FFFFFF" stroke="#FFFFFF" stroke-width="2.5" stroke-linecap="round" stroke-linejoin="round" d="M154.846,70.238
		c-21.896,0-33.393-16.599-33.393-34.595c0-18.097,11.895-34.393,33.594-34.393c8.598,0,14.297,1.899,19.395,5.199l-5.299,8.298
		c-3.799-2.5-8.197-4.099-14.398-4.099c-13.997,0-21.396,11.398-21.396,24.597c0,13.596,7.1,25.493,21.699,25.493
		c7.197,0,11.996-2.397,15.596-5.298l4.899,7.898C172.043,66.539,164.344,70.238,154.846,70.238z"/>
</g>
</svg>
