<?xml version="1.0" encoding="utf-8"?>
<!-- Generator: Adobe Illustrator 13.0.2, SVG Export Plug-In . SVG Version: 6.00 Build 14948)  -->
<svg version="1.2" baseProfile="tiny" id="Layer_1" xmlns="http://www.w3.org/2000/svg" xmlns:xlink="http://www.w3.org/1999/xlink"
	 x="0px" y="0px" width="252.549px" height="188.664px" viewBox="0 0 252.549 188.664" xml:space="preserve">
<g>
	<g>
		
			<rect x="3.632" y="3.081" fill="#FFFFFF" stroke="#000000" stroke-width="6.1613" stroke-linecap="round" stroke-linejoin="round" width="200.306" height="27.612"/>
		
			<rect x="3.632" y="30.878" fill="#9BCBEB" stroke="#000000" stroke-width="6.1613" stroke-linecap="round" stroke-linejoin="round" width="200.306" height="27.612"/>
		
			<rect x="3.632" y="58.673" fill="#FFFFFF" stroke="#000000" stroke-width="6.1613" stroke-linecap="round" stroke-linejoin="round" width="200.306" height="27.615"/>
		<polyline fill="none" stroke="#000000" stroke-width="6.1613" stroke-linecap="round" stroke-linejoin="round" points="
			69.916,58.628 69.916,86.058 3.079,86.058 3.079,3.309 69.916,3.309 69.916,30.585 		"/>
		<polyline fill="none" stroke="#000000" stroke-width="6.1613" stroke-linecap="round" stroke-linejoin="round" points="
			137.656,30.7 137.656,3.309 204.493,3.309 204.493,86.058 137.656,86.058 137.656,58.628 		"/>
	</g>
	<g>
		
			<rect x="26.162" y="53.05" fill="#FFFFFF" stroke="#000000" stroke-width="6.1613" stroke-linecap="round" stroke-linejoin="round" width="200.304" height="27.613"/>
		
			<rect x="26.162" y="80.848" fill="#9BCBEB" stroke="#000000" stroke-width="6.1613" stroke-linecap="round" stroke-linejoin="round" width="200.304" height="27.612"/>
		
			<rect x="26.162" y="108.643" fill="#FFFFFF" stroke="#000000" stroke-width="6.1613" stroke-linecap="round" stroke-linejoin="round" width="200.304" height="27.615"/>
		<polyline fill="none" stroke="#000000" stroke-width="6.1613" stroke-linecap="round" stroke-linejoin="round" points="
			92.446,108.598 92.446,136.028 25.607,136.028 25.607,53.28 92.446,53.28 92.446,80.558 		"/>
		<polyline fill="none" stroke="#000000" stroke-width="6.1613" stroke-linecap="round" stroke-linejoin="round" points="
			160.184,80.671 160.184,53.28 227.024,53.28 227.024,136.028 160.184,136.028 160.184,108.598 		"/>
	</g>
	<g>
		
			<rect x="48.616" y="102.378" fill="#FFFFFF" stroke="#000000" stroke-width="6.1613" stroke-linecap="round" stroke-linejoin="round" width="200.305" height="27.61"/>
		
			<rect x="48.616" y="130.173" fill="#9BCBEB" stroke="#000000" stroke-width="6.1613" stroke-linecap="round" stroke-linejoin="round" width="200.305" height="27.615"/>
		
			<rect x="48.616" y="157.971" fill="#FFFFFF" stroke="#000000" stroke-width="6.1613" stroke-linecap="round" stroke-linejoin="round" width="200.305" height="27.612"/>
		<polyline fill="none" stroke="#000000" stroke-width="6.1613" stroke-linecap="round" stroke-linejoin="round" points="
			114.9,157.923 114.9,185.355 48.062,185.355 48.062,102.608 114.9,102.608 114.9,129.883 		"/>
		<polyline fill="none" stroke="#000000" stroke-width="6.1613" stroke-linecap="round" stroke-linejoin="round" points="
			182.639,129.998 182.639,102.608 249.476,102.608 249.476,185.355 182.639,185.355 182.639,157.923 		"/>
	</g>
</g>
</svg>
