<?xml version="1.0" encoding="utf-8"?>
<!-- Generator: Adobe Illustrator 13.0.2, SVG Export Plug-In . SVG Version: 6.00 Build 14948)  -->
<svg version="1.2" baseProfile="tiny" id="Layer_1" xmlns="http://www.w3.org/2000/svg" xmlns:xlink="http://www.w3.org/1999/xlink"
	 x="0px" y="0px" width="245.811px" height="245.809px" viewBox="0 0 245.811 245.809" xml:space="preserve">
<g>
	
		<circle fill="#636363" stroke="#231F20" stroke-width="6.25" stroke-linecap="round" stroke-linejoin="round" cx="122.905" cy="122.904" r="119.78"/>
	<path fill="#515151" d="M199.707,31.074c5.591,13.782,8.696,28.835,8.696,44.624c0,65.625-53.201,118.825-118.826,118.825
		c-30.688,0-58.66-11.638-79.744-30.736c16.841,45.771,60.828,78.42,112.444,78.42c66.153,0,119.78-53.623,119.78-119.778
		C242.058,85.806,225.603,53.044,199.707,31.074z"/>
	<path fill="#CCCCCC" d="M116.677,85.491c0,17.458-14.153,31.614-31.616,31.614c-17.461,0-31.614-14.155-31.614-31.614
		c0-17.463,14.153-31.619,31.614-31.619C102.524,53.872,116.677,68.027,116.677,85.491z"/>
	<circle fill="#FFFFFF" cx="85.062" cy="85.489" r="13.094"/>
	
		<circle fill="none" stroke="#000000" stroke-width="6.25" stroke-linecap="round" stroke-linejoin="round" cx="122.905" cy="122.904" r="119.78"/>
</g>
</svg>
