<?xml version="1.0" encoding="utf-8"?>
<!-- Generator: Adobe Illustrator 13.0.2, SVG Export Plug-In . SVG Version: 6.00 Build 14948)  -->
<svg version="1.2" baseProfile="tiny" id="Layer_1" xmlns="http://www.w3.org/2000/svg" xmlns:xlink="http://www.w3.org/1999/xlink"
	 x="0px" y="0px" width="246.85px" height="246.848px" viewBox="0 0 246.85 246.848" xml:space="preserve">
<g>
	<g>
		<linearGradient id="SVGID_1_" gradientUnits="userSpaceOnUse" x1="114.7803" y1="115.9644" x2="199.2373" y2="115.9644">
			<stop  offset="0" style="stop-color:#383838"/>
			<stop  offset="0.276" style="stop-color:#A0A0A0"/>
			<stop  offset="1" style="stop-color:#0D0D0D"/>
		</linearGradient>
		<path fill="url(#SVGID_1_)" stroke="#000000" stroke-width="6.25" stroke-linecap="round" stroke-linejoin="round" d="
			M199.159,150.363c0,11.475-18.892,20.779-42.185,20.779c-23.301,0-42.194-9.305-42.194-20.779V60.786h84.457L199.159,150.363z"/>
		<linearGradient id="SVGID_2_" gradientUnits="userSpaceOnUse" x1="114.7803" y1="61.0537" x2="199.1592" y2="61.0537">
			<stop  offset="0.0052" style="stop-color:#A0A0A0"/>
			<stop  offset="0.1657" style="stop-color:#999999"/>
			<stop  offset="0.4059" style="stop-color:#848484"/>
			<stop  offset="0.696" style="stop-color:#636363"/>
			<stop  offset="1" style="stop-color:#383838"/>
		</linearGradient>
		<path fill="url(#SVGID_2_)" stroke="#000000" stroke-width="6.25" stroke-linecap="round" stroke-linejoin="round" d="
			M199.159,61.06c0,11.475-18.892,20.779-42.185,20.779c-23.301,0-42.194-9.304-42.194-20.779c0-11.484,18.894-20.791,42.194-20.791
			C180.268,40.269,199.159,49.575,199.159,61.06z"/>
	</g>
	<g>
		<path fill="#808080" stroke="#000000" stroke-width="6.25" d="M141.786,156.121c0,28.962-23.477,52.436-52.456,52.436
			c-28.98,0-52.457-23.474-52.457-52.436c0-28.971,23.477-52.457,52.457-52.457C118.31,103.665,141.786,127.15,141.786,156.121z"/>
		<path fill="#FFFFFF" d="M75.234,135.205c0,2.932-2.364,5.288-5.296,5.288s-5.296-2.356-5.296-5.288
			c0-2.944,2.364-5.298,5.296-5.298S75.234,132.261,75.234,135.205z"/>
	</g>
	<g>
		<path fill="none" stroke="#FFFFFF" stroke-width="8.9956" d="M236.205,123.428c0,62.297-50.5,112.778-112.786,112.778
			c-62.275,0-112.777-50.481-112.777-112.778c0-62.302,50.501-112.788,112.777-112.788
			C185.705,10.64,236.205,61.125,236.205,123.428z"/>
		<path fill="none" stroke="#000000" stroke-width="8.75" d="M242.475,123.428c0,65.737-53.291,119.045-119.055,119.045
			c-65.755,0-119.044-53.308-119.044-119.045c0-65.745,53.289-119.053,119.044-119.053
			C189.184,4.375,242.475,57.683,242.475,123.428z"/>
	</g>
</g>
</svg>
