<?xml version="1.0" encoding="utf-8"?>
<!-- Generator: Adobe Illustrator 13.0.2, SVG Export Plug-In . SVG Version: 6.00 Build 14948)  -->
<svg version="1.2" baseProfile="tiny" id="Layer_1" xmlns="http://www.w3.org/2000/svg" xmlns:xlink="http://www.w3.org/1999/xlink"
	 x="0px" y="0px" width="208.896px" height="207px" viewBox="0 0 208.896 207" xml:space="preserve">
<g>
	<g>
		<rect x="72.592" y="12.859" fill="#FFFFFF" width="58.567" height="58.569"/>
		<rect x="131.133" y="12.859" width="58.56" height="58.569"/>
		<rect x="14.075" y="12.859" width="58.569" height="58.574"/>
		<rect x="131.126" y="71.331" fill="#FFFFFF" width="58.566" height="58.574"/>
		<rect x="72.588" y="71.331" width="58.564" height="58.574"/>
		<rect x="14.112" y="71.331" fill="#FFFFFF" width="58.569" height="58.574"/>
		<rect x="14.112" y="129.865" width="58.572" height="58.57"/>
		<rect x="72.592" y="129.865" fill="#FFFFFF" width="58.567" height="58.57"/>
		<rect x="131.133" y="129.865" width="58.56" height="58.57"/>
	</g>
	<g>
		
			<rect x="17.06" y="16.094" fill="none" stroke="#000000" stroke-width="6.25" stroke-linecap="round" stroke-linejoin="round" width="179.832" height="179.834"/>
		
			<line fill="none" stroke="#000000" stroke-width="6.25" stroke-linecap="round" stroke-linejoin="round" x1="77.433" y1="18.569" x2="77.433" y2="193.584"/>
		
			<line fill="none" stroke="#000000" stroke-width="6.25" stroke-linecap="round" stroke-linejoin="round" x1="136.138" y1="18.569" x2="136.138" y2="193.584"/>
		
			<line fill="none" stroke="#000000" stroke-width="6.25" stroke-linecap="round" stroke-linejoin="round" x1="19.058" y1="135.184" x2="194.072" y2="135.184"/>
		
			<line fill="none" stroke="#000000" stroke-width="6.25" stroke-linecap="round" stroke-linejoin="round" x1="19.058" y1="76.477" x2="194.072" y2="76.477"/>
	</g>
	<g>
		
			<rect x="12.06" y="11.094" fill="none" stroke="#77ABD4" stroke-width="6.25" stroke-linecap="round" stroke-linejoin="round" width="179.832" height="179.834"/>
		
			<line fill="none" stroke="#77ABD4" stroke-width="6.25" stroke-linecap="round" stroke-linejoin="round" x1="72.433" y1="13.569" x2="72.433" y2="188.584"/>
		
			<line fill="none" stroke="#77ABD4" stroke-width="6.25" stroke-linecap="round" stroke-linejoin="round" x1="131.138" y1="13.569" x2="131.138" y2="188.584"/>
		
			<line fill="none" stroke="#77ABD4" stroke-width="6.25" stroke-linecap="round" stroke-linejoin="round" x1="14.058" y1="130.184" x2="189.072" y2="130.184"/>
		
			<line fill="none" stroke="#77ABD4" stroke-width="6.25" stroke-linecap="round" stroke-linejoin="round" x1="14.058" y1="71.477" x2="189.072" y2="71.477"/>
	</g>
	<g>
		
			<rect x="8.949" y="8.088" stroke="#000000" stroke-width="6.25" stroke-linecap="round" stroke-linejoin="round" width="16.87" height="16.87"/>
		
			<rect x="3.471" y="3.125" stroke="#FDE852" stroke-width="6.25" stroke-linecap="round" stroke-linejoin="round" width="16.87" height="16.873"/>
	</g>
	<g>
		
			<rect x="188.901" y="8.088" stroke="#000000" stroke-width="6.25" stroke-linecap="round" stroke-linejoin="round" width="16.87" height="16.87"/>
		
			<rect x="183.423" y="3.125" stroke="#FDE852" stroke-width="6.25" stroke-linecap="round" stroke-linejoin="round" width="16.87" height="16.873"/>
	</g>
	<g>
		
			<rect x="188.901" y="187.004" stroke="#000000" stroke-width="6.25" stroke-linecap="round" stroke-linejoin="round" width="16.87" height="16.871"/>
		
			<rect x="183.423" y="182.041" stroke="#FDE852" stroke-width="6.25" stroke-linecap="round" stroke-linejoin="round" width="16.87" height="16.873"/>
	</g>
	<g>
		
			<rect x="8.604" y="187.004" stroke="#000000" stroke-width="6.25" stroke-linecap="round" stroke-linejoin="round" width="16.87" height="16.871"/>
		
			<rect x="3.125" y="182.041" stroke="#FDE852" stroke-width="6.25" stroke-linecap="round" stroke-linejoin="round" width="16.87" height="16.873"/>
	</g>
</g>
</svg>
