<?xml version="1.0" encoding="iso-8859-1"?>
<!-- Generator: Adobe Illustrator 19.2.1, SVG Export Plug-In . SVG Version: 6.00 Build 0)  -->
<svg version="1.1" id="Layer_1" xmlns="http://www.w3.org/2000/svg" xmlns:xlink="http://www.w3.org/1999/xlink" x="0px" y="0px"
	 viewBox="0 0 240 240" style="enable-background:new 0 0 240 240;" xml:space="preserve">
<g>
	<path style="fill:#BDBDBD;" d="M107.105,147.589c-16.557-29.185-43.963-44.611-79.257-44.611c-2.525,0-5.109,0.104-7.682,0.309
		l-4.318,0.344V87.559l3.706-0.273c2.773-0.205,5.563-0.308,8.294-0.308c40.786,0,72.75,17.79,92.438,51.445l1.716,2.934
		l-12.544,10.382L107.105,147.589z"/>
	<path style="fill:#1D1D1D;" d="M27.848,90.978c39.615,0,70.295,17.512,88.986,49.465l-6.25,5.172
		C93.447,115.406,64.99,98.978,27.848,98.978c-2.693,0-5.36,0.111-8,0.322v-8.024C22.49,91.08,25.157,90.978,27.848,90.978
		 M27.848,82.978c-2.832,0-5.721,0.107-8.589,0.319l-7.411,0.547v7.431v8.024v8.664l8.637-0.689
		c2.464-0.197,4.941-0.296,7.363-0.296c16.999,0,32.113,3.684,44.923,10.949c12.628,7.162,23.009,17.806,30.854,31.636l4.708,8.299
		l7.351-6.083l6.25-5.172l5.238-4.334l-3.433-5.868c-10.08-17.232-23.419-30.575-39.645-39.656
		C67.77,87.61,48.846,82.978,27.848,82.978L27.848,82.978z"/>
</g>
<g>
	<polygon style="fill:#48AAB5;" points="15.848,16 31.848,16 31.848,190.904 204.474,69 213.158,82.459 15.848,221.004 	"/>
	<g>
		<path style="fill:#1D1D1D;" d="M27.848,20v178.626L203.374,74.673l4.338,6.723L19.848,213.308V20H27.848 M35.848,12h-8h-8h-8v8
			v193.308V228.7l12.597-8.845L212.309,87.943l6.296-4.421l-4.171-6.464l-4.338-6.723l-4.523-7.009l-6.814,4.812L35.848,183.183V20
			V12L35.848,12z"/>
	</g>
</g>
<g>
	<polygon style="fill-rule:evenodd;clip-rule:evenodd;fill:#BDBDBD;" points="168.608,223.98 168.608,164.022 139.263,164.022 
		139.263,137.667 224.309,137.667 224.309,164.022 194.964,164.022 194.964,223.98 	"/>
	<g>
		<path style="fill:#1D1D1D;" d="M220.309,141.667v18.355h-21.345h-8v8v51.958h-18.355v-51.958v-8h-8h-21.345v-18.355H220.309
			 M228.309,133.667h-93.046v34.355h29.345v59.958h34.355v-59.958h29.345V133.667L228.309,133.667z"/>
	</g>
</g>
<rect style="fill-rule:evenodd;clip-rule:evenodd;fill:none;" width="240" height="240"/>
</svg>
