<?xml version="1.0" encoding="utf-8"?>
<!-- Generator: Adobe Illustrator 19.2.1, SVG Export Plug-In . SVG Version: 6.00 Build 0)  -->
<svg version="1.1" id="Layer_1" xmlns="http://www.w3.org/2000/svg" xmlns:xlink="http://www.w3.org/1999/xlink" x="0px" y="0px"
	 viewBox="0 0 240 240" enable-background="new 0 0 240 240" xml:space="preserve">
<g>
	<g>
		<path fill="#BDBDBD" d="M132.2,198.2c-0.5,0-0.9,0-1.4,0c-11.2-0.5-21.2-6.1-28.9-16.4c-9.1-12.1-12.6-26.2-16.7-42.4
			C82.3,127.7,79,114.5,73,99.6C59.6,66.1,28.7,39.4,28.4,39.1l-3-2.6l10.4-12.2l3,2.6c1.4,1.2,34.1,29.3,49.1,66.7
			c6.4,16,9.8,29.7,12.9,41.9c3.8,15.1,6.8,27.1,13.9,36.6c4.8,6.3,10.6,9.8,16.8,10.1c0.3,0,0.5,0,0.8,0c6.8,0,14.2-3.9,20.2-10.6
			c5.1-5.8,10-13.2,15.2-21c9-13.6,18.4-27.7,30.7-36.2c9.9-6.8,22.5-9.2,30.2-9.2l4.4,0l-0.1,16l-4.2,0c-5.9,0-14.8,2-21.2,6.4
			c-9.8,6.7-18.3,19.5-26.4,31.8c-5.5,8.3-10.8,16.2-16.6,22.8C155.3,192.4,143.6,198.2,132.2,198.2z"/>
		<path fill="#1D1D1D" d="M36.2,30c1.4,1.2,33.3,28.6,48,65.1c6.3,15.7,9.7,29.3,12.7,41.4c3.9,15.6,7,27.9,14.6,38.1
			c5.5,7.3,12.4,11.3,19.8,11.7c0.3,0,0.6,0,0.9,0c8,0,16.4-4.3,23.1-11.9c5.3-6,10.3-13.5,15.6-21.5c8.8-13.3,17.9-27,29.7-35.1
			c9.1-6.3,20.7-8.5,27.9-8.5c0.1,0,0.2,0,0.3,0l-0.1,8c-0.1,0-0.1,0-0.2,0c-6.6,0-16.3,2.2-23.5,7.1c-10.4,7.2-19.1,20.2-27.5,32.9
			c-5.4,8.2-10.6,16-16.3,22.4c-8.3,9.3-18.9,14.6-29.2,14.6c-0.4,0-0.8,0-1.2,0c-10-0.4-18.9-5.5-25.9-14.8
			c-8.6-11.5-12-25.1-16-40.9c-2.9-11.8-6.3-25.1-12.4-40.3C62.9,63.5,31.3,36.4,31,36.1L36.2,30 M35.3,18.7l-5.2,6.1l-5.2,6.1
			L19.7,37l6.1,5.2c0.3,0.3,30.5,26.4,43.5,58.9c5.9,14.7,9.2,27.8,12,39.3c4,15.9,7.7,31,17.3,43.8c8.5,11.3,19.5,17.5,32,18
			c0.5,0,1,0,1.6,0c12.6,0,25.4-6.3,35.1-17.3c6.1-6.8,11.4-14.8,17-23.2c8-12,16.2-24.4,25.4-30.7c5.7-3.9,13.8-5.7,18.9-5.7l0.1,0
			l8,0.1l0.1-8l0.1-8l0.1-8l-8-0.1l-0.4,0c-8.7,0-21.8,2.6-32.5,9.9c-13,8.9-22.6,23.3-31.8,37.2c-5.1,7.7-10,15-14.9,20.6
			c-5.2,5.9-11.5,9.2-17.2,9.2c-0.2,0-0.4,0-0.6,0c-3.5-0.1-8.7-1.7-13.8-8.5c-6.7-8.9-9.4-19.9-13.3-35.2
			c-3.1-12.3-6.5-26.2-13-42.4c-15.3-38.3-48.8-67-50.2-68.2L35.3,18.7L35.3,18.7z"/>
	</g>
	<g>
		<path fill="#DF6E41" d="M33.6,209.7l1.2-3.8c1.9-6.4,19.3-63,34.8-79.6c9.5-10.3,23.8-16.4,38.1-16.4c1.8,0,3.7,0.1,5.5,0.3
			c17.4,2,32.7,10.3,51.1,27.8c1.3,1.2,2.5,2.4,3.7,3.5l0.5,0.5c11.7,11.2,14.2,13.6,23.8,13.6c3.1,0,6.9-0.3,10.6-0.6l28.7-2.3
			l1.3,16l-28.7,2.3c-4.7,0.4-8.4,0.5-11.4,0.5c-15.7,0-21.3-4.6-35.3-17.9l-0.5-0.5c-1.1-1.1-2.4-2.3-3.7-3.5
			c-19.8-18.7-32.3-22.4-42-23.5c-1.2-0.1-2.4-0.2-3.7-0.2c-9.7,0-19.8,4.3-26.3,11.3c-3,3.2-9.7,12.9-20.3,41.5
			c-6.3,16.8-10.8,31.7-10.8,31.9l-1.2,3.8L33.6,209.7z"/>
		<path fill="#1D1D1D" d="M107.6,113.9c1.7,0,3.3,0.1,5,0.3c16.5,1.9,31.1,9.9,48.8,26.7c1.5,1.4,2.9,2.8,4.2,4
			c12,11.5,15.3,14.7,26.6,14.7c3,0,6.5-0.2,10.9-0.6l24.7-1.9l0.6,8l-24.7,1.9c-4.3,0.3-8,0.5-11.1,0.5c-14.4,0-19.1-4-32.5-16.8
			c-1.3-1.2-2.7-2.6-4.2-4c-20.6-19.5-33.9-23.4-44.2-24.6c-1.4-0.2-2.8-0.2-4.1-0.2c-10.8,0-21.9,4.7-29.2,12.6
			c-5.6,6.1-12.9,20.9-21.1,42.8c-6.3,16.8-10.9,32-10.9,32.1l-7.7-2.3c0.8-2.5,18.8-61.8,33.9-78
			C81.3,119.5,94.6,113.9,107.6,113.9 M107.6,105.9c-15.4,0-30.7,6.6-41,17.7c-16.1,17.3-33.7,74.7-35.7,81.2l-2.3,7.7l7.7,2.3
			l7.7,2.3l7.7,2.3l2.3-7.6c0.2-0.6,4.6-15.3,10.8-31.6c10.8-28.9,17.3-37.7,19.5-40.2c5.7-6.2,14.7-10,23.3-10
			c1.1,0,2.2,0.1,3.2,0.2c9,1,20.8,4.5,39.7,22.4c1.4,1.3,2.7,2.6,4,3.8l0.2,0.2c14.2,13.5,20.6,19,38,19c3.2,0,6.9-0.2,11.8-0.6
			l24.7-1.9l8-0.6l-0.6-8l-0.6-8l-0.6-8l-8,0.6l-24.7,1.9c-3.6,0.3-7.3,0.5-10.3,0.5c-7.8,0-9.1-1.1-21.1-12.4l-0.3-0.3
			c-1.2-1.2-2.5-2.4-3.9-3.7c-19.1-18.1-35.1-26.7-53.4-28.8C111.6,106,109.6,105.9,107.6,105.9L107.6,105.9z"/>
	</g>
</g>
<g>
	<path fill="none" stroke="#BDBDBD" stroke-width="8" stroke-miterlimit="10" d="M33.6,33.2c0,0,32.4,27.6,46.8,63.5
		S94,158,108.3,177.1s35.6,16.3,50.1,0c14.5-16.3,26.7-43.6,44.5-55.9c8.5-5.8,19.3-7.9,26-7.8"/>
	<path fill="none" stroke="#DF6E41" stroke-width="8" stroke-miterlimit="10" d="M42.4,208.3c0,0,18.3-60.7,33-76.5
		c9.1-9.8,23.4-15.1,36.7-13.6c13.4,1.6,27.1,7.2,46.5,25.6s20.1,21.1,44.8,19.2s0,0,24.7-1.9"/>
</g>
<rect fill-rule="evenodd" clip-rule="evenodd" fill="none" width="240" height="240"/>
<g>
	<polygon fill-rule="evenodd" clip-rule="evenodd" fill="#BDBDBD" points="24,232 24,216.5 8.5,216.5 8.5,200.5 24,200.5 24,8 40,8 
		40,200.5 232.5,200.5 232.5,216.5 40,216.5 40,232 	"/>
	<path fill="#1D1D1D" d="M36,12v192.4h192.5l0,8H36V228h-8v-15.6H12.5l0-8H28V12H36 M44,4h-8h-8h-8v8v184.4h-7.5h-8l0,8l0,8l0,8h8
		H20v7.6v8h8h8h8v-8v-7.6h184.5h8l0-8l0-8l0-8h-8H44V12V4L44,4z"/>
</g>
<rect x="120.7" y="5" opacity="0.5" fill-rule="evenodd" clip-rule="evenodd" fill="#DF6E41" width="8.5" height="230"/>
</svg>
