<?xml version="1.0" encoding="utf-8"?>
<!-- Generator: Adobe Illustrator 19.2.1, SVG Export Plug-In . SVG Version: 6.00 Build 0)  -->
<svg version="1.1" id="Layer_1" xmlns="http://www.w3.org/2000/svg" xmlns:xlink="http://www.w3.org/1999/xlink" x="0px" y="0px"
	 viewBox="0 0 240 240" enable-background="new 0 0 240 240" xml:space="preserve">
<rect fill-rule="evenodd" clip-rule="evenodd" fill="none" width="240" height="240"/>
<g>
	<g>
		<path fill="#1D1D1D" d="M120,67.4l92.2,63.5l-92.3,63.6L27.8,131L120,67.4 M120,57.7l-4.5,3.1l-92.2,63.5l-9.6,6.6l9.6,6.6
			l92.2,63.6l4.5,3.1l4.5-3.1l92.3-63.6l9.6-6.6l-9.6-6.6l-92.2-63.5L120,57.7L120,57.7z"/>
	</g>
	<g>
		<g>
			<g>
				<polygon fill-rule="evenodd" clip-rule="evenodd" fill="#DB9456" points="20.7,131 120,62.6 219.3,131 119.9,199.4 				"/>
			</g>
			<g>
				<path fill="#1D1D1D" d="M120,67.4l92.2,63.5l-92.3,63.6L27.8,131L120,67.4 M120,57.7l-4.5,3.1l-92.2,63.5l-9.6,6.6l9.6,6.6
					l92.2,63.6l4.5,3.1l4.5-3.1l92.3-63.6l9.6-6.6l-9.6-6.6l-92.2-63.5L120,57.7L120,57.7z"/>
			</g>
		</g>
		<g>
			
				<line fill-rule="evenodd" clip-rule="evenodd" fill="none" stroke="#1D1D1D" stroke-width="8" stroke-miterlimit="10" x1="71" y1="96.9" x2="169" y2="165.1"/>
			
				<line fill-rule="evenodd" clip-rule="evenodd" fill="none" stroke="#1D1D1D" stroke-width="8" stroke-miterlimit="10" x1="169.3" y1="97.3" x2="70.7" y2="164.7"/>
		</g>
	</g>
</g>
<g>
	<polygon fill-rule="evenodd" clip-rule="evenodd" fill="#BDBDBD" points="192.3,139.1 192.3,127.8 189,127.8 189,139.1 
		158.2,139.1 158.2,119.8 181,119.8 181,36.8 158.2,36.8 158.2,17.5 189,17.5 189,28.8 192.3,28.8 192.3,17.5 223.1,17.5 
		223.1,36.8 200.3,36.8 200.3,119.8 223.1,119.8 223.1,139.1 	"/>
	<path fill="#1D1D1D" d="M219.1,21.5v11.3h-22.7V21.5H219.1 M185,21.5v11.3h-22.7V21.5H185 M196.3,32.8v91H185v-91H196.3
		 M219.1,123.8v11.3h-22.7v-11.3H219.1 M185,123.8v11.3h-22.7v-11.3H185 M227.1,13.5h-8h-22.7H193h-8h-22.7h-8v8v11.3v8h8H177v75.1
		h-14.7h-8v8v11.3v8h8H185h3.4h8h22.7h8v-8v-11.3v-8h-8h-14.7V40.8h14.7h8v-8V21.5V13.5L227.1,13.5z"/>
</g>
</svg>
