<?xml version="1.0" encoding="iso-8859-1"?>
<!-- Generator: Adobe Illustrator 19.2.1, SVG Export Plug-In . SVG Version: 6.00 Build 0)  -->
<svg version="1.1" id="Layer_1" xmlns="http://www.w3.org/2000/svg" xmlns:xlink="http://www.w3.org/1999/xlink" x="0px" y="0px"
	 viewBox="0 0 240 240" style="enable-background:new 0 0 240 240;" xml:space="preserve">
<g>
	<polygon style="fill-rule:evenodd;clip-rule:evenodd;fill:#D6806D;stroke:#1D1D1D;stroke-width:8;stroke-miterlimit:10;" points="
		209.46,81.5 209.46,108.012 186.5,94.756 163.54,81.5 186.5,68.244 209.46,54.988 	"/>
	<polygon style="fill-rule:evenodd;clip-rule:evenodd;fill:#D6806D;stroke:#1D1D1D;stroke-width:8;stroke-miterlimit:10;" points="
		209.46,193.5 209.46,220.012 186.5,206.756 163.54,193.5 186.5,180.244 209.46,166.988 	"/>
	<polygon style="fill-rule:evenodd;clip-rule:evenodd;fill:#D6806D;stroke:#1D1D1D;stroke-width:8;stroke-miterlimit:10;" points="
		30.54,193.5 30.54,166.988 53.5,180.244 76.46,193.5 53.5,206.756 30.54,220.012 	"/>
	<polygon style="fill-rule:evenodd;clip-rule:evenodd;fill:#D6806D;stroke:#1D1D1D;stroke-width:8;stroke-miterlimit:10;" points="
		30.54,81.5 30.54,54.988 53.5,68.244 76.46,81.5 53.5,94.756 30.54,108.012 	"/>
</g>
<g>
	<linearGradient id="SVGID_1_" gradientUnits="userSpaceOnUse" x1="120.0002" y1="16.0122" x2="120.0002" y2="224.0127">
		<stop  offset="0" style="stop-color:#D1D1D1"/>
		<stop  offset="1" style="stop-color:#000000"/>
	</linearGradient>
	<rect x="72.791" y="16.012" style="fill-rule:evenodd;clip-rule:evenodd;fill:url(#SVGID_1_);" width="94.419" height="208"/>
	<path style="fill:#1D1D1D;" d="M163.21,20.012v200H76.79v-200H163.21 M171.21,12.012H68.79v216H171.21V12.012L171.21,12.012z"/>
</g>
<rect style="fill-rule:evenodd;clip-rule:evenodd;fill:none;" width="240" height="240"/>
</svg>
