<?xml version="1.0" encoding="utf-8"?>
<!-- Generator: Adobe Illustrator 19.2.1, SVG Export Plug-In . SVG Version: 6.00 Build 0)  -->
<svg version="1.1" id="Layer_1" xmlns="http://www.w3.org/2000/svg" xmlns:xlink="http://www.w3.org/1999/xlink" x="0px" y="0px"
	 viewBox="0 0 240 240" enable-background="new 0 0 240 240" xml:space="preserve">
<path fill="#AE9CDB" d="M96.7,24.2L20.4,72.1v91.7l122.9,52l76.4-47.9V76.2L96.7,24.2z M100.7,110.7L139,127v1.6l-38.3-16.3V110.7z
	 M142.7,119.8L100.7,102V34.5l106,44.9L142.7,119.8z M92.7,98.6L33.4,73.3l59.3-37.2V98.6z M92.7,107.3v5.4l-64.4,40.6V79.9
	L92.7,107.3z M97.1,119.4l42,17.9v68.1L32.4,160.2L97.1,119.4z M147,140.7l60.2,25.6L147,204V140.7z M147,132v-5.5l64.6-40.7v73.7
	L147,132z"/>
<g>
	<path fill="#1D1D1D" d="M96.7,24.2l122.9,52v91.7l-76.4,47.9l-122.9-52V72.1L96.7,24.2 M142.7,119.8l64.1-40.4l-106-44.9V102
		L142.7,119.8 M92.7,98.6V36.1L33.4,73.3L92.7,98.6 M28.4,153.3l64.4-40.6v-5.4L28.4,79.9V153.3 M211.6,159.5V85.8L147,126.5v5.5
		L211.6,159.5 M139,128.6V127l-38.3-16.3v1.6L139,128.6 M139,205.4v-68.1l-42-17.9l-64.7,40.8L139,205.4 M147,204l60.2-37.7
		L147,140.7V204 M96,15.2l-3.5,2.2L16.1,65.3l-3.7,2.4v4.4v91.7v5.3l4.9,2.1l122.9,52l3.8,1.6l3.5-2.2l76.4-47.9l3.7-2.4v-4.4V76.2
		v-5.3l-4.9-2.1l-122.9-52L96,15.2L96,15.2z M108.7,96.7V46.6l80.8,34.2l-47.6,30L108.7,96.7L108.7,96.7z M50.6,72l34.1-21.4v35.9
		L50.6,72L50.6,72z M36.4,138.8V92l44.3,18.9L36.4,138.8L36.4,138.8z M159,128.4l44.6-28.1v47.1L159,128.4L159,128.4z M49.6,158.8
		l48.2-30.4l33.2,14.1v50.7L49.6,158.8L49.6,158.8z M155,189.6v-36.8l34.9,14.9L155,189.6L155,189.6z"/>
</g>
<rect fill-rule="evenodd" clip-rule="evenodd" fill="none" width="240" height="240"/>
<rect fill-rule="evenodd" clip-rule="evenodd" fill="none" width="240" height="240"/>
</svg>
