<?xml version="1.0" encoding="utf-8"?>
<!-- Generator: Adobe Illustrator 19.2.1, SVG Export Plug-In . SVG Version: 6.00 Build 0)  -->
<svg version="1.1" id="Layer_1" xmlns="http://www.w3.org/2000/svg" xmlns:xlink="http://www.w3.org/1999/xlink" x="0px" y="0px"
	 viewBox="0 0 240 240" enable-background="new 0 0 240 240" xml:space="preserve">
<rect fill-rule="evenodd" clip-rule="evenodd" fill="none" width="240" height="240"/>
<rect fill-rule="evenodd" clip-rule="evenodd" fill="none" width="240" height="240"/>
<g>
	<g>
		<path fill="#DF6E41" d="M204.9,213.2c-9.4,0-17.3-3.1-23.4-9.3c-16-16.2-15.4-50.1-14.9-80c0.1-5.3,0.2-10.3,0.2-15.1
			c0-37.5-14.5-54.3-46.9-54.3c-32.4,0-46.9,16.7-46.9,54.3c0,4.7,0.1,9.6,0.2,14.9c0.5,30,1.1,64-14.9,80.2
			c-6.1,6.1-13.9,9.3-23.4,9.3l-4.3,0l0.1-16l4.3,0c5.1,0,8.8-1.4,11.9-4.5c11.3-11.4,10.7-43.1,10.3-68.6
			c-0.1-5.3-0.2-10.3-0.2-15.2c0-23.4,5.1-40.5,15.7-52.4C83.5,44.6,99.3,38.5,120,38.5c41.1,0,62.9,24.3,62.9,70.3
			c0,5-0.1,10-0.2,15.3c-0.5,25.4-1,57.1,10.2,68.5c3,3,6.9,4.5,11.8,4.5l4.4-0.1l0.1,16L204.9,213.2z"/>
		<path fill="#1D1D1D" d="M120,42.5c39.1,0,58.9,22.3,58.9,66.3c0,4.9-0.1,9.9-0.2,15.3c-0.5,27.6-1.1,58.8,11.4,71.4
			c3.8,3.8,8.6,5.7,14.6,5.7c0.1,0,0.3,0,0.4,0l0.1,8c-0.1,0-0.2,0-0.3,0c-8.3,0-15.2-2.7-20.5-8.1c-14.8-15-14.2-48-13.7-77.1
			c0.1-5.3,0.2-10.3,0.2-15.1c0-39.8-16.2-58.3-50.9-58.3c-34.7,0-50.9,18.5-50.9,58.3c0,4.8,0.1,9.7,0.2,15
			c0.5,29.2,1.1,62.2-13.7,77.3c-5.3,5.4-12.2,8.1-20.5,8.1c-0.1,0-0.2,0-0.3,0l0.1-8c0.1,0,0.2,0,0.3,0c6.1,0,10.9-1.9,14.7-5.7
			c12.5-12.6,11.9-43.9,11.4-71.5c-0.1-5.3-0.2-10.3-0.2-15.2c0-22.3,4.8-38.6,14.7-49.7C85.6,48.1,100.5,42.5,120,42.5 M120,34.5
			c-21.9,0-38.7,6.5-50.1,19.2c-11.3,12.7-16.8,30.7-16.8,55.1c0,4.9,0.1,10,0.2,15.3c0.4,24.7,1,55.5-9.1,65.7
			c-2.3,2.3-5.1,3.3-9,3.3l-0.2,0l-8-0.1l-0.1,8l-0.1,8l-0.1,8l8,0.1l0.3,0c10.4,0,19.4-3.6,26.2-10.4c17.2-17.4,16.6-52.3,16.1-83
			l0-0.1c-0.1-5.2-0.2-10.1-0.2-14.8c0-18,3.4-30.7,10.4-38.8c6.7-7.7,17.4-11.5,32.4-11.5c15.1,0,25.7,3.8,32.4,11.5
			c7,8.1,10.4,20.7,10.4,38.8c0,4.7-0.1,9.7-0.2,14.9l0,0.1c-0.5,30.7-1.2,65.5,16,82.9c6.8,6.8,15.8,10.4,26.2,10.4l0.4,0l8-0.1
			l-0.1-8l-0.1-8l-0.1-8.1l-8.1,0.1l-0.3,0c-3.9,0-6.7-1-8.9-3.3c-10.1-10.2-9.5-40.9-9.1-65.6c0.1-5.4,0.2-10.4,0.2-15.4
			c0-23.9-5.7-42.4-16.8-54.9C158.7,41,141.8,34.5,120,34.5L120,34.5z"/>
	</g>
	<g>
		<path fill-rule="evenodd" clip-rule="evenodd" fill="#BDBDBD" d="M42,54.5c-2.2,0-4-1.8-4-4v-8c0-2.2,1.8-4,4-4h156
			c2.2,0,4,1.8,4,4v8c0,2.2-1.8,4-4,4H42z"/>
		<path fill="#1D1D1D" d="M198,42.5v8H42v-8H198 M198,34.5H42c-4.4,0-8,3.6-8,8v8c0,4.4,3.6,8,8,8h156c4.4,0,8-3.6,8-8v-8
			C206,38.1,202.4,34.5,198,34.5L198,34.5z"/>
	</g>
	<g>
		<path fill-rule="evenodd" clip-rule="evenodd" fill="#BDBDBD" d="M34.2,63.7c-9.5,0-17.2-7.7-17.2-17.2s7.7-17.2,17.2-17.2
			s17.2,7.7,17.2,17.2S43.7,63.7,34.2,63.7z"/>
		<path fill="#1D1D1D" d="M34.2,33.3c7.3,0,13.2,5.9,13.2,13.2c0,7.3-5.9,13.2-13.2,13.2c-7.3,0-13.2-5.9-13.2-13.2
			C21.1,39.2,27,33.3,34.2,33.3 M34.2,25.3c-11.7,0-21.2,9.5-21.2,21.2s9.5,21.2,21.2,21.2s21.2-9.5,21.2-21.2S45.9,25.3,34.2,25.3
			L34.2,25.3z"/>
	</g>
	<g>
		<path fill-rule="evenodd" clip-rule="evenodd" fill="#BDBDBD" d="M205.8,63.7c-9.5,0-17.2-7.7-17.2-17.2s7.7-17.2,17.2-17.2
			s17.2,7.7,17.2,17.2S215.2,63.7,205.8,63.7z"/>
		<path fill="#1D1D1D" d="M205.8,33.3c7.3,0,13.2,5.9,13.2,13.2c0,7.3-5.9,13.2-13.2,13.2s-13.2-5.9-13.2-13.2
			C192.6,39.2,198.5,33.3,205.8,33.3 M205.8,25.3c-11.7,0-21.2,9.5-21.2,21.2s9.5,21.2,21.2,21.2c11.7,0,21.2-9.5,21.2-21.2
			S217.4,25.3,205.8,25.3L205.8,25.3z"/>
	</g>
	<g>
		<rect x="100.3" y="26.8" fill-rule="evenodd" clip-rule="evenodd" fill="#BDBDBD" width="39.4" height="39.4"/>
		<path fill="#1D1D1D" d="M135.7,30.8v31.4h-31.4V30.8H135.7 M143.7,22.8h-8h-31.4h-8v8v31.4v8h8h31.4h8v-8V30.8V22.8L143.7,22.8z"
			/>
	</g>
	<g>
		<rect x="114" y="40.6" fill-rule="evenodd" clip-rule="evenodd" fill="#1D1D1D" width="11.9" height="11.9"/>
	</g>
</g>
</svg>
