<?xml version="1.0" encoding="iso-8859-1"?>
<!-- Generator: Adobe Illustrator 19.2.1, SVG Export Plug-In . SVG Version: 6.00 Build 0)  -->
<svg version="1.1" id="Layer_1" xmlns="http://www.w3.org/2000/svg" xmlns:xlink="http://www.w3.org/1999/xlink" x="0px" y="0px"
	 viewBox="0 0 240 240" style="enable-background:new 0 0 240 240;" xml:space="preserve">
<g>
	<path style="fill:#58A5CC;" d="M87.847,224C48.23,224,16,191.77,16,152.153s32.23-71.847,71.847-71.847s71.847,32.23,71.847,71.847
		S127.463,224,87.847,224z"/>
	<path style="fill:#1D1D1D;" d="M87.847,84.307c37.411,0,67.847,30.436,67.847,67.847S125.257,220,87.847,220S20,189.564,20,152.153
		S50.436,84.307,87.847,84.307 M87.847,76.307C45.958,76.307,12,110.264,12,152.153S45.958,228,87.847,228
		s75.847-33.958,75.847-75.847S129.736,76.307,87.847,76.307L87.847,76.307z"/>
</g>
<g>
	<circle style="fill:#BFB23A;" cx="152.153" cy="87.847" r="71.847"/>
</g>
<g>
	<path style="fill:#ABC85D;" d="M91.174,79.932c-3.533,0-7.003,0.268-10.394,0.781C80.268,84.103,80,87.573,80,91.106
		c0,38.087,30.875,68.962,68.962,68.962c3.533,0,7.003-0.268,10.394-0.781c0.512-3.39,0.781-6.861,0.781-10.394
		C160.137,110.807,129.261,79.932,91.174,79.932z"/>
</g>
<path style="fill:#9B871A;" d="M88.834,75.932c-3.851,0-7.634,0.292-11.329,0.851c-0.403,2.668-0.663,5.384-0.779,8.136
	c3.069-0.546,6.207-0.885,9.404-0.998c0.647-0.026,1.293-0.042,1.939-0.049c0.154-0.001,0.306-0.012,0.461-0.012
	c0.038,0,0.076,0.003,0.114,0.003c0.063,0,0.127-0.003,0.19-0.003c37.075,0,67.238,30.163,67.238,67.238
	c0,1.373-0.042,2.75-0.126,4.126c-0.106,0.006-0.212,0.009-0.318,0.015c-0.166,2.709-0.498,5.372-0.977,7.986
	c2.877-0.107,5.712-0.376,8.498-0.797c0.559-3.695,0.851-7.478,0.851-11.329C164,109.585,130.347,75.932,88.834,75.932z"/>
<g>
	<path style="fill:#1D1D1D;" d="M152.153,20.5c37.135,0,67.347,30.212,67.347,67.347s-30.212,67.347-67.347,67.347
		s-67.347-30.212-67.347-67.347S115.018,20.5,152.153,20.5 M152.153,12c-41.889,0-75.847,33.958-75.847,75.847
		s33.958,75.847,75.847,75.847S228,129.736,228,87.847S194.042,12,152.153,12L152.153,12z"/>
</g>
<circle style="fill:none;stroke:#1D1D1D;stroke-miterlimit:10;" cx="152.153" cy="87.847" r="75.847"/>
<rect style="fill-rule:evenodd;clip-rule:evenodd;fill:none;" width="240" height="240"/>
</svg>
