<?xml version="1.0" encoding="utf-8"?>
<!-- Generator: Adobe Illustrator 19.2.1, SVG Export Plug-In . SVG Version: 6.00 Build 0)  -->
<svg version="1.2" baseProfile="tiny" id="Layer_1" xmlns="http://www.w3.org/2000/svg" xmlns:xlink="http://www.w3.org/1999/xlink"
	 x="0px" y="0px" viewBox="0 0 240 240" xml:space="preserve">
<polygon fill-rule="evenodd" fill="#3E5B5F" points="119.9,225.3 30.2,173.2 30.2,65.5 120,13.4 209.8,65.5 209.8,173.2 "/>
<rect fill-rule="evenodd" fill="none" width="240" height="240"/>
<g>
	<polygon fill="#3E5B5F" points="29.7,173 29.7,64.8 120,12.5 210.3,64.8 210.3,173 119.9,225.4 	"/>
	<path fill="#1D1D1D" d="M120,17.2L120,17.2l86.3,50v103.6l0,0l-86.4,50h0l-86.2-50V67.1l0,0L120,17.2 M120,7.9l-4,2.3l-86.3,50
		l-4,2.3v4.6v103.6v4.6l4,2.3l86.2,50l4,2.3l4-2.3l86.4-50l4-2.3v-4.6V67.1v-4.6l-4-2.3l-86.3-50L120,7.9L120,7.9z"/>
</g>
<g>
	<polygon id="XMLID_100_" fill-rule="evenodd" fill="#48AAB5" points="68.9,37.4 120.1,66.9 171.1,37.4 120,7.9 	"/>
	<polygon fill="#1D1D1D" points="120.1,66.9 68.9,37.4 68.9,46.9 120.1,76.3 171.1,46.9 171.1,37.4 	"/>
</g>
<polygon fill="#48AAB5" points="25.7,175.3 76,204.5 76,145.5 25.7,116 "/>
<polyline fill="#1D1D1D" points="164.3,136.2 214.3,106.5 214.3,116 164.3,145.5 "/>
<polyline fill="#1D1D1D" points="76,136 25.7,106.5 25.7,116 76,145.5 "/>
<polygon fill="#1D1D1D" points="84,204.9 76,200.3 76,144.5 84,149.4 "/>
<polygon fill="#1D1D1D" points="164.3,144.7 156.6,149.1 156.6,204.9 164.3,200.2 "/>
<polygon fill="#48AAB5" points="162.4,91.4 121.9,68 120,66.9 118.1,68 77.6,91.4 75.7,92.5 75.7,94.7 75.7,143.3 75.7,145.5 
	77.6,146.6 118.1,170.1 120,171.2 121.8,170.1 162.4,146.6 164.3,145.5 164.3,143.3 164.3,94.7 164.3,92.5 "/>
<polygon fill="#48AAB5" points="214.3,175.3 164.3,204.1 164.3,145.5 214.3,116 "/>
<g>
</g>
<g>
</g>
<g>
</g>
<g>
</g>
<g>
</g>
<g>
</g>
</svg>
