<?xml version="1.0" encoding="iso-8859-1"?>
<!-- Generator: Adobe Illustrator 19.2.1, SVG Export Plug-In . SVG Version: 6.00 Build 0)  -->
<svg version="1.1" id="Layer_1" xmlns="http://www.w3.org/2000/svg" xmlns:xlink="http://www.w3.org/1999/xlink" x="0px" y="0px"
	 viewBox="0 0 240 240" style="enable-background:new 0 0 240 240;" xml:space="preserve">
<g>
	<rect x="16" y="16" style="fill:#BDBDBD;" width="208" height="208"/>
	<g>
		<path style="fill:#1D1D1D;" d="M220,20v200H20V20H220 M228,12H12v216h216V12L228,12z"/>
	</g>
</g>
<g>
	<path style="fill-rule:evenodd;clip-rule:evenodd;fill:#1D1D1D;" d="M66.24,12.311h53.963v53.796H66.24V12.311z"/>
	<path style="fill-rule:evenodd;clip-rule:evenodd;fill:#1D1D1D;" d="M174.167,12.311h53.962v53.796h-53.962V12.311z"/>
	<path style="fill-rule:evenodd;clip-rule:evenodd;fill:#1D1D1D;" d="M120.202,66.107h53.965v53.796h-53.965V66.107z"/>
	<path style="fill-rule:evenodd;clip-rule:evenodd;fill:#1D1D1D;" d="M12.275,66.107H66.24v53.796H12.275V66.107z"/>
	<path style="fill-rule:evenodd;clip-rule:evenodd;fill:#1D1D1D;" d="M66.24,119.904h53.963v53.794H66.24V119.904z"/>
	<path style="fill-rule:evenodd;clip-rule:evenodd;fill:#1D1D1D;" d="M174.167,119.904h53.962v53.794h-53.962V119.904z"/>
	<path style="fill-rule:evenodd;clip-rule:evenodd;fill:#1D1D1D;" d="M120.202,173.698h53.965v53.797h-53.965V173.698z"/>
	<path style="fill-rule:evenodd;clip-rule:evenodd;fill:#1D1D1D;" d="M12.275,173.698H66.24v53.797H12.275V173.698z"/>
</g>
<rect style="fill-rule:evenodd;clip-rule:evenodd;fill:none;" width="240" height="240"/>
</svg>
