<?xml version="1.0" encoding="iso-8859-1"?>
<!-- Generator: Adobe Illustrator 19.2.1, SVG Export Plug-In . SVG Version: 6.00 Build 0)  -->
<svg version="1.1" id="Layer_1" xmlns="http://www.w3.org/2000/svg" xmlns:xlink="http://www.w3.org/1999/xlink" x="0px" y="0px"
	 viewBox="0 0 240 240" style="enable-background:new 0 0 240 240;" xml:space="preserve">
<g>
	<path style="fill:#48AAB5;" d="M169.207,189.004c-0.619,0-1.246-0.03-1.863-0.09c-14.642-1.406-26.34-19.032-35.761-53.887
		l-1.022-3.783l15.084-4.412l1.065,3.941c10.811,40.002,20.982,42.103,22.106,42.211c0.117,0.012,0.221,0.017,0.323,0.017
		c6.188,0,15.575-14.602,27.897-43.397l1.621-3.787l14.289,6.617l-1.528,3.57C197.055,169.571,185.543,189.004,169.207,189.004z"/>
	<g>
		<path style="fill:#1D1D1D;" d="M200.715,131.177l7.026,3.254c-13.325,31.139-24.515,50.573-38.534,50.573
			c-0.49,0-0.983-0.023-1.48-0.071c-12.611-1.211-23.473-18.354-32.283-50.949l7.404-2.166
			c10.691,39.559,21.455,44.752,25.587,45.148c0.234,0.023,0.47,0.035,0.705,0.035C179.659,177.001,190.995,153.89,200.715,131.177
			 M196.601,120.455l-3.241,7.574c-3.879,9.065-9.011,20.593-14.308,29.344c-5.861,9.685-9.164,11.336-9.858,11.59
			c-1.237-0.555-9.488-5.435-18.623-39.233l-2.131-7.884l-7.838,2.293l-7.404,2.166l-7.521,2.2l2.045,7.565
			c4.594,16.998,9.87,30.267,15.681,39.438c6.771,10.686,14.698,16.536,23.56,17.387c0.742,0.072,1.498,0.108,2.244,0.108
			c9.415,0,17.936-5.553,26.05-16.977c5.891-8.294,12.01-20.153,19.839-38.449l3.056-7.142l-7.049-3.265l-7.026-3.254
			L196.601,120.455L196.601,120.455z"/>
	</g>
</g>
<g>
	<path style="fill:#BDBDBD;" d="M195.509,133.174l1.528-3.571c3.924-9.167,8.032-19.854,12.211-31.767l1.358-3.872l14.707,5.583
		l-1.291,3.68c-4.301,12.255-8.541,23.283-12.604,32.777l-1.621,3.787L195.509,133.174z"/>
	<path style="fill:#1D1D1D;" d="M213.023,99.16l7.225,2.743c-4.272,12.173-8.48,23.117-12.507,32.528l-7.026-3.254
		C204.671,121.933,208.812,111.161,213.023,99.16 M208.191,88.768l-2.717,7.743c-4.152,11.833-8.228,22.437-12.114,31.518
		l-3.057,7.142l7.05,3.265l7.026,3.254l7.475,3.462l3.241-7.574c4.097-9.573,8.37-20.685,12.701-33.026l2.583-7.36l-7.292-2.768
		l-7.225-2.743L208.191,88.768L208.191,88.768z"/>
</g>
<g>
	<path style="fill:#BDBDBD;" d="M131.583,135.027C112.117,63.004,99.06,58.645,96.64,58.502l0,0
		c-0.161,0-14.015,0.881-35.426,75.546l-1.127,3.93l-15.012-4.659l1.079-3.763C63.419,69.349,78.971,42.5,96.581,42.5
		c0.322,0,0.642,0.009,0.963,0.028c11.977,0.706,28.389,11.374,49.166,88.245l1.022,3.783l-15.084,4.412L131.583,135.027z"/>
	<path style="fill:#1D1D1D;" d="M96.581,46.5c0.244,0,0.486,0.007,0.73,0.021c15.025,0.885,29.495,25.942,45.538,85.296
		l-7.404,2.166c-19.882-73.559-33.596-79.182-38.569-79.475c-0.079-0.005-0.164-0.007-0.252-0.007
		c-4.275-0.001-18.547,6.231-39.255,78.444l-7.37-2.287C66.232,74.051,81.458,46.502,96.581,46.5 M96.582,38.5v8V38.5L96.582,38.5
		H96.58c-10.802,0.002-20.574,8.172-29.873,24.979c-8.053,14.555-16.034,35.808-24.398,64.974l-2.158,7.525l7.477,2.32l7.37,2.287
		l7.808,2.423l2.253-7.858c7.775-27.113,15.354-47.396,22.527-60.285c4.789-8.605,8.019-11.356,9.226-12.155
		c2.429,1.411,14.103,11.18,30.909,73.361l2.131,7.884l7.838-2.293l7.404-2.166l7.521-2.2l-2.045-7.565
		c-8.121-30.046-15.921-51.736-23.845-66.308c-8.763-16.115-18.231-24.255-28.945-24.887C97.381,38.512,96.979,38.5,96.582,38.5
		L96.582,38.5z"/>
</g>
<g>
	<rect x="37.999" y="8.012" style="fill-rule:evenodd;clip-rule:evenodd;fill:#48AAB5;" width="16" height="224"/>
	<path style="fill:#1D1D1D;" d="M49.999,12.012v216h-8v-216H49.999 M57.999,4.012h-8h-8h-8v8v216v8h8h8h8v-8v-216V4.012
		L57.999,4.012z"/>
</g>
<g>
	<rect x="8.5" y="124.873" style="fill-rule:evenodd;clip-rule:evenodd;fill:#48AAB5;" width="224" height="16"/>
	<path style="fill:#1D1D1D;" d="M228.5,128.873v8h-216v-8H228.5 M236.5,120.873h-8h-216h-8v8v8v8h8h216h8v-8v-8V120.873
		L236.5,120.873z"/>
</g>
<g>
	<rect x="8.5" y="193.873" style="fill-rule:evenodd;clip-rule:evenodd;fill:#48AAB5;" width="224" height="16"/>
	<path style="fill:#1D1D1D;" d="M228.5,197.873v8h-216v-8H228.5 M236.5,189.873h-8h-216h-8v8v8v8h8h216h8v-8v-8V189.873
		L236.5,189.873z"/>
</g>
<rect style="fill-rule:evenodd;clip-rule:evenodd;fill:none;" width="240" height="240"/>
</svg>
