<?xml version="1.0" encoding="utf-8"?>
<!-- Generator: Adobe Illustrator 19.2.1, SVG Export Plug-In . SVG Version: 6.00 Build 0)  -->
<svg version="1.1" id="Layer_1" xmlns="http://www.w3.org/2000/svg" xmlns:xlink="http://www.w3.org/1999/xlink" x="0px" y="0px"
	 viewBox="0 0 240 240" enable-background="new 0 0 240 240" xml:space="preserve">
<g>
	<path fill="#48AAB5" d="M169.2,189c-0.6,0-1.2,0-1.9-0.1c-14.6-1.4-26.3-19-35.8-53.9l-1-3.8l15.1-4.4l1.1,3.9
		c10.8,40,21,42.1,22.1,42.2c0.1,0,0.2,0,0.3,0c6.2,0,15.6-14.6,27.9-43.4l1.6-3.8l14.3,6.6l-1.5,3.6
		C197.1,169.6,185.5,189,169.2,189z"/>
	<g>
		<path fill="#1D1D1D" d="M200.7,131.2l7,3.3c-13.3,31.1-24.5,50.6-38.5,50.6c-0.5,0-1,0-1.5-0.1c-12.6-1.2-23.5-18.4-32.3-50.9
			l7.4-2.2c10.7,39.6,21.5,44.8,25.6,45.1c0.2,0,0.5,0,0.7,0C179.7,177,191,153.9,200.7,131.2 M196.6,120.5l-3.2,7.6
			c-3.9,9.1-9,20.6-14.3,29.3c-5.9,9.7-9.2,11.3-9.9,11.6c-1.2-0.6-9.5-5.4-18.6-39.2l-2.1-7.9l-7.8,2.3l-7.4,2.2l-7.5,2.2l2,7.6
			c4.6,17,9.9,30.3,15.7,39.4c6.8,10.7,14.7,16.5,23.6,17.4c0.7,0.1,1.5,0.1,2.2,0.1c9.4,0,17.9-5.6,26-17
			c5.9-8.3,12-20.2,19.8-38.4l3.1-7.1l-7-3.3l-7-3.3L196.6,120.5L196.6,120.5z"/>
	</g>
</g>
<g>
	<path fill="#BDBDBD" d="M195.5,133.2l1.5-3.6c3.9-9.2,8-19.9,12.2-31.8l1.4-3.9l14.7,5.6l-1.3,3.7c-4.3,12.3-8.5,23.3-12.6,32.8
		l-1.6,3.8L195.5,133.2z"/>
	<path fill="#1D1D1D" d="M213,99.2l7.2,2.7c-4.3,12.2-8.5,23.1-12.5,32.5l-7-3.3C204.7,121.9,208.8,111.2,213,99.2 M208.2,88.8
		l-2.7,7.7c-4.2,11.8-8.2,22.4-12.1,31.5l-3.1,7.1l7,3.3l7,3.3l7.5,3.5l3.2-7.6c4.1-9.6,8.4-20.7,12.7-33l2.6-7.4l-7.3-2.8l-7.2-2.7
		L208.2,88.8L208.2,88.8z"/>
</g>
<g>
	<path fill="#BDBDBD" d="M131.6,135c-19.5-72-32.5-76.4-34.9-76.5l0,0c-0.2,0-14,0.9-35.4,75.5l-1.1,3.9l-15-4.7l1.1-3.8
		C63.4,69.3,79,42.5,96.6,42.5c0.3,0,0.6,0,1,0c12,0.7,28.4,11.4,49.2,88.2l1,3.8l-15.1,4.4L131.6,135z"/>
	<path fill="#1D1D1D" d="M96.6,46.5c0.2,0,0.5,0,0.7,0c15,0.9,29.5,25.9,45.5,85.3l-7.4,2.2c-19.9-73.6-33.6-79.2-38.6-79.5
		c-0.1,0-0.2,0-0.3,0c-4.3,0-18.5,6.2-39.3,78.4l-7.4-2.3C66.2,74.1,81.5,46.5,96.6,46.5 M96.6,38.5v8V38.5L96.6,38.5L96.6,38.5
		c-10.8,0-20.6,8.2-29.9,25c-8.1,14.6-16,35.8-24.4,65l-2.2,7.5l7.5,2.3l7.4,2.3l7.8,2.4l2.3-7.9c7.8-27.1,15.4-47.4,22.5-60.3
		c4.8-8.6,8-11.4,9.2-12.2c2.4,1.4,14.1,11.2,30.9,73.4l2.1,7.9l7.8-2.3l7.4-2.2l7.5-2.2l-2-7.6c-8.1-30-15.9-51.7-23.8-66.3
		c-8.8-16.1-18.2-24.3-28.9-24.9C97.4,38.5,97,38.5,96.6,38.5L96.6,38.5z"/>
</g>
<g>
	<rect x="38" y="8" fill-rule="evenodd" clip-rule="evenodd" fill="#48AAB5" width="16" height="224"/>
	<path fill="#1D1D1D" d="M50,12v216h-8V12H50 M58,4h-8h-8h-8v8v216v8h8h8h8v-8V12V4L58,4z"/>
</g>
<g>
	<rect x="8.5" y="124.9" fill-rule="evenodd" clip-rule="evenodd" fill="#48AAB5" width="224" height="16"/>
	<path fill="#1D1D1D" d="M228.5,128.9v8h-216v-8H228.5 M236.5,120.9h-8h-216h-8v8v8v8h8h216h8v-8v-8V120.9L236.5,120.9z"/>
</g>
<g>
	<rect x="8.5" y="193.9" fill-rule="evenodd" clip-rule="evenodd" fill="#48AAB5" width="224" height="16"/>
	<path fill="#1D1D1D" d="M228.5,197.9v8h-216v-8H228.5 M236.5,189.9h-8h-216h-8v8v8v8h8h216h8v-8v-8V189.9L236.5,189.9z"/>
</g>
<rect fill-rule="evenodd" clip-rule="evenodd" fill="none" width="240" height="240"/>
</svg>
