<?xml version="1.0" encoding="iso-8859-1"?>
<!-- Generator: Adobe Illustrator 19.2.1, SVG Export Plug-In . SVG Version: 6.00 Build 0)  -->
<svg version="1.1" id="Layer_1" xmlns="http://www.w3.org/2000/svg" xmlns:xlink="http://www.w3.org/1999/xlink" x="0px" y="0px"
	 viewBox="0 0 240 240" style="enable-background:new 0 0 240 240;" xml:space="preserve">
<g style="opacity:0.5;">
	<path style="fill-rule:evenodd;clip-rule:evenodd;fill:#BDBDBD;" d="M29.011,16.012h51.993v207.976H29.011V16.012z"/>
	<path style="fill-rule:evenodd;clip-rule:evenodd;fill:#BDBDBD;" d="M94.002,16.012h51.995v207.976H94.002V16.012z"/>
	<path style="fill-rule:evenodd;clip-rule:evenodd;fill:#BDBDBD;" d="M158.996,16.012h51.993v207.976h-51.993V16.012z"/>
</g>
<g>
	<rect x="81.004" y="29.011" style="fill-rule:evenodd;clip-rule:evenodd;fill:#BDBDBD;" width="77.992" height="51.993"/>
	<rect x="16.012" y="29.011" style="fill-rule:evenodd;clip-rule:evenodd;fill:#BDBDBD;" width="12.999" height="51.993"/>
	<rect x="210.989" y="29.011" style="fill-rule:evenodd;clip-rule:evenodd;fill:#BDBDBD;" width="12.999" height="51.993"/>
</g>
<g>
	<rect x="16.012" y="94.003" style="fill-rule:evenodd;clip-rule:evenodd;fill:#BDBDBD;" width="77.991" height="51.993"/>
	<rect x="145.996" y="94.003" style="fill-rule:evenodd;clip-rule:evenodd;fill:#BDBDBD;" width="77.991" height="51.993"/>
</g>
<g>
	<rect x="81.004" y="158.996" style="fill-rule:evenodd;clip-rule:evenodd;fill:#BDBDBD;" width="77.992" height="51.993"/>
	<rect x="16.012" y="158.996" style="fill-rule:evenodd;clip-rule:evenodd;fill:#BDBDBD;" width="12.999" height="51.993"/>
	<rect x="210.989" y="158.996" style="fill-rule:evenodd;clip-rule:evenodd;fill:#BDBDBD;" width="12.999" height="51.993"/>
</g>
<g>
	<g>
		<path style="fill:#1D1D1D;" d="M220,20v200H20V20H220 M228,12H12v216h216V12L228,12z"/>
	</g>
</g>
<rect style="fill-rule:evenodd;clip-rule:evenodd;fill:none;" width="240" height="240"/>
</svg>
