<?xml version="1.0" encoding="utf-8"?>
<!-- Generator: Adobe Illustrator 19.2.1, SVG Export Plug-In . SVG Version: 6.00 Build 0)  -->
<svg version="1.1" id="Layer_1" xmlns="http://www.w3.org/2000/svg" xmlns:xlink="http://www.w3.org/1999/xlink" x="0px" y="0px"
	 viewBox="0 0 240 240" enable-background="new 0 0 240 240" xml:space="preserve">
<g>
	<g>
		<path fill="#1D1D1D" d="M216.2,116v8H23.8v-8H216.2 M224.2,108h-8H23.8h-8v8v8v8h8h192.4h8v-8v-8V108L224.2,108z"/>
	</g>
	<g>
		<path fill="#1D1D1D" d="M124,23.8v192.4h-8V23.8H124 M132,15.8h-8h-8h-8v8v192.4v8h8h8h8v-8V23.8V15.8L132,15.8z"/>
	</g>
</g>
<path fill="#BDBDBD" stroke="#1D1D1D" stroke-width="8" stroke-linecap="round" stroke-miterlimit="10" d="M120,16.3
	C62.7,16.3,16.3,62.7,16.3,120c0,57.3,46.4,103.7,103.7,103.7S223.7,177.3,223.7,120C223.7,62.7,177.3,16.3,120,16.3z M120,207.4
	c-48.3,0-87.4-39.1-87.4-87.4S71.7,32.6,120,32.6s87.4,39.1,87.4,87.4S168.3,207.4,120,207.4z"/>
<rect fill-rule="evenodd" clip-rule="evenodd" fill="none" width="240" height="240"/>
<g>
	<g>
		<rect x="23.8" y="116" fill="#BDBDBD" width="192.4" height="8"/>
	</g>
	<g>
		<rect x="116" y="23.8" fill="#BDBDBD" width="8" height="192.4"/>
	</g>
</g>
<g>
	<rect x="194.3" y="100.3" fill-rule="evenodd" clip-rule="evenodd" fill="#AE9CDB" width="39.4" height="39.4"/>
	<g>
		<path fill="#1D1D1D" d="M229.7,104.3v31.4h-31.4v-31.4H229.7 M237.7,96.3h-8h-31.4h-8v8v31.4v8h8h31.4h8v-8v-31.4V96.3L237.7,96.3
			z"/>
	</g>
</g>
<g>
	<rect x="100.3" y="194.3" fill-rule="evenodd" clip-rule="evenodd" fill="#AE9CDB" width="39.4" height="39.4"/>
	<g>
		<path fill="#1D1D1D" d="M135.7,198.3v31.4h-31.4v-31.4H135.7 M143.7,190.3h-8h-31.4h-8v8v31.4v8h8h31.4h8v-8v-31.4V190.3
			L143.7,190.3z"/>
	</g>
</g>
<g>
	<rect x="166.5" y="168.7" fill-rule="evenodd" clip-rule="evenodd" fill="#AE9CDB" width="39.4" height="39.4"/>
	<g>
		<path fill="#1D1D1D" d="M201.9,172.7v31.4h-31.4v-31.4H201.9 M209.9,164.7h-8h-31.4h-8v8v31.4v8h8h31.4h8v-8v-31.4V164.7
			L209.9,164.7z"/>
	</g>
</g>
<g>
	<rect x="166.5" y="34.1" fill-rule="evenodd" clip-rule="evenodd" fill="#AE9CDB" width="39.4" height="39.4"/>
	<g>
		<path fill="#1D1D1D" d="M201.9,38.1v31.4h-31.4V38.1H201.9 M209.9,30.1h-8h-31.4h-8v8v31.4v8h8h31.4h8v-8V38.1V30.1L209.9,30.1z"
			/>
	</g>
</g>
<g>
	<rect x="100.3" y="100.3" fill-rule="evenodd" clip-rule="evenodd" fill="#AE9CDB" width="39.4" height="39.4"/>
	<g>
		<path fill="#1D1D1D" d="M135.7,104.3v31.4h-31.4v-31.4H135.7 M143.7,96.3h-8h-31.4h-8v8v31.4v8h8h31.4h8v-8v-31.4V96.3L143.7,96.3
			z"/>
	</g>
</g>
<g>
	<rect x="100.3" y="6.6" fill-rule="evenodd" clip-rule="evenodd" fill="#AE9CDB" width="39.4" height="39.4"/>
	<g>
		<path fill="#1D1D1D" d="M135.7,10.6V42h-31.4V10.6H135.7 M143.7,2.6h-8h-31.4h-8v8V42v8h8h31.4h8v-8V10.6V2.6L143.7,2.6z"/>
	</g>
</g>
</svg>
