<?xml version="1.0" encoding="iso-8859-1"?>
<!-- Generator: Adobe Illustrator 19.2.1, SVG Export Plug-In . SVG Version: 6.00 Build 0)  -->
<svg version="1.1" id="Layer_1" xmlns="http://www.w3.org/2000/svg" xmlns:xlink="http://www.w3.org/1999/xlink" x="0px" y="0px"
	 viewBox="0 0 240 240" style="enable-background:new 0 0 240 240;" xml:space="preserve">
<g>
	<g>
		<path style="fill-rule:evenodd;clip-rule:evenodd;fill:#48AAB5;" d="M55.174,201.923c-4.794,0-8.504-0.208-10.85-0.393
			c-0.513,0.229-1.07,0.348-1.632,0.348c-0.447,0-0.898-0.075-1.334-0.229c-0.707-0.25-1.312-0.687-1.767-1.244
			c-0.557-0.456-0.992-1.062-1.241-1.767c-0.348-0.984-0.291-2.046,0.122-2.967c-0.944-12.377-3.164-73.656,40.19-117.009
			c35.312-35.312,81.674-40.584,106.166-40.584c4.794,0,8.503,0.208,10.849,0.393c0.513-0.229,1.069-0.348,1.632-0.348
			c0.448,0,0.899,0.075,1.337,0.23c0.702,0.249,1.305,0.683,1.759,1.237c0.561,0.456,0.998,1.064,1.248,1.773
			c0.348,0.986,0.29,2.049-0.124,2.97c0.944,12.383,3.163,73.655-40.189,117.004C126.027,196.65,79.667,201.923,55.174,201.923z"/>
		<path style="fill:#1D1D1D;" d="M184.827,42.077c5.979,0,10.213,0.335,12.015,0.51l0.464-0.464c0,0,0.031,0.29,0.056,0.515
			c0.227,0.025,0.517,0.056,0.517,0.056l-0.466,0.466c0.824,8.503,5.225,71.224-38.903,115.35
			c-34.775,34.774-81.101,39.412-103.336,39.412c-5.981,0-10.215-0.335-12.017-0.51l-0.465,0.465c0,0-0.031-0.29-0.056-0.516
			c-0.225-0.024-0.515-0.055-0.515-0.055l0.464-0.465c-0.823-8.501-5.224-71.224,38.905-115.351
			C116.266,46.715,162.593,42.077,184.827,42.077 M184.827,34.077c-11.62,0-29.592,1.213-49.224,6.991
			c-23.512,6.92-43.621,18.617-59.769,34.765c-19.704,19.703-32.66,44.994-38.507,75.171c-3.918,20.221-3.423,36.906-2.909,44.144
			c-0.436,1.556-0.4,3.239,0.16,4.823c0.452,1.279,1.209,2.393,2.176,3.268c0.876,0.97,1.992,1.729,3.273,2.182
			c0.87,0.307,1.771,0.457,2.663,0.457c0.733,0,1.461-0.101,2.163-0.298c2.43,0.172,5.941,0.342,10.321,0.342
			c11.62,0,29.592-1.213,49.225-6.991c23.512-6.92,43.621-18.617,59.768-34.764c19.704-19.703,32.659-44.993,38.505-75.169
			c3.917-20.218,3.423-36.9,2.909-44.14c0.438-1.557,0.402-3.242-0.158-4.828c-0.454-1.285-1.216-2.405-2.191-3.282
			c-0.875-0.965-1.987-1.719-3.264-2.17c-0.87-0.307-1.769-0.456-2.661-0.456c-0.732,0-1.459,0.101-2.161,0.297
			C192.718,34.248,189.207,34.077,184.827,34.077L184.827,34.077z"/>
	</g>
</g>
<g>
	<path style="fill-rule:evenodd;clip-rule:evenodd;fill:none;stroke:#1D1D1D;stroke-width:8;stroke-miterlimit:10;" d="
		M201.001,39.001c0,0-13.503,49.499-63.001,98.999c-49.5,49.5-99,62.999-99,62.999"/>
	<path style="fill-rule:evenodd;clip-rule:evenodd;fill:none;stroke:#1D1D1D;stroke-width:8;stroke-miterlimit:10;" d="
		M38.999,200.999c0,0,13.501-49.499,62.999-98.999c49.502-49.5,99.002-63,99.002-63"/>
</g>
<g>
	<g>
		<rect x="189.366" y="16.012" style="fill-rule:evenodd;clip-rule:evenodd;fill:#48AAB5;" width="34.634" height="34.634"/>
		<path style="fill:#1D1D1D;" d="M220,20.012v26.634h-26.634V20.012H220 M228,12.012h-8h-26.634h-8v8v26.634v8h8H220h8v-8V20.012
			V12.012L228,12.012z"/>
	</g>
</g>
<g>
	<g>
		<rect x="16" y="189.366" style="fill-rule:evenodd;clip-rule:evenodd;fill:#48AAB5;" width="34.634" height="34.634"/>
		<path style="fill:#1D1D1D;" d="M46.634,193.366V220H20v-26.634H46.634 M54.634,185.366h-8H20h-8v8V220v8h8h26.634h8v-8v-26.634
			V185.366L54.634,185.366z"/>
	</g>
</g>
<rect style="fill-rule:evenodd;clip-rule:evenodd;fill:none;" width="240" height="240"/>
</svg>
