<?xml version="1.0" encoding="iso-8859-1"?>
<!-- Generator: Adobe Illustrator 19.2.1, SVG Export Plug-In . SVG Version: 6.00 Build 0)  -->
<svg version="1.1" id="Layer_1" xmlns="http://www.w3.org/2000/svg" xmlns:xlink="http://www.w3.org/1999/xlink" x="0px" y="0px"
	 viewBox="0 0 240 240" style="enable-background:new 0 0 240 240;" xml:space="preserve">
<g>
	<g>
		<path style="fill-rule:evenodd;clip-rule:evenodd;fill:#DB9456;" d="M81.37,177.873c-29.944,0-54.305-24.36-54.305-54.303
			c0-29.943,24.361-54.304,54.305-54.304h54.302v54.304C135.672,153.513,111.312,177.873,81.37,177.873z"/>
		<path style="fill:#1D1D1D;" d="M131.672,73.267v50.303c0,27.781-22.52,50.303-50.302,50.303
			c-27.783,0-50.305-22.522-50.305-50.303c0-27.782,22.522-50.303,50.305-50.303H131.672 M139.672,65.267h-8H81.37
			c-32.149,0-58.305,26.155-58.305,58.303s26.155,58.303,58.305,58.303c32.148,0,58.302-26.155,58.302-58.303V73.267V65.267
			L139.672,65.267z"/>
	</g>
	<g>
		<rect x="135.929" y="56.272" style="fill-rule:evenodd;clip-rule:evenodd;fill:#BDBDBD;" width="19.932" height="19.932"/>
		<path style="fill:#1D1D1D;" d="M151.86,60.272v11.932h-11.932V60.272H151.86 M159.86,52.272h-8h-11.932h-8v8v11.932v8h8h11.932h8
			v-8V60.272V52.272L159.86,52.272z"/>
	</g>
</g>
<g>
	<g>
		<path style="fill-rule:evenodd;clip-rule:evenodd;fill:#DB9456;" d="M114.37,211.419c-29.944,0-54.305-24.36-54.305-54.304
			c0-29.942,24.361-54.303,54.305-54.303h54.302v54.303C168.672,187.059,144.312,211.419,114.37,211.419z"/>
		<path style="fill:#1D1D1D;" d="M164.672,106.812v50.303c0,27.781-22.52,50.303-50.302,50.303
			c-27.783,0-50.305-22.522-50.305-50.303c0-27.782,22.522-50.303,50.305-50.303H164.672 M172.672,98.812h-8H114.37
			c-32.149,0-58.305,26.155-58.305,58.303s26.155,58.303,58.305,58.303c32.148,0,58.302-26.155,58.302-58.303v-50.303V98.812
			L172.672,98.812z"/>
	</g>
	<g>
		<rect x="168.929" y="89.818" style="fill-rule:evenodd;clip-rule:evenodd;fill:#BDBDBD;" width="19.932" height="19.932"/>
		<path style="fill:#1D1D1D;" d="M184.86,93.818v11.932h-11.932V93.818H184.86 M192.86,85.818h-8h-11.932h-8v8v11.932v8h8h11.932h8
			v-8V93.818V85.818L192.86,85.818z"/>
	</g>
</g>
<path style="fill:#BDBDBD;stroke:#1D1D1D;stroke-width:8;stroke-linecap:round;stroke-miterlimit:10;" d="M120,16.333
	C62.746,16.333,16.333,62.746,16.333,120c0,57.253,46.413,103.667,103.667,103.667S223.667,177.253,223.667,120
	C223.667,62.746,177.254,16.333,120,16.333z M120,207.419c-48.28,0-87.419-39.139-87.419-87.419S71.72,32.581,120,32.581
	S207.419,71.72,207.419,120S168.28,207.419,120,207.419z"/>
<rect style="fill-rule:evenodd;clip-rule:evenodd;fill:none;" width="240" height="240"/>
</svg>
