<?xml version="1.0" encoding="iso-8859-1"?>
<!-- Generator: Adobe Illustrator 19.2.1, SVG Export Plug-In . SVG Version: 6.00 Build 0)  -->
<svg version="1.1" id="Layer_1" xmlns="http://www.w3.org/2000/svg" xmlns:xlink="http://www.w3.org/1999/xlink" x="0px" y="0px"
	 viewBox="0 0 240 240" style="enable-background:new 0 0 240 240;" xml:space="preserve">
<g>
	<path style="fill:#48AAB5;" d="M165.102,224c-2.271,0-4.534-0.246-6.727-0.731c-23.109-5.113-38.08-35.723-45.767-93.574
		c-8.575-64.528-24.528-77.449-33.274-79.408c-1.045-0.234-2.143-0.353-3.265-0.353c-17.117,0-39.909,27.102-50.255,44.185
		l-2.145,3.541l-13.425-8.773l2.001-3.306c0.352-0.582,8.764-14.398,21.02-27.542C48.351,41.86,62.7,33.656,75.911,33.656
		c2.309,0,4.609,0.253,6.837,0.751c23.086,5.163,38.022,35.617,45.661,93.103c8.636,64.986,24.602,77.937,33.35,79.872
		c1.026,0.227,2.104,0.342,3.203,0.342c17.12,0,39.89-27.362,50.22-44.61l2.128-3.552l13.466,8.711l-1.987,3.315
		c-0.351,0.586-8.74,14.502-20.968,27.75C192.717,215.703,178.344,224,165.102,224z"/>
	<path style="fill:#1D1D1D;" d="M75.911,37.656c2.024,0,4.011,0.218,5.963,0.655c21.253,4.753,35.178,34.103,42.569,89.727
		c6.734,50.676,19.338,79.464,36.45,83.251c1.336,0.296,2.695,0.437,4.067,0.437c21.011,0,45.521-32.98,53.652-46.556l6.744,4.363
		c-0.341,0.57-8.511,14.128-20.477,27.094C190.54,212.163,177.19,220,165.101,220c-1.989,0-3.942-0.212-5.862-0.637
		c-21.27-4.706-35.226-34.21-42.665-90.196C109.885,78.84,97.31,50.213,80.208,46.383c-1.359-0.304-2.742-0.449-4.139-0.449
		c-20.993-0.002-45.525,32.653-53.677,46.113l-6.725-4.395c0.343-0.566,8.534-14.028,20.523-26.885
		C50.514,45.406,63.846,37.656,75.911,37.656 M75.911,29.656c-14.365,0-29.698,8.631-45.572,25.654
		C17.807,68.75,9.184,82.913,8.823,83.509l-4.002,6.612l6.47,4.228l6.725,4.395l6.93,4.529l4.289-7.082
		c10.627-17.547,32.183-42.259,46.833-42.257c0.829,0,1.634,0.086,2.391,0.256c12.959,2.902,24.243,31.325,30.184,76.031
		c3.865,29.088,9.375,50.904,16.845,66.695c8.124,17.174,18.898,27.354,32.023,30.258c2.474,0.548,5.028,0.826,7.591,0.826
		c7.462,0,15.233-2.343,23.098-6.963c7.302-4.289,14.892-10.677,22.56-18.986c12.541-13.588,21.104-27.812,21.463-28.411
		l3.967-6.629l-6.486-4.196l-6.744-4.363l-6.953-4.498l-4.255,7.104c-4.01,6.694-11.873,17.749-20.839,26.872
		c-10.009,10.185-19.225,15.794-25.95,15.794c-0.809,0-1.596-0.083-2.338-0.248c-12.958-2.867-24.265-31.463-30.249-76.494
		c-3.841-28.908-9.333-50.6-16.789-66.315c-8.106-17.085-18.86-27.234-31.965-30.165C81.107,29.941,78.513,29.656,75.911,29.656
		L75.911,29.656z"/>
</g>
<g>
	<path style="fill-rule:evenodd;clip-rule:evenodd;fill:#BDBDBD;stroke:#1D1D1D;stroke-width:8;stroke-miterlimit:10;" d="
		M175.497,15.292c26.931,0,48.761,21.832,48.761,48.762s-21.83,48.761-48.761,48.761s-48.763-21.831-48.763-48.761
		S148.566,15.292,175.497,15.292z"/>
	<g>
		<rect x="170.661" y="30.659" style="fill-rule:evenodd;clip-rule:evenodd;fill:#1D1D1D;" width="11.707" height="11.781"/>
		<rect x="158.876" y="48.326" style="fill-rule:evenodd;clip-rule:evenodd;fill:#1D1D1D;" width="23.492" height="11.781"/>
		<rect x="158.876" y="83.667" style="fill-rule:evenodd;clip-rule:evenodd;fill:#1D1D1D;" width="35.24" height="11.781"/>
		<rect x="170.661" y="48.326" style="fill-rule:evenodd;clip-rule:evenodd;fill:#1D1D1D;" width="11.707" height="47.122"/>
	</g>
</g>
<rect style="fill-rule:evenodd;clip-rule:evenodd;fill:none;" width="240" height="240"/>
</svg>
