<?xml version="1.0" encoding="iso-8859-1"?>
<!-- Generator: Adobe Illustrator 19.2.1, SVG Export Plug-In . SVG Version: 6.00 Build 0)  -->
<svg version="1.1" id="Layer_1" xmlns="http://www.w3.org/2000/svg" xmlns:xlink="http://www.w3.org/1999/xlink" x="0px" y="0px"
	 viewBox="0 0 240 240" style="enable-background:new 0 0 240 240;" xml:space="preserve">
<path style="fill:#BDBDBD;stroke:#1D1D1D;stroke-width:8;stroke-linecap:round;stroke-miterlimit:10;" d="M224,16H16v208l0,0h208V16
	z"/>
<rect style="fill-rule:evenodd;clip-rule:evenodd;fill:none;" width="240" height="240"/>
<g>
	<g>
		<polygon style="fill-rule:evenodd;clip-rule:evenodd;fill:#1D1D1D;" points="99.368,89.593 88.577,102.439 130.953,149.711 
			141.737,136.867 		"/>
	</g>
</g>
<g>
	<rect x="52.088" y="51.544" style="fill:#BFB23A;" width="111.326" height="52.48"/>
	<g>
		<path style="fill:#1D1D1D;" d="M159.414,55.544v44.481H56.089V55.544H159.414 M167.414,47.544h-8H56.089h-8v8v44.481v8h8h103.325
			h8v-8V55.544V47.544L167.414,47.544z"/>
	</g>
</g>
<g>
	<rect x="76.054" y="135.858" style="fill:#BFB23A;" width="111.325" height="52.48"/>
	<g>
		<path style="fill:#1D1D1D;" d="M183.379,139.858v44.481H80.054v-44.481H183.379 M191.379,131.858h-8H80.054h-8v8v44.481v8h8
			h103.325h8v-8v-44.481V131.858L191.379,131.858z"/>
	</g>
</g>
</svg>
