<?xml version="1.0" encoding="iso-8859-1"?>
<!-- Generator: Adobe Illustrator 19.2.1, SVG Export Plug-In . SVG Version: 6.00 Build 0)  -->
<svg version="1.1" id="Layer_1" xmlns="http://www.w3.org/2000/svg" xmlns:xlink="http://www.w3.org/1999/xlink" x="0px" y="0px"
	 viewBox="0 0 240 240" style="enable-background:new 0 0 240 240;" xml:space="preserve">
<g>
	<g>
		<path style="fill:#1D1D1D;" d="M59.936,67.228c-2.54,0-4.98-0.398-7.255-1.184c-2.3-0.795-4.343-2.137-6.071-3.988
			c-1.723-1.844-3.104-4.34-4.106-7.417c-0.995-3.055-1.5-6.902-1.5-11.435c0-4.405,0.505-8.167,1.501-11.18
			c1.001-3.033,2.383-5.506,4.105-7.351c1.728-1.852,3.77-3.193,6.07-3.988c2.274-0.786,4.715-1.185,7.255-1.185
			c2.588,0,5.053,0.398,7.328,1.185c2.297,0.794,4.351,2.135,6.104,3.985c1.747,1.846,3.141,4.319,4.144,7.354
			c0.997,3.018,1.501,6.779,1.501,11.18c0,4.529-0.505,8.376-1.5,11.435c-1.003,3.078-2.397,5.574-4.144,7.419
			c-1.753,1.851-3.807,3.191-6.104,3.986C64.989,66.83,62.523,67.228,59.936,67.228z"/>
		<path style="fill:#1D1D1D;" d="M59.936,20c2.544,0,4.932,0.386,7.164,1.157c2.232,0.771,4.2,2.057,5.904,3.856
			c1.703,1.8,3.047,4.189,4.032,7.166c0.983,2.979,1.476,6.653,1.476,11.023c0,4.499-0.493,8.259-1.476,11.28
			c-0.984,3.021-2.329,5.431-4.032,7.231c-1.705,1.8-3.672,3.085-5.904,3.857c-2.232,0.771-4.62,1.157-7.164,1.157
			c-2.496,0-4.86-0.386-7.092-1.157c-2.232-0.772-4.188-2.057-5.868-3.857c-1.681-1.799-3.013-4.21-3.996-7.231
			c-0.984-3.021-1.476-6.781-1.476-11.28c0-4.371,0.491-8.044,1.476-11.023c0.983-2.978,2.315-5.367,3.996-7.166
			c1.68-1.8,3.636-3.085,5.868-3.856C55.076,20.386,57.44,20,59.936,20 M59.936,19c-2.596,0-5.092,0.408-7.418,1.212
			c-2.378,0.822-4.488,2.207-6.273,4.119c-1.772,1.897-3.19,4.433-4.215,7.535c-1.013,3.064-1.526,6.879-1.526,11.337
			c0,4.585,0.513,8.485,1.525,11.59c1.024,3.147,2.443,5.705,4.216,7.603c1.784,1.911,3.894,3.297,6.272,4.119
			c2.327,0.804,4.823,1.212,7.418,1.212c2.643,0,5.163-0.408,7.491-1.212c2.375-0.821,4.496-2.205,6.304-4.114
			c1.798-1.9,3.23-4.46,4.256-7.608c1.012-3.109,1.525-7.009,1.525-11.59c0-4.454-0.514-8.269-1.526-11.337
			c-1.026-3.104-2.458-5.641-4.255-7.54c-1.809-1.91-3.93-3.294-6.304-4.114C65.1,19.408,62.58,19,59.936,19L59.936,19z"/>
	</g>
</g>
<g>
	<g>
		<path style="fill:#1D1D1D;" d="M122.371,127.124c-2.544,0-4.991-0.447-7.272-1.329c-2.302-0.892-4.345-2.395-6.072-4.467
			c-1.717-2.06-3.094-4.845-4.092-8.28c-0.993-3.412-1.496-7.71-1.496-12.776c0-4.922,0.503-9.125,1.496-12.49
			c0.998-3.386,2.375-6.147,4.091-8.207c1.727-2.072,3.77-3.575,6.072-4.466c2.279-0.882,4.726-1.33,7.272-1.33
			c2.594,0,5.064,0.448,7.345,1.33c2.299,0.89,4.353,2.391,6.105,4.463c1.74,2.06,3.129,4.822,4.129,8.209
			c0.993,3.367,1.497,7.569,1.497,12.49c0,5.063-0.504,9.362-1.496,12.776c-1,3.436-2.39,6.223-4.13,8.282
			c-1.753,2.072-3.807,3.574-6.105,4.464C127.434,126.677,124.963,127.124,122.371,127.124z"/>
		<path style="fill:#1D1D1D;" d="M122.371,74.28c2.544,0,4.932,0.432,7.164,1.296c2.232,0.864,4.2,2.304,5.904,4.32
			c1.703,2.016,3.047,4.692,4.032,8.028c0.983,3.337,1.476,7.452,1.476,12.348c0,5.04-0.493,9.252-1.476,12.636
			c-0.984,3.384-2.329,6.084-4.032,8.1c-1.705,2.016-3.672,3.456-5.904,4.32c-2.232,0.864-4.62,1.296-7.164,1.296
			c-2.496,0-4.86-0.432-7.092-1.296c-2.232-0.864-4.188-2.304-5.868-4.32c-1.681-2.016-3.013-4.716-3.996-8.1
			c-0.984-3.384-1.476-7.596-1.476-12.636c0-4.896,0.491-9.011,1.476-12.348c0.983-3.335,2.315-6.012,3.996-8.028
			c1.68-2.016,3.636-3.456,5.868-4.32C117.511,74.712,119.875,74.28,122.371,74.28 M122.371,73.28c-2.608,0-5.116,0.459-7.453,1.364
			c-2.382,0.922-4.494,2.474-6.275,4.612c-1.76,2.112-3.169,4.933-4.187,8.385c-1.006,3.411-1.516,7.661-1.516,12.631
			c0,5.113,0.51,9.459,1.515,12.916c1.018,3.501,2.427,6.348,4.188,8.461c1.781,2.138,3.892,3.69,6.275,4.612
			c2.338,0.905,4.845,1.363,7.453,1.363c2.656,0,5.187-0.459,7.525-1.363c2.379-0.921,4.501-2.471,6.307-4.607
			c1.787-2.114,3.209-4.963,4.228-8.466c1.006-3.462,1.516-7.807,1.516-12.916c0-4.966-0.51-9.215-1.517-12.631
			c-1.019-3.454-2.441-6.277-4.227-8.39c-1.806-2.136-3.928-3.686-6.307-4.607C127.559,73.739,125.027,73.28,122.371,73.28
			L122.371,73.28z"/>
	</g>
</g>
<g>
	<g>
		<path style="fill:#1D1D1D;" d="M184.932,75.808c-2.545,0-4.992-0.447-7.272-1.33c-2.302-0.891-4.345-2.394-6.071-4.467
			c-1.718-2.059-3.094-4.845-4.093-8.28C166.503,58.32,166,54.022,166,48.956c0-4.922,0.503-9.125,1.496-12.49
			c0.998-3.386,2.375-6.147,4.092-8.207c1.727-2.072,3.77-3.575,6.071-4.466c2.28-0.882,4.727-1.33,7.272-1.33
			c2.594,0,5.064,0.448,7.345,1.33c2.299,0.89,4.353,2.391,6.105,4.463c1.74,2.06,3.129,4.822,4.129,8.209
			c0.993,3.367,1.497,7.569,1.497,12.49c0,5.063-0.504,9.362-1.496,12.776c-1,3.436-2.39,6.223-4.13,8.283
			c-1.752,2.072-3.807,3.574-6.105,4.464C189.996,75.361,187.525,75.808,184.932,75.808z"/>
		<path style="fill:#1D1D1D;" d="M184.932,22.964c2.544,0,4.932,0.432,7.164,1.296c2.232,0.864,4.2,2.304,5.904,4.32
			c1.703,2.016,3.047,4.692,4.032,8.028c0.983,3.337,1.476,7.452,1.476,12.348c0,5.04-0.493,9.252-1.476,12.636
			c-0.984,3.384-2.329,6.084-4.032,8.1c-1.705,2.016-3.672,3.456-5.904,4.32c-2.232,0.864-4.62,1.296-7.164,1.296
			c-2.496,0-4.86-0.432-7.092-1.296c-2.232-0.864-4.188-2.304-5.868-4.32c-1.681-2.016-3.013-4.716-3.996-8.1
			c-0.984-3.384-1.476-7.596-1.476-12.636c0-4.896,0.491-9.011,1.476-12.348c0.983-3.335,2.315-6.012,3.996-8.028
			c1.68-2.016,3.636-3.456,5.868-4.32C180.072,23.396,182.436,22.964,184.932,22.964 M184.932,21.964
			c-2.608,0-5.116,0.459-7.453,1.364c-2.382,0.922-4.494,2.474-6.275,4.612c-1.76,2.112-3.169,4.933-4.187,8.385
			c-1.006,3.411-1.516,7.661-1.516,12.631c0,5.113,0.51,9.459,1.515,12.916c1.018,3.501,2.427,6.348,4.188,8.461
			c1.781,2.138,3.892,3.69,6.275,4.612c2.338,0.905,4.845,1.363,7.453,1.363c2.656,0,5.187-0.459,7.525-1.363
			c2.379-0.921,4.501-2.471,6.307-4.607c1.787-2.114,3.209-4.963,4.228-8.466c1.006-3.462,1.516-7.807,1.516-12.916
			c0-4.966-0.51-9.215-1.517-12.631c-1.019-3.454-2.441-6.277-4.227-8.39c-1.806-2.137-3.928-3.686-6.307-4.607
			C190.12,22.423,187.588,21.964,184.932,21.964L184.932,21.964z"/>
	</g>
</g>
<g>
	<path style="fill:#BDBDBD;" d="M164.22,176.408c-2.209,0-4-1.791-4-4c0-3.416,0.516-6.473,1.532-9.083
		c0.994-2.559,2.371-4.891,4.093-6.927c1.637-1.936,3.571-3.734,5.75-5.349c1.972-1.46,4.08-2.964,6.266-4.471
		c1.173-0.814,2.408-1.633,3.659-2.426c1.034-0.656,1.989-1.391,2.836-2.178c0.747-0.695,1.354-1.454,1.857-2.319
		c0.338-0.584,0.503-1.27,0.503-2.096c0-1.975-0.681-2.633-0.904-2.849c-0.446-0.431-1.153-0.928-2.655-0.928
		c-0.67,0-1.19,0.122-1.547,0.361c-0.502,0.339-0.901,0.782-1.217,1.354c-0.42,0.758-0.724,1.619-0.904,2.562
		c-0.216,1.112-0.324,2.225-0.324,3.313c0,2.209-1.791,4-4,4h-9.793c-2.157,0-3.926-1.711-3.998-3.867
		c-0.11-3.313,0.289-6.458,1.186-9.347c0.921-2.965,2.335-5.605,4.201-7.852c1.927-2.316,4.365-4.14,7.25-5.418
		c2.832-1.255,6.078-1.892,9.65-1.892c2.737,0,5.392,0.437,7.892,1.298c2.55,0.88,4.834,2.167,6.791,3.827
		c2.012,1.708,3.628,3.827,4.806,6.301c1.188,2.502,1.791,5.308,1.791,8.342c0,3.098-0.529,5.852-1.572,8.186
		c-1,2.234-2.343,4.246-3.992,5.982c-1.533,1.617-3.295,3.102-5.232,4.411c-1.722,1.163-3.456,2.317-5.201,3.456
		c-0.411,0.268-0.82,0.542-1.227,0.821h13.513c2.209,0,4,1.791,4,4v8.784c0,2.209-1.791,4-4,4H164.22z"/>
	<path style="fill:#1D1D1D;" d="M183.66,121c2.304,0,4.5,0.36,6.588,1.08c2.088,0.72,3.924,1.753,5.508,3.096
		c1.584,1.344,2.844,3,3.78,4.968c0.936,1.969,1.403,4.176,1.403,6.624c0,2.545-0.408,4.729-1.224,6.552
		c-0.816,1.825-1.896,3.445-3.24,4.86c-1.344,1.417-2.868,2.7-4.572,3.852s-3.42,2.293-5.148,3.42
		c-1.728,1.128-3.409,2.34-5.04,3.636c-1.632,1.296-3.072,2.808-4.32,4.536h23.832v8.784H164.22c0-2.927,0.419-5.472,1.26-7.632
		c0.839-2.16,1.98-4.092,3.42-5.796c1.44-1.703,3.132-3.276,5.076-4.716c1.944-1.44,3.996-2.904,6.156-4.392
		c1.104-0.767,2.279-1.548,3.528-2.34c1.248-0.792,2.387-1.667,3.42-2.628c1.032-0.96,1.896-2.04,2.592-3.24
		c0.695-1.199,1.044-2.567,1.044-4.104c0-2.448-0.709-4.356-2.124-5.724c-1.416-1.368-3.229-2.052-5.436-2.052
		c-1.489,0-2.749,0.349-3.78,1.044c-1.033,0.696-1.861,1.609-2.484,2.736c-0.625,1.128-1.069,2.376-1.332,3.744
		c-0.265,1.368-0.396,2.725-0.396,4.068h-9.792c-0.097-2.88,0.24-5.555,1.008-8.028c0.768-2.472,1.919-4.631,3.456-6.48
		c1.536-1.847,3.467-3.287,5.796-4.32C177.959,121.517,180.636,121,183.66,121 M183.66,113c-4.133,0-7.925,0.752-11.27,2.235
		c-3.454,1.532-6.383,3.725-8.706,6.519c-2.204,2.652-3.868,5.754-4.944,9.222c-1.031,3.318-1.49,6.908-1.363,10.669
		c0.145,4.311,3.682,7.732,7.995,7.732h1.89c-1.647,1.384-3.145,2.871-4.471,4.439c-2.009,2.378-3.612,5.09-4.768,8.064
		c-1.196,3.073-1.803,6.617-1.803,10.529c0,4.418,3.582,8,8,8h37.008c4.418,0,8-3.582,8-8v-8.784c0-4.418-3.582-8-8-8h-0.944
		c0.697-0.624,1.363-1.271,1.996-1.938c1.96-2.064,3.555-4.453,4.739-7.098c1.275-2.852,1.921-6.155,1.921-9.819
		c0-3.633-0.733-7.017-2.178-10.058c-1.425-2.993-3.385-5.559-5.83-7.634c-2.34-1.985-5.057-3.518-8.075-4.559
		C189.935,113.51,186.841,113,183.66,113L183.66,113z"/>
</g>
<g>
	<g>
		<path style="fill:#48AAB5;" d="M59.936,71.592c-2.929,0-5.755-0.463-8.398-1.376c-2.847-0.984-5.365-2.635-7.486-4.908
			c-2.073-2.22-3.714-5.155-4.875-8.722c-1.109-3.405-1.672-7.617-1.672-12.519c0-4.779,0.564-8.91,1.678-12.278
			c1.161-3.517,2.8-6.425,4.871-8.642c2.121-2.272,4.64-3.924,7.485-4.907c2.642-0.913,5.468-1.376,8.398-1.376
			c2.978,0,5.828,0.463,8.471,1.376c2.834,0.979,5.359,2.623,7.502,4.886c2.103,2.223,3.76,5.136,4.925,8.662
			c1.114,3.374,1.678,7.504,1.678,12.279c0,4.897-0.562,9.109-1.672,12.519c-1.166,3.576-2.824,6.517-4.931,8.742
			c-2.144,2.264-4.667,3.908-7.502,4.888C65.763,71.129,62.913,71.592,59.936,71.592z M59.936,32.384
			c-0.636,0-1.15,0.097-1.447,0.274c-0.42,0.25-0.754,0.566-1.02,0.965c-0.375,0.563-0.677,1.225-0.896,1.968
			c-0.273,0.923-0.471,1.864-0.587,2.8c-0.127,1.021-0.202,2.019-0.222,2.966c-0.024,1.062-0.035,1.964-0.035,2.71
			c0,1.221,0.046,2.718,0.138,4.448c0.079,1.498,0.328,2.958,0.739,4.341c0.332,1.113,0.829,2.019,1.521,2.77
			c0.312,0.339,0.919,0.51,1.81,0.51c0.955,0,1.609-0.182,1.946-0.54c0.702-0.747,1.202-1.644,1.528-2.739
			c0.411-1.381,0.66-2.841,0.739-4.342c0.092-1.747,0.139-3.245,0.139-4.448c0-0.747-0.012-1.65-0.035-2.708
			c-0.021-0.926-0.104-1.899-0.247-2.889c-0.145-0.987-0.353-1.983-0.619-2.955c-0.193-0.7-0.467-1.301-0.835-1.833
			c-0.286-0.412-0.646-0.741-1.096-1.003C61.124,32.487,60.597,32.384,59.936,32.384z"/>
		<path style="fill:#1D1D1D;" d="M59.936,20.864c2.544,0,4.932,0.386,7.164,1.157c2.232,0.771,4.2,2.057,5.904,3.856
			c1.703,1.8,3.047,4.189,4.032,7.167c0.983,2.979,1.476,6.653,1.476,11.023c0,4.499-0.493,8.259-1.476,11.28
			c-0.984,3.021-2.329,5.431-4.032,7.231c-1.705,1.8-3.672,3.085-5.904,3.857c-2.232,0.771-4.62,1.157-7.164,1.157
			c-2.496,0-4.86-0.386-7.092-1.157c-2.232-0.772-4.188-2.057-5.868-3.857c-1.681-1.799-3.013-4.21-3.996-7.231
			c-0.984-3.021-1.476-6.781-1.476-11.28c0-4.371,0.491-8.044,1.476-11.023c0.983-2.978,2.315-5.367,3.996-7.167
			c1.68-1.8,3.636-3.085,5.868-3.856C55.076,21.25,57.44,20.864,59.936,20.864 M59.936,60.136c2.112,0,3.732-0.599,4.86-1.8
			c1.127-1.199,1.944-2.645,2.448-4.338c0.504-1.692,0.803-3.449,0.9-5.27c0.096-1.821,0.144-3.375,0.144-4.66
			c0-0.771-0.012-1.703-0.036-2.796c-0.024-1.093-0.12-2.218-0.288-3.375c-0.169-1.157-0.409-2.303-0.72-3.439
			c-0.312-1.135-0.781-2.153-1.404-3.053c-0.624-0.9-1.416-1.628-2.376-2.185c-0.961-0.557-2.137-0.836-3.528-0.836
			c-1.393,0-2.556,0.279-3.492,0.836c-0.936,0.557-1.705,1.285-2.304,2.185c-0.601,0.9-1.069,1.918-1.404,3.053
			c-0.336,1.136-0.576,2.282-0.72,3.439c-0.144,1.157-0.229,2.282-0.252,3.375c-0.025,1.092-0.036,2.025-0.036,2.796
			c0,1.285,0.047,2.839,0.144,4.66c0.096,1.822,0.396,3.578,0.9,5.27c0.504,1.693,1.308,3.139,2.412,4.338
			C56.288,59.537,57.872,60.136,59.936,60.136 M59.936,12.864c-3.376,0-6.641,0.537-9.705,1.596
			c-3.468,1.198-6.531,3.203-9.103,5.959c-2.466,2.641-4.399,6.045-5.744,10.116c-1.264,3.826-1.879,8.253-1.879,13.532
			c0,5.398,0.611,9.899,1.869,13.759c1.343,4.125,3.28,7.562,5.756,10.213c2.569,2.753,5.632,4.758,9.101,5.957
			c3.065,1.059,6.33,1.596,9.705,1.596c3.423,0,6.712-0.537,9.776-1.595c3.45-1.192,6.511-3.183,9.1-5.917
			c2.519-2.661,4.48-6.11,5.83-10.253c1.258-3.866,1.87-8.366,1.87-13.759c0-5.274-0.615-9.7-1.879-13.531
			c-1.352-4.09-3.309-7.506-5.818-10.157c-2.592-2.737-5.654-4.728-9.103-5.919C66.65,13.401,63.36,12.864,59.936,12.864
			L59.936,12.864z M60.008,49.768c-0.072-0.479-0.121-0.967-0.147-1.46c-0.088-1.664-0.133-3.09-0.133-4.24
			c0-0.721,0.011-1.592,0.034-2.613c0.018-0.822,0.082-1.682,0.193-2.568c0.01-0.077,0.02-0.155,0.031-0.232
			c0.022,0.133,0.043,0.267,0.062,0.4c0.119,0.821,0.188,1.631,0.206,2.397c0.022,1.021,0.034,1.894,0.034,2.617
			c0,1.134-0.045,2.561-0.133,4.24C60.129,48.801,60.08,49.289,60.008,49.768L60.008,49.768z"/>
	</g>
</g>
<g>
	<g>
		<path style="fill:#BDBDBD;" d="M122.371,131.488c-2.978,0-5.85-0.526-8.535-1.565c-2.864-1.108-5.386-2.956-7.498-5.49
			c-2.027-2.431-3.63-5.643-4.765-9.544c-1.084-3.729-1.634-8.356-1.634-13.753c0-5.257,0.551-9.792,1.639-13.479
			c1.134-3.846,2.735-7.028,4.76-9.458c2.112-2.535,4.635-4.382,7.498-5.489c2.683-1.039,5.555-1.566,8.535-1.566
			c3.026,0,5.923,0.527,8.608,1.567c2.85,1.102,5.378,2.941,7.514,5.466c2.058,2.436,3.677,5.625,4.814,9.479
			c1.088,3.689,1.64,8.225,1.64,13.48c0,5.394-0.551,10.021-1.636,13.754c-1.138,3.91-2.758,7.128-4.816,9.564
			c-2.137,2.525-4.665,4.365-7.516,5.469C128.292,130.962,125.396,131.488,122.371,131.488z M122.371,87.568
			c-0.4,0-0.946,0.046-1.275,0.265c-0.435,0.29-0.79,0.671-1.083,1.164c-0.408,0.685-0.735,1.489-0.973,2.394
			c-0.285,1.078-0.491,2.179-0.613,3.274c-0.13,1.174-0.208,2.323-0.228,3.415c-0.024,1.197-0.036,2.214-0.036,3.055
			c0,1.385,0.047,3.078,0.14,5.031c0.082,1.748,0.341,3.451,0.77,5.065c0.359,1.35,0.894,2.445,1.637,3.348
			c0.149,0.182,0.456,0.556,1.662,0.556c1.304,0,1.648-0.411,1.796-0.586c0.754-0.899,1.293-1.984,1.646-3.316
			c0.428-1.609,0.688-3.313,0.771-5.066c0.092-1.966,0.139-3.66,0.139-5.031c0-0.842-0.012-1.861-0.034-3.055
			c-0.022-1.073-0.108-2.201-0.256-3.346c-0.148-1.135-0.363-2.286-0.639-3.415c-0.21-0.852-0.52-1.616-0.921-2.265
			c-0.312-0.503-0.69-0.897-1.153-1.198C123.425,87.667,122.97,87.568,122.371,87.568z"/>
		<path style="fill:#1D1D1D;" d="M122.371,75.144c2.544,0,4.932,0.432,7.164,1.296c2.232,0.864,4.2,2.304,5.904,4.32
			c1.703,2.016,3.047,4.692,4.032,8.028c0.983,3.337,1.476,7.452,1.476,12.348c0,5.04-0.493,9.252-1.476,12.636
			c-0.984,3.384-2.329,6.084-4.032,8.1c-1.705,2.016-3.672,3.456-5.904,4.32c-2.232,0.864-4.62,1.296-7.164,1.296
			c-2.496,0-4.86-0.432-7.092-1.296c-2.232-0.864-4.188-2.304-5.868-4.32c-1.681-2.016-3.013-4.716-3.996-8.1
			c-0.984-3.384-1.476-7.596-1.476-12.636c0-4.896,0.491-9.011,1.476-12.348c0.983-3.335,2.315-6.012,3.996-8.028
			c1.68-2.016,3.636-3.456,5.868-4.32C117.511,75.576,119.875,75.144,122.371,75.144 M122.371,119.136
			c2.112,0,3.732-0.671,4.86-2.016c1.127-1.343,1.944-2.963,2.448-4.86c0.504-1.896,0.803-3.863,0.9-5.904
			c0.096-2.04,0.144-3.78,0.144-5.22c0-0.864-0.012-1.908-0.036-3.132c-0.024-1.224-0.12-2.484-0.288-3.78
			c-0.169-1.296-0.409-2.58-0.72-3.852c-0.312-1.271-0.781-2.412-1.404-3.42c-0.625-1.008-1.417-1.824-2.376-2.448
			c-0.961-0.624-2.137-0.936-3.528-0.936c-1.393,0-2.556,0.312-3.492,0.936c-0.936,0.624-1.705,1.44-2.304,2.448
			c-0.601,1.008-1.069,2.149-1.404,3.42c-0.336,1.272-0.576,2.556-0.72,3.852c-0.144,1.296-0.229,2.556-0.252,3.78
			c-0.025,1.224-0.036,2.268-0.036,3.132c0,1.44,0.047,3.18,0.144,5.22c0.096,2.041,0.396,4.008,0.9,5.904
			c0.504,1.897,1.308,3.517,2.412,4.86C118.723,118.465,120.307,119.136,122.371,119.136 M122.371,67.144
			c-3.476,0-6.834,0.618-9.981,1.836c-3.503,1.356-6.574,3.596-9.126,6.659c-2.375,2.849-4.234,6.512-5.523,10.886
			c-1.213,4.11-1.802,8.89-1.802,14.611c0,5.856,0.587,10.72,1.794,14.871c1.288,4.432,3.15,8.13,5.533,10.989
			c2.549,3.06,5.62,5.3,9.124,6.657c3.148,1.218,6.505,1.836,9.98,1.836c3.523,0,6.905-0.617,10.051-1.835
			c3.485-1.349,6.555-3.575,9.126-6.616c2.425-2.87,4.31-6.58,5.604-11.03c1.208-4.156,1.794-9.02,1.794-14.871
			c0-5.715-0.59-10.494-1.802-14.61c-1.297-4.393-3.178-8.069-5.594-10.929c-2.574-3.044-5.644-5.27-9.128-6.618
			C129.277,67.762,125.895,67.144,122.371,67.144L122.371,67.144z M122.443,107.653c-0.07-0.55-0.118-1.108-0.145-1.672
			c-0.09-1.895-0.135-3.524-0.135-4.845c0-0.819,0.011-1.809,0.034-2.969c0.019-0.98,0.088-2.006,0.205-3.059
			c0.006-0.058,0.013-0.116,0.02-0.173c0.015,0.108,0.03,0.216,0.044,0.324c0.128,0.993,0.203,1.974,0.222,2.906
			c0.023,1.159,0.035,2.152,0.035,2.972c0,1.302-0.046,2.932-0.135,4.845C122.561,106.546,122.513,107.104,122.443,107.653
			L122.443,107.653z"/>
	</g>
</g>
<g>
	<g>
		<path style="fill:#48AAB5;" d="M184.932,80.172c-2.98,0-5.853-0.527-8.536-1.565c-2.863-1.109-5.387-2.956-7.497-5.491
			c-2.027-2.431-3.63-5.642-4.764-9.543c-1.085-3.728-1.635-8.355-1.635-13.752c0-5.258,0.552-9.793,1.639-13.48
			c1.135-3.847,2.736-7.029,4.761-9.457c2.109-2.533,4.633-4.38,7.496-5.489c2.684-1.039,5.556-1.566,8.536-1.566
			c3.028,0,5.925,0.527,8.608,1.566c2.853,1.104,5.381,2.944,7.515,5.468c2.056,2.433,3.675,5.621,4.812,9.478
			c1.089,3.689,1.641,8.225,1.641,13.481c0,5.395-0.551,10.022-1.636,13.753c-1.138,3.91-2.758,7.127-4.816,9.564
			c-2.135,2.525-4.663,4.365-7.516,5.469C190.856,79.645,187.96,80.172,184.932,80.172z M184.932,36.252
			c-0.399,0-0.945,0.046-1.274,0.265c-0.437,0.292-0.791,0.672-1.084,1.164c-0.408,0.686-0.735,1.49-0.973,2.392
			c-0.285,1.077-0.49,2.178-0.613,3.279c-0.131,1.168-0.207,2.317-0.229,3.414c-0.024,1.198-0.035,2.214-0.035,3.055
			c0,1.371,0.047,3.064,0.139,5.032c0.082,1.745,0.342,3.449,0.771,5.064c0.358,1.35,0.894,2.444,1.635,3.346
			c0.15,0.184,0.458,0.558,1.663,0.558c1.303,0,1.648-0.412,1.796-0.587c0.754-0.898,1.293-1.983,1.646-3.316
			c0.428-1.609,0.688-3.313,0.771-5.066c0.092-1.966,0.139-3.66,0.139-5.03c0-0.843-0.012-1.861-0.034-3.055
			c-0.022-1.073-0.108-2.2-0.256-3.346c-0.148-1.137-0.363-2.288-0.639-3.416c-0.21-0.851-0.521-1.616-0.922-2.266
			c-0.311-0.501-0.688-0.894-1.152-1.196C185.983,36.35,185.529,36.252,184.932,36.252z"/>
		<path style="fill:#1D1D1D;" d="M184.932,23.828c2.544,0,4.932,0.432,7.164,1.296c2.232,0.864,4.2,2.304,5.904,4.32
			c1.703,2.016,3.047,4.692,4.032,8.028c0.983,3.337,1.476,7.452,1.476,12.348c0,5.04-0.493,9.252-1.476,12.636
			c-0.984,3.384-2.329,6.084-4.032,8.1c-1.705,2.016-3.672,3.456-5.904,4.32c-2.232,0.864-4.62,1.296-7.164,1.296
			c-2.496,0-4.86-0.432-7.092-1.296c-2.232-0.864-4.188-2.304-5.868-4.32c-1.681-2.016-3.013-4.716-3.996-8.1
			c-0.984-3.384-1.476-7.596-1.476-12.636c0-4.896,0.491-9.011,1.476-12.348c0.983-3.335,2.315-6.012,3.996-8.028
			c1.68-2.016,3.636-3.456,5.868-4.32C180.072,24.26,182.436,23.828,184.932,23.828 M184.932,67.82c2.112,0,3.732-0.671,4.86-2.016
			c1.127-1.343,1.944-2.963,2.448-4.86c0.504-1.896,0.803-3.863,0.9-5.904c0.096-2.04,0.144-3.78,0.144-5.22
			c0-0.864-0.012-1.908-0.036-3.132c-0.024-1.224-0.12-2.484-0.288-3.78c-0.169-1.296-0.409-2.58-0.72-3.852
			c-0.312-1.271-0.781-2.412-1.404-3.42c-0.625-1.008-1.417-1.824-2.376-2.448c-0.961-0.624-2.137-0.936-3.528-0.936
			c-1.393,0-2.556,0.312-3.492,0.936c-0.936,0.624-1.705,1.44-2.304,2.448c-0.601,1.008-1.069,2.149-1.404,3.42
			c-0.336,1.272-0.576,2.556-0.72,3.852c-0.144,1.296-0.229,2.556-0.252,3.78c-0.025,1.224-0.036,2.268-0.036,3.132
			c0,1.44,0.047,3.18,0.144,5.22c0.096,2.041,0.396,4.008,0.9,5.904c0.504,1.897,1.308,3.517,2.412,4.86
			C181.283,67.149,182.867,67.82,184.932,67.82 M184.932,15.828c-3.476,0-6.834,0.618-9.981,1.836
			c-3.503,1.356-6.574,3.596-9.126,6.659c-2.375,2.849-4.234,6.512-5.523,10.886c-1.213,4.11-1.802,8.89-1.802,14.611
			c0,5.856,0.587,10.72,1.794,14.871c1.288,4.432,3.15,8.13,5.533,10.989c2.549,3.06,5.62,5.3,9.124,6.657
			c3.148,1.218,6.505,1.836,9.98,1.836c3.523,0,6.905-0.617,10.051-1.835c3.485-1.349,6.555-3.575,9.126-6.616
			c2.425-2.87,4.31-6.58,5.604-11.03c1.208-4.156,1.794-9.02,1.794-14.871c0-5.715-0.59-10.494-1.802-14.61
			c-1.297-4.393-3.178-8.069-5.594-10.929c-2.574-3.044-5.644-5.27-9.128-6.618C191.838,16.446,188.456,15.828,184.932,15.828
			L184.932,15.828z M185.003,56.337c-0.07-0.55-0.118-1.108-0.145-1.672c-0.09-1.895-0.135-3.524-0.135-4.845
			c0-0.819,0.011-1.809,0.034-2.969c0.019-0.98,0.088-2.006,0.205-3.059c0.006-0.058,0.013-0.116,0.02-0.173
			c0.015,0.108,0.03,0.216,0.044,0.324c0.128,0.993,0.203,1.974,0.222,2.906c0.023,1.159,0.035,2.152,0.035,2.972
			c0,1.302-0.046,2.932-0.135,4.845C185.122,55.23,185.073,55.788,185.003,56.337L185.003,56.337z"/>
	</g>
</g>
<g>
	<g>
		<path style="fill:#BDBDBD;" d="M106.941,221.922c-3.269,0-6.318-0.487-9.062-1.448c-2.86-1.002-5.344-2.499-7.383-4.45
			c-2.044-1.951-3.639-4.357-4.737-7.149c-1.077-2.733-1.594-5.865-1.537-9.307c0.037-2.184,1.816-3.934,4-3.934h9.72
			c0.691,0,1.342,0.176,1.911,0.485c-0.325-0.578-0.511-1.246-0.511-1.957v-7.164c-0.059,0.003-0.117,0.004-0.176,0.004h-9.721
			c-1.086,0-2.126-0.442-2.88-1.225c-0.754-0.782-1.157-1.837-1.117-2.923c0.112-3.032,0.677-5.861,1.679-8.409
			c1.032-2.627,2.513-4.933,4.4-6.85c1.895-1.925,4.185-3.431,6.806-4.475c2.579-1.024,5.449-1.543,8.535-1.543
			c2.391,0,4.81,0.358,7.189,1.066c2.459,0.732,4.708,1.852,6.687,3.326c2.038,1.523,3.715,3.401,4.988,5.585
			c1.364,2.338,2.057,5.027,2.057,7.99c0,3.201-0.8,6.098-2.376,8.608c-0.29,0.461-0.604,0.896-0.941,1.309
			c0.724,0.631,1.387,1.338,1.986,2.12c2.125,2.769,3.203,6.083,3.203,9.852c0,3.256-0.663,6.231-1.971,8.845
			c-1.285,2.571-3.037,4.762-5.208,6.51c-2.105,1.696-4.551,2.996-7.27,3.863C112.577,221.495,109.793,221.922,106.941,221.922z
			 M101.431,197.677c0.302,0.539,0.484,1.156,0.508,1.814c0.035,0.98,0.192,1.921,0.467,2.796c0.231,0.737,0.55,1.358,0.946,1.848
			c0.352,0.435,0.794,0.778,1.351,1.051c0.522,0.255,1.227,0.385,2.095,0.385c1.316,0,2.322-0.352,3.166-1.106
			c0.486-0.434,1.042-1.145,1.042-2.813c0-1.236-0.22-1.861-0.335-2.019c-0.3-0.405-0.639-0.669-1.098-0.851
			c-0.743-0.294-1.59-0.468-2.515-0.517c-1.295-0.068-2.544-0.103-3.716-0.103C102.65,198.162,101.999,197.986,101.431,197.677z
			 M103.342,182.962c0.116,0,0.232,0.005,0.349,0.016c0.434,0.038,0.891,0.057,1.36,0.057c0.482,0,0.99-0.021,1.509-0.061
			c0.827-0.063,1.559-0.234,2.243-0.523c0.476-0.201,0.826-0.456,1.108-0.806c0.043-0.053,0.159-0.332,0.159-0.946
			c0-1.317-0.444-1.673-0.658-1.843c-0.728-0.583-1.512-0.854-2.47-0.854c-1.927,0-2.474,0.705-2.707,1.007
			c-0.75,0.969-1.101,2.251-1.069,3.918c0,0.013,0,0.026,0,0.039C103.224,182.963,103.283,182.962,103.342,182.962z"/>
		<path style="fill:#1D1D1D;" d="M106.869,165.578c2.017,0,4.032,0.301,6.049,0.9c2.016,0.601,3.827,1.501,5.436,2.7
			c1.607,1.201,2.916,2.664,3.924,4.392c1.008,1.728,1.512,3.72,1.512,5.976c0,2.448-0.588,4.608-1.764,6.48
			c-1.177,1.872-2.94,3.145-5.292,3.816v0.144c2.783,0.625,4.968,1.969,6.552,4.032c1.584,2.064,2.376,4.536,2.376,7.416
			c0,2.64-0.516,4.993-1.548,7.056c-1.032,2.064-2.412,3.792-4.14,5.184c-1.729,1.393-3.721,2.448-5.977,3.168
			c-2.256,0.72-4.607,1.08-7.056,1.08c-2.833,0-5.412-0.408-7.74-1.224c-2.328-0.815-4.309-2.003-5.939-3.564
			c-1.633-1.559-2.893-3.467-3.78-5.724c-0.889-2.255-1.309-4.848-1.26-7.776h9.72c0.048,1.344,0.264,2.628,0.648,3.852
			c0.384,1.224,0.936,2.28,1.655,3.168c0.721,0.889,1.62,1.596,2.7,2.124c1.08,0.529,2.364,0.792,3.853,0.792
			c2.304,0,4.248-0.708,5.832-2.124c1.584-1.415,2.376-3.348,2.376-5.796c0-1.919-0.373-3.384-1.116-4.392
			c-0.745-1.008-1.692-1.739-2.844-2.196c-1.152-0.456-2.412-0.72-3.78-0.792c-1.368-0.072-2.677-0.108-3.924-0.108v-7.2
			c0.552,0.048,1.122,0.073,1.709,0.073s1.194-0.024,1.818-0.073c1.248-0.096,2.412-0.371,3.492-0.828
			c1.08-0.456,1.968-1.116,2.664-1.98c0.695-0.864,1.044-2.016,1.044-3.456c0-2.16-0.72-3.816-2.16-4.968
			c-1.439-1.152-3.096-1.728-4.968-1.728c-2.592,0-4.548,0.853-5.868,2.556c-1.32,1.705-1.956,3.852-1.907,6.444h-9.721
			c0.096-2.592,0.563-4.956,1.404-7.092c0.839-2.135,2.016-3.971,3.528-5.508c1.512-1.536,3.323-2.724,5.436-3.564
			C101.925,165.999,104.277,165.578,106.869,165.578 M106.869,157.578c-3.595,0-6.963,0.614-10.011,1.826
			c-3.141,1.25-5.893,3.062-8.181,5.386c-2.268,2.304-4.042,5.061-5.273,8.195c-1.167,2.965-1.824,6.237-1.953,9.722
			c-0.08,2.171,0.726,4.282,2.234,5.847c1.508,1.565,3.587,2.448,5.76,2.448h5.896v0.632h-7.12c-4.366,0-7.926,3.501-7.999,7.867
			c-0.066,3.969,0.545,7.616,1.816,10.842c1.31,3.331,3.228,6.218,5.699,8.577c2.447,2.342,5.417,4.136,8.82,5.328
			c3.169,1.111,6.663,1.674,10.385,1.674c3.264,0,6.456-0.491,9.489-1.459c3.189-1.018,6.071-2.552,8.562-4.559
			c2.62-2.11,4.731-4.747,6.276-7.836c1.587-3.172,2.392-6.75,2.392-10.633c0-4.669-1.356-8.803-4.03-12.287
			c-0.034-0.044-0.068-0.088-0.102-0.132c1.501-2.847,2.26-6.025,2.26-9.47c0-3.68-0.875-7.047-2.601-10.006
			c-1.546-2.65-3.58-4.929-6.047-6.771c-2.362-1.761-5.031-3.091-7.939-3.957C112.448,157.993,109.646,157.578,106.869,157.578
			L106.869,157.578z"/>
	</g>
</g>
<g>
	<g>
		<path style="fill:#48AAB5;" d="M47.729,158.688V126H35.057v-15.814l4.109,0.112c0.202,0.005,0.403,0.008,0.604,0.008
			c1.27,0,2.512-0.113,3.692-0.336c1.183-0.222,2.241-0.611,3.149-1.155c0.843-0.506,1.542-1.162,2.136-2.005
			c0.545-0.776,0.921-1.824,1.115-3.114l0.511-3.407h15.581v58.399H47.729z"/>
		<path style="fill:#1D1D1D;" d="M61.952,104.288v50.4H51.728V122H39.056v-7.704c0.239,0.007,0.476,0.01,0.713,0.01
			c1.523,0,3.002-0.135,4.435-0.406c1.656-0.312,3.143-0.864,4.464-1.656c1.32-0.792,2.436-1.836,3.348-3.132
			c0.911-1.296,1.512-2.903,1.8-4.824H61.952 M69.952,96.288h-8h-8.136h-6.889l-1.022,6.813c-0.14,0.936-0.367,1.315-0.433,1.409
			c-0.267,0.379-0.56,0.658-0.92,0.874c-0.506,0.303-1.104,0.517-1.827,0.653c-0.942,0.178-1.935,0.268-2.956,0.268
			c-0.164,0-0.329-0.002-0.495-0.007l-8.218-0.224v8.221V122v8h8h4.672v24.688v8h8h10.224h8v-8v-50.4V96.288L69.952,96.288z"/>
	</g>
</g>
<rect style="fill-rule:evenodd;clip-rule:evenodd;fill:none;" width="240" height="240"/>
</svg>
