<?xml version="1.0" encoding="iso-8859-1"?>
<!-- Generator: Adobe Illustrator 19.2.1, SVG Export Plug-In . SVG Version: 6.00 Build 0)  -->
<svg version="1.1" id="Layer_1" xmlns="http://www.w3.org/2000/svg" xmlns:xlink="http://www.w3.org/1999/xlink" x="0px" y="0px"
	 viewBox="0 0 240 240" style="enable-background:new 0 0 240 240;" xml:space="preserve">
<polygon style="fill-rule:evenodd;clip-rule:evenodd;fill:#BDBDBD;stroke:#1D1D1D;stroke-width:8;stroke-miterlimit:10;" points="
	188.758,63.744 165.797,50.488 165.797,69 73.828,69 73.828,50.488 50.868,63.744 27.908,77 50.868,90.256 73.828,103.512 
	73.828,85 165.797,85 165.797,103.512 188.758,90.256 211.718,77 "/>
<g>
	<polygon style="fill-rule:evenodd;clip-rule:evenodd;fill:#BDBDBD;" points="106.822,223.98 106.822,164.022 77.477,164.022 
		77.477,137.667 162.522,137.667 162.522,164.022 133.178,164.022 133.178,223.98 	"/>
	<g>
		<path style="fill:#1D1D1D;" d="M158.523,141.667v18.355h-21.345h-8v8v51.958h-18.355v-51.958v-8h-8H81.477v-18.355H158.523
			 M166.523,133.667H73.477v34.355h29.345v59.958h34.355v-59.958h29.345V133.667L166.523,133.667z"/>
	</g>
</g>
<g>
	<rect x="16.239" y="16.173" style="fill:#48AAB5;" width="16" height="121.654"/>
	<g>
		<path style="fill:#1D1D1D;" d="M28.239,20.173v113.654h-8V20.173H28.239 M36.239,12.173h-8h-8h-8v8v113.654v8h8h8h8v-8V20.173
			V12.173L36.239,12.173z"/>
	</g>
</g>
<g>
	<rect x="208" y="16.173" style="fill:#48AAB5;" width="16" height="121.654"/>
	<g>
		<path style="fill:#1D1D1D;" d="M220,20.173v113.654h-8V20.173H220 M228,12.173h-8h-8h-8v8v113.654v8h8h8h8v-8V20.173V12.173
			L228,12.173z"/>
	</g>
</g>
<rect style="fill-rule:evenodd;clip-rule:evenodd;fill:none;" width="240" height="240"/>
</svg>
