<?xml version="1.0" encoding="iso-8859-1"?>
<!-- Generator: Adobe Illustrator 19.2.1, SVG Export Plug-In . SVG Version: 6.00 Build 0)  -->
<svg version="1.1" id="Layer_1" xmlns="http://www.w3.org/2000/svg" xmlns:xlink="http://www.w3.org/1999/xlink" x="0px" y="0px"
	 viewBox="0 0 240 240" style="enable-background:new 0 0 240 240;" xml:space="preserve">
<g>
	<rect x="16" y="16" style="fill:#48AAB5;" width="208" height="208"/>
	<path style="fill:#1D1D1D;" d="M220,20v200H20V20H220 M228,12H12v216h216V12L228,12z"/>
</g>
<rect x="64.333" y="12.012" style="fill:#1D1D1D;" width="24" height="81.488"/>
<polygon style="fill:#1D1D1D;" points="151.667,12.012 151.667,93.5 108,146.512 108,228 132,228 132,146.512 175.667,93.5 
	175.667,12.012 "/>
<g>
	<rect x="128.527" y="170.746" style="fill:#BDBDBD;" width="102" height="61"/>
	<g>
		<path style="fill:#1D1D1D;" d="M226.528,174.746v53h-94v-53H226.528 M234.528,166.746h-110v69h110V166.746L234.528,166.746z"/>
	</g>
</g>
<g>
	<rect x="184" y="185.218" style="fill:#1D1D1D;" width="32.055" height="32.055"/>
</g>
<g>
	<rect x="142" y="185.218" style="fill:#1D1D1D;" width="32.055" height="32.055"/>
</g>
<rect style="fill-rule:evenodd;clip-rule:evenodd;fill:none;" width="240" height="240"/>
</svg>
