<?xml version="1.0" encoding="iso-8859-1"?>
<!-- Generator: Adobe Illustrator 19.2.1, SVG Export Plug-In . SVG Version: 6.00 Build 0)  -->
<svg version="1.1" id="Layer_1" xmlns="http://www.w3.org/2000/svg" xmlns:xlink="http://www.w3.org/1999/xlink" x="0px" y="0px"
	 viewBox="0 0 240 240" style="enable-background:new 0 0 240 240;" xml:space="preserve">
<g>
	<path style="fill:#BDBDBD;" d="M75.102,223.648c-12.771,0-27.552-7.156-39.538-19.144c-8.874-8.873-15.196-19.406-17.802-29.658
		c-2.979-11.722-0.897-21.897,5.859-28.653c4.696-4.697,11.155-7.18,18.677-7.18c3.174,0,6.53,0.444,9.977,1.32
		c10.25,2.604,20.784,8.927,29.66,17.803c19.698,19.698,24.944,45.312,11.943,58.312C89.168,221.159,82.675,223.648,75.102,223.648z
		 M42.323,155.016c-2.234,0-5.33,0.432-7.388,2.49c-2.608,2.607-3.199,7.366-1.666,13.399c1.906,7.502,6.739,15.417,13.609,22.287
		c8.771,8.771,19.877,14.439,28.294,14.44c0,0,0.001,0,0.001,0c3.246,0,5.732-0.84,7.391-2.497
		c6.793-6.794-0.703-24.444-11.945-35.687c-6.87-6.869-14.785-11.702-22.287-13.608C46.178,155.293,44.155,155.016,42.323,155.016z"
		/>
	<path style="fill:#1D1D1D;" d="M42.298,143.014c2.828,0,5.84,0.396,8.991,1.197c9.564,2.43,19.443,8.38,27.817,16.754
		c18.112,18.112,23.358,41.241,11.943,52.656c-4.076,4.076-9.646,6.027-15.948,6.027c-11.346,0-25.064-6.326-36.709-17.972
		c-8.374-8.373-14.323-18.252-16.754-27.815c-2.617-10.299-0.909-19.121,4.811-24.84C30.418,145.052,35.883,143.014,42.298,143.014
		 M75.172,211.633c4.164,0,7.727-1.177,10.22-3.668c7.968-7.969,2.499-26.901-11.944-41.344c-7.371-7.37-15.94-12.576-24.13-14.657
		c-2.497-0.634-4.843-0.948-6.996-0.948c-4.277,0-7.792,1.238-10.216,3.662c-3.645,3.645-4.609,9.758-2.714,17.213
		c2.081,8.189,7.287,16.759,14.658,24.13C53.974,205.945,66.021,211.633,75.172,211.633 M42.3,135.014h-0.002
		c-8.606,0-16.043,2.888-21.505,8.351c-7.794,7.793-10.247,19.324-6.907,32.467c2.78,10.939,9.475,22.127,18.851,31.502
		c12.719,12.72,28.557,20.315,42.366,20.315c8.658,0,16.129-2.894,21.605-8.37c7.534-7.534,10.107-18.629,7.246-31.243
		c-2.561-11.291-9.376-22.913-19.189-32.727c-9.377-9.377-20.566-16.072-31.504-18.851C49.492,135.5,45.804,135.014,42.3,135.014
		L42.3,135.014z M75.172,203.633c-8.426,0-18.861-6.664-25.466-13.269c-6.369-6.369-10.829-13.629-12.561-20.444
		c-1.121-4.411-0.884-8.084,0.617-9.585c1.148-1.148,3.35-1.319,4.56-1.319c1.5,0,3.192,0.236,5.028,0.702
		c6.813,1.731,14.073,6.192,20.442,12.56c13.018,13.018,15.131,26.842,11.943,30.03C78.64,203.402,76.65,203.633,75.172,203.633
		L75.172,203.633z"/>
</g>
<g>
	<path style="fill:#BDBDBD;" d="M105.357,201.744c-14.515,0-31.377-8.196-45.106-21.926c-22.422-22.422-28.534-51.439-13.913-66.062
		c5.242-5.242,12.487-8.013,20.953-8.013c14.517,0,31.38,8.196,45.11,21.926c10.172,10.173,17.415,22.227,20.392,33.941
		c3.35,13.185,1.048,24.591-6.48,32.119c-5.241,5.242-12.486,8.014-20.953,8.014H105.357z M67.193,121.784
		c-2.853,0-6.824,0.57-9.54,3.286c-7.863,7.864-1.362,28.16,13.913,43.436c8.167,8.167,17.603,13.919,26.569,16.197
		c2.613,0.664,5.078,1.001,7.325,1.001c0,0,0,0,0.001,0c2.853,0,6.823-0.57,9.54-3.287c3.378-3.379,4.19-9.369,2.285-16.865
		c-2.278-8.966-8.031-18.401-16.199-26.569c-8.167-8.167-17.603-13.919-26.569-16.197C71.904,122.121,69.439,121.784,67.193,121.784
		z"/>
	<path style="fill:#1D1D1D;" d="M67.291,109.743c13.03-0.001,28.84,7.313,42.281,20.755c9.671,9.671,16.541,21.07,19.344,32.099
		c2.988,11.762,1.06,21.814-5.432,28.306c-4.626,4.627-10.955,6.842-18.125,6.842c-0.001,0-0.002,0-0.003,0
		c-13.029,0-28.837-7.313-42.278-20.754c-20.836-20.836-26.948-47.369-13.913-60.405C53.793,111.959,60.122,109.744,67.291,109.743
		 M105.459,189.704c5.161,0,9.418-1.507,12.369-4.458c4.416-4.417,5.601-11.761,3.334-20.68
		c-2.453-9.653-8.578-19.743-17.247-28.412c-8.668-8.668-18.758-14.793-28.412-17.246c-2.959-0.752-5.747-1.124-8.31-1.124
		c-5.161,0-9.418,1.507-12.369,4.458c-9.535,9.535-3.164,32.016,13.913,49.092c8.668,8.668,18.758,14.793,28.412,17.246
		C100.109,189.332,102.896,189.704,105.459,189.704 M67.293,101.743v8V101.743H67.29c-9.55,0.001-17.773,3.177-23.781,9.186
		c-8.325,8.325-11.125,20.659-7.884,34.729c2.932,12.728,10.673,25.865,21.797,36.989c14.463,14.463,32.382,23.097,47.934,23.097
		c9.553,0,17.777-3.176,23.785-9.186c8.565-8.565,11.239-21.326,7.528-35.932c-3.152-12.403-10.766-25.111-21.441-35.786
		C100.766,110.378,82.846,101.743,67.293,101.743L67.293,101.743z M105.459,181.704c-1.915,0-4.048-0.295-6.34-0.878
		c-8.278-2.104-17.059-7.484-24.725-15.149c-7.203-7.203-12.632-15.914-14.895-23.898c-1.783-6.292-1.416-11.481,0.983-13.88
		c1.748-1.748,4.615-2.115,6.712-2.115c1.915,0,4.048,0.295,6.34,0.878c8.278,2.104,17.059,7.484,24.726,15.149
		c7.666,7.666,13.046,16.447,15.15,24.725c1.521,5.987,1.07,10.744-1.238,13.053C110.423,181.337,107.556,181.704,105.459,181.704
		L105.459,181.704z"/>
</g>
<g>
	<path style="fill:#BDBDBD;" d="M143.803,173.662c-4.092,0-8.435-0.576-12.907-1.713c-13.512-3.434-27.435-11.805-39.203-23.573
		c-11.767-11.767-20.138-25.688-23.572-39.201c-3.807-14.982-1.235-27.901,7.241-36.378c5.897-5.896,14.067-9.013,23.627-9.013
		c16.661,0,36.083,9.474,51.953,25.343c11.769,11.768,20.14,25.69,23.573,39.202c3.808,14.981,1.235,27.901-7.242,36.378
		C161.416,170.565,153.301,173.662,143.803,173.662z M98.793,79.9c-3.607,0-8.638,0.73-12.118,4.211
		c-4.328,4.327-5.41,11.829-3.048,21.124c2.735,10.764,9.618,22.068,19.379,31.829c9.762,9.762,21.065,16.644,31.829,19.379
		c3.179,0.808,6.187,1.218,8.94,1.218h0.001c5.18,0,9.393-1.475,12.183-4.265c4.327-4.328,5.409-11.83,3.047-21.124
		c-2.734-10.764-9.616-22.067-19.378-31.829C127.149,87.963,111.121,79.9,98.793,79.9z"/>
	<path style="fill:#1D1D1D;" d="M98.989,67.785c15.097-0.001,33.477,8.525,49.124,24.172c11.266,11.266,19.266,24.533,22.524,37.359
		c3.446,13.561,1.246,25.125-6.193,32.564c-5.143,5.144-12.259,7.782-20.642,7.782c-3.742,0-7.737-0.526-11.922-1.59
		c-12.826-3.259-26.094-11.259-37.359-22.524c-11.265-11.265-19.265-24.532-22.524-37.358c-3.446-13.56-1.247-25.125,6.192-32.564
		C83.494,70.323,90.753,67.785,98.989,67.785 M143.776,161.66c6.247,0,11.414-1.839,15.012-5.436
		c5.364-5.365,6.819-14.222,4.096-24.938c-2.909-11.452-10.164-23.41-20.427-33.672C128.624,83.781,111.762,75.9,98.793,75.9
		c-6.074,0-11.292,1.728-14.946,5.383c-5.365,5.364-6.819,14.221-4.096,24.937c2.91,11.451,10.165,23.409,20.428,33.672
		c10.263,10.263,22.221,17.518,33.672,20.428C137.38,161.216,140.709,161.66,143.776,161.66 M98.99,59.785h-0.002
		c-10.644,0-19.792,3.522-26.455,10.184c-9.514,9.515-12.458,23.788-8.289,40.192c3.609,14.2,12.352,28.777,24.621,41.045
		c12.269,12.269,26.847,21.013,41.046,24.621c4.794,1.218,9.468,1.836,13.892,1.836c10.582,0,19.676-3.502,26.299-10.126
		c9.514-9.514,12.458-23.788,8.29-40.191c-3.608-14.199-12.352-28.776-24.621-41.045C137.167,69.697,116.688,59.785,98.99,59.785
		L98.99,59.785z M143.776,153.66c-2.422,0-5.098-0.368-7.956-1.094c-10.076-2.561-20.725-9.071-29.985-18.331
		c-9.26-9.26-15.77-19.909-18.331-29.986c-1.971-7.758-1.243-14.068,1.999-17.309c2.512-2.513,6.438-3.04,9.29-3.04
		c11.321,0,26.239,7.604,38.007,19.371c9.26,9.26,15.77,19.909,18.33,29.985c1.972,7.759,1.243,14.068-1.999,17.311
		C150.575,153.123,146.633,153.66,143.776,153.66L143.776,153.66z"/>
</g>
<g>
	<path style="fill-rule:evenodd;clip-rule:evenodd;fill:#D6806D;" d="M159.912,143.817c-35.143,0-63.733-28.59-63.733-63.733
		s28.591-63.733,63.733-63.733s63.732,28.59,63.732,63.733S195.055,143.817,159.912,143.817z"/>
	<path style="fill:#1D1D1D;" d="M159.912,20.352c32.99,0,59.733,26.743,59.733,59.733s-26.743,59.733-59.733,59.733
		c-32.99,0-59.733-26.743-59.733-59.733S126.922,20.352,159.912,20.352 M159.912,12.352c-37.348,0-67.733,30.385-67.733,67.733
		s30.385,67.733,67.733,67.733s67.733-30.385,67.733-67.733S197.26,12.352,159.912,12.352L159.912,12.352z"/>
</g>
<rect style="fill-rule:evenodd;clip-rule:evenodd;fill:none;" width="240" height="240"/>
</svg>
