<?xml version="1.0" encoding="utf-8"?>
<!-- Generator: Adobe Illustrator 19.2.1, SVG Export Plug-In . SVG Version: 6.00 Build 0)  -->
<svg version="1.1" id="Layer_1" xmlns="http://www.w3.org/2000/svg" xmlns:xlink="http://www.w3.org/1999/xlink" x="0px" y="0px"
	 viewBox="0 0 240 240" enable-background="new 0 0 240 240" xml:space="preserve">
<path id="XMLID_7_" fill-rule="evenodd" clip-rule="evenodd" fill="#4AAACA" d="M17.8,16h205v178h-205V16z"/>
<path fill="none" d="M188.7,118.9c0.7-2.5,1.5-5.1,2.4-7.8c13.6,4.5,24.3,9.6,31.7,13.7v-20.5c-5.5-3.2-14-7.6-25.1-12
	c1-2.4,2.1-4.9,3.3-7.4c9,3.5,16.3,7.1,21.8,10.2V68.3c-2.7-1.5-6-3.4-10-5.4c1.4-2.3,2.9-4.6,4.4-6.9c2,1,3.9,2,5.6,2.9V16h-205
	v42.5c1.9-1,4-2.1,6.3-3.3c1.6,2.3,3,4.5,4.5,6.8c-4.3,2.1-7.9,4.1-10.7,5.7v26.7c5.7-3.2,13.3-6.9,22.7-10.5c1.2,2.5,2.3,5,3.3,7.4
	c-11.4,4.4-20.2,9-26,12.3v20.9c7.8-4.3,19.1-9.7,33.5-14.4c0.9,2.7,1.7,5.3,2.4,7.7C37.2,123.4,25,129.7,17.8,134v60h205v-59.9
	C215.8,130,204.2,124.1,188.7,118.9z"/>
<path fill="none" d="M190.1,89.5c-9.7-3.4-20.9-6.5-33.5-8.6c0.6-2.6,1.2-5.2,1.9-7.9c13.2,2.3,24.9,5.5,35,9
	C192.2,84.6,191.1,87.1,190.1,89.5z"/>
<path fill="none" d="M170,39.3c16.1,3.7,29.5,8.6,39.9,13.3c-1.5,2.3-3,4.6-4.4,6.9c-10.1-4.5-23.1-9.2-38.6-12.6
	C167.8,44.4,168.9,41.9,170,39.3z"/>
<path fill="none" d="M119.4,33.7c15.6,0,29.8,1.5,42.6,4c-1.1,2.6-2.2,5.1-3.1,7.6c-11.9-2.2-25.1-3.6-39.4-3.6
	c-13.2,0-25.5,1.2-36.6,3.1c-1-2.5-2-5.1-3.2-7.6C91.6,35,104.9,33.7,119.4,33.7z"/>
<path fill="none" d="M35.9,58.7c-1.4-2.3-2.9-4.6-4.5-6.9c10.5-4.7,24-9.5,40.2-13c1.1,2.5,2.2,5.1,3.2,7.6
	C59.2,49.6,46.1,54.2,35.9,58.7z"/>
<path fill="none" d="M51.4,88.7c-1-2.4-2.1-4.9-3.3-7.4c10.1-3.5,21.9-6.6,35.2-8.7c0.7,2.7,1.3,5.3,1.9,7.8
	C72.4,82.4,61.1,85.4,51.4,88.7z"/>
<path fill="none" d="M61.4,115.7c-0.7-2.5-1.5-5-2.4-7.7c9.1-2.6,19.2-4.8,30.2-6.3c0.4,2.9,0.6,5.6,0.9,8
	C79.6,111.1,70,113.3,61.4,115.7z"/>
<path fill="none" d="M144.5,109.1c-7.8-0.9-16-1.4-24.7-1.4c-7.6,0-14.8,0.4-21.7,1.1c-0.2-2.4-0.5-5.1-0.9-8
	c7.2-0.7,14.7-1.1,22.6-1.1c9,0,17.5,0.5,25.5,1.4C144.9,104,144.7,106.7,144.5,109.1z"/>
<path fill="none" d="M148.9,78c-0.1,0.5-0.2,1.1-0.4,1.6c-9.1-1.2-18.8-2-29.2-2c-9.2,0-18,0.6-26.2,1.6c-0.1-0.4-0.2-0.8-0.3-1.2
	c-0.5-2.1-1-4.3-1.6-6.6c8.8-1.1,18.2-1.7,28.1-1.7c11,0,21.4,0.8,31,2.1C149.9,73.9,149.4,76,148.9,78z"/>
<path fill="none" d="M181,116.5c-8.6-2.5-18.1-4.8-28.5-6.3c0.2-2.4,0.5-5.1,0.9-8c11,1.6,21.1,3.9,30.1,6.6
	C182.5,111.4,181.7,114,181,116.5z"/>
<path fill="#F4F4F4" d="M59,108c0.9,2.7,1.7,5.3,2.4,7.7c8.6-2.4,18.2-4.6,28.7-6c-0.2-2.4-0.5-5.1-0.9-8
	C78.1,103.2,68,105.4,59,108z"/>
<path fill="#F4F4F4" d="M152.4,110.1c10.4,1.6,20,3.8,28.5,6.3c0.7-2.5,1.5-5.1,2.4-7.8c-9-2.6-19-5-30.1-6.6
	C152.9,105,152.7,107.7,152.4,110.1z"/>
<path fill="#F4F4F4" d="M97.2,100.8c0.4,2.9,0.6,5.6,0.9,8c6.9-0.7,14.1-1.1,21.7-1.1c8.6,0,16.9,0.5,24.7,1.4
	c0.2-2.4,0.5-5.1,0.8-8c-8-0.9-16.6-1.4-25.5-1.4C111.9,99.7,104.4,100.1,97.2,100.8z"/>
<path fill="#F4F4F4" d="M51.3,110.3c-14.4,4.7-25.7,10.1-33.5,14.4v9.3c7.2-4.2,19.4-10.5,35.9-15.9C52.9,115.6,52.1,113,51.3,110.3
	z"/>
<path fill="#F4F4F4" d="M188.7,118.9c15.5,5.2,27.1,11.2,34.1,15.2v-9.3c-7.5-4.1-18.2-9.2-31.7-13.7
	C190.2,113.8,189.4,116.4,188.7,118.9z"/>
<path fill="#F4F4F4" d="M156.6,80.9c12.6,2.2,23.9,5.3,33.5,8.6c1-2.4,2.1-4.9,3.3-7.5c-10-3.5-21.7-6.8-35-9
	C157.7,75.7,157.1,78.3,156.6,80.9z"/>
<path fill="#F4F4F4" d="M83.3,72.5c-13.3,2.1-25.1,5.3-35.2,8.7c1.2,2.5,2.3,5,3.3,7.4c9.7-3.3,21.1-6.3,33.8-8.3
	C84.6,77.8,84,75.2,83.3,72.5z"/>
<path fill="#F4F4F4" d="M197.7,92.3c11.1,4.4,19.6,8.8,25.1,12V95c-5.5-3-12.8-6.6-21.8-10.2C199.8,87.4,198.7,89.9,197.7,92.3z"/>
<path fill="#F4F4F4" d="M40.5,84c-9.3,3.6-16.9,7.3-22.7,10.5v9.3c5.8-3.4,14.5-7.9,26-12.3C42.7,89,41.6,86.5,40.5,84z"/>
<path fill="#F4F4F4" d="M91.3,71.4c0.6,2.3,1.1,4.5,1.6,6.6c0.1,0.4,0.2,0.8,0.3,1.2c8.2-1,17-1.6,26.2-1.6c10.3,0,20.1,0.7,29.2,2
	c0.1-0.5,0.2-1.1,0.4-1.6c0.4-2,0.9-4.1,1.5-6.3c-9.6-1.3-20-2.1-31-2.1C109.5,69.7,100.1,70.3,91.3,71.4z"/>
<path fill="#F4F4F4" d="M24.1,55.2c-2.3,1.1-4.4,2.2-6.3,3.3v9.3c2.9-1.7,6.4-3.6,10.7-5.7C27.1,59.8,25.6,57.5,24.1,55.2z"/>
<path fill="#F4F4F4" d="M71.6,38.7c-16.1,3.5-29.6,8.4-40.2,13c1.6,2.3,3,4.6,4.5,6.9c10.3-4.5,23.3-9.1,38.9-12.4
	C73.8,43.8,72.7,41.3,71.6,38.7z"/>
<path fill="#F4F4F4" d="M209.9,52.6c-10.4-4.7-23.8-9.6-39.9-13.3c-1.1,2.5-2.2,5.1-3.2,7.6c15.5,3.5,28.5,8.2,38.6,12.6
	C206.8,57.2,208.3,54.9,209.9,52.6z"/>
<path fill="#F4F4F4" d="M119.4,41.7c14.3,0,27.5,1.4,39.4,3.6c1-2.5,2-5.1,3.1-7.6c-12.8-2.4-27-4-42.6-4c-14.5,0-27.8,1.3-39.8,3.5
	c1.1,2.6,2.2,5.1,3.2,7.6C93.9,42.9,106.2,41.7,119.4,41.7z"/>
<path fill="#F4F4F4" d="M212.7,62.9c4,2,7.4,3.8,10,5.4V59c-1.7-0.9-3.6-1.9-5.6-2.9C215.6,58.4,214.2,60.6,212.7,62.9z"/>
<g>
	<path id="XMLID_81_" fill-rule="evenodd" clip-rule="evenodd" fill="#577A86" d="M18,134c0,0,27,24,103,24c77,0,102-24,102-24v89
		H18V134z"/>
	<g>
		<path fill="none" d="M46.4,171.4c-12-4.2-21.5-8.8-28.4-12.6v16.7c5,2.9,12.4,6.7,21.8,10.6C42.3,181.1,44.5,176.2,46.4,171.4z"/>
		<path fill="none" d="M152,199.8c-1-3.5-1.8-6.9-2.5-10.1c-0.6-2.5-1.1-4.9-1.5-7.2c-8.5,1-17.5,1.6-27,1.6c-9.1,0-17.8-0.5-26-1.5
			c-0.4,2.3-0.9,4.7-1.5,7.1c-0.7,3.2-1.6,6.7-2.5,10.3c9.4,1.3,19.4,2.1,30.1,2.1C132.1,202,142.4,201.2,152,199.8z"/>
		<path fill="none" d="M223,218.9v-34c-4.4,2.4-9.9,5.2-16.4,8C211.2,201.6,216.6,210.4,223,218.9z"/>
		<path fill="none" d="M121,210c-11.5,0-22.3-0.9-32.3-2.3c-1.5,4.9-3.3,10-5.3,15.3h76.3c-2.1-5.3-3.9-10.5-5.4-15.4
			C144,209.1,132.9,210,121,210z"/>
		<path fill="none" d="M202.9,185.7c8.6-3.7,15.4-7.3,20.1-10V159c-6.5,3.6-15.4,7.9-26.5,12C198.4,175.7,200.5,180.6,202.9,185.7z"
			/>
		<path fill="none" d="M162.3,206.2c1.7,5.5,3.7,11.1,6,16.8H216c-6.7-9.1-12.3-18.3-16.9-27C188.8,199.9,176.5,203.6,162.3,206.2z"
			/>
		<path fill="none" d="M188.8,173.6c-9.6,3.1-20.6,5.8-32.8,7.7c1,5.4,2.4,11.1,4,17.2c13.6-2.5,25.5-6,35.4-9.8
			C192.9,183.4,190.7,178.3,188.8,173.6z"/>
		<path fill="none" d="M223,149.7V134c0,0-9.2,8.9-33.8,15.8c1.2,4.2,2.7,8.7,4.4,13.5C206.8,158.6,216.8,153.4,223,149.7z"/>
		<path fill="none" d="M88.4,173.5c1.1-6.6,1.7-12.4,2.1-17c-11-1.1-20.6-2.7-28.9-4.6c-1.3,4.4-2.8,9.2-4.6,14.3
			C66.2,169.2,76.7,171.8,88.4,173.5z"/>
		<path fill="none" d="M186,166c-1.8-5.1-3.3-9.8-4.6-14.1c-8.2,1.9-17.7,3.6-28.8,4.7c0.4,4.6,1,10.3,2.1,16.9
			C166.3,171.6,176.8,168.9,186,166z"/>
		<path fill="none" d="M49.3,163.8c1.8-4.9,3.2-9.5,4.5-13.7C28.2,143.1,18,134,18,134v15.6C24.6,153.4,35.2,158.8,49.3,163.8z"/>
		<path fill="none" d="M121,176c9,0,17.6-0.6,25.6-1.5c-1.1-6.7-1.7-12.6-2.1-17.3c-7.2,0.5-15.1,0.8-23.6,0.8
			c-8.1,0-15.6-0.3-22.6-0.8c-0.4,4.7-1,10.6-2.1,17.4C104.1,175.5,112.4,176,121,176z"/>
		<path fill="none" d="M18,184.8v36.7c7.2-9.2,13.2-18.8,18.1-28.1C28.8,190.5,22.8,187.4,18,184.8z"/>
		<path fill="none" d="M86.9,181.5C74.7,179.6,63.7,177,54,174c-1.9,4.7-4.1,9.8-6.7,15.2c10.1,3.7,22,7.1,35.6,9.5
			C84.6,192.6,85.9,186.9,86.9,181.5z"/>
		<path fill="none" d="M43.7,196.4c-4.6,8.6-10.1,17.7-16.7,26.6h47.7c2.3-5.6,4.3-11.2,6-16.6C66.5,203.9,54.1,200.3,43.7,196.4z"
			/>
		<path opacity="0.9" fill="#1D1D1D" d="M88.4,173.5c-11.6-1.8-22.1-4.3-31.4-7.2c-0.5,1.4-1,2.8-1.6,4.2c-0.4,1.1-0.9,2.3-1.3,3.4
			c9.7,3,20.7,5.7,32.9,7.5C87.5,178.7,87.9,176.1,88.4,173.5z"/>
		<path opacity="0.9" fill="#1D1D1D" d="M196.5,171c11.1-4.1,20.1-8.4,26.5-12v-9.3c-6.2,3.7-16.2,8.9-29.4,13.7
			C194.5,165.8,195.4,168.4,196.5,171z"/>
		<path opacity="0.9" fill="#1D1D1D" d="M49.3,163.8c-14.1-5-24.7-10.4-31.3-14.2v9.3c6.8,3.7,16.4,8.3,28.4,12.6
			C47.4,168.8,48.4,166.3,49.3,163.8z"/>
		<path opacity="0.9" fill="#1D1D1D" d="M148,182.4c-0.5-2.8-1-5.4-1.4-7.9c-8.1,1-16.6,1.5-25.6,1.5c-8.6,0-16.9-0.5-24.6-1.4
			c-0.4,2.5-0.9,5.2-1.4,7.9c8.2,0.9,16.9,1.5,26,1.5C130.5,184,139.5,183.4,148,182.4z"/>
		<path opacity="0.9" fill="#1D1D1D" d="M187.6,170.5c-0.6-1.5-1.1-3.1-1.7-4.6c-9.2,2.9-19.7,5.6-31.3,7.4c0.4,2.5,0.9,5.2,1.4,7.9
			c12.2-1.9,23.2-4.7,32.8-7.7C188.4,172.6,188,171.5,187.6,170.5z"/>
		<path fill="#1D1D1D" d="M206.6,193c6.5-2.8,12-5.6,16.4-8v-9.3c-4.7,2.7-11.4,6.4-20.1,10C204.1,188.1,205.3,190.5,206.6,193z"/>
		<path fill="#1D1D1D" d="M39.8,186.2c-9.5-3.9-16.8-7.7-21.8-10.6v9.3c4.8,2.6,10.8,5.6,18.1,8.6C37.4,191,38.7,188.6,39.8,186.2z"
			/>
		<path fill="#1D1D1D" d="M195.4,188.7c-9.9,3.7-21.8,7.3-35.4,9.8c0.7,2.5,1.5,5.1,2.3,7.8c14.2-2.6,26.5-6.4,36.8-10.3
			C197.8,193.5,196.6,191.1,195.4,188.7z"/>
		<path fill="#1D1D1D" d="M154.3,207.6c-0.8-2.7-1.6-5.3-2.3-7.8c-9.6,1.4-20,2.2-31,2.2c-10.7,0-20.7-0.8-30.1-2.1
			c-0.7,2.5-1.4,5.1-2.3,7.8c10,1.4,20.8,2.3,32.3,2.3C132.9,210,144,209.1,154.3,207.6z"/>
		<path fill="#1D1D1D" d="M82.9,198.7c-13.6-2.4-25.5-5.9-35.6-9.5c-1.2,2.4-2.4,4.8-3.7,7.3c10.4,3.8,22.8,7.5,37,10
			C81.5,203.8,82.2,201.2,82.9,198.7z"/>
		<path fill="#1D1D1D" d="M86.9,181.5c-1,5.4-2.4,11.1-4,17.2c-0.7,2.6-1.5,5.1-2.3,7.8c-1.7,5.4-3.7,10.9-6,16.6h8.7
			c2.1-5.3,3.8-10.4,5.3-15.3c0.8-2.7,1.6-5.3,2.3-7.8c1-3.6,1.8-7,2.5-10.3c0.5-2.4,1-4.8,1.5-7.1c0.5-2.8,1-5.4,1.4-7.9
			c1.1-6.7,1.7-12.6,2.1-17.4c-2.8-0.2-5.4-0.4-8-0.7c-0.4,4.6-1,10.4-2.1,17C87.9,176.1,87.5,178.7,86.9,181.5z"/>
		<path fill="#1D1D1D" d="M46.4,171.4c-1.9,4.8-4.1,9.7-6.5,14.8c-1.2,2.4-2.4,4.8-3.7,7.3c-5,9.3-11,18.9-18.1,28.1v1.4h9
			c6.6-8.9,12.1-17.9,16.7-26.6c1.3-2.5,2.5-4.9,3.7-7.3c2.6-5.3,4.8-10.4,6.7-15.2c0.5-1.2,0.9-2.3,1.3-3.4
			c0.5-1.4,1.1-2.8,1.6-4.2c1.8-5.1,3.4-9.9,4.6-14.3c-2.8-0.6-5.4-1.3-7.8-2c-1.2,4.2-2.7,8.8-4.5,13.7
			C48.4,166.3,47.4,168.8,46.4,171.4z"/>
		<path fill="#1D1D1D" d="M148,182.4c0.4,2.3,0.9,4.8,1.5,7.2c0.7,3.2,1.5,6.6,2.5,10.1c0.7,2.5,1.4,5.1,2.3,7.8
			c1.5,4.9,3.3,10.1,5.4,15.4h8.7c-2.3-5.7-4.3-11.3-6-16.8c-0.8-2.6-1.6-5.2-2.3-7.8c-1.7-6-3-11.8-4-17.2c-0.5-2.8-1-5.4-1.4-7.9
			c-1-6.6-1.7-12.3-2.1-16.9c-2.6,0.3-5.3,0.5-8,0.7c0.4,4.7,1,10.6,2.1,17.3C147,177,147.5,179.7,148,182.4z"/>
		<path fill="#1D1D1D" d="M187.6,170.5c0.4,1,0.8,2,1.2,3c1.9,4.7,4.1,9.8,6.6,15.1c1.1,2.4,2.4,4.8,3.7,7.3
			c4.6,8.8,10.2,18,16.9,27h7v-4.1c-6.4-8.6-11.8-17.4-16.4-26c-1.3-2.4-2.5-4.9-3.7-7.3c-2.4-5.1-4.6-10-6.5-14.7
			c-1-2.6-2-5.1-2.9-7.6c-1.7-4.8-3.2-9.4-4.4-13.5c-2.4,0.7-5.1,1.4-7.8,2c1.3,4.3,2.8,9.1,4.6,14.1
			C186.5,167.5,187,169,187.6,170.5z"/>
	</g>
</g>
<g>
	<path fill="#1D1D1D" d="M220,20v200H20V20H220 M228,12H12v216h216V12L228,12z"/>
</g>
<rect fill-rule="evenodd" clip-rule="evenodd" fill="none" width="240" height="240"/>
<g>
</g>
<g>
</g>
<g>
</g>
<g>
</g>
<g>
</g>
<g>
</g>
</svg>
