<?xml version="1.0" encoding="iso-8859-1"?>
<!-- Generator: Adobe Illustrator 19.2.1, SVG Export Plug-In . SVG Version: 6.00 Build 0)  -->
<svg version="1.1" id="Layer_1" xmlns="http://www.w3.org/2000/svg" xmlns:xlink="http://www.w3.org/1999/xlink" x="0px" y="0px"
	 viewBox="0 0 240 240" style="enable-background:new 0 0 240 240;" xml:space="preserve">
<g>
	<g>
		<polygon style="fill-rule:evenodd;clip-rule:evenodd;fill:#DDE4E7;" points="36.006,61.677 119.847,13.123 203.697,61.684 
			120.011,110.178 		"/>
		<g>
			<path style="fill:#1D1D1D;" d="M119.847,17.745l75.871,43.94l-75.709,43.872L43.997,61.672L119.847,17.745 M119.847,8.5
				L28.015,61.683l92,53.116l91.661-53.116L119.847,8.5L119.847,8.5z"/>
		</g>
	</g>
	<g>
		<polygon style="fill-rule:evenodd;clip-rule:evenodd;fill:#577A86;" points="128.45,124.789 211.54,76.817 211.54,176.447 
			128.45,224.562 		"/>
		<g>
			<path style="fill:#1D1D1D;" d="M207.54,83.745v90.396l-75.09,43.482v-90.525L207.54,83.745 M215.54,69.889l-91.09,52.591V231.5
				l91.09-52.747V69.889L215.54,69.889z"/>
		</g>
	</g>
	<g>
		<polygon style="fill-rule:evenodd;clip-rule:evenodd;fill:#7EA1AD;" points="28.46,176.447 28.46,76.817 111.55,124.789 
			111.55,224.562 		"/>
		<g>
			<path style="fill:#1D1D1D;" d="M32.46,83.745l75.09,43.353v90.525l-75.09-43.482V83.745 M24.46,69.889v108.864l91.09,52.747
				V122.48L24.46,69.889L24.46,69.889z"/>
		</g>
	</g>
</g>
<rect style="fill-rule:evenodd;clip-rule:evenodd;fill:none;" width="240" height="240"/>
</svg>
