<?xml version="1.0" encoding="iso-8859-1"?>
<!-- Generator: Adobe Illustrator 19.2.1, SVG Export Plug-In . SVG Version: 6.00 Build 0)  -->
<svg version="1.1" id="Layer_1" xmlns="http://www.w3.org/2000/svg" xmlns:xlink="http://www.w3.org/1999/xlink" x="0px" y="0px"
	 viewBox="0 0 240 240" style="enable-background:new 0 0 240 240;" xml:space="preserve">
<g>
	<path style="fill-rule:evenodd;clip-rule:evenodd;fill:#AAAAAA;" d="M32.99,104.981c0,0,23.937,0,49.719,0
		c25.781,0,55.014,53.545,80.796,53.545c25.781,0,43.505-10.709,43.505-10.709v64.21H32.99v-93.257V104.981z"/>
</g>
<g>
	<g>
		<path style="fill-rule:evenodd;clip-rule:evenodd;fill:#BDBDBD;" d="M165.636,161.739c-2.464,0-5.022-0.179-7.605-0.531
			c-8.77-1.194-19.693-9.835-31.259-18.982c-9.167-7.251-18.646-14.748-27.092-18.64c-24.001-11.06-63.761-15.864-64.16-15.911
			c-1.959-0.232-3.456-1.857-3.527-3.828c-0.071-1.971,1.306-3.7,3.243-4.072c0.641-0.123,15.912-3.02,33.574-3.02
			c10.504,0,19.667,1.039,27.234,3.087c13.255,3.588,24.2,12.33,34.784,20.784c9.703,7.75,18.868,15.07,28.679,17.432
			c5.156,1.24,10.785,1.87,16.731,1.87c14.676-0.001,26.403-3.812,26.52-3.85c0.414-0.137,0.836-0.202,1.253-0.202
			c1.429,0,2.791,0.77,3.508,2.079c0.927,1.692,0.515,3.805-0.981,5.022c-0.632,0.516-1.27,1.039-1.912,1.568
			C195.307,152.205,183.71,161.739,165.636,161.739C165.636,161.739,165.637,161.739,165.636,161.739z"/>
		<path style="fill:#1D1D1D;" d="M68.81,100.755c8.742,0,18.022,0.737,26.189,2.948c24.503,6.633,41.863,33.02,63.572,38.244
			c6.023,1.45,12.054,1.981,17.667,1.981c15.486,0,27.772-4.05,27.772-4.05c-9.773,7.964-20.571,17.861-38.374,17.861
			c-2.24,0-4.592-0.157-7.065-0.494c-14.104-1.922-37.706-28.302-57.217-37.292C76.5,108.5,35.99,103.703,35.99,103.703
			S51.325,100.755,68.81,100.755 M68.81,92.755c-18.039,0-33.673,2.965-34.33,3.091c-3.874,0.745-6.627,4.202-6.485,8.144
			c0.142,3.942,3.137,7.193,7.054,7.656c0.392,0.047,39.564,4.792,62.956,15.571c8.013,3.692,17.302,11.039,26.285,18.144
			c12.528,9.909,23.348,18.467,33.2,19.809c2.762,0.376,5.502,0.567,8.145,0.567c19.509,0,31.719-10.038,41.53-18.104
			c0.638-0.524,1.27-1.044,1.898-1.556c2.991-2.437,3.816-6.661,1.963-10.045c-1.435-2.62-4.16-4.158-7.017-4.158
			c-0.833,0-1.677,0.131-2.504,0.403c-0.098,0.032-11.368,3.648-25.267,3.648c-5.631,0-10.946-0.592-15.796-1.759
			c-8.946-2.153-17.773-9.203-27.119-16.668c-10.903-8.709-22.178-17.714-36.235-21.52C89.181,93.84,79.667,92.755,68.81,92.755
			L68.81,92.755z"/>
	</g>
</g>
<g>
	<path style="fill:#48AAB5;" d="M16,224V16h208v208H16z M33.603,206.396h172.793V33.603H33.603V206.396z"/>
	<path style="fill:#1D1D1D;" d="M220,20v200H20V20H220 M29.603,210.397h8h164.794h8v-8V37.603v-8h-8H37.603h-8v8v164.794V210.397
		 M228,12H12v216h216V12L228,12z M37.603,202.397V37.603h164.794v164.794H37.603L37.603,202.397z"/>
</g>
<rect style="fill-rule:evenodd;clip-rule:evenodd;fill:none;" width="240" height="240"/>
</svg>
