<?xml version="1.0" encoding="iso-8859-1"?>
<!-- Generator: Adobe Illustrator 19.2.1, SVG Export Plug-In . SVG Version: 6.00 Build 0)  -->
<svg version="1.1" id="Layer_1" xmlns="http://www.w3.org/2000/svg" xmlns:xlink="http://www.w3.org/1999/xlink" x="0px" y="0px"
	 viewBox="0 0 240 240" style="enable-background:new 0 0 240 240;" xml:space="preserve">
<rect style="fill-rule:evenodd;clip-rule:evenodd;fill:none;" width="240" height="240"/>
<g>
	<path style="fill-rule:evenodd;clip-rule:evenodd;fill:#BDBDBD;" d="M120,188.212c-37.612,0-68.211-30.6-68.211-68.211
		c0-37.612,30.6-68.212,68.211-68.212c37.613,0,68.212,30.6,68.212,68.212C188.212,157.612,157.612,188.212,120,188.212z
		 M69.711,129.801c3.994,20.279,20.116,36.372,40.399,40.328v-18.354c-10.479-3.232-18.656-11.449-21.868-21.975H69.711z
		 M129.779,170.112c20.241-3.981,36.331-20.067,40.321-40.312h-18.553c-3.2,10.486-11.34,18.692-21.769,21.946V170.112z
		 M170.126,110.132c-3.948-20.309-20.05-36.443-40.347-40.431v18.564c10.396,3.245,18.524,11.42,21.743,21.866H170.126z
		 M88.268,110.132c3.229-10.485,11.396-18.671,21.843-21.895V69.685c-20.336,3.961-36.47,20.105-40.424,40.447H88.268z"/>
	<path style="fill:#1D1D1D;" d="M120,55.788c35.464,0,64.212,28.748,64.212,64.213c0,35.462-28.748,64.21-64.212,64.21
		c-35.462,0-64.212-28.748-64.212-64.21C55.788,84.537,84.537,55.788,120,55.788 M65.05,114.132h26.321
		c2.328-11.457,11.321-20.479,22.739-22.791V65.047C88.268,67.746,67.74,88.288,65.05,114.132 M148.419,114.132h26.343
		c-2.687-25.819-23.176-46.344-48.983-49.076v26.302C137.151,93.702,146.099,102.706,148.419,114.132 M125.779,174.757
		c25.767-2.727,46.23-23.193,48.969-48.956h-26.312c-2.295,11.464-11.258,20.505-22.656,22.853V174.757 M114.11,174.766v-26.095
		c-11.444-2.318-20.453-11.375-22.755-22.871H65.064C67.806,151.589,88.308,172.071,114.11,174.766 M120,47.788
		c-39.818,0-72.212,32.394-72.212,72.213c0,39.817,32.394,72.21,72.212,72.21c39.818,0,72.212-32.393,72.212-72.21
		C192.212,80.183,159.818,47.788,120,47.788L120,47.788z M74.801,106.132c4.572-14.917,16.398-26.749,31.309-31.329v10.609
		c-9.433,3.767-16.905,11.257-20.671,20.721H74.801L74.801,106.132z M133.779,85.449V74.828
		c14.873,4.598,26.666,16.417,31.231,31.304h-10.659C150.598,96.707,143.162,89.231,133.779,85.449L133.779,85.449z
		 M154.383,133.801h10.587c-4.594,14.824-16.368,26.596-31.191,31.183v-10.42C143.194,150.772,150.642,143.267,154.383,133.801
		L154.383,133.801z M74.841,133.801h10.565c3.755,9.503,11.24,17.024,20.704,20.801v10.407
		C91.248,160.441,79.442,148.656,74.841,133.801L74.841,133.801z"/>
</g>
<g>
	<path style="fill-rule:evenodd;clip-rule:evenodd;fill:#D6806D;" d="M130.198,223.789c-3.582,0-7.168-0.486-10.661-1.447
		c-11.948-3.284-19.869-12.767-28.255-22.805c-11.827-14.157-25.23-30.202-53.903-35.112c-20.792-3.56-28.239-4.695-28.312-4.706
		c-1.854-0.282-3.263-1.813-3.391-3.684c-0.127-1.871,1.062-3.578,2.86-4.108c0.456-0.135,11.348-3.292,26.367-3.292
		c18.733,0,45.055,4.998,64.066,28.811c12.559,15.731,27.737,23.708,45.113,23.708c12.742,0,21.795-4.425,21.885-4.47
		c0.568-0.282,1.177-0.418,1.778-0.418c1.186,0,2.346,0.526,3.125,1.501c1.177,1.471,1.168,3.562-0.019,5.021
		C170.155,203.646,153.516,223.789,130.198,223.789z"/>
	<path style="fill:#1D1D1D;" d="M34.904,152.634c18.385-0.001,43.091,4.949,60.941,27.307
		c16.123,20.195,34.229,25.212,48.238,25.212c13.829,0,23.665-4.887,23.665-4.887s-15.868,19.524-37.55,19.524
		c-3.092,0-6.3-0.397-9.6-1.304c-26.436-7.267-31.805-49.315-82.544-58.003c-21.096-3.612-28.387-4.719-28.387-4.719
		S20.289,152.635,34.904,152.634 M167.748,200.265h0.005 M34.907,144.634v8l-0.001-8c-15.591,0.001-27.02,3.314-27.499,3.455
		c-3.597,1.059-5.975,4.475-5.721,8.216c0.254,3.741,3.073,6.804,6.78,7.367c0.073,0.011,7.508,1.146,28.238,4.695
		c27.221,4.661,39.568,19.441,51.508,33.733c8.799,10.533,17.11,20.482,30.265,24.098c3.837,1.055,7.781,1.59,11.72,1.59
		c24.353,0,41.808-20.137,43.626-22.317c1.201-1.399,1.927-3.218,1.927-5.206c0-4.304-3.397-7.814-7.657-7.993
		c-0.116-0.005-0.233-0.008-0.349-0.008c-0.345,0-0.691,0.022-1.036,0.067c-0.917,0.119-1.785,0.393-2.577,0.795
		c-0.755,0.35-8.964,4.025-20.049,4.025c-16.098,0-30.224-7.47-41.987-22.203C82.092,149.894,54.517,144.634,34.907,144.634
		L34.907,144.634z"/>
</g>
<g>
	<path style="fill-rule:evenodd;clip-rule:evenodd;fill:#D6806D;" d="M193.697,91.789c-3.581,0-7.168-0.487-10.66-1.447
		c-11.947-3.285-19.869-12.767-28.255-22.805c-11.826-14.157-25.23-30.203-53.903-35.112c-20.792-3.561-28.24-4.696-28.312-4.708
		c-1.854-0.281-3.263-1.812-3.39-3.683s1.062-3.579,2.86-4.108c0.456-0.134,11.348-3.292,26.367-3.292
		c18.733,0,45.055,4.999,64.067,28.812c12.559,15.731,27.737,23.708,45.112,23.708c12.632,0,21.803-4.429,21.894-4.474
		c0.563-0.277,1.167-0.41,1.764-0.41c1.189,0,2.354,0.529,3.133,1.508c1.17,1.47,1.164,3.554-0.021,5.012
		C233.655,71.646,217.016,91.789,193.697,91.789z"/>
	<path style="fill:#1D1D1D;" d="M98.404,20.634c18.385-0.001,43.091,4.949,60.941,27.307c16.123,20.195,34.229,25.212,48.238,25.212
		c13.829,0,23.665-4.887,23.665-4.887s-15.868,19.524-37.55,19.524c-3.092,0-6.3-0.397-9.6-1.304
		c-26.436-7.267-31.805-49.315-82.544-58.003c-21.096-3.612-28.387-4.719-28.387-4.719S83.789,20.635,98.404,20.634 M231.248,68.265
		h0.005 M98.407,12.634v8l-0.001-8c-15.591,0.001-27.02,3.314-27.499,3.455c-3.597,1.059-5.975,4.475-5.721,8.216
		c0.254,3.741,3.073,6.804,6.78,7.367c0.073,0.011,7.508,1.146,28.238,4.695c27.221,4.661,39.568,19.441,51.508,33.733
		c8.799,10.533,17.11,20.482,30.265,24.098c3.837,1.055,7.781,1.59,11.72,1.59c24.353,0,41.808-20.137,43.626-22.317
		c1.201-1.399,1.927-3.218,1.927-5.207c0-4.304-3.397-7.814-7.657-7.993c-0.116-0.005-0.233-0.008-0.349-0.008
		c-0.345,0-0.691,0.022-1.036,0.067c-0.917,0.119-1.785,0.393-2.577,0.795c-0.755,0.35-8.964,4.025-20.049,4.025
		c-16.098,0-30.224-7.47-41.987-22.203C145.592,17.894,118.017,12.634,98.407,12.634L98.407,12.634z"/>
</g>
</svg>
