<?xml version="1.0" encoding="iso-8859-1"?>
<!-- Generator: Adobe Illustrator 19.2.1, SVG Export Plug-In . SVG Version: 6.00 Build 0)  -->
<svg version="1.1" id="Layer_1" xmlns="http://www.w3.org/2000/svg" xmlns:xlink="http://www.w3.org/1999/xlink" x="0px" y="0px"
	 viewBox="0 0 240 240" style="enable-background:new 0 0 240 240;" xml:space="preserve">
<g>
	<rect x="110.247" y="24.167" style="fill-rule:evenodd;clip-rule:evenodd;fill:#48AAB5;" width="19.508" height="61.411"/>
	<path style="fill:#1D1D1D;" d="M125.755,28.167v53.411h-11.508V28.167H125.755 M133.755,20.167h-8h-11.508h-8v8v53.411v8h8h11.508
		h8v-8V28.167V20.167L133.755,20.167z"/>
</g>
<path style="fill-rule:evenodd;clip-rule:evenodd;fill:#48AAB5;stroke:#1D1D1D;stroke-width:8;stroke-linecap:round;stroke-miterlimit:10;" d="
	M39.458,168.377v-34.018l0,0c0,0,4.862-34.017,29.857-34.017c24.534,0,45.919-25.764,50.186-25.764
	c4.265,0,3.129,6.817,33.47,20.283c31.509,13.985,48.571,30.994,48.571,30.994v42.522"/>
<g>
	<g>
		<path style="fill-rule:evenodd;clip-rule:evenodd;fill:#BDBDBD;" d="M123.485,163.647c0.534,0.225-0.873,0.903-0.681,0.702
			C123.031,164.109,123.258,163.885,123.485,163.647c-0.382-0.161-1.753-0.09-5.418,0.702c-8.788,1.9-6.312-17.052-30.387-17.052
			c-24.534,0-50.18-35.156-50.18-35.156v50.957l82.795,44.157l82.795-44.157v-37.695
			C191.17,120.734,157.264,128.339,123.485,163.647z"/>
	</g>
	<g>
		<path style="fill:none;stroke:#1D1D1D;stroke-width:8;stroke-miterlimit:10;" d="M123.485,163.647
			c0.534,0.225-0.873,0.903-0.681,0.702C123.031,164.109,123.258,163.885,123.485,163.647c-0.382-0.161-1.753-0.09-5.418,0.702
			c-8.788,1.9-6.312-17.052-30.387-17.052c-24.534,0-50.18-35.156-50.18-35.156v50.957l82.795,44.157l82.795-44.157v-37.695
			C191.17,120.734,157.264,128.339,123.485,163.647z"/>
	</g>
</g>
<g>
	<path style="fill-rule:evenodd;clip-rule:evenodd;fill:#48AAB5;" d="M29.683,174.075V65.886L120,13.58l90.316,52.306v108.191
		l-90.393,52.344L29.683,174.075z M110.247,194.521v-72.167l-61.055-33.39v74.076L110.247,194.521z M129.755,194.521l61.053-31.48
		V88.964l-61.053,33.39V194.521z M120,103.927l60.937-32.897L120,34.875L59.062,71.029L120,103.927z"/>
	<path style="fill:#1D1D1D;" d="M120.001,18.202l86.316,49.989v103.58l-86.392,50.026l-86.242-50.026V68.191L120.001,18.202
		 M120.001,108.473l69.053-37.279l-69.053-40.969L50.946,71.194L120.001,108.473 M125.755,201.083l69.053-35.606v-83.26
		l-69.053,37.764V201.083 M114.247,201.083v-81.102L45.192,82.217v83.26L114.247,201.083 M120.001,8.957l-4.009,2.322L29.674,61.269
		l-3.991,2.311v4.612v103.58v4.608l3.986,2.312l86.242,50.026l4.011,2.326l4.012-2.323l86.392-50.026l3.991-2.311v-4.612V68.191
		V63.58l-3.991-2.311L124.01,11.279L120.001,8.957L120.001,8.957z M67.178,70.865l52.822-31.339l52.821,31.339l-52.821,28.516
		L67.178,70.865L67.178,70.865z M53.192,160.602V95.711l53.055,29.014v63.233L53.192,160.602L53.192,160.602z M133.755,124.725
		l53.053-29.014v64.891l-53.053,27.356V124.725L133.755,124.725z"/>
</g>
<g>
	<rect x="114.247" y="28.167" style="fill-rule:evenodd;clip-rule:evenodd;fill:#48AAB5;" width="11.508" height="41.4"/>
</g>
<rect style="fill-rule:evenodd;clip-rule:evenodd;fill:none;" width="240" height="240"/>
</svg>
