<?xml version="1.0" encoding="iso-8859-1"?>
<!-- Generator: Adobe Illustrator 19.2.1, SVG Export Plug-In . SVG Version: 6.00 Build 0)  -->
<svg version="1.1" id="Layer_1" xmlns="http://www.w3.org/2000/svg" xmlns:xlink="http://www.w3.org/1999/xlink" x="0px" y="0px"
	 viewBox="0 0 240 240" style="enable-background:new 0 0 240 240;" xml:space="preserve">
<rect style="fill-rule:evenodd;clip-rule:evenodd;fill:none;" width="240" height="240"/>
<g>
	<g>
		<path style="fill:#1D1D1D;" d="M89.363,81.969c37.925,0,68.667,30.743,68.667,68.668c0,37.923-30.742,68.666-68.667,68.666
			c-37.922,0-68.664-30.744-68.664-68.666C20.698,112.712,51.441,81.969,89.363,81.969 M89.263,209.528
			c32.582,0,58.993-26.412,58.993-58.992c0-32.579-26.411-58.992-58.993-58.992c-32.579,0-58.992,26.413-58.992,58.992
			C30.271,183.117,56.684,209.528,89.263,209.528 M89.363,73.969c-42.273,0-76.664,34.393-76.664,76.668
			c0,42.274,34.392,76.666,76.664,76.666c42.274,0,76.667-34.392,76.667-76.666C166.03,108.362,131.637,73.969,89.363,73.969
			L89.363,73.969z M89.263,201.528c-28.117,0-50.992-22.875-50.992-50.992c0-28.117,22.875-50.992,50.992-50.992
			c28.118,0,50.993,22.875,50.993,50.992C140.256,178.653,117.381,201.528,89.263,201.528L89.263,201.528z"/>
	</g>
	<g>
		<path style="fill:#1D1D1D;" d="M150.635,20.697c37.925,0,68.667,30.743,68.667,68.668c0,37.923-30.742,68.666-68.667,68.666
			c-37.922,0-68.664-30.744-68.664-68.666C81.97,51.44,112.713,20.697,150.635,20.697 M150.536,148.256
			c32.582,0,58.993-26.412,58.993-58.992c0-32.579-26.411-58.992-58.993-58.992c-32.579,0-58.992,26.413-58.992,58.992
			C91.544,121.845,117.956,148.256,150.536,148.256 M150.635,12.697c-42.273,0-76.664,34.393-76.664,76.668
			c0,42.274,34.392,76.666,76.664,76.666c42.274,0,76.667-34.392,76.667-76.666C227.302,47.09,192.909,12.697,150.635,12.697
			L150.635,12.697z M150.536,140.256c-28.117,0-50.992-22.875-50.992-50.992c0-28.117,22.875-50.992,50.992-50.992
			c28.117,0,50.993,22.875,50.993,50.992C201.528,117.381,178.653,140.256,150.536,140.256L150.536,140.256z"/>
	</g>
</g>
<g>
	<g>
		<path style="fill-rule:evenodd;clip-rule:evenodd;fill:#BDBDBD;" d="M89.363,81.969c-37.922,0-68.664,30.743-68.664,68.668
			c0,37.923,30.742,68.666,68.664,68.666c37.925,0,68.667-30.744,68.667-68.666C158.03,112.712,127.288,81.969,89.363,81.969z
			 M89.263,209.528c-32.579,0-58.992-26.412-58.992-58.992c0-32.579,26.413-58.992,58.992-58.992
			c32.582,0,58.993,26.413,58.993,58.992C148.256,183.117,121.845,209.528,89.263,209.528z"/>
	</g>
	<g>
		<path style="fill-rule:evenodd;clip-rule:evenodd;fill:#BDBDBD;" d="M150.635,20.697c-37.922,0-68.664,30.743-68.664,68.668
			c0,37.923,30.742,68.666,68.664,68.666c37.925,0,68.667-30.744,68.667-68.666C219.302,51.44,188.56,20.697,150.635,20.697z
			 M150.536,148.256c-32.579,0-58.992-26.412-58.992-58.992c0-32.579,26.413-58.992,58.992-58.992
			c32.582,0,58.993,26.413,58.993,58.992C209.528,121.845,183.117,148.256,150.536,148.256z"/>
	</g>
</g>
</svg>
