<?xml version="1.0" encoding="iso-8859-1"?>
<!-- Generator: Adobe Illustrator 19.2.1, SVG Export Plug-In . SVG Version: 6.00 Build 0)  -->
<svg version="1.1" id="Layer_1" xmlns="http://www.w3.org/2000/svg" xmlns:xlink="http://www.w3.org/1999/xlink" x="0px" y="0px"
	 viewBox="0 0 240 240" style="enable-background:new 0 0 240 240;" xml:space="preserve">
<g>
	<polygon style="fill-rule:evenodd;clip-rule:evenodd;fill:#BDBDBD;" points="90.53,168.622 109.198,168.622 109.198,46.806 
		130.802,46.806 130.802,168.622 149.47,168.622 120,219.667 	"/>
	<path style="fill:#1D1D1D;" d="M126.802,50.806v121.816h15.74l-11.271,19.522L120,211.667l-11.271-19.522l-11.271-19.522h15.74
		V50.806H126.802 M134.802,42.806h-8h-13.604h-8v8v113.816h-7.74H83.602l6.928,12l11.271,19.522l11.271,19.522l6.928,12l6.928-12
		l11.271-19.522l11.271-19.522l6.928-12h-13.856h-7.74V50.806V42.806L134.802,42.806z"/>
</g>
<g>
	<polygon style="fill-rule:evenodd;clip-rule:evenodd;fill:#BDBDBD;" points="16.047,137.816 34.716,137.816 34.716,16 56.32,16 
		56.32,137.816 74.988,137.816 45.518,188.86 	"/>
	<path style="fill:#1D1D1D;" d="M52.32,20v121.816h15.74l-11.271,19.522l-11.271,19.522l-11.271-19.522l-11.271-19.522h15.74V20
		H52.32 M60.32,12h-8H38.716h-8v8v113.816h-7.74H9.119l6.928,12l11.271,19.522l11.271,19.522l6.928,12l6.928-12l11.271-19.522
		l11.271-19.522l6.928-12H68.06h-7.74V20V12L60.32,12z"/>
</g>
<g>
	<polygon style="fill-rule:evenodd;clip-rule:evenodd;fill:#BDBDBD;" points="165.715,137.816 184.383,137.816 184.383,16 
		205.986,16 205.986,137.816 224.655,137.816 195.185,188.86 	"/>
	<path style="fill:#1D1D1D;" d="M201.987,20v121.816h15.74l-11.271,19.522l-11.271,19.522l-11.271-19.522l-11.271-19.522h15.74V20
		H201.987 M209.987,12h-8h-13.604h-8v8v113.816h-7.74h-13.856l6.928,12l11.271,19.522l11.271,19.522l6.928,12l6.928-12
		l11.271-19.522l11.271-19.522l6.928-12h-13.856h-7.74V20V12L209.987,12z"/>
</g>
<rect style="fill-rule:evenodd;clip-rule:evenodd;fill:none;" width="240" height="240"/>
<g>
	<path style="fill-rule:evenodd;clip-rule:evenodd;fill:#D6806D;" d="M120,143.817c-35.143,0-63.733-28.59-63.733-63.733
		S84.857,16.352,120,16.352s63.733,28.59,63.733,63.733S155.143,143.817,120,143.817z"/>
	<path style="fill:#1D1D1D;" d="M120,20.352c32.99,0,59.733,26.743,59.733,59.733S152.99,139.817,120,139.817
		s-59.733-26.743-59.733-59.733S87.01,20.352,120,20.352 M120,12.352c-37.348,0-67.733,30.385-67.733,67.733
		S82.652,147.817,120,147.817s67.733-30.385,67.733-67.733S157.348,12.352,120,12.352L120,12.352z"/>
</g>
<path style="fill-rule:evenodd;clip-rule:evenodd;fill:#BDBDBD;stroke:#1D1D1D;stroke-width:8;stroke-miterlimit:10;" d="
	M119.557,68.055"/>
<path style="fill-rule:evenodd;clip-rule:evenodd;fill:#BDBDBD;stroke:#1D1D1D;stroke-width:8;stroke-miterlimit:10;" d="
	M146.069,68.055"/>
</svg>
