<?xml version="1.0" encoding="utf-8"?>
<!-- Generator: Adobe Illustrator 13.0.2, SVG Export Plug-In . SVG Version: 6.00 Build 14948)  -->
<svg version="1.2" baseProfile="tiny" id="Layer_1" xmlns="http://www.w3.org/2000/svg" xmlns:xlink="http://www.w3.org/1999/xlink"
	 x="0px" y="0px" width="248.813px" height="220.308px" viewBox="0 0 248.813 220.308" xml:space="preserve">
<g>
	<g>
		<polyline fill="#010101" stroke="#010101" stroke-width="2.5" stroke-linecap="round" stroke-linejoin="round" points="
			42.822,181.025 77.242,119.634 51.431,119.634 51.431,8.818 34.237,8.818 34.237,119.634 8.403,119.634 42.822,181.025 		"/>
		<polyline fill="#4BB048" stroke="#4BB048" stroke-width="2.5" stroke-linecap="round" stroke-linejoin="round" points="
			35.669,176.116 70.098,114.727 44.286,114.727 44.286,3.926 27.084,3.926 27.084,114.727 1.25,114.727 35.669,176.116 		"/>
	</g>
	<polyline fill="#010101" stroke="#010101" stroke-width="2.5" stroke-linecap="round" stroke-linejoin="round" points="
		213.145,181.025 247.563,119.634 221.753,119.634 221.753,8.818 204.561,8.818 204.561,119.634 178.726,119.634 213.145,181.025 	
		"/>
	<polyline fill="#4BB048" stroke="#4BB048" stroke-width="2.5" stroke-linecap="round" stroke-linejoin="round" points="
		205.991,176.116 240.42,114.727 214.609,114.727 214.609,3.926 197.407,3.926 197.407,114.727 171.572,114.727 205.991,176.116 	
		"/>
	<polyline fill="#010101" stroke="#010101" stroke-width="2.5" stroke-linecap="round" stroke-linejoin="round" points="
		130.484,219.058 164.904,157.666 139.094,157.666 139.094,46.848 121.898,46.848 121.898,157.666 96.064,157.666 130.484,219.058 	
		"/>
	<polyline fill="#4BB048" stroke="#4BB048" stroke-width="2.5" stroke-linecap="round" stroke-linejoin="round" points="
		123.333,214.146 157.759,152.754 131.949,152.754 131.949,41.956 114.746,41.956 114.746,152.754 88.912,152.754 123.333,214.146 	
		"/>
	<g>
		<path fill="#77ABD3" d="M178.924,58.423c0,30.537-24.752,55.291-55.291,55.291c-30.537,0-55.292-24.754-55.292-55.291
			c0-30.54,24.755-55.298,55.292-55.298C154.172,3.125,178.924,27.883,178.924,58.423z"/>
		<path fill="#5086B1" d="M159.478,16.824c2.581,6.367,4.017,13.313,4.017,20.603c0,30.293-24.561,54.856-54.853,54.856
			c-14.167,0-27.08-5.376-36.813-14.194c7.777,21.13,28.08,36.199,51.904,36.199c30.54,0,55.298-24.751,55.298-55.291
			C179.031,42.092,171.434,26.968,159.478,16.824z"/>
		<path fill="none" stroke="#010101" stroke-width="6.25" stroke-linecap="round" stroke-linejoin="round" d="M178.924,58.423
			c0,30.537-24.752,55.291-55.291,55.291c-30.537,0-55.292-24.754-55.292-55.291c0-30.54,24.755-55.298,55.292-55.298
			C154.172,3.125,178.924,27.883,178.924,58.423z"/>
		<g>
			<path fill="#FFFFFF" d="M112.429,40.342c0,3.459-2.805,6.262-6.265,6.262c-3.46,0-6.266-2.803-6.266-6.262
				c0-3.462,2.806-6.27,6.266-6.27C109.624,34.072,112.429,36.88,112.429,40.342z"/>
		</g>
	</g>
</g>
</svg>
