<?xml version="1.0" encoding="iso-8859-1"?>
<!-- Generator: Adobe Illustrator 19.2.1, SVG Export Plug-In . SVG Version: 6.00 Build 0)  -->
<svg version="1.1" id="Layer_1" xmlns="http://www.w3.org/2000/svg" xmlns:xlink="http://www.w3.org/1999/xlink" x="0px" y="0px"
	 viewBox="0 0 240 240" style="enable-background:new 0 0 240 240;" xml:space="preserve">
<g>
	<g>
		<path style="fill:#1D1D1D;" d="M144.742,95.257v49.486H95.258V95.257H144.742 M152.742,87.257h-8H95.258h-8v8v49.486v8h8h49.484h8
			v-8V95.257V87.257L152.742,87.257z"/>
	</g>
	<g>
		<path style="fill:#1D1D1D;" d="M81.887,33.087v48.799H33.086V33.087H81.887 M89.887,25.087h-8H33.086h-8v8v48.799v8h8h48.801h8v-8
			V33.087V25.087L89.887,25.087z"/>
	</g>
	<g>
		<path style="fill:#1D1D1D;" d="M81.887,95.257v49.486H33.086V95.257H81.887 M89.887,87.257h-8H33.086h-8v8v49.486v8h8h48.801h8v-8
			V95.257V87.257L89.887,87.257z"/>
	</g>
	<g>
		<path style="fill:#1D1D1D;" d="M81.887,158.114v48.799H33.086v-48.799H81.887 M89.887,150.114h-8H33.086h-8v8v48.799v8h8h48.801h8
			v-8v-48.799V150.114L89.887,150.114z"/>
	</g>
	<g>
		<path style="fill:#1D1D1D;" d="M144.742,33.087v48.799H95.258V33.087H144.742 M152.742,25.087h-8H95.258h-8v8v48.799v8h8h49.484h8
			v-8V33.087V25.087L152.742,25.087z"/>
	</g>
	<g>
		<path style="fill:#1D1D1D;" d="M206.914,95.257v49.486h-48.801V95.257H206.914 M214.914,87.257h-8h-48.801h-8v8v49.486v8h8h48.801
			h8v-8V95.257V87.257L214.914,87.257z"/>
	</g>
	<g>
		<path style="fill:#1D1D1D;" d="M206.914,33.087v48.799h-48.801V33.087H206.914 M214.914,25.087h-8h-48.801h-8v8v48.799v8h8h48.801
			h8v-8V33.087V25.087L214.914,25.087z"/>
	</g>
	<g>
		<path style="fill:#1D1D1D;" d="M144.742,158.114v48.799H95.258v-48.799H144.742 M152.742,150.114h-8H95.258h-8v8v48.799v8h8
			h49.484h8v-8v-48.799V150.114L152.742,150.114z"/>
	</g>
	<g>
		<path style="fill:#1D1D1D;" d="M206.914,158.114v48.799h-48.801v-48.799H206.914 M214.914,150.114h-8h-48.801h-8v8v48.799v8h8
			h48.801h8v-8v-48.799V150.114L214.914,150.114z"/>
	</g>
	<g>
		<path style="fill:#BDBDBD;" d="M15.715,224.284V15.716h208.57v208.568H15.715z M202.914,202.913v-40.799h-40.801v40.799H202.914z
			 M140.742,202.913v-40.799H99.258v40.799H140.742z M77.887,202.913v-40.799H37.086v40.799H77.887z M202.914,140.743V99.257
			h-40.801v41.486H202.914z M140.742,140.743V99.257H99.258v41.486H140.742z M77.887,140.743V99.257H37.086v41.486H77.887z
			 M202.914,77.886V37.087h-40.801v40.799H202.914z M140.742,77.886V37.087H99.258v40.799H140.742z M77.887,77.886V37.087H37.086
			v40.799H77.887z"/>
		<path style="fill:#1D1D1D;" d="M220.285,19.716v13.371v48.799v13.371v49.486v13.371v48.799v13.371h-13.371h-48.801h-13.371H95.258
			H81.887H33.086H19.715v-13.371v-48.799v-13.371V95.257V81.886V33.087V19.716h13.371h48.801h13.371h49.484h13.371h48.801H220.285
			 M158.113,81.886h48.801V33.087h-48.801V81.886 M95.258,81.886h49.484V33.087H95.258V81.886 M33.086,81.886h48.801V33.087H33.086
			V81.886 M158.113,144.743h48.801V95.257h-48.801V144.743 M95.258,144.743h49.484V95.257H95.258V144.743 M33.086,144.743h48.801
			V95.257H33.086V144.743 M158.113,206.913h48.801v-48.799h-48.801V206.913 M95.258,206.913h49.484v-48.799H95.258V206.913
			 M33.086,206.913h48.801v-48.799H33.086V206.913 M228.285,11.716h-8h-13.371h-48.801h-13.371H95.258H81.887H33.086H19.715h-8v8
			v13.371v48.799v13.371v49.486v13.371v48.799v13.371v8h8h13.371h48.801h13.371h49.484h13.371h48.801h13.371h8v-8v-13.371v-48.799
			v-13.371V95.257V81.886V33.087V19.716V11.716L228.285,11.716z M166.113,41.087h32.801v32.799h-32.801V41.087L166.113,41.087z
			 M103.258,41.087h33.484v32.799h-33.484V41.087L103.258,41.087z M41.086,41.087h32.801v32.799H41.086V41.087L41.086,41.087z
			 M166.113,103.257h32.801v33.486h-32.801V103.257L166.113,103.257z M103.258,103.257h33.484v33.486h-33.484V103.257
			L103.258,103.257z M41.086,103.257h32.801v33.486H41.086V103.257L41.086,103.257z M166.113,166.114h32.801v32.799h-32.801V166.114
			L166.113,166.114z M103.258,166.114h33.484v32.799h-33.484V166.114L103.258,166.114z M41.086,166.114h32.801v32.799H41.086
			V166.114L41.086,166.114z"/>
	</g>
</g>
<rect style="fill-rule:evenodd;clip-rule:evenodd;fill:none;" width="240" height="240"/>
</svg>
