<?xml version="1.0" encoding="iso-8859-1"?>
<!-- Generator: Adobe Illustrator 19.2.1, SVG Export Plug-In . SVG Version: 6.00 Build 0)  -->
<svg version="1.1" id="Layer_1" xmlns="http://www.w3.org/2000/svg" xmlns:xlink="http://www.w3.org/1999/xlink" x="0px" y="0px"
	 viewBox="0 0 240 240" style="enable-background:new 0 0 240 240;" xml:space="preserve">
<g>
	<g>
		<path style="fill-rule:evenodd;clip-rule:evenodd;fill:#D6806D;" d="M184.027,207.119c-8.454,0-35.492-10.14-48.398-55.193
			c-1.924-6.719-2.039-15.154-2.161-24.086c-0.157-11.503-0.319-23.398-4.202-32.87c-9.304-22.688-20.953-36.083-29.086-43.324
			c-8.786-7.822-15.472-10.345-15.538-10.369c-1.571-0.581-2.63-2.083-2.63-3.758c0-5.224,2.468-10.634,6.771-14.843
			c4.279-4.187,9.765-6.588,15.049-6.588c0.819,0,1.618,0.251,2.289,0.72c0.991,0.691,24.461,17.481,41.739,65.28
			c4.074,11.271,3.733,27.571,3.433,41.952c-0.214,10.252-0.417,19.936,0.988,25.863c6.459,27.294,33.989,49.884,34.267,50.109
			c1.315,1.066,1.816,2.848,1.251,4.443C187.23,206.052,185.721,207.119,184.027,207.119z"/>
		<path style="fill:#1D1D1D;" d="M103.83,20.087c0,0,23.22,16.204,40.267,63.36c6.66,18.421,0.719,52.304,4.29,67.377
			c6.863,29,35.641,52.295,35.641,52.295c-8.909,0-32.959-11.822-44.552-52.295c-4.152-14.492,0.786-39.577-6.508-57.37
			c-18.782-45.801-46.956-55.935-46.956-55.935C86.011,28.803,94.918,20.087,103.83,20.087 M103.83,12.087
			c-13.271,0-25.819,12.359-25.819,25.432c0,3.414,2.035,6.404,5.258,7.516c0.488,0.194,6.627,2.722,14.624,9.934
			c7.706,6.95,18.763,19.795,27.672,41.52c3.594,8.768,3.751,20.276,3.903,31.406c0.126,9.206,0.244,17.901,2.316,25.133
			c3.769,13.159,11.255,31.643,25.511,44.966c6.789,6.345,17.377,13.125,26.732,13.125c3.389,0,6.41-2.135,7.541-5.33
			c1.131-3.195,0.126-6.756-2.508-8.888c-0.26-0.211-26.755-21.999-32.889-47.919c-1.287-5.433-1.09-14.869-0.881-24.858
			c0.308-14.73,0.657-31.426-3.67-43.396c-17.706-48.98-42.179-66.48-43.212-67.201C107.065,12.589,105.467,12.087,103.83,12.087
			L103.83,12.087z"/>
	</g>
	<g>
		<path style="fill-rule:evenodd;clip-rule:evenodd;fill:#D6806D;" d="M153.989,223.913c-8.454,0-35.492-10.14-48.398-55.193
			c-1.925-6.719-2.04-15.154-2.162-24.085c-0.157-11.504-0.319-23.398-4.202-32.87C89.924,89.077,78.275,75.682,70.141,68.44
			c-8.786-7.822-15.472-10.345-15.538-10.37c-1.571-0.581-2.63-2.083-2.63-3.758c0-5.224,2.468-10.634,6.771-14.843
			c4.279-4.187,9.764-6.588,15.048-6.588c0.819,0,1.618,0.251,2.289,0.72c0.991,0.691,24.46,17.48,41.74,65.28
			c4.074,11.27,3.733,27.571,3.433,41.953c-0.214,10.251-0.417,19.935,0.988,25.862c6.474,27.355,33.987,49.884,34.265,50.107
			c1.317,1.066,1.819,2.847,1.254,4.444S155.684,223.913,153.989,223.913z"/>
		<path style="fill:#1D1D1D;" d="M73.792,36.881c0,0,23.22,16.204,40.267,63.36c6.66,18.422,0.719,52.304,4.29,67.377
			c6.863,29,35.641,52.295,35.641,52.295c-8.909,0-32.959-11.822-44.552-52.295c-4.152-14.492,0.786-39.577-6.508-57.37
			C84.147,64.446,55.973,54.313,55.973,54.313C55.973,45.597,64.88,36.881,73.792,36.881 M73.792,28.881
			c-13.271,0-25.819,12.359-25.819,25.432c0,3.414,2.035,6.404,5.258,7.516c0.488,0.194,6.627,2.722,14.624,9.934
			c7.706,6.95,18.763,19.795,27.672,41.52c3.594,8.768,3.751,20.276,3.903,31.406c0.126,9.206,0.244,17.901,2.316,25.133
			c3.769,13.159,11.255,31.643,25.511,44.966c6.789,6.345,17.377,13.125,26.732,13.125c3.389,0,6.41-2.135,7.541-5.33
			c1.131-3.195,0.126-6.756-2.508-8.888c-0.26-0.211-26.755-21.999-32.889-47.919c-1.287-5.433-1.09-14.869-0.881-24.858
			c0.308-14.73,0.657-31.426-3.67-43.396c-17.706-48.98-42.179-66.48-43.212-67.201C77.027,29.384,75.429,28.881,73.792,28.881
			L73.792,28.881z"/>
	</g>
</g>
<rect style="fill-rule:evenodd;clip-rule:evenodd;fill:none;" width="240" height="240"/>
</svg>
