<?xml version="1.0" encoding="iso-8859-1"?>
<!-- Generator: Adobe Illustrator 19.2.1, SVG Export Plug-In . SVG Version: 6.00 Build 0)  -->
<svg version="1.1" id="Layer_1" xmlns="http://www.w3.org/2000/svg" xmlns:xlink="http://www.w3.org/1999/xlink" x="0px" y="0px"
	 viewBox="0 0 240 240" style="enable-background:new 0 0 240 240;" xml:space="preserve">
<g style="opacity:0.5;">
	<polygon style="fill-rule:evenodd;clip-rule:evenodd;fill:#48AAB5;" points="20.151,145.55 120.071,76.854 219.99,145.55 
		120.073,214.246 	"/>
	<path style="fill:#1D1D1D;" d="M120.071,81.708l92.859,63.841l-92.857,63.843l-92.861-63.843L120.071,81.708 M120.071,72
		L13.091,145.549l106.983,73.551l106.978-73.551L120.071,72L120.071,72z"/>
</g>
<g id="XMLID_35_">
	<polygon style="fill-rule:evenodd;clip-rule:evenodd;fill:#48AAB5;" points="20.151,106.549 120.071,37.854 219.99,106.549 
		120.073,175.246 	"/>
	<path style="fill:#1D1D1D;" d="M120.071,42.708l92.859,63.841l-92.857,63.843l-92.861-63.843L120.071,42.708 M120.071,33
		L13.091,106.549l106.983,73.551l106.978-73.551L120.071,33L120.071,33z"/>
</g>
<g>
	<path style="fill-rule:evenodd;clip-rule:evenodd;fill:#48AAB5;" d="M74.667,136.333c32.873-24.624,31.648-92,60.976-108.478
		C153.815,17.645,168.438,76,168.438,76"/>
</g>
<g>
	<path style="fill-rule:evenodd;clip-rule:evenodd;fill:none;stroke:#1D1D1D;stroke-width:8;stroke-miterlimit:10;" d="
		M69.791,140.27c36.068-25.648,33.735-99.102,65.913-116.265C155.012,13.706,172.4,74.056,172.4,74.056"/>
	<path style="fill-rule:evenodd;clip-rule:evenodd;fill:none;stroke:#1D1D1D;stroke-width:8;stroke-miterlimit:10;" d="
		M79.833,66.25c0,0,10.833,12.417,26.253,4.326c21.11-11.076,69.58,42.17,74.664,62.924"/>
	<path style="fill-rule:evenodd;clip-rule:evenodd;fill:none;stroke:#1D1D1D;stroke-width:8;stroke-miterlimit:10;" d="
		M53.952,85.357c0,0,13.048,18.31,39.165,10.99c22.954-6.434,52.048,37.15,57.132,57.904"/>
</g>
<rect style="fill-rule:evenodd;clip-rule:evenodd;fill:none;" width="240" height="240"/>
</svg>
