<?xml version="1.0" encoding="iso-8859-1"?>
<!-- Generator: Adobe Illustrator 19.2.1, SVG Export Plug-In . SVG Version: 6.00 Build 0)  -->
<svg version="1.1" id="Layer_1" xmlns="http://www.w3.org/2000/svg" xmlns:xlink="http://www.w3.org/1999/xlink" x="0px" y="0px"
	 viewBox="0 0 240 240" style="enable-background:new 0 0 240 240;" xml:space="preserve">
<rect style="fill-rule:evenodd;clip-rule:evenodd;fill:none;" width="240" height="240"/>
<g>
	<path style="fill-rule:evenodd;clip-rule:evenodd;fill:#1D1D1D;" d="M119.787,175.195c-8.9,0-16.141-7.24-16.141-16.141V33.305
		c0-8.9,7.241-16.141,16.141-16.141h0.427c8.9,0,16.14,7.241,16.14,16.141v125.75c0,8.9-7.24,16.141-16.14,16.141H119.787z"/>
	<path style="fill:#1D1D1D;" d="M120.213,21.164c6.677,0,12.14,5.463,12.14,12.14v125.75c0,6.677-5.463,12.14-12.14,12.14h-0.427
		c-6.677,0-12.14-5.463-12.14-12.14V33.305c0-6.677,5.463-12.14,12.14-12.14H120.213 M120.213,13.164h-0.427
		c-11.105,0-20.14,9.035-20.14,20.14v125.75c0,11.105,9.035,20.14,20.14,20.14h0.427c11.105,0,20.14-9.035,20.14-20.14V33.305
		C140.354,22.199,131.319,13.164,120.213,13.164L120.213,13.164z"/>
</g>
<g>
	<path style="fill-rule:evenodd;clip-rule:evenodd;fill:#1D1D1D;" d="M37.354,223.242c-5.772,0-11.142-3.089-14.013-8.061
		l-0.216-0.376c-2.146-3.716-2.713-8.064-1.595-12.237c1.118-4.174,3.784-7.656,7.506-9.805l82.902-47.875
		c2.44-1.409,5.219-2.153,8.036-2.153c5.772,0,11.142,3.089,14.013,8.061l0.217,0.376c4.446,7.701,1.797,17.592-5.911,22.042
		l-82.902,47.875C42.951,222.498,40.172,223.242,37.354,223.242z"/>
	<path style="fill:#1D1D1D;" d="M119.975,146.735c4.205,0,8.306,2.177,10.549,6.061l0.213,0.37
		c3.339,5.783,1.339,13.245-4.444,16.584L43.39,217.625c-1.899,1.096-3.98,1.617-6.035,1.617c-4.205,0-8.306-2.177-10.549-6.061
		l-0.213-0.37c-3.339-5.783-1.339-13.246,4.444-16.584l82.903-47.875C115.838,147.256,117.919,146.736,119.975,146.735
		 M119.975,138.735L119.975,138.735c-3.52,0-6.99,0.93-10.036,2.689L27.036,189.3c-9.617,5.552-12.924,17.894-7.371,27.512
		l0.213,0.37c3.583,6.206,10.28,10.061,17.477,10.061c3.518,0,6.989-0.93,10.035-2.689l82.904-47.876
		c9.617-5.552,12.924-17.894,7.371-27.512l-0.213-0.37C133.869,142.59,127.172,138.735,119.975,138.735L119.975,138.735z"/>
</g>
<g>
	<path style="fill-rule:evenodd;clip-rule:evenodd;fill:#1D1D1D;" d="M202.646,223.242c-2.817,0-5.597-0.745-8.035-2.153
		l-82.904-47.875c-7.707-4.45-10.357-14.341-5.907-22.048l0.212-0.368c2.872-4.974,8.242-8.062,14.014-8.062
		c2.817,0,5.596,0.744,8.035,2.153l82.903,47.875c3.722,2.149,6.388,5.631,7.506,9.805c1.118,4.173,0.551,8.521-1.599,12.243
		l-0.209,0.364C213.787,220.153,208.418,223.242,202.646,223.242C202.646,223.242,202.646,223.242,202.646,223.242z"/>
	<path style="fill:#1D1D1D;" d="M120.025,146.735c2.056,0,4.137,0.521,6.035,1.617l82.903,47.875
		c5.783,3.339,7.782,10.801,4.444,16.584l-0.213,0.37c-2.242,3.884-6.344,6.061-10.549,6.061c-2.056,0-4.137-0.521-6.035-1.617
		l-82.903-47.875c-5.783-3.339-7.782-10.801-4.444-16.584l0.213-0.37C111.719,148.912,115.821,146.735,120.025,146.735
		 M120.025,138.735c-7.197,0-13.894,3.855-17.477,10.061l-0.213,0.369c-5.553,9.618-2.246,21.96,7.372,27.513l82.902,47.875
		c3.048,1.76,6.518,2.689,10.036,2.689c7.197,0,13.894-3.855,17.477-10.061l0.213-0.369c5.553-9.618,2.246-21.96-7.372-27.513
		l-82.902-47.875C127.014,139.665,123.544,138.735,120.025,138.735L120.025,138.735z"/>
</g>
<g>
	<path style="fill-rule:evenodd;clip-rule:evenodd;fill:#558CF2;" d="M26.806,213.181l-0.213-0.37
		c-3.339-5.783-1.339-13.246,4.444-16.584l82.903-47.875c5.783-3.339,13.246-1.339,16.584,4.444l0.213,0.37
		c3.339,5.783,1.339,13.246-4.444,16.584L43.39,217.625C37.607,220.964,30.144,218.964,26.806,213.181z"/>
</g>
<g>
	<path style="fill-rule:evenodd;clip-rule:evenodd;fill:#DB5858;" d="M208.964,196.228l-82.903-47.875
		c-1.907-1.101-3.996-1.61-6.061-1.606v26.637l76.61,44.241c5.783,3.339,13.246,1.339,16.584-4.444l0.213-0.37
		C216.746,207.029,214.746,199.566,208.964,196.228z"/>
</g>
<g>
	<path style="fill-rule:evenodd;clip-rule:evenodd;fill:#7BAB44;" d="M120,168.344l12.354-16.188V33.305
		c0-6.677-5.463-12.14-12.14-12.14h-0.427c-6.677,0-12.14,5.463-12.14,12.14v118.851L120,168.344z"/>
</g>
</svg>
