<?xml version="1.0" encoding="utf-8"?>
<!-- Generator: Adobe Illustrator 19.2.1, SVG Export Plug-In . SVG Version: 6.00 Build 0)  -->
<svg version="1.1" id="Layer_1" xmlns="http://www.w3.org/2000/svg" xmlns:xlink="http://www.w3.org/1999/xlink" x="0px" y="0px"
	 viewBox="0 0 240 240" enable-background="new 0 0 240 240" xml:space="preserve">
<rect fill-rule="evenodd" clip-rule="evenodd" fill="none" width="240" height="240"/>
<rect fill-rule="evenodd" clip-rule="evenodd" fill="none" width="240" height="240"/>
<g>
	<g>
		<g>
			<path fill-rule="evenodd" clip-rule="evenodd" fill="#BDBDBD" d="M167,62.5c-12.8,0-23.2-10.4-23.2-23.2S154.2,16,167,16
				s23.2,10.4,23.2,23.2S179.8,62.5,167,62.5z"/>
			<g>
				<path fill="#1D1D1D" d="M167,20c10.6,0,19.2,8.6,19.2,19.2s-8.6,19.2-19.2,19.2c-10.6,0-19.2-8.6-19.2-19.2S156.3,20,167,20
					 M167,12c-15,0-27.2,12.2-27.2,27.2s12.2,27.2,27.2,27.2s27.2-12.2,27.2-27.2S182,12,167,12L167,12z"/>
			</g>
		</g>
		<g>
			<path fill-rule="evenodd" clip-rule="evenodd" fill="#BDBDBD" d="M82.3,128.8c-1,0-2.1-0.4-2.8-1.2c-1.3-1.3-1.5-3.4-0.5-5
				L128,46.3c0.7-1,1.7-1.7,2.9-1.8c0.1,0,0.3,0,0.4,0c1.1,0,2.1,0.4,2.8,1.2l27.5,27.5c0.9,0.9,1.3,2.1,1.1,3.3
				c-0.1,1.2-0.8,2.3-1.8,2.9l-76.6,48.8C83.8,128.6,83,128.8,82.3,128.8z"/>
			<g>
				<path fill="#1D1D1D" d="M131.4,48.5L158.9,76l-76.6,48.8L131.4,48.5 M131.4,40.5c-0.3,0-0.6,0-0.9,0c-2.4,0.3-4.6,1.6-5.9,3.6
					l-49.1,76.3c-2,3.2-1.6,7.3,1.1,10c1.5,1.6,3.6,2.4,5.7,2.4c1.5,0,3-0.4,4.3-1.3l76.6-48.8c2-1.3,3.4-3.5,3.7-5.9
					c0.3-2.4-0.6-4.8-2.3-6.5L137,42.8C135.5,41.3,133.5,40.5,131.4,40.5L131.4,40.5z"/>
			</g>
		</g>
		<g>
			<path fill-rule="evenodd" clip-rule="evenodd" fill="#BDBDBD" d="M73,156.9c-12.8,0-23.2-10.4-23.2-23.2
				c0-12.8,10.4-23.2,23.2-23.2s23.2,10.4,23.2,23.2C96.3,146.5,85.8,156.9,73,156.9z"/>
			<g>
				<path fill="#1D1D1D" d="M73,114.5c10.6,0,19.2,8.6,19.2,19.2s-8.6,19.2-19.2,19.2s-19.2-8.6-19.2-19.2S62.4,114.5,73,114.5
					 M73,106.5c-15,0-27.2,12.2-27.2,27.2S58,160.9,73,160.9s27.2-12.2,27.2-27.2S88.1,106.5,73,106.5L73,106.5z"/>
			</g>
		</g>
		<g>
			<path fill-rule="evenodd" clip-rule="evenodd" fill="#BDBDBD" d="M158.6,222.4c-0.7,0-1.5-0.2-2.2-0.6l-76.3-49.1
				c-1-0.7-1.7-1.7-1.8-2.9s0.3-2.4,1.1-3.3L107,139c0.8-0.8,1.8-1.2,2.8-1.2c0.1,0,0.3,0,0.4,0c1.2,0.1,2.3,0.8,2.9,1.8l48.8,76.6
				c1,1.6,0.8,3.7-0.6,5C160.6,222,159.6,222.4,158.6,222.4z"/>
			<g>
				<path fill="#1D1D1D" d="M109.8,141.8l48.8,76.6l-76.3-49.1L109.8,141.8 M109.8,133.8c-2.1,0-4.1,0.8-5.7,2.3l-27.5,27.5
					c-1.7,1.7-2.6,4.1-2.3,6.5c0.3,2.4,1.6,4.6,3.6,5.9l76.3,49.1c1.3,0.9,2.8,1.3,4.3,1.3c2.1,0,4.1-0.8,5.6-2.3
					c2.7-2.7,3.1-6.8,1.1-10l-48.8-76.6c-1.3-2-3.5-3.4-5.9-3.7C110.4,133.8,110.1,133.8,109.8,133.8L109.8,133.8z"/>
			</g>
		</g>
	</g>
	<g>
		<path fill-rule="evenodd" clip-rule="evenodd" fill="#AE9CDB" d="M167,224c-4.4,0-8-3.6-8-8V42.2c0-4.4,3.6-8,8-8s8,3.6,8,8V216
			C175,220.4,171.4,224,167,224z"/>
		<path fill="#1D1D1D" d="M167,38.2c2.2,0,4,1.8,4,4V216c0,2.2-1.8,4-4,4s-4-1.8-4-4V42.2C163,40,164.8,38.2,167,38.2 M167,30.2
			c-6.6,0-12,5.4-12,12V216c0,6.6,5.4,12,12,12s12-5.4,12-12V42.2C179,35.6,173.6,30.2,167,30.2L167,30.2z"/>
	</g>
</g>
</svg>
