<?xml version="1.0" encoding="utf-8"?>
<!-- Generator: Adobe Illustrator 19.2.1, SVG Export Plug-In . SVG Version: 6.00 Build 0)  -->
<svg version="1.1" id="Layer_1" xmlns="http://www.w3.org/2000/svg" xmlns:xlink="http://www.w3.org/1999/xlink" x="0px" y="0px"
	 viewBox="0 0 240 240" enable-background="new 0 0 240 240" xml:space="preserve">
<rect fill-rule="evenodd" clip-rule="evenodd" fill="none" width="240" height="240"/>
<rect fill-rule="evenodd" clip-rule="evenodd" fill="none" width="240" height="240"/>
<g>
	<g>
		<g>
			<path fill-rule="evenodd" clip-rule="evenodd" fill="#BDBDBD" d="M167,62.5c-12.8,0-23.2-10.4-23.2-23.2S154.2,16,167,16
				s23.2,10.4,23.2,23.2S179.8,62.5,167,62.5z"/>
			<g>
				<path fill="#1D1D1D" d="M167,20c10.6,0,19.2,8.6,19.2,19.2s-8.6,19.2-19.2,19.2c-10.6,0-19.2-8.6-19.2-19.2S156.3,20,167,20
					 M167,12c-15,0-27.2,12.2-27.2,27.2s12.2,27.2,27.2,27.2s27.2-12.2,27.2-27.2S182,12,167,12L167,12z"/>
			</g>
		</g>
		<g>
			<path fill-rule="evenodd" clip-rule="evenodd" fill="#BDBDBD" d="M82.3,128.8c-1,0-2.1-0.4-2.8-1.2c-1.3-1.3-1.5-3.4-0.5-5
				L128,46.3c0.7-1,1.7-1.7,2.9-1.8c0.1,0,0.3,0,0.4,0c1.1,0,2.1,0.4,2.8,1.2l27.5,27.5c0.9,0.9,1.3,2.1,1.1,3.3
				c-0.1,1.2-0.8,2.3-1.8,2.9l-76.6,48.8C83.8,128.6,83,128.8,82.3,128.8z"/>
			<g>
				<path fill="#1D1D1D" d="M131.4,48.5L158.9,76l-76.6,48.8L131.4,48.5 M131.4,40.5c-0.3,0-0.6,0-0.9,0c-2.4,0.3-4.6,1.6-5.9,3.6
					l-49.1,76.3c-2,3.2-1.6,7.3,1.1,10c1.5,1.6,3.6,2.4,5.7,2.4c1.5,0,3-0.4,4.3-1.3l76.6-48.8c2-1.3,3.4-3.5,3.7-5.9
					c0.3-2.4-0.6-4.8-2.3-6.5L137,42.8C135.5,41.3,133.5,40.5,131.4,40.5L131.4,40.5z"/>
			</g>
		</g>
		<g>
			<path fill-rule="evenodd" clip-rule="evenodd" fill="#BDBDBD" d="M73,156.9c-12.8,0-23.2-10.4-23.2-23.2
				c0-12.8,10.4-23.2,23.2-23.2s23.2,10.4,23.2,23.2C96.3,146.5,85.8,156.9,73,156.9z"/>
			<g>
				<path fill="#1D1D1D" d="M73,114.5c10.6,0,19.2,8.6,19.2,19.2s-8.6,19.2-19.2,19.2s-19.2-8.6-19.2-19.2S62.4,114.5,73,114.5
					 M73,106.5c-15,0-27.2,12.2-27.2,27.2S58,160.9,73,160.9s27.2-12.2,27.2-27.2S88.1,106.5,73,106.5L73,106.5z"/>
			</g>
		</g>
		<g>
			<path fill-rule="evenodd" clip-rule="evenodd" fill="#BDBDBD" d="M158.6,222.4c-0.7,0-1.5-0.2-2.2-0.6l-76.3-49.1
				c-1-0.7-1.7-1.7-1.8-2.9s0.3-2.4,1.1-3.3L107,139c0.8-0.8,1.8-1.2,2.8-1.2c0.1,0,0.3,0,0.4,0c1.2,0.1,2.3,0.8,2.9,1.8l48.8,76.6
				c1,1.6,0.8,3.7-0.6,5C160.6,222,159.6,222.4,158.6,222.4z"/>
			<g>
				<path fill="#1D1D1D" d="M109.8,141.8l48.8,76.6l-76.3-49.1L109.8,141.8 M109.8,133.8c-2.1,0-4.1,0.8-5.7,2.3l-27.5,27.5
					c-1.7,1.7-2.6,4.1-2.3,6.5c0.3,2.4,1.6,4.6,3.6,5.9l76.3,49.1c1.3,0.9,2.8,1.3,4.3,1.3c2.1,0,4.1-0.8,5.6-2.3
					c2.7-2.7,3.1-6.8,1.1-10l-48.8-76.6c-1.3-2-3.5-3.4-5.9-3.7C110.4,133.8,110.1,133.8,109.8,133.8L109.8,133.8z"/>
			</g>
		</g>
	</g>
	<g>
		<path fill="#AE9CDB" d="M167,223c-1.8,0-3.5-0.6-4.9-1.7c-0.9-0.7-8.7-7-16.3-21.8c-9.8-19.1-14.7-43.3-14.7-71.8
			c0-28.5,5-52.6,14.8-71.5c7.6-14.7,15.5-20.8,16.4-21.5c1.4-1,3-1.6,4.8-1.6c2.5,0,4.9,1.2,6.4,3.2c2.6,3.5,1.9,8.5-1.6,11.2
			c-0.2,0.1-24.8,20.4-24.8,80.2c0,32,7,52.5,12.8,64.1c6,11.9,12,16.9,12.1,16.9c3.4,2.7,4,7.7,1.3,11.2
			C171.8,221.9,169.5,223,167,223z"/>
		<path fill="#1D1D1D" d="M167,37.2c1.2,0,2.4,0.6,3.2,1.6c1.3,1.8,1,4.3-0.8,5.6c-0.4,0.3-26.3,21-26.3,83.3
			c0,32.8,7.2,53.9,13.2,65.9c6.5,12.9,13.1,18.2,13.2,18.2c1.7,1.4,2,3.9,0.7,5.6c-0.8,1-2,1.5-3.2,1.5c-0.9,0-1.7-0.3-2.4-0.8
			c-1.2-0.9-29.5-23.5-29.5-90.4c0-66.9,28.3-88.8,29.5-89.7C165.4,37.5,166.2,37.2,167,37.2 M167,29.2L167,29.2
			c-2.6,0-5.1,0.8-7.2,2.4c-1.6,1.2-9.7,7.7-17.5,22.8c-10.1,19.5-15.2,44.1-15.2,73.3c0,29.1,5.1,53.9,15.2,73.6
			c7.8,15.3,15.9,22,17.4,23.2c2.1,1.6,4.7,2.5,7.3,2.5c3.7,0,7.2-1.7,9.5-4.6c4-5.2,3.1-12.7-2-16.7c-0.3-0.3-5.7-4.9-11-15.6
			c-5.7-11.2-12.4-31.1-12.4-62.3c0-16.6,2-40.5,11.7-60.4c5.5-11.4,11.2-16.3,11.6-16.7c5.1-4,6.2-11.4,2.3-16.7
			C174.4,31,170.8,29.2,167,29.2L167,29.2z"/>
	</g>
</g>
</svg>
