<?xml version="1.0" encoding="iso-8859-1"?>
<!-- Generator: Adobe Illustrator 19.2.1, SVG Export Plug-In . SVG Version: 6.00 Build 0)  -->
<svg version="1.1" id="Layer_1" xmlns="http://www.w3.org/2000/svg" xmlns:xlink="http://www.w3.org/1999/xlink" x="0px" y="0px"
	 viewBox="0 0 240 240" style="enable-background:new 0 0 240 240;" xml:space="preserve">
<g>
	<path style="fill-rule:evenodd;clip-rule:evenodd;fill:#BDBDBD;" d="M20.721,157.974L120,89.592l99.283,68.384l-99.365,68.433
		L20.721,157.974z M119.936,206.127l27.616-19.02l-69.583-48.285l-27.819,19.161L119.936,206.127z M161.98,177.172l27.866-19.191
		L120,109.872l-27.609,19.016L161.98,177.172z"/>
	<path style="fill:#1D1D1D;" d="M120.001,94.449l92.231,63.527l-92.312,63.574l-92.152-63.574L120.001,94.449 M161.972,182.034
		l34.927-24.054l-76.898-52.966l-34.644,23.862L161.972,182.034 M119.933,210.985l34.653-23.865l-76.609-53.161L43.102,157.98
		L119.933,210.985 M120.001,84.735l-4.538,3.126L23.23,151.388l-9.558,6.583l9.553,6.59l92.152,63.574l4.539,3.131l4.541-3.128
		l92.312-63.574l9.566-6.588l-9.566-6.589l-92.231-63.527L120.001,84.735L120.001,84.735z M99.425,128.9L120,114.729l62.794,43.251
		l-20.806,14.329L99.425,128.9L99.425,128.9z M57.197,157.986l20.763-14.301l62.558,43.41l-20.581,14.174L57.197,157.986
		L57.197,157.986z"/>
</g>
<g>
	<g>
		<polygon style="fill:#48AAB5;" points="75.176,79.823 173.821,15.704 173.821,123.471 75.176,187.591 		"/>
		<path style="fill:#1D1D1D;" d="M169.821,23.075V121.3l-90.645,58.92V81.993L169.821,23.075 M177.821,8.333L71.176,77.652v117.311
			l106.645-69.32V8.333L177.821,8.333z"/>
	</g>
</g>
<rect style="fill-rule:evenodd;clip-rule:evenodd;fill:none;" width="240" height="240"/>
</svg>
