<?xml version="1.0" encoding="iso-8859-1"?>
<!-- Generator: Adobe Illustrator 19.2.1, SVG Export Plug-In . SVG Version: 6.00 Build 0)  -->
<svg version="1.1" id="Layer_1" xmlns="http://www.w3.org/2000/svg" xmlns:xlink="http://www.w3.org/1999/xlink" x="0px" y="0px"
	 viewBox="0 0 240 240" style="enable-background:new 0 0 240 240;" xml:space="preserve">
<rect style="fill-rule:evenodd;clip-rule:evenodd;fill:none;" width="240" height="240"/>
<g>
	<path style="fill:#1D1D1D;" d="M120,223.492c-14.311,0-27.383-11.054-36.809-31.124c-8.975-19.109-13.917-44.81-13.917-72.368
		s4.942-53.259,13.917-72.368C92.617,27.561,105.689,16.507,120,16.507s27.384,11.054,36.81,31.125
		c8.975,19.109,13.917,44.81,13.917,72.368s-4.942,53.259-13.917,72.368C147.384,212.438,134.311,223.492,120,223.492z M120,32.507
		c-16.425,0-34.726,35.932-34.726,87.493s18.301,87.492,34.726,87.492s34.727-35.932,34.727-87.492S136.425,32.507,120,32.507z"/>
	<path style="fill:#1D1D1D;" d="M120,20.507c26.202,0,46.727,43.702,46.727,99.493c0,55.79-20.524,99.492-46.727,99.492
		c-26.202,0-46.726-43.702-46.726-99.492C73.274,64.209,93.798,20.507,120,20.507 M120,211.492
		c20.992,0,38.727-41.898,38.727-91.492c0-49.594-17.734-91.493-38.727-91.493c-20.992,0-38.726,41.898-38.726,91.493
		C81.274,169.594,99.008,211.492,120,211.492 M120,12.507c-15.949,0-30.307,11.87-40.43,33.424
		C70.351,65.561,65.274,91.866,65.274,120c0,28.134,5.077,54.438,14.296,74.068c10.123,21.554,24.481,33.424,40.43,33.424
		c15.949,0,30.308-11.87,40.43-33.424c9.219-19.63,14.296-45.934,14.296-74.068c0-28.134-5.077-54.439-14.296-74.069
		C150.308,24.378,135.949,12.507,120,12.507L120,12.507z M120,203.492c-6.441,0-14.054-8.532-19.868-22.267
		C93.232,164.922,89.274,142.606,89.274,120c0-22.607,3.958-44.923,10.858-61.226c5.814-13.735,13.426-22.267,19.868-22.267
		c6.442,0,14.055,8.532,19.868,22.267c6.901,16.303,10.858,38.619,10.858,61.226c0,22.607-3.958,44.922-10.858,61.225
		C134.055,194.96,126.442,203.492,120,203.492L120,203.492z"/>
</g>
<g>
	<path style="fill:#1D1D1D;" d="M120,153.143c-37.59,0-101.208-6.98-101.208-33.143c0-10.977,11.176-19.557,33.217-25.502
		c18.264-4.927,42.41-7.64,67.991-7.64c37.591,0,101.208,6.98,101.208,33.142c0,10.977-11.176,19.557-33.216,25.503
		C169.727,150.43,145.58,153.143,120,153.143z M34.85,120.038c0.697,1.329,5.82,5.955,22.856,10.351
		c16.878,4.355,39.001,6.754,62.294,6.754c24.214,0,46.88-2.518,63.824-7.089c15.452-4.167,20.54-8.585,21.326-10.092
		c-0.696-1.329-5.82-5.955-22.855-10.351c-16.878-4.355-39.002-6.753-62.295-6.753c-24.213,0-46.879,2.517-63.825,7.088
		C40.724,114.114,35.636,118.531,34.85,120.038z"/>
	<path style="fill:#1D1D1D;" d="M120,90.858c48.307,0,97.208,10.01,97.208,29.142c0,8.817-10.463,16.301-30.258,21.641
		c-17.936,4.838-41.712,7.502-66.95,7.502c-48.306,0-97.208-10.011-97.208-29.143c0-8.817,10.463-16.301,30.258-21.64
		C70.985,93.522,94.761,90.858,120,90.858 M120,141.143c24.555,0,47.592-2.566,64.866-7.227
		c17.967-4.846,24.342-10.525,24.342-13.916c0-8.62-34.752-21.142-89.208-21.142c-24.555,0-47.592,2.566-64.866,7.226
		C37.167,110.93,30.792,116.609,30.792,120C30.792,128.62,65.544,141.143,120,141.143 M120,82.858
		c-25.923,0-50.439,2.762-69.033,7.778C26.963,97.11,14.792,106.99,14.792,120c0,13.081,12.253,22.997,36.418,29.473
		c18.456,4.946,42.886,7.669,68.79,7.669c25.922,0,50.439-2.762,69.034-7.778c24.004-6.475,36.174-16.355,36.174-29.365
		c0-13.081-12.253-22.997-36.418-29.473C170.334,85.582,145.904,82.858,120,82.858L120,82.858z M41.058,120
		c2.795-1.662,7.843-3.949,16.16-6.192c16.615-4.482,38.912-6.95,62.783-6.95c27.476,0,46.819,3.19,58.207,5.866
		c10.985,2.581,17.419,5.363,20.735,7.276c-2.795,1.662-7.843,3.949-16.16,6.192c-16.615,4.482-38.911,6.951-62.783,6.951
		c-27.476,0-46.819-3.19-58.207-5.866C50.808,124.695,44.374,121.913,41.058,120L41.058,120z"/>
</g>
<path style="fill:#BDBDBD;stroke:#1D1D1D;stroke-width:8;stroke-linecap:round;stroke-miterlimit:10;" d="M120,16.333
	C62.746,16.333,16.333,62.746,16.333,120c0,57.253,46.413,103.667,103.667,103.667S223.667,177.253,223.667,120
	C223.667,62.746,177.254,16.333,120,16.333z M120,207.419c-48.28,0-87.419-39.139-87.419-87.419S71.72,32.581,120,32.581
	S207.419,71.72,207.419,120S168.28,207.419,120,207.419z"/>
<g>
	<path style="fill:#BDBDBD;" d="M120,219.492c-26.202,0-46.726-43.702-46.726-99.492c0-55.791,20.524-99.493,46.726-99.493
		c26.202,0,46.727,43.702,46.727,99.493C166.727,175.79,146.202,219.492,120,219.492z M120,28.507
		c-20.992,0-38.726,41.898-38.726,91.493c0,49.594,17.734,91.492,38.726,91.492c20.992,0,38.727-41.898,38.727-91.492
		C158.727,70.406,140.992,28.507,120,28.507z"/>
</g>
<g>
	<path style="fill:#BDBDBD;" d="M120,149.143c-48.306,0-97.208-10.011-97.208-29.143c0-8.817,10.463-16.301,30.258-21.64
		c17.935-4.838,41.711-7.502,66.95-7.502c48.307,0,97.208,10.01,97.208,29.142c0,8.817-10.463,16.301-30.258,21.641
		C169.015,146.479,145.238,149.143,120,149.143z M120,98.858c-24.555,0-47.592,2.566-64.866,7.226
		C37.167,110.93,30.792,116.609,30.792,120c0,8.62,34.752,21.143,89.208,21.143c24.555,0,47.592-2.566,64.866-7.227
		c17.967-4.846,24.342-10.525,24.342-13.916C209.208,111.38,174.456,98.858,120,98.858z"/>
</g>
</svg>
