<?xml version="1.0" encoding="utf-8"?>
<!-- Generator: Adobe Illustrator 19.2.1, SVG Export Plug-In . SVG Version: 6.00 Build 0)  -->
<svg version="1.1" id="Layer_1" xmlns="http://www.w3.org/2000/svg" xmlns:xlink="http://www.w3.org/1999/xlink" x="0px" y="0px"
	 viewBox="0 0 240 240" enable-background="new 0 0 240 240" xml:space="preserve">
<g>
	<g>
		<path fill-rule="evenodd" clip-rule="evenodd" fill="#BDBDBD" d="M89.4,224C48.9,224,16,191.1,16,150.6s32.9-73.4,73.4-73.4
			c40.5,0,73.4,32.9,73.4,73.4S129.8,224,89.4,224z"/>
		<path fill="#1D1D1D" d="M89.4,81.2c38.3,0,69.4,31.1,69.4,69.4S127.6,220,89.4,220S20,188.9,20,150.6S51.1,81.2,89.4,81.2
			 M89.4,73.2c-42.7,0-77.4,34.6-77.4,77.4S46.6,228,89.4,228s77.4-34.6,77.4-77.4S132.1,73.2,89.4,73.2L89.4,73.2z"/>
	</g>
	<g>
		<g>
			<g>
				<rect x="46.7" y="108" fill-rule="evenodd" clip-rule="evenodd" fill="#BDBDBD" width="85.3" height="85.3"/>
				<path fill="#1D1D1D" d="M128,112v77.3H50.7V112H128 M136,104H42.7v93.3H136V104L136,104z"/>
			</g>
		</g>
		<g>
			<path fill-rule="evenodd" clip-rule="evenodd" fill="#1D1D1D" d="M47.1,136.5h28.2v28.2H47.1V136.5z"/>
			<path fill-rule="evenodd" clip-rule="evenodd" fill="#1D1D1D" d="M75.3,108.4h28.2v28.2H75.3V108.4z"/>
			<path fill-rule="evenodd" clip-rule="evenodd" fill="#1D1D1D" d="M75.3,164.7h28.2v28.2H75.3V164.7z"/>
			<path fill-rule="evenodd" clip-rule="evenodd" fill="#1D1D1D" d="M103.5,136.5h28.2v28.2h-28.2V136.5z"/>
		</g>
	</g>
</g>
<g>
	<g>
		<path fill-rule="evenodd" clip-rule="evenodd" fill="#BDBDBD" d="M150.6,162.8c-40.5,0-73.4-32.9-73.4-73.4
			c0-40.5,32.9-73.4,73.4-73.4S224,48.9,224,89.4C224,129.8,191.1,162.8,150.6,162.8z"/>
		<path fill="#1D1D1D" d="M150.6,20c38.3,0,69.4,31.1,69.4,69.4s-31.1,69.4-69.4,69.4s-69.4-31.1-69.4-69.4S112.4,20,150.6,20
			 M150.6,12c-42.7,0-77.4,34.6-77.4,77.4s34.6,77.4,77.4,77.4S228,132.1,228,89.4S193.4,12,150.6,12L150.6,12z"/>
	</g>
	<g>
		<g>
			<g>
				<rect x="108" y="46.7" fill-rule="evenodd" clip-rule="evenodd" fill="#BDBDBD" width="85.3" height="85.3"/>
				<path fill="#1D1D1D" d="M189.3,50.7V128H112V50.7H189.3 M197.3,42.7H104V136h93.3V42.7L197.3,42.7z"/>
			</g>
		</g>
		<g>
			<path fill-rule="evenodd" clip-rule="evenodd" fill="#1D1D1D" d="M108.4,75.3h28.2v28.2h-28.2V75.3z"/>
			<path fill-rule="evenodd" clip-rule="evenodd" fill="#1D1D1D" d="M136.5,47.1h28.2v28.2h-28.2V47.1z"/>
			<path fill-rule="evenodd" clip-rule="evenodd" fill="#1D1D1D" d="M136.5,103.5h28.2v28.2h-28.2V103.5z"/>
			<path fill-rule="evenodd" clip-rule="evenodd" fill="#1D1D1D" d="M164.7,75.3h28.2v28.2h-28.2V75.3z"/>
		</g>
	</g>
</g>
<rect fill-rule="evenodd" clip-rule="evenodd" fill="none" width="240" height="240"/>
<rect fill-rule="evenodd" clip-rule="evenodd" fill="none" width="240" height="240"/>
</svg>
