<?xml version="1.0" encoding="utf-8"?>
<!-- Generator: Adobe Illustrator 19.2.1, SVG Export Plug-In . SVG Version: 6.00 Build 0)  -->
<svg version="1.1" id="Layer_1" xmlns="http://www.w3.org/2000/svg" xmlns:xlink="http://www.w3.org/1999/xlink" x="0px" y="0px"
	 viewBox="0 0 240 240" enable-background="new 0 0 240 240" xml:space="preserve">
<g>
	<path fill="#1D1D1D" d="M96.7,24.2l122.9,52v91.7l-76.4,47.9l-122.9-52V72.1L96.7,24.2 M174.2,99.9l32.5-20.5l-106-44.9v34.1
		L174.2,99.9 M64.8,86.7l28-17.6V36.1L33.4,73.3L64.8,86.7 M142.7,119.8l23.3-14.7l-65.3-27.8V102L142.7,119.8 M92.7,98.6V78.5
		l-19,12L92.7,98.6 M28.4,109.7l28.2-17.8l-28.2-12V109.7 M211.6,115.8V85.8l-28.5,17.9L211.6,115.8 M64.7,130.4l28-17.7v-5.4
		L65.5,95.7l-33.2,20.9L64.7,130.4 M174.3,143.6l33.1-20.9l-32.4-13.8L147,126.5v5.5L174.3,143.6 M139,128.6V127l-38.3-16.3v1.6
		L139,128.6 M139,162v-24.7l-42-17.9l-23.4,14.8L139,162 M28.4,153.3l28.1-17.7l-28.1-12V153.3 M211.6,159.5v-30l-28.4,17.9
		L211.6,159.5 M139,205.4v-34.7l-73.6-31.3l-33,20.8L139,205.4 M147,160.8l19-12l-19-8.1V160.8 M147,204l60.2-37.7L175,152.6
		l-28,17.6V204 M96,15.2l-3.5,2.2L16.1,65.3l-3.7,2.4v4.4v91.7v5.3l4.9,2.1l122.9,52l3.8,1.6l3.5-2.2l76.4-47.9l3.7-2.4v-4.4V76.2
		v-5.3l-4.9-2.1l-122.9-52L96,15.2L96,15.2z M108.7,63.4V46.6l80.8,34.2l-16,10.1L108.7,63.4L108.7,63.4z M50.6,72l34.1-21.4v14.1
		l-20.7,13L50.6,72L50.6,72z M108.7,96.7v-7.3l40.1,17.1l-6.9,4.3L108.7,96.7L108.7,96.7z M36.4,95.2V92l3,1.3L36.4,95.2L36.4,95.2z
		 M200.4,102.4l3.3-2.1v3.5L200.4,102.4L200.4,102.4z M49.5,115.2l16.7-10.5l14.5,6.2L64,121.4L49.5,115.2L49.5,115.2z M159,128.4
		l16.6-10.5l14.5,6.2l-16.6,10.5L159,128.4L159,128.4z M90.9,132.8l6.9-4.4l33.2,14.1v7.3L90.9,132.8L90.9,132.8z M36.4,138.8v-3.1
		l2.9,1.2L36.4,138.8L36.4,138.8z M200.4,146l3.2-2v3.4L200.4,146L200.4,146z M49.6,158.8l16.5-10.4L131,176v17.3L49.6,158.8
		L49.6,158.8z M155,174.7l20.7-13.1l14.2,6.1L155,189.6V174.7L155,174.7z"/>
</g>
<path fill="#AE9CDB" d="M96.7,24.2L20.4,72.1v91.7l122.9,52l76.4-47.9V76.2L96.7,24.2z M92.7,98.6l-19-8.1l19-12V98.6z M92.7,107.3
	v5.4l-28,17.7l-32.4-13.8l33.2-20.9L92.7,107.3z M139,128.6l-38.3-16.3v-1.6L139,127V128.6z M97.1,119.4l42,17.9V162l-65.4-27.8
	L97.1,119.4z M147,140.7l19,8.1l-19,12V140.7z M147,132v-5.5l27.9-17.6l32.4,13.8l-33.1,20.9L147,132z M142.7,119.8L100.7,102V77.3
	l65.3,27.8L142.7,119.8z M100.7,68.6V34.5l106,44.9l-32.5,20.5L100.7,68.6z M92.7,69.1l-28,17.6L33.4,73.3l59.3-37.2V69.1z
	 M56.6,91.9l-28.2,17.8V79.9L56.6,91.9z M56.5,135.6l-28.1,17.7v-29.7L56.5,135.6z M65.4,139.4l73.6,31.3v34.7L32.4,160.2
	L65.4,139.4z M147,170.3l28-17.6l32.2,13.7L147,204V170.3z M183.2,147.4l28.4-17.9v30L183.2,147.4z M183.2,103.7l28.5-17.9v30.1
	L183.2,103.7z"/>
<rect fill-rule="evenodd" clip-rule="evenodd" fill="none" width="240" height="240"/>
<rect fill-rule="evenodd" clip-rule="evenodd" fill="none" width="240" height="240"/>
</svg>
