<?xml version="1.0" encoding="utf-8"?>
<!-- Generator: Adobe Illustrator 19.2.1, SVG Export Plug-In . SVG Version: 6.00 Build 0)  -->
<svg version="1.1" id="Layer_1" xmlns="http://www.w3.org/2000/svg" xmlns:xlink="http://www.w3.org/1999/xlink" x="0px" y="0px"
	 viewBox="0 0 240 240" enable-background="new 0 0 240 240" xml:space="preserve">
<g>
	<path fill-rule="evenodd" clip-rule="evenodd" fill="#BDBDBD" d="M22.3,51.3c-3.9-3.9-6-9-6-14.4c0-5.5,2.1-10.6,6-14.5
		c3.9-3.9,9-6,14.5-6s10.6,2.1,14.5,6l66,66l-28.8,29L22.3,51.3z"/>
	<path fill="#1D1D1D" d="M36.7,20.4c4.2,0,8.4,1.6,11.6,4.8l63.2,63.2l-23.2,23.3L25.1,48.5c-6.4-6.4-6.4-16.8,0-23.2
		C28.3,22,32.5,20.4,36.7,20.4 M36.7,12.4L36.7,12.4c-6.5,0-12.7,2.5-17.3,7.2c-4.6,4.6-7.2,10.8-7.2,17.3c0,6.5,2.5,12.7,7.2,17.3
		l63.2,63.2l5.7,5.7l5.7-5.7L117.2,94l5.6-5.7l-5.6-5.6L54,19.6C49.4,14.9,43.3,12.4,36.7,12.4L36.7,12.4z"/>
</g>
<g>
	<path fill-rule="evenodd" clip-rule="evenodd" fill="#BFB23A" d="M135.9,160.1c-13.2,0-23.9-10.8-23.9-24c0-13.2,10.7-24,23.9-24
		s23.9,10.8,23.9,24C159.8,149.3,149.1,160.1,135.9,160.1z"/>
	<path fill="#1D1D1D" d="M135.9,116c11,0,19.9,9,19.9,20c0,11.1-8.9,20-19.9,20c-11,0-19.9-9-19.9-20C116,125,124.9,116,135.9,116
		 M135.9,108c-15.4,0-27.9,12.6-27.9,28c0,15.5,12.5,28,27.9,28c15.4,0,27.9-12.6,27.9-28C163.8,120.6,151.3,108,135.9,108
		L135.9,108z"/>
</g>
<g>
	<path fill-rule="evenodd" clip-rule="evenodd" fill="#BDBDBD" d="M92.5,166.6c-17.6-21.1-16.2-51.6,3.1-70.9
		c9.9-9.9,23-15.3,37-15.3c12.3,0,24.4,4.4,33.9,12.3l3.4,2.8L95.3,170L92.5,166.6z"/>
	<path fill="#1D1D1D" d="M132.5,84.3c11.1,0,22.3,3.8,31.3,11.4l-68.3,68.4c-15.9-19.2-15.2-47.6,2.8-65.6
		C107.8,89,120.2,84.3,132.5,84.3 M132.5,76.3L132.5,76.3c-15,0-29.2,5.9-39.8,16.5c-10.1,10.1-15.9,23.5-16.5,37.7
		c-0.5,14.1,4.1,27.8,13.1,38.6l5.6,6.7l6.2-6.2l68.3-68.4l6.2-6.2l-6.7-5.6C158.8,81,145.8,76.3,132.5,76.3L132.5,76.3z"/>
</g>
<rect fill-rule="evenodd" clip-rule="evenodd" fill="none" width="240" height="240"/>
<g>
	<path fill-rule="evenodd" clip-rule="evenodd" fill="#BDBDBD" d="M63.7,211.8c-2.2,0-4-1.8-4-4v-8c0-2.2,1.8-4,4-4h156
		c2.2,0,4,1.8,4,4v8c0,2.2-1.8,4-4,4H63.7z"/>
	<path fill="#1D1D1D" d="M219.8,199.8v8h-156v-8H219.8 M219.8,191.8h-156c-4.4,0-8,3.6-8,8v8c0,4.4,3.6,8,8,8h156c4.4,0,8-3.6,8-8
		v-8C227.8,195.4,224.2,191.8,219.8,191.8L219.8,191.8z"/>
</g>
<g>
	<rect x="50.1" y="184.1" fill-rule="evenodd" clip-rule="evenodd" fill="#BFB23A" width="39.4" height="39.4"/>
	<g>
		<path fill="#1D1D1D" d="M85.5,188.1v31.4H54.1v-31.4H85.5 M93.5,180.1h-8H54.1h-8v8v31.4v8h8h31.4h8v-8v-31.4V180.1L93.5,180.1z"
			/>
	</g>
</g>
<g>
	<rect x="63.8" y="197.9" fill-rule="evenodd" clip-rule="evenodd" fill="#1D1D1D" width="11.9" height="11.9"/>
</g>
<g>
	<path fill-rule="evenodd" clip-rule="evenodd" fill="#BDBDBD" d="M200,223.6c-2.2,0-4-1.8-4-4v-156c0-2.2,1.8-4,4-4h8
		c2.2,0,4,1.8,4,4v156c0,2.2-1.8,4-4,4H200z"/>
	<path fill="#1D1D1D" d="M208,63.6v156h-8v-156H208 M208,55.6h-8c-4.4,0-8,3.6-8,8v156c0,4.4,3.6,8,8,8h8c4.4,0,8-3.6,8-8v-156
		C216,59.1,212.4,55.6,208,55.6L208,55.6z"/>
</g>
<g>
	<rect x="184.3" y="184.1" fill-rule="evenodd" clip-rule="evenodd" fill="#BFB23A" width="39.4" height="39.4"/>
	<g>
		<path fill="#1D1D1D" d="M219.8,188.1v31.4h-31.4v-31.4H219.8 M227.8,180.1h-8h-31.4h-8v8v31.4v8h8h31.4h8v-8v-31.4V180.1
			L227.8,180.1z"/>
	</g>
</g>
<g>
	<rect x="198.1" y="197.9" fill-rule="evenodd" clip-rule="evenodd" fill="#1D1D1D" width="11.9" height="11.9"/>
</g>
<g>
	<rect x="184.3" y="59.6" fill-rule="evenodd" clip-rule="evenodd" fill="#BFB23A" width="39.4" height="39.4"/>
	<g>
		<path fill="#1D1D1D" d="M219.8,63.6V95h-31.4V63.6H219.8 M227.8,55.6h-8h-31.4h-8v8V95v8h8h31.4h8v-8V63.6V55.6L227.8,55.6z"/>
	</g>
</g>
<g>
	<rect x="198.1" y="73.3" fill-rule="evenodd" clip-rule="evenodd" fill="#1D1D1D" width="11.9" height="11.9"/>
</g>
</svg>
