<?xml version="1.0" encoding="iso-8859-1"?>
<!-- Generator: Adobe Illustrator 19.2.1, SVG Export Plug-In . SVG Version: 6.00 Build 0)  -->
<svg version="1.1" id="Layer_1" xmlns="http://www.w3.org/2000/svg" xmlns:xlink="http://www.w3.org/1999/xlink" x="0px" y="0px"
	 viewBox="0 0 240 240" style="enable-background:new 0 0 240 240;" xml:space="preserve">
<g>
	<g>
		<g>
			<g>
				<path style="fill-rule:evenodd;clip-rule:evenodd;fill:#48AAB5;" d="M148.409,113.297c0-26.427-20.48-49.301-45.743-49.301
					c-25.261,0-45.741,22.874-45.741,49.301c0,41.085,22.925,49.265,22.925,82.134l-0.028,13.262L93.564,224h18.282l13.759-15.307
					l-0.045-13.262C125.561,162.563,148.409,154.382,148.409,113.297z"/>
			</g>
			<g>
				<path style="fill:none;stroke:#1D1D1D;stroke-width:8;stroke-miterlimit:10;" d="M148.409,113.297
					c0-26.427-20.48-49.301-45.743-49.301c-25.261,0-45.741,22.874-45.741,49.301c0,41.085,22.925,49.265,22.925,82.134
					l-0.028,13.262L93.564,224h18.282l13.759-15.307l-0.045-13.262C125.561,162.563,148.409,154.382,148.409,113.297z"/>
			</g>
		</g>
		
			<line style="fill-rule:evenodd;clip-rule:evenodd;fill:#48AAB5;stroke:#1D1D1D;stroke-width:8;stroke-miterlimit:10;" x1="79.85" y1="189.431" x2="125.561" y2="189.431"/>
	</g>
	<g>
		<rect x="94.667" y="22.558" style="fill-rule:evenodd;clip-rule:evenodd;fill:#48AAB5;" width="16" height="37.367"/>
		<path style="fill:#1D1D1D;" d="M106.667,26.558v29.367h-8V26.558H106.667 M114.667,18.558h-8h-8h-8v8v29.367v8h8h8h8v-8V26.558
			V18.558L114.667,18.558z"/>
	</g>
	<g>
		<rect x="150.776" y="100.684" style="fill-rule:evenodd;clip-rule:evenodd;fill:#48AAB5;" width="37.366" height="16"/>
		<path style="fill:#1D1D1D;" d="M184.143,104.683v8h-29.367v-8H184.143 M192.143,96.683h-8h-29.367h-8v8v8v8h8h29.367h8v-8v-8
			V96.683L192.143,96.683z"/>
	</g>
	<g>
		<rect x="16.776" y="100.684" style="fill-rule:evenodd;clip-rule:evenodd;fill:#48AAB5;" width="37.367" height="16"/>
		<path style="fill:#1D1D1D;" d="M50.143,104.683v8H20.776v-8H50.143 M58.143,96.683h-8H20.776h-8v8v8v8h8h29.367h8v-8v-8V96.683
			L58.143,96.683z"/>
	</g>
	<g>
		
			<rect x="134.045" y="56.044" transform="matrix(0.7071 -0.7071 0.7071 0.7071 -0.5535 126.7521)" style="fill-rule:evenodd;clip-rule:evenodd;fill:#48AAB5;" width="37.367" height="16"/>
		<path style="fill:#1D1D1D;" d="M160.283,50.833l5.657,5.657l-20.765,20.765l-5.657-5.657L160.283,50.833 M160.283,39.519
			l-5.657,5.657l-20.765,20.765l-5.657,5.657l5.657,5.657l5.657,5.657l5.657,5.657l5.657-5.657l20.765-20.765l5.657-5.657
			l-5.657-5.657l-5.657-5.657L160.283,39.519L160.283,39.519z"/>
	</g>
	<g>
		
			<rect x="46.815" y="45.386" transform="matrix(0.7071 -0.7071 0.7071 0.7071 -29.2488 57.5254)" style="fill-rule:evenodd;clip-rule:evenodd;fill:#48AAB5;" width="16" height="37.367"/>
		<path style="fill:#1D1D1D;" d="M47.261,50.858l20.765,20.765l-5.657,5.657L41.604,56.515L47.261,50.858 M47.261,39.544
			l-5.657,5.657l-5.657,5.657l-5.657,5.657l5.657,5.657l20.765,20.765l5.657,5.657l5.657-5.657l5.657-5.657l5.657-5.657
			l-5.657-5.657L52.917,45.201L47.261,39.544L47.261,39.544z"/>
	</g>
</g>
<g>
	<path style="fill-rule:evenodd;clip-rule:evenodd;fill:#BDBDBD;stroke:#1D1D1D;stroke-width:8;stroke-miterlimit:10;" d="
		M175.497,15.292c26.931,0,48.761,21.832,48.761,48.762s-21.83,48.761-48.761,48.761s-48.763-21.831-48.763-48.761
		S148.566,15.292,175.497,15.292z"/>
	<g>
		<rect x="170.661" y="30.659" style="fill-rule:evenodd;clip-rule:evenodd;fill:#1D1D1D;" width="11.707" height="11.781"/>
		<rect x="158.876" y="48.326" style="fill-rule:evenodd;clip-rule:evenodd;fill:#1D1D1D;" width="23.492" height="11.781"/>
		<rect x="158.876" y="83.667" style="fill-rule:evenodd;clip-rule:evenodd;fill:#1D1D1D;" width="35.24" height="11.781"/>
		<rect x="170.661" y="48.326" style="fill-rule:evenodd;clip-rule:evenodd;fill:#1D1D1D;" width="11.707" height="47.122"/>
	</g>
</g>
<rect style="fill-rule:evenodd;clip-rule:evenodd;fill:none;" width="240" height="240"/>
</svg>
