<?xml version="1.0" encoding="iso-8859-1"?>
<!-- Generator: Adobe Illustrator 19.2.1, SVG Export Plug-In . SVG Version: 6.00 Build 0)  -->
<svg version="1.1" id="Layer_1" xmlns="http://www.w3.org/2000/svg" xmlns:xlink="http://www.w3.org/1999/xlink" x="0px" y="0px"
	 viewBox="0 0 240 240" style="enable-background:new 0 0 240 240;" xml:space="preserve">
<g>
	<polygon style="fill:#BDBDBD;" points="115.94,136.628 80.831,136.629 80.827,103.371 115.94,103.371 115.94,77.317 158.624,120 
		115.941,162.683 	"/>
	<path style="fill:#1D1D1D;" d="M119.94,86.974L152.967,120l-33.026,33.026l0-20.398l-35.111,0.001l-0.003-25.258l35.113,0
		L119.94,86.974 M111.94,67.66l0,19.314l0,12.397l-27.113,0l-8.001,0l0.001,8.001l0.003,25.258l0.001,7.999l7.999,0l27.11-0.001
		l0,12.398l0,19.313l13.657-13.657l33.026-33.026L164.28,120l-5.657-5.657l-33.026-33.026L111.94,67.66L111.94,67.66z"/>
</g>
<g>
	<g>
		<path style="fill:#48AAB5;" d="M59,79.325l-0.83-2.899c-0.381-1.333-0.65-2.399-0.821-3.259c-0.345-1.783-0.532-3.608-0.56-5.444
			l-0.074-5.097c-0.045-3.293-0.641-4.208-0.679-4.262c0,0,0,0,0,0c-0.021,0-0.831-0.537-3.66-0.537h-7.189v21.499H25.991V16.5
			h30.223c4.39,0.087,7.71,0.655,10.229,1.738c2.595,1.116,4.825,2.781,6.628,4.947c1.419,1.7,2.562,3.613,3.393,5.681
			c0.866,2.154,1.305,4.595,1.305,7.255c0,3.244-0.816,6.451-2.426,9.533c-0.729,1.396-1.646,2.627-2.747,3.69
			c0.598,0.668,1.115,1.39,1.552,2.165c1.411,2.508,2.096,5.954,2.096,10.537v3.683c0,3.152,0.17,4.062,0.204,4.213
			c0.102,0.474,0.211,0.54,0.283,0.583l1.931,1.167v7.632H59z M53.515,40.751c2.554,0,3.525-0.375,3.762-0.491
			c0.335-0.161,0.999-0.48,0.999-2.576c0-1.729-0.355-2.8-1.056-3.181c-0.155-0.085-0.999-0.481-3.387-0.481h-8.647v6.729H53.515z"
			/>
		<path style="fill:#1D1D1D;" d="M56.215,20.5c3.747,0.074,6.631,0.546,8.649,1.413c2.019,0.868,3.73,2.145,5.133,3.831
			c1.16,1.389,2.079,2.927,2.755,4.612c0.678,1.686,1.017,3.608,1.017,5.765c0,2.604-0.657,5.164-1.972,7.681
			c-1.315,2.517-3.484,4.296-6.509,5.338c2.53,1.017,4.32,2.461,5.375,4.333c1.053,1.873,1.581,4.73,1.581,8.573v3.683
			c0,2.505,0.1,4.203,0.302,5.095c0.302,1.413,1.007,2.455,2.115,3.125v1.376H62.016c-0.348-1.215-0.596-2.195-0.744-2.938
			c-0.298-1.537-0.46-3.112-0.484-4.724l-0.074-5.096c-0.047-3.496-0.651-5.827-1.812-6.993c-1.161-1.165-3.337-1.748-6.526-1.748
			H41.187v21.498H29.991V20.5H56.215 M41.187,44.751h12.329c2.449,0,4.286-0.298,5.511-0.893c2.166-1.041,3.25-3.099,3.25-6.174
			c0-3.323-1.048-5.554-3.144-6.695c-1.177-0.645-2.943-0.967-5.298-0.967H41.187V44.751 M56.294,12.5h-0.08H29.991h-8v8v54.825v8h8
			h11.195h8v-8V61.826h3.189c0.109,0,0.213,0.001,0.311,0.003c0.014,0.25,0.024,0.531,0.028,0.846l0.075,5.104
			c0.031,2.072,0.242,4.133,0.629,6.129c0.2,1.004,0.493,2.174,0.906,3.617l1.659,5.8h6.032h12.646h8v-8v-1.376v-4.513l-2.377-1.436
			c-0.023-0.528-0.041-1.265-0.041-2.271v-3.683c0-5.283-0.852-9.368-2.604-12.487c0.457-0.652,0.874-1.337,1.248-2.053
			c1.911-3.659,2.881-7.489,2.881-11.384c0-3.174-0.536-6.117-1.594-8.748c-0.985-2.455-2.345-4.73-4.038-6.758
			c-2.201-2.645-4.934-4.685-8.113-6.052c-3.004-1.292-6.815-1.966-11.651-2.062L56.294,12.5L56.294,12.5z"/>
	</g>
	<g>
		<path style="fill:#48AAB5;" d="M50.076,152.576c-8.396,0-15.392-2.973-20.794-8.835c-5.498-5.746-8.312-13.655-8.312-23.452
			c0-9.86,2.817-17.946,8.373-24.033c5.649-6.192,13.163-9.332,22.332-9.332c7.898,0,14.411,2.096,19.358,6.231
			c5.02,4.196,7.939,9.521,8.679,15.826l0.523,4.466H61.292l-0.718-3.097c-0.58-2.502-1.876-4.12-4.079-5.092
			c-1.348-0.585-2.927-0.887-4.671-0.887c-3.258,0-5.748,1.141-7.835,3.589c-2.192,2.569-3.303,6.748-3.303,12.42
			c0,5.527,1.111,9.34,3.303,11.333c2.333,2.122,4.883,3.153,7.798,3.153c2.848,0,5.064-0.747,6.774-2.283
			c0.571-0.513,1.069-1.076,1.496-1.693H49.089v-17.149h30.837v37.42h-14.97l-0.46-2.729c-0.403,0.29-0.802,0.554-1.196,0.792
			C59.672,151.444,55.216,152.576,50.076,152.576z"/>
		<path style="fill:#1D1D1D;" d="M51.675,90.925c6.968,0,12.565,1.767,16.794,5.3c4.228,3.534,6.652,7.941,7.271,13.222H64.47
			c-0.868-3.743-2.989-6.36-6.36-7.848c-1.884-0.818-3.979-1.227-6.286-1.227c-4.414,0-8.041,1.664-10.879,4.993
			c-2.84,3.329-4.259,8.334-4.259,15.016c0,6.733,1.537,11.495,4.612,14.293c3.075,2.796,6.571,4.194,10.49,4.194
			c3.842,0,6.992-1.102,9.447-3.308c2.454-2.205,3.966-5.094,4.537-8.669H53.089v-9.149h22.837v29.42h-7.587l-1.153-6.844
			c-2.207,2.592-4.191,4.42-5.951,5.481c-3.025,1.851-6.746,2.777-11.159,2.777c-7.266,0-13.217-2.516-17.853-7.546
			c-4.835-5.054-7.253-11.968-7.253-20.741c0-8.871,2.441-15.983,7.327-21.336C37.181,93.601,43.641,90.925,51.675,90.925
			 M51.675,82.925c-10.34,0-18.848,3.579-25.287,10.637c-6.249,6.846-9.417,15.839-9.417,26.728c0,10.832,3.169,19.652,9.42,26.216
			c6.184,6.683,14.152,10.071,23.685,10.071c4.185,0,8.001-0.672,11.398-2.002l0.099,0.588h6.765h7.587h8v-8v-29.42v-0.295h0.808
			l-0.808-6.885v-0.82h-0.096l-0.144-1.227c-0.863-7.355-4.256-13.556-10.086-18.429C67.912,85.334,60.536,82.925,51.675,82.925
			L51.675,82.925z M47.829,109.742c1.102-0.963,2.326-1.37,3.995-1.37c1.21,0,2.224,0.185,3.1,0.565
			c0.46,0.203,0.825,0.429,1.117,0.805h-2.952H47.829L47.829,109.742z M45.089,125.101c-0.262-1.333-0.403-2.934-0.403-4.72
			c0-1.898,0.136-3.588,0.403-5.047v2.408V125.101L45.089,125.101z"/>
	</g>
	<g>
		<path style="fill:#48AAB5;" d="M25.917,223v-62.824h30.495c8.032,0.118,13.877,2.632,17.432,7.472
			c2.193,3.046,3.293,6.648,3.293,10.736c0,4.291-1.166,7.868-3.465,10.63c-0.05,0.062-0.102,0.122-0.153,0.182
			c0.995,0.898,1.86,1.917,2.592,3.051c1.842,2.854,2.775,6.287,2.775,10.202c0,4-1.029,7.659-3.059,10.876
			c-1.261,2.082-2.91,3.912-4.864,5.379c-2.191,1.676-4.818,2.851-7.778,3.469c-2.635,0.55-5.516,0.828-8.566,0.828H25.917z
			 M54.162,205.479c2.301,0,3.368-0.353,3.8-0.562c0.424-0.21,1.356-0.672,1.356-3.248c0-1.584-0.502-1.939-1.159-2.24
			c-0.439-0.201-1.523-0.542-3.855-0.567h-9.451v6.618H54.162z M54.177,181.785c1.603,0,2.888-0.267,3.716-0.771
			c0.212-0.13,0.309-0.798,0.309-1.402c0-0.986-0.192-1.218-0.382-1.32c-1.258-0.394-2.953-0.594-5.041-0.594h-7.926v4.088H54.177z"
			/>
		<path style="fill:#1D1D1D;" d="M56.411,164.175c6.685,0.099,11.422,2.046,14.209,5.84c1.677,2.33,2.517,5.12,2.517,8.369
			c0,3.347-0.847,6.038-2.54,8.071c-0.945,1.141-2.34,2.182-4.181,3.125c2.798,1.017,4.909,2.628,6.333,4.835
			c1.424,2.207,2.136,4.885,2.136,8.033c0,3.249-0.814,6.163-2.441,8.741c-1.036,1.711-2.33,3.149-3.882,4.315
			c-1.751,1.338-3.816,2.256-6.195,2.752c-2.379,0.496-4.961,0.744-7.747,0.744H29.917v-54.825H56.411 M40.852,185.785h13.325
			c2.38,0,4.313-0.451,5.798-1.357c1.484-0.906,2.227-2.512,2.227-4.817c0-2.554-0.981-4.241-2.944-5.059
			c-1.693-0.57-3.853-0.856-6.479-0.856H40.852V185.785 M40.852,209.479h13.31c2.378,0,4.229-0.323,5.552-0.967
			c2.403-1.19,3.604-3.472,3.604-6.844c0-2.851-1.165-4.81-3.493-5.877c-1.299-0.596-3.126-0.906-5.478-0.93H40.852V209.479
			 M56.47,156.175h-0.059H29.917h-8v8V219v8h8h24.703c3.324,0,6.481-0.307,9.382-0.912c3.538-0.738,6.698-2.154,9.393-4.208
			c2.334-1.758,4.303-3.939,5.854-6.483c2.413-3.849,3.637-8.205,3.637-12.948c0-4.696-1.148-8.858-3.413-12.369
			c-0.271-0.42-0.557-0.828-0.856-1.222c1.673-2.985,2.52-6.495,2.52-10.473c0-4.945-1.354-9.333-4.024-13.042l-0.023-0.031
			l-0.023-0.031c-4.336-5.902-11.245-8.965-20.537-9.103L56.47,156.175L56.47,156.175z"/>
	</g>
</g>
<g>
	<linearGradient id="SVGID_1_" gradientUnits="userSpaceOnUse" x1="187.667" y1="16.5" x2="187.667" y2="223">
		<stop  offset="0" style="stop-color:#D1D1D1"/>
		<stop  offset="1" style="stop-color:#000000"/>
	</linearGradient>
	<rect x="161.629" y="16.5" style="fill:url(#SVGID_1_);" width="52.076" height="206.5"/>
	<path style="fill:#1D1D1D;" d="M209.705,20.5V219h-44.075V20.5H209.705 M217.705,12.5h-8h-44.075h-8v8V219v8h8h44.075h8v-8V20.5
		V12.5L217.705,12.5z"/>
</g>
<rect style="fill-rule:evenodd;clip-rule:evenodd;fill:none;" width="240" height="240"/>
</svg>
