<?xml version="1.0" encoding="utf-8"?>
<!-- Generator: Adobe Illustrator 19.2.1, SVG Export Plug-In . SVG Version: 6.00 Build 0)  -->
<svg version="1.1" id="Layer_1" xmlns="http://www.w3.org/2000/svg" xmlns:xlink="http://www.w3.org/1999/xlink" x="0px" y="0px"
	 viewBox="0 0 240 240" enable-background="new 0 0 240 240" xml:space="preserve">
<g>
	<defs>
		<circle id="XMLID_108_" cx="120" cy="120" r="103.7"/>
	</defs>
	<use xlink:href="#XMLID_108_"  overflow="visible" fill="#BDBDBD"/>
	<clipPath id="XMLID_2_">
		<use xlink:href="#XMLID_108_"  overflow="visible"/>
	</clipPath>
	<use xlink:href="#XMLID_108_"  overflow="visible" fill="none" stroke="#1D1D1D" stroke-width="8" stroke-miterlimit="10"/>
</g>
<g>
	<rect x="66.2" y="66.1" fill="none" width="54" height="53.8"/>
	<rect x="120.2" y="119.9" fill="none" width="54" height="53.8"/>
	<path fill="#1D1D1D" d="M120.2,16.3c-0.1,0-0.1,0-0.2,0c-19.7,0-38.1,5.5-53.8,15v34.8h54V16.3z"/>
	<path fill="#1D1D1D" d="M174.2,31.6v34.5h34.4C200,52.1,188.2,40.2,174.2,31.6z"/>
	<rect x="120.2" y="66.1" fill="#1D1D1D" width="54" height="53.8"/>
	<path fill="#1D1D1D" d="M31.4,66.1c-9.6,15.7-15.1,34.1-15.1,53.8h49.9V66.1H31.4z"/>
	<rect x="66.2" y="119.9" fill="#1D1D1D" width="54" height="53.8"/>
	<path fill="#1D1D1D" d="M208.7,173.7c9.5-15.7,15-34,15-53.7c0,0,0-0.1,0-0.1h-49.5v53.8H208.7z"/>
	<path fill="#1D1D1D" d="M120.2,223.7c19.8,0,38.3-5.6,54-15.3v-34.7h-54V223.7z"/>
	<path fill="#1D1D1D" d="M66.2,208.7v-35H31.3C40,188,52,200,66.2,208.7z"/>
</g>
<g>
	<path fill-rule="evenodd" clip-rule="evenodd" fill="#BDBDBD" stroke="#1D1D1D" stroke-width="8" stroke-miterlimit="10" d="
		M175.5,15.3c26.9,0,48.8,21.8,48.8,48.8s-21.8,48.8-48.8,48.8S126.7,91,126.7,64.1S148.6,15.3,175.5,15.3z"/>
	<g>
		<rect x="170.7" y="30.7" fill-rule="evenodd" clip-rule="evenodd" fill="#1D1D1D" width="11.7" height="11.8"/>
		<rect x="158.9" y="48.3" fill-rule="evenodd" clip-rule="evenodd" fill="#1D1D1D" width="23.5" height="11.8"/>
		<rect x="158.9" y="83.7" fill-rule="evenodd" clip-rule="evenodd" fill="#1D1D1D" width="35.2" height="11.8"/>
		<rect x="170.7" y="48.3" fill-rule="evenodd" clip-rule="evenodd" fill="#1D1D1D" width="11.7" height="47.1"/>
	</g>
</g>
<rect fill-rule="evenodd" clip-rule="evenodd" fill="none" width="240" height="240"/>
</svg>
