<?xml version="1.0" encoding="utf-8"?>
<!-- Generator: Adobe Illustrator 22.0.0, SVG Export Plug-In . SVG Version: 6.00 Build 0)  -->
<svg version="1.1" id="Layer_1" xmlns="http://www.w3.org/2000/svg" xmlns:xlink="http://www.w3.org/1999/xlink" x="0px" y="0px"
	 viewBox="0 0 240 240" style="enable-background:new 0 0 240 240;" xml:space="preserve">
<style type="text/css">
	.st0{fill:#BDBDBD;}
	.st1{fill:#1D1D1D;}
	.st2{fill:none;stroke:#1D1D1D;stroke-width:8;stroke-miterlimit:10;}
</style>
<g>
	<g>
		<polygon class="st0" points="20.7,120 120,51.6 219.3,120 119.9,188.4 		"/>
	</g>
	<g>
		<path class="st1" d="M120,56.4l92.2,63.5l-92.3,63.6L27.8,120L120,56.4 M120,46.7l-4.5,3.1l-92.2,63.5l-9.6,6.6l9.6,6.6l92.2,63.6
			l4.5,3.1l4.5-3.1l92.3-63.6l9.6-6.6l-9.6-6.6l-92.2-63.5L120,46.7L120,46.7z"/>
	</g>
</g>
<g>
	<path class="st1" d="M120,56.4l92.2,63.5l-92.3,63.6L27.8,120L120,56.4 M120,46.7l-4.5,3.1l-92.2,63.5l-9.6,6.6l9.6,6.6l92.2,63.6
		l4.5,3.1l4.5-3.1l92.3-63.6l9.6-6.6l-9.6-6.6l-92.2-63.5L120,46.7L120,46.7z"/>
</g>
<g>
	<line class="st2" x1="71" y1="85.9" x2="169" y2="154.1"/>
	<line class="st2" x1="169.3" y1="86.3" x2="70.7" y2="153.7"/>
</g>
</svg>
