<?xml version="1.0" encoding="iso-8859-1"?>
<!-- Generator: Adobe Illustrator 19.2.1, SVG Export Plug-In . SVG Version: 6.00 Build 0)  -->
<svg version="1.1" id="Layer_1" xmlns="http://www.w3.org/2000/svg" xmlns:xlink="http://www.w3.org/1999/xlink" x="0px" y="0px"
	 viewBox="0 0 240 240" style="enable-background:new 0 0 240 240;" xml:space="preserve">
<rect x="56.678" y="56.678" transform="matrix(0.7071 0.7071 -0.7071 0.7071 120 -49.7056)" style="fill:#BDBDBD;stroke:#1D1D1D;stroke-width:8;stroke-linecap:round;stroke-miterlimit:10;" width="126.644" height="126.644"/>
<g>
	<g>
		<rect x="100.277" y="16.335" style="fill-rule:evenodd;clip-rule:evenodd;fill:#48AAB5;" width="39.446" height="39.446"/>
		<path style="fill:#1D1D1D;" d="M135.723,20.336v31.446h-31.446V20.336H135.723 M143.723,12.336h-8h-31.446h-8v8v31.446v8h8h31.446
			h8v-8V20.336V12.336L143.723,12.336z"/>
	</g>
	<g>
		<rect x="114.034" y="30.092" style="fill-rule:evenodd;clip-rule:evenodd;fill:#1D1D1D;" width="11.932" height="11.932"/>
	</g>
</g>
<rect style="fill-rule:evenodd;clip-rule:evenodd;fill:none;" width="240" height="240"/>
<g>
	<g>
		<rect x="100.277" y="184.554" style="fill-rule:evenodd;clip-rule:evenodd;fill:#48AAB5;" width="39.446" height="39.446"/>
		<path style="fill:#1D1D1D;" d="M135.723,188.554V220h-31.446v-31.446H135.723 M143.723,180.554h-8h-31.446h-8v8V220v8h8h31.446h8
			v-8v-31.446V180.554L143.723,180.554z"/>
	</g>
	<g>
		<rect x="114.034" y="198.311" style="fill-rule:evenodd;clip-rule:evenodd;fill:#1D1D1D;" width="11.932" height="11.932"/>
	</g>
</g>
<g>
	<g>
		<rect x="15.7" y="100.527" style="fill-rule:evenodd;clip-rule:evenodd;fill:#48AAB5;" width="39.446" height="39.446"/>
		<path style="fill:#1D1D1D;" d="M51.146,104.527v31.446H19.7v-31.446H51.146 M59.146,96.527h-8H19.7h-8v8v31.446v8h8h31.446h8v-8
			v-31.446V96.527L59.146,96.527z"/>
	</g>
	<g>
		<rect x="29.457" y="114.284" style="fill-rule:evenodd;clip-rule:evenodd;fill:#1D1D1D;" width="11.932" height="11.932"/>
	</g>
</g>
<g>
	<g>
		<rect x="184.554" y="100.527" style="fill-rule:evenodd;clip-rule:evenodd;fill:#48AAB5;" width="39.446" height="39.446"/>
		<path style="fill:#1D1D1D;" d="M220,104.527v31.446h-31.446v-31.446H220 M228,96.527h-8h-31.446h-8v8v31.446v8h8H220h8v-8v-31.446
			V96.527L228,96.527z"/>
	</g>
	<g>
		<rect x="198.311" y="114.284" style="fill-rule:evenodd;clip-rule:evenodd;fill:#1D1D1D;" width="11.932" height="11.932"/>
	</g>
</g>
</svg>
