<?xml version="1.0" encoding="iso-8859-1"?>
<!-- Generator: Adobe Illustrator 19.2.1, SVG Export Plug-In . SVG Version: 6.00 Build 0)  -->
<svg version="1.1" id="Layer_1" xmlns="http://www.w3.org/2000/svg" xmlns:xlink="http://www.w3.org/1999/xlink" x="0px" y="0px"
	 viewBox="0 0 240 240" style="enable-background:new 0 0 240 240;" xml:space="preserve">
<g>
	<polygon style="fill-rule:evenodd;clip-rule:evenodd;fill:#BDBDBD;" points="20.151,147.448 120.071,78.753 219.99,147.448 
		120.073,216.146 	"/>
	<path style="fill:#1D1D1D;" d="M120.071,83.608l92.859,63.841l-92.857,63.843l-92.861-63.843L120.071,83.608 M120.071,73.899
		L13.091,147.449L120.073,221l106.978-73.551L120.071,73.899L120.071,73.899z"/>
</g>
<g>
	<g>
		<path style="fill-rule:evenodd;clip-rule:evenodd;fill:#1D1D1D;" d="M56.39,138.877c-3.031,0-5.487,2.424-5.487,5.415
			s2.455,5.416,5.487,5.416c3.031,0,5.488-2.425,5.488-5.416S59.421,138.877,56.39,138.877z M72.854,128.046
			c-3.031,0-5.489,2.424-5.489,5.415s2.458,5.416,5.489,5.416c3.031,0,5.487-2.426,5.487-5.416S75.884,128.046,72.854,128.046z
			 M89.318,128.046c3.029,0,5.487-2.425,5.487-5.416s-2.458-5.415-5.487-5.415c-3.031,0-5.489,2.424-5.489,5.415
			S86.287,128.046,89.318,128.046z M105.78,117.215c3.031,0,5.489-2.425,5.489-5.416s-2.458-5.415-5.489-5.415
			c-3.031,0-5.487,2.424-5.487,5.415S102.749,117.215,105.78,117.215z M122.244,106.384c3.031,0,5.487-2.425,5.487-5.416
			s-2.456-5.416-5.487-5.416c-3.031,0-5.489,2.425-5.489,5.416S119.213,106.384,122.244,106.384z M72.854,155.123
			c-3.031,0-5.489,2.426-5.489,5.416s2.458,5.416,5.489,5.416c3.031,0,5.487-2.425,5.487-5.416S75.884,155.123,72.854,155.123z
			 M94.805,149.708c0-2.991-2.458-5.416-5.487-5.416c-3.031,0-5.489,2.425-5.489,5.416s2.458,5.415,5.489,5.415
			C92.347,155.123,94.805,152.699,94.805,149.708z M111.269,138.877c0-2.991-2.458-5.416-5.489-5.416
			c-3.031,0-5.487,2.426-5.487,5.416c0,2.99,2.456,5.415,5.487,5.415C108.811,144.292,111.269,141.867,111.269,138.877z
			 M122.244,133.461c3.031,0,5.487-2.424,5.487-5.415s-2.456-5.416-5.487-5.416c-3.031,0-5.489,2.425-5.489,5.416
			S119.213,133.461,122.244,133.461z M138.707,122.63c3.031,0,5.489-2.424,5.489-5.415s-2.458-5.416-5.489-5.416
			s-5.487,2.425-5.487,5.416S135.676,122.63,138.707,122.63z M94.805,171.37c-3.031,0-5.487,2.425-5.487,5.416
			c0,2.991,2.455,5.415,5.487,5.415c3.031,0,5.488-2.424,5.488-5.415C100.293,173.796,97.836,171.37,94.805,171.37z
			 M116.755,165.956c0-2.993-2.456-5.416-5.487-5.416c-3.031,0-5.489,2.424-5.489,5.416c0,2.991,2.458,5.415,5.489,5.415
			C114.3,171.37,116.755,168.946,116.755,165.956z M133.22,155.123c0-2.991-2.458-5.415-5.489-5.415s-5.487,2.424-5.487,5.415
			c0,2.992,2.456,5.416,5.487,5.416S133.22,158.115,133.22,155.123z M149.682,144.292c0-2.991-2.456-5.415-5.487-5.415
			c-3.031,0-5.489,2.424-5.489,5.415s2.458,5.416,5.489,5.416C147.226,149.708,149.682,147.283,149.682,144.292z M166.146,133.461
			c0-2.991-2.458-5.415-5.489-5.415c-3.031,0-5.487,2.424-5.487,5.415s2.456,5.416,5.487,5.416
			C163.689,138.877,166.146,136.452,166.146,133.461z M116.755,187.617c-3.031,0-5.487,2.424-5.487,5.415s2.456,5.416,5.487,5.416
			s5.489-2.425,5.489-5.416S119.786,187.617,116.755,187.617z M133.22,176.786c-3.031,0-5.489,2.424-5.489,5.415
			s2.458,5.416,5.489,5.416c3.031,0,5.487-2.425,5.487-5.416S136.251,176.786,133.22,176.786z M149.682,165.956
			c-3.031,0-5.487,2.424-5.487,5.415s2.455,5.416,5.487,5.416c3.031,0,5.488-2.425,5.488-5.416S152.713,165.956,149.682,165.956z
			 M166.146,155.123c-3.031,0-5.489,2.426-5.489,5.416s2.458,5.416,5.489,5.416c3.031,0,5.487-2.425,5.487-5.416
			S169.177,155.123,166.146,155.123z M182.611,144.292c-3.031,0-5.489,2.425-5.489,5.416s2.458,5.415,5.489,5.415
			c3.029,0,5.487-2.424,5.487-5.415S185.639,144.292,182.611,144.292z"/>
	</g>
</g>
<path style="opacity:0.5;fill-rule:evenodd;clip-rule:evenodd;fill:#48AAB5;" d="M120.071,19.012L13.091,92.562l106.983,73.551
	l106.978-73.551L120.071,19.012z"/>
<g>
	<path style="fill:#1D1D1D;" d="M120.071,28.72l92.859,63.841l-92.857,63.843L27.212,92.562L120.071,28.72 M120.071,19.012
		L13.091,92.562l106.983,73.551l106.978-73.551L120.071,19.012L120.071,19.012z"/>
</g>
<g style="opacity:0.5;">
	<path style="fill:none;" d="M89.213,66.562c-8.123,22.086-26.871,35.624-54.219,39.149c-0.805,0.104-1.597,0.18-2.393,0.264
		l20.449,14.059c1.013-0.1,2.032-0.214,3.058-0.348c24.433-3.203,40.425-14.625,47.533-33.951
		c8.983-24.425,26.753-39.406,43.046-48.424l-19.903-13.684C112.287,32.066,96.95,45.527,89.213,66.562z"/>
	<path style="fill:none;" d="M133.084,110.432c-6.734,18.31-20.778,30.738-40.964,36.463l20.453,14.062
		c17.404-5.07,29.135-15.574,34.937-31.351c11.214-30.488,36.114-46.262,54.747-54.09l-20.132-13.841
		C165.063,69.173,142.925,83.675,133.084,110.432z"/>
	<path style="fill:none;" d="M155.019,132.367c-2.137,5.811-5.017,11.024-8.589,15.624l53.698-36.919
		c2.198-1.639,4.414-3.154,6.626-4.556l20.297-13.955l-16.723-11.497C192.868,87.596,166.121,102.184,155.019,132.367z"/>
	<path style="fill:none;" d="M34.172,97.75c24.433-3.202,40.425-14.625,47.533-33.95c5.404-14.693,13.99-25.964,23.519-34.58
		L13.091,92.562l8.792,6.045C25.77,98.555,29.922,98.307,34.172,97.75z"/>
	<path style="fill:none;" d="M111.148,88.497c-7.531,20.478-24.203,33.6-48.388,38.214l20.463,14.068
		c21.517-4.076,35.761-15.188,42.353-33.108c10.043-27.306,31.065-42.807,48.731-51.371l-20.022-13.765
		C138.318,50.645,119.886,64.739,111.148,88.497z"/>
	<path style="fill:#1D1D1D;" d="M81.705,63.8c-7.108,19.325-23.101,30.748-47.533,33.95c-4.25,0.557-8.402,0.805-12.289,0.856
		l10.718,7.369c0.796-0.084,1.588-0.161,2.393-0.264c27.348-3.525,46.096-17.063,54.219-39.149
		c7.737-21.035,23.074-34.496,37.571-42.935l-6.712-4.615l-14.847,10.207C95.695,37.836,87.109,49.107,81.705,63.8z"/>
	<path style="fill:#1D1D1D;" d="M103.641,85.735c-7.108,19.325-23.101,30.748-47.533,33.951c-1.026,0.134-2.045,0.248-3.058,0.348
		l9.711,6.677c24.184-4.614,40.856-17.736,48.388-38.214c8.738-23.757,27.17-37.852,43.137-45.962l-7.598-5.224
		C130.394,46.329,112.624,61.309,103.641,85.735z"/>
	<path style="fill:#1D1D1D;" d="M125.576,107.67c-6.592,17.92-20.836,29.032-42.353,33.108l8.897,6.117
		c20.185-5.726,34.229-18.153,40.964-36.463c9.841-26.756,31.979-41.259,49.042-48.757l-7.819-5.375
		C156.641,64.862,135.619,80.364,125.576,107.67z"/>
	<path style="fill:#1D1D1D;" d="M147.511,129.605c-5.802,15.777-17.533,26.281-34.937,31.351l7.5,5.156l26.357-18.121
		c3.571-4.601,6.451-9.814,8.589-15.624c11.102-30.184,37.85-44.771,55.31-51.303l-8.071-5.549
		C183.625,83.344,158.724,99.117,147.511,129.605z"/>
	<path style="fill:#1D1D1D;" d="M206.754,106.516c-2.212,1.402-4.429,2.917-6.626,4.556L206.754,106.516z"/>
</g>
<rect style="fill-rule:evenodd;clip-rule:evenodd;fill:none;" width="240" height="240"/>
</svg>
