<?xml version="1.0" encoding="iso-8859-1"?>
<!-- Generator: Adobe Illustrator 19.2.1, SVG Export Plug-In . SVG Version: 6.00 Build 0)  -->
<svg version="1.1" id="Layer_1" xmlns="http://www.w3.org/2000/svg" xmlns:xlink="http://www.w3.org/1999/xlink" x="0px" y="0px"
	 viewBox="0 0 240 240" style="enable-background:new 0 0 240 240;" xml:space="preserve">
<rect style="fill-rule:evenodd;clip-rule:evenodd;fill:none;" width="240" height="240"/>
<g>
	<path style="fill-rule:evenodd;clip-rule:evenodd;fill:#BDBDBD;" d="M120,173.549c-29.527,0-53.549-24.021-53.549-53.549
		c0-29.527,24.022-53.549,53.549-53.549c29.527,0,53.549,24.022,53.549,53.549C173.549,149.527,149.527,173.549,120,173.549z"/>
	<path style="fill:#1D1D1D;" d="M120,70.451c27.365,0,49.549,22.184,49.549,49.549S147.365,169.549,120,169.549
		S70.451,147.365,70.451,120S92.635,70.451,120,70.451 M120,62.451c-31.732,0-57.549,25.816-57.549,57.549
		S88.268,177.549,120,177.549s57.549-25.816,57.549-57.549S151.732,62.451,120,62.451L120,62.451z"/>
</g>
<path style="fill:#BDBDBD;stroke:#1D1D1D;stroke-width:8;stroke-linecap:round;stroke-miterlimit:10;" d="M120,16.333
	C62.746,16.333,16.333,62.746,16.333,120c0,57.253,46.413,103.667,103.667,103.667S223.667,177.254,223.667,120
	C223.667,62.746,177.254,16.333,120,16.333z M120,207.419c-48.28,0-87.419-39.139-87.419-87.419S71.72,32.581,120,32.581
	S207.419,71.72,207.419,120S168.28,207.419,120,207.419z"/>
<g>
	<path style="fill-rule:evenodd;clip-rule:evenodd;fill:#BDBDBD;" d="M187.312,80.127c-15.13,0-27.438-12.309-27.438-27.439
		s12.309-27.439,27.438-27.439s27.439,12.309,27.439,27.439S202.441,80.127,187.312,80.127z"/>
	<path style="fill:#1D1D1D;" d="M187.312,29.249c12.945,0,23.439,10.494,23.439,23.439s-10.494,23.439-23.439,23.439
		s-23.439-10.494-23.439-23.439S174.367,29.249,187.312,29.249 M187.312,21.249c-17.335,0-31.439,14.103-31.439,31.439
		s14.103,31.439,31.439,31.439s31.439-14.103,31.439-31.439S204.647,21.249,187.312,21.249L187.312,21.249z"/>
</g>
</svg>
