<?xml version="1.0" encoding="iso-8859-1"?>
<!-- Generator: Adobe Illustrator 19.2.1, SVG Export Plug-In . SVG Version: 6.00 Build 0)  -->
<svg version="1.1" id="Layer_1" xmlns="http://www.w3.org/2000/svg" xmlns:xlink="http://www.w3.org/1999/xlink" x="0px" y="0px"
	 viewBox="0 0 240 240" style="enable-background:new 0 0 240 240;" xml:space="preserve">
<rect style="fill-rule:evenodd;clip-rule:evenodd;fill:none;" width="240" height="240"/>
<g>
	<path style="fill:#58A5CC;" d="M118.985,231.002c-1.397,0-2.758-0.289-4.044-0.857c-0.538-0.238-13.4-5.963-26.486-15.694
		c-18.973-14.107-28.641-29.18-28.736-44.8c-0.133-21.827,18.774-41.579,56.205-58.711l0.073-0.034
		c16.568-7.578,44.353-22.884,44.287-40.256c-0.071-18.991-31.906-37.528-43.053-42.524c-5.03-2.255-7.29-8.183-5.036-13.214
		c1.611-3.592,5.195-5.912,9.13-5.912c1.415,0,2.79,0.295,4.087,0.876c0.542,0.243,13.402,6.059,26.356,15.793
		c18.863,14.175,28.457,29.283,28.516,44.905c0.083,21.794-18.725,41.472-55.898,58.488L124.3,129.1
		c-28.826,13.188-44.661,27.546-44.582,40.429c0.116,18.949,32.117,37.369,43.318,42.328c2.442,1.08,4.317,3.048,5.28,5.54
		c0.963,2.491,0.897,5.209-0.185,7.651C126.532,228.665,122.941,231.002,118.985,231.002z"/>
	<path style="fill:#1D1D1D;" d="M121.323,12.998c0.82,0,1.653,0.169,2.45,0.526c0.523,0.235,12.971,5.858,25.59,15.341
		c17.809,13.383,26.865,27.42,26.919,41.722c0.076,20.083-17.947,38.533-53.563,54.836c-0.023,0.011-0.046,0.021-0.069,0.031
		c-21.473,9.821-47.045,25.443-46.931,44.097c0.129,21.167,33.032,40.354,45.699,45.961c3.03,1.341,4.399,4.885,3.058,7.915
		c-0.991,2.24-3.188,3.573-5.489,3.573c-0.812,0-1.636-0.166-2.426-0.516c-0.526-0.232-13.031-5.812-25.718-15.246
		c-17.91-13.317-27.036-27.318-27.123-41.614c-0.123-20.122,18.02-38.651,53.926-55.076c0.005-0.002,0.01-0.004,0.015-0.007
		c21.309-9.746,46.694-25.274,46.623-43.909c-0.08-21.202-32.811-40.509-45.417-46.159c-3.023-1.355-4.376-4.905-3.022-7.929
		C116.843,14.319,119.032,12.998,121.323,12.998 M121.324,4.998L121.324,4.998c-5.509,0-10.525,3.248-12.779,8.273
		c-3.157,7.047,0.006,15.346,7.048,18.503c16.378,7.342,40.636,24.778,40.69,38.889c0.042,11.048-15.245,24.387-41.938,36.598
		l-0.117,0.052l-0.029,0.014l-0.006,0.003l-0.003,0.002c-38.942,17.839-58.614,38.813-58.47,62.341
		c0.104,16.943,10.315,33.088,30.349,47.985c13.444,9.998,26.703,15.898,27.26,16.145c1.793,0.794,3.699,1.197,5.657,1.197
		c5.538,0,10.564-3.272,12.805-8.336c1.513-3.418,1.605-7.222,0.257-10.711c-1.348-3.489-3.974-6.244-7.394-7.757
		c-16.457-7.285-40.85-24.622-40.936-38.694c-0.068-11.048,15.315-24.441,42.206-36.748c0.048-0.021,0.095-0.043,0.143-0.065
		c38.712-17.72,58.305-38.628,58.216-62.133c-0.064-16.94-10.195-33.119-30.113-48.087C140.862,12.47,127.606,6.476,127.048,6.226
		C125.232,5.411,123.306,4.998,121.324,4.998L121.324,4.998z"/>
</g>
</svg>
