<?xml version="1.0" encoding="utf-8"?>
<!-- Generator: Adobe Illustrator 19.2.1, SVG Export Plug-In . SVG Version: 6.00 Build 0)  -->
<svg version="1.2" baseProfile="tiny" id="Layer_1" xmlns="http://www.w3.org/2000/svg" xmlns:xlink="http://www.w3.org/1999/xlink"
	 x="0px" y="0px" viewBox="0 0 240 240" xml:space="preserve">
<g>
	<rect id="XMLID_3_" x="12" y="12" fill="#0A0A0A" width="216" height="216"/>
	<path id="XMLID_1_" fill="#1D1D1D" d="M220,20v200H20V20H220 M228,12H12v216h216V12L228,12z"/>
</g>
<path fill="#48AAB5" d="M159.9,128l48.3-8l-48.3-8c-3.2-16-15.8-28.6-31.8-31.8l-8-48.3l-8,48.3c-16,3.2-28.6,15.8-31.8,31.8
	l-48.3,8l48.3,8c3.2,16,15.8,28.6,31.8,31.8l8,48.3l8-48.3C144.1,156.7,156.7,144.1,159.9,128z"/>
<rect fill-rule="evenodd" fill="none" width="240" height="240"/>
<g>
</g>
<g>
</g>
<g>
</g>
<g>
</g>
<g>
</g>
<g>
</g>
</svg>
