<?xml version="1.0" encoding="utf-8"?>
<!-- Generator: Adobe Illustrator 19.2.1, SVG Export Plug-In . SVG Version: 6.00 Build 0)  -->
<svg version="1.1" id="Layer_1" xmlns="http://www.w3.org/2000/svg" xmlns:xlink="http://www.w3.org/1999/xlink" x="0px" y="0px"
	 viewBox="0 0 240 240" enable-background="new 0 0 240 240" xml:space="preserve">
<rect fill-rule="evenodd" clip-rule="evenodd" fill="none" width="240" height="240"/>
<g>
	<g>
		<path fill-rule="evenodd" clip-rule="evenodd" fill="#D6806D" d="M120.5,55.1c-9.7,0-17.6-7.9-17.6-17.6c0-9.7,7.9-17.6,17.6-17.6
			c9.7,0,17.6,7.9,17.6,17.6C138.1,47.2,130.2,55.1,120.5,55.1z"/>
		<path fill="#1D1D1D" d="M120.5,23.9c7.5,0,13.6,6.1,13.6,13.6c0,7.5-6.1,13.6-13.6,13.6c-7.5,0-13.6-6.1-13.6-13.6
			C106.9,30,113,23.9,120.5,23.9 M120.5,15.9c-11.9,0-21.6,9.7-21.6,21.6c0,11.9,9.7,21.6,21.6,21.6c11.9,0,21.6-9.7,21.6-21.6
			C142.1,25.6,132.4,15.9,120.5,15.9L120.5,15.9z"/>
	</g>
	<g>
		<path fill-rule="evenodd" clip-rule="evenodd" fill="#D6806D" d="M52.3,205.2c-13.5,0-24.5-11-24.5-24.5c0-13.5,11-24.5,24.5-24.5
			c13.5,0,24.5,11,24.5,24.5C76.8,194.2,65.8,205.2,52.3,205.2z"/>
		<path fill="#1D1D1D" d="M52.3,160.2c11.3,0,20.5,9.2,20.5,20.5c0,11.3-9.2,20.5-20.5,20.5c-11.3,0-20.5-9.2-20.5-20.5
			C31.9,169.4,41,160.2,52.3,160.2 M52.3,152.2c-15.7,0-28.5,12.8-28.5,28.5c0,15.7,12.8,28.5,28.5,28.5c15.7,0,28.5-12.8,28.5-28.5
			C80.8,165,68,152.2,52.3,152.2L52.3,152.2z"/>
	</g>
	<g>
		<path fill-rule="evenodd" clip-rule="evenodd" fill="#D6806D" d="M31.9,96.1c-9.7,0-17.6-7.9-17.6-17.6c0-9.7,7.9-17.6,17.6-17.6
			c9.7,0,17.6,7.9,17.6,17.6C49.5,88.1,41.6,96.1,31.9,96.1z"/>
		<path fill="#1D1D1D" d="M31.9,64.8c7.5,0,13.6,6.1,13.6,13.6c0,7.5-6.1,13.6-13.6,13.6c-7.5,0-13.6-6.1-13.6-13.6
			C18.2,70.9,24.3,64.8,31.9,64.8 M31.9,56.8c-11.9,0-21.6,9.7-21.6,21.6c0,11.9,9.7,21.6,21.6,21.6c11.9,0,21.6-9.7,21.6-21.6
			C53.5,66.5,43.8,56.8,31.9,56.8L31.9,56.8z"/>
	</g>
	<g>
		<path fill-rule="evenodd" clip-rule="evenodd" fill="#D6806D" d="M161.4,89.2c-9.7,0-17.6-7.9-17.6-17.6c0-9.7,7.9-17.6,17.6-17.6
			c9.7,0,17.6,7.9,17.6,17.6C179,81.3,171.1,89.2,161.4,89.2z"/>
		<path fill="#1D1D1D" d="M161.4,58c7.5,0,13.6,6.1,13.6,13.6c0,7.5-6.1,13.6-13.6,13.6c-7.5,0-13.6-6.1-13.6-13.6
			C147.8,64.1,153.9,58,161.4,58 M161.4,50c-11.9,0-21.6,9.7-21.6,21.6c0,11.9,9.7,21.6,21.6,21.6c11.9,0,21.6-9.7,21.6-21.6
			C183,59.7,173.3,50,161.4,50L161.4,50z"/>
	</g>
	<g>
		<path fill-rule="evenodd" clip-rule="evenodd" fill="#D6806D" d="M151.2,198.3c-7.8,0-14.2-6.4-14.2-14.2
			c0-7.8,6.4-14.2,14.2-14.2s14.2,6.4,14.2,14.2C165.4,192,159,198.3,151.2,198.3z"/>
		<path fill="#1D1D1D" d="M151.2,173.9c5.7,0,10.2,4.6,10.2,10.2c0,5.6-4.6,10.2-10.2,10.2c-5.6,0-10.2-4.6-10.2-10.2
			C141,178.5,145.5,173.9,151.2,173.9 M151.2,165.9c-10.1,0-18.2,8.2-18.2,18.2c0,10.1,8.2,18.2,18.2,18.2
			c10.1,0,18.2-8.2,18.2-18.2C169.4,174.1,161.2,165.9,151.2,165.9L151.2,165.9z"/>
	</g>
	<g>
		<path fill-rule="evenodd" clip-rule="evenodd" fill="#D6806D" d="M209.1,116.5c-9.7,0-17.6-7.9-17.6-17.6
			c0-9.7,7.9-17.6,17.6-17.6c9.7,0,17.6,7.9,17.6,17.6C226.8,108.6,218.9,116.5,209.1,116.5z"/>
		<path fill="#1D1D1D" d="M209.1,85.2c7.5,0,13.6,6.1,13.6,13.6c0,7.5-6.1,13.6-13.6,13.6c-7.5,0-13.6-6.1-13.6-13.6
			C195.5,91.3,201.6,85.2,209.1,85.2 M209.1,77.2c-11.9,0-21.6,9.7-21.6,21.6c0,11.9,9.7,21.6,21.6,21.6c11.9,0,21.6-9.7,21.6-21.6
			C230.8,86.9,221.1,77.2,209.1,77.2L209.1,77.2z"/>
	</g>
	<g>
		<path fill-rule="evenodd" clip-rule="evenodd" fill="#D6806D" d="M72.8,48.3c-6,0-10.8-4.9-10.8-10.8s4.9-10.8,10.8-10.8
			c6,0,10.8,4.9,10.8,10.8S78.7,48.3,72.8,48.3z"/>
		<path fill="#1D1D1D" d="M72.8,30.7c3.8,0,6.8,3.1,6.8,6.8c0,3.8-3.1,6.8-6.8,6.8c-3.8,0-6.8-3.1-6.8-6.8
			C65.9,33.7,69,30.7,72.8,30.7 M72.8,22.7c-8.2,0-14.8,6.6-14.8,14.8c0,8.2,6.6,14.8,14.8,14.8c8.2,0,14.8-6.6,14.8-14.8
			C87.6,29.3,80.9,22.7,72.8,22.7L72.8,22.7z"/>
	</g>
	<g>
		<path fill-rule="evenodd" clip-rule="evenodd" fill="#D6806D" d="M175,150.6c-6,0-10.8-4.9-10.8-10.8S169.1,129,175,129
			c6,0,10.8,4.9,10.8,10.8S181,150.6,175,150.6z"/>
		<path fill="#1D1D1D" d="M175,133c3.8,0,6.8,3.1,6.8,6.8c0,3.8-3,6.8-6.8,6.8c-3.8,0-6.8-3.1-6.8-6.8C168.2,136,171.3,133,175,133
			 M175,125c-8.2,0-14.8,6.6-14.8,14.8c0,8.2,6.6,14.8,14.8,14.8c8.2,0,14.8-6.6,14.8-14.8C189.9,131.6,183.2,125,175,125L175,125z"
			/>
	</g>
	<g>
		<path fill-rule="evenodd" clip-rule="evenodd" fill="#D6806D" d="M120.5,164.2c-17.2,0-31.3-14-31.3-31.3
			c0-17.2,14-31.3,31.3-31.3c17.2,0,31.3,14,31.3,31.3C151.8,150.2,137.7,164.2,120.5,164.2z"/>
		<path fill="#1D1D1D" d="M120.5,105.7c15.1,0,27.3,12.2,27.3,27.3c0,15.1-12.2,27.3-27.3,27.3c-15.1,0-27.3-12.2-27.3-27.3
			C93.2,117.9,105.4,105.7,120.5,105.7 M120.5,97.7c-19.5,0-35.3,15.8-35.3,35.3c0,19.5,15.8,35.3,35.3,35.3
			c19.4,0,35.3-15.8,35.3-35.3C155.8,113.5,140,97.7,120.5,97.7L120.5,97.7z"/>
	</g>
	<g>
		<path fill-rule="evenodd" clip-rule="evenodd" fill="#D6806D" d="M106.9,225.6c-9.7,0-17.6-7.9-17.6-17.6
			c0-9.7,7.9-17.6,17.6-17.6c9.7,0,17.6,7.9,17.6,17.6C124.5,217.7,116.6,225.6,106.9,225.6z"/>
		<path fill="#1D1D1D" d="M106.9,194.3c7.5,0,13.6,6.1,13.6,13.6c0,7.5-6.1,13.6-13.6,13.6c-7.5,0-13.6-6.1-13.6-13.6
			C93.2,200.4,99.3,194.3,106.9,194.3 M106.9,186.3c-11.9,0-21.6,9.7-21.6,21.6c0,11.9,9.7,21.6,21.6,21.6
			c11.9,0,21.6-9.7,21.6-21.6C128.5,196,118.8,186.3,106.9,186.3L106.9,186.3z"/>
	</g>
	<g>
		<path fill-rule="evenodd" clip-rule="evenodd" fill="#D6806D" d="M93.2,89.2c-6,0-10.8-4.9-10.8-10.8c0-6,4.9-10.8,10.8-10.8
			c6,0,10.8,4.9,10.8,10.8C104,84.4,99.2,89.2,93.2,89.2z"/>
		<path fill="#1D1D1D" d="M93.2,71.6c3.8,0,6.8,3.1,6.8,6.8c0,3.8-3.1,6.8-6.8,6.8c-3.8,0-6.8-3.1-6.8-6.8
			C86.4,74.7,89.5,71.6,93.2,71.6 M93.2,63.6c-8.2,0-14.8,6.6-14.8,14.8c0,8.2,6.6,14.8,14.8,14.8c8.2,0,14.8-6.6,14.8-14.8
			C108,70.2,101.4,63.6,93.2,63.6L93.2,63.6z"/>
	</g>
	<g>
		<path fill-rule="evenodd" clip-rule="evenodd" fill="#D6806D" d="M195.5,198.3c-6,0-10.8-4.9-10.8-10.8s4.9-10.8,10.8-10.8
			c6,0,10.8,4.9,10.8,10.8S201.5,198.3,195.5,198.3z"/>
		<path fill="#1D1D1D" d="M195.5,180.7c3.8,0,6.8,3.1,6.8,6.8s-3.1,6.8-6.8,6.8c-3.8,0-6.8-3.1-6.8-6.8S191.7,180.7,195.5,180.7
			 M195.5,172.7c-8.2,0-14.8,6.6-14.8,14.8c0,8.2,6.6,14.8,14.8,14.8s14.8-6.6,14.8-14.8C210.3,179.3,203.7,172.7,195.5,172.7
			L195.5,172.7z"/>
	</g>
	<g>
		<path fill-rule="evenodd" clip-rule="evenodd" fill="#D6806D" d="M59.1,137c-6,0-10.8-4.9-10.8-10.8c0-6,4.9-10.8,10.8-10.8
			s10.8,4.9,10.8,10.8C69.9,132.1,65.1,137,59.1,137z"/>
		<path fill="#1D1D1D" d="M59.1,119.3c3.8,0,6.8,3.1,6.8,6.8c0,3.8-3,6.8-6.8,6.8c-3.8,0-6.8-3.1-6.8-6.8
			C52.3,122.4,55.4,119.3,59.1,119.3 M59.1,111.3c-8.2,0-14.8,6.6-14.8,14.8c0,8.2,6.6,14.8,14.8,14.8s14.8-6.6,14.8-14.8
			C73.9,118,67.3,111.3,59.1,111.3L59.1,111.3z"/>
	</g>
	<g>
		<path fill-rule="evenodd" clip-rule="evenodd" fill="#D6806D" d="M175,34.7c-6,0-10.8-4.9-10.8-10.8c0-6,4.9-10.8,10.8-10.8
			c6,0,10.8,4.9,10.8,10.8C185.9,29.8,181,34.7,175,34.7z"/>
		<path fill="#1D1D1D" d="M175,17.1c3.8,0,6.8,3.1,6.8,6.8c0,3.8-3,6.8-6.8,6.8c-3.8,0-6.8-3.1-6.8-6.8
			C168.2,20.1,171.3,17.1,175,17.1 M175,9.1c-8.2,0-14.8,6.6-14.8,14.8c0,8.2,6.6,14.8,14.8,14.8c8.2,0,14.8-6.6,14.8-14.8
			C189.9,15.7,183.2,9.1,175,9.1L175,9.1z"/>
	</g>
</g>
</svg>
