<?xml version="1.0" encoding="utf-8"?>
<!-- Generator: Adobe Illustrator 13.0.2, SVG Export Plug-In . SVG Version: 6.00 Build 14948)  -->
<svg version="1.2" baseProfile="tiny" id="Layer_1" xmlns="http://www.w3.org/2000/svg" xmlns:xlink="http://www.w3.org/1999/xlink"
	 x="0px" y="0px" width="248.394px" height="240.854px" viewBox="0 0 248.394 240.854" xml:space="preserve">
<g>
	<g>
		<path fill="#48B049" stroke="#000000" stroke-width="6.25" d="M72.598,181.527c0,19.17-15.549,34.731-34.736,34.731
			c-19.185,0-34.736-15.562-34.736-34.731c0-19.194,15.552-34.746,34.736-34.746C57.048,146.781,72.598,162.333,72.598,181.527z"/>
		<path fill="#FFFFFF" d="M28.54,167.67c0,1.943-1.584,3.506-3.525,3.506c-1.919,0-3.506-1.563-3.506-3.506
			c0-1.934,1.587-3.525,3.506-3.525C26.956,164.145,28.54,165.736,28.54,167.67z"/>
	</g>
	<g>
		<path fill="#48B049" stroke="#000000" stroke-width="6.25" d="M202.549,96.479c0,19.17-15.552,34.73-34.738,34.73
			c-19.188,0-34.739-15.561-34.739-34.73c0-19.199,15.552-34.751,34.739-34.751C186.997,61.729,202.549,77.28,202.549,96.479z"/>
		<path fill="#FFFFFF" d="M158.488,82.625c0,1.938-1.589,3.506-3.527,3.506c-1.919,0-3.506-1.567-3.506-3.506
			s1.587-3.523,3.506-3.523C156.899,79.102,158.488,80.687,158.488,82.625z"/>
	</g>
	<g>
		<path fill="#48B049" stroke="#000000" stroke-width="6.25" d="M245.269,31.387c0,15.569-12.624,28.218-28.232,28.218
			c-15.591,0-28.247-12.648-28.247-28.218c0-15.611,12.656-28.262,28.247-28.262C232.645,3.125,245.269,15.775,245.269,31.387z"/>
		<path fill="#FFFFFF" d="M209.468,20.122c0,1.567-1.309,2.837-2.876,2.837c-1.563,0-2.847-1.27-2.847-2.837
			c0-1.584,1.284-2.871,2.847-2.871C208.159,17.251,209.468,18.538,209.468,20.122z"/>
	</g>
	<g>
		<path fill="#48B049" stroke="#000000" stroke-width="6.25" d="M74.478,44.806c0,15.569-12.622,28.218-28.23,28.218
			c-15.591,0-28.25-12.649-28.25-28.218c0-15.608,12.659-28.262,28.25-28.262C61.855,16.544,74.478,29.198,74.478,44.806z"/>
		<path fill="#FFFFFF" d="M38.679,33.542c0,1.567-1.309,2.837-2.871,2.837c-1.567,0-2.854-1.27-2.854-2.837
			c0-1.584,1.287-2.871,2.854-2.871C37.371,30.67,38.679,31.957,38.679,33.542z"/>
	</g>
	<g>
		<path fill="#48B049" stroke="#000000" stroke-width="6.25" d="M142.505,159.682c0,15.568-12.622,28.223-28.23,28.223
			c-15.586,0-28.25-12.654-28.25-28.223c0-15.605,12.664-28.262,28.25-28.262C129.883,131.42,142.505,144.076,142.505,159.682z"/>
		<path fill="#FFFFFF" d="M106.707,148.422c0,1.563-1.309,2.832-2.871,2.832c-1.567,0-2.854-1.27-2.854-2.832
			c0-1.587,1.287-2.876,2.854-2.876C105.398,145.546,106.707,146.835,106.707,148.422z"/>
	</g>
	<g>
		<path fill="#48B049" stroke="#000000" stroke-width="6.25" d="M178.789,217.177c0,11.338-9.189,20.552-20.547,20.552
			s-20.588-9.214-20.588-20.552c0-11.372,9.23-20.576,20.588-20.576S178.789,205.805,178.789,217.177z"/>
		<path fill="#FFFFFF" d="M152.723,208.974c0,1.147-0.95,2.073-2.107,2.073c-1.118,0-2.068-0.926-2.068-2.073s0.95-2.09,2.068-2.09
			C151.772,206.884,152.723,207.826,152.723,208.974z"/>
	</g>
	<g>
		<path fill="#48B049" stroke="#000000" stroke-width="6.25" d="M215.732,188.036c0,15.571-12.622,28.223-28.23,28.223
			c-15.59,0-28.249-12.651-28.249-28.223c0-15.61,12.659-28.257,28.249-28.257C203.11,159.779,215.732,172.426,215.732,188.036z"/>
		<path fill="#FFFFFF" d="M179.93,176.771c0,1.567-1.305,2.837-2.871,2.837c-1.568,0-2.854-1.27-2.854-2.837
			c0-1.582,1.286-2.866,2.854-2.866C178.625,173.905,179.93,175.189,179.93,176.771z"/>
	</g>
	<g>
		<path fill="#48B049" stroke="#000000" stroke-width="6.25" d="M243.42,128.427c0,11.338-9.191,20.547-20.544,20.547
			c-11.357,0-20.586-9.209-20.586-20.547c0-11.377,9.229-20.577,20.586-20.577C234.229,107.85,243.42,117.05,243.42,128.427z"/>
		<path fill="#FFFFFF" d="M217.358,120.224c0,1.143-0.957,2.067-2.114,2.067c-1.118,0-2.065-0.925-2.065-2.067
			c0-1.148,0.947-2.09,2.065-2.09C216.401,118.134,217.358,119.075,217.358,120.224z"/>
	</g>
	<g>
		<path fill="#48B049" stroke="#000000" stroke-width="6.25" d="M103.938,66.341c0,11.338-9.192,20.547-20.549,20.547
			s-20.586-9.209-20.586-20.547c0-11.378,9.229-20.576,20.586-20.576S103.938,54.962,103.938,66.341z"/>
		<path fill="#FFFFFF" d="M77.871,58.133c0,1.145-0.952,2.067-2.109,2.067c-1.118,0-2.065-0.923-2.065-2.067
			c0-1.144,0.947-2.085,2.065-2.085C76.919,56.048,77.871,56.989,77.871,58.133z"/>
	</g>
	<g>
		<path fill="#48B049" stroke="#000000" stroke-width="6.25" d="M87.5,123.031c0,11.338-9.194,20.547-20.547,20.547
			c-11.36,0-20.586-9.209-20.586-20.547c0-11.376,9.226-20.576,20.586-20.576C78.306,102.455,87.5,111.655,87.5,123.031z"/>
		<path fill="#FFFFFF" d="M61.431,114.829c0,1.144-0.952,2.068-2.109,2.068c-1.118,0-2.065-0.924-2.065-2.068
			c0-1.148,0.947-2.09,2.065-2.09C60.479,112.739,61.431,113.681,61.431,114.829z"/>
	</g>
</g>
</svg>
