<?xml version="1.0" encoding="utf-8"?>
<!-- Generator: Adobe Illustrator 19.2.1, SVG Export Plug-In . SVG Version: 6.00 Build 0)  -->
<svg version="1.1" id="Layer_1" xmlns="http://www.w3.org/2000/svg" xmlns:xlink="http://www.w3.org/1999/xlink" x="0px" y="0px"
	 viewBox="0 0 240 240" enable-background="new 0 0 240 240" xml:space="preserve">
<rect fill-rule="evenodd" clip-rule="evenodd" fill="none" width="240" height="240"/>
<g>
	<path fill-rule="evenodd" clip-rule="evenodd" fill="#D6806D" d="M126.3,223.7c-7.4,0-13.9-5-15.8-12.2
		c-2.3-8.8,2.9-17.8,11.6-20.2c1.4-0.4,2.8-0.6,4.2-0.6c7.4,0,13.9,5,15.8,12.2c2.3,8.8-2.9,17.8-11.6,20.2
		C129.1,223.5,127.7,223.7,126.3,223.7C126.3,223.7,126.3,223.7,126.3,223.7z M157.4,211.1c-5.7,0-10.3-4.6-10.3-10.3
		s4.6-10.3,10.3-10.3c5.7,0,10.3,4.6,10.3,10.3S163.1,211.1,157.4,211.1z M76.4,211.1c-16,0-28.9-13-28.9-28.9s13-28.9,28.9-28.9
		c16,0,28.9,13,28.9,28.9S92.3,211.1,76.4,211.1z M188.6,211c-9.1,0-16.4-7.3-16.4-16.3c0-9,7.4-16.3,16.4-16.3
		c9.1,0,16.4,7.3,16.4,16.3C205,203.6,197.6,211,188.6,211z"/>
	<path fill="#1D1D1D" d="M76.4,157.2c13.8,0,24.9,11.2,24.9,24.9c0,13.8-11.2,24.9-24.9,24.9c-13.8,0-24.9-11.2-24.9-24.9
		C51.4,168.4,62.6,157.2,76.4,157.2 M188.6,182.3c6.9,0,12.4,5.5,12.4,12.3c0,6.8-5.6,12.3-12.4,12.3c-6.9,0-12.4-5.5-12.4-12.3
		C176.1,187.8,181.7,182.3,188.6,182.3 M157.4,194.5c3.5,0,6.3,2.8,6.3,6.3c0,3.5-2.8,6.3-6.3,6.3c-3.5,0-6.3-2.8-6.3-6.3
		C151.1,197.3,153.9,194.5,157.4,194.5 M126.3,194.8c5.5,0,10.5,3.7,11.9,9.2c1.8,6.7-2.2,13.5-8.7,15.3c-1.1,0.3-2.1,0.4-3.2,0.4
		c-5.5,0-10.5-3.7-11.9-9.2c-1.8-6.7,2.1-13.5,8.7-15.3C124.1,194.9,125.2,194.8,126.3,194.8 M76.4,149.2
		c-18.2,0-32.9,14.8-32.9,32.9c0,18.2,14.8,32.9,32.9,32.9c18.2,0,32.9-14.8,32.9-32.9C109.3,164,94.5,149.2,76.4,149.2L76.4,149.2z
		 M188.6,174.3c-10.3,0-18.8,7.6-20.2,17.4c-2.6-3.1-6.6-5.1-11-5.1c-6.4,0-11.9,4.3-13.7,10.2c-3.6-6-10.2-9.9-17.4-9.9
		c-1.8,0-3.6,0.2-5.3,0.7c-10.8,2.9-17.3,14.2-14.4,25c2.4,8.9,10.5,15.2,19.7,15.2c1.8,0,3.6-0.2,5.3-0.7c8.1-2.2,13.8-9.1,14.9-17
		c2.6,3.1,6.6,5.1,10.9,5.1c6.4,0,11.8-4.2,13.6-10c3.6,5.9,10.1,9.9,17.6,9.9c11.3,0,20.4-9.1,20.4-20.3
		C209,183.4,199.9,174.3,188.6,174.3L188.6,174.3z"/>
</g>
<g>
	<path fill-rule="evenodd" clip-rule="evenodd" fill="#D6806D" d="M48.7,85.8c-10.2,0-19.2-6.8-21.9-16.4
		c-1.6-5.7-0.8-11.6,2.1-16.7c3-5.2,8-9,13.9-10.5c1.9-0.5,3.9-0.8,5.9-0.8c10.2,0,19.2,6.8,21.9,16.4c1.6,5.7,0.8,11.6-2.2,16.7
		c-3,5.2-8,9-13.9,10.5C52.6,85.6,50.6,85.8,48.7,85.8C48.7,85.8,48.7,85.8,48.7,85.8z"/>
	<path fill="#1D1D1D" d="M48.7,45.5c8.2,0,15.8,5.4,18,13.5c2.7,9.7-3.2,19.7-13.2,22.3c-1.6,0.4-3.2,0.6-4.8,0.6
		c-8.2,0-15.8-5.4-18-13.5c-2.7-9.7,3.2-19.7,13.2-22.3C45.5,45.7,47.1,45.5,48.7,45.5 M48.7,37.5c-2.3,0-4.6,0.3-6.9,0.9
		c-7,1.8-12.8,6.2-16.3,12.4c-3.5,6-4.4,13-2.5,19.7c3.1,11.4,13.7,19.4,25.7,19.4c2.3,0,4.6-0.3,6.9-0.9c7-1.8,12.8-6.2,16.4-12.4
		c3.5-6,4.4-13,2.5-19.7C71.3,45.4,60.7,37.5,48.7,37.5L48.7,37.5z"/>
</g>
<rect x="63.9" y="63.9" fill-rule="evenodd" clip-rule="evenodd" fill="#BDBDBD" stroke="#1D1D1D" stroke-width="8" stroke-miterlimit="10" width="112.3" height="112.3"/>
<g>
	<path fill-rule="evenodd" clip-rule="evenodd" fill="#D6806D" d="M179.2,111.5c-16,0-28.9-13-28.9-28.9c0-16,13-28.9,28.9-28.9
		c16,0,28.9,13,28.9,28.9C208.1,98.5,195.2,111.5,179.2,111.5z M89.8,53.5c-8.5,0-16-5.6-18.3-13.7c-1.3-4.7-0.7-9.7,1.8-14
		C75.9,21.4,80,18.3,85,17c1.6-0.4,3.2-0.6,4.9-0.6c8.5,0,16,5.6,18.3,13.7c1.3,4.7,0.7,9.7-1.8,14c-2.5,4.4-6.6,7.5-11.6,8.8
		C93.1,53.3,91.5,53.5,89.8,53.5z M166.9,49.4c-9,0-16.4-7.4-16.4-16.6c0-9.1,7.4-16.6,16.4-16.6s16.4,7.4,16.4,16.6
		C183.3,42,176,49.4,166.9,49.4z M198,49.3c-5.6,0-10.2-4.6-10.2-10.2c0-5.6,4.6-10.2,10.2-10.2c5.6,0,10.2,4.6,10.2,10.2
		C208.2,44.7,203.7,49.3,198,49.3z M123.4,36.7c-5.6,0-10.1-4.5-10.1-10.1s4.5-10.1,10.1-10.1c5.6,0,10.1,4.5,10.1,10.1
		S129,36.7,123.4,36.7z"/>
	<path fill="#1D1D1D" d="M166.9,20.3c6.9,0,12.4,5.6,12.4,12.6c0,6.9-5.6,12.6-12.4,12.6c-6.9,0-12.4-5.6-12.4-12.6
		C154.5,25.9,160.1,20.3,166.9,20.3 M89.8,20.4c6.6,0,12.6,4.3,14.4,10.8c2.1,7.8-2.6,15.7-10.6,17.8c-1.3,0.3-2.6,0.5-3.9,0.5
		c-6.6,0-12.6-4.3-14.4-10.8C73.3,31,78,23,86,20.9C87.3,20.6,88.6,20.4,89.8,20.4 M123.4,20.5c3.4,0,6.1,2.7,6.1,6.1
		c0,3.4-2.7,6.1-6.1,6.1c-3.4,0-6.1-2.7-6.1-6.1C117.2,23.2,120,20.5,123.4,20.5 M198,32.8c3.4,0,6.2,2.8,6.2,6.2
		c0,3.4-2.8,6.2-6.2,6.2c-3.4,0-6.2-2.8-6.2-6.2C191.9,35.6,194.6,32.8,198,32.8 M179.2,57.6c13.8,0,24.9,11.2,24.9,24.9
		c0,13.8-11.2,24.9-24.9,24.9c-13.8,0-24.9-11.2-24.9-24.9C154.3,68.8,165.4,57.6,179.2,57.6 M166.9,12.3
		c-11.3,0-20.4,9.2-20.4,20.6c0,10.4,7.7,19.1,17.7,20.4c-10.7,5.5-18,16.6-18,29.3c0,18.2,14.8,32.9,32.9,32.9
		c18.2,0,32.9-14.8,32.9-32.9c0-18.2-14.8-32.9-32.9-32.9c-0.2,0-0.3,0-0.5,0c2.3-1.7,4.3-3.8,5.8-6.3c1.8,5.8,7.2,10,13.5,10
		c7.8,0,14.2-6.4,14.2-14.2c0-7.8-6.4-14.2-14.2-14.2c-4.4,0-8.3,2-10.9,5.1C185.8,20,177.2,12.3,166.9,12.3L166.9,12.3z M89.8,12.4
		c-2,0-4,0.3-5.9,0.8c-6,1.6-11,5.4-14.1,10.7c-3,5.2-3.8,11.2-2.2,17c2.7,9.8,11.8,16.7,22.1,16.7c2,0,4-0.3,5.9-0.8
		c6-1.6,11-5.3,14.1-10.7c1.8-3.2,2.8-6.6,3-10.2c2.6,3,6.4,4.8,10.6,4.8c7.8,0,14.1-6.3,14.1-14.1c0-7.8-6.3-14.1-14.1-14.1
		c-6.7,0-12.4,4.7-13.8,11C105.5,16.8,98.1,12.4,89.8,12.4L89.8,12.4z"/>
</g>
</svg>
