<?xml version="1.0" encoding="utf-8"?>
<!-- Generator: Adobe Illustrator 13.0.2, SVG Export Plug-In . SVG Version: 6.00 Build 14948)  -->
<svg version="1.2" baseProfile="tiny" id="Layer_1" xmlns="http://www.w3.org/2000/svg" xmlns:xlink="http://www.w3.org/1999/xlink"
	 x="0px" y="0px" width="247.094px" height="247.307px" viewBox="0 0 247.094 247.307" xml:space="preserve">
<g>
	
		<rect x="125.027" y="125.238" fill="#48B049" stroke="#000000" stroke-width="6.25" stroke-linecap="round" stroke-linejoin="round" width="118.942" height="118.944"/>
	<g>
		<g>
			<path fill="#48B049" stroke="#000000" stroke-width="6.25" d="M119.626,37.876c0,19.17-15.552,34.729-34.739,34.729
				S50.171,57.046,50.171,37.876c0-19.199,15.53-34.751,34.717-34.751S119.626,18.677,119.626,37.876z"/>
			<path fill="#FFFFFF" d="M75.566,24.021c0,1.938-1.589,3.506-3.528,3.506c-1.919,0-3.506-1.567-3.506-3.506
				s1.587-3.523,3.506-3.523C73.977,20.498,75.566,22.083,75.566,24.021z"/>
		</g>
		<g>
			<path fill="#48B049" stroke="#000000" stroke-width="6.25" d="M59.583,101.079c0,15.568-12.6,28.223-28.21,28.223
				c-15.586,0-28.247-12.655-28.247-28.223c0-15.608,12.661-28.262,28.247-28.262C46.982,72.817,59.583,85.471,59.583,101.079z"/>
			<path fill="#FFFFFF" d="M23.804,89.819c0,1.563-1.309,2.832-2.871,2.832c-1.567,0-2.852-1.27-2.852-2.832
				c0-1.589,1.284-2.876,2.852-2.876C22.495,86.943,23.804,88.23,23.804,89.819z"/>
		</g>
		<g>
			<path fill="#48B049" stroke="#000000" stroke-width="6.25" d="M95.867,158.572c0,11.338-9.189,20.552-20.547,20.552
				s-20.579-9.214-20.579-20.552c0-11.372,9.221-20.576,20.579-20.576S95.867,147.2,95.867,158.572z"/>
			<path fill="#FFFFFF" d="M69.8,150.369c0,1.15-0.95,2.075-2.107,2.075c-1.118,0-2.068-0.925-2.068-2.075
				c0-1.147,0.95-2.09,2.068-2.09C68.85,148.279,69.8,149.221,69.8,150.369z"/>
		</g>
		<g>
			<path fill="#48B049" stroke="#000000" stroke-width="6.25" d="M132.81,129.431c0,15.571-12.622,28.223-28.23,28.223
				c-15.591,0-28.25-12.651-28.25-28.223c0-15.608,12.659-28.257,28.25-28.257C120.188,101.174,132.81,113.823,132.81,129.431z"/>
			<path fill="#FFFFFF" d="M97.007,118.167c0,1.567-1.304,2.837-2.871,2.837s-2.854-1.27-2.854-2.837
				c0-1.58,1.287-2.866,2.854-2.866S97.007,116.587,97.007,118.167z"/>
		</g>
		<g>
			<path fill="#48B049" stroke="#000000" stroke-width="6.25" d="M160.499,69.823c0,11.338-9.192,20.547-20.545,20.547
				c-11.357,0-20.586-9.209-20.586-20.547c0-11.377,9.229-20.577,20.586-20.577C151.306,49.246,160.499,58.446,160.499,69.823z"/>
			<path fill="#FFFFFF" d="M134.436,61.62c0,1.144-0.957,2.068-2.114,2.068c-1.118,0-2.065-0.924-2.065-2.068
				c0-1.148,0.947-2.09,2.065-2.09C133.479,59.53,134.436,60.471,134.436,61.62z"/>
		</g>
	</g>
</g>
</svg>
