<?xml version="1.0" encoding="iso-8859-1"?>
<!-- Generator: Adobe Illustrator 19.2.1, SVG Export Plug-In . SVG Version: 6.00 Build 0)  -->
<svg version="1.1" id="Layer_1" xmlns="http://www.w3.org/2000/svg" xmlns:xlink="http://www.w3.org/1999/xlink" x="0px" y="0px"
	 viewBox="0 0 240 240" style="enable-background:new 0 0 240 240;" xml:space="preserve">
<rect style="fill-rule:evenodd;clip-rule:evenodd;fill:none;" width="240" height="240"/>
<g>
	<g>
		<path style="fill-rule:evenodd;clip-rule:evenodd;fill:#D6806D;" d="M47.943,204.198c-8.692-8.217-15.687-34.358,2.55-69.528
			c3.051-5.885,8.454-11.759,14.174-17.977c7.339-7.979,14.929-16.229,18.393-25.207c8.312-21.547,9.012-38.249,8.134-48.465
			c-0.947-11.033-3.885-17.083-3.915-17.143l-1.234-2.497l1.905-2.04c3.525-3.728,8.934-5.866,14.84-5.866
			c5.551,0,10.781,1.934,14.348,5.306l0.914,0.864l0.255,1.231c0.232,1.12,5.458,27.93-13.72,72
			c-4.531,10.414-15.354,21.393-24.903,31.079c-6.787,6.885-13.197,13.388-16.064,18.341c-13.265,22.904-9.009,56.132-8.964,56.465
			l1.498,11.197L47.943,204.198z"/>
	</g>
	<g>
		<path style="fill:#1D1D1D;" d="M102.791,19.475c4.301,0,8.621,1.396,11.599,4.212c0,0,5.421,26.18-13.471,69.592
			c-7.38,16.959-33.434,36.354-40.761,49.012c-14.102,24.35-9.468,59-9.468,59c-6.113-5.779-14.946-29.49,3.353-64.78
			c6.552-12.637,26.211-26.645,32.748-43.585c16.823-43.608,4.065-68.837,4.065-68.837C93.756,21.023,98.263,19.476,102.791,19.475
			 M102.791,11.475L102.791,11.475c-7.002,0-13.471,2.595-17.748,7.118l-3.941,4.168l2.598,4.906
			c0.225,0.487,2.756,6.163,3.549,16.195c0.767,9.711,0.016,25.607-7.922,46.184c-3.191,8.268-10.519,16.235-17.605,23.939
			c-5.906,6.42-11.484,12.485-14.781,18.843c-5.976,11.524-12.858,29.143-11.713,47.633c0.548,8.842,3.453,20.485,9.967,26.642
			l16.421,15.524l-2.996-22.398c-0.041-0.311-4.065-32.302,8.461-53.93c2.613-4.514,8.849-10.84,15.451-17.538
			c9.794-9.935,20.894-21.195,25.723-32.291c19.679-45.22,14.211-73.236,13.969-74.407l-0.51-2.463l-1.828-1.728
			C115.585,13.808,109.354,11.475,102.791,11.475L102.791,11.475z"/>
	</g>
</g>
<g>
	<path style="fill:#BDBDBD;" d="M83.878,224.279c-13.489,0-24.305-4.349-31.279-12.574c-0.95-1.121-1.209-2.673-0.675-4.041
		c0.534-1.369,1.776-2.335,3.234-2.516c14.438-1.789,24.599-12.991,33.563-22.875c8.343-9.198,16.223-17.887,26.533-17.887
		c0.804,0,1.607,0.053,2.41,0.158c-0.558-0.538-0.958-1.236-1.13-2.02c-0.306-1.394,0.152-2.845,1.204-3.809l69.864-64.026
		c3.676-3.381,8.546-5.246,13.708-5.246c5.163,0,10.033,1.865,13.714,5.251c3.771,3.473,5.848,8.114,5.849,13.07
		c0.002,4.958-2.075,9.602-5.846,13.077l-66.599,61.021c-0.74,0.678-1.705,1.051-2.702,1.051c-0.086,0-0.173-0.003-0.259-0.009
		c-1.088-0.07-2.101-0.582-2.802-1.416c-2.403-2.856-4.747-5.166-7.376-7.27c-1.395-1.114-2.82-2.146-4.274-3.095
		c9.42,7.911,10.104,15.608,9.016,20.678c-1.511,7.037-7.22,13.809-16.969,20.128c-7.392,4.792-15.814,8.368-20.883,9.786
		c-5.992,1.677-12.319,2.562-18.299,2.562C83.879,224.279,83.879,224.279,83.878,224.279z"/>
	<path style="fill:#1D1D1D;" d="M201.31,93.444c3.983,0,7.966,1.398,11.006,4.195c6.076,5.595,6.076,14.663,0,20.262l-66.59,61.013
		c-2.19-2.604-4.685-5.216-7.938-7.817c-5.639-4.506-11.45-7.549-17.347-9.431l69.864-64.027
		C193.344,94.842,197.327,93.444,201.31,93.444 M115.254,168.387c3.971,0,8.264,1.686,13.114,5.739
		c24.92,20.823-14.78,40.244-27.268,43.74c-5.24,1.466-11.213,2.414-17.222,2.414c-10.575,0-21.257-2.938-28.229-11.162
		C85.016,205.479,96.618,168.387,115.254,168.387 M201.31,85.444c-6.168,0-12.001,2.24-16.422,6.307l-69.853,64.017
		c-1.39,1.273-2.262,2.972-2.517,4.782c-10.656,1.281-18.497,9.925-26.76,19.036c-8.912,9.826-18.127,19.986-31.092,21.592
		c-2.917,0.361-5.4,2.293-6.469,5.03s-0.55,5.841,1.35,8.082c7.758,9.151,19.63,13.988,34.331,13.988
		c6.339,0,13.039-0.937,19.377-2.709c4.97-1.391,13.707-4.919,21.982-10.283c10.669-6.916,16.962-14.535,18.704-22.644
		c0.371-1.726,0.58-3.696,0.446-5.841c0.27,0.046,0.543,0.078,0.819,0.096c0.173,0.011,0.346,0.017,0.519,0.017
		c1.995,0,3.924-0.746,5.404-2.102l66.59-61.013c4.62-4.257,7.154-9.946,7.153-16.035c-0.001-6.087-2.536-11.773-7.138-16.011
		C213.311,87.684,207.479,85.444,201.31,85.444L201.31,85.444z"/>
</g>
</svg>
