<?xml version="1.0" encoding="utf-8"?>
<!-- Generator: Adobe Illustrator 13.0.2, SVG Export Plug-In . SVG Version: 6.00 Build 14948)  -->
<svg version="1.2" baseProfile="tiny" id="Layer_1" xmlns="http://www.w3.org/2000/svg" xmlns:xlink="http://www.w3.org/1999/xlink"
	 x="0px" y="0px" width="248.443px" height="222.576px" viewBox="0 0 248.443 222.576" xml:space="preserve">
<g>
	<g>
		<path fill="#FFFFFF" d="M187.549,127.283c0,50.844-41.214,92.168-92.168,92.168c-50.901,0-92.256-41.324-92.256-92.168
			C3.125,76.317,44.48,35,95.381,35C146.335,35,187.549,76.317,187.549,127.283z"/>
		<g>
			<path fill="#CBCBCB" d="M160.798,62.275c0.191,2.837,0.428,5.668,0.428,8.559c0,68.061-55.168,123.238-123.235,123.238
				c-2.151,0-4.248-0.22-6.377-0.327c16.572,15.882,39.021,25.706,63.767,25.706c50.954,0,92.168-41.324,92.168-92.168
				C187.549,101.921,177.327,78.958,160.798,62.275z"/>
		</g>
		<path fill="none" stroke="#000000" stroke-width="6.25" d="M187.549,127.283c0,50.844-41.214,92.168-92.168,92.168
			c-50.901,0-92.256-41.324-92.256-92.168C3.125,76.317,44.48,35,95.381,35C146.335,35,187.549,76.317,187.549,127.283z"/>
	</g>
	<g>
		<path fill="#383838" stroke="#000000" stroke-width="6.25" stroke-linecap="round" stroke-linejoin="round" d="M161.706,91.023
			c2.578,2.583,2.578,6.758,0,9.329l-4.619,4.626c-2.578,2.578-6.758,2.578-9.33,0l0,0c-2.584-2.582-2.584-6.753,0-9.333
			l4.613-4.622C154.948,88.44,159.128,88.44,161.706,91.023L161.706,91.023z"/>
		<path fill="#6D4C31" stroke="#000000" stroke-width="6.25" stroke-linecap="round" stroke-linejoin="round" d="M159.479,69.822
			l66.123-62.176c13.389-11.99,26.658,2.271,15.596,14.903l-58.275,70.468C164.812,111.328,141.38,86.31,159.479,69.822z"/>
		<path fill="#D9D0A4" stroke="#000000" stroke-width="6.25" stroke-linecap="round" stroke-linejoin="round" d="M57.59,143.091
			c37.61,6.237,50.491-28.659,58.372-37.756c25.137-29.043,55.649,4.126,33.494,30.837
			C126.377,163.996,86.475,171.467,57.59,143.091z"/>
	</g>
</g>
</svg>
