<?xml version="1.0" encoding="iso-8859-1"?>
<!-- Generator: Adobe Illustrator 19.2.1, SVG Export Plug-In . SVG Version: 6.00 Build 0)  -->
<svg version="1.1" id="Layer_1" xmlns="http://www.w3.org/2000/svg" xmlns:xlink="http://www.w3.org/1999/xlink" x="0px" y="0px"
	 viewBox="0 0 240 240" style="enable-background:new 0 0 240 240;" xml:space="preserve">
<g>
	<polygon style="fill-rule:evenodd;clip-rule:evenodd;fill:#BDBDBD;" points="26.007,119.976 120,55.235 213.994,119.977 
		119.919,184.766 	"/>
	<path style="fill:#48AAB5;" d="M120.001,56.449l92.231,63.527l-92.312,63.574l-92.152-63.574L120.001,56.449 M120.001,54.021
		l-1.134,0.781l-92.232,63.527l-2.389,1.646l2.388,1.648l92.152,63.574l1.135,0.783l1.135-0.782l92.312-63.574l2.392-1.647
		l-2.391-1.647l-92.231-63.527L120.001,54.021L120.001,54.021z"/>
</g>
<g>
	<defs>
		<polygon id="SVGID_1_" points="26,120.02 73.087,152.352 120,120.02 73,87.648 		"/>
	</defs>
	<use xlink:href="#SVGID_1_"  style="overflow:visible;fill-rule:evenodd;clip-rule:evenodd;fill:#1D1D1D;"/>
	<clipPath id="SVGID_2_">
		<use xlink:href="#SVGID_1_"  style="overflow:visible;"/>
	</clipPath>
</g>
<g>
	<defs>
		<polygon id="SVGID_3_" points="120,120.02 167.087,152.352 214,120.02 167,87.648 		"/>
	</defs>
	<use xlink:href="#SVGID_3_"  style="overflow:visible;fill-rule:evenodd;clip-rule:evenodd;fill:#1D1D1D;"/>
	<clipPath id="SVGID_4_">
		<use xlink:href="#SVGID_3_"  style="overflow:visible;"/>
	</clipPath>
</g>
<g>
	<path style="fill:#1D1D1D;" d="M120.001,56.449l92.231,63.527l-92.312,63.574l-92.152-63.574L120.001,56.449 M120.001,46.735
		l-4.538,3.126L23.23,113.388l-9.558,6.583l9.553,6.59l92.152,63.574l4.539,3.131l4.541-3.128l92.311-63.574l9.566-6.588
		l-9.566-6.589l-92.231-63.527L120.001,46.735L120.001,46.735z"/>
</g>
<g>
	<polygon style="fill-rule:evenodd;clip-rule:evenodd;fill:#48AAB5;" points="45.608,223.98 45.608,164.022 16.263,164.022 
		16.263,137.667 101.309,137.667 101.309,164.022 71.963,164.022 71.963,223.98 	"/>
	<path style="fill:#1D1D1D;" d="M97.309,141.667v18.355H75.963h-8v8v51.958H49.608v-51.958v-8h-8H20.263v-18.355H97.309
		 M105.309,133.667H12.263v34.355h29.345v59.958h34.355v-59.958h29.345V133.667L105.309,133.667z"/>
</g>
<rect style="fill-rule:evenodd;clip-rule:evenodd;fill:none;" width="240" height="240"/>
</svg>
