<?xml version="1.0" encoding="utf-8"?>
<!-- Generator: Adobe Illustrator 13.0.2, SVG Export Plug-In . SVG Version: 6.00 Build 14948)  -->
<svg version="1.2" baseProfile="tiny" id="Layer_1" xmlns="http://www.w3.org/2000/svg" xmlns:xlink="http://www.w3.org/1999/xlink"
	 x="0px" y="0px" width="249.138px" height="247.954px" viewBox="0 0 249.138 247.954" xml:space="preserve">
<g>
	<g>
		<path fill="#48B049" stroke="#000000" stroke-width="6.25" d="M119.626,37.876c0,19.17-15.552,34.729-34.739,34.729
			S50.171,57.046,50.171,37.876c0-19.199,15.53-34.751,34.717-34.751S119.626,18.677,119.626,37.876z"/>
		<path fill="#FFFFFF" d="M75.566,24.021c0,1.938-1.589,3.506-3.528,3.506c-1.919,0-3.506-1.567-3.506-3.506
			s1.587-3.523,3.506-3.523C73.977,20.498,75.566,22.083,75.566,24.021z"/>
	</g>
	<g>
		<path fill="#48B049" stroke="#000000" stroke-width="6.25" d="M59.583,101.079c0,15.567-12.6,28.223-28.21,28.223
			c-15.586,0-28.247-12.655-28.247-28.223c0-15.608,12.661-28.262,28.247-28.262C46.982,72.817,59.583,85.471,59.583,101.079z"/>
		<path fill="#FFFFFF" d="M23.804,89.819c0,1.563-1.309,2.832-2.871,2.832c-1.567,0-2.852-1.27-2.852-2.832
			c0-1.589,1.284-2.876,2.852-2.876C22.495,86.943,23.804,88.23,23.804,89.819z"/>
	</g>
	<g>
		<path fill="#48B049" stroke="#000000" stroke-width="6.25" d="M95.867,158.574c0,11.338-9.189,20.549-20.547,20.549
			s-20.579-9.211-20.579-20.549c0-11.372,9.221-20.576,20.579-20.576S95.867,147.202,95.867,158.574z"/>
		<path fill="#FFFFFF" d="M69.8,150.371c0,1.147-0.95,2.07-2.107,2.07c-1.118,0-2.068-0.923-2.068-2.07c0-1.15,0.95-2.09,2.068-2.09
			C68.85,148.281,69.8,149.221,69.8,150.371z"/>
	</g>
	<g>
		<path fill="#48B049" stroke="#000000" stroke-width="6.25" d="M160.498,69.823c0,11.338-9.192,20.547-20.544,20.547
			c-11.357,0-20.586-9.209-20.586-20.547c0-11.377,9.229-20.578,20.586-20.578C151.306,49.246,160.498,58.446,160.498,69.823z"/>
		<path fill="#FFFFFF" d="M134.437,61.62c0,1.144-0.957,2.067-2.115,2.067c-1.117,0-2.064-0.924-2.064-2.067
			c0-1.149,0.947-2.09,2.064-2.09C133.479,59.53,134.437,60.471,134.437,61.62z"/>
	</g>
	<path fill="#FFFFFF" stroke="#000000" stroke-width="6.25" d="M246.013,176.67c0,37.625-30.518,68.159-68.178,68.159
		c-37.654,0-68.138-30.534-68.138-68.159c0-37.681,30.483-68.203,68.138-68.203C215.495,108.467,246.013,138.989,246.013,176.67z"/>
	<line fill="none" stroke="#000000" stroke-width="7.5" x1="177.966" y1="109.313" x2="177.966" y2="243.709"/>
	<line fill="none" stroke="#000000" stroke-width="7.5" x1="110.769" y1="176.512" x2="245.161" y2="176.512"/>
	<path stroke="#000000" stroke-width="8.75" d="M193.499,176.655c0,8.633-7.008,15.642-15.65,15.642
		c-8.64,0-15.635-7.009-15.635-15.642c0-8.649,6.995-15.654,15.635-15.654C186.491,161.001,193.499,168.006,193.499,176.655z"/>
	<g>
		<path fill="#48B049" stroke="#000000" stroke-width="6.25" d="M198.423,109.856c0,11.338-9.189,20.549-20.547,20.549
			s-20.578-9.211-20.578-20.549c0-11.372,9.221-20.576,20.578-20.576S198.423,98.484,198.423,109.856z"/>
		<path fill="#FFFFFF" d="M172.356,101.653c0,1.149-0.95,2.073-2.107,2.073c-1.118,0-2.068-0.924-2.068-2.073s0.95-2.09,2.068-2.09
			C171.406,99.563,172.356,100.504,172.356,101.653z"/>
	</g>
	<g>
		<path fill="#48B049" stroke="#000000" stroke-width="6.25" d="M132.81,129.432c0,15.573-12.622,28.223-28.229,28.223
			c-15.591,0-28.25-12.649-28.25-28.223c0-15.608,12.659-28.257,28.25-28.257C120.188,101.174,132.81,113.823,132.81,129.432z"/>
		<path fill="#FFFFFF" d="M97.007,118.167c0,1.567-1.304,2.837-2.871,2.837s-2.854-1.27-2.854-2.837c0-1.58,1.287-2.866,2.854-2.866
			S97.007,116.587,97.007,118.167z"/>
	</g>
</g>
</svg>
