<?xml version="1.0" encoding="utf-8"?>
<!-- Generator: Adobe Illustrator 13.0.2, SVG Export Plug-In . SVG Version: 6.00 Build 14948)  -->
<svg version="1.2" baseProfile="tiny" id="Layer_1" xmlns="http://www.w3.org/2000/svg" xmlns:xlink="http://www.w3.org/1999/xlink"
	 x="0px" y="0px" width="249.749px" height="249.103px" viewBox="0 0 249.749 249.103" xml:space="preserve">
<g>
	<g>
		<g>
			<linearGradient id="SVGID_1_" gradientUnits="userSpaceOnUse" x1="115.4185" y1="109.376" x2="246.624" y2="109.376">
				<stop  offset="0" style="stop-color:#69613B"/>
				<stop  offset="0.2708" style="stop-color:#A19874"/>
				<stop  offset="0.4466" style="stop-color:#9A926D"/>
				<stop  offset="0.6959" style="stop-color:#88805B"/>
				<stop  offset="0.9879" style="stop-color:#6A623C"/>
				<stop  offset="1" style="stop-color:#69613B"/>
			</linearGradient>
			<path fill="url(#SVGID_1_)" stroke="#000000" stroke-width="6.25" stroke-linecap="round" stroke-linejoin="round" d="
				M243.448,154.647c0,15.58-30.85,31.076-62.471,31.076c-31.639,0-62.489-15.496-62.489-31.076l-3.07-121.619h131.206
				L243.448,154.647z"/>
			<linearGradient id="SVGID_2_" gradientUnits="userSpaceOnUse" x1="115.4185" y1="32.9834" x2="246.5195" y2="32.9834">
				<stop  offset="0" style="stop-color:#B7AE8A"/>
				<stop  offset="0.2539" style="stop-color:#B2A985"/>
				<stop  offset="0.5692" style="stop-color:#A29975"/>
				<stop  offset="0.9157" style="stop-color:#89805C"/>
				<stop  offset="1" style="stop-color:#827955"/>
			</linearGradient>
			<path fill="url(#SVGID_2_)" stroke="#000000" stroke-width="6.25" stroke-linecap="round" stroke-linejoin="round" d="
				M246.52,33.402c0,15.576-33.921,29.44-65.542,29.44c-31.639,0-65.559-13.864-65.559-29.44c0-15.593,30.979-30.277,65.559-30.277
				C215.904,3.125,246.52,17.809,246.52,33.402z"/>
		</g>
		<path fill="none" stroke="#000000" stroke-width="6.25" stroke-linecap="round" stroke-linejoin="round" d="M244.983,94.205
			c0,15.579-32.385,31.077-64.006,31.077c-31.639,0-63.642-15.499-63.642-31.077"/>
		
			<line fill="none" stroke="#000000" stroke-width="6.25" stroke-linecap="round" stroke-linejoin="round" x1="154.354" y1="61.554" x2="155.479" y2="181.422"/>
		
			<line fill="none" stroke="#000000" stroke-width="6.25" stroke-linecap="round" stroke-linejoin="round" x1="206.383" y1="181.422" x2="207.513" y2="61.554"/>
	</g>
	<g>
		<linearGradient id="SVGID_3_" gradientUnits="userSpaceOnUse" x1="22.5029" y1="63.9277" x2="116.0675" y2="157.4923">
			<stop  offset="0" style="stop-color:#A19874"/>
			<stop  offset="0.241" style="stop-color:#9A926D"/>
			<stop  offset="0.5829" style="stop-color:#88805B"/>
			<stop  offset="0.9835" style="stop-color:#6A623C"/>
			<stop  offset="1" style="stop-color:#69613B"/>
		</linearGradient>
		<circle fill="url(#SVGID_3_)" stroke="#000000" stroke-width="2.5" cx="69.285" cy="110.71" r="66.16"/>
		
			<circle fill="none" stroke="#000000" stroke-width="6.25" stroke-linecap="round" stroke-linejoin="round" cx="69.285" cy="110.71" r="66.16"/>
		<path fill="none" stroke="#000000" stroke-width="6.25" stroke-linecap="round" stroke-linejoin="round" d="M127.643,141.896
			c-16.367,11.978-36.55,19.048-58.386,19.048c-21.627,0-41.638-6.938-57.921-18.714"/>
		<path fill="none" stroke="#000000" stroke-width="6.25" stroke-linecap="round" stroke-linejoin="round" d="M122.503,71.388
			c-15.774,8.755-33.934,13.74-53.253,13.74c-19.078,0-37.022-4.858-52.658-13.412"/>
		<g>
			<path fill="#FFFFFF" d="M54.38,89.073c0,3.315-2.686,5.999-5.998,5.999c-3.313,0-5.999-2.683-5.999-5.999
				c0-3.31,2.686-5.996,5.999-5.996C51.694,83.077,54.38,85.764,54.38,89.073z"/>
		</g>
		<path fill="none" stroke="#000000" stroke-width="6.25" stroke-linecap="round" stroke-linejoin="round" d="M134.19,102.345
			c-17.374,15.127-40.082,24.282-64.926,24.282c-24.699,0-47.28-9.043-64.606-24.008"/>
		<g>
			<line fill="none" stroke="#000000" stroke-width="6.25" x1="69.468" y1="45.038" x2="69.468" y2="175.875"/>
			<path fill="none" stroke="#000000" stroke-width="6.25" stroke-linecap="round" stroke-linejoin="round" d="M68.767,175.374
				c-22.308-8.469-38.553-34.533-38.553-65.371c0-30.746,16.15-56.748,38.358-65.296"/>
			<path fill="none" stroke="#000000" stroke-width="6.25" stroke-linecap="round" stroke-linejoin="round" d="M70.177,175.374
				c22.31-8.469,38.554-34.533,38.554-65.371c0-30.746-16.149-56.748-38.356-65.296"/>
		</g>
	</g>
	<g>
		
			<polyline fill-rule="evenodd" fill="#4C4526" stroke="#000000" stroke-width="6.25" stroke-linecap="round" stroke-linejoin="round" points="
			137.994,245.978 137.994,223.961 79.359,212.955 		"/>
		
			<polyline fill-rule="evenodd" fill="#655F42" stroke="#000000" stroke-width="6.25" stroke-linecap="round" stroke-linejoin="round" points="
			137.979,245.978 137.979,223.961 196.614,212.955 		"/>
		
			<polyline fill-rule="evenodd" fill="#7A7252" stroke="#000000" stroke-width="6.25" stroke-linecap="round" stroke-linejoin="round" points="
			137.979,223.961 196.632,212.955 178.876,155.312 		"/>
		
			<polyline fill-rule="evenodd" fill="#655E3F" stroke="#000000" stroke-width="6.25" stroke-linecap="round" stroke-linejoin="round" points="
			138.175,223.961 79.522,212.955 97.28,155.312 		"/>
		
			<polyline fill-rule="evenodd" fill="#4C4422" stroke="#000000" stroke-width="6.25" stroke-linecap="round" stroke-linejoin="round" points="
			79.359,212.955 97.131,155.312 80.328,147.213 		"/>
		
			<polyline fill-rule="evenodd" fill="#8E8663" stroke="#000000" stroke-width="6.25" stroke-linecap="round" stroke-linejoin="round" points="
			196.651,212.955 178.876,155.312 195.683,147.213 		"/>
		
			<polyline fill-rule="evenodd" fill="#7A7357" stroke="#000000" stroke-width="6.25" stroke-linecap="round" stroke-linejoin="round" points="
			138.141,115.454 97.131,155.312 80.328,147.213 		"/>
		
			<polyline fill-rule="evenodd" fill="#AFA787" stroke="#000000" stroke-width="6.25" stroke-linecap="round" stroke-linejoin="round" points="
			138.141,115.454 179.01,155.312 195.683,147.213 		"/>
		
			<polyline fill-rule="evenodd" fill="#C4BC9C" stroke="#000000" stroke-width="6.25" stroke-linecap="round" stroke-linejoin="round" points="
			179.151,155.312 138.141,115.454 97.131,155.312 		"/>
		<linearGradient id="SVGID_4_" gradientUnits="userSpaceOnUse" x1="138.0684" y1="155.3115" x2="138.0684" y2="223.9609">
			<stop  offset="0" style="stop-color:#B7AE8A"/>
			<stop  offset="0.2539" style="stop-color:#B2A985"/>
			<stop  offset="0.5692" style="stop-color:#A29975"/>
			<stop  offset="0.9157" style="stop-color:#89805C"/>
			<stop  offset="1" style="stop-color:#827955"/>
		</linearGradient>
		
			<polygon fill-rule="evenodd" fill="url(#SVGID_4_)" stroke="#000000" stroke-width="6.25" stroke-linecap="round" stroke-linejoin="round" points="
			179.005,155.312 138.067,223.961 97.131,155.312 		"/>
		
			<polygon fill-rule="evenodd" fill="none" stroke="#000000" stroke-width="6.25" stroke-linecap="round" stroke-linejoin="round" points="
			196.632,212.955 137.994,245.978 79.359,212.955 79.359,147.571 137.994,114.552 196.632,147.571 		"/>
	</g>
</g>
</svg>
