<?xml version="1.0" encoding="utf-8"?>
<!-- Generator: Adobe Illustrator 19.2.1, SVG Export Plug-In . SVG Version: 6.00 Build 0)  -->
<svg version="1.1" id="Layer_1" xmlns="http://www.w3.org/2000/svg" xmlns:xlink="http://www.w3.org/1999/xlink" x="0px" y="0px"
	 viewBox="0 0 240 240" enable-background="new 0 0 240 240" xml:space="preserve">
<path fill-rule="evenodd" clip-rule="evenodd" fill="#DB9456" stroke="#1D1D1D" stroke-width="8" stroke-miterlimit="10" d="
	M200.7,105.4C183.5,54.5,138.1,16.2,95.9,17C52,17.9,21.5,61.5,35.8,121.8c14.9,63,70.7,109.5,119.7,99.9
	C202.2,212.7,218.5,157.7,200.7,105.4z M145.1,161.9c-1.7,0.9-25.4-10.5-40.5-35.1c-11.7-19-8.9-47-9-47.2
	c-0.1-0.1,21.3,5.4,38.2,31.9C150.4,137.5,147.3,160.7,145.1,161.9z"/>
<g>
	<path fill="none" d="M133.8,111.5C121.5,92.2,106.7,84,99.7,81.1c-2.6-1.1-4.1-1.5-4.1-1.4c0,0.1-0.2,2.8-0.2,7
		c0,7.8,0.8,20.7,5.4,32.4c1,2.5,2.2,4.9,3.5,7.2c0.1,0.2,0.2,0.4,0.3,0.6c10.7,17.3,25.6,28.1,34.1,32.6c3.5,1.9,5.9,2.7,6.4,2.4
		c0.6-0.3,1.2-2.2,1.5-5.2c0.7-6.9-0.2-20.1-7.3-35.3c-1.1-2.3-2.4-4.7-3.8-7.1C135,113.4,134.4,112.4,133.8,111.5z"/>
	<path fill="none" d="M42.1,136.7c0,0,4.9,5,21.8-0.9c17.1-5.9,32.7-14.4,36.9-16.8c-4.6-11.7-5.4-24.6-5.4-32.4
		c-0.3,0-0.5,0-0.8-0.1c-2.2-0.5-3.5-2.6-3.1-4.7c0-0.2,2.7-13.5-2.6-32.8c-5.1-18.3-16.7-23.7-17.2-23.9c-0.9-0.4-1.5-1.1-1.9-1.9
		c-28.8,14.2-45.2,51.2-34,98.6c1.3,5.6,3,11,4.9,16.2l1.6-1.2C42.2,136.9,42.2,136.8,42.1,136.7z"/>
	<path fill="none" d="M96.6,46.9c4.6,16.6,3.8,29.2,3.1,34.2c7,2.9,21.8,11.1,34.1,30.4c0.6,0.9,1.2,1.9,1.7,2.8
		c3.8-2.6,12.8-8.4,27.9-14.9c14.4-6.3,26.1-7.1,32.2-6.9c-20-44.3-61.2-76.2-99.7-75.4c-6.1,0.1-12,1.1-17.5,2.8
		C83.3,23.1,92.2,31,96.6,46.9z"/>
	<path fill="none" d="M200.8,105.4c-0.5-1.6-1.1-3.2-1.7-4.7c-0.1,0-0.2,0-0.2,0c-0.1,0-13.6-2-32.2,6.1
		c-15.8,6.8-24.6,12.8-27.3,14.7c7.2,15.1,8.1,28.3,7.3,35.3c3.1,3.8,10.7,14.3,14.1,32.2c2.8,14.8-0.8,26.2-3.9,32.6
		C202.5,211.6,218.3,157.2,200.8,105.4z"/>
	<path fill="none" d="M151.5,213.6c2.5-7.4,3-15.2,1.5-23.2c-3.8-19.8-13.2-29.5-13.3-29.6c-0.4-0.4-0.7-0.9-0.9-1.4
		c-8.5-4.5-23.4-15.3-34.1-32.6c-0.1-0.2-0.2-0.4-0.3-0.6c-5,2.8-20.5,11.1-37.8,17.2c-7,2.4-12.5,3.3-16.8,3.3
		c-2.3,0-4.2-0.2-5.8-0.6c20.2,46.8,62.9,79.2,103,76.7c0.1-0.2,0.2-0.3,0.3-0.5C147.1,222.3,149.6,219.1,151.5,213.6z"/>
	<path fill="#1D1D1D" d="M163.5,99.4c-15.1,6.5-24.1,12.3-27.9,14.9c1.4,2.4,2.7,4.8,3.8,7.1c2.7-1.9,11.6-7.9,27.3-14.7
		c18.5-8,32-6.1,32.2-6.1c0.1,0,0.2,0,0.2,0c-1.1-2.8-2.2-5.5-3.4-8.2C189.6,92.3,177.9,93.1,163.5,99.4z"/>
	<path fill="#1D1D1D" d="M71.7,25.1c0.5,0.2,12.1,5.6,17.2,23.9c5.3,19.3,2.7,32.6,2.6,32.8c-0.5,2.2,0.9,4.3,3.1,4.7
		c0.3,0.1,0.5,0.1,0.8,0.1c0-4.2,0.2-6.9,0.2-7c0,0,1.5,0.3,4.1,1.4c0.6-5,1.4-17.6-3.1-34.2C92.2,31,83.3,23.1,78.4,19.8
		c-3,0.9-5.9,2.1-8.6,3.4C70.1,24.1,70.8,24.7,71.7,25.1z"/>
	<path fill="#1D1D1D" d="M160.8,188.9c-3.4-17.9-11-28.4-14.1-32.2c-0.3,3-0.9,4.9-1.5,5.2c-0.5,0.3-2.9-0.5-6.4-2.4
		c0.2,0.5,0.5,1,0.9,1.4c0.1,0.1,9.5,9.8,13.3,29.6c1.5,8.1,1,15.9-1.5,23.2c-1.9,5.5-4.3,8.7-4.3,8.7c-0.1,0.2-0.2,0.3-0.3,0.5
		c2.9-0.2,5.8-0.5,8.7-1.1c0.5-0.1,0.9-0.2,1.4-0.3C160,215.1,163.6,203.7,160.8,188.9z"/>
	<path fill="#1D1D1D" d="M66.5,143.4c17.4-6,32.8-14.4,37.8-17.2c-1.4-2.3-2.5-4.7-3.5-7.2c-4.3,2.4-19.9,10.9-36.9,16.8
		c-16.9,5.9-21.7,0.9-21.8,0.9c0.1,0.1,0.1,0.2,0.1,0.2l-1.6,1.2c1,2.7,2.1,5.4,3.2,8.1c1.6,0.4,3.5,0.6,5.8,0.6
		C54,146.7,59.5,145.9,66.5,143.4z"/>
</g>
<rect fill-rule="evenodd" clip-rule="evenodd" fill="none" width="240" height="240"/>
<rect fill-rule="evenodd" clip-rule="evenodd" fill="none" width="240" height="240"/>
</svg>
