<?xml version="1.0" encoding="utf-8"?>
<!-- Generator: Adobe Illustrator 19.2.1, SVG Export Plug-In . SVG Version: 6.00 Build 0)  -->
<svg version="1.1" id="Layer_1" xmlns="http://www.w3.org/2000/svg" xmlns:xlink="http://www.w3.org/1999/xlink" x="0px" y="0px"
	 viewBox="0 0 240 240" enable-background="new 0 0 240 240" xml:space="preserve">
<rect fill-rule="evenodd" clip-rule="evenodd" fill="none" width="240" height="240"/>
<rect fill-rule="evenodd" clip-rule="evenodd" fill="none" width="240" height="240"/>
<g>
	<path fill-rule="evenodd" clip-rule="evenodd" fill="#DB9456" d="M120,224.3c-22.4,0-43.6-5.4-59.6-15.1
		c-16.6-10.1-25.7-23.7-25.7-38.4c0-8.3,7-21.5,7.8-23L120,11.6l77.3,136.1c0.8,1.5,8,14.7,8,23c0,14.7-9.1,28.3-25.7,38.4
		C163.6,218.9,142.4,224.3,120,224.3z"/>
	<path fill="#1D1D1D" d="M120,19.7l73.8,130c0,0,7.4,13.5,7.4,21.1c0,27.3-36.4,49.5-81.3,49.5c-44.9,0-81.3-22.1-81.3-49.5
		c0-7.5,7.3-21.1,7.3-21.1L120,19.7 M120,3.5l-7,12.2l-74,130l0,0.1l0,0.1c-1.4,2.6-8.3,15.8-8.3,24.9c0,16.1,9.8,31,27.7,41.8
		c16.6,10.1,38.5,15.7,61.6,15.7c23.2,0,45.1-5.6,61.6-15.7c17.8-10.8,27.7-25.7,27.7-41.8c0-9.1-7-22.4-8.4-24.9l0,0l0,0L127,15.8
		L120,3.5L120,3.5z"/>
</g>
<rect x="116" y="16.6" fill-rule="evenodd" clip-rule="evenodd" fill="#1D1D1D" width="8" height="207"/>
<path fill-rule="evenodd" clip-rule="evenodd" fill="none" stroke="#1D1D1D" stroke-width="8" stroke-miterlimit="10" d="
	M178.7,114.2c0,17.7-26.3,32-58.7,32s-58.7-14.3-58.7-32"/>
</svg>
