<?xml version="1.0" encoding="utf-8"?>
<!-- Generator: Adobe Illustrator 13.0.2, SVG Export Plug-In . SVG Version: 6.00 Build 14948)  -->
<svg version="1.2" baseProfile="tiny" id="Layer_1" xmlns="http://www.w3.org/2000/svg" xmlns:xlink="http://www.w3.org/1999/xlink"
	 x="0px" y="0px" width="193.057px" height="249.703px" viewBox="0 0 193.057 249.703" xml:space="preserve">
<g>
	<g>
		<linearGradient id="SVGID_1_" gradientUnits="userSpaceOnUse" x1="3.125" y1="72.7471" x2="189.9316" y2="72.7471">
			<stop  offset="0" style="stop-color:#5B5331"/>
			<stop  offset="0.4" style="stop-color:#A19874"/>
			<stop  offset="0.5262" style="stop-color:#9A916E"/>
			<stop  offset="0.7053" style="stop-color:#887F5C"/>
			<stop  offset="0.915" style="stop-color:#69613F"/>
			<stop  offset="1" style="stop-color:#5B5331"/>
		</linearGradient>
		
			<path fill-rule="evenodd" fill="url(#SVGID_1_)" stroke="#000000" stroke-width="6.25" stroke-linecap="round" stroke-linejoin="round" d="
			M189.932,80.996c0,7.054,0,36.789,0,36.789c0-37.572-186.807-12.933-186.807-53.282c0-7.053,0-36.794,0-36.794
			C3.125,64.089,189.932,38.01,189.932,80.996z"/>
		<linearGradient id="SVGID_2_" gradientUnits="userSpaceOnUse" x1="3.125" y1="177.5859" x2="189.9316" y2="177.5859">
			<stop  offset="0" style="stop-color:#5B5331"/>
			<stop  offset="0.4" style="stop-color:#A19874"/>
			<stop  offset="0.5262" style="stop-color:#9A916E"/>
			<stop  offset="0.7053" style="stop-color:#887F5C"/>
			<stop  offset="0.915" style="stop-color:#69613F"/>
			<stop  offset="1" style="stop-color:#5B5331"/>
		</linearGradient>
		
			<path fill-rule="evenodd" fill="url(#SVGID_2_)" stroke="#000000" stroke-width="6.25" stroke-linecap="round" stroke-linejoin="round" d="
			M189.932,185.836c0,7.056,0,36.789,0,36.789c0-37.572-186.807-12.932-186.807-53.285c0-7.049,0-36.793,0-36.793
			C3.125,168.93,189.932,142.85,189.932,185.836z"/>
		<linearGradient id="SVGID_3_" gradientUnits="userSpaceOnUse" x1="3.125" y1="124.2349" x2="189.9316" y2="124.2349">
			<stop  offset="0" style="stop-color:#69613B"/>
			<stop  offset="0.5" style="stop-color:#B7AE8A"/>
			<stop  offset="0.6001" style="stop-color:#B2A985"/>
			<stop  offset="0.7244" style="stop-color:#A39A75"/>
			<stop  offset="0.8615" style="stop-color:#8A815C"/>
			<stop  offset="1" style="stop-color:#69613B"/>
		</linearGradient>
		
			<path fill-rule="evenodd" fill="url(#SVGID_3_)" stroke="#000000" stroke-width="6.25" stroke-linecap="round" stroke-linejoin="round" d="
			M189.932,115.987c0-7.056,0-36.791,0-36.791c0,37.572-186.807,12.934-186.807,53.288c0,7.048,0,36.789,0,36.789
			C3.125,132.895,189.932,158.971,189.932,115.987z"/>
		<linearGradient id="SVGID_4_" gradientUnits="userSpaceOnUse" x1="3.125" y1="34.3408" x2="79.0063" y2="34.3408">
			<stop  offset="0" style="stop-color:#69613B"/>
			<stop  offset="0.0599" style="stop-color:#6F6741"/>
			<stop  offset="0.4714" style="stop-color:#968E69"/>
			<stop  offset="0.799" style="stop-color:#AEA581"/>
			<stop  offset="1" style="stop-color:#B7AE8A"/>
		</linearGradient>
		
			<path fill-rule="evenodd" fill="url(#SVGID_4_)" stroke="#000000" stroke-width="6.25" stroke-linecap="round" stroke-linejoin="round" d="
			M79.006,38.506c-41.714,0-75.881,6.816-75.881,27.051c0,0,0-30.714,0-37.767c0-18.973,38.237-24.665,75.881-24.665V38.506z"/>
		<linearGradient id="SVGID_5_" gradientUnits="userSpaceOnUse" x1="114.04" y1="215.3623" x2="189.9248" y2="215.3623">
			<stop  offset="0" style="stop-color:#B7AE8A"/>
			<stop  offset="0.2002" style="stop-color:#B2A985"/>
			<stop  offset="0.4488" style="stop-color:#A39A75"/>
			<stop  offset="0.723" style="stop-color:#8A815C"/>
			<stop  offset="1" style="stop-color:#69613B"/>
		</linearGradient>
		
			<path fill-rule="evenodd" fill="url(#SVGID_5_)" stroke="#000000" stroke-width="6.25" stroke-linecap="round" stroke-linejoin="round" d="
			M114.04,211.197c41.717,0,75.885-6.816,75.885-27.051c0,0,0,30.715,0,37.769c0,18.972-38.238,24.663-75.885,24.663V211.197z"/>
	</g>
	<g>
		
			<line fill="none" stroke="#000000" stroke-width="6.25" stroke-linecap="round" stroke-linejoin="round" x1="61.936" y1="6.456" x2="61.936" y2="39.034"/>
		
			<line fill="none" stroke="#000000" stroke-width="6.25" stroke-linecap="round" stroke-linejoin="round" x1="24.417" y1="11.29" x2="24.417" y2="43.868"/>
		
			<line fill="none" stroke="#000000" stroke-width="6.25" stroke-linecap="round" stroke-linejoin="round" x1="169.817" y1="206.813" x2="169.817" y2="239.391"/>
		
			<line fill="none" stroke="#000000" stroke-width="6.25" stroke-linecap="round" stroke-linejoin="round" x1="131.797" y1="211.646" x2="131.797" y2="244.225"/>
		
			<line fill="none" stroke="#000000" stroke-width="6.25" stroke-linecap="round" stroke-linejoin="round" x1="159.902" y1="98.355" x2="159.902" y2="135.438"/>
		
			<line fill="none" stroke="#000000" stroke-width="6.25" stroke-linecap="round" stroke-linejoin="round" x1="119.38" y1="104.691" x2="119.38" y2="141.773"/>
		
			<line fill="none" stroke="#000000" stroke-width="6.25" stroke-linecap="round" stroke-linejoin="round" x1="76.831" y1="107.364" x2="76.831" y2="145.447"/>
		
			<line fill="none" stroke="#000000" stroke-width="6.25" stroke-linecap="round" stroke-linejoin="round" x1="35.308" y1="112.699" x2="35.308" y2="150.281"/>
		
			<line fill="none" stroke="#000000" stroke-width="6.25" stroke-linecap="round" stroke-linejoin="round" x1="176.683" y1="67.972" x2="176.683" y2="90.04"/>
		
			<line fill="none" stroke="#000000" stroke-width="6.25" stroke-linecap="round" stroke-linejoin="round" x1="136.159" y1="58.292" x2="136.159" y2="95.375"/>
		
			<line fill="none" stroke="#000000" stroke-width="6.25" stroke-linecap="round" stroke-linejoin="round" x1="94.644" y1="53.958" x2="94.644" y2="92.042"/>
		
			<line fill="none" stroke="#000000" stroke-width="6.25" stroke-linecap="round" stroke-linejoin="round" x1="54.089" y1="49.784" x2="54.089" y2="86.866"/>
		
			<line fill="none" stroke="#000000" stroke-width="6.25" stroke-linecap="round" stroke-linejoin="round" x1="16.238" y1="49.784" x2="16.238" y2="76.856"/>
		
			<line fill="none" stroke="#000000" stroke-width="6.25" stroke-linecap="round" stroke-linejoin="round" x1="176.683" y1="172.872" x2="176.683" y2="199.945"/>
		
			<line fill="none" stroke="#000000" stroke-width="6.25" stroke-linecap="round" stroke-linejoin="round" x1="136.159" y1="163.191" x2="136.159" y2="200.274"/>
		
			<line fill="none" stroke="#000000" stroke-width="6.25" stroke-linecap="round" stroke-linejoin="round" x1="94.644" y1="158.858" x2="94.644" y2="196.941"/>
		
			<line fill="none" stroke="#000000" stroke-width="6.25" stroke-linecap="round" stroke-linejoin="round" x1="54.089" y1="153.182" x2="54.089" y2="190.766"/>
		
			<line fill="none" stroke="#000000" stroke-width="6.25" stroke-linecap="round" stroke-linejoin="round" x1="16.238" y1="158.188" x2="16.238" y2="181.756"/>
	</g>
</g>
</svg>
