<?xml version="1.0" encoding="utf-8"?>
<!-- Generator: Adobe Illustrator 13.0.2, SVG Export Plug-In . SVG Version: 6.00 Build 14948)  -->
<svg version="1.2" baseProfile="tiny" id="Layer_1" xmlns="http://www.w3.org/2000/svg" xmlns:xlink="http://www.w3.org/1999/xlink"
	 x="0px" y="0px" width="177.344px" height="244.36px" viewBox="0 0 177.344 244.36" xml:space="preserve">
<g>
	<linearGradient id="SVGID_1_" gradientUnits="userSpaceOnUse" x1="3.125" y1="141.6772" x2="174.2188" y2="141.6772">
		<stop  offset="0" style="stop-color:#69613B"/>
		<stop  offset="0.2708" style="stop-color:#A19874"/>
		<stop  offset="0.4466" style="stop-color:#9A926D"/>
		<stop  offset="0.6959" style="stop-color:#88805B"/>
		<stop  offset="0.9879" style="stop-color:#6A623C"/>
		<stop  offset="1" style="stop-color:#69613B"/>
	</linearGradient>
	<path fill="url(#SVGID_1_)" stroke="#000000" stroke-width="6.25" stroke-linecap="round" stroke-linejoin="round" d="
		M170.078,200.71c0,20.313-40.229,40.524-81.466,40.524c-41.253,0-81.483-20.212-81.483-40.524L3.125,42.119h171.094L170.078,200.71
		z"/>
	<linearGradient id="SVGID_2_" gradientUnits="userSpaceOnUse" x1="3.125" y1="42.0601" x2="174.082" y2="42.0601">
		<stop  offset="0" style="stop-color:#B7AE8A"/>
		<stop  offset="0.2539" style="stop-color:#B2A985"/>
		<stop  offset="0.5692" style="stop-color:#A29975"/>
		<stop  offset="0.9157" style="stop-color:#89805C"/>
		<stop  offset="1" style="stop-color:#827955"/>
	</linearGradient>
	<path fill="url(#SVGID_2_)" stroke="#000000" stroke-width="6.25" stroke-linecap="round" stroke-linejoin="round" d="
		M174.082,42.605c0,20.315-44.233,38.39-85.47,38.39c-41.253,0-85.487-18.075-85.487-38.39c0-20.334,40.401-39.48,85.487-39.48
		C134.16,3.125,174.082,22.271,174.082,42.605z"/>
	
		<line fill="none" stroke="#000000" stroke-width="6.25" stroke-linecap="round" stroke-linejoin="round" x1="4.479" y1="41.727" x2="172.84" y2="41.727"/>
	<path fill="#494222" stroke="#000000" stroke-width="6.25" stroke-linecap="round" stroke-linejoin="round" d="M123.159,42.264
		c0,7.619-19.089,14.397-34.552,14.397c-15.47,0-34.561-6.779-34.561-14.397c0-7.625,17.652-14.805,34.561-14.805
		C105.688,27.459,123.159,34.639,123.159,42.264z"/>
	<path fill="none" stroke="#000000" stroke-width="6.25" stroke-linecap="round" stroke-linejoin="round" d="M172.08,121.892
		c0,20.313-42.231,40.524-83.468,40.524c-41.253,0-82.985-20.212-82.985-40.524"/>
	
		<line fill="none" stroke="#000000" stroke-width="6.25" stroke-linecap="round" stroke-linejoin="round" x1="53.897" y1="79.316" x2="55.369" y2="235.623"/>
	
		<line fill="none" stroke="#000000" stroke-width="6.25" stroke-linecap="round" stroke-linejoin="round" x1="121.743" y1="235.623" x2="123.215" y2="79.316"/>
	
		<line fill="none" stroke="#000000" stroke-width="6.25" stroke-linecap="round" stroke-linejoin="round" x1="53.613" y1="76.774" x2="71.479" y2="54.784"/>
	
		<line fill="none" stroke="#000000" stroke-width="6.25" stroke-linecap="round" stroke-linejoin="round" x1="105.002" y1="54.784" x2="122.869" y2="76.774"/>
	
		<line fill="none" stroke="#000000" stroke-width="6.25" stroke-linecap="round" stroke-linejoin="round" x1="122.869" y1="7.577" x2="105.002" y2="29.567"/>
	
		<line fill="none" stroke="#000000" stroke-width="6.25" stroke-linecap="round" stroke-linejoin="round" x1="71.479" y1="30.067" x2="53.613" y2="8.078"/>
</g>
</svg>
