<?xml version="1.0" encoding="utf-8"?>
<!-- Generator: Adobe Illustrator 19.2.1, SVG Export Plug-In . SVG Version: 6.00 Build 0)  -->
<svg version="1.1" id="Layer_1" xmlns="http://www.w3.org/2000/svg" xmlns:xlink="http://www.w3.org/1999/xlink" x="0px" y="0px"
	 viewBox="0 0 240 240" enable-background="new 0 0 240 240" xml:space="preserve">
<rect fill-rule="evenodd" clip-rule="evenodd" fill="none" width="240" height="240"/>
<path fill="#1D1D1D" d="M71,197.9"/>
<g>
	<g>
		<path fill-rule="evenodd" clip-rule="evenodd" fill="#DB9456" d="M119.9,226.3l-90.1-52.2V65.9L120,13.7l90.1,52.2v108.2
			L119.9,226.3z"/>
	</g>
	<polygon fill="#1D1D1D" points="204.8,65.5 119.8,114.5 34.9,65.5 30,68.1 30,71.9 115.8,121.4 115.8,225.7 116,225.8 123.5,225.8 
		123.8,225.6 123.8,121.4 209.7,71.9 209.7,68.1 	"/>
	<g>
		<path fill="#1D1D1D" d="M119.7,18.6l86.3,50v103.6l-86.4,50l-86.2-50V68.6L119.7,18.6 M119.7,9.4l-4,2.3l-86.3,50l-4,2.3v4.6
			v103.6v4.6l4,2.3l86.2,50l4,2.3l4-2.3l86.4-50l4-2.3v-4.6V68.6V64l-4-2.3l-86.3-50L119.7,9.4L119.7,9.4z"/>
	</g>
	<polyline fill="none" stroke="#1D1D1D" stroke-width="8" stroke-miterlimit="10" points="160.5,38.9 71,91 71,197.9 	"/>
	<polyline fill="none" stroke="#1D1D1D" stroke-width="8" stroke-miterlimit="10" points="80,38.9 169.5,91 169.5,197.9 	"/>
	<g>
		<line fill="none" stroke="#1D1D1D" stroke-width="8" stroke-miterlimit="10" x1="29.4" y1="120.5" x2="120" y2="172.7"/>
		<line fill="none" stroke="#1D1D1D" stroke-width="8" stroke-miterlimit="10" x1="120" y1="172.7" x2="210.6" y2="120.5"/>
	</g>
</g>
</svg>
