<?xml version="1.0" encoding="iso-8859-1"?>
<!-- Generator: Adobe Illustrator 19.2.1, SVG Export Plug-In . SVG Version: 6.00 Build 0)  -->
<svg version="1.1" id="Layer_1" xmlns="http://www.w3.org/2000/svg" xmlns:xlink="http://www.w3.org/1999/xlink" x="0px" y="0px"
	 viewBox="0 0 240 240" style="enable-background:new 0 0 240 240;" xml:space="preserve">
<g>
	<g style="opacity:0.5;">
		<path style="fill-rule:evenodd;clip-rule:evenodd;fill:#48AAB5;" d="M119.922,226.298L29.867,174.06V65.901l90.133-52.199
			l90.132,52.199V174.06L119.922,226.298z"/>
	</g>
</g>
<rect style="fill-rule:evenodd;clip-rule:evenodd;fill:none;" width="240" height="240"/>
<g>
	<path style="fill-rule:evenodd;clip-rule:evenodd;fill:#BDBDBD;" d="M119.922,226.298L119.922,226.298l0.079-108.596l0,0
		l90.132-51.801V174.06L119.922,226.298z"/>
</g>
<g>
	<g>
		<g>
			<defs>
				<polygon id="SVGID_1_" points="123.021,169.883 123.021,220.296 165.184,195.905 165.184,145.564 				"/>
			</defs>
			<use xlink:href="#SVGID_1_"  style="overflow:visible;fill-rule:evenodd;clip-rule:evenodd;fill:#1D1D1D;"/>
			<clipPath id="SVGID_2_">
				<use xlink:href="#SVGID_1_"  style="overflow:visible;"/>
			</clipPath>
		</g>
		<g>
			<defs>
				<polygon id="SVGID_3_" points="165.184,95.151 165.184,145.564 207.347,121.173 207.347,70.832 				"/>
			</defs>
			<use xlink:href="#SVGID_3_"  style="overflow:visible;fill-rule:evenodd;clip-rule:evenodd;fill:#1D1D1D;"/>
			<clipPath id="SVGID_4_">
				<use xlink:href="#SVGID_3_"  style="overflow:visible;"/>
			</clipPath>
		</g>
	</g>
</g>
<polygon style="fill:#1D1D1D;" points="204.779,65.453 119.847,114.489 34.916,65.453 30,68.072 30,71.853 115.847,121.417 
	115.847,225.705 116.022,225.798 123.523,225.798 123.847,225.625 123.847,121.417 209.695,71.853 209.695,68.072 "/>
<g>
	<path style="fill:#1D1D1D;" d="M119.695,18.606l86.316,49.989v103.58l-86.392,50.026l-86.242-50.026V68.595L119.695,18.606
		 M119.695,9.361l-4.009,2.322L29.368,61.673l-3.991,2.311v4.612v103.58v4.608l3.986,2.312l86.242,50.026l4.011,2.326l4.012-2.323
		l86.392-50.026l3.991-2.311v-4.612V68.595v-4.612l-3.991-2.311l-86.316-49.989L119.695,9.361L119.695,9.361z"/>
</g>
<g>
	<polygon style="fill-rule:evenodd;clip-rule:evenodd;fill:#48AAB5;" points="45.608,223.98 45.608,164.022 16.263,164.022 
		16.263,137.667 101.309,137.667 101.309,164.022 71.963,164.022 71.963,223.98 	"/>
	<path style="fill:#1D1D1D;" d="M97.309,141.667v18.355H75.963h-8v8v51.958H49.608v-51.958v-8h-8H20.263v-18.355H97.309
		 M105.309,133.667H12.263v34.355h29.345v59.958h34.355v-59.958h29.345V133.667L105.309,133.667z"/>
</g>
</svg>
