<?xml version="1.0" encoding="iso-8859-1"?>
<!-- Generator: Adobe Illustrator 19.2.1, SVG Export Plug-In . SVG Version: 6.00 Build 0)  -->
<svg version="1.1" id="Layer_1" xmlns="http://www.w3.org/2000/svg" xmlns:xlink="http://www.w3.org/1999/xlink" x="0px" y="0px"
	 viewBox="0 0 240 240" style="enable-background:new 0 0 240 240;" xml:space="preserve">
<rect style="fill-rule:evenodd;clip-rule:evenodd;fill:none;" width="240" height="240"/>
<g>
	<polygon style="fill-rule:evenodd;clip-rule:evenodd;fill:#BDBDBD;" points="19.087,205.636 84.001,140.721 70.801,127.521 
		127.733,112.266 112.478,169.198 99.278,155.997 34.363,220.912 	"/>
	<path style="fill:#1D1D1D;" d="M122.076,117.922l-5.834,21.774l-5.834,21.774l-11.13-11.13l-64.915,64.915l-9.62-9.62
		l64.915-64.915l-11.13-11.13l21.774-5.834L122.076,117.922 M133.39,106.608l-13.384,3.586l-21.774,5.834l-21.774,5.834
		l-13.384,3.586l9.798,9.798l5.473,5.473l-59.258,59.258l-5.657,5.657l5.657,5.657l9.62,9.62l5.657,5.657l5.657-5.657l59.258-59.258
		l5.473,5.473l9.798,9.798l3.586-13.384l5.834-21.774l5.834-21.774L133.39,106.608L133.39,106.608z"/>
</g>
<g>
	<path style="fill:#D6806D;" d="M205,222.275v-4C205,117.217,122.783,35,21.725,35h-4l-0.01-4V17h4
		C132.708,17,223,107.292,223,218.275v4H205z"/>
	<g>
		<path style="fill:#1D1D1D;" d="M21.725,21C130.503,21,219,109.498,219,218.275v0h-10v0C209,115.012,124.988,31,21.725,31
			c-0.003,0-0.006,0-0.01,0v-10C21.718,21.001,21.721,21,21.725,21 M21.725,13H21.64l-0.007,0h-7.918v8v10v8h8H21.8l0.006,0
			C120.625,39.04,201,119.447,201,218.275v8l8,0l10,0l8,0v-8C227,105.086,134.914,13,21.725,13L21.725,13z"/>
	</g>
</g>
<g>
	<rect x="17.715" y="37.807" style="fill-rule:evenodd;clip-rule:evenodd;fill:#BDBDBD;" width="18" height="68.803"/>
	<path style="fill:#1D1D1D;" d="M31.715,41.807v60.803h-10V41.807H31.715 M39.715,33.807h-8h-10h-8v8v60.803v8h8h10h8v-8V41.807
		V33.807L39.715,33.807z"/>
</g>
<g>
	<rect x="133.206" y="204.275" style="fill-rule:evenodd;clip-rule:evenodd;fill:#BDBDBD;" width="68.804" height="18"/>
	<path style="fill:#1D1D1D;" d="M198.01,208.275v10h-60.803v-10H198.01 M206.01,200.275h-8h-60.803h-8v8v10v8h8h60.803h8v-8v-10
		V200.275L206.01,200.275z"/>
</g>
</svg>
