<?xml version="1.0" encoding="iso-8859-1"?>
<!-- Generator: Adobe Illustrator 19.2.1, SVG Export Plug-In . SVG Version: 6.00 Build 0)  -->
<svg version="1.1" id="Layer_1" xmlns="http://www.w3.org/2000/svg" xmlns:xlink="http://www.w3.org/1999/xlink" x="0px" y="0px"
	 viewBox="0 0 240 240" style="enable-background:new 0 0 240 240;" xml:space="preserve">
<g>
	<linearGradient id="SVGID_1_" gradientUnits="userSpaceOnUse" x1="101.0283" y1="224.5" x2="101.0283" y2="54.4434">
		<stop  offset="0" style="stop-color:#000000"/>
		<stop  offset="0.393" style="stop-color:#696969"/>
		<stop  offset="0.8125" style="stop-color:#D4D4D4"/>
		<stop  offset="1" style="stop-color:#FFFFFF"/>
	</linearGradient>
	<rect x="16" y="54.443" style="fill:url(#SVGID_1_);" width="170.057" height="170.057"/>
	<path style="fill:#1D1D1D;" d="M182.057,58.443V220.5H20V58.443H182.057 M190.057,50.443H12V228.5h178.057V50.443L190.057,50.443z"
		/>
</g>
<g>
	<g id="XMLID_76_">
		<rect x="116.923" y="15.939" style="fill-rule:evenodd;clip-rule:evenodd;fill:#BDBDBD;" width="106.76" height="85.057"/>
	</g>
	<path style="fill-rule:evenodd;clip-rule:evenodd;fill:#A3A3A3;" d="M187.974,35.679L223,16.573v82.794H117.922l35.027-12.737
		L187.974,35.679z"/>
	<g id="XMLID_74_">
		<path style="fill:#1D1D1D;" d="M220,20.5v75.936h-99.395V20.5H220 M228,12.5H112.605v91.936H228V12.5L228,12.5z"/>
	</g>
	<path style="fill-rule:evenodd;clip-rule:evenodd;fill:none;stroke:#1D1D1D;stroke-width:8;stroke-miterlimit:10;" d="M119.499,98
		c0,0,18.126-4.067,34.668-13.066c16.543-9.001,18.124-43.266,34.666-52.267c16.543-8.999,34.667-13.066,34.667-13.066"/>
</g>
<rect style="fill-rule:evenodd;clip-rule:evenodd;fill:none;" width="240" height="240"/>
</svg>
