<?xml version="1.0" encoding="iso-8859-1"?>
<!-- Generator: Adobe Illustrator 19.2.1, SVG Export Plug-In . SVG Version: 6.00 Build 0)  -->
<svg version="1.1" id="Layer_1" xmlns="http://www.w3.org/2000/svg" xmlns:xlink="http://www.w3.org/1999/xlink" x="0px" y="0px"
	 viewBox="0 0 240 240" style="enable-background:new 0 0 240 240;" xml:space="preserve">
<g>
	<rect x="16" y="54.443" style="fill:#48AAB5;" width="170.057" height="170.057"/>
	<g>
		<path style="fill:#1D1D1D;" d="M182.057,58.443V220.5H20V58.443H182.057 M190.057,50.443H12V228.5h178.057V50.443L190.057,50.443z
			"/>
	</g>
</g>
<g>
	<g id="XMLID_72_">
		<rect x="116.923" y="15.939" style="fill-rule:evenodd;clip-rule:evenodd;fill:#BDBDBD;" width="106.76" height="85.057"/>
	</g>
	<path style="fill-rule:evenodd;clip-rule:evenodd;fill:#A3A3A3;" d="M187.974,35.679L223,16.573v82.794H117.922l35.027-12.737
		L187.974,35.679z"/>
	<g id="XMLID_68_">
		<path style="fill:#1D1D1D;" d="M220,20.5v75.936h-99.395V20.5H220 M228,12.5H112.605v91.936H228V12.5L228,12.5z"/>
	</g>
	<path style="fill-rule:evenodd;clip-rule:evenodd;fill:none;stroke:#1D1D1D;stroke-width:8;stroke-miterlimit:10;" d="M119.499,98
		c0,0,18.126-4.067,34.668-13.066c16.543-9.001,18.124-43.266,34.666-52.267c16.543-8.999,34.667-13.066,34.667-13.066"/>
</g>
<g>
	<path style="fill:#1D1D1D;" d="M29.476,189.704v-59.129h11.382v22.544H62.17v-22.544h11.382v59.129H62.17v-26.395H40.858v26.395
		H29.476z"/>
</g>
<g>
	<path style="fill:#1D1D1D;" d="M90.909,171.077c0.355,2.653,1.051,4.636,2.089,5.949c1.898,2.39,5.152,3.585,9.76,3.585
		c2.759,0,5-0.316,6.722-0.945c3.266-1.208,4.899-3.454,4.899-6.737c0-1.917-0.8-3.401-2.399-4.452
		c-1.601-1.024-4.138-1.931-7.612-2.718l-5.936-1.379c-5.834-1.366-9.841-2.85-12.023-4.453c-3.695-2.678-5.542-6.868-5.542-12.567
		c0-5.2,1.807-9.52,5.422-12.961c3.615-3.44,8.924-5.161,15.927-5.161c5.848,0,10.837,1.622,14.966,4.865s6.294,7.951,6.495,14.123
		h-11.009c-0.203-3.493-1.678-5.975-4.423-7.446c-1.83-0.971-4.105-1.458-6.825-1.458c-3.026,0-5.441,0.63-7.246,1.891
		c-1.805,1.261-2.707,3.021-2.707,5.279c0,2.075,0.89,3.624,2.669,4.649c1.144,0.684,3.571,1.484,7.284,2.404l9.621,2.403
		c4.217,1.051,7.377,2.456,9.483,4.215c3.268,2.732,4.902,6.684,4.902,11.858c0,5.305-1.937,9.711-5.809,13.217
		c-3.872,3.506-9.342,5.26-16.41,5.26c-7.218,0-12.895-1.727-17.03-5.181c-4.136-3.454-6.203-8.2-6.203-14.242H90.909z"/>
</g>
<g>
	<path style="fill:#1D1D1D;" d="M162.732,130.349h11.902l-18.692,60.07H145.12l-18.541-60.07h12.237l11.902,45.603L162.732,130.349z
		"/>
</g>
<rect style="fill-rule:evenodd;clip-rule:evenodd;fill:none;" width="240" height="240"/>
</svg>
