<?xml version="1.0" encoding="utf-8"?>
<!-- Generator: Adobe Illustrator 19.2.1, SVG Export Plug-In . SVG Version: 6.00 Build 0)  -->
<svg version="1.1" id="Layer_1" xmlns="http://www.w3.org/2000/svg" xmlns:xlink="http://www.w3.org/1999/xlink" x="0px" y="0px"
	 viewBox="0 0 240 240" enable-background="new 0 0 240 240" xml:space="preserve">
<path fill="#BDBDBD" stroke="#1D1D1D" stroke-width="8" stroke-linecap="round" stroke-miterlimit="10" d="M120,16.3
	C62.7,16.3,16.3,62.7,16.3,120c0,57.3,46.4,103.7,103.7,103.7S223.7,177.3,223.7,120C223.7,62.7,177.3,16.3,120,16.3z M120,207.4
	c-48.3,0-87.4-39.1-87.4-87.4S71.7,32.6,120,32.6s87.4,39.1,87.4,87.4S168.3,207.4,120,207.4z"/>
<g>
	<polygon fill-rule="evenodd" clip-rule="evenodd" fill="#BDBDBD" points="39.6,137.5 120,82.2 200.4,137.5 120,192.7 	"/>
	<path fill="#1D1D1D" d="M120,87.1l73.3,50.4L120,187.9l-73.3-50.4L120,87.1 M120,77.4l-87.4,60.1l87.4,60.1l87.4-60.1L120,77.4
		L120,77.4z"/>
</g>
<g id="XMLID_109_">
	<polygon fill-rule="evenodd" clip-rule="evenodd" fill="#BDBDBD" points="39.6,102.5 120,47.3 200.4,102.5 120,157.8 	"/>
	<g>
		<path fill="#1D1D1D" d="M120,52.1l73.3,50.4L120,152.9l-73.3-50.4L120,52.1 M120,42.4l-87.4,60.1l87.4,60.1l87.4-60.1L120,42.4
			L120,42.4z"/>
	</g>
</g>
<rect fill-rule="evenodd" clip-rule="evenodd" fill="none" width="240" height="240"/>
</svg>
