<?xml version="1.0" encoding="iso-8859-1"?>
<!-- Generator: Adobe Illustrator 19.2.1, SVG Export Plug-In . SVG Version: 6.00 Build 0)  -->
<svg version="1.1" id="Layer_1" xmlns="http://www.w3.org/2000/svg" xmlns:xlink="http://www.w3.org/1999/xlink" x="0px" y="0px"
	 viewBox="0 0 240 240" style="enable-background:new 0 0 240 240;" xml:space="preserve">
<g>
	<path style="fill:#BDBDBD;" d="M164.277,190.711c-22.297,0-32.454-24.038-41.415-45.247c-7.634-18.07-14.841-35.131-26.497-35.131
		c-16.206,0-33.863,35.619-39.875,52.869l-1.385,3.974L39.913,161l1.251-3.59c2.285-6.556,23.245-64.043,55.201-64.043
		c22.3,0,32.457,24.042,41.419,45.253c7.633,18.066,14.839,35.124,26.493,35.124c9.166,0,19.189-10.456,28.986-30.239
		c8.272-16.705,14.561-36.692,17.433-48.731l0.963-4.038l15.756,4.381l-0.895,3.749
		C224.279,108.266,203.491,190.711,164.277,190.711z"/>
	<path style="fill:#1D1D1D;" d="M214.587,95.701l8.043,2.236c-0.865,3.625-21.599,88.773-58.352,88.773
		c-19.648,0-28.841-21.764-37.733-42.811c-8.161-19.319-15.87-37.567-30.179-37.567c-19.927,0-38.267,40.101-43.652,55.553
		l-7.772-3.159c0.873-2.505,21.728-61.36,51.424-61.36c19.648,0,28.843,21.765,37.735,42.813
		c8.161,19.318,15.87,37.565,30.177,37.565C189.495,177.745,209.145,118.522,214.587,95.701 M208.732,85.77l-1.926,8.076
		c-2.823,11.837-9.002,31.48-17.127,47.885c-12.522,25.285-21.935,28.014-25.401,28.014c-9.002,0-16.02-16.611-22.806-32.675
		c-4.587-10.857-9.327-22.078-15.734-30.893c-8.106-11.154-17.988-16.81-29.372-16.81c-15.37,0-29.965,11.311-43.377,33.618
		c-9.391,15.62-14.994,31.365-15.601,33.108l-2.503,7.181l7.045,2.863l7.772,3.159l7.797,3.169l2.77-7.947
		c2.743-7.871,8.457-20.936,15.532-31.853c10.724-16.546,17.954-18.333,20.566-18.333c9.003,0,16.022,16.613,22.809,32.679
		c4.587,10.857,9.328,22.077,15.733,30.891c8.105,11.153,17.987,16.807,29.37,16.807c18.725,0,35.519-16.054,49.917-47.716
		c10.136-22.29,15.625-44.717,16.217-47.201l1.789-7.499l-7.427-2.065l-8.043-2.236L208.732,85.77L208.732,85.77z"/>
</g>
<g>
	<rect x="37.999" y="8.012" style="fill-rule:evenodd;clip-rule:evenodd;fill:#48AAB5;" width="16" height="224"/>
	<path style="fill:#1D1D1D;" d="M49.999,12.012v216h-8v-216H49.999 M57.999,4.012h-8h-8h-8v8v216v8h8h8h8v-8v-216V4.012
		L57.999,4.012z"/>
</g>
<g>
	<rect x="8.5" y="74.873" style="fill-rule:evenodd;clip-rule:evenodd;fill:#48AAB5;" width="224" height="16"/>
	<path style="fill:#1D1D1D;" d="M228.5,78.873v8h-216v-8H228.5 M236.5,70.873h-8h-216h-8v8v8v8h8h216h8v-8v-8V70.873L236.5,70.873z"
		/>
</g>
<g>
	<rect x="8.5" y="193.873" style="fill-rule:evenodd;clip-rule:evenodd;fill:#48AAB5;" width="224" height="16"/>
	<path style="fill:#1D1D1D;" d="M228.5,197.873v8h-216v-8H228.5 M236.5,189.873h-8h-216h-8v8v8v8h8h216h8v-8v-8V189.873
		L236.5,189.873z"/>
</g>
<rect style="fill-rule:evenodd;clip-rule:evenodd;fill:none;" width="240" height="240"/>
</svg>
