<?xml version="1.0" encoding="utf-8"?>
<!-- Generator: Adobe Illustrator 19.2.1, SVG Export Plug-In . SVG Version: 6.00 Build 0)  -->
<svg version="1.1" id="Layer_1" xmlns="http://www.w3.org/2000/svg" xmlns:xlink="http://www.w3.org/1999/xlink" x="0px" y="0px"
	 viewBox="0 0 240 240" enable-background="new 0 0 240 240" xml:space="preserve">
<rect fill-rule="evenodd" clip-rule="evenodd" fill="none" width="240" height="240"/>
<g>
	<path fill-rule="evenodd" clip-rule="evenodd" fill="#BDBDBD" d="M20.7,158L120,89.6l99.3,68.4l-99.4,68.4L20.7,158z M119.9,206.1
		l27.6-19L78,138.8L50.1,158L119.9,206.1z M162,177.2l27.9-19.2L120,109.9l-27.6,19L162,177.2z"/>
	<path fill="#1D1D1D" d="M120,94.4l92.2,63.5l-92.3,63.6L27.8,158L120,94.4 M162,182l34.9-24.1L120,105l-34.6,23.9L162,182
		 M119.9,211l34.7-23.9L78,134l-34.9,24L119.9,211 M120,84.7l-4.5,3.1l-92.2,63.5l-9.6,6.6l9.6,6.6l92.2,63.6l4.5,3.1l4.5-3.1
		l92.3-63.6l9.6-6.6l-9.6-6.6l-92.2-63.5L120,84.7L120,84.7z M99.4,128.9l20.6-14.2l62.8,43.3L162,172.3L99.4,128.9L99.4,128.9z
		 M57.2,158L78,143.7l62.6,43.4l-20.6,14.2L57.2,158L57.2,158z"/>
</g>
<rect fill-rule="evenodd" clip-rule="evenodd" fill="none" width="240" height="240"/>
<g>
	<path fill-rule="evenodd" clip-rule="evenodd" fill="#48AAB5" d="M73.5,170.8c-1,0-2.1-0.4-2.8-1.2c-1.1-1.1-1.5-2.7-0.9-4.2
		l13.6-37.9c0.2-0.6,0.5-1.1,0.9-1.5L190,20.4c2.7-2.7,6.4-4.2,10.2-4.2s7.5,1.5,10.2,4.2l9.5,9.5c5.6,5.6,5.6,14.8,0,20.5
		L114.2,156c-0.4,0.4-0.9,0.7-1.5,0.9l-37.9,13.6C74.4,170.7,74,170.8,73.5,170.8z"/>
	<path fill="#1D1D1D" d="M200.2,20.1c2.7,0,5.4,1,7.4,3.1l9.5,9.5c4.1,4.1,4.1,10.7,0,14.8l-4,4l-5.4,5.4l-96.3,96.3l-37.9,13.6
		l13.6-37.9l96.3-96.3l5.4-5.4l4-4C194.9,21.1,197.6,20.1,200.2,20.1 M200.2,12.1c-4.9,0-9.6,1.9-13.1,5.4l-4,4l-5.4,5.4l-96.3,96.3
		c-0.8,0.8-1.5,1.8-1.9,3L66,164.1c-1,2.9-0.3,6.2,1.9,8.4c1.5,1.5,3.6,2.3,5.7,2.3c0.9,0,1.8-0.2,2.7-0.5l37.9-13.6
		c1.1-0.4,2.1-1,3-1.9l96.3-96.3l5.4-5.4l4-4c7.2-7.2,7.2-18.9,0-26.1l-9.5-9.5C209.8,14,205.2,12.1,200.2,12.1L200.2,12.1z"/>
</g>
<g>
	
		<rect x="190.5" y="32.5" transform="matrix(0.7077 -0.7065 0.7065 0.7077 21.0642 149.0314)" fill-rule="evenodd" clip-rule="evenodd" fill="#48AAB5" width="0.4" height="33.1"/>
	<polygon fill="#1D1D1D" points="179.1,31.6 173.2,37.5 202.2,66.6 208.2,60.6 179.1,31.6 	"/>
</g>
<g>
	
		<rect x="101.8" y="121.4" transform="matrix(0.7065 -0.7077 0.7077 0.7065 -68.2788 112.8913)" fill-rule="evenodd" clip-rule="evenodd" fill="#48AAB5" width="0.4" height="34.8"/>
	<polygon fill="#1D1D1D" points="89.8,120.7 83.9,126.6 114.1,156.9 120.1,150.9 89.8,120.7 	"/>
</g>
</svg>
