<?xml version="1.0" encoding="iso-8859-1"?>
<!-- Generator: Adobe Illustrator 19.2.1, SVG Export Plug-In . SVG Version: 6.00 Build 0)  -->
<svg version="1.1" id="Layer_1" xmlns="http://www.w3.org/2000/svg" xmlns:xlink="http://www.w3.org/1999/xlink" x="0px" y="0px"
	 viewBox="0 0 240 240" style="enable-background:new 0 0 240 240;" xml:space="preserve">
<polygon style="fill:#D6D6D6;stroke:#3A3A3A;stroke-width:8;stroke-linecap:round;stroke-miterlimit:10;" points="133.708,142.037 
	133.708,4 105.708,4 105.708,142.037 80,142.037 119.708,193.493 159.417,142.037 "/>
<polygon style="fill:#D6D6D6;stroke:#3A3A3A;stroke-width:8;stroke-linecap:round;stroke-miterlimit:10;" points="208.363,159.785 
	208.363,172.333 208.363,182.452 208.363,208.363 183.667,208.363 176.333,208.363 143.667,208.363 136.333,208.363 
	103.667,208.363 96.333,208.363 63.667,208.363 31.637,208.363 31.637,199 31.637,189.785 31.637,159.785 16,159.785 16,189.785 
	16,199 16,224 16,224 63.667,224 96.333,224 103.667,224 136.333,224 143.667,224 176.333,224 183.667,224 208.363,224 224,224 
	224,182.452 224,172.333 224,159.785 "/>
<rect style="fill-rule:evenodd;clip-rule:evenodd;fill:none;" width="240" height="240"/>
</svg>
