<?xml version="1.0" encoding="iso-8859-1"?>
<!-- Generator: Adobe Illustrator 19.2.1, SVG Export Plug-In . SVG Version: 6.00 Build 0)  -->
<svg version="1.1" id="Layer_1" xmlns="http://www.w3.org/2000/svg" xmlns:xlink="http://www.w3.org/1999/xlink" x="0px" y="0px"
	 viewBox="0 0 240 240" style="enable-background:new 0 0 240 240;" xml:space="preserve">
<g>
	<path style="fill:#BDBDBD;" d="M120,224.271c-57.496,0-104.271-46.776-104.271-104.271C15.729,62.504,62.504,15.729,120,15.729
		c57.495,0,104.271,46.776,104.271,104.271C224.271,177.495,177.495,224.271,120,224.271z M73.807,186.81
		c13.624,9.477,29.5,14.462,46.193,14.462c44.813,0,81.271-36.458,81.271-81.271c0-16.693-4.985-32.569-14.462-46.193L73.807,186.81
		z M120,38.729c-44.813,0-81.271,36.458-81.271,81.271c0,16.693,4.985,32.569,14.462,46.192L166.192,53.191
		C152.569,43.714,136.693,38.729,120,38.729z"/>
	<path style="fill:#3A3A3A;" d="M120,19.729c55.29,0,100.271,44.981,100.271,100.271S175.29,220.271,120,220.271
		S19.729,175.29,19.729,120S64.71,19.729,120,19.729 M52.731,172.309L172.309,52.731C157.854,41.465,139.704,34.729,120,34.729
		c-47.019,0-85.271,38.252-85.271,85.271C34.729,139.704,41.465,157.854,52.731,172.309 M120,205.271
		c47.019,0,85.271-38.253,85.271-85.271c0-19.704-6.736-37.854-18.002-52.309L67.691,187.269
		C82.146,198.535,100.296,205.271,120,205.271 M120,11.729C60.299,11.729,11.729,60.299,11.729,120S60.299,228.271,120,228.271
		S228.271,179.701,228.271,120S179.701,11.729,120,11.729L120,11.729z M53.85,159.877C46.549,147.868,42.729,134.247,42.729,120
		c0-42.608,34.664-77.271,77.271-77.271c14.247,0,27.868,3.82,39.877,11.121L53.85,159.877L53.85,159.877z M80.123,186.15
		L186.15,80.123c7.301,12.008,11.121,25.629,11.121,39.877c0,42.608-34.664,77.271-77.271,77.271
		C105.753,197.271,92.132,193.451,80.123,186.15L80.123,186.15z"/>
</g>
<rect style="fill-rule:evenodd;clip-rule:evenodd;fill:none;" width="240" height="240"/>
</svg>
