<?xml version="1.0" encoding="utf-8"?>
<!-- Generator: Adobe Illustrator 13.0.2, SVG Export Plug-In . SVG Version: 6.00 Build 14948)  -->
<svg version="1.2" baseProfile="tiny" id="Layer_1" xmlns="http://www.w3.org/2000/svg" xmlns:xlink="http://www.w3.org/1999/xlink"
	 x="0px" y="0px" width="236.733px" height="197.552px" viewBox="0 0 236.733 197.552" xml:space="preserve">
<g>
	<polygon fill="#999999" stroke="#000000" stroke-width="5.2123" stroke-linecap="round" stroke-linejoin="round" points="
		2.606,152.241 121.617,2.606 234.126,41.789 125.524,194.945 	"/>
	<polygon stroke="#000000" stroke-width="3.5909" stroke-linecap="round" stroke-linejoin="round" points="69.563,83.284 
		17.936,147.212 121.984,183.274 168.802,117.864 	"/>
	<g>
		<polygon fill="#FFFFFF" stroke="#000000" stroke-width="3.5909" stroke-linecap="round" stroke-linejoin="round" points="
			86.08,114.908 67.684,138.575 103.72,151.064 121.035,127.027 		"/>
		<polygon fill="#FFFFFF" stroke="#000000" stroke-width="3.5909" stroke-linecap="round" stroke-linejoin="round" points="
			69.648,83.401 53.142,103.701 86.587,115.299 102.855,94.91 		"/>
		<polygon fill="#FFFFFF" stroke="#000000" stroke-width="3.5909" stroke-linecap="round" stroke-linejoin="round" points="
			136.302,106.572 120.612,127.526 153.775,139.019 168.494,117.916 		"/>
		<polygon fill="#FFFFFF" stroke="#000000" stroke-width="3.5909" stroke-linecap="round" stroke-linejoin="round" points="
			103.997,150.167 88.088,171.4 122.004,183.156 137.523,161.792 		"/>
		<polygon fill="#FFFFFF" stroke="#000000" stroke-width="3.5909" stroke-linecap="round" stroke-linejoin="round" points="
			35.26,125.905 17.956,147.354 51.304,158.912 68.703,137.5 		"/>
	</g>
	<polygon stroke="#000000" stroke-width="3.4114" stroke-linecap="round" stroke-linejoin="round" points="124.421,13.739 
		75.897,74.463 174.221,108.729 219.194,46.589 	"/>
	<g>
		<polygon fill="#6290BF" stroke="#000000" stroke-width="3.4114" stroke-linecap="round" stroke-linejoin="round" points="
			140.114,43.776 122.638,66.26 156.87,78.125 173.322,55.288 		"/>
		<polygon fill="#6290BF" stroke="#000000" stroke-width="3.4114" stroke-linecap="round" stroke-linejoin="round" points="
			124.504,13.845 108.823,33.135 140.598,44.15 156.051,24.779 		"/>
		<polygon fill="#6290BF" stroke="#000000" stroke-width="3.4114" stroke-linecap="round" stroke-linejoin="round" points="
			187.823,35.859 172.92,55.764 204.42,66.686 218.901,46.634 		"/>
		<polygon fill="#6290BF" stroke="#000000" stroke-width="3.4114" stroke-linecap="round" stroke-linejoin="round" points="
			157.135,77.275 142.021,97.447 174.242,108.616 188.987,88.317 		"/>
		<polygon fill="#6290BF" stroke="#000000" stroke-width="3.4114" stroke-linecap="round" stroke-linejoin="round" points="
			91.834,54.227 75.916,74.602 107.596,85.059 123.605,65.236 		"/>
	</g>
</g>
</svg>
