<?xml version="1.0" encoding="iso-8859-1"?>
<!-- Generator: Adobe Illustrator 19.2.1, SVG Export Plug-In . SVG Version: 6.00 Build 0)  -->
<svg version="1.1" id="Layer_1" xmlns="http://www.w3.org/2000/svg" xmlns:xlink="http://www.w3.org/1999/xlink" x="0px" y="0px"
	 viewBox="0 0 240 240" style="enable-background:new 0 0 240 240;" xml:space="preserve">
<rect style="fill-rule:evenodd;clip-rule:evenodd;fill:none;" width="240" height="240"/>
<path style="fill:#BDBDBD;stroke:#1D1D1D;stroke-width:8;stroke-linecap:round;stroke-linejoin:round;stroke-miterlimit:10;" d="
	M120,16.333C62.746,16.333,16.333,62.746,16.333,120c0,57.253,46.413,103.667,103.667,103.667S223.667,177.253,223.667,120
	C223.667,62.746,177.254,16.333,120,16.333z"/>
<path style="fill:#1D1D1D;" d="M168.917,110.386H129.5V50.314c0-5.128-4.196-9.323-9.323-9.323h0c-5.128,0-9.323,4.196-9.323,9.323
	v69.098c0,0.027,0.004,0.053,0.004,0.08c0,0.027-0.004,0.053-0.004,0.079c0,5.052,4.133,9.185,9.185,9.185h48.879
	c5.052,0,9.185-4.133,9.185-9.185C178.102,114.519,173.968,110.386,168.917,110.386z"/>
</svg>
