<?xml version="1.0" encoding="utf-8"?>
<!-- Generator: Adobe Illustrator 13.0.2, SVG Export Plug-In . SVG Version: 6.00 Build 14948)  -->
<svg version="1.2" baseProfile="tiny" id="Layer_1" xmlns="http://www.w3.org/2000/svg" xmlns:xlink="http://www.w3.org/1999/xlink"
	 x="0px" y="0px" width="255.339px" height="243.554px" viewBox="0 0 255.339 243.554" xml:space="preserve">
<g>
	<g>
		<path fill="none" stroke="#000000" stroke-width="8.75" stroke-linecap="round" stroke-linejoin="round" d="M60.423,22.067
			C28.483,46.486,54.472,70.28,74.199,44.921c22.448-28.86,33.185,22.852,10.331,32.568"/>
		<path fill="none" stroke="#000000" stroke-width="8.75" stroke-linecap="round" stroke-linejoin="round" d="M165.142,35.019
			c7.826-19.407-22.215-38.508-38.182-16.582c-14.512,19.927,4.991,46.331,26.909,49.153"/>
		<path fill="none" stroke="#000000" stroke-width="8.75" stroke-linecap="round" stroke-linejoin="round" d="M217.36,11.838
			c-8.14,0-38.34,14.487-8.14,36.309c42.896,31.008-12.837,66.692-30.371,19.421"/>
		<path fill="none" stroke="#000000" stroke-width="8.75" stroke-linecap="round" stroke-linejoin="round" d="M190.202,126.132
			c33.504-7.83,33.521-26.624,60.762-26.624"/>
		<path fill="none" stroke="#000000" stroke-width="8.75" stroke-linecap="round" stroke-linejoin="round" d="M206.47,143.037
			c4.387,12.832,2.504,18.784-3.753,25.996c-13.604,15.672,11.897,27.231,20.349,8.14c11.65-26.325,46.023,10.005,2.508,32.239"/>
		<path fill="none" stroke="#000000" stroke-width="8.75" stroke-linecap="round" stroke-linejoin="round" d="M194.235,205.597
			c3.442,13.147,13.149,41.016-25.991,29.114"/>
		<path fill="none" stroke="#000000" stroke-width="8.75" stroke-linecap="round" stroke-linejoin="round" d="M158.195,173.933
			c11.895,7.197,20.664,21.286-7.515,31.934c-15.283,5.775-23.792,19.096-21.602,28.803"/>
		<path fill="none" stroke="#000000" stroke-width="8.75" stroke-linecap="round" stroke-linejoin="round" d="M87.01,166.186
			c-9.392,10.95,1.1,22.741,10.023,33.181c35.068,41.014-32.251,55.735-32.251,18.16"/>
		<path fill="none" stroke="#000000" stroke-width="8.75" stroke-linecap="round" stroke-linejoin="round" d="M13.909,198.759
			c-3.127-35.379,40.392-17.852,51.668-47.905"/>
		<path fill="none" stroke="#000000" stroke-width="8.75" stroke-linecap="round" stroke-linejoin="round" d="M60.377,108.42
			c-6.577-0.315-22.969-0.261-20.037-15.652c3.756-19.724-14.491-29.868-27.238,0.623c-14.404,34.443,9.078,44.46,29.425,45.085"/>
	</g>
	<g>
		<path fill="none" stroke="#CA2128" stroke-width="8.75" stroke-linecap="round" stroke-linejoin="round" d="M56.141,17.783
			C24.202,42.204,50.19,65.996,69.915,40.637c22.45-28.857,33.187,22.852,10.332,32.571"/>
		<path fill="none" stroke="#CA2128" stroke-width="8.75" stroke-linecap="round" stroke-linejoin="round" d="M160.858,30.734
			c7.828-19.402-22.214-38.503-38.181-16.582c-14.513,19.932,4.993,46.335,26.909,49.155"/>
		<path fill="none" stroke="#CA2128" stroke-width="8.75" stroke-linecap="round" stroke-linejoin="round" d="M213.078,7.553
			c-8.138,0-38.34,14.487-8.138,36.311c42.896,31.011-12.839,66.694-30.371,19.421"/>
		<path fill="none" stroke="#CA2128" stroke-width="8.75" stroke-linecap="round" stroke-linejoin="round" d="M185.92,121.85
			c33.503-7.832,33.521-26.626,60.762-26.626"/>
		<path fill="none" stroke="#CA2128" stroke-width="8.75" stroke-linecap="round" stroke-linejoin="round" d="M202.187,138.754
			c4.388,12.832,2.506,18.784-3.752,25.993c-13.604,15.674,11.896,27.232,20.347,8.143c11.653-26.326,46.025,10.005,2.507,32.238"/>
		<path fill="none" stroke="#CA2128" stroke-width="8.75" stroke-linecap="round" stroke-linejoin="round" d="M189.953,201.316
			c3.442,13.146,13.149,41.013-25.989,29.113"/>
		<path fill="none" stroke="#CA2128" stroke-width="8.75" stroke-linecap="round" stroke-linejoin="round" d="M153.913,169.65
			c11.895,7.195,20.666,21.287-7.515,31.934c-15.284,5.774-23.792,19.1-21.602,28.807"/>
		<path fill="none" stroke="#CA2128" stroke-width="8.75" stroke-linecap="round" stroke-linejoin="round" d="M82.728,161.902
			c-9.392,10.951,1.099,22.744,10.024,33.181c35.067,41.016-32.252,55.739-32.252,18.161"/>
		<path fill="none" stroke="#CA2128" stroke-width="8.75" stroke-linecap="round" stroke-linejoin="round" d="M9.627,194.477
			c-3.128-35.378,40.392-17.854,51.667-47.903"/>
		<path fill="none" stroke="#CA2128" stroke-width="8.75" stroke-linecap="round" stroke-linejoin="round" d="M56.095,104.138
			c-6.576-0.313-22.969-0.261-20.037-15.652c3.756-19.727-14.489-29.868-27.238,0.623c-14.404,34.441,9.078,44.458,29.425,45.083"/>
	</g>
	<g>
		<circle fill="#77ABD4" cx="124.154" cy="119.509" r="45.424"/>
		<path fill="#4D85B0" d="M153.601,85.339c2.124,5.227,3.301,10.938,3.301,16.921c0,24.888-20.176,45.065-45.064,45.065
			c-11.636,0-22.246-4.416-30.241-11.66c6.388,17.361,23.068,29.739,42.642,29.739c25.09,0,45.425-20.335,45.425-45.425
			C169.663,106.093,163.423,93.671,153.601,85.339z"/>
		
			<circle fill="none" stroke="#000000" stroke-width="6.25" stroke-linecap="round" stroke-linejoin="round" cx="124.154" cy="119.509" r="45.424"/>
		<g>
			<circle fill="#FFFFFF" cx="109.803" cy="104.655" r="5.147"/>
		</g>
	</g>
</g>
</svg>
