<?xml version="1.0" encoding="utf-8"?>
<!-- Generator: Adobe Illustrator 13.0.2, SVG Export Plug-In . SVG Version: 6.00 Build 14948)  -->
<svg version="1.2" baseProfile="tiny" id="Layer_1" xmlns="http://www.w3.org/2000/svg" xmlns:xlink="http://www.w3.org/1999/xlink"
	 x="0px" y="0px" width="235.547px" height="124.825px" viewBox="0 0 235.547 124.825" xml:space="preserve">
<g>
	<g>
		<polyline stroke="#000000" stroke-width="2.5" stroke-linecap="round" stroke-linejoin="round" points="234.297,65.881 
			186.906,92.446 186.896,72.521 101.348,72.515 101.345,59.241 186.893,59.246 186.895,39.304 234.297,65.881 		"/>
		<polyline fill="#48B049" stroke="#48B049" stroke-width="2.5" stroke-linecap="round" stroke-linejoin="round" points="
			229.263,59.729 181.86,86.313 181.865,66.382 96.323,66.385 96.321,53.101 181.86,53.091 181.857,33.152 229.263,59.729 		"/>
	</g>
	<path fill="#77ABD4" stroke="#231F20" stroke-width="6.25" d="M116.707,59.912c0,31.35-25.42,56.775-56.787,56.775
		c-31.375,0-56.794-25.426-56.794-56.775c0-31.357,25.42-56.787,56.794-56.787C91.287,3.125,116.707,28.555,116.707,59.912z"/>
	
		<text transform="matrix(1 0 0 1 31.4404 97.3252)" fill="#FFFFFF" stroke="#FFFFFF" stroke-width="2.7121" stroke-linecap="round" stroke-linejoin="round" font-family="'Kievit-MediumSC'" font-size="110">F</text>
</g>
</svg>
