<?xml version="1.0" encoding="iso-8859-1"?>
<!-- Generator: Adobe Illustrator 19.2.1, SVG Export Plug-In . SVG Version: 6.00 Build 0)  -->
<svg version="1.1" id="Layer_1" xmlns="http://www.w3.org/2000/svg" xmlns:xlink="http://www.w3.org/1999/xlink" x="0px" y="0px"
	 viewBox="0 0 240 240" style="enable-background:new 0 0 240 240;" xml:space="preserve">
<g>
	<g>
		<path style="fill:#1D1D1D;" d="M170.721,153.127c2.999,0,5.732,0.264,8.202,0.793s4.585,1.397,6.349,2.602
			c1.764,1.206,3.131,2.808,4.101,4.806c0.97,2,1.455,4.468,1.455,7.408c0,3.175-0.721,5.82-2.16,7.937
			c-1.442,2.117-3.572,3.852-6.394,5.203c3.88,1.118,6.775,3.073,8.686,5.864c1.91,2.793,2.866,6.159,2.866,10.098
			c0,3.174-0.617,5.923-1.852,8.245c-1.234,2.323-2.896,4.219-4.983,5.688c-2.087,1.471-4.469,2.558-7.143,3.263
			c-2.676,0.706-5.423,1.059-8.246,1.059h-30.512v-62.965H170.721z"/>
	</g>
</g>
<g>
	<polygon style="fill-rule:evenodd;clip-rule:evenodd;fill:#48AAB5;stroke:#1D1D1D;stroke-width:8;stroke-miterlimit:10;" points="
		107.225,35.908 65.952,12.079 65.952,26.891 25.082,26.891 25.082,44.924 65.952,44.924 65.952,59.736 	"/>
	<g>
		<g>
			<path style="fill:#48AAB5;" d="M72.398,127.666l-4.762-14.021H49.789l-4.938,14.021H22.295l26.836-70.964h19.736l26.538,70.964
				H72.398z M61.283,95.327l-2.482-7.225l-2.564,7.225H61.283z"/>
			<path style="fill:#1D1D1D;" d="M66.093,60.702l23.546,62.965H75.264l-4.762-14.021H46.956l-4.938,14.021H28.084l23.811-62.965
				H66.093 M50.572,99.327h16.314L58.95,76.222h-0.176L50.572,99.327 M71.642,52.702h-5.549H51.895h-5.528l-1.955,5.17
				l-23.811,62.965l-4.095,10.83h11.578h13.934h5.664l1.882-5.342l3.057-8.679h12.15l2.919,8.594l1.843,5.427h5.732h14.375h11.533
				l-4.039-10.802L73.586,57.899L71.642,52.702L71.642,52.702z"/>
		</g>
	</g>
</g>
<polygon style="fill-rule:evenodd;clip-rule:evenodd;fill:#48AAB5;stroke:#1D1D1D;stroke-width:8;stroke-miterlimit:10;" points="
	215.846,128.333 174.573,104.505 174.573,119.317 133.703,119.317 133.703,137.35 174.573,137.35 174.573,152.162 "/>
<g>
	<g>
		<path style="fill:#48AAB5;" d="M137.091,220.092v-70.965h33.631c3.266,0,6.308,0.297,9.04,0.883
			c2.968,0.636,5.581,1.716,7.768,3.21c2.338,1.598,4.169,3.738,5.442,6.362c1.232,2.541,1.856,5.62,1.856,9.154
			c0,3.977-0.96,7.403-2.853,10.187c-0.552,0.81-1.179,1.574-1.879,2.293c1.643,1.189,3.034,2.613,4.164,4.265
			c2.366,3.46,3.565,7.617,3.565,12.357c0,3.821-0.78,7.227-2.319,10.122c-1.524,2.87-3.615,5.253-6.212,7.081
			c-2.467,1.737-5.302,3.036-8.427,3.86c-2.994,0.79-6.111,1.19-9.265,1.19H137.091z M169.752,201.333
			c1.066,0,2.089-0.104,3.041-0.308c0.755-0.162,1.378-0.409,1.906-0.756c0.375-0.246,0.664-0.577,0.909-1.04
			c0.137-0.261,0.373-0.9,0.373-2.186c0-1.899-0.388-3.156-1.151-3.735c-1.103-0.836-2.723-1.26-4.814-1.26h-11.079v9.284H169.752z
			 M168.958,174.613c1.604,0,2.815-0.32,3.703-0.979c0.507-0.375,0.763-1.222,0.763-2.518c0-1.044-0.196-1.506-0.28-1.656
			c-0.187-0.33-0.406-0.564-0.688-0.734c-0.458-0.275-1.028-0.476-1.695-0.596c-0.905-0.162-1.87-0.245-2.86-0.245h-8.963v6.728
			H168.958z"/>
		<path style="fill:#1D1D1D;" d="M170.721,153.127c2.999,0,5.732,0.264,8.202,0.793c2.469,0.529,4.585,1.397,6.349,2.602
			c1.764,1.206,3.131,2.808,4.101,4.806c0.97,1.999,1.455,4.468,1.455,7.408c0,3.175-0.721,5.82-2.16,7.937
			c-1.442,2.117-3.572,3.852-6.394,5.203c3.88,1.118,6.775,3.073,8.686,5.864c1.91,2.793,2.866,6.159,2.866,10.098
			c0,3.174-0.617,5.923-1.852,8.245c-1.234,2.323-2.896,4.219-4.983,5.688c-2.087,1.471-4.469,2.558-7.143,3.263
			c-2.676,0.706-5.423,1.059-8.246,1.059h-30.512v-62.965H170.721 M154.936,178.613h14.021c2.469,0,4.498-0.587,6.085-1.764
			c1.587-1.175,2.381-3.086,2.381-5.732c0-1.469-0.264-2.674-0.793-3.616c-0.529-0.939-1.235-1.675-2.117-2.205
			c-0.882-0.529-1.896-0.895-3.042-1.102c-1.146-0.206-2.337-0.309-3.571-0.309h-12.963V178.613 M154.936,205.333h14.815
			c1.352,0,2.646-0.132,3.88-0.397c1.235-0.264,2.322-0.705,3.263-1.323c0.939-0.617,1.689-1.455,2.249-2.513
			c0.558-1.058,0.838-2.41,0.838-4.057c0-3.232-0.912-5.541-2.734-6.922c-1.823-1.381-4.233-2.073-7.231-2.073h-15.08V205.333
			 M170.721,145.127h-29.63h-8v8v62.965v8h8h30.512c3.498,0,6.959-0.445,10.287-1.323c3.586-0.945,6.853-2.445,9.71-4.458
			c3.113-2.191,5.617-5.043,7.44-8.474c1.849-3.478,2.787-7.515,2.787-11.999c0-5.561-1.434-10.478-4.263-14.614
			c-0.606-0.885-1.27-1.715-1.991-2.49c2.162-3.375,3.256-7.407,3.256-11.997c0-4.144-0.759-7.811-2.257-10.899
			c-1.582-3.26-3.864-5.923-6.785-7.92c-2.62-1.79-5.71-3.074-9.187-3.819C177.593,145.454,174.27,145.127,170.721,145.127
			L170.721,145.127z M162.936,196.049h7.08c0.874,0,1.511,0.1,1.926,0.23c0.022,0.188,0.039,0.44,0.039,0.765
			c0,0.022,0,0.044,0,0.065c-0.007,0.002-0.015,0.003-0.023,0.005c-0.682,0.146-1.423,0.22-2.206,0.22h-6.815V196.049
			L162.936,196.049z"/>
	</g>
</g>
<g>
	<polygon style="fill-rule:evenodd;clip-rule:evenodd;fill:#BDBDBD;" points="116,131.918 101.644,146.273 88.726,133.356 
		103.082,119 88.726,104.644 101.644,91.726 116,106.082 130.356,91.726 143.274,104.644 128.918,119 143.274,133.356 
		130.356,146.274 	"/>
	<path style="fill:#1D1D1D;" d="M130.356,97.382l7.261,7.261L123.261,119l14.356,14.356l-7.261,7.261L116,126.261l-14.356,14.356
		l-7.261-7.261L108.739,119l-14.356-14.356l7.261-7.261L116,111.739L130.356,97.382 M130.356,86.069l-5.657,5.657L116,100.425
		l-8.699-8.699l-5.657-5.657l-5.657,5.657l-7.261,7.261l-5.657,5.657l5.657,5.657L97.425,119l-8.699,8.699l-5.657,5.657l5.657,5.657
		l7.261,7.261l5.657,5.657l5.657-5.657l8.699-8.699l8.699,8.699l5.657,5.657l5.657-5.657l7.261-7.261l5.657-5.657l-5.657-5.657
		L134.575,119l8.699-8.699l5.657-5.657l-5.657-5.657l-7.261-7.261L130.356,86.069L130.356,86.069z"/>
</g>
<rect style="fill-rule:evenodd;clip-rule:evenodd;fill:none;" width="240" height="240"/>
</svg>
