<?xml version="1.0" encoding="utf-8"?>
<!-- Generator: Adobe Illustrator 13.0.2, SVG Export Plug-In . SVG Version: 6.00 Build 14948)  -->
<svg version="1.2" baseProfile="tiny" id="Layer_1" xmlns="http://www.w3.org/2000/svg" xmlns:xlink="http://www.w3.org/1999/xlink"
	 x="0px" y="0px" width="253.396px" height="215.483px" viewBox="0 0 253.396 215.483" xml:space="preserve">
<g>
	<g>
		<polygon fill="#999999" stroke="#000000" stroke-width="5.2123" stroke-linecap="round" stroke-linejoin="round" points="
			8.611,159.278 127.623,9.643 240.131,48.825 131.531,201.982 		"/>
		<polygon stroke="#000000" stroke-width="3.5909" stroke-linecap="round" stroke-linejoin="round" points="75.569,90.32 
			23.941,154.249 127.989,190.312 174.806,124.9 		"/>
		<g>
			<polygon fill="#FFFFFF" stroke="#000000" stroke-width="3.5909" stroke-linecap="round" stroke-linejoin="round" points="
				92.084,121.943 73.689,145.611 109.725,158.101 127.041,134.063 			"/>
			<polygon fill="#FFFFFF" stroke="#000000" stroke-width="3.5909" stroke-linecap="round" stroke-linejoin="round" points="
				75.653,90.438 59.147,110.738 92.592,122.335 108.86,101.946 			"/>
			<polygon fill="#FFFFFF" stroke="#000000" stroke-width="3.5909" stroke-linecap="round" stroke-linejoin="round" points="
				142.306,113.608 126.617,134.562 159.781,146.056 174.5,124.951 			"/>
			<polygon fill="#FFFFFF" stroke="#000000" stroke-width="3.5909" stroke-linecap="round" stroke-linejoin="round" points="
				110.002,157.203 94.094,178.437 128.01,190.193 143.529,168.828 			"/>
			<polygon fill="#FFFFFF" stroke="#000000" stroke-width="3.5909" stroke-linecap="round" stroke-linejoin="round" points="
				41.266,132.941 23.961,154.391 57.309,165.947 74.708,144.536 			"/>
		</g>
		<polygon stroke="#000000" stroke-width="3.4114" stroke-linecap="round" stroke-linejoin="round" points="130.425,20.776 
			81.903,81.5 180.227,115.766 225.2,53.626 		"/>
		<g>
			<polygon fill="#6290BF" stroke="#000000" stroke-width="3.4114" stroke-linecap="round" stroke-linejoin="round" points="
				146.119,50.812 128.642,73.296 162.875,85.161 179.327,62.324 			"/>
			<polygon fill="#6290BF" stroke="#000000" stroke-width="3.4114" stroke-linecap="round" stroke-linejoin="round" points="
				130.509,20.882 114.828,40.171 146.604,51.186 162.056,31.815 			"/>
			<polygon fill="#6290BF" stroke="#000000" stroke-width="3.4114" stroke-linecap="round" stroke-linejoin="round" points="
				193.829,42.896 178.925,62.8 210.426,73.722 224.906,53.67 			"/>
			<polygon fill="#6290BF" stroke="#000000" stroke-width="3.4114" stroke-linecap="round" stroke-linejoin="round" points="
				163.14,84.312 148.026,104.483 180.247,115.653 194.993,95.353 			"/>
			<polygon fill="#6290BF" stroke="#000000" stroke-width="3.4114" stroke-linecap="round" stroke-linejoin="round" points="
				97.839,61.263 81.921,81.638 113.602,92.095 129.611,72.272 			"/>
		</g>
	</g>
	<g>
		
			<rect x="125.157" y="6.745" stroke="#000000" stroke-width="5.2123" stroke-linecap="round" stroke-linejoin="round" width="14.07" height="14.069"/>
		
			<rect x="120.588" y="2.606" stroke="#FDE852" stroke-width="5.2123" stroke-linecap="round" stroke-linejoin="round" width="14.069" height="14.071"/>
	</g>
	<g>
		
			<rect x="128.118" y="198.808" stroke="#000000" stroke-width="5.2123" stroke-linecap="round" stroke-linejoin="round" width="14.069" height="14.069"/>
		
			<rect x="123.548" y="194.669" stroke="#FDE852" stroke-width="5.2123" stroke-linecap="round" stroke-linejoin="round" width="14.069" height="14.071"/>
	</g>
	<g>
		
			<rect x="236.72" y="45.65" stroke="#000000" stroke-width="5.2123" stroke-linecap="round" stroke-linejoin="round" width="14.069" height="14.069"/>
		
			<rect x="232.151" y="41.511" stroke="#FDE852" stroke-width="5.2123" stroke-linecap="round" stroke-linejoin="round" width="14.069" height="14.072"/>
	</g>
	<g>
		
			<rect x="7.175" y="155.967" stroke="#000000" stroke-width="5.2123" stroke-linecap="round" stroke-linejoin="round" width="14.069" height="14.069"/>
		
			<rect x="2.606" y="151.828" stroke="#FDE852" stroke-width="5.2123" stroke-linecap="round" stroke-linejoin="round" width="14.069" height="14.07"/>
	</g>
	<g>
		
			<rect x="67.946" y="78.462" stroke="#000000" stroke-width="5.2123" stroke-linecap="round" stroke-linejoin="round" width="14.069" height="14.069"/>
		
			<rect x="63.377" y="74.322" stroke="#FDE852" stroke-width="5.2123" stroke-linecap="round" stroke-linejoin="round" width="14.069" height="14.072"/>
	</g>
	<g>
		
			<rect x="184.645" y="121.618" stroke="#000000" stroke-width="5.2123" stroke-linecap="round" stroke-linejoin="round" width="14.069" height="14.07"/>
		
			<rect x="180.076" y="117.479" stroke="#FDE852" stroke-width="5.2123" stroke-linecap="round" stroke-linejoin="round" width="14.069" height="14.071"/>
	</g>
</g>
</svg>
