<?xml version="1.0" encoding="utf-8"?>
<!-- Generator: Adobe Illustrator 19.2.1, SVG Export Plug-In . SVG Version: 6.00 Build 0)  -->
<svg version="1.1" id="Layer_1" xmlns="http://www.w3.org/2000/svg" xmlns:xlink="http://www.w3.org/1999/xlink" x="0px" y="0px"
	 viewBox="0 0 240 240" enable-background="new 0 0 240 240" xml:space="preserve">
<rect fill-rule="evenodd" clip-rule="evenodd" fill="none" width="240" height="240"/>
<rect fill-rule="evenodd" clip-rule="evenodd" fill="none" width="240" height="240"/>
<g>
	<circle cx="120" cy="120" r="103.7"/>
	<path fill="#1D1D1D" d="M120,227.7c-59.4,0-107.7-48.3-107.7-107.7C12.3,60.6,60.6,12.3,120,12.3c59.4,0,107.7,48.3,107.7,107.7
		C227.7,179.4,179.4,227.7,120,227.7z M120,20.3C65,20.3,20.3,65,20.3,120c0,55,44.7,99.7,99.7,99.7c55,0,99.7-44.7,99.7-99.7
		C219.7,65,175,20.3,120,20.3z"/>
</g>
</svg>
