<?xml version="1.0" encoding="utf-8"?>
<!-- Generator: Adobe Illustrator 22.0.0, SVG Export Plug-In . SVG Version: 6.00 Build 0)  -->
<svg version="1.1" id="图层_1" xmlns="http://www.w3.org/2000/svg" xmlns:xlink="http://www.w3.org/1999/xlink" x="0px" y="0px"
	 viewBox="0 0 64 64" style="enable-background:new 0 0 64 64;" xml:space="preserve">
<style type="text/css">
	.st0{fill:#5F5F5F;}
</style>
<path class="st0" d="M44,24h12c2.2,0,4-1.8,4-4V8c0-2.2-1.8-4-4-4H44c-2.2,0-4,1.8-4,4v4H24V8c0-2.2-1.8-4-4-4H8C5.8,4,4,5.8,4,8v12
	c0,2.2,1.8,4,4,4h12c0.4,0,0.7-0.1,1-0.1L40.1,43c-0.1,0.3-0.1,0.7-0.1,1v12c0,2.2,1.8,4,4,4h12c2.2,0,4-1.8,4-4V44c0-2.2-1.8-4-4-4
	H44c-0.4,0-0.7,0.1-1,0.1L23.9,21c0.1-0.3,0.1-0.7,0.1-1v-4h16v4C40,22.2,41.8,24,44,24z"/>
</svg>
