<?xml version="1.0" encoding="utf-8"?>
<!-- Generator: Adobe Illustrator 22.0.0, SVG Export Plug-In . SVG Version: 6.00 Build 0)  -->
<svg version="1.1" id="图层_1" xmlns="http://www.w3.org/2000/svg" xmlns:xlink="http://www.w3.org/1999/xlink" x="0px" y="0px"
	 viewBox="0 0 64 64" style="enable-background:new 0 0 64 64;" xml:space="preserve">
<style type="text/css">
	.st0{fill:#FFFFFF;}
</style>
<path class="st0" d="M52,40c-3.5,0-6.5,2.3-7.6,5.4C30.7,43.1,19.7,34.8,15.6,24H16c2.2,0,4-1.8,4-4v-2h24.3c0.9,3.4,4,6,7.7,6
	c4.4,0,8-3.6,8-8s-3.6-8-8-8c-3.7,0-6.8,2.6-7.7,6H20v-2c0-2.2-1.8-4-4-4H8c-2.2,0-4,1.8-4,4v8c0,2.2,1.8,4,4,4h3.4
	c4.1,12.9,16.8,22.9,32.7,25.4c0.7,3.8,3.9,6.6,7.9,6.6c4.4,0,8-3.6,8-8S56.4,40,52,40z"/>
</svg>
