<?xml version="1.0" encoding="utf-8"?>
<!-- Generator: Adobe Illustrator 22.0.0, SVG Export Plug-In . SVG Version: 6.00 Build 0)  -->
<svg version="1.1" id="图层_1" xmlns="http://www.w3.org/2000/svg" xmlns:xlink="http://www.w3.org/1999/xlink" x="0px" y="0px"
	 viewBox="0 0 64 64" style="enable-background:new 0 0 64 64;" xml:space="preserve">
<style type="text/css">
	.st0{fill:#BFBFBF;}
</style>
<path class="st0" d="M54.6,9.4C42.1-3.1,21.9-3.1,9.4,9.4s-12.5,32.8,0,45.3c12.5,12.5,32.8,12.5,45.3,0S67.1,21.9,54.6,9.4z
	 M45,50.3l-13-13L19.1,50.2c-1.5,1.5-3.8,1.5-5.3,0c-1.5-1.5-1.5-3.8,0-5.3l12.9-12.9L13.8,19.2c-1.5-1.5-1.5-3.8,0-5.3
	c1.5-1.5,3.8-1.5,5.3,0L32,26.8l13.1-13.1c1.5-1.5,3.8-1.5,5.3,0c1.5,1.5,1.5,3.8,0,5.3L37.3,32.1l13,13c1.5,1.5,1.5,3.8,0,5.3
	C48.8,51.7,46.4,51.7,45,50.3z"/>
</svg>
