<?xml version="1.0" encoding="utf-8"?>
<!-- Generator: Adobe Illustrator 22.0.0, SVG Export Plug-In . SVG Version: 6.00 Build 0)  -->
<svg version="1.1" id="图层_1" xmlns="http://www.w3.org/2000/svg" xmlns:xlink="http://www.w3.org/1999/xlink" x="0px" y="0px"
	 viewBox="0 0 64 64" style="enable-background:new 0 0 64 64;" xml:space="preserve">
<style type="text/css">
	.st0{fill:#7F7F7F;}
</style>
<path class="st0" d="M58.3,25H39V5.8c0-1-0.8-1.8-1.8-1.8H26.8c-1,0-1.8,0.8-1.8,1.8V25H5.8c-1,0-1.8,0.8-1.8,1.8v10.5
	c0,1,0.8,1.8,1.8,1.8H25v19.3c0,1,0.8,1.8,1.8,1.8h10.5c1,0,1.8-0.8,1.8-1.8V39h19.3c1,0,1.8-0.8,1.8-1.8V26.8
	C60,25.8,59.2,25,58.3,25z"/>
</svg>
