<?xml version="1.0" encoding="utf-8"?>
<!-- Generator: Adobe Illustrator 22.0.0, SVG Export Plug-In . SVG Version: 6.00 Build 0)  -->
<svg version="1.1" id="图层_1" xmlns="http://www.w3.org/2000/svg" xmlns:xlink="http://www.w3.org/1999/xlink" x="0px" y="0px"
	 viewBox="0 0 64 64" style="enable-background:new 0 0 64 64;" xml:space="preserve">
<style type="text/css">
	.st0{fill:#5F5F5F;}
</style>
<path class="st0" d="M17.6,5.7c-2.2,2.3-2.2,6.1,0,8.4l17,17.9L17.7,49.9c-2.2,2.3-2.2,6.1,0,8.4c2.2,2.3,5.7,2.3,7.9,0l20.8-22l0,0
	l0,0c1.1-1.1,1.6-2.6,1.6-4.1c0,0,0,0,0-0.1c0,0,0,0,0-0.1c0-1.5-0.5-3-1.6-4.1l0,0l0,0l-20.8-22C23.4,3.4,19.8,3.4,17.6,5.7z"/>
</svg>
