<?xml version="1.0" encoding="utf-8"?>
<!-- Generator: Adobe Illustrator 22.0.0, SVG Export Plug-In . SVG Version: 6.00 Build 0)  -->
<svg version="1.1" id="图层_1" xmlns="http://www.w3.org/2000/svg" xmlns:xlink="http://www.w3.org/1999/xlink" x="0px" y="0px"
	 viewBox="0 0 64 64" style="enable-background:new 0 0 64 64;" xml:space="preserve">
<style type="text/css">
	.st0{fill:#427FFF;}
</style>
<path class="st0" d="M46.4,58.3c2.2-2.3,2.2-6.1,0-8.4L29.4,32l16.9-17.9c2.2-2.3,2.2-6.1,0-8.4c-2.2-2.3-5.7-2.3-7.9,0l-20.8,22
	l0,0l0,0c-1.1,1.1-1.6,2.6-1.6,4.1c0,0,0,0,0,0.1c0,0,0,0,0,0.1c0,1.5,0.5,3,1.6,4.1l0,0l0,0l20.8,22C40.6,60.6,44.2,60.6,46.4,58.3
	z"/>
</svg>
