<?xml version="1.0" standalone="no"?><!DOCTYPE svg PUBLIC "-//W3C//DTD SVG 1.1//EN" "http://www.w3.org/Graphics/SVG/1.1/DTD/svg11.dtd"><svg t="1567077530761" class="icon" viewBox="0 0 1024 1024" version="1.1" xmlns="http://www.w3.org/2000/svg" p-id="8423" width="64" height="64" xmlns:xlink="http://www.w3.org/1999/xlink"><defs><style type="text/css"></style></defs><path d="M902.63552 512.9216v253.19424a37.35552 37.35552 0 0 1-37.33504 37.35552H784.384c-5.46816 0-10.83392-1.20832-15.7696-3.52256l-65.18784-30.3104v41.08288a37.33504 37.33504 0 0 1-37.35552 37.35552h-507.37152a37.31456 37.31456 0 0 1-37.33504-37.35552v-342.40512c0-20.64384 16.6912-37.35552 37.33504-37.35552h507.37152c20.64384 0 37.35552 16.71168 37.35552 37.35552v41.08288l65.18784-30.35136c4.9152-2.31424 10.30144-3.4816 15.7696-3.4816h80.91648c20.64384 0 37.33504 16.71168 37.33504 37.35552z m-353.97632-114.56512c61.29664 0 111.18592-49.88928 111.18592-111.2064s-49.88928-111.24736-111.18592-111.24736c-61.3376 0-111.26784 49.93024-111.26784 111.24736s49.93024 111.2064 111.26784 111.2064z m-295.85408 0c61.31712 0 111.2064-49.88928 111.2064-111.2064s-49.88928-111.24736-111.2064-111.24736c-61.3376 0-111.26784 49.93024-111.26784 111.24736s49.93024 111.2064 111.26784 111.2064z" p-id="8424" fill="#dfdfdf"></path></svg>