<?xml version="1.0" encoding="utf-8"?>
<!-- Generator: Adobe Illustrator 22.0.0, SVG Export Plug-In . SVG Version: 6.00 Build 0)  -->
<svg version="1.1" id="图层_1" xmlns="http://www.w3.org/2000/svg" xmlns:xlink="http://www.w3.org/1999/xlink" x="0px" y="0px"
	 viewBox="0 0 64 64" style="enable-background:new 0 0 64 64;" xml:space="preserve">
<style type="text/css">
	.st0{fill:#FFFF3F;}
</style>
<g>
	<path class="st0" d="M32,17.6c-7.7,0-14,5.9-14,13.2c0,8.7,6.1,10.9,6.1,15.9c0,1.2,1,2.4,2.4,3.3c-0.3,0.2-0.5,0.5-0.5,0.8
		c0,0.4,0.3,0.7,0.8,1c-0.5,0.3-0.8,0.6-0.8,1c0,0.4,0.3,0.7,0.8,1c-0.5,0.3-0.8,0.7-0.8,1c0,0.5,0.4,0.9,1.2,1.2
		c-0.3,0.3-0.5,0.5-0.5,0.8c0,0.9,1.4,1.6,3.4,1.9c0.3,0.6,1,1.1,1.9,1.1c0.8,0,1.5-0.4,1.9-1.1c2-0.3,3.4-1,3.4-1.9
		c0-0.3-0.2-0.6-0.4-0.8c0.8-0.3,1.2-0.8,1.2-1.2c0-0.4-0.3-0.7-0.8-1c0.5-0.3,0.8-0.7,0.8-1c0-0.4-0.3-0.7-0.8-1.1
		c0.5-0.3,0.8-0.6,0.8-1c0-0.3-0.2-0.6-0.5-0.8c1.4-0.8,2.4-2,2.4-3.2c0-5,6.1-7.2,6.1-15.9C46,23.5,39.8,17.6,32,17.6z M39.3,39
		c-1.4,2-3,4.3-3.1,7.4c-0.5,0.5-2.2,1.4-4.2,1.4c-2.1,0-3.8-0.9-4.2-1.4c-0.1-3.1-1.7-5.4-3.1-7.4c-1.6-2.2-3-4.4-3-8.2
		c0-5.3,4.6-9.6,10.4-9.6c5.7,0,10.4,4.3,10.4,9.6C42.4,34.6,40.9,36.8,39.3,39z"/>
	<path class="st0" d="M32,13c1,0,1.8-1.1,1.8-2.4V6.4C33.8,5.1,33,4,32,4s-1.8,1.1-1.8,2.4v4.2C30.2,11.9,31,13,32,13z"/>
	<path class="st0" d="M22.6,15.5c0.9-0.5,1-1.8,0.4-3l-2.2-3.7c-0.7-1.1-1.9-1.7-2.8-1.2c-0.9,0.5-1,1.8-0.4,3l2.2,3.7
		C20.5,15.5,21.7,16,22.6,15.5z"/>
	<path class="st0" d="M14.5,19.5l-3.7-2.1c-1.2-0.7-2.5-0.5-3,0.4s0,2.1,1.2,2.8l3.7,2.1c1.2,0.7,2.5,0.5,3-0.4
		C16.2,21.4,15.7,20.2,14.5,19.5z"/>
	<path class="st0" d="M55.1,42.5l-3.7-2.1c-1.2-0.7-2.5-0.5-3,0.4c-0.5,0.9,0,2.1,1.2,2.8l3.7,2.1c1.2,0.7,2.5,0.5,3-0.4
		C56.8,44.4,56.2,43.1,55.1,42.5z"/>
	<path class="st0" d="M13.2,31.5c0-1-1.1-1.8-2.4-1.8H6.4c-1.3,0-2.4,0.8-2.4,1.8s1.1,1.8,2.4,1.8h4.3
		C12.1,33.3,13.2,32.5,13.2,31.5z"/>
	<path class="st0" d="M57.6,29.7h-4.3c-1.3,0-2.4,0.8-2.4,1.8s1.1,1.8,2.4,1.8h4.3c1.3,0,2.4-0.8,2.4-1.8S58.9,29.7,57.6,29.7z"/>
	<path class="st0" d="M12.7,40.4l-3.7,2.1c-1.2,0.7-1.7,1.9-1.2,2.8c0.5,0.9,1.9,1,3,0.4l3.7-2.1c1.2-0.7,1.7-1.9,1.2-2.8
		C15.2,39.9,13.8,39.7,12.7,40.4z"/>
	<path class="st0" d="M51.3,22.6l3.7-2.1c1.2-0.7,1.7-1.9,1.2-2.8c-0.5-0.9-1.9-1-3-0.4l-3.7,2.1c-1.2,0.7-1.7,1.9-1.2,2.8
		C48.8,23.1,50.2,23.3,51.3,22.6z"/>
	<path class="st0" d="M46,7.7c-0.9-0.5-2.1,0-2.8,1.2L41,12.5c-0.7,1.1-0.5,2.5,0.4,3c0.9,0.5,2.1,0,2.8-1.2l2.2-3.7
		C47,9.5,46.9,8.2,46,7.7z"/>
</g>
</svg>
