<?xml version="1.0" encoding="utf-8"?>
<!-- Generator: Adobe Illustrator 22.0.0, SVG Export Plug-In . SVG Version: 6.00 Build 0)  -->
<svg version="1.1" id="layer" xmlns="http://www.w3.org/2000/svg" xmlns:xlink="http://www.w3.org/1999/xlink" x="0px" y="0px"
	 viewBox="0 0 64 64" style="enable-background:new 0 0 64 64;" xml:space="preserve">
<style type="text/css">
	.st0{fill:#3F7FFF;}
	.st1{fill:#FF7F3F;}
</style>
<path class="st0" d="M39.7,24.3c6.5,6.5,6.4,17,0,23.5l0,0l-7.4,7.3c-6.5,6.5-17,6.5-23.5,0s-6.5-17,0-23.5l4.1-4.1
	c1.1-1.1,2.9-0.4,3,1.2c0.1,1.9,0.4,3.9,1.1,5.8c0.2,0.6,0.1,1.3-0.4,1.8l-1.4,1.4c-3.1,3.1-3.2,8.1-0.1,11.2c3,3.1,8,3.1,11.1,0.1
	l7.4-7.3c3.1-3.1,3.1-8.1,0-11.1c-0.4-0.4-0.8-0.7-1.1-0.9c-0.5-0.3-0.7-0.8-0.8-1.4c0-1.2,0.4-2.3,1.3-3.3l2.3-2.3
	c0.6-0.6,1.6-0.7,2.3-0.2C38.3,23,39,23.6,39.7,24.3z"/>
<path class="st1" d="M55.1,8.9c-6.5-6.5-17-6.5-23.5,0l-7.4,7.3l0,0c-6.4,6.4-6.5,16.9,0,23.5c0.7,0.7,1.4,1.3,2.2,1.9
	c0.7,0.5,1.6,0.4,2.3-0.2l2.3-2.3c0.9-0.9,1.3-2.1,1.3-3.3c0-0.6-0.3-1.1-0.8-1.4c-0.3-0.2-0.7-0.5-1.1-0.9c-3.1-3.1-3.1-8.1,0-11.1
	l7.4-7.3c3.1-3.1,8.1-3.1,11.2,0c3,3.1,2.9,8.1-0.1,11.2l-1.4,1.4c-0.5,0.5-0.6,1.2-0.4,1.8c0.6,1.9,1,3.8,1.1,5.8
	c0.1,1.5,1.9,2.2,3,1.2l4.1-4.1C61.6,25.9,61.6,15.3,55.1,8.9z"/>
</svg>
