<?xml version="1.0" encoding="utf-8"?>
<!-- Generator: Adobe Illustrator 22.0.0, SVG Export Plug-In . SVG Version: 6.00 Build 0)  -->
<svg version="1.1" id="图层_1" xmlns="http://www.w3.org/2000/svg" xmlns:xlink="http://www.w3.org/1999/xlink" x="0px" y="0px"
	 viewBox="0 0 64 64" style="enable-background:new 0 0 64 64;" xml:space="preserve">
<style type="text/css">
	.st0{fill:#5F5F5F;}
</style>
<path class="st0" d="M47.3,41.8c0.1,2.2,1.2,3.5,3.4,3.8c2.1-0.2,3.3-1.5,3.5-3.8c-0.1-2.9-2.3-4.3-6.6-4.1v-3.5
	c4.5-0.1,6.7-1.4,6.6-3.9c-0.1-2.1-1.2-3.3-3.4-3.4c-1.8,0.3-2.9,1.4-3.2,3.4h-5.9c0.3-4.6,3.4-6.9,9.1-7.1c5.7,0.4,8.7,2.5,9.1,6.4
	c-0.1,3.4-1.8,5.5-5.2,6.3c3.6,1,5.3,3.2,5.3,6.8c-0.5,3.9-3.7,6.2-9.6,6.5c-6.1,0-9.1-2.4-9.1-7.2C41.3,41.8,47.3,41.8,47.3,41.8z
	 M31,15L16.1,31.3V15H7l0,0H4v2.8h3v30.9h9L46.1,15H31z"/>
</svg>
