<?xml version="1.0" encoding="utf-8"?>
<!-- Generator: Adobe Illustrator 22.0.0, SVG Export Plug-In . SVG Version: 6.00 Build 0)  -->
<svg version="1.1" id="图层_1" xmlns="http://www.w3.org/2000/svg" xmlns:xlink="http://www.w3.org/1999/xlink" x="0px" y="0px"
	 viewBox="0 0 64 64" style="enable-background:new 0 0 64 64;" xml:space="preserve">
<style type="text/css">
	.st0{fill:#427FFF;}
</style>
<path class="st0" d="M60,32c0,15.4-12.6,28-28,28S4,47.4,4,32S16.6,4,32,4S60,16.6,60,32z M8.7,32c0,12.8,10.5,23.3,23.3,23.3
	S55.3,44.8,55.3,32S44.8,8.7,32,8.7S8.7,19.2,8.7,32z"/>
<path class="st0" d="M32,48.3c2.6,0,4.7-2.1,4.7-4.7S34.6,39,32,39s-4.7,2.1-4.7,4.7S29.4,48.3,32,48.3z"/>
<path class="st0" d="M32,36.7c2.6,0,4.7-2.1,4.7-4.7s-2.1-4.7-4.7-4.7s-4.7,2.1-4.7,4.7C27.3,34.6,29.4,36.7,32,36.7z"/>
<path class="st0" d="M32,25c2.6,0,4.7-2.1,4.7-4.7s-2.1-4.7-4.7-4.7s-4.7,2.1-4.7,4.7S29.4,25,32,25z"/>
</svg>
