<?xml version="1.0" encoding="utf-8"?>
<!-- Generator: Adobe Illustrator 22.0.0, SVG Export Plug-In . SVG Version: 6.00 Build 0)  -->
<svg version="1.1" id="图层_1" xmlns="http://www.w3.org/2000/svg" xmlns:xlink="http://www.w3.org/1999/xlink" x="0px" y="0px"
	 viewBox="0 0 64 64" style="enable-background:new 0 0 64 64;" xml:space="preserve">
<style type="text/css">
	.st0{fill:#427FFF;}
</style>
<path class="st0" d="M32,60C16.6,60,4,47.4,4,32S16.6,4,32,4s28,12.6,28,28S47.4,60,32,60z M32,8.7C19.2,8.7,8.7,19.2,8.7,32
	S19.2,55.3,32,55.3S55.3,44.8,55.3,32S44.8,8.7,32,8.7z"/>
<path class="st0" d="M15.7,32c0,2.6,2.1,4.7,4.7,4.7S25,34.6,25,32s-2.1-4.7-4.7-4.7S15.7,29.4,15.7,32z"/>
<path class="st0" d="M27.3,32c0,2.6,2.1,4.7,4.7,4.7s4.7-2.1,4.7-4.7s-2.1-4.7-4.7-4.7S27.3,29.4,27.3,32z"/>
<path class="st0" d="M39,32c0,2.6,2.1,4.7,4.7,4.7c2.6,0,4.7-2.1,4.7-4.7s-2.1-4.7-4.7-4.7C41.1,27.3,39,29.4,39,32z"/>
</svg>
