<?xml version="1.0" encoding="utf-8"?>
<!-- Generator: Adobe Illustrator 22.0.0, SVG Export Plug-In . SVG Version: 6.00 Build 0)  -->
<svg version="1.1" id="图层_1" xmlns="http://www.w3.org/2000/svg" xmlns:xlink="http://www.w3.org/1999/xlink" x="0px" y="0px"
	 viewBox="0 0 64 64" style="enable-background:new 0 0 64 64;" xml:space="preserve">
<style type="text/css">
	.st0{fill:#427FFF;}
</style>
<path class="st0" d="M40.9,43.8c0.4-0.4,1.5-1.4,3.2-2.8c6.7-5.3,9.9-9,9.8-11c-0.2-2.1-1.3-3.2-3.3-3.3c-2,0.2-3.1,1.5-3.3,3.8
	h-5.9c0.1-4.9,3.2-7.4,9.2-7.5c5.9,0.3,9,2.7,9.2,7.1c0.2,3.1-2.7,6.8-8.8,11.3c-2.1,1.7-3.5,3-4.2,3.7H60V49H40.9V43.8z M30.8,15
	L16,31.4V15H7l0,0H4v2.9h3V49h9l29.8-34H30.8z"/>
</svg>
