<?xml version="1.0" encoding="utf-8"?>
<!-- Generator: Adobe Illustrator 22.0.0, SVG Export Plug-In . SVG Version: 6.00 Build 0)  -->
<svg version="1.1" id="图层_1" xmlns="http://www.w3.org/2000/svg" xmlns:xlink="http://www.w3.org/1999/xlink" x="0px" y="0px"
	 viewBox="0 0 64 64" style="enable-background:new 0 0 64 64;" xml:space="preserve">
<style type="text/css">
	.st0{fill:#FFFFFF;}
</style>
<path class="st0" d="M15,10.8c-3,0-5.4,2.4-5.4,5.4V49c0,3,2.4,5.4,5.4,5.4h32.7c3,0,5.4-2.4,5.4-5.4V27.5l5.6-5.4V51
	c0,5-4.2,9-9.2,9L13,60c-5,0-9-4-9-9l0-36.1c0-5,4-9.6,9-9.6l28.9,0l-5.4,5.6L15,10.8L15,10.8z M35.1,37.4l-12.1,3.4l3.5-12.1
	L35.1,37.4z M36.3,36.2l-8.7-8.6L46.7,8.6l8.7,8.6L36.3,36.2z M59.3,13.4l-2.6,2.6L48,7.3l2.6-2.6c1-0.9,2.5-1,3.4-0.1l5.4,5.4
	C60.3,10.9,60.2,12.4,59.3,13.4z"/>
</svg>
