<?xml version="1.0" encoding="utf-8"?>
<!-- Generator: Adobe Illustrator 22.0.0, SVG Export Plug-In . SVG Version: 6.00 Build 0)  -->
<svg version="1.1" id="图层_1" xmlns="http://www.w3.org/2000/svg" xmlns:xlink="http://www.w3.org/1999/xlink" x="0px" y="0px"
	 viewBox="0 0 64 64" style="enable-background:new 0 0 64 64;" xml:space="preserve">
<style type="text/css">
	.st0{fill:#FFFFFF;}
</style>
<path class="st0" d="M56,24H40V8c0-2.2-1.8-4-4-4H8C5.8,4,4,5.8,4,8v28c0,2.2,1.8,4,4,4h16v16c0,2.2,1.8,4,4,4h28c2.2,0,4-1.8,4-4
	V28C60,25.8,58.2,24,56,24z M28,24c-2.2,0-4,1.8-4,4v3.5H13.3v-18h18V24H28z M51.3,51.5h-18v-18h18V51.5z"/>
</svg>
