<?xml version="1.0" encoding="utf-8"?>
<!-- Generator: Adobe Illustrator 22.0.0, SVG Export Plug-In . SVG Version: 6.00 Build 0)  -->
<svg version="1.1" id="图层_1" xmlns="http://www.w3.org/2000/svg" xmlns:xlink="http://www.w3.org/1999/xlink" x="0px" y="0px"
	 viewBox="0 0 64 64" style="enable-background:new 0 0 64 64;" xml:space="preserve">
<style type="text/css">
	.st0{fill:#BFBFBF;}
</style>
<path class="st0" d="M56.5,52H60V12h-3.5c-1.9,0-3.5,1.5-3.5,3.3l0,0H25c0-1.8-1.6-3.3-3.5-3.3l0,0H18v16.7H7.5
	C5.6,28.7,4,30.2,4,32s1.6,3.3,3.5,3.3H18V52h3.5c1.9,0,3.5-1.5,3.5-3.3l0,0h28C53,50.5,54.6,52,56.5,52L56.5,52z M25,42V22h28v20
	H25z"/>
</svg>
