<?xml version="1.0" encoding="utf-8"?>
<!-- Generator: Adobe Illustrator 22.0.0, SVG Export Plug-In . SVG Version: 6.00 Build 0)  -->
<svg version="1.1" id="图层_1" xmlns="http://www.w3.org/2000/svg" xmlns:xlink="http://www.w3.org/1999/xlink" x="0px" y="0px"
	 viewBox="0 0 64 64" style="enable-background:new 0 0 64 64;" xml:space="preserve">
<style type="text/css">
	.st0{fill:#FFFFFF;}
</style>
<path class="st0" d="M52,5.6L52,5.6c2.4,0,4,1.8,4,4.4v44.4c0,2.7-1.6,4.4-4,4.4l0,0c-2.4,0-4-1.8-4-4.4V10C48,7.4,49.6,5.6,52,5.6z
	"/>
<path class="st0" d="M15,5.1l24.7,23.6c2,1.8,2,4.9,0,6.7L15,58.9c-1.6,1.8-4.4,1.3-5.6-0.4l0,0c-1.6-1.8-1.2-4.9,0.4-6.2l21.1-20
	L9.4,11.9c-1.6-1.8-2-4.4-0.4-6.2l0,0C10.6,3.8,13,3.4,15,5.1z"/>
</svg>
