<?xml version="1.0" encoding="utf-8"?>
<!-- Generator: Adobe Illustrator 22.0.0, SVG Export Plug-In . SVG Version: 6.00 Build 0)  -->
<svg version="1.1" id="图层_1" xmlns="http://www.w3.org/2000/svg" xmlns:xlink="http://www.w3.org/1999/xlink" x="0px" y="0px"
	 viewBox="0 0 64 64" style="enable-background:new 0 0 64 64;" xml:space="preserve">
<style type="text/css">
	.st0{fill:#5F5F5F;}
</style>
<path class="st0" d="M12,58.4L12,58.4c-2.4,0-4-1.8-4-4.4V9.6c0-2.7,1.6-4.4,4-4.4l0,0c2.4,0,4,1.8,4,4.4V54
	C16,56.6,14.4,58.4,12,58.4z"/>
<path class="st0" d="M49,58.9L24.3,35.3c-2-1.8-2-4.9,0-6.7L49,5.1c1.6-1.8,4.4-1.3,5.6,0.4l0,0c1.6,1.8,1.2,4.9-0.4,6.2l-21.1,20
	l21.5,20.4c1.6,1.8,2,4.4,0.4,6.2l0,0C53.4,60.2,51,60.6,49,58.9z"/>
</svg>
