<?xml version="1.0" encoding="utf-8"?>
<!-- Generator: Adobe Illustrator 22.0.0, SVG Export Plug-In . SVG Version: 6.00 Build 0)  -->
<svg version="1.1" id="图层_1" xmlns="http://www.w3.org/2000/svg" xmlns:xlink="http://www.w3.org/1999/xlink" x="0px" y="0px"
	 viewBox="0 0 64 64" style="enable-background:new 0 0 64 64;" xml:space="preserve">
<style type="text/css">
	.st0{fill:#BFBFBF;}
</style>
<path class="st0" d="M55.9,19.1L53.9,7.3c-0.4-2.2-2.5-3.6-4.6-3.3L37.4,6.1c-2.2,0.4-3.6,2.5-3.3,4.6l0.3,1.6l-16.5,4.8
	C17.1,16.5,16.1,16,15,16h-2c-2.2,0-4,1.8-4,4v2c0,1.7,1.1,3.1,2.6,3.7L12.4,40l-1.1,0.2c-2.2,0.4-3.6,2.5-3.3,4.6l2.1,11.8
	c0.4,2.2,2.5,3.6,4.6,3.3l11.8-2.1c2.2-0.4,3.6-2.5,3.3-4.6l-2.1-11.8c-0.4-2.2-2.5-3.6-4.6-3.3L21,38.5l-3.9-13.2
	c1-0.7,1.7-1.7,1.8-3l17-1.1l0.2,1.4c0.4,2.2,2.5,3.6,4.6,3.3l11.8-2.1C54.9,23.4,56.3,21.3,55.9,19.1z"/>
</svg>
