<?xml version="1.0" encoding="utf-8"?>
<!-- Generator: Adobe Illustrator 22.0.0, SVG Export Plug-In . SVG Version: 6.00 Build 0)  -->
<svg version="1.1" id="basic" xmlns="http://www.w3.org/2000/svg" xmlns:xlink="http://www.w3.org/1999/xlink" x="0px" y="0px"
	 viewBox="0 0 64 64" style="enable-background:new 0 0 64 64;" xml:space="preserve">
<style type="text/css">
	.st0{fill:#BFBFBF;}
</style>
<path class="st0" d="M58.2,16.2L47.8,5.8C46.6,4.6,45.1,4,43.5,4H10c-3.3,0-6,2.7-6,6v44c0,3.3,2.7,6,6,6h44c3.3,0,6-2.7,6-6V20.5
	C60,18.9,59.4,17.4,58.2,16.2z M32,52c-4.4,0-8-3.6-8-8s3.6-8,8-8s8,3.6,8,8S36.4,52,32,52z M44,13.9v12.6c0,0.8-0.7,1.5-1.5,1.5
	h-29c-0.8,0-1.5-0.7-1.5-1.5v-13c0-0.8,0.7-1.5,1.5-1.5h28.6c0.4,0,0.8,0.2,1.1,0.4l0.4,0.4C43.8,13.2,44,13.5,44,13.9z"/>
</svg>
