<?xml version="1.0" encoding="utf-8"?>
<!-- Generator: Adobe Illustrator 22.0.0, SVG Export Plug-In . SVG Version: 6.00 Build 0)  -->
<svg version="1.1" id="basic" xmlns="http://www.w3.org/2000/svg" xmlns:xlink="http://www.w3.org/1999/xlink" x="0px" y="0px"
	 viewBox="0 0 64 64" style="enable-background:new 0 0 64 64;" xml:space="preserve">
<style type="text/css">
	.st0{fill:#427FFF;}
</style>
<path class="st0" d="M52.4,9.1H29.5c-0.7,0-1.3,0.2-1.8,0.7c-0.5,0.5-0.7,1.1-0.7,1.8v22.9c0,0.7,0.2,1.3,0.7,1.8
	c0.5,0.5,1.1,0.7,1.8,0.7h22.9c0.7,0,1.3-0.3,1.8-0.7c0.5-0.5,0.7-1.1,0.7-1.8V11.6c0-0.7-0.2-1.3-0.7-1.8
	C53.7,9.3,53.1,9.1,52.4,9.1z M21.8,34.5v-7.6H11.6c-0.7,0-1.3,0.2-1.8,0.7c-0.5,0.5-0.7,1.1-0.7,1.8v22.9c0,0.7,0.3,1.3,0.7,1.8
	c0.5,0.5,1.1,0.7,1.8,0.7h22.9c0.7,0,1.3-0.2,1.8-0.7c0.5-0.5,0.7-1.1,0.7-1.8V42.2h-7.6c-2.1,0-3.9-0.7-5.4-2.2
	C22.6,38.5,21.8,36.7,21.8,34.5L21.8,34.5L21.8,34.5z M29.5,4h22.9c2.1,0,3.9,0.7,5.4,2.2c1.5,1.5,2.2,3.3,2.2,5.4v22.9
	c0,2.1-0.7,3.9-2.2,5.4c-1.5,1.5-3.3,2.2-5.4,2.2H42.2v10.2c0,2.1-0.7,3.9-2.2,5.4c-1.5,1.5-3.3,2.2-5.4,2.2H11.6
	c-2.1,0-3.9-0.7-5.4-2.2C4.7,56.3,4,54.5,4,52.4V29.5c0-2.1,0.7-3.9,2.2-5.4c1.5-1.5,3.3-2.2,5.4-2.2h10.2V11.6
	c0-2.1,0.7-3.9,2.2-5.4C25.5,4.7,27.3,4,29.5,4L29.5,4z"/>
</svg>
