<?xml version="1.0" encoding="utf-8"?>
<!-- Generator: Adobe Illustrator 22.0.0, SVG Export Plug-In . SVG Version: 6.00 Build 0)  -->
<svg version="1.1" id="图层_1" xmlns="http://www.w3.org/2000/svg" xmlns:xlink="http://www.w3.org/1999/xlink" x="0px" y="0px"
	 viewBox="0 0 64 64" style="enable-background:new 0 0 64 64;" xml:space="preserve">
<style type="text/css">
	.st0{fill:#BFBFBF;}
</style>
<path class="st0" d="M30.6,59.8c-3.7,0-6.9-2.5-7.4-6l-0.3-2.6c-1.5-0.6-3-1.4-4.4-2.3L15.7,50c-3.4,1.3-7.3,0.1-9.2-2.8L5.2,45
	c-2.1-3.1-1.3-7.2,1.8-9.4L9.3,34v-2.2c-0.1-0.8-0.1-1.6,0-2.3l-2.1-1.5c-3.1-2.2-4-6.1-2.1-9.2l1.3-2.2c1.8-3,5.7-4.3,9.1-3l3,1.1
	c1.4-0.9,2.8-1.7,4.4-2.3l0.3-2.3c0.5-3.4,3.6-5.9,7.3-6h2.9c3.7,0,6.9,2.5,7.4,6l0.4,2.6c1.5,0.6,3,1.4,4.4,2.3l2.8-1.1
	c3.4-1.3,7.3-0.1,9.2,2.8l1.4,2.1c2.1,3.1,1.3,7.2-1.8,9.4l-2.2,1.6c0.1,0.8,0.1,1.6,0.1,2.3c0,0.7,0,1.5-0.1,2.2l2.1,1.5
	c3.1,2.1,4,6.1,2.1,9.2l-1.3,2.2c-1.8,3-5.7,4.3-9.1,3l-3-1.1c-1.3,0.9-2.8,1.7-4.3,2.3L40.8,54c-0.5,3.4-3.6,6-7.3,6h-2.9V59.8z
	 M18.6,44.1c0.9,0,1.8,0.3,2.5,0.8c1.3,0.9,2.6,1.6,4.1,2.2c1.3,0.5,2.3,1.7,2.5,3l0.5,3.1c0.2,1.2,1.2,2,2.5,2h2.9
	c1.2,0,2.3-0.9,2.5-2l0.5-3c0.2-1.4,1.1-2.5,2.5-3c1.4-0.5,2.8-1.3,4-2.1c1.1-0.8,2.6-1,4-0.5l3.4,1.2c1.1,0.4,2.4,0,3-1l1.3-2.2
	c0.6-1,0.3-2.4-0.7-3.1l-2.5-1.8c-1.2-0.8-1.8-2.2-1.6-3.6c0.1-0.7,0.1-1.4,0.1-2.1c0-0.7-0.1-1.4-0.1-2.1c-0.2-1.4,0.4-2.8,1.6-3.6
	l2.6-1.9c1-0.7,1.3-2.1,0.6-3.1l-1.4-2.1c-0.6-1-1.9-1.4-3.1-0.9l-3.3,1.1c-1.4,0.5-2.9,0.3-4.1-0.5c-1.2-0.9-2.6-1.6-4-2.2
	c-1.3-0.5-2.3-1.7-2.5-3l-0.4-3c-0.2-1.2-1.2-2-2.5-2h-3c-1.3,0-2.3,0.9-2.5,2.1l-0.4,2.9c-0.2,1.4-1.1,2.6-2.5,3.1
	c-1.4,0.6-2.8,1.3-4,2.1c-1.1,0.8-2.7,1-4,0.5l-3.5-1.2c-1.1-0.4-2.4,0-3,1l-1.3,2.2c-0.6,1-0.3,2.3,0.7,3l2.5,1.8
	c1.2,0.8,1.8,2.2,1.6,3.6C14,30.4,14,31.1,14,31.8s0.1,1.4,0.1,2.1c0.2,1.4-0.4,2.8-1.6,3.6L10,39.5c-1,0.7-1.3,2.1-0.6,3.1l1.4,2.1
	c0.6,1,1.9,1.4,3.1,0.9l3.2-1.2C17.4,44.2,18,44.1,18.6,44.1z M32,42.9c-6.4,0-11.5-4.9-11.5-10.9S25.7,21,32,21.1
	s11.5,4.8,11.5,10.8c0,2.9-1.2,5.6-3.4,7.7C38,41.7,35.1,42.8,32,42.9L32,42.9z M32,25.7c-3.6,0-6.5,2.8-6.5,6.2s3,6.2,6.6,6.2
	s6.5-2.8,6.5-6.2C38.6,28.4,35.7,25.6,32,25.7C32.1,25.6,32,25.6,32,25.7L32,25.7z"/>
</svg>
