<?xml version="1.0" encoding="utf-8"?>
<!-- Generator: Adobe Illustrator 22.0.0, SVG Export Plug-In . SVG Version: 6.00 Build 0)  -->
<svg version="1.1" id="layer" xmlns="http://www.w3.org/2000/svg" xmlns:xlink="http://www.w3.org/1999/xlink" x="0px" y="0px"
	 viewBox="0 0 64 64" style="enable-background:new 0 0 64 64;" xml:space="preserve">
<style type="text/css">
	.st0{fill:#BFBFBF;}
</style>
<path class="st0" d="M6.2,32c0,7.1,2.5,13.2,7.5,18.2c4.8,4.8,10.6,7.3,17.3,7.6V6.2C24.3,6.4,18.5,9,13.7,13.7
	C8.7,18.7,6.2,24.9,6.2,32z"/>
<path class="st0" d="M33.1,57.8c4.2-0.2,8-1.2,11.5-3.2H33.1V57.8z"/>
<path class="st0" d="M33.1,52.5h14.7c0.9-0.7,1.7-1.4,2.5-2.2c0.3-0.3,0.7-0.7,1-1H33.1C33.1,49.2,33.1,52.5,33.1,52.5z"/>
<path class="st0" d="M33.1,47.1H53c0.8-1,1.5-2.1,2.1-3.2h-22C33.1,43.8,33.1,47.1,33.1,47.1z"/>
<path class="st0" d="M33.1,41.7H56c0.4-1,0.8-2.1,1-3.2H33C33.1,38.5,33.1,41.7,33.1,41.7z"/>
<path class="st0" d="M33.1,36.3h24.4c0.2-1,0.3-2.1,0.3-3.2H33.1V36.3z"/>
<path class="st0" d="M57.5,27.7H33.1v3.2h24.7C57.8,29.8,57.7,28.7,57.5,27.7z"/>
<path class="st0" d="M56.1,22.3h-23v3.2h24C56.8,24.4,56.5,23.3,56.1,22.3z"/>
<path class="st0" d="M53,17H33.1v3.2H55C54.4,19.1,53.7,18,53,17z"/>
<path class="st0" d="M47.8,11.6H33.1c0-0.1,0,3.2,0,3.2h18.1C50.1,13.6,49,12.6,47.8,11.6z"/>
<path class="st0" d="M33.1,6.2v3.2h11.5C41.1,7.4,37.3,6.3,33.1,6.2z"/>
</svg>
