<?xml version="1.0" standalone="no"?><!DOCTYPE svg PUBLIC "-//W3C//DTD SVG 1.1//EN" "http://www.w3.org/Graphics/SVG/1.1/DTD/svg11.dtd"><svg t="1567142423457" class="icon" viewBox="0 0 1024 1024" version="1.1" xmlns="http://www.w3.org/2000/svg" p-id="14856" width="64" height="64" xmlns:xlink="http://www.w3.org/1999/xlink"><defs><style type="text/css"></style></defs><path d="M73.404 233.372l159.968-160.004c12.496-12.494 32.766-12.49 45.254 0l159.962 160.004c20.14 20.14 5.798 54.628-22.628 54.628H320v640c0 17.674-14.326 32-32 32H224c-17.674 0-32-14.326-32-32V288H96.032c-28.482 0-42.726-34.528-22.628-54.628z m603.342 197.242A24 24 0 0 1 653.676 448h-71.434c-16.44 0-28.014-16.156-22.724-31.722l114.192-336A24 24 0 0 1 696.434 64h79.132c10.278 0 19.416 6.546 22.724 16.278l114.192 336C917.772 431.844 906.2 448 889.758 448h-71.47a24 24 0 0 1-23.03-17.244l-16.602-56.598h-85.726l-16.184 56.456z m45.714-157.394h26.734l-13.2-45.874-13.534 45.874z m25.15 574.646l134.902-191.396a24 24 0 0 0 4.384-13.826V600c0-13.254-10.746-24-24-24H613.044c-13.254 0-24 10.746-24 24v57.86c0 13.254 10.746 24 24 24h112.938c-1.478 1.982-2.994 4.072-4.54 6.266l-134.406 190.41a24.002 24.002 0 0 0-4.392 13.84V936c0 13.254 10.746 24 24 24h258.71c13.254 0 24-10.746 24-24v-57.86c0-13.254-10.746-24-24-24h-122.292c1.48-1.986 3-4.078 4.548-6.274z" fill="#dfdfdf" p-id="14857"></path></svg>