<?xml version="1.0" encoding="utf-8"?>
<!-- Generator: Adobe Illustrator 22.0.0, SVG Export Plug-In . SVG Version: 6.00 Build 0)  -->
<svg version="1.1" id="layer" xmlns="http://www.w3.org/2000/svg" xmlns:xlink="http://www.w3.org/1999/xlink" x="0px" y="0px"
	 viewBox="0 0 64 64" style="enable-background:new 0 0 64 64;" xml:space="preserve">
<style type="text/css">
	.st0{fill:#5F5F5F;}
</style>
<g id="path">
	<polygon class="st0" points="24.9,31 13,31 13,34 17.4,34 17.4,49 20.5,49 20.5,34 24.9,34 	"/>
	<path class="st0" d="M29.6,31l-5.8,18H27l1.2-4.1h6l1.3,4.1h3.3l-6-18H29.6z M29.2,41.9l2-6.7l2.1,6.7H29.2z"/>
	<path class="st0" d="M45.6,49c2,0,3.2,0,3.7-0.1c0.8-0.2,1.5-0.4,2-0.9c0.6-0.5,1-1.1,1.3-1.9c0.3-0.8,0.5-1.6,0.5-2.4
		c0-1-0.2-1.9-0.7-2.7c-0.5-0.7-1.2-1.3-2.1-1.6c0.6-0.4,1.1-0.9,1.5-1.6c0.4-0.7,0.6-1.5,0.6-2.3s-0.2-1.5-0.5-2.1
		c-0.4-0.6-0.7-1.1-1.2-1.5c-0.5-0.3-1-0.6-1.6-0.7c-0.6-0.1-1.5-0.2-2.7-0.2h-6c0,0,0,18,0.1,18H45.6z M43.5,34h1.7
		c1.4,0,2.3,0.1,2.6,0.1c0.5,0,0.8,0.3,1.1,0.6c0.3,0.4,0.4,0.8,0.4,1.4c0,0.6-0.1,1.1-0.4,1.4c-0.3,0.3-0.7,0.5-1.2,0.6
		c-0.3,0.1-1,0.1-2.2,0.1h-2V34z M43.5,41.2H46c1.4,0,2.3,0.2,2.7,0.3c0.4,0.1,0.7,0.4,0.9,0.8c0.2,0.4,0.3,0.9,0.3,1.4
		c0,0.6-0.1,1.1-0.4,1.5c-0.3,0.4-0.7,0.6-1.1,0.7c-0.3,0.1-1,0.1-2.1,0.1h-2.8V41.2z"/>
	<path class="st0" d="M57,8H45v12h16v-8C61,9.8,59.2,8,57,8z"/>
	<path class="st0" d="M41,8h-4H9c-2.2,0-4,1.8-4,4v40c0,2.2,1.8,4,4,4h48c2.2,0,4-1.8,4-4V28v-4H41V8z M57,28v22c0,1.1-0.9,2-2,2H11
		c-1.1,0-2-0.9-2-2V14c0-1.1,0.9-2,2-2h26v16H57z"/>
</g>
</svg>
