<?xml version="1.0" encoding="utf-8"?>
<!-- Generator: Adobe Illustrator 22.0.0, SVG Export Plug-In . SVG Version: 6.00 Build 0)  -->
<svg version="1.1" id="图层_1" xmlns="http://www.w3.org/2000/svg" xmlns:xlink="http://www.w3.org/1999/xlink" x="0px" y="0px"
	 viewBox="0 0 64 64" style="enable-background:new 0 0 64 64;" xml:space="preserve">
<style type="text/css">
	.st0{fill:#BFBFBF;}
</style>
<g>
	<path class="st0" d="M44,40c0,1.1-0.9,2-2,2H22c-1.1,0-2-0.9-2-2v-6H4v20c0,1.1,0.9,2,2,2h52c1.1,0,2-0.9,2-2V34H44V40z"/>
	<path class="st0" d="M58,16H44v-6c0-1.1-0.9-2-2-2H22c-1.1,0-2,0.9-2,2v6H6c-1.1,0-2,0.9-2,2v12h20v4v4h16v-4v-4h20V18
		C60,16.9,59.1,16,58,16z M40,16H24v-4h16V16z"/>
</g>
</svg>
