<?xml version="1.0" encoding="utf-8"?>
<!-- Generator: Adobe Illustrator 22.0.0, SVG Export Plug-In . SVG Version: 6.00 Build 0)  -->
<svg version="1.1" id="图层_1" xmlns="http://www.w3.org/2000/svg" xmlns:xlink="http://www.w3.org/1999/xlink" x="0px" y="0px"
	 viewBox="0 0 64 64" style="enable-background:new 0 0 64 64;" xml:space="preserve">
<style type="text/css">
	.st0{fill:#BFBFBF;}
</style>
<path class="st0" d="M40,28h16c2.2,0,4-1.8,4-4V8c0-2.2-1.8-4-4-4H40c-2.2,0-4,1.8-4,4v6H20v-2c0-2.2-1.8-4-4-4H8c-2.2,0-4,1.8-4,4
	v8c0,2.2,1.8,4,4,4h2c0,14.3,11.7,26,26,26v6c0,2.2,1.8,4,4,4h16c2.2,0,4-1.8,4-4V40c0-2.2-1.8-4-4-4H40c-2.2,0-4,1.8-4,4v6
	c-12.1,0-22-9.9-22-22h2c2.2,0,4-1.8,4-4v-2h16v6C36,26.2,37.8,28,40,28z"/>
</svg>
