<?xml version="1.0" encoding="utf-8"?>
<!-- Generator: Adobe Illustrator 22.0.0, SVG Export Plug-In . SVG Version: 6.00 Build 0)  -->
<svg version="1.1" id="layer" xmlns="http://www.w3.org/2000/svg" xmlns:xlink="http://www.w3.org/1999/xlink" x="0px" y="0px"
	 viewBox="0 0 64 64" style="enable-background:new 0 0 64 64;" xml:space="preserve">
<style type="text/css">
	.st0{fill:#407FFF;}
	.st1{fill:#FF7F40;}
	.st2{fill:#FF0040;}
</style>
<path class="st0" d="M37.3,48.4c0.5,0.5,0.5,1.3,0,1.9l-4.9,4.9c-6.5,6.5-17,6.5-23.5,0s-6.5-17,0-23.5l4.9-4.9
	c0.5-0.5,1.3-0.5,1.9,0l4.3,4.3c0.5,0.5,0.5,1.3,0,1.9l-5,4.8c-3,3.1-3,8.1,0,11.2c3.1,3.1,8.1,3.1,11.1,0l4.9-4.9
	c0.5-0.5,1.3-0.5,1.9,0L37.3,48.4z"/>
<path class="st1" d="M31.1,19.9c0.5,0.5,1.3,0.5,1.9,0l4.9-4.9c3-3,8-3,11.1,0c3.1,3.1,3.1,8.1,0,11.1L44.1,31
	c-0.5,0.5-0.5,1.3,0,1.9l4.3,4.3c0.5,0.5,1.3,0.5,1.9,0l4.9-4.9c6.5-6.5,6.5-17,0-23.5s-17-6.5-23.5,0l-4.9,4.9
	c-0.5,0.5-0.5,1.3,0,1.9C26.7,15.6,31.1,19.9,31.1,19.9z"/>
<path class="st2" d="M56.8,59.2l2.5-2.5c1-1,1-2.7,0-3.7L11,4.8c-1-1-2.7-1-3.7,0L4.8,7.2c-1,1-1,2.7,0,3.7L53,59.2
	C54.1,60.3,55.7,60.3,56.8,59.2z"/>
</svg>
