<?xml version="1.0" encoding="utf-8"?>
<!-- Generator: Adobe Illustrator 22.0.0, SVG Export Plug-In . SVG Version: 6.00 Build 0)  -->
<svg version="1.1" id="图层_1" xmlns="http://www.w3.org/2000/svg" xmlns:xlink="http://www.w3.org/1999/xlink" x="0px" y="0px"
	 viewBox="0 0 64 64" style="enable-background:new 0 0 64 64;" xml:space="preserve">
<style type="text/css">
	.st0{fill:#5F5F5F;}
</style>
<path class="st0" d="M57.6,33.7l2.4-2.4L32.7,4l-2.4,2.4C29,7.7,28.9,9.8,30.2,11l0,0L11,30.2C9.8,29,7.7,29,6.4,30.3l0,0L4,32.7
	l11.4,11.4l-7.2,7.2c-1.3,1.3-1.4,3.4-0.1,4.6s3.3,1.2,4.6-0.1l7.2-7.2L31.3,60l2.4-2.4c1.3-1.3,1.4-3.4,0.1-4.6l0,0L53,33.8
	C54.2,35.1,56.3,35,57.6,33.7L57.6,33.7z M29.3,48.4L15.6,34.7l19.1-19.1l13.7,13.7L29.3,48.4z"/>
</svg>
