<?xml version="1.0" encoding="utf-8"?>
<!-- Generator: Adobe Illustrator 22.0.0, SVG Export Plug-In . SVG Version: 6.00 Build 0)  -->
<svg version="1.1" id="图层_1" xmlns="http://www.w3.org/2000/svg" xmlns:xlink="http://www.w3.org/1999/xlink" x="0px" y="0px"
	 viewBox="0 0 64 64" style="enable-background:new 0 0 64 64;" xml:space="preserve">
<style type="text/css">
	.st0{fill:#5F5F5F;}
</style>
<path class="st0" d="M18,15.8v-4.6c0-1,0.8-1.8,1.8-1.8h38.5c1,0,1.8,0.8,1.8,1.8v4.6c0,1-0.8,1.8-1.8,1.8H19.8
	C18.8,17.7,18,16.9,18,15.8z M19.8,36.2h38.5c1,0,1.8-0.8,1.8-1.8v-4.6c0-1-0.8-1.8-1.8-1.8H19.8c-1,0-1.8,0.8-1.8,1.8v4.6
	C18,35.3,18.8,36.2,19.8,36.2z M19.8,54.6h38.5c1,0,1.8-0.8,1.8-1.8v-4.6c0-1-0.8-1.8-1.8-1.8H19.8c-1,0-1.8,0.8-1.8,1.8v4.6
	C18,53.8,18.8,54.6,19.8,54.6z M5.8,19.1h7c1,0,1.8-0.8,1.8-1.8V9.8c0-1-0.8-1.8-1.8-1.8h-7C4.8,8,4,8.8,4,9.8v7.4
	C4,18.3,4.8,19.1,5.8,19.1z M5.8,37.5h7c1,0,1.8-0.8,1.8-1.8v-7.4c0-1-0.8-1.8-1.8-1.8h-7c-1,0-1.8,0.8-1.8,1.8v7.4
	C4,36.7,4.8,37.5,5.8,37.5z M5.8,56h7c1,0,1.8-0.8,1.8-1.8v-7.4c0-1-0.8-1.8-1.8-1.8h-7c-1,0-1.8,0.8-1.8,1.8v7.4
	C4,55.2,4.8,56,5.8,56z"/>
</svg>
