<?xml version="1.0" encoding="utf-8"?>
<!-- Generator: Adobe Illustrator 22.0.0, SVG Export Plug-In . SVG Version: 6.00 Build 0)  -->
<svg version="1.1" id="图层_1" xmlns="http://www.w3.org/2000/svg" xmlns:xlink="http://www.w3.org/1999/xlink" x="0px" y="0px"
	 viewBox="0 0 64 64" style="enable-background:new 0 0 64 64;" xml:space="preserve">
<style type="text/css">
	.st0{fill:#FFFFFF;}
</style>
<path class="st0" d="M58.3,17.6c-2.3-2.2-6.1-2.2-8.4,0L32,34.6L14.1,17.7c-2.3-2.2-6.1-2.2-8.4,0s-2.3,5.7,0,7.9l22,20.8l0,0l0,0
	c1.1,1.1,2.6,1.6,4.1,1.6c0,0,0,0,0.1,0c0,0,0,0,0.1,0c1.5,0,3-0.5,4.1-1.6l0,0l0,0l22-20.8C60.6,23.4,60.6,19.8,58.3,17.6z"/>
</svg>
