<?xml version="1.0" encoding="utf-8"?>
<!-- Generator: Adobe Illustrator 22.0.0, SVG Export Plug-In . SVG Version: 6.00 Build 0)  -->
<svg version="1.1" id="图层_1" xmlns="http://www.w3.org/2000/svg" xmlns:xlink="http://www.w3.org/1999/xlink" x="0px" y="0px"
	 viewBox="0 0 64 64" style="enable-background:new 0 0 64 64;" xml:space="preserve">
<style type="text/css">
	.st0{fill:#BFBFBF;}
</style>
<path class="st0" d="M5.7,46.4c2.3,2.2,6.1,2.2,8.4,0l17.9-17l17.9,16.9c2.3,2.2,6.1,2.2,8.4,0c2.3-2.2,2.3-5.7,0-7.9l-22-20.8l0,0
	l0,0c-1.1-1.1-2.6-1.6-4.1-1.6c0,0,0,0-0.1,0c0,0,0,0-0.1,0c-1.5,0-3,0.5-4.1,1.6l0,0l0,0l-22,20.8C3.4,40.6,3.4,44.2,5.7,46.4z"/>
</svg>
