<?xml version="1.0" encoding="utf-8"?>
<!-- Generator: Adobe Illustrator 22.0.0, SVG Export Plug-In . SVG Version: 6.00 Build 0)  -->
<svg version="1.1" id="图层_1" xmlns="http://www.w3.org/2000/svg" xmlns:xlink="http://www.w3.org/1999/xlink" x="0px" y="0px"
	 viewBox="0 0 96 96" style="enable-background:new 0 0 96 96;" xml:space="preserve">
<style type="text/css">
	.st0{fill:#427FFF;}
</style>
<path class="st0" d="M88,4H32c-2.2,0-4,1.8-4,4v20H8c-2.2,0-4,1.8-4,4v56c0,2.2,1.8,4,4,4h56c2.2,0,4-1.8,4-4V68h20c2.2,0,4-1.8,4-4
	V8C92,5.8,90.2,4,88,4z M60,84H12V36h48V84z M84,60H68V32c0-2.2-1.8-4-4-4H36V12h48V60z"/>
</svg>
