<?xml version="1.0" encoding="iso-8859-1"?>
<!-- Generator: Adobe Illustrator 19.2.1, SVG Export Plug-In . SVG Version: 6.00 Build 0)  -->
<svg version="1.1" id="Layer_1" xmlns="http://www.w3.org/2000/svg" xmlns:xlink="http://www.w3.org/1999/xlink" x="0px" y="0px"
	 viewBox="0 0 240 240" style="enable-background:new 0 0 240 240;" xml:space="preserve">
<g>
	<g>
		<path style="fill:#1D1D1D;" d="M40.028,177.541c0.983-3.335,2.315-6.012,3.996-8.028c1.68-2.016,3.636-3.456,5.868-4.32
			c2.232-0.864,4.596-1.296,7.092-1.296c2.544,0,4.932,0.432,7.164,1.296c2.232,0.864,4.2,2.304,5.904,4.32
			c1.703,2.016,3.047,4.692,4.032,8.028c0.983,3.337,1.476,7.452,1.476,12.348c0,5.04-0.493,9.252-1.476,12.636
			c-0.984,3.384-2.329,6.084-4.032,8.1c-1.705,2.016-3.672,3.456-5.904,4.32c-2.232,0.864-4.62,1.296-7.164,1.296
			c-2.496,0-4.86-0.432-7.092-1.296c-2.232-0.864-4.188-2.304-5.868-4.32c-1.681-2.016-3.013-4.716-3.996-8.1
			c-0.984-3.384-1.476-7.596-1.476-12.636C38.552,184.993,39.044,180.878,40.028,177.541z"/>
	</g>
</g>
<g>
	<g>
		<path style="fill:#1D1D1D;" d="M168.807,107.972c0.983-3.335,2.315-6.012,3.996-8.028c1.68-2.016,3.636-3.456,5.868-4.32
			c2.232-0.864,4.596-1.296,7.092-1.296c2.544,0,4.932,0.432,7.164,1.296c2.232,0.864,4.2,2.304,5.904,4.32
			c1.703,2.016,3.047,4.692,4.032,8.028c0.983,3.337,1.476,7.452,1.476,12.348c0,5.04-0.493,9.252-1.476,12.636
			c-0.984,3.384-2.329,6.084-4.032,8.1c-1.705,2.016-3.672,3.456-5.904,4.32c-2.232,0.864-4.62,1.296-7.164,1.296
			c-2.496,0-4.86-0.432-7.092-1.296c-2.232-0.864-4.188-2.304-5.868-4.32c-1.681-2.016-3.013-4.716-3.996-8.1
			c-0.984-3.384-1.476-7.596-1.476-12.636C167.332,115.424,167.823,111.309,168.807,107.972z"/>
	</g>
</g>
<g>
	<g>
		<path style="fill:#1D1D1D;" d="M40.028,37.472c0.983-3.335,2.315-6.012,3.996-8.028c1.68-2.016,3.636-3.456,5.868-4.32
			c2.232-0.864,4.596-1.296,7.092-1.296c2.544,0,4.932,0.432,7.164,1.296c2.232,0.864,4.2,2.304,5.904,4.32
			c1.703,2.016,3.047,4.692,4.032,8.028c0.983,3.337,1.476,7.452,1.476,12.348c0,5.04-0.493,9.252-1.476,12.636
			c-0.984,3.384-2.329,6.084-4.032,8.1c-1.705,2.016-3.672,3.456-5.904,4.32c-2.232,0.864-4.62,1.296-7.164,1.296
			c-2.496,0-4.86-0.432-7.092-1.296c-2.232-0.864-4.188-2.304-5.868-4.32c-1.681-2.016-3.013-4.716-3.996-8.1
			c-0.984-3.384-1.476-7.596-1.476-12.636C38.552,44.924,39.044,40.809,40.028,37.472z"/>
	</g>
</g>
<g style="opacity:0.5;">
	<polygon style="fill-rule:evenodd;clip-rule:evenodd;fill:#48AAB5;" points="213.9,231.821 213.9,231.81 195.445,231.81 
		195.445,216.167 213.9,216.167 213.9,23.822 195.445,23.822 195.445,8.178 229.543,8.178 229.543,231.81 225.722,231.821 	"/>
	<g>
		<path style="fill:#1D1D1D;" d="M225.721,12v8v199.988v8V228h-8v-0.012h-18.455v-8h18.455V20h-18.455v-8h18.455H225.721
			 M233.365,4.357h-7.643h-8h-18.455h-7.643V12v8v7.643h7.643h10.812v184.701h-10.812h-7.643v7.643v8v7.643h7.643h10.812
			l7.643,0.012h8h7.643V228v-8.012V20v-8V4.357L233.365,4.357z"/>
	</g>
</g>
<g style="opacity:0.5;">
	<polygon style="fill-rule:evenodd;clip-rule:evenodd;fill:#48AAB5;" points="136.724,231.821 136.724,8.19 140.545,8.178 
		152.366,8.178 152.366,8.19 170.821,8.19 170.821,23.834 152.366,23.834 152.366,216.179 170.821,216.179 170.821,231.821 	"/>
	<g>
		<path style="fill:#1D1D1D;" d="M148.545,12v0.012H167v8h-18.455V220H167v8h-18.455h-8v-8V20.012v-8V12H148.545 M148.545,4.357h-8
			h-7.643V12v8.012V220v8v7.643h7.643h8H167h7.643V228v-8v-7.643H167h-10.812V27.655H167h7.643v-7.643v-8V4.369H167h-10.812
			L148.545,4.357L148.545,4.357z"/>
	</g>
</g>
<g style="opacity:0.5;">
	<polygon style="fill-rule:evenodd;clip-rule:evenodd;fill:#48AAB5;" points="87.9,231.821 87.9,231.81 69.445,231.81 
		69.445,216.167 87.9,216.167 87.9,23.822 69.445,23.822 69.445,8.178 103.543,8.178 103.543,231.81 99.722,231.821 	"/>
	<g>
		<path style="fill:#1D1D1D;" d="M99.721,12v8v199.988v8V228h-8v-0.012H73.267v-8h18.455V20H73.267v-8h18.455H99.721 M107.365,4.357
			h-7.643h-8H73.267h-7.643V12v8v7.643h7.643h10.812v184.701H73.267h-7.643v7.643v8v7.643h7.643h10.812l7.643,0.012h8h7.643V228
			v-8.012V20v-8V4.357L107.365,4.357z"/>
	</g>
</g>
<g style="opacity:0.5;">
	<polygon style="fill-rule:evenodd;clip-rule:evenodd;fill:#48AAB5;" points="10.723,231.821 10.723,8.19 14.545,8.178 
		26.367,8.178 26.367,8.19 44.822,8.19 44.822,23.834 26.367,23.834 26.367,216.179 44.822,216.179 44.822,231.821 	"/>
	<g>
		<path style="fill:#1D1D1D;" d="M22.545,12v0.012H41v8H22.545V220H41v8H22.545h-8v-8V20.012v-8V12H22.545 M22.545,4.357h-8H6.902
			V12v8.012V220v8v7.643h7.643h8H41h7.643V228v-8v-7.643H41H30.188V27.655H41h7.643v-7.643v-8V4.369H41H30.188L22.545,4.357
			L22.545,4.357z"/>
	</g>
</g>
<g>
	<polygon style="fill-rule:evenodd;clip-rule:evenodd;fill:#BDBDBD;" points="110.797,149.438 110.797,129.135 90.494,129.135 
		90.494,110.866 110.797,110.866 110.797,90.562 129.065,90.562 129.065,110.866 149.369,110.866 149.369,129.135 129.065,129.135 
		129.065,149.438 	"/>
	<path style="fill:#1D1D1D;" d="M125.066,94.563v20.303h20.303v10.269h-20.303v20.303h-10.269v-20.303H94.494v-10.269h20.303V94.563
		H125.066 M133.066,86.563h-8h-10.269h-8v8v12.303H94.494h-8v8v10.269v8h8h12.303v12.303v8h8h10.269h8v-8v-12.303h12.303h8v-8
		v-10.269v-8h-8h-12.303V94.563V86.563L133.066,86.563z"/>
</g>
<g>
	<g>
		<path style="fill:#BDBDBD;" d="M56.28,149.2c-2.209,0-4-1.791-4-4v-28.688h-8.672c-2.209,0-4-1.791-4-4v-7.704
			c0-1.08,0.437-2.114,1.21-2.867c0.748-0.728,1.749-1.133,2.79-1.133c0.036,0,0.512,0.01,0.712,0.01
			c1.27,0,2.512-0.113,3.692-0.336c1.183-0.222,2.241-0.611,3.149-1.155c0.843-0.506,1.542-1.162,2.136-2.005
			c0.545-0.776,0.921-1.824,1.115-3.114c0.293-1.958,1.976-3.407,3.956-3.407h8.136c2.209,0,4,1.791,4,4v50.4c0,2.209-1.791,4-4,4
			H56.28z"/>
		<path style="fill:#1D1D1D;" d="M66.504,94.8v50.4H56.28v-32.688H43.608v-7.704c0.239,0.007,0.476,0.01,0.713,0.01
			c1.523,0,3.002-0.135,4.435-0.406c1.656-0.312,3.143-0.864,4.464-1.656c1.32-0.792,2.436-1.836,3.348-3.132
			c0.911-1.296,1.512-2.903,1.8-4.824H66.504 M66.504,86.8h-8.136c-3.96,0-7.324,2.897-7.911,6.813
			c-0.14,0.936-0.367,1.315-0.433,1.409c-0.267,0.379-0.56,0.658-0.92,0.874C48.598,96.2,48,96.414,47.277,96.55
			c-0.942,0.178-1.935,0.268-2.956,0.268c-0.164,0-0.329-0.002-0.495-0.007c-0.073-0.002-0.146-0.003-0.218-0.003
			c-2.081,0-4.084,0.811-5.579,2.267c-1.548,1.506-2.421,3.574-2.421,5.733v7.704c0,4.418,3.582,8,8,8h4.672V145.2
			c0,4.418,3.582,8,8,8h10.224c4.418,0,8-3.582,8-8V94.8C74.504,90.382,70.922,86.8,66.504,86.8L66.504,86.8z"/>
	</g>
</g>
<g>
	<g>
		<path style="fill:#BDBDBD;" d="M164.331,219.773c-2.209,0-4-1.791-4-4c0-3.413,0.516-6.469,1.532-9.082
			c0.994-2.559,2.371-4.89,4.091-6.927c1.635-1.934,3.569-3.732,5.751-5.35c1.978-1.464,4.086-2.968,6.269-4.472
			c1.139-0.792,2.374-1.611,3.656-2.424c1.032-0.656,1.988-1.39,2.839-2.181c0.735-0.685,1.36-1.465,1.854-2.316
			c0.339-0.585,0.504-1.271,0.504-2.098c0-1.974-0.681-2.632-0.904-2.848c-0.446-0.432-1.152-0.928-2.655-0.928
			c-0.67,0-1.189,0.121-1.544,0.36c-0.506,0.341-0.904,0.784-1.22,1.354c-0.418,0.756-0.723,1.619-0.905,2.566
			c-0.215,1.108-0.323,2.222-0.323,3.311c0,2.209-1.791,4-4,4h-9.792c-2.157,0-3.926-1.71-3.998-3.866
			c-0.111-3.314,0.288-6.46,1.187-9.35c0.92-2.963,2.333-5.604,4.199-7.85c1.924-2.314,4.363-4.139,7.25-5.419
			c2.833-1.256,6.079-1.892,9.65-1.892c2.737,0,5.392,0.437,7.892,1.299c2.547,0.878,4.831,2.165,6.791,3.826
			c2.012,1.708,3.628,3.826,4.805,6.299c1.189,2.503,1.792,5.31,1.792,8.344c0,3.098-0.529,5.852-1.572,8.186
			c-0.999,2.231-2.341,4.244-3.991,5.981c-1.531,1.614-3.292,3.1-5.232,4.411c-1.723,1.164-3.457,2.318-5.202,3.457
			c-0.411,0.268-0.82,0.542-1.227,0.821h13.513c2.209,0,4,1.791,4,4v8.784c0,2.209-1.791,4-4,4H164.331z"/>
		<path style="fill:#1D1D1D;" d="M183.771,164.365c2.304,0,4.5,0.36,6.588,1.08c2.088,0.72,3.924,1.753,5.508,3.096
			c1.584,1.344,2.844,3.001,3.78,4.968c0.936,1.969,1.403,4.176,1.403,6.624c0,2.545-0.408,4.729-1.224,6.552
			c-0.816,1.825-1.896,3.445-3.24,4.86c-1.344,1.417-2.868,2.7-4.572,3.852s-3.42,2.293-5.148,3.42
			c-1.728,1.128-3.409,2.34-5.04,3.636c-1.632,1.296-3.072,2.808-4.32,4.536h23.832v8.784h-37.008c0-2.927,0.419-5.472,1.26-7.632
			c0.839-2.16,1.98-4.092,3.42-5.796c1.44-1.703,3.132-3.276,5.076-4.716c1.944-1.44,3.996-2.904,6.156-4.392
			c1.104-0.767,2.279-1.548,3.528-2.34c1.248-0.792,2.387-1.667,3.42-2.628c1.032-0.96,1.896-2.04,2.592-3.24
			c0.695-1.199,1.044-2.567,1.044-4.104c0-2.448-0.709-4.356-2.124-5.724c-1.416-1.368-3.229-2.052-5.436-2.052
			c-1.489,0-2.749,0.349-3.78,1.044c-1.033,0.696-1.861,1.609-2.484,2.736c-0.625,1.128-1.069,2.376-1.332,3.744
			c-0.265,1.368-0.396,2.725-0.396,4.068h-9.792c-0.097-2.88,0.24-5.555,1.008-8.028c0.768-2.472,1.919-4.631,3.456-6.48
			c1.536-1.847,3.467-3.287,5.796-4.32C178.071,164.881,180.748,164.365,183.771,164.365 M183.771,156.365
			c-4.133,0-7.925,0.752-11.27,2.235c-3.454,1.532-6.383,3.725-8.706,6.519c-2.204,2.652-3.868,5.754-4.944,9.222
			c-1.031,3.318-1.49,6.908-1.363,10.669c0.145,4.311,3.682,7.732,7.995,7.732h1.89c-1.647,1.384-3.145,2.871-4.471,4.439
			c-2.009,2.378-3.612,5.09-4.768,8.064c-1.196,3.073-1.803,6.617-1.803,10.529c0,4.418,3.582,8,8,8h37.008c4.418,0,8-3.582,8-8
			v-8.784c0-4.418-3.582-8-8-8h-0.944c0.697-0.624,1.363-1.271,1.996-1.938c1.96-2.064,3.555-4.453,4.739-7.098
			c1.275-2.852,1.921-6.155,1.921-9.819c0-3.633-0.733-7.017-2.178-10.058c-1.425-2.993-3.385-5.559-5.83-7.634
			c-2.34-1.985-5.057-3.518-8.075-4.559C190.046,156.875,186.953,156.365,183.771,156.365L183.771,156.365z"/>
	</g>
</g>
<g>
	<g>
		<path style="fill:#BDBDBD;" d="M56.984,220.241c-2.979,0-5.85-0.526-8.535-1.565c-2.863-1.108-5.386-2.955-7.498-5.49
			c-2.027-2.432-3.63-5.643-4.765-9.544c-1.084-3.729-1.634-8.356-1.634-13.753c0-5.258,0.551-9.793,1.639-13.479
			c1.134-3.846,2.735-7.028,4.76-9.457c2.113-2.536,4.636-4.383,7.498-5.489c2.683-1.039,5.555-1.566,8.535-1.566
			c3.027,0,5.923,0.527,8.608,1.566c2.85,1.103,5.378,2.942,7.514,5.467c2.058,2.436,3.676,5.624,4.814,9.479
			c1.088,3.693,1.64,8.228,1.64,13.479c0,5.391-0.55,10.018-1.635,13.753c-1.138,3.911-2.758,7.129-4.817,9.565
			c-2.136,2.524-4.664,4.364-7.515,5.469C62.905,219.715,60.01,220.241,56.984,220.241z M56.984,176.321
			c-0.4,0-0.946,0.046-1.276,0.266c-0.434,0.289-0.789,0.671-1.082,1.163c-0.409,0.687-0.736,1.491-0.974,2.394
			c-0.286,1.082-0.491,2.182-0.612,3.273c-0.13,1.171-0.207,2.319-0.228,3.416c-0.025,1.198-0.036,2.215-0.036,3.056
			c0,1.392,0.047,3.084,0.139,5.031c0.082,1.746,0.341,3.449,0.771,5.065c0.358,1.349,0.894,2.444,1.637,3.348
			c0.149,0.182,0.456,0.556,1.662,0.556c1.304,0,1.649-0.412,1.797-0.588c0.752-0.896,1.291-1.981,1.645-3.314
			c0.429-1.613,0.688-3.317,0.771-5.066c0.092-1.967,0.139-3.66,0.139-5.031c0-0.841-0.012-1.859-0.035-3.052
			c-0.021-1.075-0.107-2.202-0.255-3.349c-0.148-1.138-0.363-2.287-0.639-3.412c-0.21-0.856-0.521-1.621-0.92-2.268
			c-0.312-0.503-0.691-0.896-1.155-1.199C58.038,176.42,57.583,176.321,56.984,176.321z"/>
		<path style="fill:#1D1D1D;" d="M56.984,163.897c2.544,0,4.932,0.432,7.164,1.296c2.232,0.864,4.2,2.304,5.904,4.32
			c1.703,2.016,3.047,4.692,4.032,8.028c0.983,3.337,1.476,7.452,1.476,12.348c0,5.04-0.493,9.252-1.476,12.636
			c-0.984,3.384-2.329,6.084-4.032,8.1c-1.705,2.016-3.672,3.456-5.904,4.32c-2.232,0.864-4.62,1.296-7.164,1.296
			c-2.496,0-4.86-0.432-7.092-1.296c-2.232-0.864-4.188-2.304-5.868-4.32c-1.681-2.016-3.013-4.716-3.996-8.1
			c-0.984-3.384-1.476-7.596-1.476-12.636c0-4.896,0.491-9.011,1.476-12.348c0.983-3.335,2.315-6.012,3.996-8.028
			c1.68-2.016,3.636-3.456,5.868-4.32C52.124,164.329,54.488,163.897,56.984,163.897 M56.984,207.889
			c2.112,0,3.732-0.671,4.86-2.016c1.127-1.343,1.944-2.963,2.448-4.86c0.504-1.895,0.803-3.863,0.9-5.904
			c0.096-2.04,0.144-3.78,0.144-5.22c0-0.864-0.012-1.908-0.036-3.132c-0.024-1.224-0.12-2.484-0.288-3.78
			c-0.169-1.296-0.409-2.58-0.72-3.852c-0.312-1.271-0.781-2.412-1.404-3.42c-0.625-1.008-1.417-1.824-2.376-2.448
			c-0.961-0.624-2.137-0.936-3.528-0.936c-1.393,0-2.556,0.312-3.492,0.936c-0.936,0.624-1.705,1.44-2.304,2.448
			c-0.601,1.008-1.069,2.149-1.404,3.42c-0.336,1.272-0.576,2.556-0.72,3.852c-0.144,1.296-0.229,2.556-0.252,3.78
			c-0.025,1.224-0.036,2.268-0.036,3.132c0,1.44,0.047,3.18,0.144,5.22c0.096,2.041,0.396,4.008,0.9,5.904
			c0.504,1.897,1.308,3.517,2.412,4.86C53.336,207.218,54.92,207.889,56.984,207.889 M56.984,155.897
			c-3.476,0-6.834,0.618-9.981,1.836c-3.503,1.356-6.574,3.596-9.126,6.659c-2.375,2.849-4.234,6.512-5.523,10.886
			c-1.213,4.11-1.802,8.89-1.802,14.611c0,5.856,0.587,10.72,1.794,14.871c1.288,4.432,3.15,8.13,5.533,10.989
			c2.549,3.06,5.62,5.3,9.124,6.657c3.148,1.218,6.505,1.836,9.981,1.836c3.523,0,6.905-0.617,10.051-1.835
			c3.485-1.349,6.555-3.575,9.126-6.616c2.425-2.87,4.31-6.58,5.604-11.03c1.208-4.156,1.794-9.02,1.794-14.871
			c0-5.715-0.59-10.494-1.802-14.61c-1.297-4.393-3.178-8.069-5.594-10.929c-2.574-3.044-5.644-5.27-9.128-6.618
			C63.891,156.515,60.508,155.897,56.984,155.897L56.984,155.897z M57.056,196.406c-0.07-0.55-0.118-1.108-0.145-1.672
			c-0.09-1.895-0.135-3.524-0.135-4.845c0-0.819,0.011-1.809,0.034-2.969c0.019-0.98,0.088-2.006,0.205-3.059
			c0.006-0.058,0.013-0.116,0.02-0.173c0.015,0.108,0.03,0.216,0.044,0.324c0.128,0.993,0.203,1.974,0.222,2.906
			c0.023,1.159,0.035,2.152,0.035,2.972c0,1.302-0.045,2.932-0.135,4.845C57.174,195.299,57.126,195.857,57.056,196.406
			L57.056,196.406z"/>
	</g>
</g>
<g>
	<g>
		<path style="fill:#BDBDBD;" d="M185.764,150.672c-2.981,0-5.854-0.526-8.536-1.565c-2.863-1.109-5.387-2.956-7.497-5.491
			c-2.027-2.431-3.63-5.642-4.764-9.543c-1.085-3.728-1.635-8.354-1.635-13.752c0-5.258,0.552-9.793,1.639-13.48
			c1.135-3.847,2.736-7.029,4.761-9.457c2.109-2.533,4.633-4.38,7.496-5.489c2.683-1.039,5.555-1.566,8.536-1.566
			c3.028,0,5.925,0.527,8.608,1.566c2.853,1.105,5.381,2.944,7.515,5.468c2.056,2.433,3.675,5.621,4.812,9.478
			c1.089,3.693,1.641,8.229,1.641,13.481c0,5.391-0.55,10.018-1.636,13.752c-1.138,3.911-2.758,7.129-4.816,9.565
			c-2.135,2.523-4.663,4.363-7.516,5.469C191.688,150.146,188.792,150.672,185.764,150.672z M185.764,106.752
			c-0.399,0-0.945,0.046-1.274,0.265c-0.437,0.292-0.791,0.672-1.084,1.164c-0.408,0.686-0.736,1.491-0.974,2.394
			c-0.285,1.08-0.491,2.181-0.612,3.273c-0.131,1.171-0.207,2.32-0.229,3.417c-0.024,1.198-0.035,2.214-0.035,3.055
			c0,1.391,0.047,3.083,0.139,5.03c0.082,1.747,0.342,3.45,0.771,5.066c0.358,1.35,0.894,2.443,1.635,3.346
			c0.15,0.184,0.458,0.558,1.663,0.558c1.303,0,1.649-0.412,1.797-0.589c0.752-0.896,1.29-1.98,1.645-3.314
			c0.429-1.612,0.688-3.316,0.771-5.066c0.092-1.967,0.139-3.659,0.139-5.03c0-0.842-0.012-1.859-0.035-3.052
			c-0.021-1.075-0.107-2.201-0.255-3.349c-0.148-1.139-0.364-2.289-0.639-3.413c-0.211-0.856-0.521-1.621-0.922-2.269
			c-0.311-0.5-0.689-0.894-1.154-1.197C186.815,106.85,186.361,106.752,185.764,106.752z"/>
		<path style="fill:#1D1D1D;" d="M185.763,94.328c2.544,0,4.932,0.432,7.164,1.296c2.232,0.864,4.2,2.304,5.904,4.32
			c1.703,2.016,3.047,4.692,4.032,8.028c0.983,3.337,1.476,7.452,1.476,12.348c0,5.04-0.493,9.252-1.476,12.636
			c-0.984,3.384-2.329,6.084-4.032,8.1c-1.705,2.016-3.672,3.456-5.904,4.32c-2.232,0.864-4.62,1.296-7.164,1.296
			c-2.496,0-4.86-0.432-7.092-1.296c-2.232-0.864-4.188-2.304-5.868-4.32c-1.681-2.016-3.013-4.716-3.996-8.1
			c-0.984-3.384-1.476-7.596-1.476-12.636c0-4.896,0.491-9.011,1.476-12.348c0.983-3.335,2.315-6.012,3.996-8.028
			c1.68-2.016,3.636-3.456,5.868-4.32C180.904,94.76,183.267,94.328,185.763,94.328 M185.763,138.32c2.112,0,3.732-0.671,4.86-2.016
			c1.127-1.343,1.944-2.963,2.448-4.86c0.504-1.895,0.803-3.863,0.9-5.904c0.096-2.04,0.144-3.78,0.144-5.22
			c0-0.864-0.012-1.908-0.036-3.132c-0.024-1.224-0.12-2.484-0.288-3.78c-0.169-1.296-0.409-2.58-0.72-3.852
			c-0.312-1.271-0.781-2.412-1.404-3.42c-0.625-1.008-1.417-1.824-2.376-2.448c-0.961-0.624-2.137-0.936-3.528-0.936
			c-1.393,0-2.556,0.312-3.492,0.936c-0.936,0.624-1.705,1.44-2.304,2.448c-0.601,1.008-1.069,2.149-1.404,3.42
			c-0.336,1.272-0.576,2.556-0.72,3.852c-0.144,1.296-0.229,2.556-0.252,3.78c-0.025,1.224-0.036,2.268-0.036,3.132
			c0,1.44,0.047,3.18,0.144,5.22c0.096,2.041,0.396,4.008,0.9,5.904c0.504,1.897,1.308,3.517,2.412,4.86
			C182.115,137.649,183.699,138.32,185.763,138.32 M185.763,86.328c-3.476,0-6.834,0.618-9.981,1.836
			c-3.503,1.356-6.574,3.596-9.126,6.659c-2.375,2.849-4.234,6.512-5.523,10.886c-1.213,4.11-1.802,8.89-1.802,14.611
			c0,5.856,0.587,10.72,1.794,14.871c1.288,4.432,3.15,8.13,5.533,10.989c2.549,3.06,5.62,5.3,9.124,6.657
			c3.148,1.218,6.505,1.836,9.98,1.836c3.523,0,6.905-0.617,10.051-1.835c3.485-1.349,6.555-3.575,9.126-6.616
			c2.425-2.87,4.31-6.58,5.604-11.03c1.208-4.156,1.794-9.02,1.794-14.871c0-5.715-0.59-10.494-1.802-14.61
			c-1.297-4.393-3.178-8.069-5.594-10.929c-2.574-3.044-5.644-5.27-9.128-6.618C192.67,86.946,189.288,86.328,185.763,86.328
			L185.763,86.328z M185.835,126.837c-0.07-0.55-0.118-1.108-0.145-1.672c-0.09-1.895-0.135-3.524-0.135-4.845
			c0-0.819,0.011-1.809,0.034-2.969c0.019-0.98,0.088-2.006,0.205-3.059c0.006-0.058,0.013-0.116,0.02-0.173
			c0.015,0.108,0.03,0.216,0.044,0.324c0.128,0.993,0.203,1.974,0.222,2.906c0.023,1.159,0.035,2.152,0.035,2.972
			c0,1.302-0.046,2.932-0.135,4.845C185.953,125.73,185.905,126.288,185.835,126.837L185.835,126.837z"/>
	</g>
</g>
<g>
	<g>
		<path style="fill:#BDBDBD;" d="M56.984,80.172c-2.981,0-5.854-0.527-8.537-1.566c-2.863-1.108-5.386-2.956-7.497-5.49
			c-2.026-2.431-3.63-5.642-4.764-9.543c-1.084-3.728-1.634-8.355-1.634-13.752c0-5.258,0.551-9.793,1.639-13.48
			c1.134-3.847,2.736-7.029,4.76-9.457c2.11-2.533,4.632-4.38,7.496-5.489c2.683-1.039,5.555-1.566,8.536-1.566
			c3.028,0,5.925,0.527,8.608,1.566c2.853,1.105,5.381,2.944,7.515,5.468c2.056,2.433,3.675,5.621,4.813,9.478
			c1.088,3.693,1.64,8.229,1.64,13.481c0,5.391-0.55,10.018-1.635,13.752c-1.138,3.911-2.758,7.128-4.817,9.565
			c-2.134,2.524-4.662,4.364-7.515,5.469C62.909,79.645,60.013,80.172,56.984,80.172z M56.984,36.252
			c-0.4,0-0.945,0.046-1.274,0.265c-0.437,0.292-0.792,0.672-1.084,1.164c-0.408,0.686-0.736,1.491-0.974,2.394
			c-0.285,1.08-0.491,2.181-0.612,3.273c-0.13,1.171-0.208,2.32-0.228,3.417c-0.025,1.198-0.036,2.214-0.036,3.055
			c0,1.391,0.047,3.083,0.139,5.03c0.082,1.747,0.341,3.451,0.771,5.066c0.358,1.35,0.894,2.444,1.636,3.346
			c0.15,0.184,0.458,0.558,1.663,0.558c1.303,0,1.649-0.413,1.797-0.588c0.752-0.896,1.291-1.981,1.645-3.315
			c0.428-1.612,0.688-3.316,0.771-5.066c0.092-1.966,0.139-3.66,0.139-5.03c0-0.842-0.012-1.859-0.035-3.052
			c-0.021-1.075-0.107-2.201-0.255-3.349c-0.148-1.139-0.363-2.289-0.639-3.413c-0.21-0.856-0.521-1.621-0.921-2.269
			c-0.31-0.5-0.689-0.894-1.154-1.197C58.037,36.35,57.583,36.252,56.984,36.252z"/>
		<path style="fill:#1D1D1D;" d="M56.984,23.828c2.544,0,4.932,0.432,7.164,1.296c2.232,0.864,4.2,2.304,5.904,4.32
			c1.703,2.016,3.047,4.692,4.032,8.028c0.983,3.337,1.476,7.452,1.476,12.348c0,5.04-0.493,9.252-1.476,12.636
			c-0.984,3.384-2.329,6.084-4.032,8.1c-1.705,2.016-3.672,3.456-5.904,4.32c-2.232,0.864-4.62,1.296-7.164,1.296
			c-2.496,0-4.86-0.432-7.092-1.296c-2.232-0.864-4.188-2.304-5.868-4.32c-1.681-2.016-3.013-4.716-3.996-8.1
			c-0.984-3.384-1.476-7.596-1.476-12.636c0-4.896,0.491-9.011,1.476-12.348c0.983-3.335,2.315-6.012,3.996-8.028
			c1.68-2.016,3.636-3.456,5.868-4.32C52.124,24.26,54.488,23.828,56.984,23.828 M56.984,67.82c2.112,0,3.732-0.671,4.86-2.016
			c1.127-1.343,1.944-2.963,2.448-4.86c0.504-1.896,0.803-3.863,0.9-5.904c0.096-2.04,0.144-3.78,0.144-5.22
			c0-0.864-0.012-1.908-0.036-3.132c-0.024-1.224-0.12-2.484-0.288-3.78c-0.169-1.296-0.409-2.58-0.72-3.852
			c-0.312-1.271-0.781-2.412-1.404-3.42c-0.625-1.008-1.417-1.824-2.376-2.448c-0.961-0.624-2.137-0.936-3.528-0.936
			c-1.393,0-2.556,0.312-3.492,0.936c-0.936,0.624-1.705,1.44-2.304,2.448c-0.601,1.008-1.069,2.149-1.404,3.42
			c-0.336,1.272-0.576,2.556-0.72,3.852c-0.144,1.296-0.229,2.556-0.252,3.78c-0.025,1.224-0.036,2.268-0.036,3.132
			c0,1.44,0.047,3.18,0.144,5.22c0.096,2.041,0.396,4.008,0.9,5.904c0.504,1.897,1.308,3.517,2.412,4.86
			C53.336,67.149,54.92,67.82,56.984,67.82 M56.984,15.828c-3.476,0-6.834,0.618-9.981,1.836c-3.503,1.356-6.574,3.596-9.126,6.659
			c-2.375,2.849-4.234,6.512-5.523,10.886c-1.213,4.11-1.802,8.89-1.802,14.611c0,5.856,0.587,10.72,1.794,14.871
			c1.288,4.432,3.15,8.13,5.533,10.989c2.549,3.06,5.62,5.3,9.124,6.657c3.148,1.218,6.505,1.836,9.981,1.836
			c3.523,0,6.905-0.617,10.051-1.835c3.485-1.349,6.555-3.575,9.126-6.616c2.425-2.87,4.31-6.58,5.604-11.03
			c1.208-4.156,1.794-9.02,1.794-14.871c0-5.715-0.59-10.494-1.802-14.61c-1.297-4.393-3.178-8.069-5.594-10.929
			c-2.574-3.044-5.644-5.27-9.128-6.618C63.891,16.446,60.508,15.828,56.984,15.828L56.984,15.828z M57.056,56.337
			c-0.07-0.55-0.118-1.108-0.145-1.672c-0.09-1.895-0.135-3.524-0.135-4.845c0-0.819,0.011-1.809,0.034-2.969
			c0.019-0.98,0.088-2.006,0.205-3.059c0.006-0.058,0.013-0.116,0.02-0.173c0.015,0.108,0.03,0.216,0.044,0.324
			c0.128,0.993,0.203,1.974,0.222,2.906c0.023,1.159,0.035,2.152,0.035,2.972c0,1.302-0.045,2.932-0.135,4.845
			C57.174,55.23,57.126,55.788,57.056,56.337L57.056,56.337z"/>
	</g>
</g>
<g>
	<g>
		<path style="fill:#BDBDBD;" d="M182.838,80.172c-3.27,0-6.318-0.487-9.062-1.448c-2.86-1.002-5.344-2.499-7.383-4.45
			c-2.044-1.951-3.639-4.358-4.737-7.149c-1.076-2.734-1.594-5.866-1.536-9.308c0.036-2.183,1.815-3.933,3.999-3.933h9.72
			c0.691,0,1.343,0.176,1.911,0.485c-0.325-0.579-0.511-1.246-0.511-1.957v-7.164c-0.059,0.002-0.117,0.004-0.176,0.004h-9.721
			c-1.087,0-2.126-0.442-2.88-1.224s-1.157-1.838-1.117-2.923c0.111-3.033,0.677-5.862,1.679-8.409
			c1.032-2.627,2.514-4.933,4.4-6.85c1.895-1.925,4.186-3.431,6.807-4.474c2.578-1.024,5.449-1.543,8.535-1.543
			c2.391,0,4.81,0.359,7.188,1.066c2.46,0.733,4.709,1.852,6.687,3.327c2.038,1.523,3.716,3.401,4.988,5.584
			c1.364,2.338,2.057,5.027,2.057,7.99c0,3.201-0.8,6.097-2.376,8.608c-0.29,0.461-0.604,0.897-0.941,1.309
			c0.724,0.632,1.387,1.339,1.986,2.121c2.125,2.769,3.203,6.083,3.203,9.852c0,3.255-0.663,6.231-1.971,8.845
			c-1.285,2.571-3.037,4.761-5.208,6.509c-2.105,1.696-4.551,2.996-7.27,3.863C188.474,79.745,185.69,80.172,182.838,80.172z
			 M177.327,55.927c0.303,0.539,0.484,1.156,0.508,1.814c0.035,0.979,0.192,1.92,0.468,2.795c0.23,0.737,0.549,1.358,0.946,1.848
			c0.352,0.434,0.794,0.777,1.351,1.05c0.522,0.256,1.228,0.385,2.095,0.385c1.315,0,2.322-0.352,3.166-1.106
			c0.485-0.434,1.042-1.145,1.042-2.814c0-1.237-0.22-1.861-0.336-2.019c-0.299-0.405-0.639-0.669-1.097-0.851
			c-0.744-0.294-1.591-0.468-2.516-0.516c-1.295-0.068-2.544-0.103-3.716-0.103C178.546,56.412,177.896,56.236,177.327,55.927z
			 M179.238,41.212c0.116,0,0.232,0.005,0.349,0.015c0.434,0.038,0.892,0.058,1.361,0.058c0.482,0,0.989-0.021,1.509-0.061
			c0.826-0.063,1.559-0.234,2.242-0.523c0.476-0.201,0.826-0.456,1.107-0.805c0.043-0.054,0.159-0.332,0.159-0.947
			c0-1.317-0.444-1.673-0.657-1.843c-0.729-0.583-1.513-0.853-2.471-0.853c-1.927,0-2.474,0.705-2.707,1.006
			c-0.75,0.969-1.101,2.251-1.069,3.918c0.001,0.013,0.001,0.026,0.001,0.039C179.121,41.213,179.18,41.212,179.238,41.212z"/>
		<path style="fill:#1D1D1D;" d="M182.765,23.828c2.017,0,4.032,0.301,6.049,0.9c2.016,0.601,3.827,1.5,5.436,2.7
			c1.607,1.201,2.916,2.664,3.924,4.392c1.008,1.728,1.512,3.72,1.512,5.976c0,2.448-0.588,4.608-1.764,6.48
			c-1.177,1.872-2.94,3.145-5.292,3.816v0.144c2.783,0.625,4.968,1.969,6.552,4.032c1.584,2.064,2.376,4.536,2.376,7.416
			c0,2.64-0.516,4.993-1.548,7.056c-1.032,2.064-2.412,3.792-4.14,5.184c-1.729,1.393-3.721,2.448-5.977,3.168
			c-2.256,0.72-4.607,1.08-7.056,1.08c-2.833,0-5.412-0.408-7.74-1.224c-2.328-0.815-4.309-2.003-5.939-3.564
			c-1.633-1.559-2.893-3.467-3.78-5.724c-0.889-2.255-1.309-4.848-1.26-7.776h9.72c0.048,1.344,0.264,2.628,0.648,3.852
			c0.384,1.224,0.936,2.28,1.655,3.168c0.721,0.889,1.62,1.596,2.7,2.124c1.08,0.529,2.364,0.792,3.853,0.792
			c2.304,0,4.248-0.708,5.832-2.124c1.584-1.415,2.376-3.348,2.376-5.796c0-1.919-0.373-3.384-1.116-4.392
			c-0.745-1.008-1.692-1.739-2.844-2.196c-1.152-0.456-2.412-0.72-3.78-0.792c-1.368-0.072-2.677-0.108-3.924-0.108v-7.2
			c0.552,0.048,1.122,0.073,1.709,0.073s1.194-0.024,1.818-0.073c1.248-0.096,2.412-0.371,3.492-0.828
			c1.08-0.456,1.968-1.116,2.664-1.98c0.695-0.864,1.044-2.016,1.044-3.456c0-2.16-0.72-3.816-2.16-4.968
			c-1.439-1.152-3.096-1.728-4.968-1.728c-2.592,0-4.548,0.853-5.868,2.556c-1.32,1.705-1.956,3.852-1.907,6.444h-9.721
			c0.096-2.592,0.563-4.956,1.404-7.092c0.839-2.135,2.016-3.971,3.528-5.508c1.512-1.536,3.323-2.724,5.436-3.564
			C177.821,24.249,180.173,23.828,182.765,23.828 M182.765,15.828c-3.595,0-6.963,0.614-10.011,1.826
			c-3.141,1.25-5.893,3.062-8.181,5.386c-2.268,2.304-4.042,5.061-5.273,8.195c-1.167,2.965-1.824,6.237-1.953,9.722
			c-0.08,2.171,0.726,4.282,2.234,5.847c1.508,1.565,3.587,2.448,5.76,2.448h5.896v0.632h-7.12c-4.366,0-7.926,3.501-7.999,7.867
			c-0.066,3.969,0.545,7.616,1.816,10.842c1.31,3.331,3.228,6.218,5.699,8.577c2.447,2.342,5.417,4.136,8.82,5.328
			c3.169,1.11,6.663,1.674,10.385,1.674c3.264,0,6.456-0.491,9.489-1.459c3.189-1.018,6.071-2.552,8.562-4.559
			c2.62-2.11,4.731-4.747,6.276-7.836c1.587-3.172,2.392-6.75,2.392-10.633c0-4.669-1.356-8.803-4.03-12.287
			c-0.034-0.044-0.068-0.088-0.102-0.132c1.501-2.847,2.26-6.025,2.26-9.47c0-3.68-0.875-7.047-2.601-10.006
			c-1.546-2.651-3.58-4.929-6.047-6.771c-2.362-1.761-5.031-3.091-7.939-3.957C188.344,16.242,185.542,15.828,182.765,15.828
			L182.765,15.828z"/>
	</g>
</g>
<rect style="fill-rule:evenodd;clip-rule:evenodd;fill:none;" width="240" height="240"/>
</svg>
