<?xml version="1.0" encoding="utf-8"?>
<!-- Generator: Adobe Illustrator 19.2.1, SVG Export Plug-In . SVG Version: 6.00 Build 0)  -->
<svg version="1.1" id="Layer_1" xmlns="http://www.w3.org/2000/svg" xmlns:xlink="http://www.w3.org/1999/xlink" x="0px" y="0px"
	 viewBox="0 0 240 240" enable-background="new 0 0 240 240" xml:space="preserve">
<rect fill-rule="evenodd" clip-rule="evenodd" fill="none" width="240" height="240"/>
<g>
	<g>
		<path fill-rule="evenodd" clip-rule="evenodd" fill="#D6806D" d="M213.3,74.5c-13.7-23.4-17.1,14.4-40.6,28.2
			c-23.5,13.8-58.1-1.7-44.4,21.7c13.7,23.4,43.8,31.2,67.3,17.5C219.1,128.1,227,97.9,213.3,74.5z"/>
		<path fill="#1D1D1D" d="M205.2,67c2.4,0,5,2.2,8.1,7.5c13.7,23.4,5.8,53.6-17.7,67.3c-7.8,4.6-16.4,6.8-24.9,6.8
			c-16.9,0-33.3-8.7-42.4-24.3c-13.7-23.4,20.9-7.9,44.4-21.7C190.9,92.1,197,67,205.2,67 M205.2,59c-8.2,0-12.8,7.3-18.1,15.7
			c-4.6,7.3-10.3,16.3-18.4,21.1c-8.1,4.8-18.8,5.4-27.3,5.8c-10,0.5-18.7,1-22.6,8.3c-3.5,6.5-0.1,13.7,2.7,18.5
			c10.2,17.4,29.1,28.2,49.3,28.2c10.1,0,20.2-2.7,29-7.9c27.2-16,36.4-51.1,20.5-78.3C217.4,65.6,212.7,59,205.2,59L205.2,59z"/>
	</g>
	<g>
		<path fill-rule="evenodd" clip-rule="evenodd" fill="#D6806D" d="M111.7,107.6c-13.6-22.3-43.6-30-67.2-17.1
			c-23.5,12.9-31.6,41.4-18,63.8c13.6,22.3,17.2-13.6,40.7-26.4C90.8,114.9,125.3,129.9,111.7,107.6z"/>
		<path fill="#1D1D1D" d="M69.1,84.2c17,0,33.5,8.4,42.6,23.3c13.6,22.3-21,7.3-44.5,20.2c-18.2,9.9-24.4,33.6-32.6,33.6
			c-2.4,0-5-2.1-8.1-7.2c-13.6-22.3-5.5-50.9,18-63.8C52.3,86.3,60.7,84.2,69.1,84.2 M69.1,76.2c-9.9,0-19.7,2.5-28.4,7.2
			c-13.5,7.4-23.1,19.4-27,33.9c-3.7,14-1.6,28.6,6,41.1c2.9,4.7,7.5,11,14.9,11c8,0,12.6-6.9,18-14.8c4.8-7.2,10.3-15.3,18.5-19.8
			c8.2-4.5,18.9-5,27.5-5.3c10.1-0.4,18.9-0.8,22.8-8.1c3.4-6.4,0-13.3-2.8-18C108.3,86.7,89.4,76.2,69.1,76.2L69.1,76.2z"/>
	</g>
	<g>
		<path fill-rule="evenodd" clip-rule="evenodd" fill="#D6806D" d="M106.9,65.8c13.2,22.8-1.7,56.4,20.8,43.1
			c22.4-13.3,29.9-42.5,16.7-65.3c-13.2-22.8-42.1-30.5-64.5-17.2C57.5,39.7,93.7,43,106.9,65.8z"/>
		<path fill="#1D1D1D" d="M103.6,19.9c16.2,0,32,8.5,40.8,23.7c13.2,22.8,5.7,52-16.7,65.3c-3.5,2.1-6.1,3-8.1,3
			c-10.4,0-1.6-26.9-12.7-46.1C93.7,43,57.5,39.7,79.9,26.4C87.4,22,95.5,19.9,103.6,19.9 M103.6,11.9c-9.7,0-19.3,2.6-27.8,7.6
			c-4.7,2.8-11,7.3-11.1,14.5c-0.1,8.1,7,12.7,15.2,18c6.9,4.4,15.5,10,20.1,17.8c4.6,7.9,5.1,18.2,5.5,26.5
			c0.3,5.1,0.5,9.5,1.6,13.2c2.6,9.4,9.6,10.4,12.5,10.4c3.5,0,7.4-1.3,12.1-4.1c26.1-15.5,34.9-49.7,19.6-76.2
			C141.5,22.5,123.2,11.9,103.6,11.9L103.6,11.9z"/>
	</g>
	<g>
		<path fill-rule="evenodd" clip-rule="evenodd" fill="#D6806D" d="M133,171.7c-13.2-24.1,2.2-59.5-20.8-45.6
			c-22.9,13.9-30.8,44.7-17.5,68.8c13.2,24.1,42.5,32.4,65.4,18.4C183,199.5,146.2,195.8,133,171.7z"/>
		<path fill="#1D1D1D" d="M120.4,123c10.6,0,1.4,28.4,12.6,48.7c13.2,24.1,50.1,27.8,27.1,41.7c-7.5,4.6-15.8,6.8-23.9,6.8
			c-16.6,0-32.7-9-41.5-25.2c-13.2-24.1-5.4-54.9,17.5-68.8C115.8,123.9,118.4,123,120.4,123 M120.4,115c-3.6,0-7.5,1.4-12.3,4.3
			c-12.9,7.8-22.1,20.4-25.9,35.5c-3.8,15-1.9,30.6,5.5,44.1c9.9,18.1,28.5,29.3,48.5,29.3c9.8,0,19.5-2.7,28.1-7.9
			c4.7-2.9,11-7.5,11.2-14.8c0.2-8.3-6.9-13-15.1-18.6c-7.4-5-15.7-10.6-20.4-19c-4.6-8.4-5.1-19.4-5.5-28.2
			c-0.2-5.4-0.4-10-1.5-13.8C130.5,116,123.3,115,120.4,115L120.4,115z"/>
	</g>
	<g>
		<circle fill-rule="evenodd" clip-rule="evenodd" fill="#D6806D" cx="120" cy="120" r="17.7"/>
		<path fill="#1D1D1D" d="M120,102.3c9.8,0,17.7,7.9,17.7,17.7s-7.9,17.7-17.7,17.7s-17.7-7.9-17.7-17.7S110.2,102.3,120,102.3
			 M120,94.3c-14.2,0-25.7,11.5-25.7,25.7s11.5,25.7,25.7,25.7s25.7-11.5,25.7-25.7S134.2,94.3,120,94.3L120,94.3z"/>
	</g>
</g>
</svg>
