<?xml version="1.0" encoding="utf-8"?>
<!-- Generator: Adobe Illustrator 19.2.1, SVG Export Plug-In . SVG Version: 6.00 Build 0)  -->
<svg version="1.1" id="Layer_1" xmlns="http://www.w3.org/2000/svg" xmlns:xlink="http://www.w3.org/1999/xlink" x="0px" y="0px"
	 viewBox="0 0 240 240" enable-background="new 0 0 240 240" xml:space="preserve">
<g>
	<path fill="#58A5CC" d="M147.5,231c-1.4,0-2.8-0.3-4-0.9c-0.5-0.2-13.4-6-26.5-15.7c-19-14.1-28.6-29.2-28.7-44.8
		c-0.1-21.8,18.8-41.6,56.2-58.7l0.1,0c16.6-7.6,44.4-22.9,44.3-40.3c-0.1-19-31.9-37.5-43.1-42.5c-5-2.3-7.3-8.2-5-13.2
		c1.6-3.6,5.2-5.9,9.1-5.9c1.4,0,2.8,0.3,4.1,0.9c0.5,0.2,13.4,6.1,26.4,15.8c18.9,14.2,28.5,29.3,28.5,44.9
		c0.1,21.8-18.7,41.5-55.9,58.5l-0.1,0c-28.8,13.2-44.7,27.5-44.6,40.4c0.1,18.9,32.1,37.4,43.3,42.3c2.4,1.1,4.3,3,5.3,5.5
		c1,2.5,0.9,5.2-0.2,7.7C155.1,228.7,151.5,231,147.5,231z"/>
	<path fill="#1D1D1D" d="M149.9,13c0.8,0,1.7,0.2,2.5,0.5c0.5,0.2,13,5.9,25.6,15.3c17.8,13.4,26.9,27.4,26.9,41.7
		c0.1,20.1-17.9,38.5-53.6,54.8c0,0,0,0-0.1,0c-21.5,9.8-47,25.4-46.9,44.1c0.1,21.2,33,40.4,45.7,46c3,1.3,4.4,4.9,3.1,7.9
		c-1,2.2-3.2,3.6-5.5,3.6c-0.8,0-1.6-0.2-2.4-0.5c-0.5-0.2-13-5.8-25.7-15.2c-17.9-13.3-27-27.3-27.1-41.6
		c-0.1-20.1,18-38.7,53.9-55.1c0,0,0,0,0,0c21.3-9.7,46.7-25.3,46.6-43.9c-0.1-21.2-32.8-40.5-45.4-46.2c-3-1.4-4.4-4.9-3-7.9
		C145.4,14.3,147.6,13,149.9,13 M149.9,5L149.9,5c-5.5,0-10.5,3.2-12.8,8.3c-3.2,7,0,15.3,7,18.5c16.4,7.3,40.6,24.8,40.7,38.9
		c0,11-15.2,24.4-41.9,36.6l-0.1,0.1l0,0c-38.9,17.8-58.6,38.8-58.5,62.3c0.1,16.9,10.3,33.1,30.3,48c13.4,10,26.7,15.9,27.3,16.1
		c1.8,0.8,3.7,1.2,5.7,1.2c5.5,0,10.6-3.3,12.8-8.3c1.5-3.4,1.6-7.2,0.3-10.7c-1.3-3.5-4-6.2-7.4-7.8c-16.5-7.3-40.8-24.6-40.9-38.7
		c-0.1-11,15.3-24.4,42.2-36.7c0,0,0.1,0,0.1-0.1c38.7-17.7,58.3-38.6,58.2-62.1c-0.1-16.9-10.2-33.1-30.1-48.1
		c-13.3-10-26.6-16-27.1-16.2C153.8,5.4,151.9,5,149.9,5L149.9,5z"/>
</g>
<g>
	<path fill="#BDBDBD" d="M71,206.5c-1.6,0-3.2-0.4-4.6-1.1c-1.5-0.8-36.9-19.5-37-47.6c-0.1-17.3,12.6-32.9,37.7-46.4l0.1,0
		C84.8,101.8,94,92,94,82.9c-0.1-13.4-19.4-26.6-26.1-30.2c-4.9-2.6-6.8-8.6-4.2-13.5c1.7-3.3,5.1-5.3,8.9-5.3
		c1.6,0,3.2,0.4,4.7,1.2c1.5,0.8,36.7,19.7,36.8,47.8c0.1,17.2-12.5,32.8-37.5,46.2c-17.6,9.4-27.2,19.6-27.2,28.6
		c0,7.8,6.7,15.3,12.3,20.2c6.8,6,13.9,9.8,14,9.8c4.9,2.6,6.8,8.6,4.2,13.5C78.2,204.5,74.8,206.5,71,206.5z"/>
	<path fill="#1D1D1D" d="M72.5,37.9c0.9,0,1.9,0.2,2.8,0.7c1.4,0.7,34.6,18.5,34.7,44.3c0.1,15.6-11.8,30-35.4,42.7
		c-13.4,7.2-29.3,18.6-29.3,32.2c0.1,9.3,7.5,17.7,13.7,23.2c7.3,6.4,14.7,10.3,14.8,10.4c2.9,1.5,4.1,5.2,2.5,8.1
		c-1.1,2.1-3.2,3.2-5.3,3.2c-0.9,0-1.9-0.2-2.8-0.7c-1.4-0.7-34.7-18.4-34.9-44.1c-0.1-15.7,11.9-30.1,35.6-42.8c0,0,0,0,0,0
		c19.3-10.4,29.1-21.2,29-32c-0.1-15.5-20.4-29.6-28.3-33.7c-2.9-1.5-4.1-5.2-2.5-8.1C68.3,39,70.4,37.9,72.5,37.9 M72.5,29.9
		L72.5,29.9c-5.2,0-10,2.9-12.4,7.5c-3.6,6.8-1,15.3,5.9,18.9c3.7,2,9.9,6.1,15.2,11.2c5.7,5.6,8.8,11.1,8.8,15.4
		c0,7.5-8.8,16.3-24.8,24.9l-0.1,0c-26.5,14.3-39.9,31.1-39.8,49.9c0.2,30,35.2,49.1,39.2,51.1c2,1,4.2,1.6,6.5,1.6
		c5.2,0,10-2.9,12.4-7.5c3.6-6.8,0.9-15.3-5.9-18.9c0,0-6.8-3.6-13.2-9.3c-7-6.2-10.9-12.3-10.9-17.2c0-7.4,9.1-16.5,25-25.1
		c26.3-14.2,39.7-30.9,39.6-49.7c-0.1-30-35-49.2-38.9-51.3C77.1,30.4,74.8,29.9,72.5,29.9L72.5,29.9z"/>
</g>
<rect fill-rule="evenodd" clip-rule="evenodd" fill="none" width="240" height="240"/>
</svg>
