<?xml version="1.0" encoding="utf-8"?>
<!-- Generator: Adobe Illustrator 19.2.1, SVG Export Plug-In . SVG Version: 6.00 Build 0)  -->
<svg version="1.1" id="Layer_1" xmlns="http://www.w3.org/2000/svg" xmlns:xlink="http://www.w3.org/1999/xlink" x="0px" y="0px"
	 viewBox="0 0 240 240" enable-background="new 0 0 240 240" xml:space="preserve">
<g>
	<path fill-rule="evenodd" clip-rule="evenodd" fill="#58A5CC" d="M27.2,177.1c14.7-8.9,46.2-32.5,54.2-75.5
		C91.1,49.4,108,25.7,117.5,16h102.4c-38.7,51.6-45.3,92.5-46.3,104.1c-5.2,56.1-12.5,73.3-36.2,103L27.2,177.1z"/>
	<path fill="#1D1D1D" d="M212,20c-35.2,49.4-41.4,88.3-42.4,99.7c-5,53.5-11.9,71-33.5,98.5l-100.4-42c4.1-2.9,8.8-6.5,13.7-10.9
		c19.1-17.5,31.5-39.3,36-63.1c6.8-36.6,19.1-66.4,33.8-82.3H212 M228,12H115.7c0.9,0-25.2,18.8-38.2,88.9
		c-10.1,54-59.4,76.8-59.4,76.8L138.6,228c26.3-32.6,33.7-51,38.9-107.5C182.4,67.7,227.6,12.7,228,12L228,12z"/>
</g>
<g>
	<g>
		<path fill-rule="evenodd" clip-rule="evenodd" fill="#BDBDBD" d="M16.9,149.5c11.3-7.2,31.9-24.2,37.4-53.6
			c6.8-36.4,18.4-53.3,25.2-60.3h70.6c-10.4,14.4-29.4,44-32.1,73.3c-3.6,39.4-8.8,51.8-25.1,72.5L16.9,149.5z"/>
	</g>
	<g>
		<path fill="#1D1D1D" d="M142.3,39.5c-23.3,34.1-27.5,60.9-28.3,68.9c-3.4,36.8-8.1,49.4-22.4,68l-66.5-27.8
			c12.1-9.2,28.3-25.9,33.1-52c2.3-12.1,8.9-41.3,23-57.1H142.3 M158.1,31.5H77.8c0.7,0-18,13.5-27.4,63.6
			C43.2,133.7,7.9,150,7.9,150l86.3,36.1c18.8-23.3,24.1-36.5,27.9-76.9C125.5,71.4,157.8,32,158.1,31.5L158.1,31.5z"/>
	</g>
</g>
<rect fill-rule="evenodd" clip-rule="evenodd" fill="none" width="240" height="240"/>
</svg>
