<?xml version="1.0" encoding="utf-8"?>
<!-- Generator: Adobe Illustrator 19.2.1, SVG Export Plug-In . SVG Version: 6.00 Build 0)  -->
<svg version="1.1" id="Layer_1" xmlns="http://www.w3.org/2000/svg" xmlns:xlink="http://www.w3.org/1999/xlink" x="0px" y="0px"
	 viewBox="0 0 240 240" enable-background="new 0 0 240 240" xml:space="preserve">
<g>
	<path fill="#BDBDBD" d="M107.1,147.6c-16.6-29.2-44-44.6-79.3-44.6c-2.5,0-5.1,0.1-7.7,0.3l-4.3,0.3V87.6l3.7-0.3
		c2.8-0.2,5.6-0.3,8.3-0.3c40.8,0,72.8,17.8,92.4,51.4l1.7,2.9l-12.5,10.4L107.1,147.6z"/>
	<path fill="#1D1D1D" d="M27.8,91c39.6,0,70.3,17.5,89,49.5l-6.2,5.2C93.4,115.4,65,99,27.8,99c-2.7,0-5.4,0.1-8,0.3v-8
		C22.5,91.1,25.2,91,27.8,91 M27.8,83c-2.8,0-5.7,0.1-8.6,0.3l-7.4,0.5v7.4v8v8.7l8.6-0.7c2.5-0.2,4.9-0.3,7.4-0.3
		c17,0,32.1,3.7,44.9,10.9c12.6,7.2,23,17.8,30.9,31.6l4.7,8.3l7.4-6.1l6.2-5.2l5.2-4.3l-3.4-5.9c-10.1-17.2-23.4-30.6-39.6-39.7
		C67.8,87.6,48.8,83,27.8,83L27.8,83z"/>
</g>
<g>
	<polygon fill="#48AAB5" points="15.8,16 31.8,16 31.8,190.9 204.5,69 213.2,82.5 15.8,221 	"/>
	<g>
		<path fill="#1D1D1D" d="M27.8,20v178.6l175.5-124l4.3,6.7L19.8,213.3V20H27.8 M35.8,12h-8h-8h-8v8v193.3v15.4l12.6-8.8L212.3,87.9
			l6.3-4.4l-4.2-6.5l-4.3-6.7l-4.5-7l-6.8,4.8l-162.9,115V20V12L35.8,12z"/>
	</g>
</g>
<rect fill-rule="evenodd" clip-rule="evenodd" fill="none" width="240" height="240"/>
<g>
	<path fill-rule="evenodd" clip-rule="evenodd" fill="#BDBDBD" d="M134.4,93.9c-8.9,0-16-4-20.3-11.6c-3.4-6-5.1-13.9-5.1-23.6
		c0-7.4,1-14,3-19.4c4-10.9,11.8-16.6,22.5-16.6c9.5,0,16.8,4.1,21.2,11.9c3.1,5.6,4.7,13.3,4.7,22.8c0,8.9-1.4,16.5-4.2,22.5
		C151.8,89,144.3,93.9,134.4,93.9z M134.9,37.6c-3.1,0-5.2,1.3-6.7,4.2c-1.9,3.7-2.8,9.5-2.8,17.1c0,5.8,0.6,10.4,1.8,13.8
		c2,5.4,4.8,6.1,7.1,6.1c2.8,0,4.8-1.1,6.5-3.6c1.3-2,3-6.6,3-17.6c0-6.5-0.8-11.8-2.4-15.8C140.3,38.9,138.3,37.6,134.9,37.6z
		 M82.9,93.8c-7,0-13.1-2.6-18.1-7.8c-5.1-5.2-7.6-13.3-7.6-24.9c0-8.1,1-15.1,3.1-20.8c4.2-11.8,12.5-18,23.8-18
		c8.3,0,14.3,2.3,17.9,6.9c3.3,4.3,5,8.8,5,13.5v4H94.7c2.3,1,4.4,2.3,6.3,3.9c4.9,4.1,7.3,10.1,7.3,17.8c0,6.6-2.2,12.4-6.5,17.5
		C97.3,91.2,90.9,93.8,82.9,93.8z M83.2,59.8c-2.4,0-4.5,0.8-6.3,2.3c-1.6,1.4-2.5,3.7-2.5,6.9c0,2.9,0.8,5.3,2.5,7.2
		c1.6,1.8,3.7,2.6,6.7,2.6c3.8,0,5.3-1.4,6.1-2.5c1.5-2,2.3-4.4,2.3-7.3c0-2.4-0.7-4.6-2.1-6.8C89.5,61.7,88.3,59.8,83.2,59.8z
		 M84.3,37.2c-3,0-5.3,1.3-7.2,4.2c-1,1.5-1.7,3.3-2.3,5.4c3-1.3,6.3-2,9.9-2c2.4,0,4.8,0.3,7,0.9l-0.4-2.2
		c-0.4-2.3-1.1-3.5-1.5-4.1C89,38.5,87.7,37.2,84.3,37.2z M175.5,43.1c-9.2,0-16.7-7.5-16.7-16.7c0-9.2,7.5-16.7,16.7-16.7
		s16.7,7.5,16.7,16.7C192.2,35.6,184.7,43.1,175.5,43.1z M175.5,24c-1.3,0-2.4,1.1-2.4,2.4c0,1.3,1.1,2.4,2.4,2.4s2.4-1.1,2.4-2.4
		C177.8,25.1,176.8,24,175.5,24z"/>
	<path fill="#1D1D1D" d="M175.5,13.7c7,0,12.7,5.7,12.7,12.7c0,7-5.7,12.7-12.7,12.7c-7,0-12.7-5.7-12.7-12.7
		C162.8,19.3,168.5,13.7,175.5,13.7 M175.5,32.7c3.5,0,6.4-2.8,6.4-6.4c0-3.5-2.8-6.4-6.4-6.4c-3.5,0-6.4,2.8-6.4,6.4
		C169.1,29.9,172,32.7,175.5,32.7 M84.1,26.4c7,0,11.9,1.8,14.7,5.4c2.8,3.6,4.1,7.2,4.1,11h-7.8c-0.5-2.4-1.2-4.3-2.2-5.7
		c-1.9-2.6-4.8-3.9-8.7-3.9c-4.4,0-7.9,2-10.5,6c-2.6,4-4.1,9.7-4.3,17.2c1.8-2.6,4.1-4.6,6.9-5.8c2.5-1.1,5.3-1.7,8.4-1.7
		c5.3,0,9.9,1.6,13.8,4.9c3.9,3.3,5.9,8.2,5.9,14.8c0,5.6-1.9,10.5-5.6,14.9c-3.7,4.3-9,6.5-15.9,6.5c-5.9,0-11-2.2-15.2-6.6
		c-4.3-4.4-6.4-11.7-6.4-22.1c0-7.7,1-14.2,2.9-19.5C67.7,31.5,74.4,26.4,84.1,26.4 M83.6,82.9c4.2,0,7.3-1.4,9.3-4.1
		c2.1-2.7,3.1-6,3.1-9.7c0-3.2-0.9-6.2-2.8-9c-1.8-2.9-5.2-4.3-10.1-4.3c-3.4,0-6.4,1.1-8.9,3.3c-2.6,2.2-3.8,5.5-3.8,10
		c0,3.9,1.2,7.2,3.5,9.8C76.2,81.6,79.4,82.9,83.6,82.9 M134.4,26.6c8.1,0,14,3.3,17.7,9.8c2.8,5.1,4.2,12,4.2,20.9
		c0,8.4-1.3,15.3-3.8,20.8c-3.7,7.9-9.7,11.8-18.1,11.8c-7.6,0-13.2-3.2-16.9-9.6c-3.1-5.4-4.6-12.6-4.6-21.6c0-7,0.9-13,2.8-18
		C119.2,31.3,125.4,26.6,134.4,26.6 M134.3,82.9c4.1,0,7.4-1.8,9.8-5.3c2.4-3.6,3.7-10.2,3.7-19.9c0-7-0.9-12.8-2.6-17.3
		c-1.8-4.5-5.2-6.8-10.3-6.8c-4.7,0-8.1,2.1-10.2,6.4c-2.2,4.3-3.2,10.6-3.2,18.9c0,6.3,0.7,11.3,2.1,15.1
		C125.6,79.9,129.2,82.9,134.3,82.9 M175.5,5.7c-11.4,0-20.7,9.3-20.7,20.7c0,0.1,0,0.2,0,0.3c-5.1-5.3-12-8-20.3-8
		c-11.2,0-20,5.7-24.9,16c-1-2.7-2.4-5.3-4.4-7.8c-4.3-5.6-11.4-8.5-21-8.5c-13,0-22.8,7.3-27.6,20.6c-2.2,6.2-3.3,13.6-3.3,22.2
		c0,12.6,2.8,21.7,8.7,27.7c5.8,5.9,12.9,9,21,9c9.3,0,16.7-3.1,22-9.3c1.8-2.1,3.3-4.4,4.5-6.8c0.4,0.8,0.8,1.7,1.3,2.4
		c5.1,8.9,13.4,13.7,23.8,13.7c11.5,0,20.3-5.7,25.3-16.4c3-6.5,4.6-14.7,4.6-24.2c0-5.5-0.5-10.3-1.5-14.6
		c3.5,2.7,7.9,4.3,12.6,4.3c11.4,0,20.7-9.3,20.7-20.7C196.2,14.9,186.9,5.7,175.5,5.7L175.5,5.7z M134.3,74.9c-0.9,0-2,0-3.3-3.5
		c-1.1-2.9-1.6-7.1-1.6-12.4c0-8.8,1.3-13.2,2.4-15.4c0.9-1.7,1.6-2,3.1-2c2.1,0,2.3,0.5,2.8,1.7c1.4,3.6,2.1,8.4,2.1,14.4
		c0,11.5-1.9,14.8-2.3,15.4C136.5,74.6,135.6,74.9,134.3,74.9L134.3,74.9z M83.6,74.9c-2.6,0-3.3-0.8-3.7-1.3
		c-0.7-0.8-1.5-2-1.5-4.5c0-1.4,0.2-3.2,1.1-3.9c1.1-1,2.2-1.4,3.7-1.4c2.4,0,3.3,0.5,3.3,0.6c1,1.6,1.5,3.1,1.5,4.7
		c0,2-0.5,3.5-1.5,4.9C86.3,74.3,85.8,74.9,83.6,74.9L83.6,74.9z"/>
</g>
</svg>
