<?xml version="1.0" encoding="utf-8"?>
<!-- Generator: Adobe Illustrator 19.2.1, SVG Export Plug-In . SVG Version: 6.00 Build 0)  -->
<svg version="1.1" id="Layer_1" xmlns="http://www.w3.org/2000/svg" xmlns:xlink="http://www.w3.org/1999/xlink" x="0px" y="0px"
	 viewBox="0 0 240 240" enable-background="new 0 0 240 240" xml:space="preserve">
<polygon fill-rule="evenodd" clip-rule="evenodd" fill="#BDBDBD" stroke="#1D1D1D" stroke-width="8" stroke-miterlimit="10" points="
	85.2,187.7 98.2,165.3 80.1,165.3 80.1,75.7 98.2,75.7 85.2,53.3 72.3,30.9 59.4,53.3 46.5,75.7 64.5,75.7 64.5,165.3 46.5,165.3 
	59.4,187.7 72.3,210.1 "/>
<g>
	<path fill="#48AAB5" d="M33.7,224.3v-15.9h4c41.1,0,79.6-9.4,108.6-26.5c28.3-16.7,43.9-38.7,43.9-61.8c0-23.2-15.6-45.1-43.9-61.8
		c-29-17.1-67.6-26.5-108.6-26.5h-4V15.7h4c44.3,0,86.1,10.4,117.6,29.4c32.8,19.7,50.9,46.3,50.9,75s-18.1,55.3-50.9,75
		c-31.5,18.9-73.3,29.4-117.6,29.4H33.7z"/>
	<path fill="#1D1D1D" d="M37.7,19.7c43.6,0,84.6,10.2,115.6,28.8c31.6,18.9,49,44.3,49,71.5s-17.4,52.6-49,71.5
		c-30.9,18.6-72,28.8-115.6,28.8v-7.9c86.3,0,156.6-41.4,156.6-92.4c0-50.9-70.2-92.4-156.6-92.4V19.7 M37.7,11.7h-8v8v7.9v8h8
		c40.3,0,78.2,9.2,106.6,26c27.1,16,42,36.7,42,58.4c0,21.7-14.9,42.4-42,58.4c-28.4,16.7-66.3,26-106.6,26h-8v8v7.9v8h8
		c45,0,87.5-10.6,119.7-29.9c34.1-20.4,52.8-48.3,52.8-78.4c0-30.1-18.8-57.9-52.8-78.4C125.3,22.3,82.8,11.7,37.7,11.7L37.7,11.7z"
		/>
</g>
<rect fill-rule="evenodd" clip-rule="evenodd" fill="none" width="240" height="240"/>
</svg>
