<?xml version="1.0" encoding="utf-8"?>
<!-- Generator: Adobe Illustrator 19.2.1, SVG Export Plug-In . SVG Version: 6.00 Build 0)  -->
<svg version="1.1" id="Layer_1" xmlns="http://www.w3.org/2000/svg" xmlns:xlink="http://www.w3.org/1999/xlink" x="0px" y="0px"
	 viewBox="0 0 240 240" enable-background="new 0 0 240 240" xml:space="preserve">
<rect fill-rule="evenodd" clip-rule="evenodd" fill="none" width="240" height="240"/>
<g>
	<path fill-rule="evenodd" clip-rule="evenodd" fill="#58A5CC" d="M168.4,121.7c-4.6,54-11.2,71.6-34.5,102.8L27.2,176.3
		c0,0,43.7-21.7,52.6-73.4L168.4,121.7z"/>
</g>
<g>
	<path fill-rule="evenodd" clip-rule="evenodd" fill="#BDBDBD" d="M79.8,102.9C91.4,36,114.5,18,113.7,18h99.4
		c-0.4,0.6-40.4,53.3-44.7,103.7L79.8,102.9z"/>
</g>
<g>
	<path fill="#1D1D1D" d="M209,20c-35.2,49.4-41.4,88.3-42.4,99.7c-5,53.5-11.9,71-33.5,98.5l-100.4-42c4.1-2.9,8.8-6.5,13.7-10.9
		c19.1-17.5,31.5-39.3,36-63.1c6.8-36.6,19.1-66.4,33.8-82.3H209 M225,12H112.7c0.9,0-25.2,18.8-38.2,88.9
		c-10.1,54-59.4,76.8-59.4,76.8L135.6,228c26.3-32.6,33.7-51,38.9-107.5C179.4,67.7,224.6,12.7,225,12L225,12z"/>
</g>
<line fill-rule="evenodd" clip-rule="evenodd" fill="none" stroke="#1D1D1D" stroke-width="8" stroke-miterlimit="10" x1="79.8" y1="102.9" x2="168.4" y2="121.7"/>
<g>
	<polygon fill-rule="evenodd" clip-rule="evenodd" fill="#BDBDBD" points="47.7,113.1 47.7,104 38.6,104 38.6,88 47.7,88 47.7,78.9 
		63.7,78.9 63.7,88 72.8,88 72.8,104 63.7,104 63.7,113.1 	"/>
	<path fill="#1D1D1D" d="M59.7,82.9V92h9.1v8h-9.1v9.1h-8V100h-9.1v-8h9.1v-9.1H59.7 M67.7,74.9h-8h-8h-8v8V84h-1.1h-8v8v8v8h8h1.1
		v1.1v8h8h8h8v-8V108h1.1h8v-8v-8v-8h-8h-1.1v-1.1V74.9L67.7,74.9z"/>
</g>
<g>
	<polygon fill-rule="evenodd" clip-rule="evenodd" fill="#BDBDBD" points="184,147.2 184,138.1 174.9,138.1 174.9,122.1 184,122.1 
		184,113 200,113 200,122.1 209.1,122.1 209.1,138.1 200,138.1 200,147.2 	"/>
	<path fill="#1D1D1D" d="M196,117v9.1h9.1v8H196v9.1h-8v-9.1h-9.1v-8h9.1V117H196 M204,109h-8h-8h-8v8v1.1h-1.1h-8v8v8v8h8h1.1v1.1
		v8h8h8h8v-8v-1.1h1.1h8v-8v-8v-8h-8H204V117V109L204,109z"/>
</g>
</svg>
