<?xml version="1.0" encoding="utf-8"?>
<!-- Generator: Adobe Illustrator 19.2.1, SVG Export Plug-In . SVG Version: 6.00 Build 0)  -->
<svg version="1.1" id="Layer_1" xmlns="http://www.w3.org/2000/svg" xmlns:xlink="http://www.w3.org/1999/xlink" x="0px" y="0px"
	 viewBox="0 0 240 240" enable-background="new 0 0 240 240" xml:space="preserve">
<g>
	<path fill="#1D1D1D" d="M115.8,228.1c-1.4-0.6-14.3-6.4-27.1-16.2c-17.5-13.4-26.4-27.5-26.6-42c-0.2-20.9,18.1-40.1,54.5-57.1
		c29.8-13.9,45.5-28.6,45.3-42.5c-0.1-12.1-11.6-23.1-21.3-30.3c-11.2-8.3-22.4-13.3-22.5-13.4l-3.6-1.6l1.6-3.6l4.9-11l3.7,1.6
		c1.4,0.6,14.2,6.4,27,16.2c17.4,13.3,26.3,27.4,26.4,42c0.2,21-18.2,40.2-54.6,57.2c-29.7,13.8-45.4,28.5-45.2,42.4
		c0.1,12.1,11.7,23.2,21.4,30.4c11.3,8.3,22.6,13.4,22.7,13.4l3.6,1.6l-1.6,3.7l-4.8,11L115.8,228.1z"/>
	<path fill="#1D1D1D" d="M122.9,15.6c2.1,0.9,50.7,22.8,51,54.5c0.2,19.3-17.4,37.3-52.3,53.5c-31.7,14.8-47.7,30.2-47.5,46.1
		c0.3,26.6,46.1,47.2,46.5,47.4l-3.2,7.3c-2.1-0.9-51-22.8-51.3-54.6c-0.2-19.2,17.4-37.2,52.2-53.4c31.8-14.8,47.8-30.3,47.7-46.2
		c-0.2-26.6-45.8-47.1-46.2-47.3L122.9,15.6 M118.9,5l-3.2,7.3l-3.2,7.3l-3.2,7.3l7.3,3.2c10.7,4.8,41.3,22.5,41.5,40.1
		c0.1,12.3-14.8,25.7-43,38.8c-37.9,17.6-57,38.1-56.8,60.7c0.2,15.8,9.6,31,28.1,45.2c13.2,10.1,26.5,16,27.9,16.7l7.3,3.2l3.2-7.3
		l3.2-7.3l3.2-7.3l-7.3-3.2c-10.8-4.8-41.6-22.5-41.7-40.2c-0.1-5.6,3.1-11.5,9.4-17.6c7.3-7.1,18.6-14.2,33.5-21.1
		c38-17.7,57.1-38.1,56.9-60.8c-0.1-15.8-9.6-31-28-45.1c-13.1-10.1-26.3-16-27.8-16.7L118.9,5L118.9,5z"/>
</g>
<path fill-rule="evenodd" clip-rule="evenodd" fill="none" stroke="#BDBDBD" stroke-width="8" stroke-miterlimit="10" d="
	M121.3,19.3c0,0,110.3,48.8-1.4,100.7"/>
<path fill-rule="evenodd" clip-rule="evenodd" fill="none" stroke="#58A5CC" stroke-width="8" stroke-miterlimit="10" d="M119.9,120
	c-111.6,51.9-1,100.7-1,100.7"/>
<line fill-rule="evenodd" clip-rule="evenodd" fill="none" stroke="#1D1D1D" stroke-width="8" stroke-miterlimit="10" x1="117.7" y1="115.1" x2="122.2" y2="124.9"/>
<g>
	<polygon fill-rule="evenodd" clip-rule="evenodd" fill="#BDBDBD" points="92.7,109.1 92.7,100 83.6,100 83.6,84 92.7,84 92.7,74.9 
		108.7,74.9 108.7,84 117.8,84 117.8,100 108.7,100 108.7,109.1 	"/>
	<path fill="#1D1D1D" d="M104.7,78.9V88h9.1v8h-9.1v9.1h-8V96h-9.1v-8h9.1v-9.1H104.7 M112.7,70.9h-8h-8h-8v8V80h-1.1h-8v8v8v8h8
		h1.1v1.1v8h8h8h8v-8V104h1.1h8v-8v-8v-8h-8h-1.1v-1.1V70.9L112.7,70.9z"/>
</g>
<g>
	<polygon fill-rule="evenodd" clip-rule="evenodd" fill="#BDBDBD" points="132.7,161.4 132.7,152.3 123.6,152.3 123.6,136.3 
		132.7,136.3 132.7,127.3 148.7,127.3 148.7,136.3 157.8,136.3 157.8,152.3 148.7,152.3 148.7,161.4 	"/>
	<path fill="#1D1D1D" d="M144.7,131.3v9.1h9.1v8h-9.1v9.1h-8v-9.1h-9.1v-8h9.1v-9.1H144.7 M152.7,123.3h-8h-8h-8v8v1.1h-1.1h-8v8v8
		v8h8h1.1v1.1v8h8h8h8v-8v-1.1h1.1h8v-8v-8v-8h-8h-1.1v-1.1V123.3L152.7,123.3z"/>
</g>
<rect fill-rule="evenodd" clip-rule="evenodd" fill="none" width="240" height="240"/>
</svg>
