<?xml version="1.0" encoding="utf-8"?>
<!-- Generator: Adobe Illustrator 19.2.1, SVG Export Plug-In . SVG Version: 6.00 Build 0)  -->
<svg version="1.1" id="Layer_1" xmlns="http://www.w3.org/2000/svg" xmlns:xlink="http://www.w3.org/1999/xlink" x="0px" y="0px"
	 viewBox="0 0 240 240" enable-background="new 0 0 240 240" xml:space="preserve">
<g>
	<path fill="#BDBDBD" d="M87.5,223.9c-15.2,0-32.9-8.7-47.6-23.4c-11.1-11.1-18.9-24.1-22-36.6c-3.2-13.2-0.9-24.5,6.6-32
		c5.2-5.2,12.5-8,20.9-8c3.9,0,8,0.6,12.3,1.7c12.2,3.3,24.7,10.9,35.4,21.6c10.7,10.7,18.4,23.3,21.6,35.4
		c3.7,13.7,1.4,25.5-6.3,33.2C103.3,221.1,96.1,223.9,87.5,223.9z M45.6,139.9c-4.2,0-7.4,1.1-9.6,3.3c-3.6,3.6-4.3,10.4-1.8,18.7
		c2.7,9.1,9,19.1,17.2,27.3c8.7,8.7,18.8,14.9,28.2,17.5c2.9,0.8,5.6,1.2,8.1,1.2c0,0,0,0,0,0c4.2,0,7.5-1.1,9.6-3.3
		c7.2-7.2,2.7-27.9-15.3-46c-8.7-8.7-18.8-14.9-28.2-17.5C50.8,140.3,48,139.9,45.6,139.9z"/>
	<path fill="#1D1D1D" d="M45.5,127.9c3.5,0,7.3,0.5,11.2,1.6c11.5,3.1,23.4,10.4,33.6,20.6c10.2,10.2,17.5,22.1,20.6,33.6
		c3.3,12.3,1.4,22.7-5.2,29.3c-4.6,4.6-11,6.8-18.2,6.8c-13.6,0-30.4-7.8-44.7-22.2c-22-22-28.7-49.6-15.3-63
		C31.9,130.2,38.2,127.9,45.5,127.9 M87.6,211.9c5.2,0,9.5-1.5,12.5-4.5c9.8-9.8,2.8-33.5-15.3-51.7c-9.2-9.2-19.9-15.8-30-18.5
		c-3.3-0.9-6.3-1.3-9.1-1.3c-5.2,0-9.5,1.5-12.5,4.5c-9.8,9.8-2.8,33.5,15.3,51.7c9.2,9.2,19.9,15.8,30,18.5
		C81.8,211.4,84.8,211.9,87.6,211.9 M45.5,119.9L45.5,119.9c-9.6,0-17.8,3.2-23.8,9.2c-8.5,8.5-11.2,21.2-7.7,35.8
		c3.2,13.2,11.4,26.8,23,38.5c15.4,15.4,34.2,24.5,50.4,24.5c9.6,0,17.9-3.2,23.9-9.2c8.8-8.8,11.4-21.9,7.3-37.1
		c-3.4-12.8-11.5-26-22.7-37.2c-11.2-11.2-24.4-19.2-37.2-22.6C54.2,120.5,49.8,119.9,45.5,119.9L45.5,119.9z M87.6,203.9
		c-2.1,0-4.5-0.3-7.1-1c-8.8-2.4-18.2-8.2-26.5-16.4c-7.7-7.7-13.6-17.1-16.2-25.6c-2-6.7-1.7-12.3,0.8-14.8
		c1.8-1.8,4.7-2.1,6.8-2.1c2.1,0,4.5,0.3,7.1,1c8.8,2.4,18.2,8.2,26.5,16.4c7.7,7.7,13.6,17.1,16.2,25.6c2,6.7,1.7,12.3-0.8,14.8
		C92.7,203.5,89.8,203.9,87.6,203.9L87.6,203.9z"/>
</g>
<g>
	<path fill="#BDBDBD" d="M130.5,210.7c-5.4,0-11.2-0.8-17.2-2.4c-17.4-4.7-35.5-15.7-50.9-31.1c-15.4-15.4-26.5-33.5-31.1-50.9
		c-5.1-19-2.1-35.2,8.3-45.6c7-7,16.8-10.7,28.4-10.7c5.4,0,11.2,0.8,17.2,2.4c17.4,4.7,35.5,15.7,50.9,31.1
		c15.4,15.4,26.5,33.5,31.1,50.9c5.1,19,2.1,35.2-8.3,45.6C151.9,207,142.1,210.7,130.5,210.7z M68,85.9c-7.2,0-13.1,2.1-17.1,6
		c-6.2,6.2-7.7,16.9-4.2,30.1c4,14.8,13.5,30.3,27,43.7c13.4,13.4,29,23,43.7,27c4.7,1.2,9,1.9,13.1,1.9c7.2,0,13.1-2.1,17.1-6
		c6.2-6.2,7.7-16.9,4.2-30.1c-4-14.8-13.5-30.3-27-43.7c-13.4-13.4-29-23-43.7-27C76.4,86.5,72,85.9,68,85.9z"/>
	<path fill="#1D1D1D" d="M67.9,73.9c5,0,10.5,0.8,16.2,2.3c16.8,4.5,34.2,15.2,49.1,30.1c14.9,14.9,25.6,32.4,30.1,49.1
		c4.7,17.5,2.1,32.4-7.3,41.7c-6.3,6.3-15.1,9.6-25.5,9.6c-5,0-10.5-0.8-16.2-2.3c-16.8-4.5-34.2-15.2-49.1-30.1
		c-14.9-14.9-25.6-32.4-30.1-49.1c-4.7-17.5-2.1-32.4,7.3-41.7C48.7,77.1,57.5,73.9,67.9,73.9 M130.5,198.7c8.3,0,15.1-2.4,19.9-7.2
		c7.3-7.3,9.1-19.4,5.2-34c-4.1-15.4-14.1-31.6-28-45.5C113.7,98,97.5,88,82.1,83.9c-5-1.3-9.8-2-14.1-2c-8.3,0-15.1,2.4-19.9,7.2
		c-7.3,7.3-9.1,19.4-5.2,34c4.1,15.4,14.1,31.6,28,45.5c13.9,13.9,30.1,23.9,45.5,28C121.4,198,126.2,198.7,130.5,198.7 M67.9,65.9
		v8V65.9L67.9,65.9c-12.6,0-23.4,4.1-31.2,11.9c-11.5,11.5-14.8,29.1-9.3,49.5c4.8,18.1,16.3,36.8,32.2,52.7
		c15.9,15.9,34.6,27.3,52.7,32.2c6.3,1.7,12.5,2.6,18.3,2.6c12.6,0,23.4-4.1,31.2-11.9c11.5-11.5,14.8-29.1,9.3-49.5
		c-4.8-18.1-16.3-36.8-32.2-52.7C123,84.7,104.3,73.3,86.2,68.4C79.9,66.8,73.7,65.9,67.9,65.9L67.9,65.9z M130.5,190.7
		c-3.7,0-7.7-0.6-12-1.7c-14.1-3.8-29-13-41.9-25.9c-13-13-22.2-27.9-25.9-41.9c-3.2-11.8-2-21.1,3.1-26.3c3.2-3.2,8-4.9,14.3-4.9
		c3.7,0,7.7,0.6,12,1.7c14.1,3.8,29,13,41.9,25.9c13,13,22.2,27.9,25.9,41.9c3.2,11.8,2,21.1-3.1,26.3
		C141.5,189,136.7,190.7,130.5,190.7L130.5,190.7z"/>
</g>
<g>
	<path fill="#BDBDBD" d="M173.9,198.7c-7,0-14.5-1.1-22.3-3.1c-22.8-6.1-46.5-20.6-66.8-40.9C64.6,134.5,50,110.8,43.9,88
		c-6.5-24.4-2.8-45.1,10.4-58.3c8.9-8.9,21.3-13.5,36-13.5c7,0,14.5,1.1,22.3,3.1c22.8,6.1,46.5,20.6,66.8,40.9
		c20.2,20.2,34.7,43.9,40.9,66.8c6.5,24.4,2.8,45.1-10.4,58.3C201,194,188.5,198.7,173.9,198.7z M90.4,32.1
		c-10.4,0-18.9,3.1-24.7,8.9c-9,9-11.2,24.2-6.3,42.8c5.4,20.1,18.4,41.3,36.7,59.6c18.3,18.3,39.4,31.3,59.6,36.7
		c6.4,1.7,12.5,2.6,18.1,2.6c10.4,0,18.9-3.1,24.7-8.9c9-9,11.2-24.2,6.3-42.8c-5.4-20.1-18.4-41.3-36.7-59.6s-39.4-31.3-59.6-36.7
		C102,33,95.9,32.1,90.4,32.1z"/>
	<path fill="#1D1D1D" d="M90.3,20.1c6.6,0,13.7,1,21.3,3c22.1,5.9,45.2,20.1,65,39.8c19.7,19.7,33.9,42.8,39.8,65
		c6.1,22.9,2.8,42.2-9.4,54.4c-8.2,8.2-19.6,12.4-33.2,12.4c-6.6,0-13.7-1-21.3-3c-22.2-5.9-45.2-20.1-65-39.8
		c-19.7-19.7-33.9-42.8-39.8-65C41.7,64,45,44.7,57.2,32.5C65.3,24.3,76.8,20.1,90.3,20.1 M173.8,186.7c11.4,0,20.9-3.4,27.5-10
		c10.1-10.1,12.7-26.7,7.3-46.7c-5.6-20.8-19-42.6-37.8-61.4c-18.8-18.8-40.6-32.2-61.4-37.8c-6.8-1.8-13.3-2.7-19.2-2.7
		c-11.4,0-20.9,3.4-27.5,10c-10.1,10.1-12.7,26.7-7.3,46.7c5.6,20.8,19,42.6,37.8,61.4c18.8,18.8,40.6,32.2,61.4,37.8
		C161.5,185.8,167.9,186.7,173.8,186.7 M90.3,12.1L90.3,12.1c-15.8,0-29.2,5.1-38.8,14.7C37.2,41.1,33.2,63.2,40.1,89
		c6.3,23.5,21.2,47.8,41.9,68.6c20.7,20.7,45.1,35.6,68.6,41.9c8.1,2.2,16,3.3,23.3,3.3c15.8,0,29.2-5.1,38.8-14.7
		c14.3-14.3,18.3-36.4,11.4-62.1c-6.3-23.5-21.2-47.8-41.9-68.6c-20.7-20.7-45.1-35.6-68.6-41.9C105.5,13.2,97.7,12.1,90.3,12.1
		L90.3,12.1z M173.8,178.7c-5.2,0-11-0.8-17.1-2.5c-19.5-5.2-40-17.9-57.8-35.7c-17.8-17.8-30.5-38.3-35.7-57.8
		c-4.6-17.2-2.7-31,5.2-39c5.1-5.1,12.5-7.7,21.9-7.7c5.2,0,11,0.8,17.1,2.5c19.5,5.2,40,17.9,57.8,35.7
		c17.8,17.8,30.5,38.3,35.7,57.8c4.6,17.2,2.7,31-5.2,39C190.6,176.1,183.2,178.7,173.8,178.7L173.8,178.7z"/>
</g>
<rect fill-rule="evenodd" clip-rule="evenodd" fill="none" width="240" height="240"/>
</svg>
