<?xml version="1.0" encoding="iso-8859-1"?>
<!-- Generator: Adobe Illustrator 19.2.1, SVG Export Plug-In . SVG Version: 6.00 Build 0)  -->
<svg version="1.1" id="Layer_1" xmlns="http://www.w3.org/2000/svg" xmlns:xlink="http://www.w3.org/1999/xlink" x="0px" y="0px"
	 viewBox="0 0 240 240" style="enable-background:new 0 0 240 240;" xml:space="preserve">
<g>
	
		<rect x="110.769" y="67.408" transform="matrix(0.7071 -0.7071 0.7071 0.7071 -48.5467 118.6845)" style="fill-rule:evenodd;clip-rule:evenodd;fill:#BDBDBD;" width="16.461" height="101.077"/>
	<path style="fill:#1D1D1D;" d="M89.084,82.048l65.815,65.815l-5.983,5.983L83.101,88.031L89.084,82.048 M89.084,70.734
		l-5.657,5.657l-5.983,5.983l-5.657,5.657l5.657,5.657l65.815,65.815l5.657,5.657l5.657-5.657l5.983-5.983l5.657-5.657l-5.657-5.657
		L94.741,76.391L89.084,70.734L89.084,70.734z"/>
</g>
<g>
	<rect x="101" y="147" style="fill:#BFB23A;" width="88" height="38"/>
	<path style="fill:#1D1D1D;" d="M185,151v30h-80v-30H185 M193,143h-8h-80h-8v8v30v8h8h80h8v-8v-30V143L193,143z"/>
</g>
<g>
	<rect x="51" y="55" style="fill:#BFB23A;" width="88" height="38"/>
	<path style="fill:#1D1D1D;" d="M135,59v30H55V59H135 M143,51h-8H55h-8v8v30v8h8h80h8v-8V59V51L143,51z"/>
</g>
<path style="fill:#BDBDBD;stroke:#1D1D1D;stroke-width:8;stroke-linecap:round;stroke-miterlimit:10;" d="M224,16H16v208l0,0h208V16
	z M208.363,208.363H31.637V31.637h176.725V208.363z"/>
<rect style="fill-rule:evenodd;clip-rule:evenodd;fill:none;" width="240" height="240"/>
</svg>
