<?xml version="1.0" encoding="iso-8859-1"?>
<!-- Generator: Adobe Illustrator 19.2.1, SVG Export Plug-In . SVG Version: 6.00 Build 0)  -->
<svg version="1.1" id="Layer_1" xmlns="http://www.w3.org/2000/svg" xmlns:xlink="http://www.w3.org/1999/xlink" x="0px" y="0px"
	 viewBox="0 0 240 240" style="enable-background:new 0 0 240 240;" xml:space="preserve">
<g>
	<rect x="40" y="75" style="fill:#BDBDBD;" width="112" height="149"/>
	<path style="fill:#1D1D1D;" d="M148,79v141H44V79H148 M156,71h-8H44h-8v8v141v8h8h104h8v-8V79V71L156,71z"/>
</g>
<path style="fill-rule:evenodd;clip-rule:evenodd;fill:#111111;" d="M60.008,110H132v12H60.008V110z"/>
<g>
	<g>
		<path style="fill:#7895CF;" d="M173.362,88.122c-4.901,0-9.134-2.157-11.61-5.918c-0.419-0.636-0.776-1.313-1.087-2.062
			c-0.393-0.686-0.876-1.523-1.451-2.5c-2.43-4.123-4.991-8.217-7.616-12.167c-4.12-6.185-8.002-11.452-11.866-16.096
			c-2.563-3.072-4.951-5.663-7.297-7.914c-2.813-2.696-5.423-4.75-7.757-6.105c-1.239-0.712-2.389-1.223-3.308-1.469
			c-0.62-0.167-0.96-0.213-1.139-0.223c-0.056-0.003-0.111-0.007-0.166-0.013l-0.245-0.003c-0.086,0.007-0.154,0.012-0.208,0.015
			c-0.233,0.016-0.52,0.041-0.788,0.079c-0.967,0.131-1.775,0.389-2.362,0.749c-0.025,0.016-0.051,0.031-0.078,0.046
			c0,0-0.167,0.117-0.186,0.13c-0.035,0.029-0.162,0.132-0.162,0.132l-0.163,0.171c-0.073,0.086-0.153,0.172-0.238,0.259
			l-0.072,0.095c-0.079,0.119-0.162,0.239-0.229,0.372c-0.42,0.789-0.703,1.817-0.833,2.966c-0.142,1.208-0.14,2.575,0.001,4.077
			c0.252,2.639,0.897,5.448,1.917,8.342c0.818,2.334,1.889,4.507,3.183,6.465c1.069,1.618,2.269,3.123,3.566,4.474
			c1.043,1.102,1.973,1.909,2.651,2.498l0.107,0.093l1.111,0.904c1.606,1.305,1.953,3.62,0.798,5.337
			c-0.768,1.141-2.029,1.768-3.322,1.768c-0.652,0-1.313-0.16-1.922-0.494c0,0-1.398-0.769-1.437-0.792l-0.187-0.111
			c-0.871-0.516-2.186-1.294-3.73-2.427c-1.96-1.417-3.85-3.067-5.597-4.889c-2.195-2.284-4.231-5.029-5.884-7.934
			c-2.04-3.58-3.534-7.078-4.566-10.692c-0.68-2.418-1.083-4.658-1.235-6.862c-0.206-3.018,0.072-5.753,0.849-8.365
			c0.237-0.823,0.552-1.616,0.799-2.212c0.028-0.067,0.058-0.134,0.089-0.199l0.431-0.898c0.211-0.418,0.435-0.795,0.654-1.158
			l0.397-0.638c0,0,0.369-0.565,0.384-0.588c-0.222,0.346-0.386,0.722-0.491,1.113c0.148-0.519,0.421-1.074,0.881-1.637l0.337-0.422
			c0.31-0.393,0.62-0.75,0.93-1.07c0.259-0.278,0.561-0.596,0.883-0.889c2.282-2.153,5.094-3.811,8.357-4.926
			c0.666-0.23,1.375-0.442,2.152-0.644c0.202-0.057,0.337-0.094,0.578-0.146l0.782-0.162c0.384-0.077,0.771-0.15,1.152-0.195
			c1.029-0.151,2.079-0.225,3.205-0.225c0.607,0,1.209,0.022,1.804,0.06c2.768,0.183,5.527,0.777,8.69,1.869
			c5.541,1.974,10.065,4.726,13.394,6.904c3.445,2.274,6.95,4.905,10.728,8.05c5.428,4.538,10.718,9.51,16.653,15.651
			c3.708,3.849,7.228,7.706,10.765,11.796c1.056,1.223,1.903,2.224,2.547,2.992c0.653,0.636,1.236,1.341,1.735,2.099
			c1.895,2.876,2.531,6.42,1.793,9.978c-0.875,4.217-3.603,8.091-7.483,10.629C180.021,87.108,176.705,88.122,173.362,88.122
			C173.363,88.122,173.363,88.122,173.362,88.122z"/>
		<path style="fill:#1D1D1D;" d="M122.327,19.162c0.521,0,1.038,0.019,1.548,0.052c2.759,0.182,5.284,0.844,7.643,1.658
			c4.699,1.673,8.752,4.011,12.508,6.47c3.747,2.474,7.171,5.122,10.359,7.777c6.365,5.322,11.805,10.669,16.337,15.357
			c4.523,4.695,8.121,8.748,10.614,11.632c1.118,1.295,2,2.339,2.65,3.116c0.493,0.46,0.937,0.98,1.319,1.56
			c3.074,4.666,1.041,11.408-4.54,15.059c-2.347,1.535-4.946,2.279-7.401,2.279c-3.383,0-6.489-1.414-8.27-4.118
			c-0.338-0.513-0.603-1.054-0.82-1.61c-0.422-0.739-0.96-1.671-1.612-2.781c-1.78-3.021-4.395-7.33-7.731-12.351
			c-3.339-5.012-7.396-10.757-12.123-16.44c-2.364-2.834-4.9-5.649-7.603-8.242c-2.696-2.584-5.585-4.975-8.517-6.678
			c-1.457-0.837-2.924-1.51-4.284-1.874c-0.68-0.184-1.342-0.32-1.96-0.353c-0.162-0.024-0.308-0.013-0.462-0.019l-0.231-0.007
			c-0.006-0.001-0.013-0.001-0.022-0.001c-0.072,0-0.235,0.02-0.32,0.025c-0.388,0.025-0.779,0.061-1.145,0.113
			c-1.482,0.201-2.814,0.638-3.894,1.301c-0.143,0.077-0.266,0.171-0.395,0.261c-0.135,0.085-0.256,0.183-0.374,0.284l-0.184,0.147
			l-0.023,0.018c0.08-0.098,0.101-0.125,0.101-0.125c-0.001,0-0.033,0.039-0.034,0.039c0,0,0.001-0.002,0.005-0.007l-0.064,0.068
			l-0.129,0.136l-0.257,0.272l-0.121,0.128l-0.054,0.063c-0.076,0.091-0.152,0.144-0.246,0.261l-0.298,0.388
			c-0.181,0.278-0.368,0.558-0.526,0.868c-0.654,1.225-1.062,2.736-1.243,4.328c-0.187,1.594-0.161,3.263-0.007,4.903
			c0.315,3.292,1.131,6.47,2.127,9.296c0.993,2.833,2.253,5.277,3.619,7.343c1.361,2.061,2.769,3.738,4.018,5.039
			c1.242,1.313,2.332,2.241,3.069,2.883c0.76,0.617,1.165,0.946,1.165,0.946s-0.459-0.252-1.32-0.725
			c-0.844-0.501-2.099-1.228-3.594-2.325c-1.502-1.086-3.255-2.534-5.074-4.431c-1.815-1.888-3.676-4.297-5.295-7.143
			c-1.619-2.842-3.129-6.074-4.197-9.813c-0.526-1.871-0.942-3.872-1.091-6.039c-0.147-2.159-0.031-4.513,0.693-6.95
			c0.176-0.608,0.409-1.214,0.661-1.821l0.431-0.899c0.156-0.307,0.373-0.656,0.568-0.979l0.26-0.412l0.204-0.314l0.102-0.157
			l0.051-0.079c0.011-0.014,0.014-0.018,0.014-0.018c-0.001,0-0.009,0.009-0.01,0.009c-0.001,0,0.018-0.025,0.126-0.157l0.04-0.05
			l0.323-0.403c0.215-0.272,0.438-0.537,0.678-0.784c0.236-0.253,0.473-0.509,0.729-0.738c2.015-1.911,4.459-3.232,6.934-4.077
			c0.624-0.216,1.238-0.396,1.862-0.557c0.158-0.04,0.218-0.065,0.419-0.108l0.535-0.111c0.357-0.07,0.72-0.151,1.075-0.189
			C120.548,19.217,121.444,19.162,122.327,19.162 M122.327,11.162c-1.302,0-2.523,0.085-3.728,0.259
			c-0.573,0.07-1.054,0.167-1.416,0.24l-0.16,0.032c-0.027,0.005-0.054,0.011-0.081,0.016l-0.535,0.111
			c-0.022,0.004-0.043,0.009-0.065,0.014c-0.345,0.075-0.543,0.129-0.745,0.186c-0.877,0.228-1.681,0.469-2.459,0.738
			c-3.769,1.288-7.059,3.231-9.753,5.766c-0.458,0.418-0.826,0.811-1.104,1.109c-0.377,0.393-0.748,0.822-1.131,1.307l-0.308,0.385
			l-0.038,0.048c-0.052,0.065-0.103,0.129-0.152,0.194l0,0c-0.154,0.194-0.299,0.396-0.435,0.603l-0.051,0.079l-0.103,0.158
			l-0.204,0.314c-0.022,0.033-0.043,0.067-0.065,0.101l-0.26,0.412c-0.03,0.047-0.059,0.095-0.088,0.142l-0.088,0.145
			c-0.22,0.363-0.494,0.815-0.759,1.338c-0.027,0.054-0.054,0.107-0.08,0.161l-0.431,0.899c-0.062,0.13-0.121,0.262-0.176,0.395
			c-0.284,0.685-0.648,1.601-0.949,2.638c-0.908,3.069-1.234,6.255-0.997,9.741c0.172,2.488,0.621,4.991,1.372,7.662
			c1.13,3.956,2.745,7.743,4.947,11.607c1.811,3.184,4.052,6.203,6.479,8.727c1.901,1.983,3.968,3.788,6.135,5.356
			c1.691,1.238,3.099,2.072,4.031,2.624l0.185,0.109c0.078,0.046,0.156,0.091,0.235,0.134l1.32,0.725
			c1.217,0.668,2.539,0.988,3.844,0.988c2.585,0,5.108-1.253,6.644-3.536c2.31-3.435,1.619-8.064-1.594-10.674l-1.062-0.863
			l-0.065-0.057c-0.649-0.563-1.456-1.264-2.34-2.198c-0.014-0.014-0.027-0.029-0.041-0.043c-1.131-1.178-2.179-2.493-3.114-3.908
			c-1.115-1.686-2.037-3.562-2.744-5.579c-0.915-2.599-1.49-5.089-1.713-7.413c-0.114-1.212-0.118-2.296-0.011-3.21
			c0.071-0.627,0.189-1.066,0.278-1.311c0.128-0.038,0.322-0.085,0.589-0.121c0.124-0.017,0.294-0.038,0.573-0.056c0,0,0,0,0,0
			c0.006,0,0.011,0.001,0.017,0.001c0.05,0.009,0.17,0.034,0.383,0.091c0.294,0.079,1.066,0.329,2.391,1.089
			c2.025,1.176,4.38,3.039,6.964,5.516c2.235,2.145,4.524,4.629,6.995,7.591c3.768,4.53,7.568,9.685,11.608,15.751
			c2.577,3.88,5.101,7.912,7.496,11.977c0.508,0.864,0.946,1.619,1.31,2.254c0.383,0.881,0.83,1.712,1.334,2.477
			c3.183,4.833,8.772,7.718,14.951,7.718c4.122,0,8.195-1.239,11.779-3.583c4.764-3.116,8.121-7.914,9.21-13.165
			c0.956-4.607,0.115-9.22-2.368-12.99c-0.619-0.939-1.334-1.816-2.132-2.613c-0.778-0.927-1.605-1.898-2.462-2.891
			c-3.59-4.152-7.157-8.061-10.908-11.954c-6.046-6.254-11.434-11.318-16.966-15.944c-3.901-3.249-7.522-5.966-11.084-8.317
			c-3.541-2.318-8.332-5.229-14.231-7.329c-0.024-0.009-0.049-0.017-0.073-0.026c-3.509-1.212-6.599-1.872-9.726-2.079
			C123.684,11.185,122.989,11.162,122.327,11.162L122.327,11.162z"/>
	</g>
	<g>
		<path style="fill:#7895CF;" d="M189.463,141.542c-0.608,0-1.211-0.022-1.807-0.062c-2.763-0.182-5.523-0.775-8.69-1.868
			c-5.539-1.973-10.064-4.726-13.393-6.904c-3.452-2.278-6.957-4.909-10.729-8.051c-5.426-4.537-10.716-9.508-16.652-15.65
			c-3.708-3.849-7.228-7.706-10.765-11.796c-1.055-1.223-1.902-2.224-2.546-2.992c-0.654-0.636-1.237-1.341-1.737-2.101
			c-1.894-2.875-2.53-6.417-1.792-9.976c0.875-4.217,3.603-8.091,7.483-10.629c2.932-1.917,6.248-2.931,9.59-2.931
			c4.902,0,9.134,2.157,11.611,5.918c0.419,0.636,0.776,1.313,1.087,2.061c0.393,0.687,0.877,1.524,1.452,2.501
			c2.429,4.123,4.99,8.217,7.615,12.167c4.117,6.18,7.999,11.447,11.866,16.096c2.563,3.072,4.951,5.663,7.297,7.914
			c2.812,2.695,5.423,4.75,7.757,6.105c1.238,0.711,2.388,1.223,3.31,1.47c0.616,0.166,0.96,0.212,1.141,0.222
			c0.05,0.003,0.099,0.006,0.148,0.011c0.096,0.001,0.267,0.005,0.267,0.005l0.161-0.013c0.274-0.018,0.561-0.043,0.826-0.08
			c0.968-0.132,1.776-0.39,2.362-0.75c0.025-0.016,0.052-0.031,0.078-0.046c0.046-0.033,0.164-0.116,0.186-0.13
			c0.036-0.03,0.162-0.132,0.162-0.132l0.165-0.175c0.08-0.094,0.157-0.177,0.235-0.256l0.075-0.099
			c0.096-0.145,0.168-0.252,0.228-0.37c0.419-0.786,0.702-1.815,0.832-2.963c0.142-1.207,0.141-2.575-0.001-4.078
			c-0.253-2.638-0.898-5.447-1.917-8.341c-0.819-2.335-1.89-4.509-3.183-6.465c-1.068-1.617-2.269-3.122-3.567-4.475
			c-1.042-1.101-1.97-1.906-2.647-2.494l-0.111-0.096l-1.111-0.904c-1.606-1.305-1.953-3.62-0.798-5.337
			c0.768-1.141,2.029-1.768,3.322-1.768c0.652,0,1.313,0.16,1.922,0.494c0,0,1.398,0.769,1.438,0.792l0.193,0.115
			c0.869,0.515,2.182,1.293,3.723,2.422c1.958,1.417,3.848,3.067,5.596,4.889c2.197,2.286,4.232,5.031,5.884,7.935
			c2.039,3.578,3.533,7.076,4.566,10.691c0.681,2.418,1.084,4.657,1.236,6.861c0.205,3.021-0.073,5.756-0.85,8.368
			c-0.239,0.828-0.555,1.62-0.801,2.214c-0.027,0.066-0.057,0.131-0.087,0.195l-0.431,0.898c-0.212,0.419-0.436,0.796-0.654,1.158
			l-0.401,0.643c0,0-0.355,0.547-0.366,0.563c0.229-0.361,0.395-0.755,0.495-1.163c-0.142,0.538-0.417,1.114-0.895,1.702
			l-0.34,0.426c-0.314,0.397-0.623,0.752-0.931,1.07c-0.258,0.278-0.562,0.598-0.886,0.892c-2.282,2.153-5.093,3.811-8.355,4.926
			c-0.669,0.23-1.376,0.442-2.15,0.644c-0.209,0.059-0.342,0.095-0.571,0.146l-0.797,0.163c-0.382,0.077-0.768,0.149-1.147,0.194
			C191.636,141.468,190.588,141.542,189.463,141.542z"/>
		<path style="fill:#1D1D1D;" d="M138.426,72.582c3.383,0,6.489,1.414,8.27,4.118c0.338,0.513,0.603,1.054,0.82,1.61
			c0.422,0.739,0.96,1.672,1.612,2.781c1.78,3.021,4.395,7.33,7.731,12.351c3.339,5.012,7.396,10.757,12.123,16.44
			c2.364,2.834,4.9,5.649,7.603,8.242c2.696,2.584,5.585,4.975,8.517,6.678c1.457,0.837,2.924,1.51,4.284,1.874
			c0.68,0.184,1.342,0.32,1.96,0.353c0.162,0.024,0.308,0.013,0.462,0.019l0.231,0.007c0.006,0.001,0.013,0.001,0.022,0.001
			c0.072,0,0.235-0.02,0.32-0.025c0.388-0.025,0.779-0.061,1.145-0.113c1.482-0.201,2.814-0.638,3.894-1.301
			c0.143-0.077,0.266-0.171,0.395-0.261c0.135-0.085,0.256-0.183,0.374-0.284l0.184-0.147l0.023-0.018
			c-0.08,0.098-0.101,0.125-0.101,0.125c0.001,0,0.033-0.039,0.034-0.039c0,0-0.001,0.002-0.005,0.007l0.064-0.068l0.129-0.136
			l0.257-0.272l0.12-0.128l0.054-0.063c0.076-0.091,0.152-0.144,0.246-0.261l0.298-0.388c0.18-0.278,0.368-0.558,0.526-0.868
			c0.654-1.225,1.062-2.736,1.243-4.328c0.187-1.594,0.161-3.263,0.007-4.903c-0.315-3.292-1.131-6.47-2.127-9.296
			c-0.993-2.833-2.253-5.277-3.619-7.343c-1.361-2.061-2.769-3.738-4.018-5.039c-1.242-1.313-2.332-2.241-3.069-2.883
			c-0.76-0.617-1.165-0.946-1.165-0.946s0.459,0.252,1.32,0.725c0.844,0.501,2.099,1.228,3.595,2.325
			c1.502,1.086,3.254,2.534,5.074,4.432c1.815,1.888,3.676,4.297,5.295,7.143c1.619,2.842,3.129,6.074,4.197,9.813
			c0.526,1.871,0.942,3.872,1.091,6.039c0.147,2.159,0.031,4.513-0.693,6.95c-0.176,0.608-0.409,1.214-0.661,1.821l-0.431,0.899
			c-0.156,0.307-0.373,0.656-0.568,0.979l-0.26,0.412l-0.204,0.314l-0.102,0.157l-0.051,0.079c-0.011,0.014-0.014,0.018-0.014,0.018
			c0.001,0,0.009-0.009,0.01-0.009c0.001,0-0.018,0.025-0.126,0.157l-0.04,0.05l-0.323,0.403c-0.215,0.272-0.438,0.537-0.678,0.784
			c-0.236,0.253-0.473,0.509-0.729,0.738c-2.015,1.911-4.459,3.232-6.934,4.077c-0.624,0.216-1.238,0.396-1.862,0.557
			c-0.158,0.04-0.218,0.065-0.419,0.108l-0.535,0.111c-0.357,0.07-0.72,0.151-1.075,0.189c-0.905,0.137-1.802,0.192-2.684,0.192
			c-0.521,0-1.038-0.019-1.548-0.052c-2.759-0.182-5.284-0.844-7.643-1.658c-4.699-1.674-8.752-4.011-12.508-6.47
			c-3.747-2.474-7.171-5.122-10.359-7.777c-6.365-5.322-11.805-10.669-16.337-15.357c-4.523-4.695-8.121-8.749-10.614-11.632
			c-1.118-1.295-2-2.339-2.65-3.116c-0.493-0.46-0.937-0.98-1.319-1.56c-3.074-4.666-1.041-11.408,4.54-15.059
			C133.373,73.326,135.972,72.582,138.426,72.582 M138.427,64.582C138.427,64.582,138.427,64.582,138.427,64.582
			c-4.122,0-8.195,1.239-11.78,3.583c-4.764,3.116-8.121,7.914-9.211,13.165c-0.956,4.607-0.115,9.22,2.368,12.99
			c0.619,0.939,1.334,1.816,2.132,2.613c0.779,0.929,1.606,1.899,2.462,2.891c3.59,4.152,7.157,8.061,10.908,11.954
			c6.046,6.254,11.434,11.317,16.966,15.944c3.901,3.249,7.522,5.966,11.084,8.317c3.541,2.318,8.332,5.228,14.231,7.329
			c0.024,0.009,0.049,0.017,0.073,0.026c3.509,1.212,6.599,1.872,9.726,2.079c0.718,0.046,1.413,0.07,2.075,0.07
			c1.302,0,2.524-0.085,3.729-0.259c0.572-0.07,1.052-0.166,1.413-0.239l0.161-0.032c0.028-0.005,0.055-0.011,0.083-0.017
			l0.535-0.111c0.021-0.004,0.043-0.009,0.064-0.014c0.345-0.075,0.543-0.129,0.745-0.186c0.877-0.228,1.681-0.469,2.459-0.738
			c3.769-1.288,7.059-3.231,9.754-5.766c0.458-0.418,0.826-0.811,1.105-1.11c0.377-0.393,0.748-0.822,1.131-1.307l0.306-0.383
			l0.038-0.047c0.052-0.065,0.103-0.13,0.153-0.195l0,0c0.155-0.195,0.301-0.398,0.437-0.606l0.051-0.079l0.1-0.154l0.205-0.314
			c0.022-0.033,0.043-0.067,0.065-0.101l0.26-0.412c0.03-0.047,0.059-0.095,0.088-0.143l0.088-0.146
			c0.22-0.363,0.494-0.815,0.759-1.338c0.027-0.053,0.053-0.106,0.079-0.16l0.431-0.899c0.063-0.13,0.122-0.262,0.177-0.396
			c0.284-0.684,0.647-1.6,0.948-2.635c0.909-3.069,1.235-6.257,0.998-9.743c-0.172-2.488-0.621-4.991-1.372-7.662
			c-1.13-3.956-2.745-7.742-4.947-11.607c-1.811-3.184-4.052-6.203-6.479-8.727c-1.9-1.982-3.966-3.786-6.131-5.354
			c-1.692-1.239-3.1-2.073-4.033-2.626l-0.186-0.11c-0.078-0.046-0.156-0.091-0.236-0.135l-1.319-0.724
			c-1.218-0.669-2.539-0.988-3.845-0.988c-2.585,0-5.108,1.253-6.643,3.535c-2.311,3.435-1.619,8.065,1.593,10.675l1.062,0.863
			l0.065,0.056c0.649,0.563,1.456,1.264,2.34,2.199c0.014,0.014,0.027,0.029,0.041,0.043c1.132,1.178,2.179,2.493,3.114,3.908
			c1.115,1.686,2.037,3.562,2.744,5.579c0.916,2.599,1.491,5.089,1.713,7.413c0.114,1.212,0.118,2.296,0.011,3.21
			c-0.071,0.627-0.189,1.066-0.278,1.311c-0.128,0.038-0.322,0.085-0.589,0.121c-0.124,0.017-0.294,0.038-0.573,0.056
			c0,0,0,0-0.001,0c-0.006,0-0.012-0.001-0.017-0.001c-0.05-0.009-0.17-0.034-0.382-0.091c-0.294-0.079-1.066-0.329-2.391-1.089
			c-2.025-1.176-4.38-3.039-6.964-5.516c-2.235-2.144-4.524-4.628-6.995-7.591c-3.768-4.53-7.568-9.685-11.608-15.751
			c-2.578-3.88-5.102-7.913-7.496-11.977c-0.508-0.864-0.946-1.619-1.31-2.254c-0.383-0.881-0.83-1.712-1.334-2.477
			C150.195,67.468,144.606,64.582,138.427,64.582L138.427,64.582z"/>
	</g>
</g>
<path style="fill-rule:evenodd;clip-rule:evenodd;fill:#111111;" d="M60.008,132H132v12H60.008V132z"/>
<path style="fill-rule:evenodd;clip-rule:evenodd;fill:#111111;" d="M61,153h71.992v12H61V153z"/>
<path style="fill-rule:evenodd;clip-rule:evenodd;fill:#111111;" d="M61,175h71.992v12H61V175z"/>
<rect style="fill-rule:evenodd;clip-rule:evenodd;fill:none;" width="240" height="240"/>
</svg>
