<?xml version="1.0" encoding="iso-8859-1"?>
<!-- Generator: Adobe Illustrator 19.2.1, SVG Export Plug-In . SVG Version: 6.00 Build 0)  -->
<svg version="1.1" id="Layer_1" xmlns="http://www.w3.org/2000/svg" xmlns:xlink="http://www.w3.org/1999/xlink" x="0px" y="0px"
	 viewBox="0 0 240 240" style="enable-background:new 0 0 240 240;" xml:space="preserve">
<g>
	<g>
		<path style="fill:#7895CF;" d="M145.525,132.275c-6.74,0-12.761-3.213-16.105-8.592c-0.585-0.941-1.082-1.95-1.512-3.075
			c-0.622-1.151-1.397-2.573-2.325-4.244c-3.761-6.762-7.722-13.466-11.772-19.925c-6.377-10.141-12.393-18.784-18.387-26.419
			c-3.997-5.075-7.723-9.356-11.39-13.083c-4.448-4.517-8.598-7.973-12.333-10.271c-2.095-1.274-3.978-2.155-5.577-2.608
			c-0.905-0.259-1.603-0.398-2.146-0.429c-0.08-0.004-0.16-0.011-0.24-0.021c-0.174-0.001-0.549-0.011-0.549-0.011
			c-0.163,0.016-0.27,0.025-0.352,0.029c-0.494,0.033-0.975,0.083-1.389,0.146c-1.747,0.251-3.258,0.773-4.397,1.515
			c-0.064,0.042-0.13,0.082-0.197,0.121l-0.061,0.054c0,0-0.252,0.186-0.299,0.217c-0.037,0.028-0.081,0.069-0.125,0.11
			c-0.033,0.03-0.309,0.264-0.309,0.264l-0.446,0.503c-0.081,0.105-0.205,0.242-0.342,0.385l-0.259,0.36
			c-0.216,0.351-0.402,0.653-0.533,0.926c-0.778,1.546-1.298,3.508-1.538,5.74c-0.236,2.143-0.237,4.562-0.003,7.204
			c0.409,4.522,1.445,9.31,3.08,14.224c1.324,4,3.059,7.733,5.16,11.098c1.719,2.756,3.652,5.325,5.746,7.636
			c1.659,1.857,3.13,3.211,4.205,4.199l0.208,0.191l1.739,1.497c1.567,1.348,1.849,3.667,0.65,5.352
			c-0.775,1.09-2.006,1.681-3.262,1.681c-0.685,0-1.377-0.176-2.007-0.542c0,0-2.108-1.227-2.147-1.251l-0.289-0.182
			c-1.302-0.817-3.269-2.051-5.559-3.83c-2.914-2.232-5.717-4.824-8.31-7.69c-3.245-3.575-6.252-7.872-8.695-12.421
			c-3.036-5.645-5.257-11.15-6.788-16.826c-0.995-3.748-1.585-7.214-1.807-10.612c-0.294-4.581,0.101-8.719,1.206-12.656
			c0.34-1.245,0.79-2.442,1.143-3.343c0.025-0.064,0.052-0.127,0.081-0.19l0.663-1.463c0.276-0.578,0.59-1.136,0.897-1.673
			l0.142-0.248l0.439-0.739l0.58-0.944c0.063-0.103,0.13-0.202,0.202-0.298l0.004,0.003c0.071-0.106,0.148-0.212,0.23-0.32
			l0.537-0.711c0.436-0.586,0.862-1.106,1.285-1.568c0.343-0.391,0.772-0.879,1.271-1.358c3.283-3.287,7.351-5.824,12.092-7.541
			c0.976-0.357,2.015-0.688,3.161-1.003l0.145-0.042c0.182-0.055,0.357-0.106,0.667-0.177l1.189-0.259
			c0.485-0.104,1.031-0.22,1.631-0.293c1.498-0.234,3.028-0.349,4.673-0.349c0.857,0,1.724,0.031,2.65,0.094
			c4.073,0.285,8.153,1.217,12.845,2.934c8.286,3.125,15.106,7.52,20.126,11.001c5.23,3.658,10.553,7.891,16.287,12.949
			c8.273,7.329,16.346,15.368,25.415,25.305c5.597,6.155,11.132,12.582,16.455,19.104c1.655,2.031,2.976,3.686,3.969,4.941
			c0.918,0.934,1.733,1.972,2.428,3.088c5.824,9.366,2.191,22.786-8.097,29.915c-4.175,2.893-8.895,4.421-13.649,4.421
			C145.526,132.275,145.526,132.275,145.525,132.275z"/>
		<path style="fill:#1D1D1D;" d="M67.097,22.521c0.801,0,1.595,0.031,2.378,0.085c4.24,0.297,8.12,1.374,11.745,2.699
			c7.22,2.724,13.45,6.53,19.221,10.532c5.758,4.027,11.019,8.339,15.919,12.662c9.781,8.665,18.141,17.37,25.105,25.002
			c6.951,7.643,12.479,14.243,16.311,18.937c1.719,2.109,3.074,3.808,4.072,5.073c0.758,0.749,1.439,1.595,2.026,2.54
			c4.723,7.597,1.6,18.573-6.977,24.516c-3.606,2.499-7.601,3.71-11.373,3.71c-5.198,0-9.972-2.302-12.709-6.704
			c-0.519-0.835-0.927-1.716-1.26-2.621c-0.648-1.204-1.475-2.721-2.478-4.527c-2.735-4.918-6.754-11.933-11.88-20.108
			c-5.131-8.16-11.366-17.513-18.63-26.765c-3.633-4.614-7.53-9.196-11.684-13.418c-4.143-4.206-8.583-8.1-13.089-10.872
			c-2.24-1.362-4.494-2.458-6.583-3.05c-1.045-0.299-2.063-0.521-3.012-0.574c-0.248-0.039-0.473-0.021-0.71-0.03l-0.355-0.011
			c-0.009-0.001-0.02-0.002-0.034-0.002c-0.111,0-0.361,0.033-0.492,0.04c-0.596,0.04-1.197,0.099-1.759,0.183
			c-2.277,0.327-4.324,1.038-5.983,2.117c-0.22,0.125-0.409,0.278-0.608,0.424c-0.207,0.139-0.394,0.297-0.575,0.462l-0.283,0.239
			l-0.036,0.03c0.123-0.16,0.155-0.204,0.155-0.204c-0.001,0-0.051,0.063-0.052,0.063c0,0,0.002-0.003,0.008-0.012l-0.099,0.111
			l-0.198,0.222l-0.395,0.443l-0.185,0.209l-0.084,0.102c-0.116,0.149-0.233,0.234-0.379,0.426l-0.457,0.632
			c-0.277,0.452-0.565,0.908-0.808,1.413c-1.005,1.994-1.632,4.454-1.91,7.046c-0.287,2.595-0.247,5.312-0.01,7.983
			c0.485,5.359,1.739,10.533,3.268,15.133c1.526,4.612,3.463,8.591,5.562,11.954c2.092,3.355,4.255,6.086,6.175,8.204
			c1.909,2.137,3.583,3.648,4.716,4.693c1.167,1.005,1.79,1.54,1.79,1.54s-0.705-0.41-2.028-1.179
			c-1.297-0.816-3.225-1.999-5.524-3.784c-2.309-1.768-5.001-4.125-7.798-7.215c-2.789-3.074-5.648-6.995-8.137-11.629
			c-2.488-4.626-4.808-9.889-6.45-15.975c-0.809-3.046-1.447-6.304-1.677-9.832c-0.226-3.515-0.048-7.347,1.065-11.314
			c0.27-0.991,0.628-1.976,1.015-2.964l0.663-1.463c0.24-0.5,0.573-1.067,0.873-1.594l0.4-0.671l0.314-0.511l0.157-0.256
			l0.079-0.128c0.017-0.023,0.022-0.03,0.021-0.03c-0.001,0-0.014,0.015-0.015,0.015c-0.002,0,0.028-0.041,0.194-0.256l0.061-0.082
			l0.496-0.657c0.33-0.443,0.673-0.874,1.042-1.277c0.362-0.412,0.727-0.828,1.12-1.202c3.097-3.112,6.853-5.261,10.656-6.638
			c0.959-0.351,1.903-0.644,2.861-0.907c0.243-0.065,0.334-0.106,0.643-0.176l0.822-0.181c0.549-0.114,1.106-0.246,1.652-0.307
			C64.363,22.611,65.741,22.521,67.097,22.521 M67.097,14.521c-1.831,0-3.542,0.127-5.225,0.387
			c-0.749,0.095-1.393,0.232-1.92,0.345l-0.264,0.056c-0.029,0.006-0.057,0.012-0.085,0.018l-0.822,0.181
			c-0.023,0.005-0.046,0.01-0.068,0.015c-0.431,0.099-0.673,0.17-0.926,0.246c-0.019,0.005-0.032,0.009-0.051,0.015
			c-1.25,0.344-2.393,0.707-3.492,1.109c-5.256,1.903-9.807,4.744-13.503,8.435c-0.593,0.571-1.083,1.126-1.482,1.58
			c-0.487,0.537-0.972,1.13-1.48,1.811l-0.482,0.638l-0.059,0.079c-0.078,0.103-0.153,0.205-0.225,0.307l-0.002-0.001
			c-0.143,0.192-0.278,0.39-0.404,0.594l-0.079,0.128l-0.159,0.259l-0.313,0.509c-0.02,0.033-0.041,0.066-0.06,0.1l-0.4,0.671
			c-0.028,0.047-0.055,0.094-0.082,0.141l-0.142,0.249c-0.311,0.545-0.664,1.162-0.989,1.841c-0.025,0.052-0.049,0.104-0.073,0.157
			l-0.663,1.463c-0.057,0.126-0.111,0.254-0.162,0.383c-0.387,0.989-0.882,2.307-1.276,3.746c-1.223,4.371-1.661,8.939-1.339,13.962
			c0.239,3.668,0.87,7.385,1.929,11.371c1.62,6.006,3.951,11.789,7.136,17.711c2.592,4.827,5.794,9.399,9.258,13.216
			c2.742,3.031,5.717,5.783,8.836,8.173c2.436,1.89,4.496,3.183,5.86,4.039l0.289,0.181c0.079,0.049,0.158,0.098,0.238,0.144
			l2.028,1.18c1.261,0.734,2.647,1.085,4.017,1.085c2.511,0,4.971-1.182,6.523-3.361c2.398-3.367,1.835-8.007-1.298-10.703
			l-1.689-1.453l-0.154-0.142c-1.071-0.985-2.404-2.211-3.915-3.903c-0.013-0.015-0.026-0.029-0.039-0.044
			c-1.933-2.132-3.721-4.509-5.314-7.064c-1.934-3.099-3.533-6.541-4.755-10.233c-1.541-4.635-2.514-9.119-2.896-13.341
			c-0.21-2.363-0.212-4.515-0.006-6.383c0.254-2.366,0.799-3.724,1.103-4.326c0.023-0.045,0.045-0.09,0.066-0.135
			c0.037-0.075,0.149-0.261,0.255-0.433l0.031-0.043c0.096-0.106,0.205-0.231,0.321-0.373l0.076-0.085l0.086-0.096
			c0.041-0.035,0.082-0.07,0.123-0.106c0.009-0.006,0.018-0.013,0.026-0.019l0.148-0.11c0.027-0.017,0.054-0.035,0.081-0.052
			c0.646-0.421,1.627-0.742,2.76-0.905c0.017-0.002,0.034-0.005,0.05-0.007c0.302-0.045,0.684-0.084,1.104-0.112
			c0.048-0.003,0.101-0.007,0.156-0.012c0.07,0.002,0.149,0.003,0.23,0.004c0.074,0.006,0.147,0.011,0.221,0.015
			c0.06,0.003,0.404,0.033,1.256,0.277c0.886,0.251,2.383,0.828,4.631,2.195c3.426,2.108,7.322,5.362,11.546,9.651
			c3.559,3.618,7.191,7.791,11.098,12.753c5.903,7.518,11.839,16.049,18.143,26.074c4.012,6.398,7.937,13.042,11.661,19.738
			c0.86,1.548,1.588,2.882,2.183,3.982c0.5,1.264,1.076,2.415,1.752,3.502c4.08,6.562,11.371,10.48,19.503,10.48
			c5.574,0,11.082-1.775,15.929-5.134c5.666-3.926,9.791-9.617,11.614-16.023c1.943-6.827,1.091-13.678-2.4-19.292
			c-0.81-1.302-1.755-2.517-2.813-3.617c-1.222-1.545-2.525-3.166-3.878-4.826c-5.46-6.69-10.887-12.99-16.594-19.265
			c-9.172-10.052-17.341-18.186-25.719-25.607c-5.862-5.172-11.301-9.496-16.639-13.229c-5.234-3.63-12.323-8.194-20.982-11.462
			c-0.025-0.01-0.051-0.019-0.076-0.028c-5.054-1.849-9.482-2.855-13.934-3.167C69.003,14.555,68.046,14.521,67.097,14.521
			L67.097,14.521z"/>
	</g>
	<g>
		<path style="fill:#7895CF;" d="M172.904,221.479c-0.857,0-1.726-0.031-2.653-0.095c-4.075-0.285-8.155-1.217-12.846-2.933
			c-8.288-3.128-15.106-7.521-20.126-11.002c-5.226-3.654-10.549-7.888-16.287-12.949c-8.274-7.33-16.347-15.369-25.413-25.305
			c-5.661-6.225-11.042-12.472-16.455-19.104c-1.656-2.031-2.977-3.686-3.969-4.941c-0.917-0.933-1.733-1.971-2.428-3.089
			c-5.823-9.366-2.191-22.786,8.096-29.915c4.175-2.893,8.895-4.422,13.651-4.422c6.74,0,12.761,3.212,16.106,8.592
			c0.584,0.94,1.08,1.947,1.512,3.073c0.622,1.152,1.397,2.575,2.325,4.246c3.756,6.755,7.718,13.459,11.772,19.926
			c6.379,10.145,12.395,18.787,18.388,26.419c3.995,5.074,7.722,9.355,11.389,13.084c4.448,4.517,8.599,7.973,12.332,10.27
			c2.098,1.274,3.98,2.156,5.578,2.608c0.902,0.259,1.601,0.398,2.147,0.43c0.08,0.004,0.159,0.011,0.238,0.021
			c0.174,0,0.553,0.011,0.553,0.011c0.166-0.016,0.276-0.025,0.36-0.029c0.478-0.032,0.96-0.083,1.379-0.146
			c1.744-0.251,3.256-0.773,4.394-1.515c0.067-0.043,0.136-0.085,0.205-0.124l0.064-0.057c0,0,0.248-0.184,0.302-0.219
			c0.023-0.019,0.18-0.162,0.219-0.194l0.207-0.174l0.431-0.485c0.117-0.146,0.232-0.274,0.355-0.402l0.264-0.368
			c0.213-0.347,0.397-0.646,0.525-0.912c0.779-1.549,1.3-3.511,1.538-5.743c0.237-2.146,0.238-4.564,0.004-7.203
			c-0.408-4.519-1.445-9.307-3.08-14.225c-1.322-3.997-3.058-7.729-5.159-11.099c-1.722-2.759-3.654-5.327-5.746-7.635
			c-1.664-1.863-3.139-3.22-4.216-4.21l-0.196-0.181l-1.739-1.497c-1.566-1.349-1.848-3.668-0.649-5.353
			c0.776-1.089,2.006-1.68,3.262-1.68c0.685,0,1.378,0.176,2.009,0.543c0,0,2.108,1.228,2.148,1.252l0.311,0.195
			c1.297,0.814,3.258,2.046,5.534,3.814c2.914,2.231,5.717,4.824,8.311,7.689c3.243,3.575,6.251,7.872,8.694,12.422
			c3.037,5.646,5.257,11.151,6.788,16.825c0.996,3.753,1.585,7.22,1.806,10.614c0.295,4.577-0.099,8.716-1.204,12.654
			c-0.338,1.236-0.788,2.437-1.143,3.342c-0.025,0.064-0.052,0.128-0.08,0.191l-0.662,1.463c-0.281,0.586-0.599,1.149-0.907,1.689
			l-0.571,0.971l-0.574,0.935c-0.063,0.104-0.132,0.204-0.204,0.302l-0.005-0.003c-0.073,0.109-0.153,0.22-0.239,0.331l-0.528,0.703
			c-0.451,0.604-0.863,1.107-1.287,1.57c-0.339,0.387-0.771,0.878-1.274,1.36c-3.28,3.284-7.348,5.82-12.09,7.539
			c-0.987,0.361-2.025,0.69-3.163,1.003l-0.141,0.041c-0.186,0.055-0.362,0.107-0.678,0.179l-1.15,0.251
			c-0.494,0.106-1.052,0.226-1.662,0.3C176.077,221.364,174.55,221.479,172.904,221.479
			C172.905,221.479,172.905,221.479,172.904,221.479z"/>
		<path style="fill:#1D1D1D;" d="M94.474,111.724c5.198,0,9.972,2.302,12.709,6.704c0.519,0.835,0.927,1.716,1.26,2.621
			c0.648,1.204,1.475,2.721,2.478,4.527c2.735,4.918,6.754,11.933,11.88,20.108c5.131,8.16,11.366,17.513,18.63,26.765
			c3.633,4.614,7.53,9.196,11.684,13.418c4.143,4.206,8.583,8.1,13.089,10.872c2.24,1.362,4.494,2.459,6.583,3.05
			c1.045,0.3,2.063,0.521,3.012,0.574c0.248,0.039,0.473,0.021,0.71,0.03l0.355,0.011c0.009,0.001,0.02,0.002,0.034,0.002
			c0.111,0,0.361-0.033,0.492-0.04c0.596-0.04,1.197-0.099,1.759-0.183c2.277-0.327,4.324-1.038,5.983-2.117
			c0.22-0.125,0.409-0.278,0.608-0.424c0.207-0.139,0.394-0.297,0.575-0.462l0.283-0.239l0.036-0.03
			c-0.123,0.16-0.155,0.204-0.155,0.204c0.001,0,0.051-0.063,0.052-0.063c0,0-0.002,0.003-0.008,0.012l0.099-0.111l0.198-0.222
			l0.395-0.443l0.185-0.209l0.084-0.102c0.116-0.149,0.233-0.234,0.379-0.426l0.457-0.632c0.277-0.452,0.565-0.908,0.808-1.413
			c1.005-1.994,1.632-4.454,1.91-7.046c0.287-2.595,0.247-5.312,0.01-7.983c-0.485-5.359-1.739-10.533-3.268-15.133
			c-1.526-4.612-3.463-8.591-5.562-11.954c-2.092-3.355-4.255-6.086-6.175-8.204c-1.909-2.137-3.583-3.648-4.716-4.693
			c-1.167-1.005-1.79-1.54-1.79-1.54s0.705,0.41,2.028,1.179c1.297,0.816,3.225,1.999,5.524,3.785
			c2.309,1.768,5.001,4.125,7.798,7.215c2.789,3.074,5.648,6.995,8.137,11.629c2.488,4.626,4.808,9.889,6.45,15.975
			c0.809,3.046,1.447,6.304,1.677,9.832c0.226,3.515,0.048,7.347-1.065,11.314c-0.27,0.991-0.628,1.976-1.015,2.964l-0.663,1.463
			c-0.24,0.5-0.573,1.067-0.873,1.594l-0.4,0.671l-0.314,0.511l-0.157,0.256l-0.079,0.128c-0.017,0.023-0.022,0.03-0.021,0.03
			c0.001,0,0.014-0.015,0.015-0.015c0.002,0-0.028,0.041-0.194,0.256l-0.061,0.082l-0.496,0.657
			c-0.33,0.443-0.673,0.873-1.042,1.276c-0.362,0.412-0.727,0.828-1.12,1.202c-3.097,3.112-6.853,5.261-10.656,6.638
			c-0.959,0.351-1.903,0.644-2.861,0.907c-0.243,0.065-0.334,0.106-0.643,0.176l-0.822,0.181c-0.549,0.114-1.106,0.246-1.652,0.307
			c-1.391,0.222-2.769,0.312-4.125,0.312c-0.801,0-1.595-0.031-2.378-0.085c-4.24-0.297-8.12-1.374-11.745-2.699
			c-7.22-2.724-13.45-6.53-19.221-10.532c-5.758-4.027-11.019-8.339-15.919-12.662c-9.781-8.665-18.141-17.37-25.105-25.002
			c-6.951-7.643-12.479-14.243-16.311-18.937c-1.719-2.109-3.074-3.808-4.072-5.073c-0.758-0.749-1.439-1.595-2.026-2.54
			c-4.723-7.597-1.6-18.573,6.977-24.516C86.707,112.935,90.702,111.724,94.474,111.724 M94.474,103.724
			c-5.574,0-11.082,1.775-15.929,5.134c-5.666,3.926-9.791,9.617-11.614,16.023c-1.943,6.827-1.091,13.678,2.4,19.292
			c0.809,1.302,1.754,2.517,2.813,3.617c1.222,1.545,2.525,3.166,3.878,4.825c5.46,6.69,10.887,12.99,16.594,19.265
			c9.172,10.052,17.341,18.185,25.719,25.607c5.862,5.172,11.301,9.496,16.639,13.229c5.234,3.63,12.323,8.194,20.982,11.462
			c0.025,0.01,0.051,0.019,0.076,0.028c5.054,1.849,9.482,2.855,13.934,3.167c1.031,0.071,1.988,0.105,2.937,0.105
			c1.831,0,3.542-0.127,5.225-0.387c0.749-0.095,1.393-0.232,1.92-0.345l0.264-0.056c0.029-0.006,0.057-0.012,0.086-0.018
			l0.822-0.181c0.022-0.005,0.045-0.01,0.067-0.015c0.431-0.099,0.674-0.17,0.927-0.246c0.019-0.005,0.032-0.009,0.051-0.015
			c1.25-0.344,2.393-0.707,3.492-1.109c5.256-1.903,9.807-4.744,13.502-8.434c0.593-0.572,1.084-1.127,1.483-1.582
			c0.487-0.537,0.972-1.13,1.479-1.81l0.482-0.638l0.059-0.079c0.078-0.103,0.153-0.205,0.225-0.307l0.002,0.001
			c0.144-0.192,0.279-0.391,0.404-0.595l0.079-0.128l0.158-0.257l0.314-0.511c0.02-0.033,0.04-0.066,0.06-0.099l0.4-0.671
			c0.028-0.047,0.055-0.094,0.082-0.141l0.142-0.249c0.311-0.545,0.664-1.162,0.989-1.841c0.025-0.052,0.049-0.104,0.073-0.157
			l0.663-1.463c0.057-0.126,0.111-0.254,0.162-0.383c0.387-0.989,0.882-2.307,1.276-3.746c1.223-4.371,1.661-8.939,1.339-13.962
			c-0.239-3.668-0.87-7.385-1.929-11.371c-1.62-6.006-3.951-11.789-7.136-17.711c-2.592-4.827-5.794-9.399-9.258-13.216
			c-2.741-3.029-5.715-5.78-8.832-8.17c-2.438-1.892-4.499-3.186-5.864-4.043l-0.289-0.182c-0.079-0.049-0.158-0.098-0.238-0.144
			l-2.028-1.18c-1.261-0.733-2.647-1.085-4.016-1.085c-2.511,0-4.971,1.182-6.523,3.361c-2.397,3.367-1.835,8.007,1.298,10.703
			l1.689,1.453l0.154,0.142c1.071,0.985,2.404,2.212,3.915,3.903c0.013,0.015,0.026,0.029,0.039,0.044
			c1.933,2.132,3.721,4.509,5.314,7.064c1.934,3.099,3.533,6.541,4.755,10.233c1.541,4.635,2.514,9.119,2.896,13.341
			c0.21,2.363,0.212,4.515,0.006,6.383c-0.254,2.366-0.799,3.724-1.103,4.326c-0.023,0.045-0.045,0.09-0.066,0.135
			c-0.037,0.075-0.149,0.26-0.255,0.433l-0.031,0.043c-0.096,0.106-0.205,0.231-0.321,0.373l-0.076,0.085l-0.086,0.096
			c-0.041,0.035-0.082,0.07-0.123,0.106c-0.009,0.006-0.018,0.013-0.026,0.019l-0.148,0.11c-0.027,0.017-0.054,0.035-0.081,0.052
			c-0.646,0.421-1.627,0.742-2.76,0.905c-0.017,0.002-0.033,0.005-0.05,0.007c-0.303,0.045-0.685,0.084-1.105,0.113
			c-0.048,0.003-0.1,0.007-0.155,0.012c-0.07-0.002-0.149-0.003-0.23-0.004c-0.074-0.006-0.147-0.011-0.221-0.015
			c-0.06-0.003-0.404-0.033-1.256-0.277c-0.886-0.251-2.383-0.828-4.631-2.195c-3.426-2.108-7.322-5.362-11.546-9.651
			c-3.559-3.618-7.191-7.791-11.098-12.753c-5.902-7.518-11.839-16.049-18.143-26.074c-4.012-6.398-7.937-13.042-11.661-19.738
			c-0.86-1.548-1.588-2.882-2.183-3.982c-0.5-1.264-1.076-2.415-1.752-3.502C109.897,107.642,102.606,103.724,94.474,103.724
			L94.474,103.724z"/>
	</g>
</g>
<rect style="fill-rule:evenodd;clip-rule:evenodd;fill:none;" width="240" height="240"/>
</svg>
