<?xml version="1.0" encoding="iso-8859-1"?>
<!-- Generator: Adobe Illustrator 19.2.1, SVG Export Plug-In . SVG Version: 6.00 Build 0)  -->
<svg version="1.1" id="Layer_1" xmlns="http://www.w3.org/2000/svg" xmlns:xlink="http://www.w3.org/1999/xlink" x="0px" y="0px"
	 viewBox="0 0 240 240" style="enable-background:new 0 0 240 240;" xml:space="preserve">
<g>
	<path style="fill-rule:evenodd;clip-rule:evenodd;fill:#BDBDBD;" d="M77.478,216.513c-29.257,0-53.059-23.803-53.059-53.06
		s23.802-53.059,53.059-53.059s53.059,23.802,53.059,53.059S106.735,216.513,77.478,216.513z"/>
	<path style="fill:#1D1D1D;" d="M77.478,114.394c27.051,0,49.059,22.008,49.059,49.059s-22.008,49.059-49.059,49.059
		s-49.059-22.008-49.059-49.059S50.427,114.394,77.478,114.394 M77.478,106.394c-31.513,0-57.059,25.546-57.059,57.059
		s25.546,57.059,57.059,57.059s57.059-25.546,57.059-57.059S108.991,106.394,77.478,106.394L77.478,106.394z"/>
</g>
<g>
	<rect x="121.931" y="24.134" style="fill-rule:evenodd;clip-rule:evenodd;fill:#48AAB5;" width="94.866" height="94.866"/>
	<g>
		<path style="fill:#1D1D1D;" d="M212.797,28.134V115h-86.866V28.134H212.797 M220.797,20.134H117.931V123h102.866V20.134
			L220.797,20.134z"/>
	</g>
</g>
<g>
	<polygon style="fill-rule:evenodd;clip-rule:evenodd;fill:#BDBDBD;" points="110.797,149.438 110.797,129.135 90.494,129.135 
		90.494,110.866 110.797,110.866 110.797,90.562 129.065,90.562 129.065,110.866 149.369,110.866 149.369,129.135 129.065,129.135 
		129.065,149.438 	"/>
	<path style="fill:#1D1D1D;" d="M125.066,94.563v20.303h20.303v10.269h-20.303v20.303h-10.269v-20.303H94.494v-10.269h20.303V94.563
		H125.066 M133.066,86.563h-8h-10.269h-8v8v12.303H94.494h-8v8v10.269v8h8h12.303v12.303v8h8h10.269h8v-8v-12.303h12.303h8v-8
		v-10.269v-8h-8h-12.303V94.563V86.563L133.066,86.563z"/>
</g>
<rect style="fill-rule:evenodd;clip-rule:evenodd;fill:none;" width="240" height="240"/>
</svg>
