<?xml version="1.0" encoding="utf-8"?>
<!-- Generator: Adobe Illustrator 19.2.1, SVG Export Plug-In . SVG Version: 6.00 Build 0)  -->
<svg version="1.1" id="Layer_1" xmlns="http://www.w3.org/2000/svg" xmlns:xlink="http://www.w3.org/1999/xlink" x="0px" y="0px"
	 viewBox="0 0 240 240" enable-background="new 0 0 240 240" xml:space="preserve">
<g>
	<path fill="#BDBDBD" d="M51.1,203.6c-10.1,0-24.1-2.3-33.5-13.2c-1-1.1-1.2-2.7-0.7-4.1c0.5-1.4,1.8-2.3,3.2-2.5
		c15.7-1.9,26.7-13.9,36.4-24.4c8.9-9.7,17.4-18.9,28.4-18.9c1.2,0,2.4,0.1,3.6,0.3c-1-0.6-1.7-1.5-1.9-2.6
		c-0.3-1.4,0.1-2.8,1.2-3.8L188,41.9c3.9-3.6,9.1-5.5,14.6-5.5s10.6,2,14.6,5.5c4,3.6,6.2,8.5,6.2,13.7c0,5.2-2.2,10.1-6.2,13.7
		l-96.6,89.2c-0.7,0.7-1.7,1.1-2.7,1.1c-0.1,0-0.2,0-0.2,0c-1.1-0.1-2.1-0.6-2.8-1.4c-2.6-3-5.1-5.5-8-7.8c-2.9-2.3-5.9-4.2-8.9-5.8
		c1.3,0.8,2.5,1.7,3.8,2.8c10.1,8.3,10.9,16.4,9.7,21.7c-3.5,16.3-29.4,28.6-40.6,31.7C64.3,202.6,57.5,203.6,51.1,203.6
		C51.1,203.6,51.1,203.6,51.1,203.6z"/>
	<path fill="#1D1D1D" d="M202.6,40.4c4.3,0,8.6,1.5,11.9,4.5c6.6,5.9,6.6,15.6,0,21.5l-96.7,89.3c-2.4-2.8-5.1-5.5-8.6-8.3
		c-6.1-4.8-12.4-8-18.7-10l100.2-92.5C194,41.9,198.3,40.4,202.6,40.4 M84.9,144.5c4.3,0,8.9,1.8,14.1,6.1
		c26.9,22.1-15.9,42.7-29.4,46.5c-5.6,1.6-12.1,2.6-18.6,2.6c-11.4,0-22.9-3.1-30.4-11.9C52.3,183.9,64.8,144.5,84.9,144.5
		 M202.6,32.4c-6.5,0-12.6,2.3-17.2,6.5c0,0,0,0-0.1,0L85.1,131.5c-1.5,1.4-2.4,3.2-2.5,5.1c-11.5,1.1-20,10.3-28.9,20.1
		c-9.7,10.5-19.7,21.4-34,23.1c-2.9,0.4-5.4,2.3-6.5,5.1c-1.1,2.8-0.5,5.9,1.4,8.1c8.2,9.6,20.9,14.6,36.5,14.6
		c6.8,0,13.9-1,20.7-2.9c8.1-2.2,39.2-14.7,43.5-34.7c0.4-2,0.6-4.2,0.4-6.7c0.5,0.1,1.1,0.2,1.7,0.3c0.2,0,0.3,0,0.5,0
		c2,0,3.9-0.8,5.4-2.1l96.7-89.2c4.8-4.4,7.5-10.3,7.5-16.7c0-6.3-2.7-12.3-7.5-16.7C215.2,34.7,209.1,32.4,202.6,32.4L202.6,32.4z"
		/>
</g>
<rect fill-rule="evenodd" clip-rule="evenodd" fill="none" width="240" height="240"/>
<rect fill-rule="evenodd" clip-rule="evenodd" fill="none" width="240" height="240"/>
</svg>
