<?xml version="1.0" encoding="utf-8"?>
<!-- Generator: Adobe Illustrator 19.2.1, SVG Export Plug-In . SVG Version: 6.00 Build 0)  -->
<svg version="1.2" baseProfile="tiny" id="Layer_1" xmlns="http://www.w3.org/2000/svg" xmlns:xlink="http://www.w3.org/1999/xlink"
	 x="0px" y="0px" viewBox="0 0 240 240" xml:space="preserve">
<rect fill-rule="evenodd" fill="none" width="240" height="240"/>
<g>
	<path fill-rule="evenodd" fill="#1D1D1D" d="M120,115.4"/>
	<g id="XMLID_98_">
		<polygon fill-rule="evenodd" fill="#3E5B5F" points="11.8,124.1 120,49.6 228.2,124.1 120.2,198.6 		"/>
		<path fill="#1D1D1D" d="M120,54.5l101.1,69.7l-100.9,69.6L18.9,124.1L120,54.5 M120,44.8l-4.5,3.1L14.3,117.6l-9.6,6.6l9.6,6.6
			l101.3,69.6l4.5,3.1l4.5-3.1l100.9-69.6l9.6-6.6l-9.6-6.6L124.6,47.9L120,44.8L120,44.8z"/>
	</g>
	<g>
		<polygon id="XMLID_102_" fill-rule="evenodd" fill="#48AAB5" points="68.8,80 120,115.2 171.1,80 120,44.8 		"/>
		<polygon fill="#1D1D1D" points="120,115.2 68.8,80 68.8,89.7 120,124.8 171.1,89.7 171.1,80 		"/>
	</g>
	<g>
		<polygon id="XMLID_4_" fill-rule="evenodd" fill="#48AAB5" points="68.8,150.4 120,185.5 171.1,150.4 120,115.2 		"/>
		<polygon fill="#1D1D1D" points="120,185.5 68.8,150.4 68.8,160 120,195.2 171.1,160.1 171.1,150.4 		"/>
	</g>
</g>
<g>
</g>
<g>
</g>
<g>
</g>
<g>
</g>
<g>
</g>
<g>
</g>
</svg>
