<?xml version="1.0" encoding="utf-8"?>
<!-- Generator: Adobe Illustrator 19.2.1, SVG Export Plug-In . SVG Version: 6.00 Build 0)  -->
<svg version="1.1" id="Layer_1" xmlns="http://www.w3.org/2000/svg" xmlns:xlink="http://www.w3.org/1999/xlink" x="0px" y="0px"
	 viewBox="0 0 240 240" enable-background="new 0 0 240 240" xml:space="preserve">
<rect fill-rule="evenodd" clip-rule="evenodd" fill="none" width="240" height="240"/>
<rect fill-rule="evenodd" clip-rule="evenodd" fill="none" width="240" height="240"/>
<g>
	<path fill-rule="evenodd" clip-rule="evenodd" fill="#DF6E41" d="M144.7,222.7c-9,0-16.3-7.3-16.3-16.3v-51.5h-16.7v51.5
		c0,9-7.3,16.3-16.3,16.3S79,215.4,79,206.4l0-94.7H46c-9,0-16.3-7.3-16.3-16.3c0-9,7.3-16.3,16.3-16.3H194c9,0,16.3,7.3,16.3,16.3
		c0,9-7.3,16.3-16.3,16.3h-33l0,94.7C161,215.4,153.7,222.7,144.7,222.7z M120,74.6c-15.8,0-28.7-12.9-28.7-28.7
		c0-15.8,12.9-28.7,28.7-28.7c15.8,0,28.7,12.9,28.7,28.7C148.7,61.8,135.8,74.6,120,74.6z"/>
	<path fill="#1D1D1D" d="M120,21.3c13.6,0,24.7,11,24.7,24.7c0,13.6-11.1,24.7-24.7,24.7c-13.6,0-24.7-11-24.7-24.7
		C95.3,32.3,106.4,21.3,120,21.3 M194,83c6.8,0,12.3,5.5,12.3,12.3c0,6.8-5.5,12.3-12.3,12.3h-37l0,98.7c0,6.8-5.5,12.3-12.3,12.3
		c-6.8,0-12.3-5.5-12.3-12.3v-55.5h-24.7v55.5c0,6.8-5.5,12.3-12.3,12.3c-6.8,0-12.3-5.5-12.3-12.3l0-98.7H46
		c-6.8,0-12.3-5.5-12.3-12.3C33.6,88.5,39.1,83,46,83H194 M120,13.3c-18,0-32.7,14.7-32.7,32.7c0,12.6,7.2,23.6,17.7,29H46
		c-11.2,0-20.3,9.1-20.3,20.3c0,11.2,9.1,20.3,20.3,20.3h29l0,90.7c0,11.2,9.1,20.3,20.3,20.3s20.3-9.1,20.3-20.3v-47.5h8.7v47.5
		c0,11.2,9.1,20.3,20.3,20.3s20.3-9.1,20.3-20.3l0-90.7h29c11.2,0,20.3-9.1,20.3-20.3c0-11.2-9.1-20.3-20.3-20.3h-59
		c10.5-5.4,17.7-16.4,17.7-29C152.7,27.9,138,13.3,120,13.3L120,13.3z"/>
</g>
</svg>
