<?xml version="1.0" encoding="iso-8859-1"?>
<!-- Generator: Adobe Illustrator 19.2.1, SVG Export Plug-In . SVG Version: 6.00 Build 0)  -->
<svg version="1.1" id="Layer_1" xmlns="http://www.w3.org/2000/svg" xmlns:xlink="http://www.w3.org/1999/xlink" x="0px" y="0px"
	 viewBox="0 0 240 240" style="enable-background:new 0 0 240 240;" xml:space="preserve">
<g>
	<path style="fill:#BDBDBD;" d="M50.833,85.068c-18.905,0-34.286-15.38-34.286-34.286c0-18.905,15.38-34.285,34.286-34.285
		c18.905,0,34.285,15.38,34.285,34.285C85.119,69.688,69.738,85.068,50.833,85.068z"/>
	<path style="fill:#1D1D1D;" d="M50.833,20.498c16.726,0,30.285,13.559,30.285,30.285S67.56,81.068,50.833,81.068
		S20.548,67.509,20.548,50.783S34.107,20.498,50.833,20.498 M50.833,12.498c-21.111,0-38.285,17.175-38.285,38.285
		s17.175,38.285,38.285,38.285s38.285-17.175,38.285-38.285S71.944,12.498,50.833,12.498L50.833,12.498z"/>
</g>
<g>
	<g>
		<path style="fill:#BDBDBD;" d="M189.396,224c-18.905,0-34.285-15.38-34.285-34.285s15.38-34.285,34.285-34.285
			s34.286,15.38,34.286,34.285S208.302,224,189.396,224z M189.396,175.684c-7.736,0-14.03,6.294-14.03,14.031
			c0,7.736,6.294,14.03,14.03,14.03c7.737,0,14.031-6.294,14.031-14.03C203.428,181.978,197.134,175.684,189.396,175.684z"/>
	</g>
	<g>
		<path style="fill:#1D1D1D;" d="M189.397,159.429c16.726,0,30.285,13.559,30.285,30.285S206.123,220,189.397,220
			s-30.285-13.559-30.285-30.285S172.671,159.429,189.397,159.429 M189.397,207.745c9.958,0,18.031-8.073,18.031-18.031
			c0-9.958-8.073-18.031-18.031-18.031c-9.958,0-18.031,8.073-18.031,18.031C171.366,199.673,179.439,207.745,189.397,207.745
			 M189.397,151.429c-21.111,0-38.285,17.175-38.285,38.285c0,21.111,17.175,38.285,38.285,38.285
			c21.111,0,38.285-17.175,38.285-38.285C227.682,168.604,210.507,151.429,189.397,151.429L189.397,151.429z M189.397,199.745
			c-5.531,0-10.031-4.5-10.031-10.031c0-5.531,4.5-10.031,10.031-10.031c5.531,0,10.031,4.5,10.031,10.031
			C199.428,195.246,194.928,199.745,189.397,199.745L189.397,199.745z"/>
	</g>
</g>
<g>
	<g>
		<path style="fill:#48AAB5;" d="M105.289,180.113v-29.075h29.485v29.075H105.289z M107.204,150.828v-10.297l0.01-0.139
			c0.307-4.392,1.188-8.181,2.621-11.262c1.387-2.979,3.046-5.577,4.931-7.725c1.826-2.079,3.78-3.902,5.81-5.422
			c1.73-1.298,3.351-2.612,4.814-3.903c1.224-1.08,2.218-2.267,2.953-3.53c0.565-0.97,0.821-2.314,0.76-3.998l-0.003-0.146
			c0-3.06-0.631-5.229-1.876-6.446c-1.287-1.257-3.171-1.87-5.757-1.87c-1.783,0-3.285,0.322-4.466,0.958
			c-1.245,0.671-2.233,1.533-3.021,2.635c-0.846,1.183-1.488,2.621-1.911,4.276c-0.462,1.81-0.696,3.802-0.696,5.92v4H83.184
			l0.074-4.073c0.098-5.374,1.041-10.395,2.803-14.925c1.776-4.572,4.313-8.605,7.54-11.986c3.244-3.398,7.2-6.083,11.757-7.979
			c4.533-1.884,9.63-2.838,15.153-2.838c6.969,0,12.936,0.999,17.735,2.967c4.803,1.973,8.765,4.499,11.776,7.508
			c3.044,3.047,5.263,6.405,6.599,9.983c1.304,3.496,1.964,6.844,1.964,9.952c0,4.872-0.673,9.012-2.001,12.306
			c-1.293,3.205-2.938,6.008-4.889,8.331c-1.913,2.273-4.066,4.242-6.403,5.853c-1.996,1.375-3.893,2.758-5.636,4.108
			c-1.553,1.204-2.948,2.6-4.146,4.146c-0.945,1.22-1.545,2.749-1.83,4.671v8.922H107.204z"/>
		<path style="fill:#1D1D1D;" d="M120.51,76.08c6.477,0,11.882,0.89,16.216,2.668c4.332,1.779,7.821,3.992,10.468,6.637
			c2.644,2.647,4.537,5.497,5.679,8.553c1.139,3.058,1.711,5.908,1.711,8.553c0,4.379-0.572,7.984-1.711,10.811
			c-1.141,2.829-2.556,5.247-4.242,7.253c-1.689,2.008-3.558,3.718-5.611,5.132c-2.053,1.415-3.993,2.829-5.816,4.242
			c-1.826,1.415-3.445,3.034-4.858,4.858c-1.415,1.826-2.305,4.105-2.668,6.842v5.2h-18.474v-6.157
			c0.274-3.921,1.027-7.206,2.258-9.853c1.232-2.644,2.669-4.902,4.311-6.774c1.642-1.869,3.374-3.489,5.201-4.858
			c1.824-1.368,3.511-2.736,5.063-4.105c1.551-1.368,2.806-2.873,3.763-4.516c0.958-1.642,1.39-3.695,1.301-6.158
			c0-4.195-1.027-7.298-3.079-9.305c-2.053-2.006-4.906-3.01-8.554-3.01c-2.463,0-4.583,0.479-6.363,1.437
			c-1.779,0.958-3.24,2.237-4.379,3.832c-1.142,1.597-1.984,3.468-2.532,5.611c-0.547,2.145-0.821,4.447-0.821,6.911H87.257
			c0.089-4.926,0.934-9.442,2.531-13.547c1.595-4.106,3.832-7.664,6.705-10.674c2.874-3.01,6.34-5.358,10.4-7.048
			C110.952,76.925,115.491,76.08,120.51,76.08 M130.773,155.038v21.074h-21.485v-21.074H130.773 M120.51,68.08
			c-6.053,0-11.667,1.058-16.686,3.144c-5.075,2.112-9.487,5.109-13.116,8.911c-3.59,3.761-6.408,8.236-8.376,13.301
			c-1.933,4.967-2.967,10.452-3.073,16.299l-0.148,8.145h8.146h20.116h5.186c-0.268,0.29-0.533,0.584-0.796,0.883
			c-2.139,2.438-4.006,5.356-5.553,8.676c-1.641,3.53-2.645,7.792-2.987,12.674l-0.019,0.278v0.279v6.157v0.211h-1.916v8v21.074v8h8
			h21.485h8v-8v-21.074v-8h-1.095v-0.211v-4.601c0.19-1.083,0.523-1.936,0.991-2.54c0.995-1.284,2.151-2.44,3.436-3.436
			c1.683-1.304,3.519-2.643,5.455-3.978c2.63-1.812,5.049-4.022,7.191-6.568c2.224-2.647,4.087-5.811,5.539-9.41
			c1.543-3.829,2.292-8.343,2.292-13.804c0-3.585-0.745-7.402-2.214-11.346c-1.541-4.125-4.069-7.963-7.516-11.414
			c-3.394-3.391-7.796-6.209-13.089-8.383C134.48,69.179,128.002,68.08,120.51,68.08L120.51,68.08z M115.373,115.095v-5.215
			c0-1.785,0.193-3.444,0.572-4.932c0.299-1.171,0.733-2.159,1.288-2.937c0.432-0.605,0.96-1.062,1.665-1.442
			c0.581-0.313,1.47-0.479,2.568-0.479c1.01,0,2.343,0.127,2.964,0.733c0.183,0.179,0.669,1.18,0.669,3.583v0.146l0.005,0.146
			c0.04,1.091-0.123,1.676-0.215,1.834c-0.523,0.896-1.244,1.753-2.147,2.549c-1.387,1.223-2.925,2.47-4.571,3.705
			C117.221,113.499,116.287,114.27,115.373,115.095L115.373,115.095z"/>
	</g>
</g>
<rect style="fill-rule:evenodd;clip-rule:evenodd;fill:none;" width="240" height="240"/>
</svg>
