<?xml version="1.0" encoding="iso-8859-1"?>
<!-- Generator: Adobe Illustrator 19.2.1, SVG Export Plug-In . SVG Version: 6.00 Build 0)  -->
<svg version="1.1" id="Layer_1" xmlns="http://www.w3.org/2000/svg" xmlns:xlink="http://www.w3.org/1999/xlink" x="0px" y="0px"
	 viewBox="0 0 240 240" style="enable-background:new 0 0 240 240;" xml:space="preserve">
<g>
	<polygon style="fill:#48AAB5;" points="189.513,136.626 150.609,136.627 150.606,103.369 189.513,103.369 189.513,77.315 
		232.196,119.999 189.514,162.681 	"/>
	<path style="fill:#1D1D1D;" d="M193.513,86.972l33.026,33.026l-33.026,33.026l0-20.398l-38.904,0.001l-0.003-25.258l38.907,0
		L193.513,86.972 M185.512,67.658l0,19.314l0,12.397l-30.907,0l-8.001,0l0.001,8.001l0.003,25.258l0.001,7.999l7.999,0l30.904-0.001
		l0,12.398l0,19.313l13.657-13.657l33.026-33.026l5.657-5.657l-5.657-5.657l-33.026-33.026L185.512,67.658L185.512,67.658z"/>
</g>
<g>
	<polygon style="fill:#48AAB5;" points="102.872,51.342 76.818,51.342 119.501,8.659 162.184,51.341 136.129,51.342 136.13,90.246 
		102.872,90.25 	"/>
	<path style="fill:#1D1D1D;" d="M119.501,14.316l33.026,33.026l-20.398,0l0.001,38.904l-25.258,0.003l0-38.907l-20.397,0
		L119.501,14.316 M119.501,3.002l-5.657,5.657L80.818,41.685L67.161,55.342l19.314,0l12.397,0l0,30.907l0,8.001l8.001-0.001
		l25.258-0.003l7.999-0.001l0-7.999l-0.001-30.904l12.398,0l19.313,0l-13.657-13.657L125.158,8.659L119.501,3.002L119.501,3.002z"/>
</g>
<g>
	<path style="fill-rule:evenodd;clip-rule:evenodd;fill:#BDBDBD;stroke:#1D1D1D;stroke-width:8;stroke-miterlimit:10;" d="
		M120.001,62.625c31.688,0,57.374,25.688,57.374,57.375s-25.686,57.374-57.374,57.374S62.625,151.687,62.625,120
		S88.314,62.625,120.001,62.625z"/>
	<path style="fill:#1D1D1D;" d="M111.205,163.92h18.524v-17.05h-18.524V163.92z M88.593,104.394h17.903
		c0-3.264,0.999-6.409,2.997-9.438c1.999-3.029,5.388-4.543,10.167-4.543c4.861,0,8.209,1.23,10.043,3.686
		c1.834,2.458,2.75,5.183,2.75,8.171c0,2.595-0.821,4.976-2.469,7.138c-0.907,1.26-2.1,2.419-3.583,3.481l-4.508,3.363
		c-4.447,3.303-7.206,6.224-8.277,8.76c-1.071,2.537-1.73,7.129-1.977,13.776h16.79c0.04-3.147,0.308-5.466,0.802-6.962
		c0.782-2.36,2.368-4.425,4.758-6.194l4.386-3.246c4.449-3.303,7.456-6.017,9.021-8.141c2.679-3.499,4.016-7.806,4.016-12.92
		c0-8.337-3.086-14.63-9.261-18.878c-6.175-4.247-13.93-6.372-23.264-6.372c-7.104,0-13.093,1.496-17.964,4.484
		C93.198,85.241,89.088,93.185,88.593,104.394L88.593,104.394z"/>
</g>
<g>
	<polygon style="fill:#48AAB5;" points="14.341,202.948 51.852,165.437 33.429,147.014 93.792,147.014 93.792,207.375 
		75.368,188.953 37.86,226.462 	"/>
	<path style="fill:#1D1D1D;" d="M89.792,151.014v46.705l-14.424-14.424l-37.509,37.51l-17.862-17.858l37.511-37.511l-14.423-14.423
		H89.792 M97.792,143.014h-8H43.086H23.772l13.657,13.657l8.766,8.766l-31.854,31.855l-5.657,5.658l5.658,5.657l17.862,17.858
		l5.657,5.656l5.656-5.656l31.852-31.853l8.767,8.767l13.657,13.656v-19.313v-46.705V143.014L97.792,143.014z"/>
</g>
<rect style="fill-rule:evenodd;clip-rule:evenodd;fill:none;" width="240" height="240"/>
</svg>
