<?xml version="1.0" encoding="utf-8"?>
<!-- Generator: Adobe Illustrator 19.2.1, SVG Export Plug-In . SVG Version: 6.00 Build 0)  -->
<svg version="1.1" id="Layer_1" xmlns="http://www.w3.org/2000/svg" xmlns:xlink="http://www.w3.org/1999/xlink" x="0px" y="0px"
	 viewBox="0 0 240 240" enable-background="new 0 0 240 240" xml:space="preserve">
<rect fill-rule="evenodd" clip-rule="evenodd" fill="none" width="240" height="240"/>
<rect fill-rule="evenodd" clip-rule="evenodd" fill="none" width="240" height="240"/>
<g>
	<g>
		<path fill="#BDBDBD" d="M119,211.9c-1.3,0-2.6-0.2-3.8-0.7c-0.5-0.2-13.4-4.9-26.4-12.9c-19.2-11.7-28.9-24.4-29-37.6
			c-0.1-18.4,18.9-34.9,56.5-49l0.1,0c28-10.5,44-22.3,44-32.3c-0.1-13.9-28.9-29.1-42.8-34.2c-2.7-1-4.7-2.9-5.6-5.4
			c-0.8-2.2-0.7-4.7,0.5-6.8c1.7-3.1,5.1-5,9-5c1.3,0,2.6,0.2,3.8,0.7c0.5,0.2,13.4,5,26.3,13c19.1,11.8,28.8,24.4,28.8,37.7
			c0.1,18.3-18.8,34.8-56.2,48.8l-0.1,0c-28.2,10.6-44.4,22.4-44.3,32.4c0.1,13.9,29.1,28.9,43.1,34c2.7,1,4.7,2.9,5.7,5.4
			c0.9,2.2,0.7,4.7-0.5,6.8C126.3,210,122.9,211.9,119,211.9z"/>
	</g>
	<g>
		<path fill="#1D1D1D" d="M121.3,32.1c0.8,0,1.7,0.1,2.5,0.4c0.5,0.2,13,4.8,25.6,12.6c17.8,11,26.9,22.5,26.9,34.3
			c0.1,16.5-17.9,31.7-53.6,45.1c0,0,0,0-0.1,0c-21.5,8.1-47,20.9-46.9,36.2c0.1,17.4,33,33.2,45.7,37.8c3,1.1,4.4,4,3.1,6.5
			c-1,1.8-3.2,2.9-5.5,2.9c-0.8,0-1.6-0.1-2.4-0.4c-0.5-0.2-13-4.8-25.7-12.5c-17.9-10.9-27-22.4-27.1-34.2
			c-0.1-16.5,18-31.8,53.9-45.3c0,0,0,0,0,0c21.3-8,46.7-20.8,46.6-36.1c-0.1-17.4-32.8-33.3-45.4-37.9c-3-1.1-4.4-4-3-6.5
			C116.8,33.2,119,32.1,121.3,32.1 M121.3,24.1L121.3,24.1c-5.3,0-10.1,2.7-12.5,7.1c-1.7,3.1-2,6.8-0.7,10.1c1.3,3.5,4.2,6.4,8,7.7
			c6.3,2.3,16.8,7.2,25.6,13.3c13.1,9,14.5,15,14.5,17.2c0,6.3-10.8,17.1-41.4,28.6l0,0l-0.1,0l0,0l0,0l0,0
			c-18.7,7-33,14.7-42.7,22.8c-10.9,9.1-16.4,19.2-16.3,30c0.1,14.7,10.5,28.5,31,41c13.4,8.2,26.6,13,27.2,13.2
			c1.6,0.6,3.4,0.9,5.2,0.9c5.4,0,10.2-2.7,12.5-7.1c1.7-3.1,1.9-6.8,0.7-10.1c-1.3-3.5-4.3-6.3-8-7.7c-6.4-2.3-16.9-7.2-25.8-13.2
			c-13.2-9-14.6-15-14.7-17.1c0-6.3,10.9-17.1,41.7-28.7c0,0,0.1,0,0.1,0c18.6-7,32.9-14.6,42.5-22.7c10.8-9.1,16.3-19.2,16.2-29.9
			c-0.1-14.7-10.4-28.5-30.7-41.1c-13.3-8.2-26.5-13.1-27-13.3C124.9,24.4,123.1,24.1,121.3,24.1L121.3,24.1z"/>
	</g>
</g>
<g>
	<g>
		<rect x="81.2" y="16" fill-rule="evenodd" clip-rule="evenodd" fill="#58A5CC" width="39.4" height="39.4"/>
		<path fill="#1D1D1D" d="M116.6,20v31.4H85.2V20H116.6 M124.6,12h-8H85.2h-8v8v31.4v8h8h31.4h8v-8V20V12L124.6,12z"/>
	</g>
	<g>
		<rect x="94.9" y="29.8" fill-rule="evenodd" clip-rule="evenodd" fill="#1D1D1D" width="11.9" height="11.9"/>
	</g>
</g>
<g>
	<g>
		<rect x="121.2" y="184.6" fill-rule="evenodd" clip-rule="evenodd" fill="#58A5CC" width="39.4" height="39.4"/>
		<path fill="#1D1D1D" d="M156.6,188.6V220h-31.4v-31.4H156.6 M164.6,180.6h-8h-31.4h-8v8V220v8h8h31.4h8v-8v-31.4V180.6
			L164.6,180.6z"/>
	</g>
	<g>
		<rect x="134.9" y="198.3" fill-rule="evenodd" clip-rule="evenodd" fill="#1D1D1D" width="11.9" height="11.9"/>
	</g>
</g>
</svg>
