<?xml version="1.0" encoding="utf-8"?>
<!-- Generator: Adobe Illustrator 19.2.1, SVG Export Plug-In . SVG Version: 6.00 Build 0)  -->
<svg version="1.1" id="Layer_1" xmlns="http://www.w3.org/2000/svg" xmlns:xlink="http://www.w3.org/1999/xlink" x="0px" y="0px"
	 viewBox="0 0 240 240" enable-background="new 0 0 240 240" xml:space="preserve">
<rect fill-rule="evenodd" clip-rule="evenodd" fill="none" width="240" height="240"/>
<rect fill-rule="evenodd" clip-rule="evenodd" fill="none" width="240" height="240"/>
<g>
	<g>
		<polygon fill-rule="evenodd" clip-rule="evenodd" fill="#BDBDBD" points="51.3,134.5 51.3,54.5 71.3,54.5 71.3,114.5 131.1,114.5 
			131.1,134.5 		"/>
		<path fill="#1D1D1D" d="M67.3,58.5v60h59.8v12H55.3v-0.1v-11.9v-60H67.3 M75.3,50.5h-8h-12h-8v8v60v11.9v0.1v8h8h71.8h8v-8v-12v-8
			h-8H75.3v-52V50.5L75.3,50.5z"/>
	</g>
	
		<rect x="20" y="20.4" fill-rule="evenodd" clip-rule="evenodd" fill="#BDBDBD" stroke="#1D1D1D" stroke-width="8" stroke-linecap="round" stroke-miterlimit="10" width="105.5" height="58.6"/>
	<g>
		
			<rect x="87.9" y="148.5" transform="matrix(0.7071 -0.7071 0.7071 0.7071 -76.3909 132.5913)" fill-rule="evenodd" clip-rule="evenodd" fill="#BDBDBD" width="68" height="20"/>
		<path fill="#1D1D1D" d="M138.8,133.1l8.5,8.5L104.9,184l-8.5-8.5L138.8,133.1 M138.8,121.7l-5.7,5.7l-42.4,42.4l-5.7,5.7l5.7,5.7
			l8.5,8.5l5.7,5.7l5.7-5.7l42.4-42.4l5.7-5.7l-5.7-5.7l-8.5-8.5L138.8,121.7L138.8,121.7z"/>
	</g>
	<g>
		
			<rect x="153.8" y="124.5" transform="matrix(0.7071 -0.7071 0.7071 0.7071 -64.117 162.2187)" fill-rule="evenodd" clip-rule="evenodd" fill="#BDBDBD" width="20" height="68"/>
		<path fill="#1D1D1D" d="M146.8,133.1l42.4,42.4l-8.5,8.5l-42.4-42.4L146.8,133.1 M146.8,121.7l-5.7,5.7l-8.5,8.5l-5.7,5.7l5.7,5.7
			l42.4,42.4l5.7,5.7l5.7-5.7l8.5-8.5l5.7-5.7l-5.7-5.7l-42.4-42.4L146.8,121.7L146.8,121.7z"/>
	</g>
	<g>
		<path fill-rule="evenodd" clip-rule="evenodd" fill="#48AAB5" d="M90.4,223.6c-15.5,0-28.1-12.6-28.1-28.1s12.6-28.1,28.1-28.1
			s28.1,12.6,28.1,28.1S105.9,223.6,90.4,223.6z"/>
		<path fill="#1D1D1D" d="M90.4,171.4c13.3,0,24.1,10.8,24.1,24.1s-10.8,24.1-24.1,24.1s-24.1-10.8-24.1-24.1S77.1,171.4,90.4,171.4
			 M90.4,163.4c-17.7,0-32.1,14.4-32.1,32.1s14.4,32.1,32.1,32.1s32.1-14.4,32.1-32.1S108.1,163.4,90.4,163.4L90.4,163.4z"/>
	</g>
	<g>
		<path fill-rule="evenodd" clip-rule="evenodd" fill="#48AAB5" d="M195.9,223.6c-15.5,0-28.1-12.6-28.1-28.1s12.6-28.1,28.1-28.1
			c15.5,0,28.1,12.6,28.1,28.1S211.4,223.6,195.9,223.6z"/>
		<path fill="#1D1D1D" d="M195.9,171.4c13.3,0,24.1,10.8,24.1,24.1s-10.8,24.1-24.1,24.1c-13.3,0-24.1-10.8-24.1-24.1
			S182.5,171.4,195.9,171.4 M195.9,163.4c-17.7,0-32.1,14.4-32.1,32.1s14.4,32.1,32.1,32.1s32.1-14.4,32.1-32.1
			S213.6,163.4,195.9,163.4L195.9,163.4z"/>
	</g>
	
		<rect x="90.4" y="95.5" fill-rule="evenodd" clip-rule="evenodd" fill="#BDBDBD" stroke="#1D1D1D" stroke-width="8" stroke-linecap="round" stroke-miterlimit="10" width="105.5" height="58.6"/>
</g>
</svg>
