<?xml version="1.0" encoding="utf-8"?>
<!-- Generator: Adobe Illustrator 19.2.1, SVG Export Plug-In . SVG Version: 6.00 Build 0)  -->
<svg version="1.1" id="Layer_1" xmlns="http://www.w3.org/2000/svg" xmlns:xlink="http://www.w3.org/1999/xlink" x="0px" y="0px"
	 viewBox="0 0 240 240" enable-background="new 0 0 240 240" xml:space="preserve">
<rect fill-rule="evenodd" clip-rule="evenodd" fill="none" width="240" height="240"/>
<rect fill-rule="evenodd" clip-rule="evenodd" fill="none" width="240" height="240"/>
<g>
	<g>
		<g>
			<rect x="23.7" y="16.1" fill-rule="evenodd" clip-rule="evenodd" fill="#BDBDBD" width="133.9" height="176.6"/>
			<path fill="#1D1D1D" d="M153.6,20.1v168.6H27.7V20.1H153.6 M161.6,12.1H19.7v184.6h141.9V12.1L161.6,12.1z"/>
		</g>
		<rect x="44.4" y="56.5" fill-rule="evenodd" clip-rule="evenodd" fill="#1D1D1D" width="92.6" height="8"/>
	</g>
	<rect x="44.4" y="81.4" fill-rule="evenodd" clip-rule="evenodd" fill="#1D1D1D" width="92.6" height="8"/>
	<rect x="44.4" y="104.5" fill-rule="evenodd" clip-rule="evenodd" fill="#1D1D1D" width="92.6" height="8"/>
	<rect x="44.4" y="129.3" fill-rule="evenodd" clip-rule="evenodd" fill="#1D1D1D" width="92.6" height="8"/>
</g>
<g>
	<g>
		<polygon fill-rule="evenodd" clip-rule="evenodd" fill="#BFB23A" points="154.1,138.4 168.7,108.3 184.1,138.4 		"/>
		<path fill="#1D1D1D" d="M168.8,117.2l8.7,17.1h-17.1L168.8,117.2 M168.6,99.3l-7,14.4l-8.3,17.1l-5.6,11.5h12.8h17.1h13.1
			l-5.9-11.6l-8.7-17.1L168.6,99.3L168.6,99.3z"/>
	</g>
	<g>
		<polygon fill-rule="evenodd" clip-rule="evenodd" fill="#BFB23A" points="153.9,198.7 184,198.7 169.3,228.8 		"/>
		<path fill="#1D1D1D" d="M177.6,202.7l-8.3,17.1l-8.7-17.1H177.6 M190.4,194.7h-12.8h-17.1h-13.1l5.9,11.6l8.7,17.1l7.3,14.3
			l7-14.4l8.3-17.1L190.4,194.7L190.4,194.7z"/>
	</g>
	<g>
		<polygon fill-rule="evenodd" clip-rule="evenodd" fill="#BFB23A" points="199.2,153.6 229.3,168.3 199.2,183.6 		"/>
		<path fill="#1D1D1D" d="M203.2,160l17.1,8.3l-17.1,8.7V160 M195.2,147.2V160v17.1v13.1l11.6-5.9l17.1-8.7l14.3-7.3l-14.4-7
			l-17.1-8.3L195.2,147.2L195.2,147.2z"/>
	</g>
	<g>
		<polygon fill-rule="evenodd" clip-rule="evenodd" fill="#BFB23A" points="108.7,168.8 138.8,153.5 138.8,183.5 		"/>
		<path fill="#1D1D1D" d="M134.8,160v17.1l-17.1-8.3L134.8,160 M142.8,146.9l-11.6,5.9l-17.1,8.7l-14.3,7.3l14.4,7l17.1,8.3
			l11.5,5.6v-12.8V160V146.9L142.8,146.9z"/>
	</g>
	<g>
		<polygon fill-rule="evenodd" clip-rule="evenodd" fill="#BFB23A" points="179.8,136.6 211.4,125.7 201,157.9 		"/>
		<path fill="#1D1D1D" d="M205.2,132.1l-5.9,18.3l-12.1-12.1L205.2,132.1 M217.7,119.3l-15.2,5.2l-18,6.2l-12.1,4.2l9.1,9l12.1,12.1
			l9.2,9.2l4-12.4l5.9-18.3L217.7,119.3L217.7,119.3z"/>
	</g>
	<g>
		<polygon fill-rule="evenodd" clip-rule="evenodd" fill="#BFB23A" points="137,179.2 158.2,200.5 126.6,211.4 		"/>
		<path fill="#1D1D1D" d="M138.8,186.7l12.1,12.1l-18,6.2L138.8,186.7 M135.2,171.8l-4,12.4l-5.9,18.3l-4.9,15.3l15.2-5.2l18-6.2
			l12.1-4.2l-9-9L144.5,181L135.2,171.8L135.2,171.8z"/>
	</g>
	<g>
		<polygon fill-rule="evenodd" clip-rule="evenodd" fill="#BFB23A" points="179.7,200.5 200.9,179.3 211.8,211 		"/>
		<path fill="#1D1D1D" d="M199.2,186.7l6.2,18l-18.3-5.9L199.2,186.7 M202.6,172l-9,9l-12.1,12.1l-9.2,9.2l12.4,4l18.3,5.9l15.3,4.9
			l-5.2-15.2l-6.2-18L202.6,172L202.6,172z"/>
	</g>
	<g>
		<polygon fill-rule="evenodd" clip-rule="evenodd" fill="#BFB23A" points="126.2,126.1 158.3,136.6 137.1,157.8 		"/>
		<path fill="#1D1D1D" d="M132.6,132.4l18.3,5.9l-12.1,12.1L132.6,132.4 M119.8,119.9L125,135l6.2,18l4.2,12.1l9-9l12.1-12.1
			l9.2-9.2l-12.4-4l-18.3-5.9L119.8,119.9L119.8,119.9z"/>
	</g>
	<g>
		<path fill-rule="evenodd" clip-rule="evenodd" fill="#BFB23A" d="M169,201.4c-18.1,0-32.8-14.7-32.8-32.8
			c0-18.1,14.7-32.8,32.8-32.8s32.8,14.7,32.8,32.8C201.8,186.6,187.1,201.4,169,201.4z"/>
		<path fill="#1D1D1D" d="M169,139.7c15.9,0,28.8,12.9,28.8,28.8c0,15.9-12.9,28.8-28.8,28.8c-15.9,0-28.8-12.9-28.8-28.8
			C140.2,152.6,153.1,139.7,169,139.7 M169,131.7c-20.3,0-36.8,16.5-36.8,36.8c0,20.3,16.5,36.8,36.8,36.8s36.8-16.5,36.8-36.8
			C205.8,148.3,189.3,131.7,169,131.7L169,131.7z"/>
	</g>
</g>
<g>
	<path fill="#BDBDBD" d="M160.3,82.5c-1,0-2-0.4-2.8-1.1l-31.6-31c-1.2-1.1-1.5-2.9-0.9-4.4c0.6-1.5,2.1-2.5,3.7-2.5h15
		c1,0,2.1,0.4,2.8,1.1l13.8,13.5l41.6-40.9c0.7-0.7,1.8-1.1,2.8-1.1h15c1.6,0,3.1,1,3.7,2.5c0.6,1.5,0.3,3.2-0.9,4.4l-59.4,58.4
		C162.3,82.1,161.3,82.5,160.3,82.5z"/>
	<path fill="#1D1D1D" d="M219.7,20.1l-59.4,58.4l-31.6-31h15l16.6,16.3l44.4-43.6H219.7 M219.7,12.1h-15c-2.1,0-4.1,0.8-5.6,2.3
		l-38.8,38.1l-11-10.8c-1.5-1.5-3.5-2.3-5.6-2.3h-15c-3.2,0-6.2,2-7.4,5c-1.2,3-0.5,6.5,1.8,8.7l31.6,31c1.6,1.5,3.6,2.3,5.6,2.3
		c2,0,4.1-0.8,5.6-2.3l59.4-58.4c2.3-2.3,3-5.7,1.8-8.7C225.9,14,223,12.1,219.7,12.1L219.7,12.1z"/>
</g>
</svg>
