<?xml version="1.0" encoding="utf-8"?>
<!-- Generator: Adobe Illustrator 19.2.1, SVG Export Plug-In . SVG Version: 6.00 Build 0)  -->
<svg version="1.1" id="Layer_1" xmlns="http://www.w3.org/2000/svg" xmlns:xlink="http://www.w3.org/1999/xlink" x="0px" y="0px"
	 viewBox="0 0 240 240" enable-background="new 0 0 240 240" xml:space="preserve">
<g opacity="0.5">
	<path fill="#BDBDBD" d="M104.4,203.6v-30.2h27.4v30.2H104.4z M104.5,163.6v-4c0-10.6,1.3-19.4,4-26.1c2.7-6.9,8.4-14.3,17.4-22.9
		l8.9-8.4c2.4-2.2,4.4-4.5,5.8-6.8c2.6-4.1,3.9-8.1,3.9-12.3c0-6.1-1.8-11.2-5.5-15.6c-3.5-4.2-9.7-6.3-18.4-6.3
		c-10.9,0-18.1,3.6-22.1,11.2c-2.4,4.4-3.7,10.9-4.1,19.6l-0.2,3.8H67v-4c0-16.4,4.9-29.8,14.5-39.9c9.7-10.2,23.1-15.3,39.7-15.3
		c15.4,0,28,4.4,37.4,13.1c9.5,8.8,14.3,20.1,14.3,33.7c0,8.3-1.8,15.3-5.4,20.6c-3.4,5-9.9,12-20,21.4c-6.7,6.3-11.1,11.5-13,15.6
		c-1.9,4-2.8,10.3-2.8,18.7v4H104.5z"/>
	<path fill="#1D1D1D" d="M121.3,40.4c14.4,0,26,4,34.7,12c8.7,8,13,18.3,13,30.7c0,7.6-1.6,13.7-4.7,18.4
		c-3.2,4.7-9.6,11.6-19.4,20.8c-7.1,6.6-11.7,12.2-13.9,16.8c-2.1,4.6-3.2,11.4-3.2,20.4h-19.3c0-10.2,1.2-18.4,3.7-24.7
		c2.5-6.2,7.9-13.4,16.4-21.4l8.9-8.4c2.7-2.4,4.8-5,6.5-7.6c3-4.6,4.5-9.4,4.5-14.4c0-7-2.2-13-6.5-18.2
		c-4.3-5.1-11.5-7.7-21.5-7.7c-12.3,0-20.9,4.4-25.6,13.3c-2.7,4.9-4.2,12-4.5,21.3H71c0-15.4,4.5-27.8,13.4-37.2
		C93.4,45.1,105.6,40.4,121.3,40.4 M127.8,177.3v22.2h-19.4v-22.2H127.8 M121.3,32.4c-17.8,0-32.2,5.6-42.6,16.5
		C68.3,59.8,63,74.2,63,91.7v8h8h19.3H98l0.3-7.7c0.4-10,2.2-15.2,3.6-17.8c2.1-3.9,6.3-9.1,18.6-9.1c7.5,0,12.6,1.6,15.3,4.9
		c3.1,3.7,4.6,7.9,4.6,13c0,3.4-1.1,6.7-3.2,10.1l0,0.1l0,0.1c-1.3,2-3,4-5.1,5.9l-0.1,0.1l-0.1,0.1l-8.9,8.4
		c-9.4,8.9-15.4,16.9-18.4,24.3c-2.9,7.3-4.3,16.3-4.3,27.6v8h8h19.3h8v-8c0-9.7,1.3-14.6,2.5-17c1.2-2.5,4.2-7,12.1-14.4
		c10.3-9.6,17-16.9,20.6-22.1c4-6,6.1-13.7,6.1-22.8c0-14.7-5.3-27.1-15.6-36.6C151.2,37.2,137.7,32.4,121.3,32.4L121.3,32.4z
		 M135.8,169.3h-8h-19.4h-8v8v22.2v8h8h19.4h8v-8v-22.2V169.3L135.8,169.3z"/>
</g>
<g opacity="0.5">
	<g>
		
			<rect x="30.5" y="17.9" transform="matrix(0.7071 -0.7071 0.7071 0.7071 -16.6541 40.1724)" fill="#BDBDBD" width="19.2" height="44.5"/>
		<path fill="#1D1D1D" d="M31.2,23.3L57,49.1l-8,8L23.3,31.3L31.2,23.3 M31.2,12L12,31.3l37.1,37.1l19.3-19.3L31.2,12L31.2,12z"/>
	</g>
	<g>
		
			<rect x="17.9" y="190.2" transform="matrix(0.7071 -0.7071 0.7071 0.7071 -129.5243 86.9438)" fill="#BDBDBD" width="44.5" height="19.2"/>
		<path fill="#1D1D1D" d="M49.1,182.9l8,8l-25.8,25.8l-8-8L49.1,182.9 M49.1,171.6L12,208.7L31.3,228l37.1-37.1L49.1,171.6
			L49.1,171.6z"/>
	</g>
	<g>
		
			<rect x="177.6" y="30.6" transform="matrix(0.7071 -0.7071 0.7071 0.7071 30.0972 153.0635)" fill="#BDBDBD" width="44.5" height="19.2"/>
		<path fill="#1D1D1D" d="M208.7,23.3l8,8l-25.8,25.8l-8-8L208.7,23.3 M208.7,12l-37.1,37.1l19.3,19.3L228,31.3L208.7,12L208.7,12z"
			/>
	</g>
	<g>
		
			<rect x="190.2" y="177.6" transform="matrix(0.7071 -0.7071 0.7071 0.7071 -82.7732 199.8143)" fill="#BDBDBD" width="19.2" height="44.5"/>
		<path fill="#1D1D1D" d="M190.9,182.9l25.8,25.8l-8,8l-25.8-25.8L190.9,182.9 M190.9,171.6l-19.3,19.3l37.1,37.1l19.3-19.3
			L190.9,171.6L190.9,171.6z"/>
	</g>
</g>
<rect fill-rule="evenodd" clip-rule="evenodd" fill="none" width="240" height="240"/>
<rect fill-rule="evenodd" clip-rule="evenodd" fill="none" width="240" height="240"/>
</svg>
