<?xml version="1.0" encoding="iso-8859-1"?>
<!-- Generator: Adobe Illustrator 19.2.1, SVG Export Plug-In . SVG Version: 6.00 Build 0)  -->
<svg version="1.1" id="Layer_1" xmlns="http://www.w3.org/2000/svg" xmlns:xlink="http://www.w3.org/1999/xlink" x="0px" y="0px"
	 viewBox="0 0 240 240" style="enable-background:new 0 0 240 240;" xml:space="preserve">
<g>
	
		<path style="fill-rule:evenodd;clip-rule:evenodd;fill:#48AAB5;stroke:#1D1D1D;stroke-width:8;stroke-linecap:round;stroke-miterlimit:10;" d="
		M68.224,122.257V78.672L120.501,51l52.275,27.672v43.586l-52.726,28.017L68.224,122.257z"/>
	<polyline style="fill-rule:evenodd;clip-rule:evenodd;fill:none;stroke:#1D1D1D;stroke-width:8;stroke-miterlimit:10;" points="
		120.049,150.275 120.049,106.343 68.224,78.672 	"/>
	
		<line style="fill-rule:evenodd;clip-rule:evenodd;fill:none;stroke:#1D1D1D;stroke-width:8;stroke-miterlimit:10;" x1="120.049" y1="106.343" x2="172.776" y2="78.672"/>
</g>
<path style="fill-rule:evenodd;clip-rule:evenodd;fill:#BDBDBD;stroke:#1D1D1D;stroke-width:8;stroke-miterlimit:10;" d="
	M120.448,167.311V43.725l52.277-27.672L225,43.725v123.586l-52.726,28.017L120.448,167.311z"/>
<polyline style="fill-rule:evenodd;clip-rule:evenodd;fill:none;stroke:#1D1D1D;stroke-width:8;stroke-miterlimit:10;" points="
	172.274,195.328 172.274,71.397 120.448,43.725 "/>
<line style="fill-rule:evenodd;clip-rule:evenodd;fill:#BDBDBD;stroke:#1D1D1D;stroke-width:8;stroke-miterlimit:10;" x1="172.274" y1="71.397" x2="225" y2="43.725"/>
<path style="fill-rule:evenodd;clip-rule:evenodd;fill:#BDBDBD;stroke:#1D1D1D;stroke-width:8;stroke-miterlimit:10;" d="
	M15.353,167.311V83.725l52.277-27.672l52.275,27.672v83.586l-52.726,28.017L15.353,167.311z"/>
<polyline style="fill-rule:evenodd;clip-rule:evenodd;fill:none;stroke:#1D1D1D;stroke-width:8;stroke-miterlimit:10;" points="
	67.178,195.328 67.178,111.397 15.353,83.725 "/>
<line style="fill-rule:evenodd;clip-rule:evenodd;fill:#BDBDBD;stroke:#1D1D1D;stroke-width:8;stroke-miterlimit:10;" x1="67.178" y1="111.397" x2="119.904" y2="83.725"/>
<g>
	
		<path style="fill-rule:evenodd;clip-rule:evenodd;fill:#48AAB5;stroke:#1D1D1D;stroke-width:8;stroke-linecap:round;stroke-miterlimit:10;" d="
		M67.224,195.257v-43.586L119.501,124l52.275,27.672v43.586l-52.726,28.017L67.224,195.257z"/>
	<polyline style="fill-rule:evenodd;clip-rule:evenodd;fill:none;stroke:#1D1D1D;stroke-width:8;stroke-miterlimit:10;" points="
		119.049,223.275 119.049,179.343 67.224,151.672 	"/>
	
		<line style="fill-rule:evenodd;clip-rule:evenodd;fill:none;stroke:#1D1D1D;stroke-width:8;stroke-miterlimit:10;" x1="119.049" y1="179.343" x2="171.776" y2="151.672"/>
</g>
<rect style="fill-rule:evenodd;clip-rule:evenodd;fill:none;" width="240" height="240"/>
</svg>
