<?xml version="1.0" encoding="iso-8859-1"?>
<!-- Generator: Adobe Illustrator 19.2.1, SVG Export Plug-In . SVG Version: 6.00 Build 0)  -->
<svg version="1.1" id="Layer_1" xmlns="http://www.w3.org/2000/svg" xmlns:xlink="http://www.w3.org/1999/xlink" x="0px" y="0px"
	 viewBox="0 0 240 240" style="enable-background:new 0 0 240 240;" xml:space="preserve">
<g>
	<rect x="110.747" y="29.17" style="fill-rule:evenodd;clip-rule:evenodd;fill:#D6806D;" width="19.508" height="57.411"/>
	<path style="fill:#1D1D1D;" d="M126.255,33.17v49.411h-11.508V33.17H126.255 M134.255,25.17h-8h-11.508h-8v8v49.411v8h8h11.508h8
		v-8V33.17V25.17L134.255,25.17z"/>
</g>
<path style="fill-rule:evenodd;clip-rule:evenodd;fill:#D6806D;stroke:#1D1D1D;stroke-width:8;stroke-linecap:round;stroke-miterlimit:10;" d="
	M39.958,169.381v-34.018l0,0c0,0,4.862-34.017,29.857-34.017c24.534,0,45.919-25.764,50.186-25.764
	c4.265,0,3.129,6.817,33.47,20.283c31.509,13.985,48.571,30.994,48.571,30.994v42.522"/>
<g>
	<g>
		<path style="fill-rule:evenodd;clip-rule:evenodd;fill:#BDBDBD;" d="M123.985,164.65c0.534,0.225-0.873,0.903-0.681,0.702
			C123.531,165.113,123.758,164.888,123.985,164.65c-0.382-0.161-1.753-0.09-5.418,0.702c-8.788,1.9-6.312-17.052-30.387-17.052
			C63.647,148.3,38,113.144,38,113.144v50.957l82.795,44.157l82.795-44.157v-37.695C191.67,121.737,157.765,129.343,123.985,164.65z
			"/>
	</g>
	<g>
		<path style="fill:none;stroke:#1D1D1D;stroke-width:8;stroke-miterlimit:10;" d="M123.985,164.65
			c0.534,0.225-0.873,0.903-0.681,0.702C123.531,165.113,123.758,164.888,123.985,164.65c-0.382-0.161-1.753-0.09-5.418,0.702
			c-8.788,1.9-6.312-17.052-30.387-17.052C63.647,148.3,38,113.144,38,113.144v50.957l82.795,44.157l82.795-44.157v-37.695
			C191.67,121.737,157.765,129.343,123.985,164.65z"/>
	</g>
</g>
<g>
	<path style="fill-rule:evenodd;clip-rule:evenodd;fill:#D6806D;" d="M30.183,175.175V66.793L120.5,18.673l90.317,48.121v108.383
		l-90.394,48.157L30.183,175.175z M110.747,195.524v-72.168L49.691,89.967v74.076L110.747,195.524z M130.255,195.523l61.053-31.48
		V89.967l-61.053,33.389V195.523z M120.5,104.93l60.606-32.719L120.5,39.765L59.894,72.211L120.5,104.93z"/>
	<path style="fill:#1D1D1D;" d="M120.501,23.205l86.316,45.989v103.58l-86.392,46.026l-86.242-46.026V69.195L120.501,23.205
		 M120.501,109.476l69.053-37.279l-69.053-36.969L51.446,72.197L120.501,109.476 M126.255,202.087l69.053-35.606v-83.26
		l-69.053,37.764V202.087 M114.747,202.087v-81.102L45.692,83.221v83.26L114.747,202.087 M120.501,14.141l-3.762,2.004
		L30.422,62.134l-4.238,2.258v4.802v103.58v4.798l4.233,2.259l86.242,46.026l3.763,2.008l3.765-2.006l86.392-46.026l4.238-2.258
		v-4.802V69.195v-4.802l-4.238-2.258l-86.316-45.989L120.501,14.141L120.501,14.141z M68.341,72.226l52.16-27.924l52.158,27.924
		l-52.158,28.159L68.341,72.226L68.341,72.226z M53.692,161.605V96.714l53.055,29.014v63.233L53.692,161.605L53.692,161.605z
		 M134.255,125.728l53.053-29.014v64.891l-53.053,27.356V125.728L134.255,125.728z"/>
</g>
<g>
	<rect x="114.747" y="33.17" style="fill-rule:evenodd;clip-rule:evenodd;fill:#D6806D;" width="11.508" height="32.414"/>
</g>
<rect style="fill-rule:evenodd;clip-rule:evenodd;fill:none;" width="240" height="240"/>
</svg>
