<?xml version="1.0" encoding="iso-8859-1"?>
<!-- Generator: Adobe Illustrator 19.2.1, SVG Export Plug-In . SVG Version: 6.00 Build 0)  -->
<svg version="1.1" id="Layer_1" xmlns="http://www.w3.org/2000/svg" xmlns:xlink="http://www.w3.org/1999/xlink" x="0px" y="0px"
	 viewBox="0 0 240 240" style="enable-background:new 0 0 240 240;" xml:space="preserve">
<rect style="fill-rule:evenodd;clip-rule:evenodd;fill:none;" width="240" height="240"/>
<g>
	<path style="fill-rule:evenodd;clip-rule:evenodd;fill:#BDBDBD;" d="M75.605,223.138C48.253,223.138,26,200.885,26,173.533
		c0-27.353,22.253-49.605,49.605-49.605s49.605,22.253,49.605,49.605C125.211,200.885,102.958,223.138,75.605,223.138z
		 M75.605,141.61c-17.602,0-31.922,14.32-31.922,31.923c0,17.602,14.32,31.922,31.922,31.922c17.602,0,31.922-14.32,31.922-31.922
		C107.527,155.931,93.207,141.61,75.605,141.61z"/>
	<path style="fill:#1D1D1D;" d="M75.605,127.928c25.187,0,45.605,20.418,45.605,45.605c0,25.187-20.418,45.605-45.605,45.605
		C50.418,219.138,30,198.72,30,173.533C30,148.346,50.418,127.928,75.605,127.928 M75.605,209.455
		c19.839,0,35.922-16.083,35.922-35.922c0-19.839-16.083-35.922-35.922-35.922s-35.922,16.083-35.922,35.922
		C39.683,193.372,55.766,209.455,75.605,209.455 M75.605,119.928C46.047,119.928,22,143.975,22,173.533
		c0,29.558,24.047,53.605,53.605,53.605s53.605-24.047,53.605-53.605C129.211,143.975,105.163,119.928,75.605,119.928
		L75.605,119.928z M75.605,201.455c-15.396,0-27.922-12.526-27.922-27.922c0-15.396,12.526-27.922,27.922-27.922
		s27.922,12.526,27.922,27.922C103.527,188.929,91.001,201.455,75.605,201.455L75.605,201.455z"/>
</g>
<g>
	<path style="fill-rule:evenodd;clip-rule:evenodd;fill:#D6806D;" d="M76.469,193c-8.62,0-15.545-4.591-18.072-11.98
		c-2.76-8.071,0.564-17.243,8.469-23.365c0.704-0.546,1.567-0.838,2.449-0.838c0.15,0,0.3,0.009,0.451,0.025
		c0.038,0.003,0.279,0.019,0.667,0.019c3.487,0,16.034-1.192,31.101-16.543c9.824-10.009,27.252-49.547,31.651-64.724
		c13.006-44.839,59.547-58.959,71.555-58.959c1.821,0,3.411,1.23,3.87,2.993s-0.331,3.612-1.921,4.5
		c-0.433,0.241-43.355,24.504-50.308,53.512c-0.516,2.154-1.041,4.379-1.58,6.664c-3.596,15.24-7.67,32.513-14.019,49.851
		c-19.109,52.217-59.532,58.422-61.243,58.661c-0.033,0.004-0.066,0.009-0.099,0.013C78.438,192.942,77.438,193,76.469,193z"/>
	<path style="fill:#1D1D1D;" d="M204.741,20.635h0.005 M204.741,20.635c0,0-44.797,24.977-52.249,56.073
		c-3.874,16.162-8.233,36.32-15.465,56.072c-18.504,50.562-58.04,56.074-58.04,56.074C78.12,188.952,77.281,189,76.469,189
		c-15.599,0-20.809-17.607-7.153-28.183c0,0,0.389,0.044,1.118,0.044c3.938,0,17.804-1.286,33.955-17.741
		c10.452-10.649,28.133-50.872,32.639-66.412C149.615,33.311,195.071,20.635,204.741,20.635 M204.746,12.635h-0.005
		c-6.286,0-21.305,3.442-36.916,12.925c-13.452,8.172-31.048,23.292-38.481,48.919c-4.689,16.175-21.944,54.152-30.665,63.037
		c-14.336,14.605-26.044,15.345-28.246,15.345c-0.134,0-0.233-0.003-0.297-0.005c-0.365-0.053-0.723-0.079-1.072-0.079
		c-1.699,0-3.223,0.612-4.647,1.715c-9.278,7.186-13.127,18.107-9.805,27.821C57.71,191.372,66.085,197,76.469,197
		c1.12,0,2.272-0.067,3.424-0.198c0.066-0.008,0.133-0.016,0.199-0.025c0.473-0.066,11.747-1.714,25.246-10.234
		c12.18-7.688,28.869-22.779,39.202-51.014c6.429-17.558,10.532-34.952,14.153-50.298c0.539-2.283,1.063-4.506,1.579-6.658
		c5.42-22.617,36.502-44.301,48.222-50.871c2.528-1.345,4.25-4.005,4.25-7.067C212.743,16.216,209.164,12.635,204.746,12.635
		L204.746,12.635z M204.741,28.635h0.005H204.741L204.741,28.635z"/>
</g>
</svg>
