<?xml version="1.0" encoding="iso-8859-1"?>
<!-- Generator: Adobe Illustrator 19.2.1, SVG Export Plug-In . SVG Version: 6.00 Build 0)  -->
<svg version="1.1" id="Layer_1" xmlns="http://www.w3.org/2000/svg" xmlns:xlink="http://www.w3.org/1999/xlink" x="0px" y="0px"
	 viewBox="0 0 240 240" style="enable-background:new 0 0 240 240;" xml:space="preserve">
<g>
	<g>
		<rect x="16.191" y="111.435" style="fill:#BDBDBD;" width="148.194" height="86.565"/>
		<path style="fill:#1D1D1D;" d="M160.385,115.435V194H20.191v-78.565H160.385 M168.385,107.435h-8H20.191h-8v8V194v8h8h140.194h8
			v-8v-78.565V107.435L168.385,107.435z"/>
	</g>
	<g>
		<g>
			<path style="fill:#7895CF;" d="M177.658,117.829c-5.547,0-10.329-2.431-13.121-6.67c-0.477-0.724-0.884-1.499-1.238-2.359
				c-0.47-0.821-1.052-1.828-1.745-3.006c-2.876-4.883-5.914-9.736-9.026-14.421c-4.883-7.33-9.489-13.579-14.08-19.099
				c-3.049-3.654-5.892-6.737-8.686-9.418c-3.367-3.227-6.501-5.692-9.312-7.325c-1.522-0.874-2.943-1.503-4.091-1.811
				c-0.636-0.172-1.137-0.268-1.498-0.287c-0.062-0.003-0.123-0.008-0.184-0.014c-0.117,0-0.36-0.006-0.36-0.006
				c-0.106,0.009-0.182,0.015-0.242,0.019c-0.327,0.021-0.682,0.052-1.014,0.1c-1.242,0.169-2.297,0.509-3.076,0.987
				c-0.034,0.021-0.069,0.042-0.104,0.062c0,0-0.267,0.186-0.312,0.214c-0.037,0.031-0.058,0.059-0.096,0.088l-0.106,0.084
				l-0.24,0.253c-0.1,0.116-0.193,0.216-0.29,0.313l-0.129,0.17c-0.112,0.171-0.23,0.343-0.327,0.534
				c-0.532,0.998-0.895,2.306-1.059,3.753c-0.173,1.476-0.172,3.144,0,4.974c0.305,3.182,1.081,6.562,2.306,10.039
				c0.987,2.816,2.279,5.441,3.844,7.806c1.29,1.952,2.736,3.767,4.3,5.395c1.249,1.32,2.36,2.285,3.171,2.99l0.147,0.128
				l1.324,1.076c1.607,1.304,1.954,3.619,0.8,5.337c-0.768,1.142-2.03,1.769-3.323,1.769c-0.652,0-1.312-0.16-1.921-0.494
				c0,0-1.641-0.902-1.679-0.925l-0.225-0.133c-1.017-0.603-2.553-1.512-4.349-2.83c-2.284-1.651-4.486-3.574-6.523-5.699
				c-2.556-2.659-4.927-5.855-6.851-9.238c-2.383-4.183-4.127-8.267-5.333-12.484c-0.791-2.81-1.259-5.41-1.435-7.965
				c-0.237-3.479,0.083-6.63,0.976-9.635c0.275-0.952,0.637-1.862,0.921-2.546c0.027-0.066,0.057-0.132,0.088-0.197l0.51-1.062
				c0.232-0.459,0.483-0.883,0.73-1.291l0.474-0.761l0.455-0.699c0.067-0.103,0.139-0.203,0.215-0.299l0.595-0.748
				c0.354-0.449,0.704-0.853,1.053-1.213c0.263-0.284,0.606-0.652,1.019-1.026c2.623-2.477,5.86-4.383,9.622-5.669
				c0.77-0.266,1.589-0.512,2.49-0.746c0.244-0.068,0.39-0.109,0.65-0.166l0.926-0.19c0.437-0.088,0.876-0.171,1.31-0.222
				c1.185-0.175,2.394-0.26,3.692-0.26c0.676,0,1.36,0.022,2.089,0.07c3.208,0.212,6.411,0.902,10.086,2.172
				c6.469,2.304,11.773,5.53,15.677,8.085c4.056,2.678,8.18,5.772,12.62,9.471c6.394,5.346,12.631,11.209,19.637,18.456
				c4.374,4.541,8.528,9.092,12.703,13.921c1.259,1.458,2.267,2.649,3.029,3.56c0.743,0.72,1.408,1.521,1.978,2.385
				c2.133,3.238,2.848,7.233,2.015,11.249c-0.995,4.798-4.105,9.212-8.534,12.108C185.253,116.672,181.469,117.829,177.658,117.829
				C177.659,117.829,177.659,117.829,177.658,117.829z"/>
			<path style="fill:#1D1D1D;" d="M117.302,37.006c0.617,0,1.227,0.023,1.831,0.062c3.263,0.216,6.249,0.998,9.038,1.961
				c5.557,1.979,10.35,4.744,14.792,7.651c4.432,2.926,8.48,6.057,12.251,9.198c7.527,6.294,13.961,12.618,19.321,18.162
				c5.349,5.552,9.604,10.346,12.553,13.757c1.323,1.532,2.366,2.766,3.134,3.685c0.584,0.544,1.108,1.159,1.559,1.845
				c3.635,5.519,1.231,13.492-5.369,17.809c-2.775,1.815-5.85,2.695-8.752,2.695c-4.001,0-7.674-1.672-9.781-4.87
				c-0.399-0.606-0.713-1.247-0.97-1.904c-0.499-0.874-1.135-1.977-1.907-3.289c-2.105-3.573-5.197-8.669-9.143-14.607
				c-3.949-5.927-8.747-12.722-14.337-19.443c-2.796-3.352-5.795-6.68-8.991-9.747c-3.188-3.056-6.605-5.884-10.073-7.898
				c-1.724-0.989-3.458-1.786-5.066-2.216c-0.804-0.218-1.587-0.378-2.318-0.417c-0.191-0.028-0.364-0.016-0.546-0.022l-0.273-0.008
				c-0.007-0.001-0.016-0.001-0.026-0.001c-0.085,0-0.278,0.024-0.378,0.029c-0.459,0.029-0.922,0.072-1.354,0.133
				c-1.752,0.238-3.327,0.754-4.605,1.538c-0.169,0.091-0.315,0.202-0.468,0.308c-0.159,0.101-0.303,0.216-0.443,0.335l-0.218,0.174
				l-0.028,0.022c0.094-0.116,0.12-0.148,0.119-0.148c-0.001,0-0.039,0.046-0.04,0.046c0,0,0.002-0.002,0.006-0.008l-0.076,0.081
				l-0.152,0.161l-0.304,0.322l-0.143,0.152l-0.064,0.074c-0.09,0.108-0.179,0.17-0.291,0.309l-0.352,0.459
				c-0.214,0.328-0.435,0.66-0.621,1.027c-0.773,1.449-1.256,3.236-1.47,5.119c-0.221,1.885-0.19,3.859-0.008,5.799
				c0.373,3.893,1.338,7.651,2.515,10.993c1.174,3.35,2.665,6.241,4.28,8.684c1.61,2.437,3.275,4.421,4.752,5.96
				c1.469,1.553,2.758,2.65,3.63,3.409c0.898,0.73,1.378,1.119,1.378,1.119s-0.543-0.298-1.561-0.857
				c-0.998-0.593-2.482-1.452-4.251-2.749c-1.777-1.284-3.849-2.996-6.001-5.241c-2.147-2.233-4.347-5.081-6.262-8.448
				c-1.915-3.361-3.7-7.184-4.963-11.605c-0.622-2.213-1.114-4.58-1.291-7.142c-0.174-2.554-0.037-5.337,0.82-8.219
				c0.208-0.72,0.484-1.436,0.781-2.153l0.51-1.063c0.185-0.363,0.441-0.775,0.672-1.158l0.308-0.488l0.242-0.371l0.121-0.186
				l0.061-0.093c0.013-0.017,0.017-0.022,0.016-0.022c-0.001,0-0.011,0.011-0.011,0.011c-0.001,0,0.022-0.03,0.149-0.186l0.047-0.06
				l0.382-0.477c0.254-0.322,0.518-0.635,0.802-0.927c0.279-0.299,0.56-0.602,0.862-0.873c2.384-2.261,5.274-3.822,8.2-4.822
				c0.738-0.255,1.464-0.468,2.202-0.659c0.187-0.047,0.257-0.077,0.495-0.128l0.633-0.131c0.422-0.083,0.851-0.179,1.271-0.223
				C115.198,37.071,116.258,37.006,117.302,37.006 M117.302,29.006c-1.475,0-2.857,0.096-4.218,0.294
				c-0.629,0.076-1.17,0.185-1.576,0.267l-0.197,0.039c-0.027,0.005-0.054,0.011-0.081,0.016l-0.633,0.131
				c-0.021,0.004-0.043,0.009-0.064,0.014c-0.376,0.081-0.587,0.14-0.808,0.202c-0.002,0.001-0.004,0.001-0.006,0.002
				c-1.003,0.26-1.922,0.536-2.807,0.842c-4.267,1.459-7.983,3.652-11.019,6.51c-0.506,0.461-0.923,0.906-1.236,1.243
				c-0.417,0.434-0.829,0.91-1.257,1.452l-0.367,0.459l-0.046,0.058c-0.061,0.076-0.121,0.153-0.179,0.229l-0.001,0
				c-0.152,0.192-0.295,0.391-0.429,0.596l-0.061,0.093l-0.123,0.189l-0.241,0.37c-0.022,0.033-0.043,0.067-0.064,0.1l-0.308,0.488
				c-0.03,0.047-0.059,0.095-0.088,0.143l-0.106,0.175c-0.248,0.409-0.556,0.918-0.845,1.488c-0.027,0.053-0.053,0.107-0.079,0.161
				l-0.51,1.063c-0.062,0.13-0.121,0.262-0.176,0.395c-0.321,0.775-0.732,1.81-1.069,2.967c-1.026,3.462-1.393,7.065-1.124,11.014
				c0.196,2.839,0.71,5.704,1.571,8.765c1.303,4.559,3.169,8.932,5.713,13.399c2.083,3.662,4.659,7.133,7.446,10.032
				c2.189,2.284,4.566,4.36,7.058,6.163c1.946,1.425,3.576,2.391,4.656,3.031l0.22,0.13c0.078,0.046,0.156,0.091,0.235,0.134
				l1.562,0.857c1.217,0.668,2.539,0.988,3.844,0.988c2.585,0,5.108-1.254,6.644-3.536c2.31-3.435,1.619-8.064-1.594-10.674
				l-1.274-1.035l-0.095-0.083c-0.791-0.687-1.776-1.542-2.871-2.699c-0.014-0.014-0.027-0.029-0.041-0.043
				c-1.399-1.457-2.694-3.082-3.848-4.828c-1.384-2.094-2.529-4.421-3.405-6.92c-1.121-3.183-1.827-6.244-2.102-9.11
				c-0.145-1.538-0.148-2.923-0.01-4.106c0.16-1.408,0.485-2.102,0.582-2.282c0.014-0.026,0.027-0.051,0.041-0.077
				c0.005-0.008,0.009-0.015,0.014-0.023c0.045-0.049,0.092-0.101,0.141-0.156c0.003-0.002,0.006-0.003,0.008-0.005
				c0.079-0.048,0.52-0.296,1.495-0.428c0.184-0.026,0.422-0.054,0.782-0.076c0.021-0.001,0.042-0.003,0.064-0.004
				c0.025,0,0.05,0.001,0.076,0.001c0.051,0.004,0.103,0.007,0.154,0.01c0,0-0.001,0-0.001,0c-0.011,0,0.184,0.023,0.653,0.151
				c0.49,0.131,1.518,0.482,3.173,1.432c2.502,1.453,5.38,3.726,8.52,6.736c2.683,2.574,5.426,5.551,8.384,9.096
				c4.491,5.399,9.015,11.536,13.822,18.753c3.064,4.612,6.063,9.403,8.908,14.233c0.624,1.06,1.157,1.982,1.599,2.752
				c0.426,0.993,0.926,1.926,1.489,2.781c3.493,5.303,9.647,8.47,16.462,8.47c4.59,0,9.131-1.383,13.131-4
				c5.312-3.474,9.052-8.811,10.262-14.643c1.051-5.065,0.131-10.13-2.59-14.262c-0.688-1.045-1.487-2.02-2.379-2.905
				c-0.929-1.107-1.916-2.267-2.941-3.453c-4.227-4.889-8.428-9.493-12.846-14.079c-7.112-7.357-13.448-13.311-19.95-18.748
				c-4.569-3.805-8.809-6.987-12.976-9.737c-4.115-2.694-9.685-6.078-16.515-8.511c-0.024-0.009-0.049-0.017-0.073-0.026
				c-4.024-1.389-7.558-2.146-11.122-2.382C118.844,29.032,118.054,29.006,117.302,29.006L117.302,29.006z"/>
		</g>
		<g>
			<path style="fill:#7895CF;" d="M198.01,182.653c-0.677,0-1.361-0.023-2.092-0.071c-3.204-0.212-6.407-0.901-10.085-2.171
				c-6.468-2.304-11.773-5.53-15.677-8.085c-4.058-2.679-8.182-5.773-12.62-9.472c-6.399-5.351-12.637-11.214-19.638-18.455
				c-4.371-4.538-8.524-9.09-12.702-13.921c-1.259-1.457-2.267-2.649-3.029-3.559c-0.745-0.723-1.411-1.524-1.979-2.388
				c-2.132-3.236-2.847-7.231-2.014-11.249c0.996-4.798,4.106-9.211,8.535-12.107c3.348-2.189,7.132-3.347,10.941-3.347
				c5.547,0,10.329,2.432,13.121,6.67c0.479,0.726,0.886,1.501,1.239,2.359c0.47,0.821,1.051,1.827,1.744,3.005
				c2.881,4.89,5.918,9.743,9.027,14.423c4.883,7.33,9.49,13.578,14.08,19.098c3.049,3.654,5.892,6.737,8.686,9.419
				c3.367,3.227,6.501,5.691,9.312,7.324c1.521,0.874,2.941,1.503,4.091,1.811c0.639,0.173,1.14,0.269,1.499,0.288
				c0.059,0.003,0.118,0.008,0.178,0.014c0.122,0,0.364,0.007,0.364,0.007c0.112-0.011,0.195-0.017,0.261-0.021
				c0.312-0.019,0.666-0.051,0.996-0.098c1.243-0.169,2.298-0.509,3.076-0.987c0.034-0.021,0.068-0.041,0.103-0.061
				c0,0,0.27-0.188,0.321-0.221c0.033-0.027,0.05-0.052,0.084-0.079l0.11-0.088l0.24-0.255c0.097-0.112,0.189-0.212,0.286-0.309
				l0.134-0.175c0.11-0.169,0.228-0.34,0.323-0.528c0.533-1.001,0.897-2.31,1.062-3.758c0.173-1.475,0.172-3.144,0-4.973
				c-0.305-3.184-1.081-6.563-2.306-10.039c-0.986-2.815-2.279-5.439-3.845-7.808c-1.288-1.95-2.734-3.765-4.3-5.394
				c-1.249-1.321-2.361-2.286-3.173-2.991l-0.146-0.127l-1.325-1.077c-1.606-1.306-1.952-3.621-0.796-5.338
				c0.768-1.141,2.029-1.767,3.321-1.767c0.653,0,1.314,0.16,1.923,0.495c0,0,1.639,0.901,1.678,0.924l0.225,0.133
				c1.017,0.602,2.553,1.512,4.349,2.829c2.282,1.649,4.484,3.572,6.522,5.697c2.557,2.66,4.927,5.856,6.852,9.239
				c2.385,4.186,4.129,8.27,5.333,12.484c0.79,2.81,1.259,5.41,1.435,7.965c0.237,3.479-0.082,6.629-0.976,9.634
				c-0.271,0.938-0.634,1.854-0.919,2.542c-0.028,0.068-0.058,0.136-0.09,0.202l-0.51,1.062c-0.232,0.461-0.486,0.888-0.735,1.3
				l-0.466,0.748l-0.459,0.703c-0.063,0.099-0.132,0.193-0.204,0.286l-0.003-0.002c-0.052,0.07-0.213,0.277-0.222,0.288
				l-0.382,0.477c-0.364,0.46-0.704,0.852-1.053,1.212c-0.263,0.283-0.606,0.652-1.019,1.026c-2.623,2.476-5.859,4.383-9.622,5.668
				c-0.764,0.265-1.583,0.511-2.489,0.746c-0.239,0.066-0.386,0.107-0.647,0.165l-0.934,0.191c-0.386,0.078-0.819,0.165-1.308,0.222
				C200.514,182.568,199.307,182.653,198.01,182.653z"/>
			<path style="fill:#1D1D1D;" d="M137.65,101.829c4.001,0,7.674,1.672,9.781,4.87c0.399,0.606,0.713,1.246,0.969,1.904
				c0.499,0.874,1.135,1.977,1.907,3.289c2.105,3.573,5.197,8.669,9.143,14.607c3.949,5.927,8.747,12.722,14.337,19.443
				c2.796,3.352,5.795,6.68,8.992,9.747c3.188,3.056,6.605,5.884,10.073,7.898c1.724,0.989,3.458,1.786,5.066,2.216
				c0.804,0.218,1.587,0.378,2.318,0.417c0.191,0.028,0.364,0.016,0.546,0.022l0.273,0.008c0.007,0.001,0.016,0.001,0.026,0.001
				c0.085,0,0.278-0.024,0.378-0.029c0.459-0.029,0.922-0.072,1.354-0.133c1.752-0.238,3.327-0.754,4.605-1.538
				c0.169-0.091,0.315-0.202,0.468-0.308c0.159-0.101,0.303-0.216,0.443-0.335l0.218-0.173l0.028-0.022
				c-0.094,0.116-0.12,0.148-0.119,0.148c0.001,0,0.039-0.046,0.04-0.046c0,0-0.002,0.002-0.006,0.009l0.076-0.081l0.152-0.161
				l0.304-0.322l0.143-0.151l0.064-0.074c0.09-0.108,0.179-0.17,0.291-0.309l0.352-0.459c0.213-0.328,0.435-0.66,0.622-1.027
				c0.773-1.449,1.256-3.236,1.47-5.119c0.221-1.885,0.19-3.859,0.008-5.799c-0.373-3.893-1.338-7.651-2.515-10.993
				c-1.174-3.35-2.665-6.241-4.28-8.684c-1.61-2.437-3.275-4.421-4.752-5.96c-1.469-1.553-2.758-2.65-3.63-3.409
				c-0.898-0.73-1.377-1.119-1.377-1.119s0.543,0.298,1.561,0.857c0.998,0.593,2.482,1.452,4.251,2.749
				c1.777,1.284,3.849,2.996,6.001,5.241c2.146,2.233,4.347,5.081,6.262,8.448c1.915,3.361,3.7,7.184,4.963,11.605
				c0.622,2.213,1.114,4.58,1.291,7.142c0.174,2.554,0.037,5.337-0.82,8.219c-0.208,0.72-0.484,1.436-0.781,2.153l-0.51,1.063
				c-0.184,0.363-0.441,0.775-0.672,1.158l-0.308,0.488l-0.242,0.371l-0.121,0.186l-0.061,0.093
				c-0.013,0.017-0.017,0.022-0.016,0.022c0.001,0,0.011-0.011,0.011-0.011c0.001,0-0.022,0.03-0.149,0.186l-0.047,0.06
				l-0.382,0.477c-0.254,0.322-0.518,0.635-0.802,0.927c-0.279,0.299-0.56,0.602-0.862,0.873c-2.384,2.261-5.274,3.822-8.2,4.822
				c-0.738,0.255-1.464,0.468-2.202,0.659c-0.187,0.047-0.257,0.077-0.495,0.128l-0.633,0.131c-0.422,0.083-0.851,0.178-1.271,0.223
				c-1.071,0.162-2.131,0.227-3.175,0.227c-0.616,0-1.227-0.023-1.83-0.062c-3.263-0.216-6.249-0.998-9.038-1.961
				c-5.557-1.979-10.35-4.744-14.792-7.651c-4.432-2.926-8.48-6.057-12.251-9.198c-7.527-6.294-13.961-12.618-19.32-18.162
				c-5.349-5.552-9.604-10.346-12.553-13.757c-1.323-1.532-2.366-2.766-3.134-3.685c-0.584-0.544-1.108-1.159-1.559-1.845
				c-3.635-5.519-1.231-13.492,5.369-17.809C131.674,102.709,134.748,101.829,137.65,101.829 M137.651,93.829L137.651,93.829
				c-4.59,0-9.131,1.383-13.132,4c-5.312,3.474-9.052,8.811-10.262,14.643c-1.051,5.065-0.131,10.13,2.59,14.262
				c0.689,1.046,1.487,2.021,2.379,2.905c0.93,1.108,1.917,2.268,2.941,3.453c4.228,4.89,8.429,9.494,12.846,14.079
				c7.112,7.357,13.448,13.311,19.95,18.748c4.569,3.805,8.809,6.987,12.976,9.737c4.115,2.694,9.685,6.078,16.515,8.511
				c0.024,0.009,0.049,0.017,0.073,0.026c4.023,1.389,7.558,2.146,11.122,2.382c0.816,0.053,1.605,0.079,2.358,0.079
				c1.475,0,2.856-0.096,4.217-0.294c0.629-0.076,1.169-0.185,1.575-0.267l0.197-0.039c0.028-0.005,0.055-0.011,0.083-0.017
				l0.633-0.131c0.021-0.004,0.043-0.009,0.064-0.013c0.376-0.081,0.587-0.14,0.807-0.202c0.002-0.001,0.004-0.001,0.007-0.002
				c1.003-0.26,1.921-0.536,2.807-0.842c4.268-1.459,7.983-3.652,11.019-6.51c0.506-0.462,0.923-0.906,1.237-1.243
				c0.417-0.434,0.829-0.91,1.257-1.452l0.366-0.457l0.046-0.058c0.062-0.077,0.122-0.153,0.18-0.23l0.001,0
				c0.153-0.193,0.298-0.394,0.432-0.601l0.061-0.093l0.119-0.183l0.242-0.372c0.022-0.033,0.043-0.067,0.064-0.1l0.308-0.488
				c0.03-0.047,0.059-0.095,0.088-0.143l0.106-0.176c0.247-0.409,0.555-0.917,0.844-1.487c0.027-0.053,0.053-0.106,0.079-0.16
				l0.51-1.063c0.062-0.13,0.121-0.262,0.177-0.396c0.321-0.775,0.732-1.81,1.068-2.967c1.026-3.462,1.393-7.065,1.124-11.014
				c-0.196-2.84-0.71-5.704-1.571-8.765c-1.303-4.559-3.168-8.932-5.713-13.399c-2.083-3.662-4.659-7.133-7.446-10.032
				c-2.189-2.284-4.566-4.359-7.057-6.163c-1.945-1.425-3.575-2.39-4.655-3.03l-0.221-0.131c-0.078-0.046-0.156-0.091-0.236-0.135
				l-1.561-0.857c-1.217-0.668-2.539-0.988-3.844-0.988c-2.585,0-5.108,1.253-6.644,3.536c-2.31,3.435-1.619,8.064,1.594,10.675
				l1.274,1.035l0.095,0.083c0.791,0.687,1.776,1.542,2.87,2.699c0.014,0.014,0.027,0.029,0.041,0.043
				c1.399,1.457,2.694,3.081,3.848,4.828c1.384,2.094,2.53,4.421,3.405,6.92c1.121,3.183,1.827,6.244,2.102,9.11
				c0.145,1.538,0.148,2.924,0.01,4.106c-0.16,1.408-0.486,2.102-0.582,2.282c-0.014,0.025-0.027,0.051-0.04,0.077
				c-0.005,0.008-0.01,0.016-0.014,0.023c-0.046,0.049-0.092,0.101-0.141,0.156c-0.003,0.002-0.005,0.003-0.008,0.005
				c-0.079,0.048-0.521,0.296-1.495,0.428c-0.183,0.026-0.421,0.054-0.782,0.076c-0.02,0.001-0.042,0.003-0.064,0.004
				c-0.025,0-0.05-0.001-0.076-0.001c-0.052-0.004-0.103-0.007-0.155-0.01c0,0,0.001,0,0.001,0c0.011,0-0.184-0.023-0.653-0.151
				c-0.49-0.131-1.518-0.482-3.173-1.432c-2.502-1.453-5.38-3.726-8.52-6.735c-2.683-2.574-5.426-5.551-8.384-9.096
				c-4.491-5.399-9.015-11.536-13.822-18.753c-3.064-4.612-6.063-9.404-8.908-14.233c-0.624-1.06-1.158-1.982-1.599-2.752
				c-0.426-0.993-0.926-1.926-1.489-2.781C150.619,96.996,144.465,93.83,137.651,93.829L137.651,93.829z"/>
		</g>
	</g>
</g>
<rect style="fill-rule:evenodd;clip-rule:evenodd;fill:none;" width="240" height="240"/>
</svg>
