<?xml version="1.0" encoding="iso-8859-1"?>
<!-- Generator: Adobe Illustrator 19.2.1, SVG Export Plug-In . SVG Version: 6.00 Build 0)  -->
<svg version="1.1" id="Layer_1" xmlns="http://www.w3.org/2000/svg" xmlns:xlink="http://www.w3.org/1999/xlink" x="0px" y="0px"
	 viewBox="0 0 240 240" style="enable-background:new 0 0 240 240;" xml:space="preserve">
<g>
	<polygon style="fill:#BDBDBD;" points="114.94,136.628 79.831,136.629 79.827,103.371 114.94,103.371 114.94,77.317 157.624,120 
		114.941,162.683 	"/>
	<path style="fill:#1D1D1D;" d="M118.94,86.974L151.967,120l-33.026,33.026l0-20.398l-35.111,0.001l-0.003-25.258l35.113,0
		L118.94,86.974 M110.94,67.66l0,19.314l0,12.397l-27.113,0l-8.001,0l0.001,8.001l0.003,25.258l0.001,7.999l7.999,0l27.11-0.001
		l0,12.398l0,19.313l13.657-13.657l33.026-33.026L163.28,120l-5.657-5.657l-33.026-33.026L110.94,67.66L110.94,67.66z"/>
</g>
<g>
	<g>
		<polygon style="fill:#48AAB5;" points="58.67,79.325 58.67,54.851 45.357,54.851 45.357,79.325 25.976,79.325 25.976,16.5 
			45.357,16.5 45.357,37.403 58.67,37.403 58.67,16.5 78.051,16.5 78.051,79.325 		"/>
		<path style="fill:#1D1D1D;" d="M74.051,20.5v54.825H62.67V50.851H41.358v24.474H29.976V20.5h11.382v20.903H62.67V20.5H74.051
			 M82.051,12.5h-8H62.67h-8v8v12.903h-5.312V20.5v-8h-8H29.976h-8v8v54.825v8h8h11.382h8v-8V58.851h5.312v16.474v8h8h11.382h8v-8
			V20.5V12.5L82.051,12.5z"/>
	</g>
	<g>
		<path style="fill:#48AAB5;" d="M52.707,152.576c-8.104,0-14.667-1.935-19.506-5.749c-5.127-4.042-7.727-9.623-7.727-16.588v-4
			h15.489c-3.219-0.992-5.641-2.064-7.335-3.24c-3.301-2.259-7.261-6.736-7.261-15.151c0-6.07,2.271-11.188,6.749-15.211
			c4.354-3.913,10.612-5.897,18.6-5.897c6.698,0,12.535,1.811,17.35,5.381c5.138,3.81,7.866,9.331,8.11,16.409l0.143,4.138H63.774
			c3.696,1.065,6.565,2.424,8.727,4.13c4.263,3.365,6.424,8.188,6.424,14.335c0,6.208-2.426,11.43-7.21,15.52
			C67.117,150.583,60.722,152.576,52.707,152.576z M44.369,129.678c0.324,2.286,0.888,3.242,1.195,3.608
			c1.357,1.614,4.39,1.954,6.694,1.954c2.865,0,4.526-0.366,5.416-0.673c2.038-0.712,2.205-1.59,2.205-2.58
			c0-0.325,0-0.488-0.508-0.804c-0.793-0.479-2.578-1.249-6.34-2.054l-5.956-1.306c-1.081-0.239-2.104-0.482-3.072-0.731
			L44.369,129.678z M50.919,104.26c-2.215,0-3.912,0.378-5.044,1.125c-0.679,0.448-0.909,0.863-0.909,1.645
			c0,0.396,0,0.56,0.58,0.875c0.34,0.191,1.634,0.801,6.284,1.888l6.494,1.531l-0.148-2.411c-0.145-2.337-1.16-3.163-2.236-3.707
			C54.691,104.581,52.998,104.26,50.919,104.26z"/>
		<path style="fill:#1D1D1D;" d="M51.716,90.739c5.848,0,10.837,1.531,14.966,4.593c4.129,3.062,6.294,7.507,6.495,13.334H62.168
			c-0.203-3.298-1.678-5.641-4.423-7.03c-1.83-0.917-4.105-1.376-6.825-1.376c-3.026,0-5.441,0.595-7.246,1.785
			c-1.805,1.19-2.707,2.852-2.707,4.984c0,1.959,0.89,3.422,2.669,4.389c1.144,0.645,3.571,1.401,7.284,2.269l9.621,2.269
			c4.217,0.992,7.377,2.319,9.483,3.98c3.268,2.579,4.902,6.311,4.902,11.195c0,5.009-1.937,9.169-5.809,12.479
			c-3.872,3.31-9.342,4.966-16.41,4.966c-7.218,0-12.895-1.631-17.03-4.891c-4.136-3.261-6.203-7.742-6.203-13.446h10.935
			c0.355,2.505,1.051,4.377,2.089,5.617c1.898,2.257,5.152,3.385,9.76,3.385c2.759,0,5-0.298,6.722-0.893
			c3.266-1.141,4.899-3.261,4.899-6.36c0-1.81-0.8-3.211-2.399-4.203c-1.601-0.967-4.138-1.823-7.612-2.567l-5.936-1.302
			c-5.834-1.29-9.842-2.691-12.023-4.204c-3.695-2.529-5.542-6.484-5.542-11.865c0-4.909,1.807-8.988,5.422-12.236
			C39.403,92.363,44.712,90.739,51.716,90.739 M51.716,82.739c-9.005,0-16.163,2.329-21.274,6.922
			c-5.282,4.747-8.075,11.036-8.075,18.187c0,6.57,2.052,11.187,4.615,14.391h-5.508v8c0,8.136,3.199,14.958,9.25,19.728
			c5.562,4.385,12.958,6.609,21.983,6.609c8.994,0,16.264-2.316,21.608-6.885c5.633-4.816,8.611-11.234,8.611-18.56
			c0-6.675-2.245-11.32-4.857-14.465h3.388l-0.285-8.275c-0.284-8.239-3.647-14.977-9.725-19.484
			C65.929,84.814,59.29,82.739,51.716,82.739L51.716,82.739z"/>
	</g>
	<g>
		<polygon style="fill:#48AAB5;" points="43.75,223 22.504,160.176 43.333,160.176 52.236,191.311 61.223,160.176 81.724,160.176 
			60.305,223 		"/>
		<path style="fill:#1D1D1D;" d="M76.134,164.175L57.443,219H46.62l-18.541-54.825h12.237l11.902,41.621l12.014-41.621H76.134
			 M87.314,156.175h-11.18H64.232h-6.017l-1.669,5.781l-4.292,14.868l-4.246-14.849l-1.659-5.8h-6.033H28.079H16.929l3.572,10.563
			l18.541,54.825L40.88,227h5.74h10.823h5.725l1.847-5.418l18.692-54.825L87.314,156.175L87.314,156.175z"/>
	</g>
</g>
<g>
	<g>
		<path style="fill:#BDBDBD;" d="M194.359,79.325l-0.83-2.899c-0.381-1.331-0.649-2.396-0.821-3.256
			c-0.345-1.782-0.532-3.607-0.561-5.446l-0.074-5.098c-0.045-3.294-0.641-4.208-0.678-4.262l0,0c-0.021,0-0.83-0.537-3.661-0.537
			h-7.188v21.499h-19.195V16.5h30.223c4.391,0.087,7.711,0.655,10.229,1.738c2.595,1.116,4.824,2.78,6.628,4.946
			c1.419,1.7,2.562,3.613,3.393,5.682c0.865,2.154,1.305,4.595,1.305,7.255c0,3.244-0.816,6.451-2.427,9.533
			c-0.729,1.396-1.646,2.627-2.746,3.69c0.598,0.668,1.116,1.39,1.553,2.165c1.411,2.51,2.096,5.956,2.096,10.537v3.683
			c0,3.152,0.17,4.064,0.204,4.215c0.101,0.472,0.21,0.538,0.282,0.582l1.931,1.167v7.632H194.359z M188.874,40.751
			c2.555,0,3.525-0.375,3.762-0.491c0.336-0.161,0.999-0.479,0.999-2.576c0-1.73-0.355-2.8-1.056-3.182
			c-0.154-0.084-0.999-0.48-3.387-0.48h-8.646v6.729H188.874z"/>
		<path style="fill:#1D1D1D;" d="M191.574,20.5c3.747,0.074,6.631,0.546,8.649,1.413c2.019,0.868,3.73,2.145,5.133,3.831
			c1.16,1.389,2.079,2.927,2.755,4.612c0.678,1.686,1.017,3.608,1.017,5.765c0,2.604-0.657,5.164-1.972,7.681
			c-1.315,2.517-3.484,4.296-6.509,5.338c2.53,1.017,4.32,2.461,5.375,4.333c1.053,1.873,1.581,4.73,1.581,8.573v3.683
			c0,2.505,0.1,4.203,0.302,5.095c0.302,1.413,1.007,2.455,2.115,3.125v1.376h-12.646c-0.348-1.215-0.596-2.195-0.744-2.938
			c-0.298-1.537-0.46-3.112-0.484-4.724l-0.074-5.096c-0.048-3.496-0.651-5.827-1.812-6.993c-1.161-1.165-3.337-1.748-6.526-1.748
			h-11.189v21.498H165.35V20.5H191.574 M176.546,44.751h12.329c2.449,0,4.286-0.298,5.511-0.893c2.166-1.041,3.25-3.099,3.25-6.174
			c0-3.323-1.048-5.554-3.144-6.695c-1.178-0.645-2.943-0.967-5.298-0.967h-12.647V44.751 M191.653,12.5h-0.079H165.35h-8v8v54.825
			v8h8h11.195h8v-8V61.826h3.189c0.109,0,0.213,0.001,0.311,0.003c0.014,0.25,0.024,0.531,0.028,0.846l0.075,5.104
			c0.031,2.072,0.242,4.133,0.629,6.129c0.199,1.004,0.493,2.174,0.906,3.617l1.659,5.8h6.032h12.646h8v-8v-1.376v-4.513
			l-2.377-1.436c-0.023-0.528-0.041-1.265-0.041-2.271v-3.683c0-5.283-0.852-9.368-2.604-12.487
			c0.457-0.652,0.874-1.337,1.248-2.053c1.911-3.659,2.881-7.489,2.881-11.384c0-3.174-0.536-6.117-1.594-8.748
			c-0.985-2.455-2.345-4.73-4.038-6.757c-2.202-2.645-4.934-4.685-8.113-6.052c-3.004-1.292-6.815-1.966-11.651-2.062L191.653,12.5
			L191.653,12.5z"/>
	</g>
	<g>
		<path style="fill:#BDBDBD;" d="M185.435,152.576c-8.396,0-15.392-2.973-20.794-8.835c-5.498-5.747-8.312-13.655-8.312-23.452
			c0-9.86,2.817-17.946,8.373-24.033c5.649-6.192,13.163-9.332,22.332-9.332c7.898,0,14.411,2.096,19.359,6.231
			c5.019,4.196,7.938,9.52,8.678,15.826l0.523,4.466H196.65l-0.718-3.096c-0.58-2.502-1.877-4.121-4.078-5.092
			c-1.349-0.585-2.927-0.887-4.671-0.887c-3.258,0-5.748,1.141-7.836,3.589c-2.191,2.569-3.303,6.748-3.303,12.42
			c0,5.527,1.111,9.339,3.304,11.333c2.332,2.122,4.883,3.153,7.798,3.153c2.848,0,5.063-0.747,6.774-2.283
			c0.57-0.513,1.068-1.076,1.495-1.693h-10.968v-17.149h30.837v37.42h-14.971l-0.459-2.729c-0.403,0.29-0.802,0.554-1.195,0.791
			C195.031,151.444,190.575,152.576,185.435,152.576z"/>
		<path style="fill:#1D1D1D;" d="M187.034,90.925c6.968,0,12.565,1.767,16.794,5.3c4.228,3.534,6.652,7.941,7.271,13.222h-11.27
			c-0.868-3.743-2.989-6.36-6.36-7.848c-1.884-0.818-3.979-1.227-6.286-1.227c-4.414,0-8.041,1.664-10.879,4.993
			c-2.84,3.329-4.259,8.334-4.259,15.016c0,6.733,1.537,11.495,4.612,14.293c3.075,2.796,6.571,4.194,10.49,4.194
			c3.842,0,6.992-1.102,9.447-3.308c2.454-2.205,3.966-5.094,4.537-8.669h-12.683v-9.149h22.837v29.42h-7.587l-1.153-6.844
			c-2.207,2.592-4.191,4.42-5.951,5.481c-3.025,1.851-6.746,2.777-11.159,2.777c-7.266,0-13.217-2.516-17.852-7.546
			c-4.835-5.054-7.253-11.968-7.253-20.741c0-8.871,2.441-15.983,7.327-21.336C172.54,93.601,179,90.925,187.034,90.925
			 M187.034,82.925c-10.34,0-18.848,3.579-25.287,10.637c-6.249,6.846-9.418,15.839-9.418,26.728
			c0,10.832,3.169,19.651,9.419,26.215c6.184,6.683,14.153,10.072,23.686,10.072c4.185,0,8.001-0.672,11.398-2.002l0.099,0.588
			h6.765h7.587h8v-8v-29.42v-0.295h0.808l-0.808-6.885v-0.82h-0.096l-0.144-1.227c-0.863-7.355-4.256-13.556-10.086-18.429
			C203.271,85.334,195.895,82.925,187.034,82.925L187.034,82.925z M183.188,109.742c1.102-0.963,2.326-1.37,3.995-1.37
			c1.21,0,2.224,0.185,3.1,0.565c0.46,0.203,0.826,0.429,1.117,0.805h-2.952H183.188L183.188,109.742z M180.448,125.101
			c-0.262-1.333-0.403-2.934-0.403-4.72c0-1.898,0.136-3.588,0.403-5.047v2.408V125.101L180.448,125.101z"/>
	</g>
	<g>
		<path style="fill:#BDBDBD;" d="M161.275,223v-62.824h30.495c8.032,0.118,13.878,2.632,17.432,7.473
			c2.193,3.045,3.294,6.646,3.294,10.735c0,4.291-1.166,7.867-3.466,10.63c-0.05,0.062-0.102,0.122-0.153,0.182
			c0.994,0.898,1.859,1.916,2.592,3.05c1.842,2.855,2.775,6.287,2.775,10.203c0,4.001-1.029,7.66-3.059,10.876
			c-1.261,2.081-2.909,3.912-4.863,5.379c-2.192,1.676-4.819,2.851-7.778,3.469c-2.635,0.55-5.516,0.828-8.565,0.828H161.275z
			 M189.521,205.479c2.302,0,3.368-0.353,3.799-0.562c0.426-0.211,1.357-0.672,1.357-3.248c0-1.584-0.502-1.939-1.159-2.24
			c-0.439-0.202-1.522-0.542-3.855-0.567h-9.451v6.618H189.521z M189.536,181.785c1.603,0,2.888-0.267,3.716-0.772
			c0.213-0.129,0.309-0.797,0.309-1.401c0-0.986-0.192-1.218-0.382-1.32c-1.259-0.394-2.953-0.594-5.041-0.594h-7.927v4.088H189.536
			z"/>
		<path style="fill:#1D1D1D;" d="M191.77,164.175c6.685,0.099,11.422,2.046,14.209,5.84c1.677,2.33,2.517,5.12,2.517,8.369
			c0,3.347-0.847,6.038-2.54,8.071c-0.945,1.141-2.34,2.182-4.181,3.125c2.798,1.017,4.909,2.628,6.333,4.835
			c1.424,2.207,2.136,4.885,2.136,8.033c0,3.249-0.814,6.163-2.441,8.741c-1.036,1.711-2.33,3.149-3.882,4.315
			c-1.751,1.338-3.816,2.256-6.195,2.752c-2.379,0.496-4.962,0.744-7.747,0.744h-24.703v-54.825H191.77 M176.211,185.785h13.325
			c2.38,0,4.313-0.451,5.798-1.357c1.484-0.906,2.227-2.512,2.227-4.817c0-2.554-0.981-4.241-2.944-5.059
			c-1.693-0.57-3.853-0.856-6.479-0.856h-11.926V185.785 M176.211,209.479h13.31c2.378,0,4.229-0.323,5.552-0.967
			c2.402-1.19,3.604-3.472,3.604-6.844c0-2.851-1.165-4.81-3.493-5.877c-1.299-0.596-3.126-0.906-5.478-0.93h-13.494V209.479
			 M191.83,156.175h-0.059h-26.494h-8v8V219v8h8h24.703c3.324,0,6.481-0.307,9.382-0.912c3.537-0.738,6.696-2.153,9.391-4.206
			c2.335-1.759,4.305-3.94,5.857-6.486c2.413-3.849,3.636-8.205,3.636-12.948c0-4.696-1.148-8.858-3.413-12.369
			c-0.271-0.42-0.556-0.828-0.856-1.222c1.673-2.985,2.52-6.495,2.52-10.473c0-4.945-1.354-9.333-4.024-13.042l-0.023-0.031
			l-0.023-0.031c-4.336-5.902-11.245-8.965-20.537-9.103L191.83,156.175L191.83,156.175z"/>
	</g>
</g>
<rect style="fill-rule:evenodd;clip-rule:evenodd;fill:none;" width="240" height="240"/>
</svg>
