<?xml version="1.0" encoding="utf-8"?>
<!-- Generator: Adobe Illustrator 13.0.2, SVG Export Plug-In . SVG Version: 6.00 Build 14948)  -->
<svg version="1.2" baseProfile="tiny" id="Layer_1" xmlns="http://www.w3.org/2000/svg" xmlns:xlink="http://www.w3.org/1999/xlink"
	 x="0px" y="0px" width="251.568px" height="197.518px" viewBox="0 0 251.568 197.518" xml:space="preserve">
<g>
	<g>
		<path fill="#77ABD3" stroke="#010101" stroke-width="6.0574" d="M153.25,147.762c6.268,3.618,19.289-7.515,29.313-24.898
			c10.042-17.385,13.279-34.388,6.994-38.008L46.386,32.014c-8.954-2.771-18.094,13.054-11.22,19.443L153.25,147.762z"/>
		<g>
			<path fill="#77ABD3" stroke="#010101" stroke-width="6.0574" d="M85.17,44.098c0,22.701-18.371,41.072-41.05,41.072
				c-22.701,0-41.091-18.371-41.091-41.072c0-22.68,18.39-41.069,41.091-41.069C66.799,3.029,85.17,21.418,85.17,44.098z"/>
			<path fill="none" stroke="#F2F2F2" stroke-width="3.6344" stroke-linecap="round" stroke-linejoin="round" d="M14.822,45.639
				c0-17.02,13.799-30.819,30.819-30.819"/>
			<path fill="none" stroke="#1E76BB" stroke-width="3.6344" stroke-linecap="round" stroke-linejoin="round" d="M73.396,42.574
				c0,17.037-13.783,30.819-30.803,30.819"/>
			<path fill="#F2F2F2" stroke="#010101" stroke-width="4.8459" d="M54.367,44.098c0,5.681-4.607,10.269-10.248,10.269
				c-5.681,0-10.288-4.588-10.288-10.269c0-5.66,4.607-10.267,10.288-10.267C49.76,33.832,54.367,38.438,54.367,44.098z"/>
		</g>
	</g>
	<g>
		<g>
			
				<line fill="none" stroke="#000000" stroke-width="16.9606" stroke-linecap="round" stroke-linejoin="round" x1="189.537" y1="61.478" x2="189.537" y2="189.037"/>
			
				<line fill="none" stroke="#000000" stroke-width="16.9606" stroke-linecap="round" stroke-linejoin="round" x1="135.904" y1="154.201" x2="243.088" y2="97.829"/>
			
				<line fill="none" stroke="#000000" stroke-width="16.9606" stroke-linecap="round" stroke-linejoin="round" x1="243.073" y1="154.201" x2="135.894" y2="97.829"/>
		</g>
		<g>
			
				<line fill="none" stroke="#CB2129" stroke-width="16.9606" stroke-linecap="round" stroke-linejoin="round" x1="181.104" y1="53.57" x2="181.104" y2="181.128"/>
			
				<line fill="none" stroke="#CB2129" stroke-width="16.9606" stroke-linecap="round" stroke-linejoin="round" x1="127.472" y1="146.292" x2="234.655" y2="89.921"/>
			
				<line fill="none" stroke="#CB2129" stroke-width="16.9606" stroke-linecap="round" stroke-linejoin="round" x1="234.64" y1="146.292" x2="127.458" y2="89.921"/>
		</g>
	</g>
</g>
</svg>
