<?xml version="1.0" encoding="utf-8"?>
<!-- Generator: Adobe Illustrator 19.2.1, SVG Export Plug-In . SVG Version: 6.00 Build 0)  -->
<svg version="1.1" id="Layer_1" xmlns="http://www.w3.org/2000/svg" xmlns:xlink="http://www.w3.org/1999/xlink" x="0px" y="0px"
	 viewBox="0 0 240 240" enable-background="new 0 0 240 240" xml:space="preserve">
<rect fill-rule="evenodd" clip-rule="evenodd" fill="none" width="240" height="240"/>
<rect fill-rule="evenodd" clip-rule="evenodd" fill="none" width="240" height="240"/>
<g>
	<g>
		<g>
			<path fill-rule="evenodd" clip-rule="evenodd" fill="#BDBDBD" d="M189.8,75.4c-14,0-25.4-11.4-25.4-25.4s11.4-25.4,25.4-25.4
				c14,0,25.4,11.4,25.4,25.4S203.8,75.4,189.8,75.4z"/>
			<g>
				<path fill="#1D1D1D" d="M189.8,28.5c11.8,0,21.4,9.6,21.4,21.4s-9.6,21.4-21.4,21.4c-11.8,0-21.4-9.6-21.4-21.4
					S178,28.5,189.8,28.5 M189.8,20.5c-16.2,0-29.4,13.2-29.4,29.4s13.2,29.4,29.4,29.4c16.2,0,29.4-13.2,29.4-29.4
					S206,20.5,189.8,20.5L189.8,20.5z"/>
			</g>
		</g>
		<g>
			<path fill-rule="evenodd" clip-rule="evenodd" fill="#BDBDBD" d="M95.5,149.2c-1,0-2.1-0.4-2.8-1.2c-1.3-1.3-1.5-3.4-0.5-5
				l54.6-84.9c0.7-1,1.7-1.7,2.9-1.8c0.1,0,0.3,0,0.4,0c1.1,0,2.1,0.4,2.8,1.2L183.6,88c0.9,0.9,1.3,2.1,1.1,3.3
				c-0.1,1.2-0.8,2.3-1.8,2.9l-85.3,54.3C97,149,96.3,149.2,95.5,149.2z"/>
			<g>
				<path fill="#1D1D1D" d="M150.2,60.2l30.6,30.6l-85.3,54.3L150.2,60.2 M150.2,52.2c-0.3,0-0.6,0-0.9,0c-2.4,0.3-4.6,1.6-5.9,3.6
					l-54.6,84.9c-2,3.2-1.6,7.3,1.1,10c1.5,1.6,3.6,2.4,5.7,2.4c1.5,0,3-0.4,4.3-1.3l85.3-54.3c2-1.3,3.4-3.5,3.7-5.9
					c0.3-2.4-0.6-4.8-2.3-6.5l-30.6-30.6C154.3,53.1,152.3,52.2,150.2,52.2L150.2,52.2z"/>
			</g>
		</g>
	</g>
	<g>
		<path fill-rule="evenodd" clip-rule="evenodd" fill="#AE9CDB" d="M67,215.5v-29.3c-5.9-2.4-10.5-7.1-12.9-12.9H24.8v-17.9H54
			c2.4-5.9,7.1-10.5,12.9-12.9v-29.2h17.9v29.2c5.9,2.4,10.5,7.1,12.9,12.9H127v17.9H97.8c-2.4,5.9-7.1,10.5-12.9,12.9v29.3H67z"/>
		<path fill="#1D1D1D" d="M80.9,117.2v28.1c6.9,1.8,12.2,7.2,14,14H123v9.9H94.9c-1.8,6.9-7.2,12.2-14,14v28.1H71v-28.1
			c-6.9-1.8-12.2-7.2-14-14H28.8v-9.9h28.1c1.8-6.9,7.2-12.2,14-14v-28.1H80.9 M88.9,109.2h-8H71h-8v8v22.7
			c-4.9,2.6-8.9,6.6-11.4,11.4H28.8h-8v8v9.9v8h8h22.7c2.6,4.9,6.6,8.9,11.4,11.4v22.7v8h8h9.9h8v-8v-22.7
			c4.9-2.6,8.9-6.6,11.4-11.4H123h8v-8v-9.9v-8h-8h-22.7c-2.6-4.9-6.6-8.9-11.4-11.4v-22.7V109.2L88.9,109.2z"/>
	</g>
</g>
</svg>
