<?xml version="1.0" encoding="utf-8"?>
<!-- Generator: Adobe Illustrator 19.2.1, SVG Export Plug-In . SVG Version: 6.00 Build 0)  -->
<svg version="1.1" id="Layer_1" xmlns="http://www.w3.org/2000/svg" xmlns:xlink="http://www.w3.org/1999/xlink" x="0px" y="0px"
	 viewBox="0 0 240 240" enable-background="new 0 0 240 240" xml:space="preserve">
<rect fill-rule="evenodd" clip-rule="evenodd" fill="none" width="240" height="240"/>
<rect fill-rule="evenodd" clip-rule="evenodd" fill="none" width="240" height="240"/>
<g>
	<g>
		<g>
			<path fill-rule="evenodd" clip-rule="evenodd" fill="#BDBDBD" d="M164.5,62.5c-12.8,0-23.2-10.4-23.2-23.2S151.7,16,164.5,16
				s23.2,10.4,23.2,23.2S177.3,62.5,164.5,62.5z"/>
			<g>
				<path fill="#1D1D1D" d="M164.5,20c10.6,0,19.2,8.6,19.2,19.2s-8.6,19.2-19.2,19.2c-10.6,0-19.2-8.6-19.2-19.2S153.8,20,164.5,20
					 M164.5,12c-15,0-27.2,12.2-27.2,27.2s12.2,27.2,27.2,27.2s27.2-12.2,27.2-27.2S179.5,12,164.5,12L164.5,12z"/>
			</g>
		</g>
		<g>
			<path fill-rule="evenodd" clip-rule="evenodd" fill="#BDBDBD" d="M79.8,128.8c-1,0-2.1-0.4-2.8-1.2c-1.3-1.3-1.5-3.4-0.5-5
				l49.1-76.3c0.7-1,1.7-1.7,2.9-1.8c0.1,0,0.3,0,0.4,0c1.1,0,2.1,0.4,2.8,1.2l27.5,27.5c0.9,0.9,1.3,2.1,1.1,3.3
				c-0.1,1.2-0.8,2.3-1.8,2.9l-76.6,48.8C81.3,128.6,80.5,128.8,79.8,128.8z"/>
			<g>
				<path fill="#1D1D1D" d="M128.9,48.5L156.4,76l-76.6,48.8L128.9,48.5 M128.9,40.5c-0.3,0-0.6,0-0.9,0c-2.4,0.3-4.6,1.6-5.9,3.6
					l-49.1,76.3c-2,3.2-1.6,7.3,1.1,10c1.5,1.6,3.6,2.4,5.7,2.4c1.5,0,3-0.4,4.3-1.3l76.6-48.8c2-1.3,3.4-3.5,3.7-5.9
					c0.3-2.4-0.6-4.8-2.3-6.5l-27.5-27.5C133,41.3,131,40.5,128.9,40.5L128.9,40.5z"/>
			</g>
		</g>
		<g>
			<path fill-rule="evenodd" clip-rule="evenodd" fill="#BDBDBD" d="M70.5,156.9c-12.8,0-23.2-10.4-23.2-23.2
				c0-12.8,10.4-23.2,23.2-23.2s23.2,10.4,23.2,23.2C93.8,146.5,83.4,156.9,70.5,156.9z"/>
			<g>
				<path fill="#1D1D1D" d="M70.5,114.5c10.6,0,19.2,8.6,19.2,19.2s-8.6,19.2-19.2,19.2s-19.2-8.6-19.2-19.2S59.9,114.5,70.5,114.5
					 M70.5,106.5c-15,0-27.2,12.2-27.2,27.2s12.2,27.2,27.2,27.2s27.2-12.2,27.2-27.2S85.6,106.5,70.5,106.5L70.5,106.5z"/>
			</g>
		</g>
		<g>
			<path fill-rule="evenodd" clip-rule="evenodd" fill="#BDBDBD" d="M156.1,222.4c-0.7,0-1.5-0.2-2.2-0.6l-76.3-49.1
				c-1-0.7-1.7-1.7-1.8-2.9s0.3-2.4,1.1-3.3l27.5-27.5c0.8-0.8,1.8-1.2,2.8-1.2c0.1,0,0.3,0,0.4,0c1.2,0.1,2.3,0.8,2.9,1.8
				l48.8,76.6c1,1.6,0.8,3.7-0.6,5C158.1,222,157.1,222.4,156.1,222.4z"/>
			<g>
				<path fill="#1D1D1D" d="M107.3,141.8l48.8,76.6l-76.3-49.1L107.3,141.8 M107.3,133.8c-2.1,0-4.1,0.8-5.7,2.3l-27.5,27.5
					c-1.7,1.7-2.6,4.1-2.3,6.5c0.3,2.4,1.6,4.6,3.6,5.9l76.3,49.1c1.3,0.9,2.8,1.3,4.3,1.3c2.1,0,4.1-0.8,5.6-2.3
					c2.7-2.7,3.1-6.8,1.1-10L114,137.5c-1.3-2-3.5-3.4-5.9-3.7C107.9,133.8,107.6,133.8,107.3,133.8L107.3,133.8z"/>
			</g>
		</g>
	</g>
	<g>
		<path fill-rule="evenodd" clip-rule="evenodd" fill="#BDBDBD" d="M164.5,224.2c-4.4,0-8-3.6-8-8V204h-12.2c-4.4,0-8-3.6-8-8
			s3.6-8,8-8h9.2V44.7c0-5.8,4.7-10.5,10.5-10.5h1c5.8,0,10.5,4.7,10.5,10.5V188h9.2c4.4,0,8,3.6,8,8s-3.6,8-8,8h-12.2v12.2
			C172.5,220.6,168.9,224.2,164.5,224.2z"/>
		<g>
			<path fill="#1D1D1D" d="M165,38.2c3.6,0,6.5,2.9,6.5,6.5V192h13.2c2.2,0,4,1.8,4,4c0,2.2-1.8,4-4,4h-16.2v16.2c0,2.2-1.8,4-4,4
				c-2.2,0-4-1.8-4-4V200h-16.2c-2.2,0-4-1.8-4-4c0-2.2,1.8-4,4-4h13.2V44.7c0-3.6,2.9-6.5,6.5-6.5H165 M165,30.2h-1
				c-8,0-14.5,6.5-14.5,14.5V184h-5.2c-6.6,0-12,5.4-12,12c0,6.6,5.4,12,12,12h8.2v8.2c0,6.6,5.4,12,12,12s12-5.4,12-12V208h8.2
				c6.6,0,12-5.4,12-12c0-6.6-5.4-12-12-12h-5.2V44.7C179.5,36.7,173,30.2,165,30.2L165,30.2z"/>
		</g>
	</g>
</g>
</svg>
