<?xml version="1.0" encoding="utf-8"?>
<!-- Generator: Adobe Illustrator 13.0.2, SVG Export Plug-In . SVG Version: 6.00 Build 14948)  -->
<svg version="1.2" baseProfile="tiny" id="Layer_1" xmlns="http://www.w3.org/2000/svg" xmlns:xlink="http://www.w3.org/1999/xlink"
	 x="0px" y="0px" width="185.215px" height="235.577px" viewBox="0 0 185.215 235.577" xml:space="preserve">
<g>
	<g>
		<path fill="#CB2129" stroke="#010101" stroke-width="6.25" stroke-linecap="round" stroke-linejoin="round" d="M173.121,97.29
			c5.876-3.394,9.658-9.775,5.62-16.77c-4.058-7.024-11.848-6.689-17.335-3.521l-61.964,35.774
			c-5.487,3.169-9.674,9.749-5.617,16.772c4.038,6.995,11.455,6.912,17.332,3.519L173.121,97.29z"/>
		<circle fill="#F2F2F2" cx="169.391" cy="83.452" r="2.266"/>
	</g>
	<g>
		<path fill="#77ABD3" stroke="#010101" stroke-width="6.25" d="M115.054,148.79c0,30.932-25.031,55.969-55.933,55.969
			c-30.934,0-55.996-25.037-55.996-55.969c0-30.889,25.062-55.96,55.996-55.96C90.022,92.83,115.054,117.9,115.054,148.79z"/>
		<path fill="none" stroke="#F2F2F2" stroke-width="5" stroke-linecap="round" stroke-linejoin="round" d="M19.195,150.891
			c0-23.198,18.801-41.997,41.997-41.997"/>
		<path fill="none" stroke="#1E76BB" stroke-width="5" stroke-linecap="round" stroke-linejoin="round" d="M99.015,146.726
			c0,23.198-18.787,41.982-41.975,41.982"/>
		<path fill="#F2F2F2" stroke="#010101" stroke-width="5.9375" d="M73.078,148.79c0,7.748-6.274,14.001-13.957,14.001
			c-7.746,0-14.021-6.253-14.021-14.001c0-7.708,6.276-13.994,14.021-13.994C66.804,134.795,73.078,141.082,73.078,148.79z"/>
	</g>
	<g>
		<path fill="#CB2129" stroke="#010101" stroke-width="6.25" stroke-linecap="round" stroke-linejoin="round" d="M71.888,87.925
			c0,6.787-3.635,13.252-11.712,13.252c-8.113,0-11.717-6.917-11.717-13.252v-71.55c0-6.335,3.604-13.25,11.717-13.25
			c8.077,0,11.712,6.465,11.712,13.25V87.925z"/>
		<circle fill="#F2F2F2" cx="58.008" cy="12.422" r="2.266"/>
	</g>
	<g>
		<path fill="#CB2129" stroke="#010101" stroke-width="6.25" stroke-linecap="round" stroke-linejoin="round" d="M174.788,210.004
			c5.877,3.395,9.661,9.773,5.621,16.771c-4.056,7.024-11.849,6.687-17.336,3.521l-61.964-35.773
			c-5.487-3.17-9.673-9.749-5.615-16.775c4.037-6.994,11.454-6.912,17.33-3.518L174.788,210.004z"/>
		<circle fill="#F2F2F2" cx="173.507" cy="219.875" r="2.265"/>
	</g>
</g>
</svg>
