<?xml version="1.0" encoding="utf-8"?>
<!-- Generator: Adobe Illustrator 19.2.1, SVG Export Plug-In . SVG Version: 6.00 Build 0)  -->
<svg version="1.1" id="Layer_1" xmlns="http://www.w3.org/2000/svg" xmlns:xlink="http://www.w3.org/1999/xlink" x="0px" y="0px"
	 viewBox="0 0 240 240" enable-background="new 0 0 240 240" xml:space="preserve">
<rect fill-rule="evenodd" clip-rule="evenodd" fill="none" width="240" height="240"/>
<rect fill-rule="evenodd" clip-rule="evenodd" fill="none" width="240" height="240"/>
<g>
	<g>
		<path fill-rule="evenodd" clip-rule="evenodd" fill="#AE9CDB" d="M148.1,62.5c-12.8,0-23.2-10.4-23.2-23.2S135.3,16,148.1,16
			s23.2,10.4,23.2,23.2S160.9,62.5,148.1,62.5z"/>
		<g>
			<path fill="#1D1D1D" d="M148.1,20c10.6,0,19.2,8.6,19.2,19.2s-8.6,19.2-19.2,19.2s-19.2-8.6-19.2-19.2S137.5,20,148.1,20
				 M148.1,12c-15,0-27.2,12.2-27.2,27.2s12.2,27.2,27.2,27.2s27.2-12.2,27.2-27.2S163.1,12,148.1,12L148.1,12z"/>
		</g>
	</g>
	<g>
		<path fill-rule="evenodd" clip-rule="evenodd" fill="#BDBDBD" d="M63.4,128.8c-1,0-2.1-0.4-2.8-1.2c-1.3-1.3-1.5-3.4-0.5-5
			l49.1-76.3c0.7-1,1.7-1.7,2.9-1.8c0.1,0,0.3,0,0.4,0c1.1,0,2.1,0.4,2.8,1.2l27.5,27.5c0.9,0.9,1.3,2.1,1.1,3.3
			c-0.1,1.2-0.8,2.3-1.8,2.9l-76.6,48.8C64.9,128.6,64.2,128.8,63.4,128.8z"/>
		<g>
			<path fill="#1D1D1D" d="M112.5,48.5L140,76l-76.6,48.8L112.5,48.5 M112.5,40.5c-0.3,0-0.6,0-0.9,0c-2.4,0.3-4.6,1.6-5.9,3.6
				l-49.1,76.3c-2,3.2-1.6,7.3,1.1,10c1.5,1.6,3.6,2.4,5.7,2.4c1.5,0,3-0.4,4.3-1.3l76.6-48.8c2-1.3,3.4-3.5,3.7-5.9
				c0.3-2.4-0.6-4.8-2.3-6.5l-27.5-27.5C116.7,41.3,114.6,40.5,112.5,40.5L112.5,40.5z"/>
		</g>
	</g>
	<g>
		<path fill-rule="evenodd" clip-rule="evenodd" fill="#BDBDBD" d="M54.2,156.9c-12.8,0-23.2-10.4-23.2-23.2
			c0-12.8,10.4-23.2,23.2-23.2s23.2,10.4,23.2,23.2C77.4,146.5,67,156.9,54.2,156.9z"/>
		<g>
			<path fill="#1D1D1D" d="M54.2,114.5c10.6,0,19.2,8.6,19.2,19.2s-8.6,19.2-19.2,19.2S35,144.3,35,133.7S43.6,114.5,54.2,114.5
				 M54.2,106.5c-15,0-27.2,12.2-27.2,27.2s12.2,27.2,27.2,27.2s27.2-12.2,27.2-27.2S69.2,106.5,54.2,106.5L54.2,106.5z"/>
		</g>
	</g>
	<g>
		<path fill-rule="evenodd" clip-rule="evenodd" fill="#BDBDBD" d="M139.7,222.4c-0.7,0-1.5-0.2-2.2-0.6l-76.3-49.1
			c-1-0.7-1.7-1.7-1.8-2.9s0.3-2.4,1.1-3.3L88.1,139c0.8-0.8,1.8-1.2,2.8-1.2c0.1,0,0.3,0,0.4,0c1.2,0.1,2.3,0.8,2.9,1.8l48.8,76.6
			c1,1.6,0.8,3.7-0.6,5C141.8,222,140.7,222.4,139.7,222.4z"/>
		<g>
			<path fill="#1D1D1D" d="M90.9,141.8l48.8,76.6l-76.3-49.1L90.9,141.8 M90.9,133.8c-2.1,0-4.1,0.8-5.7,2.3l-27.5,27.5
				c-1.7,1.7-2.6,4.1-2.3,6.5c0.3,2.4,1.6,4.6,3.6,5.9l76.3,49.1c1.3,0.9,2.8,1.3,4.3,1.3c2.1,0,4.1-0.8,5.6-2.3
				c2.7-2.7,3.1-6.8,1.1-10l-48.8-76.6c-1.3-2-3.5-3.4-5.9-3.7C91.5,133.8,91.2,133.8,90.9,133.8L90.9,133.8z"/>
		</g>
	</g>
	<g>
		<path fill="#AE9CDB" d="M147.3,92c-29.7,0-53.8-24.1-53.8-53.8c0-2.2,1.8-4,4-4h8c2.2,0,4,1.8,4,4c0,20.8,16.9,37.8,37.8,37.8
			c18,0,33.5-13,37-30.3h-3.2c-1.4,0-2.8-0.8-3.5-2c-0.7-1.2-0.7-2.8,0-4l12-20.7c0.7-1.2,2-2,3.5-2l0,0c1.4,0,2.7,0.8,3.5,2
			l12,20.7c0.7,1.2,0.7,2.8,0,4c-0.7,1.2-2,2-3.5,2h-4.5C196.9,71.9,174.2,92,147.3,92z"/>
		<g>
			<path fill="#1D1D1D" d="M193.1,21l12,20.7h-8.1C195.1,67.5,173.6,88,147.3,88c-27.4,0-49.8-22.3-49.8-49.8h8
				c0,23,18.7,41.8,41.8,41.8c21.9,0,39.8-16.9,41.6-38.3h-7.8L193.1,21 M193.1,13c-2.9,0-5.5,1.5-6.9,4l-12,20.7
				c-1.4,2.5-1.4,5.5,0,8c1.1,1.9,2.9,3.2,4.9,3.8C174.4,62.6,161.8,72,147.3,72c-18.6,0-33.8-15.2-33.8-33.8c0-4.4-3.6-8-8-8h-8
				c-4.4,0-8,3.6-8,8c0,31.9,25.9,57.8,57.8,57.8c27.7,0,51.2-19.8,56.6-46.3h1.1c2.9,0,5.5-1.5,6.9-4c1.4-2.5,1.4-5.5,0-8L200,17
				C198.6,14.5,195.9,13,193.1,13L193.1,13z"/>
		</g>
	</g>
</g>
</svg>
