<?xml version="1.0" encoding="utf-8"?>
<!-- Generator: Adobe Illustrator 13.0.2, SVG Export Plug-In . SVG Version: 6.00 Build 14948)  -->
<svg version="1.2" baseProfile="tiny" id="Layer_1" xmlns="http://www.w3.org/2000/svg" xmlns:xlink="http://www.w3.org/1999/xlink"
	 x="0px" y="0px" width="229.178px" height="245.767px" viewBox="0 0 229.178 245.767" xml:space="preserve">
<g>
	<g>
		<path fill="#77ABD3" stroke="#010101" stroke-width="6.25" d="M158.123,152.461c6.467,3.732,19.902-7.754,30.246-25.691
			c10.361-17.937,13.701-35.48,7.217-39.216L47.861,33.032c-9.238-2.859-18.669,13.469-11.577,20.061L158.123,152.461z"/>
		<path fill="#F2F2F2" stroke="#231F20" stroke-width="5.5102" d="M188.369,126.77c-10.344,17.938-23.957,29.424-30.425,25.672
			c-6.468-3.719-3.323-21.26,7.021-39.177c10.342-17.92,23.975-29.424,30.442-25.691C201.875,91.289,198.73,108.833,188.369,126.77z
			"/>
	</g>
	<g>
		<path fill="#77ABD3" stroke="#010101" stroke-width="6.25" d="M8.506,196.406c0,7.469,16.665,13.364,37.373,13.348
			c20.703,0.017,37.568-5.859,37.568-13.348L56.792,41.213c-2.144-9.434-20.991-9.434-23.152,0L8.506,196.406z"/>
		<path fill="#F2F2F2" stroke="#231F20" stroke-width="5.5102" d="M45.879,209.754c-20.708,0.017-37.466-6.023-37.446-13.509
			c-0.02-7.448,16.738-13.503,37.427-13.503s37.48,6.055,37.48,13.522C83.359,203.713,66.582,209.771,45.879,209.754z"/>
	</g>
	<g>
		<path fill="#77ABD3" stroke="#010101" stroke-width="6.25" d="M87.878,45.5c0,23.423-18.955,42.378-42.356,42.378
			C22.1,87.878,3.125,68.923,3.125,45.5C3.125,22.1,22.1,3.125,45.522,3.125C68.923,3.125,87.878,22.1,87.878,45.5z"/>
		<path fill="none" stroke="#F2F2F2" stroke-width="3.75" stroke-linecap="round" stroke-linejoin="round" d="M15.293,47.09
			c0-17.561,14.238-31.799,31.799-31.799"/>
		<path fill="none" stroke="#1E76BB" stroke-width="3.75" stroke-linecap="round" stroke-linejoin="round" d="M75.73,43.928
			c0,17.578-14.221,31.799-31.782,31.799"/>
		<path fill="#F2F2F2" stroke="#010101" stroke-width="5" d="M56.096,45.5c0,5.862-4.753,10.596-10.574,10.596
			c-5.862,0-10.615-4.734-10.615-10.596c0-5.84,4.753-10.593,10.615-10.593C51.343,34.907,56.096,39.661,56.096,45.5z"/>
	</g>
	<g>
		<path fill="#77ABD3" stroke="#010101" stroke-width="6.25" d="M87.878,200.266c0,23.421-18.955,42.376-42.356,42.376
			c-23.423,0-42.397-18.955-42.397-42.376c0-23.402,18.975-42.375,42.397-42.375C68.923,157.891,87.878,176.863,87.878,200.266z"/>
		<path fill="none" stroke="#F2F2F2" stroke-width="3.75" stroke-linecap="round" stroke-linejoin="round" d="M15.293,201.855
			c0-17.561,14.238-31.799,31.799-31.799"/>
		<path fill="none" stroke="#1E76BB" stroke-width="3.75" stroke-linecap="round" stroke-linejoin="round" d="M75.73,198.693
			c0,17.578-14.221,31.8-31.782,31.8"/>
		<path fill="#F2F2F2" stroke="#010101" stroke-width="5" d="M56.096,200.266c0,5.859-4.753,10.594-10.574,10.594
			c-5.862,0-10.615-4.734-10.615-10.594c0-5.842,4.753-10.593,10.615-10.593C51.343,189.673,56.096,194.424,56.096,200.266z"/>
	</g>
	<g>
		<path fill="#77ABD3" stroke="#010101" stroke-width="6.25" d="M226.053,122.263c0,23.422-18.955,42.377-42.359,42.377
			c-23.42,0-42.395-18.955-42.395-42.377c0-23.401,18.975-42.375,42.395-42.375C207.098,79.888,226.053,98.862,226.053,122.263z"/>
		<path fill="none" stroke="#F2F2F2" stroke-width="3.75" stroke-linecap="round" stroke-linejoin="round" d="M153.467,123.853
			c0-17.561,14.238-31.799,31.799-31.799"/>
		<path fill="none" stroke="#1E76BB" stroke-width="3.75" stroke-linecap="round" stroke-linejoin="round" d="M213.904,120.691
			c0,17.579-14.222,31.799-31.783,31.799"/>
		<path fill="#F2F2F2" stroke="#010101" stroke-width="5" d="M194.27,122.263c0,5.862-4.753,10.596-10.576,10.596
			c-5.859,0-10.612-4.734-10.612-10.596c0-5.84,4.753-10.593,10.612-10.593C189.517,111.67,194.27,116.423,194.27,122.263z"/>
	</g>
</g>
</svg>
