<?xml version="1.0" encoding="iso-8859-1"?>
<!-- Generator: Adobe Illustrator 19.2.1, SVG Export Plug-In . SVG Version: 6.00 Build 0)  -->
<svg version="1.1" id="Layer_1" xmlns="http://www.w3.org/2000/svg" xmlns:xlink="http://www.w3.org/1999/xlink" x="0px" y="0px"
	 viewBox="0 0 240 240" style="enable-background:new 0 0 240 240;" xml:space="preserve">
<g>
	<path style="fill-rule:evenodd;clip-rule:evenodd;fill:#48AAB5;" d="M114.901,225.429c-17.5,0-42.79-14.062-64.429-35.827
		c-14.32-14.403-25.417-30.41-31.248-45.072c-6.261-15.743-5.761-28.385,1.409-35.598c3.836-3.858,9.167-5.814,15.845-5.814
		c17.5,0,42.79,14.062,64.429,35.827c14.321,14.402,25.419,30.409,31.25,45.072c6.26,15.743,5.759,28.385-1.411,35.598
		C126.91,223.473,121.579,225.429,114.901,225.429z"/>
	<path style="fill:#1D1D1D;" d="M36.478,107.118c15.961-0.001,40.049,12.979,61.593,34.647
		c28.84,29.005,42.198,62.598,29.838,75.029c-3.127,3.145-7.603,4.635-13.008,4.635c-15.961,0-40.048-12.979-61.592-34.647
		c-28.837-29.007-42.198-62.598-29.838-75.03C26.597,108.607,31.072,107.118,36.478,107.118 M36.48,99.118v8V99.118h-0.002
		c-7.672,0-14.132,2.419-18.68,6.994c-8.363,8.412-9.176,22.581-2.29,39.896c6.026,15.152,17.436,31.636,32.128,46.414
		c22.696,22.827,48.471,37.007,67.266,37.007c7.673,0,14.133-2.419,18.682-6.995c8.363-8.412,9.177-22.581,2.291-39.896
		c-6.026-15.154-17.437-31.637-32.13-46.414C81.048,113.298,55.274,99.118,36.48,99.118L36.48,99.118z"/>
</g>
<path style="opacity:0.5;fill-rule:evenodd;clip-rule:evenodd;fill:#48AAB5;" d="M227.892,18.236c0-3.801-3.559-6.236-7.994-6.236
	c-1.379,0-2.733,0.258-3.867,0.783l0,0l-187.88,94.549c-1.794,0.759-3.329,1.934-4.667,3.279
	c-12.488,12.559,1.011,46.496,30.146,75.8c29.137,29.305,62.879,42.88,75.367,30.321c1.787-1.798,2.994-3.909,4.378-6.351
	L226.59,22.685C227.66,20.158,227.892,19.642,227.892,18.236z"/>
<rect style="fill-rule:evenodd;clip-rule:evenodd;fill:none;" width="240" height="240"/>
</svg>
