<?xml version="1.0" encoding="utf-8"?>
<!-- Generator: Adobe Illustrator 13.0.2, SVG Export Plug-In . SVG Version: 6.00 Build 14948)  -->
<svg version="1.2" baseProfile="tiny" id="Layer_1" xmlns="http://www.w3.org/2000/svg" xmlns:xlink="http://www.w3.org/1999/xlink"
	 x="0px" y="0px" width="245.097px" height="245.21px" viewBox="0 0 245.097 245.21" xml:space="preserve">
<g>
	<path fill="#010101" stroke="#010101" stroke-width="6.25" stroke-linecap="round" stroke-linejoin="round" d="M241.972,188.879
		c0,50.408-2.798,53.206-53.208,53.206H56.333c-50.41,0-53.208-2.798-53.208-53.206V56.333c0-50.41,2.798-53.208,53.208-53.208
		h132.431c50.41,0,53.208,2.798,53.208,53.208V188.879z"/>
	
		<line fill="none" stroke="#E6E6E6" stroke-width="17.5" stroke-linecap="round" stroke-linejoin="round" x1="20.576" y1="19.946" x2="209.325" y2="208.696"/>
	<path fill="none" stroke="#010101" stroke-width="6.25" stroke-linecap="round" stroke-linejoin="round" d="M241.972,188.879
		c0,50.408-2.798,53.206-53.208,53.206H56.333c-50.41,0-53.208-2.798-53.208-53.206V56.333c0-50.41,2.798-53.208,53.208-53.208
		h132.431c50.41,0,53.208,2.798,53.208,53.208V188.879z"/>
</g>
</svg>
