<?xml version="1.0" encoding="utf-8"?>
<!-- Generator: Adobe Illustrator 13.0.2, SVG Export Plug-In . SVG Version: 6.00 Build 14948)  -->
<svg version="1.2" baseProfile="tiny" id="Layer_1" xmlns="http://www.w3.org/2000/svg" xmlns:xlink="http://www.w3.org/1999/xlink"
	 x="0px" y="0px" width="234.333px" height="249.417px" viewBox="0 0 234.333 249.417" xml:space="preserve">
<g>
	<path fill="#F2F2F2" stroke="#000000" stroke-width="6.25" stroke-linecap="round" stroke-linejoin="round" d="M19.557,246.064
		c-4.893-12.021-7.586-25.173-7.586-38.949c0-57.119,46.309-103.431,103.432-103.431c57.129,0,103.435,46.312,103.435,103.431
		c0,13.864-2.727,27.092-7.673,39.177"/>
	<path fill="none" stroke="#000000" stroke-width="27.5" d="M61.794,118.645c15.631-9.495,33.982-14.961,53.608-14.961
		c20.364,0,39.353,5.884,55.358,16.042"/>
	<g>
		<path fill="none" stroke="#000000" stroke-width="8.75" stroke-linecap="round" stroke-linejoin="round" d="M229.958,108.152
			c0,22.905-49.686,41.475-110.965,41.475c-61.293,0-110.979-18.569-110.979-41.475c0-22.898,49.686-41.47,110.979-41.47
			C180.273,66.682,229.958,85.254,229.958,108.152z"/>
		<path fill="none" stroke="#4BB048" stroke-width="8.75" stroke-linecap="round" stroke-linejoin="round" d="M4.375,104.531
			c0-22.9,49.686-41.47,110.982-41.47c61.293,0,110.98,18.569,110.98,41.47"/>
		<path fill="none" stroke="#000000" stroke-width="8.75" stroke-linecap="round" stroke-linejoin="round" d="M163.22,107.876
			c0,55.164-25.547,99.88-57.031,99.88c-31.508,0-57.052-44.717-57.052-99.88s25.544-99.88,57.052-99.88
			C137.673,7.996,163.22,52.712,163.22,107.876z"/>
		<path fill="none" stroke="#000000" stroke-width="8.75" stroke-linecap="round" stroke-linejoin="round" d="M188.316,107.876
			c0,55.164-25.547,99.88-57.049,99.88c-31.488,0-57.034-44.717-57.034-99.88s25.545-99.88,57.034-99.88
			C162.769,7.996,188.316,52.712,188.316,107.876z"/>
		<path fill="none" stroke="#CB2129" stroke-width="8.75" stroke-linecap="round" stroke-linejoin="round" d="M159.597,104.253
			c0,55.164-25.545,99.883-57.047,99.883c-31.508,0-57.052-44.72-57.052-99.883c0-55.161,25.544-99.878,57.052-99.878
			C134.052,4.375,159.597,49.092,159.597,104.253z"/>
		<path fill="none" stroke="#1E76BB" stroke-width="8.75" stroke-linecap="round" stroke-linejoin="round" d="M184.693,104.253
			c0,55.164-25.545,99.883-57.047,99.883c-31.506,0-57.052-44.72-57.052-99.883c0-55.161,25.546-99.878,57.052-99.878
			C159.148,4.375,184.693,49.092,184.693,104.253z"/>
		<path fill="none" stroke="#4BB048" stroke-width="8.75" stroke-linecap="round" stroke-linejoin="round" d="M226.337,104.531
			c0,22.903-49.688,41.474-110.98,41.474c-61.296,0-110.982-18.571-110.982-41.474"/>
	</g>
</g>
</svg>
