<?xml version="1.0" encoding="utf-8"?>
<!-- Generator: Adobe Illustrator 19.2.1, SVG Export Plug-In . SVG Version: 6.00 Build 0)  -->
<svg version="1.1" id="Layer_1" xmlns="http://www.w3.org/2000/svg" xmlns:xlink="http://www.w3.org/1999/xlink" x="0px" y="0px"
	 viewBox="0 0 240 240" enable-background="new 0 0 240 240" xml:space="preserve">
<rect fill-rule="evenodd" clip-rule="evenodd" fill="none" width="240" height="240"/>
<g>
	<path fill-rule="evenodd" clip-rule="evenodd" fill="#DF6E41" d="M120,235.8c-1,0-2-0.4-2.8-1.2l-32.8-32.8
		c-1.1-1.1-1.5-2.9-0.9-4.4c0.6-1.5,2.1-2.5,3.7-2.5h65.5c1.6,0,3.1,1,3.7,2.5c0.6,1.5,0.3,3.2-0.9,4.4l-32.8,32.8
		C122,235.4,121,235.8,120,235.8z"/>
	<path fill="#1D1D1D" d="M152.8,199L120,231.8L87.2,199H152.8 M152.8,191H87.2c-3.2,0-6.2,1.9-7.4,4.9s-0.6,6.4,1.7,8.7l32.8,32.8
		c1.6,1.6,3.6,2.3,5.7,2.3c2,0,4.1-0.8,5.7-2.3l32.8-32.8c2.3-2.3,3-5.7,1.7-8.7C158.9,192.9,156,191,152.8,191L152.8,191z
		 M152.8,207L152.8,207L152.8,207L152.8,207z"/>
</g>
<g>
	<polygon fill="#DF6E41" points="169.5,224 169.5,206.4 206.4,206.4 206.4,33.6 33.6,33.6 33.6,206.4 70.5,206.4 70.5,224 16,224 
		16,16 224,16 224,224 	"/>
	<path fill="#1D1D1D" d="M220,20v200h-46.5v-9.6h28.9h8v-8V37.6v-8h-8H37.6h-8v8v164.8v8h8h28.9v9.6H20V20H220 M228,12H12v216h62.5
		v-25.6H37.6V37.6h164.8v164.8h-36.9V228H228V12L228,12z"/>
</g>
<path fill="#BDBDBD" stroke="#1D1D1D" stroke-width="8" stroke-linecap="round" stroke-linejoin="round" stroke-miterlimit="10" d="
	M120,56c-35.3,0-64,28.7-64,64c0,35.3,28.7,64,64,64s64-28.7,64-64C184,84.7,155.3,56,120,56z"/>
<path fill="#1D1D1D" d="M150.2,114.1h-24.3V77c0-3.2-2.6-5.8-5.8-5.8h0c-3.2,0-5.8,2.6-5.8,5.8v42.7c0,0,0,0,0,0c0,0,0,0,0,0
	c0,3.1,2.6,5.7,5.7,5.7h30.2c3.1,0,5.7-2.6,5.7-5.7C155.9,116.6,153.3,114.1,150.2,114.1z"/>
</svg>
