<?xml version="1.0" encoding="iso-8859-1"?>
<!-- Generator: Adobe Illustrator 19.2.1, SVG Export Plug-In . SVG Version: 6.00 Build 0)  -->
<svg version="1.1" id="Layer_1" xmlns="http://www.w3.org/2000/svg" xmlns:xlink="http://www.w3.org/1999/xlink" x="0px" y="0px"
	 viewBox="0 0 240 240" style="enable-background:new 0 0 240 240;" xml:space="preserve">
<rect style="fill-rule:evenodd;clip-rule:evenodd;fill:none;" width="240" height="240"/>
<g>
	<path style="fill:#1D1D1D;" d="M144.742,95.257v49.486H95.258V95.257H144.742 M152.742,87.257h-8H95.258h-8v8v49.486v8h8h49.484h8
		v-8V95.257V87.257L152.742,87.257z"/>
</g>
<g>
	<path style="fill:#1D1D1D;" d="M81.887,33.087v48.799H33.086V33.087H81.887 M89.887,25.087h-8H33.086h-8v8v48.799v8h8h48.801h8v-8
		V33.087V25.087L89.887,25.087z"/>
</g>
<g>
	<path style="fill:#1D1D1D;" d="M81.887,95.257v49.486H33.086V95.257H81.887 M89.887,87.257h-8H33.086h-8v8v49.486v8h8h48.801h8v-8
		V95.257V87.257L89.887,87.257z"/>
</g>
<g>
	<path style="fill:#1D1D1D;" d="M81.887,158.114v48.799H33.086v-48.799H81.887 M89.887,150.114h-8H33.086h-8v8v48.799v8h8h48.801h8
		v-8v-48.799V150.114L89.887,150.114z"/>
</g>
<g>
	<path style="fill:#1D1D1D;" d="M144.742,33.087v48.799H95.258V33.087H144.742 M152.742,25.087h-8H95.258h-8v8v48.799v8h8h49.484h8
		v-8V33.087V25.087L152.742,25.087z"/>
</g>
<g>
	<path style="fill:#1D1D1D;" d="M206.914,19.716h-48.801h-13.371H95.258H81.887H33.086H19.715v13.371v48.799v13.371v49.486v13.371
		v48.799v13.371h13.371h48.801h13.371h49.484h13.371h48.801h13.371v-13.371v-48.799v-13.371V95.257V81.886V33.087V19.716H206.914z
		 M144.742,33.087v48.799H95.258V33.087H144.742z M144.742,95.257v49.486H95.258V95.257H144.742z M33.086,33.087h48.801v48.799
		H33.086V33.087z M33.086,95.257h48.801v49.486H33.086V95.257z M33.086,206.913v-48.799h48.801v48.799H33.086z M95.258,206.913
		v-48.799h49.484v48.799H95.258z M206.914,206.913h-48.801v-48.799h48.801V206.913z M206.914,144.743h-48.801V95.257h48.801V144.743
		z M206.914,81.886h-48.801V33.087h48.801V81.886z"/>
</g>
<g>
	<path style="fill:#1D1D1D;" d="M206.914,95.257v49.486h-48.801V95.257H206.914 M214.914,87.257h-8h-48.801h-8v8v49.486v8h8h48.801
		h8v-8V95.257V87.257L214.914,87.257z"/>
</g>
<g>
	<path style="fill:#1D1D1D;" d="M206.914,33.087v48.799h-48.801V33.087H206.914 M214.914,25.087h-8h-48.801h-8v8v48.799v8h8h48.801
		h8v-8V33.087V25.087L214.914,25.087z"/>
</g>
<g>
	<path style="fill:#1D1D1D;" d="M144.742,158.114v48.799H95.258v-48.799H144.742 M152.742,150.114h-8H95.258h-8v8v48.799v8h8h49.484
		h8v-8v-48.799V150.114L152.742,150.114z"/>
</g>
<g>
	<path style="fill:#1D1D1D;" d="M206.914,158.114v48.799h-48.801v-48.799H206.914 M214.914,150.114h-8h-48.801h-8v8v48.799v8h8
		h48.801h8v-8v-48.799V150.114L214.914,150.114z"/>
</g>
<g>
	<path style="fill:#D6806D;" d="M16,224.284V77.886h146.398v146.398H16z M141.027,202.913v-40.799H99.543v40.799H141.027z
		 M78.172,202.913v-40.799H37.371v40.799H78.172z M141.027,140.743V99.257H99.543v41.486H141.027z M78.172,140.743V99.257H37.371
		v41.486H78.172z"/>
	<path style="fill:#1D1D1D;" d="M158.398,81.886v13.371v49.486v13.371v48.799v13.371h-13.371H95.543H82.172H33.371H20v-13.371
		v-48.799v-13.371V95.257V81.886h13.371h48.801h13.371h49.484H158.398 M95.543,144.743h49.484V95.257H95.543V144.743
		 M33.371,144.743h48.801V95.257H33.371V144.743 M95.543,206.913h49.484v-48.799H95.543V206.913 M33.371,206.913h48.801v-48.799
		H33.371V206.913 M166.398,73.886h-8h-13.371H95.543H82.172H33.371H20h-8v8v13.371v49.486v13.371v48.799v13.371v8h8h13.371h48.801
		h13.371h49.484h13.371h8v-8v-13.371v-48.799v-13.371V95.257V81.886V73.886L166.398,73.886z M103.543,103.257h33.484v33.486h-33.484
		V103.257L103.543,103.257z M41.371,103.257h32.801v33.486H41.371V103.257L41.371,103.257z M103.543,166.114h33.484v32.799h-33.484
		V166.114L103.543,166.114z M41.371,166.114h32.801v32.799H41.371V166.114L41.371,166.114z"/>
</g>
<g>
	<rect x="131.659" y="193.554" style="fill-rule:evenodd;clip-rule:evenodd;fill:#BDBDBD;" width="39.445" height="39.446"/>
	<g>
		<path style="fill:#1D1D1D;" d="M167.105,197.554V229h-31.446v-31.446H167.105 M175.105,189.554h-8h-31.446h-8v8V229v8h8h31.446h8
			v-8v-31.446V189.554L175.105,189.554z"/>
	</g>
</g>
<g>
	<rect x="145.416" y="207.311" style="fill-rule:evenodd;clip-rule:evenodd;fill:#1D1D1D;" width="11.932" height="11.932"/>
</g>
<g>
	<rect x="7" y="193.554" style="fill-rule:evenodd;clip-rule:evenodd;fill:#BDBDBD;" width="39.446" height="39.446"/>
	<path style="fill:#1D1D1D;" d="M42.446,197.554V229H11v-31.446H42.446 M50.446,189.554h-8H11H3v8V229v8h8h31.446h8v-8v-31.446
		V189.554L50.446,189.554z"/>
</g>
<g>
	<rect x="20.757" y="207.311" style="fill-rule:evenodd;clip-rule:evenodd;fill:#1D1D1D;" width="11.932" height="11.932"/>
</g>
<g>
	<rect x="7" y="68.888" style="fill-rule:evenodd;clip-rule:evenodd;fill:#BDBDBD;" width="39.446" height="39.446"/>
	<g>
		<path style="fill:#1D1D1D;" d="M42.446,72.888v31.446H11V72.888H42.446 M50.446,64.888h-8H11H3v8v31.446v8h8h31.446h8v-8V72.888
			V64.888L50.446,64.888z"/>
	</g>
</g>
<g>
	<rect x="20.757" y="82.644" style="fill-rule:evenodd;clip-rule:evenodd;fill:#1D1D1D;" width="11.932" height="11.932"/>
</g>
<g>
	<rect x="145.416" y="82.644" style="fill-rule:evenodd;clip-rule:evenodd;fill:#1D1D1D;" width="11.932" height="11.932"/>
</g>
<g>
	<path style="fill:#BDBDBD;" d="M168.814,133.667c-34.289,0-62.186-27.896-62.186-62.186s27.896-62.186,62.186-62.186
		S231,37.192,231,71.481S203.104,133.667,168.814,133.667z M168.814,25.296c-25.467,0-46.186,20.719-46.186,46.186
		s20.719,46.186,46.186,46.186S215,96.948,215,71.481S194.281,25.296,168.814,25.296z"/>
	<path style="fill:#1D1D1D;" d="M168.814,13.296c32.084,0,58.186,26.102,58.186,58.186s-26.102,58.186-58.186,58.186
		s-58.186-26.102-58.186-58.186S136.73,13.296,168.814,13.296 M168.814,121.667c27.673,0,50.186-22.513,50.186-50.186
		s-22.513-50.186-50.186-50.186s-50.186,22.513-50.186,50.186S141.142,121.667,168.814,121.667 M168.814,5.296
		c-36.495,0-66.186,29.691-66.186,66.186s29.691,66.186,66.186,66.186S235,107.976,235,71.481S205.309,5.296,168.814,5.296
		L168.814,5.296z M168.814,113.667c-23.261,0-42.186-18.924-42.186-42.186s18.924-42.186,42.186-42.186S211,48.22,211,71.481
		S192.076,113.667,168.814,113.667L168.814,113.667z"/>
</g>
<g>
	<circle style="fill-rule:evenodd;clip-rule:evenodd;fill:#1D1D1D;" cx="168.815" cy="71.481" r="47.102"/>
</g>
<g>
	<path style="fill-rule:evenodd;clip-rule:evenodd;fill:#BDBDBD;" d="M168.814,102.424c-17.062,0-30.942-13.881-30.942-30.943
		s13.881-30.943,30.942-30.943c17.062,0,30.943,13.881,30.943,30.943S185.877,102.424,168.814,102.424z"/>
	<path style="fill:#1D1D1D;" d="M168.815,44.538c14.88,0,26.943,12.063,26.943,26.943c0,14.88-12.063,26.943-26.943,26.943
		s-26.943-12.063-26.943-26.943C141.872,56.601,153.934,44.538,168.815,44.538 M168.815,36.538
		c-19.268,0-34.943,15.675-34.943,34.943s15.675,34.943,34.943,34.943s34.943-15.675,34.943-34.943S188.082,36.538,168.815,36.538
		L168.815,36.538z"/>
</g>
<g>
	<path style="fill-rule:evenodd;clip-rule:evenodd;fill:#BDBDBD;" d="M206.939,51.14c-9.806,0-17.783-7.978-17.783-17.783
		s7.978-17.783,17.783-17.783s17.783,7.978,17.783,17.783S216.745,51.14,206.939,51.14z"/>
	<path style="fill:#1D1D1D;" d="M206.94,19.573c7.612,0,13.783,6.171,13.783,13.783s-6.171,13.783-13.783,13.783
		c-7.612,0-13.783-6.171-13.783-13.783S199.328,19.573,206.94,19.573 M206.94,11.573c-12.011,0-21.783,9.772-21.783,21.783
		s9.772,21.783,21.783,21.783s21.783-9.772,21.783-21.783S218.951,11.573,206.94,11.573L206.94,11.573z"/>
</g>
</svg>
