<?xml version="1.0" encoding="iso-8859-1"?>
<!-- Generator: Adobe Illustrator 19.2.1, SVG Export Plug-In . SVG Version: 6.00 Build 0)  -->
<svg version="1.1" id="Layer_1" xmlns="http://www.w3.org/2000/svg" xmlns:xlink="http://www.w3.org/1999/xlink" x="0px" y="0px"
	 viewBox="0 0 240 240" style="enable-background:new 0 0 240 240;" xml:space="preserve">
<polygon style="fill-rule:evenodd;clip-rule:evenodd;fill:#BDBDBD;stroke:#1D1D1D;stroke-width:8;stroke-miterlimit:10;" points="
	40.923,210.717 54.013,223.807 60.875,198.199 67.737,172.59 42.128,179.452 16.519,186.314 29.609,199.404 12.157,216.856 
	23.471,228.17 "/>
<rect style="fill-rule:evenodd;clip-rule:evenodd;fill:none;" width="240" height="240"/>
<polygon style="fill-rule:evenodd;clip-rule:evenodd;fill:#BDBDBD;stroke:#1D1D1D;stroke-width:8;stroke-miterlimit:10;" points="
	94.912,134.101 81.821,121.011 74.96,146.62 68.098,172.229 93.707,165.367 119.315,158.505 106.225,145.415 171.257,80.383 
	159.943,69.07 "/>
<g>
	<path style="fill-rule:evenodd;clip-rule:evenodd;fill:#D6806D;" d="M159.598,143.817c-35.143,0-63.733-28.59-63.733-63.733
		s28.591-63.733,63.733-63.733s63.732,28.59,63.732,63.733S194.74,143.817,159.598,143.817z"/>
	<path style="fill:#1D1D1D;" d="M159.597,20.352c32.99,0,59.733,26.743,59.733,59.733s-26.743,59.733-59.733,59.733
		c-32.99,0-59.733-26.743-59.733-59.733S126.608,20.352,159.597,20.352 M159.597,12.352c-37.348,0-67.733,30.385-67.733,67.733
		s30.385,67.733,67.733,67.733s67.733-30.385,67.733-67.733S196.945,12.352,159.597,12.352L159.597,12.352z"/>
</g>
<path style="fill-rule:evenodd;clip-rule:evenodd;fill:#BDBDBD;stroke:#1D1D1D;stroke-width:8;stroke-miterlimit:10;" d="
	M119.557,68.055"/>
<path style="fill-rule:evenodd;clip-rule:evenodd;fill:#BDBDBD;stroke:#1D1D1D;stroke-width:8;stroke-miterlimit:10;" d="
	M146.069,68.055"/>
</svg>
