<?xml version="1.0" encoding="utf-8"?>
<!-- Generator: Adobe Illustrator 19.2.1, SVG Export Plug-In . SVG Version: 6.00 Build 0)  -->
<svg version="1.1" id="Layer_1" xmlns="http://www.w3.org/2000/svg" xmlns:xlink="http://www.w3.org/1999/xlink" x="0px" y="0px"
	 viewBox="0 0 240 240" enable-background="new 0 0 240 240" xml:space="preserve">
<g>
	<path fill-rule="evenodd" clip-rule="evenodd" fill="#58A5CC" d="M24.2,177.1c14.7-8.9,46.2-32.5,54.2-75.5
		C88.1,49.4,105,25.7,114.5,16h102.4c-38.7,51.6-45.3,92.5-46.3,104.1c-5.2,56.1-12.5,73.3-36.2,103L24.2,177.1z"/>
	<path fill="#1D1D1D" d="M209,20c-35.2,49.4-41.4,88.3-42.4,99.7c-5,53.5-11.9,71-33.5,98.5l-100.4-42c4.1-2.9,8.8-6.5,13.7-10.9
		c19.1-17.5,31.5-39.3,36-63.1c6.8-36.6,19.1-66.4,33.8-82.3H209 M225,12H112.7c0.9,0-25.2,18.8-38.2,88.9
		c-10.1,54-59.4,76.8-59.4,76.8L135.6,228c26.3-32.6,33.7-51,38.9-107.5C179.4,67.7,224.6,12.7,225,12L225,12z"/>
</g>
<rect fill-rule="evenodd" clip-rule="evenodd" fill="none" width="240" height="240"/>
</svg>
