<?xml version="1.0" encoding="iso-8859-1"?>
<!-- Generator: Adobe Illustrator 19.2.1, SVG Export Plug-In . SVG Version: 6.00 Build 0)  -->
<svg version="1.1" id="Layer_1" xmlns="http://www.w3.org/2000/svg" xmlns:xlink="http://www.w3.org/1999/xlink" x="0px" y="0px"
	 viewBox="0 0 240 240" style="enable-background:new 0 0 240 240;" xml:space="preserve">
<g>
	<g>
		<path style="fill-rule:evenodd;clip-rule:evenodd;fill:#48AAB5;" d="M120.496,55.144c-9.725,0-17.637-7.912-17.637-17.637
			c0-9.726,7.912-17.639,17.637-17.639c9.725,0,17.637,7.913,17.637,17.639C138.133,47.232,130.221,55.144,120.496,55.144z"/>
		<path style="fill:#1D1D1D;" d="M120.496,23.869c7.531,0,13.637,6.107,13.637,13.639c0,7.532-6.107,13.637-13.637,13.637
			c-7.528,0-13.637-6.105-13.637-13.637C106.859,29.975,112.968,23.869,120.496,23.869 M120.496,15.869
			c-11.93,0-21.637,9.707-21.637,21.639c0,11.931,9.706,21.637,21.637,21.637c11.931,0,21.637-9.706,21.637-21.637
			C142.133,25.576,132.427,15.869,120.496,15.869L120.496,15.869z"/>
	</g>
	<g>
		<path style="fill-rule:evenodd;clip-rule:evenodd;fill:#48AAB5;" d="M52.316,205.154c-13.486,0-24.458-10.971-24.458-24.456
			c0-13.484,10.972-24.454,24.458-24.454c13.483,0,24.453,10.97,24.453,24.454C76.769,194.184,65.799,205.154,52.316,205.154z"/>
		<path style="fill:#1D1D1D;" d="M52.316,160.244c11.294,0,20.453,9.156,20.453,20.455c0,11.298-9.159,20.456-20.453,20.456
			c-11.3,0-20.459-9.158-20.459-20.456C31.857,169.4,41.016,160.244,52.316,160.244 M52.316,152.244
			c-15.692,0-28.459,12.765-28.459,28.455c0,15.691,12.767,28.456,28.459,28.456c15.689,0,28.453-12.765,28.453-28.456
			C80.769,165.009,68.005,152.244,52.316,152.244L52.316,152.244z"/>
	</g>
	<g>
		<path style="fill-rule:evenodd;clip-rule:evenodd;fill:#48AAB5;" d="M31.857,96.056c-9.725,0-17.637-7.911-17.637-17.636
			c0-9.726,7.912-17.639,17.637-17.639c9.724,0,17.635,7.913,17.635,17.639C49.492,88.145,41.581,96.056,31.857,96.056z"/>
		<path style="fill:#1D1D1D;" d="M31.857,64.782c7.531,0,13.635,6.105,13.635,13.639c0,7.532-6.104,13.635-13.635,13.635
			c-7.533,0-13.637-6.103-13.637-13.635C18.221,70.887,24.325,64.782,31.857,64.782 M31.857,56.782
			c-11.93,0-21.637,9.707-21.637,21.639c0,11.93,9.706,21.635,21.637,21.635c11.929,0,21.635-9.706,21.635-21.635
			C53.492,66.489,43.787,56.782,31.857,56.782L31.857,56.782z"/>
	</g>
	<g>
		<path style="fill-rule:evenodd;clip-rule:evenodd;fill:#48AAB5;" d="M161.407,89.238c-9.724,0-17.635-7.912-17.635-17.637
			c0-9.726,7.911-17.639,17.635-17.639c9.728,0,17.642,7.913,17.642,17.639C179.049,81.326,171.135,89.238,161.407,89.238z"/>
		<path style="fill:#1D1D1D;" d="M161.407,57.962c7.538,0,13.642,6.107,13.642,13.639c0,7.529-6.104,13.637-13.642,13.637
			c-7.528,0-13.635-6.107-13.635-13.637C147.773,64.069,153.879,57.962,161.407,57.962 M161.407,49.962
			c-11.929,0-21.635,9.707-21.635,21.639c0,11.93,9.705,21.637,21.635,21.637c11.934,0,21.642-9.706,21.642-21.637
			C183.049,59.669,173.341,49.962,161.407,49.962L161.407,49.962z"/>
	</g>
	<g>
		<path style="fill-rule:evenodd;clip-rule:evenodd;fill:#48AAB5;" d="M151.184,198.336c-7.846,0-14.229-6.383-14.229-14.228
			c0-7.846,6.384-14.229,14.229-14.229s14.229,6.384,14.229,14.229C165.413,191.953,159.029,198.336,151.184,198.336z"/>
		<path style="fill:#1D1D1D;" d="M151.183,173.879c5.651,0,10.229,4.581,10.229,10.229c0,5.647-4.579,10.227-10.229,10.227
			c-5.646,0-10.229-4.58-10.229-10.227C140.954,178.46,145.537,173.879,151.183,173.879 M151.183,165.879
			c-10.052,0-18.229,8.178-18.229,18.229c0,10.051,8.178,18.227,18.229,18.227c10.052,0,18.229-8.177,18.229-18.227
			C169.413,174.057,161.235,165.879,151.183,165.879L151.183,165.879z"/>
	</g>
	<g>
		<path style="fill-rule:evenodd;clip-rule:evenodd;fill:#48AAB5;" d="M72.766,48.327c-5.965,0-10.818-4.853-10.818-10.818
			S66.801,26.69,72.766,26.69c5.967,0,10.821,4.853,10.821,10.818S78.733,48.327,72.766,48.327z"/>
		<path style="fill:#1D1D1D;" d="M72.766,30.691c3.767,0,6.821,3.052,6.821,6.818c0,3.766-3.055,6.819-6.821,6.819
			c-3.766,0-6.818-3.053-6.818-6.819C65.948,33.743,69,30.691,72.766,30.691 M72.766,22.691c-8.171,0-14.818,6.647-14.818,14.818
			c0,8.171,6.647,14.819,14.818,14.819c8.173,0,14.821-6.648,14.821-14.819C87.587,29.338,80.938,22.691,72.766,22.691
			L72.766,22.691z"/>
	</g>
	<g>
		<path style="fill-rule:evenodd;clip-rule:evenodd;fill:#48AAB5;" d="M175.047,150.605c-5.964,0-10.816-4.854-10.816-10.818
			s4.853-10.818,10.816-10.818c5.965,0,10.818,4.854,10.818,10.818S181.012,150.605,175.047,150.605z"/>
		<path style="fill:#1D1D1D;" d="M175.047,132.969c3.769,0,6.819,3.053,6.819,6.819c0,3.767-3.049,6.818-6.819,6.818
			c-3.764,0-6.816-3.051-6.816-6.818C168.231,136.021,171.283,132.969,175.047,132.969 M175.047,124.969
			c-8.17,0-14.816,6.648-14.816,14.819c0,8.171,6.646,14.818,14.816,14.818c8.171,0,14.819-6.647,14.819-14.818
			C189.865,131.616,183.218,124.969,175.047,124.969L175.047,124.969z"/>
	</g>
	<g>
		<path style="fill-rule:evenodd;clip-rule:evenodd;fill:#48AAB5;" d="M120.503,164.244c-17.249,0-31.281-14.031-31.281-31.277
			c0-17.244,14.033-31.273,31.281-31.273c17.244,0,31.272,14.029,31.272,31.273C151.775,150.213,137.747,164.244,120.503,164.244z"
			/>
		<path style="fill:#1D1D1D;" d="M120.503,105.693c15.058,0,27.272,12.214,27.272,27.273c0,15.064-12.214,27.277-27.272,27.277
			c-15.068,0-27.281-12.214-27.281-27.277C93.222,117.907,105.436,105.693,120.503,105.693 M120.503,97.693
			c-19.454,0-35.281,15.824-35.281,35.273c0,19.452,15.827,35.277,35.281,35.277c19.449,0,35.272-15.825,35.272-35.277
			C155.775,113.517,139.952,97.693,120.503,97.693L120.503,97.693z"/>
	</g>
	<g>
		<path style="fill-rule:evenodd;clip-rule:evenodd;fill:#48AAB5;" d="M106.864,225.612c-9.726,0-17.638-7.913-17.638-17.639
			c0-9.725,7.912-17.637,17.638-17.637c9.726,0,17.64,7.912,17.64,17.637C124.504,217.699,116.59,225.612,106.864,225.612z"/>
		<path style="fill:#1D1D1D;" d="M106.864,194.337c7.531,0,13.639,6.104,13.639,13.637c0,7.532-6.109,13.639-13.639,13.639
			c-7.533,0-13.637-6.107-13.637-13.639C93.227,200.441,99.331,194.337,106.864,194.337 M106.864,186.337
			c-11.931,0-21.637,9.706-21.637,21.637c0,11.932,9.706,21.639,21.637,21.639c11.932,0,21.639-9.707,21.639-21.639
			C128.503,196.043,118.796,186.337,106.864,186.337L106.864,186.337z"/>
	</g>
	<g>
		<path style="fill-rule:evenodd;clip-rule:evenodd;fill:#48AAB5;" d="M93.225,89.238c-5.965,0-10.819-4.854-10.819-10.821
			c0-5.965,4.854-10.818,10.819-10.818c5.965,0,10.818,4.853,10.818,10.818C104.042,84.384,99.189,89.238,93.225,89.238z"/>
		<path style="fill:#1D1D1D;" d="M93.225,71.599c3.764,0,6.818,3.054,6.818,6.818c0,3.766-3.054,6.821-6.818,6.821
			c-3.767,0-6.819-3.055-6.819-6.821C86.406,74.653,89.458,71.599,93.225,71.599 M93.225,63.599
			c-8.171,0-14.819,6.647-14.819,14.818c0,8.172,6.648,14.821,14.819,14.821c8.171,0,14.818-6.649,14.818-14.821
			C108.043,70.247,101.395,63.599,93.225,63.599L93.225,63.599z"/>
	</g>
	<g>
		<path style="fill-rule:evenodd;clip-rule:evenodd;fill:#48AAB5;" d="M195.503,198.336c-5.966,0-10.819-4.854-10.819-10.818
			s4.854-10.818,10.819-10.818c5.965,0,10.818,4.854,10.818,10.818S201.468,198.336,195.503,198.336z"/>
		<path style="fill:#1D1D1D;" d="M195.503,180.699c3.767,0,6.819,3.052,6.819,6.819s-3.052,6.818-6.819,6.818
			c-3.764,0-6.819-3.051-6.819-6.818S191.739,180.699,195.503,180.699 M195.503,172.699c-8.171,0-14.819,6.648-14.819,14.819
			c0,8.171,6.648,14.818,14.819,14.818s14.819-6.647,14.819-14.818C210.321,179.347,203.674,172.699,195.503,172.699
			L195.503,172.699z"/>
	</g>
	<g>
		<path style="fill-rule:evenodd;clip-rule:evenodd;fill:#48AAB5;" d="M59.129,136.969c-5.965,0-10.819-4.854-10.819-10.818
			c0-5.965,4.854-10.818,10.819-10.818s10.818,4.853,10.818,10.818C69.948,132.115,65.095,136.969,59.129,136.969z"/>
		<path style="fill:#1D1D1D;" d="M59.129,119.332c3.769,0,6.819,3.052,6.819,6.818c0,3.766-3.05,6.819-6.819,6.819
			c-3.764,0-6.819-3.053-6.819-6.819C52.311,122.384,55.365,119.332,59.129,119.332 M59.129,111.332
			c-8.171,0-14.819,6.647-14.819,14.818c0,8.171,6.648,14.819,14.819,14.819s14.819-6.648,14.819-14.819
			C73.948,117.979,67.3,111.332,59.129,111.332L59.129,111.332z"/>
	</g>
</g>
<g>
	<path style="fill-rule:evenodd;clip-rule:evenodd;fill:#BDBDBD;stroke:#1D1D1D;stroke-width:8;stroke-miterlimit:10;" d="
		M175.497,15.292c26.931,0,48.761,21.832,48.761,48.762s-21.83,48.761-48.761,48.761s-48.763-21.831-48.763-48.761
		S148.566,15.292,175.497,15.292z"/>
	<g>
		<rect x="170.661" y="30.659" style="fill-rule:evenodd;clip-rule:evenodd;fill:#1D1D1D;" width="11.707" height="11.781"/>
		<rect x="158.876" y="48.326" style="fill-rule:evenodd;clip-rule:evenodd;fill:#1D1D1D;" width="23.492" height="11.781"/>
		<rect x="158.876" y="83.667" style="fill-rule:evenodd;clip-rule:evenodd;fill:#1D1D1D;" width="35.24" height="11.781"/>
		<rect x="170.661" y="48.326" style="fill-rule:evenodd;clip-rule:evenodd;fill:#1D1D1D;" width="11.707" height="47.122"/>
	</g>
</g>
<rect style="fill-rule:evenodd;clip-rule:evenodd;fill:none;" width="240" height="240"/>
</svg>
