<?xml version="1.0" encoding="utf-8"?>
<!-- Generator: Adobe Illustrator 19.2.1, SVG Export Plug-In . SVG Version: 6.00 Build 0)  -->
<svg version="1.1" id="Layer_1" xmlns="http://www.w3.org/2000/svg" xmlns:xlink="http://www.w3.org/1999/xlink" x="0px" y="0px"
	 viewBox="0 0 240 240" enable-background="new 0 0 240 240" xml:space="preserve">
<g id="XMLID_37_">
	<rect x="12" y="12" fill="#48AAB5" width="216" height="216"/>
</g>
<polygon fill="#BDBDBD" points="228,228 12,228 228,12 "/>
<g id="XMLID_1_">
	<path fill="#1D1D1D" d="M220,20v200H20V20H220 M228,12H12v216h216V12L228,12z"/>
</g>
<rect fill-rule="evenodd" clip-rule="evenodd" fill="none" width="240" height="240"/>
<line fill="none" stroke="#1D1D1D" stroke-width="8" stroke-miterlimit="10" x1="17.8" y1="222.2" x2="221.2" y2="18.8"/>
<g>
	<g>
		<path fill-rule="evenodd" clip-rule="evenodd" fill="#1D1D1D" d="M127.7,150.6v12.2h61.1v-12.2H127.7z M86,40.8l-14.4,0l0,28.7
			l-28.7,0l0,14.4h28.7l0,28.7l14.4,0V83.9h28.7l0-14.4l-28.7,0V40.8z"/>
	</g>
</g>
<g>
</g>
<g>
</g>
<g>
</g>
<g>
</g>
<g>
</g>
<g>
</g>
</svg>
