<?xml version="1.0" encoding="utf-8"?>
<!-- Generator: Adobe Illustrator 13.0.2, SVG Export Plug-In . SVG Version: 6.00 Build 14948)  -->
<svg version="1.2" baseProfile="tiny" id="Layer_1" xmlns="http://www.w3.org/2000/svg" xmlns:xlink="http://www.w3.org/1999/xlink"
	 x="0px" y="0px" width="235.114px" height="240.549px" viewBox="0 0 235.114 240.549" xml:space="preserve">
<g>
	<polyline fill="#544C3B" stroke="#000000" stroke-width="6.25" stroke-linecap="round" stroke-linejoin="round" points="
		70.791,179.009 47.938,212.4 117.409,237.424 187.175,212.4 164.32,179.009 	"/>
	<polyline fill="#5B553E" stroke="#000000" stroke-width="6.25" stroke-linecap="round" stroke-linejoin="round" points="
		47.995,96.614 3.125,81.488 3.125,158.235 47.938,212.4 70.791,179.009 	"/>
	<polyline fill="#A89F7D" stroke="#000000" stroke-width="6.25" stroke-linecap="round" stroke-linejoin="round" points="
		187.05,96.614 231.915,81.488 187.187,27.861 117.638,3.125 117.638,46.61 	"/>
	<polyline fill="#827955" stroke="#000000" stroke-width="6.25" stroke-linecap="round" stroke-linejoin="round" points="
		47.995,96.614 3.125,81.488 47.856,27.861 117.409,3.125 117.409,46.61 	"/>
	<polyline fill="#888061" stroke="#000000" stroke-width="6.25" stroke-linecap="round" stroke-linejoin="round" points="
		187.12,96.614 231.989,81.488 231.989,158.235 187.175,212.4 164.32,179.009 	"/>
	<linearGradient id="SVGID_1_" gradientUnits="userSpaceOnUse" x1="118.0942" y1="46.6099" x2="118.0942" y2="179.2754">
		<stop  offset="0" style="stop-color:#B7AE8A"/>
		<stop  offset="0.2539" style="stop-color:#B2A985"/>
		<stop  offset="0.5692" style="stop-color:#A29975"/>
		<stop  offset="0.9157" style="stop-color:#89805C"/>
		<stop  offset="1" style="stop-color:#827955"/>
	</linearGradient>
	<polygon fill="url(#SVGID_1_)" stroke="#000000" stroke-width="6.25" stroke-linecap="round" stroke-linejoin="round" points="
		165.177,179.275 187.12,96.614 118.095,46.61 49.069,96.614 71.009,179.275 	"/>
</g>
</svg>
