<?xml version="1.0" encoding="utf-8"?>
<!-- Generator: Adobe Illustrator 19.2.1, SVG Export Plug-In . SVG Version: 6.00 Build 0)  -->
<svg version="1.1" id="Layer_1" xmlns="http://www.w3.org/2000/svg" xmlns:xlink="http://www.w3.org/1999/xlink" x="0px" y="0px"
	 viewBox="0 0 240 240" enable-background="new 0 0 240 240" xml:space="preserve">
<g>
	<path fill-rule="evenodd" clip-rule="evenodd" fill="#DB9456" d="M120,214c-22.6,0-43.8-4.8-59.7-13.4c-15.1-8.2-23.4-18.9-23.4-30
		c0-0.3,0-0.5-0.1-0.8V70.6l0-0.1c0-0.2,0-0.5,0-0.7l0-0.5c0-11.1,8.3-21.8,23.4-30C76.2,30.8,97.4,26,120,26
		c22.5,0,43.7,4.7,59.5,13.3c15.1,8.2,23.4,18.8,23.5,29.9l0,2.3V170c0,0.3,0,0.6,0.1,0.8c-0.1,11.1-8.4,21.7-23.4,29.8
		C163.8,209.2,142.6,214,120,214z"/>
	<path fill="#1D1D1D" d="M120,30c21.9,0,42.4,4.6,57.6,12.8c13.5,7.3,21.4,17,21.4,26.4l0,1.8v99v0l0,0c0,0.4,0,0.7,0.1,0.9
		c-0.2,9.3-7.9,18.8-21.3,26.1C162.5,205.4,142,210,120,210s-42.5-4.6-57.8-12.9c-13.6-7.4-21.3-17-21.3-26.5c0-0.4,0-0.8-0.1-1
		V70.7l0-0.2l0-0.2c0-0.2,0-0.3,0-0.5c0-0.2,0-0.3,0-0.5c0-9.4,7.8-19.1,21.3-26.5C77.5,34.6,98,30,120,30 M120,22
		c-48.1,0-87.1,21.2-87.1,47.4c0,0.5,0,0.9,0,1.4V170c0,0.2,0.1,0.5,0.1,0.7c0,26.2,39,47.4,87.1,47.4c48.1,0,87.1-21.2,87.1-47.4
		c0-0.2-0.1-0.5-0.1-0.7V69.2v-0.1h0C206.8,43.1,167.9,22,120,22L120,22z"/>
</g>
<g>
	<path fill="none" d="M37,117.7h3.9c0,20.5,36.2,37.8,79.1,37.8s79.1-17.3,79.1-37.8h3.8"/>
	<path fill="#1D1D1D" d="M120,163.5c39.3,0,71.8-13,82.9-31.5v-14.3h-3.8c0,20.5-36.2,37.8-79.1,37.8s-79.1-17.3-79.1-37.8H37v14.2
		C48.1,150.4,80.6,163.5,120,163.5z"/>
</g>
<g>
	<path fill="none" d="M202.9,78.5C191.8,97,159.3,110,120,110c-39.4,0-71.9-13.1-83-31.6"/>
	<path fill="#1D1D1D" d="M120,110c39.3,0,71.8-13,82.9-31.5V64.2h-3.8c0,20.5-36.2,37.8-79.1,37.8S40.9,84.7,40.9,64.2H37v14.2
		C48.1,96.9,80.6,110,120,110z"/>
</g>
<rect x="155" y="100.8" fill-rule="evenodd" clip-rule="evenodd" fill="#1D1D1D" width="8" height="108.4"/>
<rect x="116" y="-16" transform="matrix(6.866691e-11 -1 1 6.866691e-11 53.0565 186.8976)" fill-rule="evenodd" clip-rule="evenodd" fill="#1D1D1D" width="8" height="165.9"/>
<rect x="77.5" y="100.8" fill-rule="evenodd" clip-rule="evenodd" fill="#1D1D1D" width="8" height="108.4"/>
<g>
	<line fill="none" stroke="#1D1D1D" stroke-width="8" stroke-miterlimit="10" x1="162" y1="100.8" x2="78" y2="33"/>
	<line fill="none" stroke="#1D1D1D" stroke-width="8" stroke-miterlimit="10" x1="162" y1="33" x2="78.5" y2="100.8"/>
</g>
<rect fill-rule="evenodd" clip-rule="evenodd" fill="none" width="240" height="240"/>
<rect fill-rule="evenodd" clip-rule="evenodd" fill="none" width="240" height="240"/>
</svg>
