<?xml version="1.0" encoding="iso-8859-1"?>
<!-- Generator: Adobe Illustrator 19.2.1, SVG Export Plug-In . SVG Version: 6.00 Build 0)  -->
<svg version="1.1" id="Layer_1" xmlns="http://www.w3.org/2000/svg" xmlns:xlink="http://www.w3.org/1999/xlink" x="0px" y="0px"
	 viewBox="0 0 240 240" style="enable-background:new 0 0 240 240;" xml:space="preserve">
<g>
	<rect x="16" y="16" style="fill:#48AAB5;" width="208" height="208"/>
	<path style="fill:#1D1D1D;" d="M220,20v200H20V20H220 M228,12H12v216h216V12L228,12z"/>
</g>
<g>
	<path style="fill-rule:evenodd;clip-rule:evenodd;fill:#1D1D1D;" d="M146.874,48.581c14.84,0,26.868,11.988,26.868,26.777
		s-12.029,26.777-26.868,26.777c-14.844,0-26.873-11.989-26.873-26.777S132.03,48.581,146.874,48.581z"/>
	<path style="fill-rule:evenodd;clip-rule:evenodd;fill:#1D1D1D;" d="M84.28,82.913l47.643,120.506H36.626L84.28,82.913z"/>
	<path style="fill-rule:evenodd;clip-rule:evenodd;fill:#1D1D1D;" d="M155.727,120.042l47.647,83.371H108.08L155.727,120.042z"/>
</g>
<g>
	<rect x="71" y="158.267" style="fill:#BDBDBD;" width="160" height="73.479"/>
	<g>
		<path style="fill:#1D1D1D;" d="M227,162.267v65.479H75v-65.479H227 M235,154.267H67v81.479h168V154.267L235,154.267z"/>
	</g>
</g>
<g>
	<path style="fill:#1D1D1D;" d="M115.071,186.514c0,2.348-0.678,4.063-2.036,5.145c-1.358,1.081-3.261,1.623-5.71,1.623h-9.667
		v-13.289h9.667c2.449,0,4.352,0.5,5.71,1.501C114.394,182.493,115.071,184.168,115.071,186.514L115.071,186.514z M125.729,186.454
		c0-4.878-1.509-8.48-4.529-10.808c-3.023-2.326-7.074-3.49-12.155-3.49H87v45.124h10.658v-16.225h10.69
		c5.579,0,9.868-1.102,12.874-3.306C124.227,195.546,125.729,191.781,125.729,186.454L125.729,186.454z"/>
	<path style="fill:#1D1D1D;" d="M132.875,202.899c0,4.452,1.76,7.948,5.276,10.494c3.513,2.542,8.337,3.815,14.473,3.815
		c6.007,0,10.658-1.292,13.948-3.876c3.293-2.583,4.94-5.829,4.94-9.737c0-3.812-1.392-6.723-4.167-8.736
		c-1.791-1.296-4.476-2.332-8.06-3.106l-8.177-1.769c-3.159-0.678-5.22-1.268-6.194-1.771c-1.512-0.755-2.269-1.897-2.269-3.426
		c0-1.664,0.767-2.96,2.304-3.889c1.533-0.929,3.586-1.393,6.155-1.393c2.313,0,4.248,0.359,5.803,1.074
		c2.333,1.083,3.587,2.912,3.762,5.485h9.358c-0.17-4.547-2.012-8.015-5.523-10.404c-3.509-2.389-7.747-3.586-12.718-3.586
		c-5.953,0-10.466,1.268-13.54,3.803c-3.071,2.534-4.609,5.717-4.609,9.548c0,4.2,1.57,7.285,4.712,9.258
		c1.854,1.182,5.258,2.274,10.221,3.28l5.044,1.015c2.955,0.582,5.11,1.249,6.469,2.002c1.36,0.774,2.041,1.868,2.041,3.28
		c0,2.42-1.39,4.074-4.165,4.963c-1.463,0.465-3.366,0.696-5.713,0.696c-3.917,0-6.682-0.88-8.296-2.641
		c-0.884-0.967-1.472-2.427-1.776-4.382H132.875z"/>
	<path style="fill:#1D1D1D;" d="M197.983,179.993c4.367,0,7.283,1.231,8.748,3.691c1.466,2.46,2.2,5.985,2.2,10.577
		c0,3.326-0.491,6.194-1.466,8.601c-1.788,4.387-4.947,6.582-9.482,6.582h-8.857v-29.451H197.983z M199.605,172.157h-19.79v45.124
		h19.79c6.938,0,12.067-2.805,15.392-8.417c2.452-4.164,3.677-9.246,3.677-15.246c0-2.368-0.292-4.859-0.872-7.471
		c-0.584-2.611-1.672-5.04-3.273-7.285c-1.995-2.775-4.603-4.683-7.822-5.726C204.815,172.524,202.452,172.198,199.605,172.157
		L199.605,172.157z"/>
</g>
<rect style="fill-rule:evenodd;clip-rule:evenodd;fill:none;" width="240" height="240"/>
</svg>
