<?xml version="1.0" encoding="iso-8859-1"?>
<!-- Generator: Adobe Illustrator 19.2.1, SVG Export Plug-In . SVG Version: 6.00 Build 0)  -->
<svg version="1.1" id="Layer_1" xmlns="http://www.w3.org/2000/svg" xmlns:xlink="http://www.w3.org/1999/xlink" x="0px" y="0px"
	 viewBox="0 0 240 240" style="enable-background:new 0 0 240 240;" xml:space="preserve">
<g>
	<polygon style="fill-rule:evenodd;clip-rule:evenodd;fill:#BDBDBD;" points="96.125,179.981 110.886,179.981 110.886,60.019 
		96.125,60.019 120,18.667 143.874,60.019 129.113,60.019 129.113,179.981 143.874,179.981 120,221.333 	"/>
	<path style="fill:#1D1D1D;" d="M120,26.667l8.473,14.676l8.473,14.676h-11.833v127.962h11.833l-8.473,14.676L120,213.333
		l-8.473-14.676l-8.473-14.676h11.833V56.019h-11.833l8.473-14.676L120,26.667 M120,10.667l-6.928,12l-8.473,14.676l-8.473,14.676
		l-6.928,12h13.856h3.833v111.962h-3.833H89.197l6.928,12l8.473,14.676l8.473,14.676l6.928,12l6.928-12l8.473-14.676l8.473-14.676
		l6.928-12h-13.856h-3.833V64.019h3.833h13.856l-6.928-12l-8.473-14.676l-8.473-14.676L120,10.667L120,10.667z"/>
</g>
<g>
	<polygon style="fill-rule:evenodd;clip-rule:evenodd;fill:#BDBDBD;" points="145.531,179.295 155.969,168.857 71.143,84.031 
		60.705,94.469 48.347,48.347 94.469,60.705 84.031,71.143 168.857,155.969 179.295,145.531 191.654,191.654 	"/>
	<path style="fill:#1D1D1D;" d="M54.003,54.003l16.369,4.386l16.369,4.386l-8.367,8.367l90.483,90.483l8.367-8.367l4.386,16.369
		l4.386,16.369l-16.369-4.386l-16.369-4.386l8.367-8.367L71.143,78.374l-8.367,8.367l-4.386-16.369L54.003,54.003 M42.69,42.69
		l3.586,13.384l4.386,16.369l4.386,16.369l3.586,13.384l9.798-9.798l2.71-2.71l79.169,79.169l-2.71,2.71l-9.798,9.798l13.384,3.586
		l16.369,4.386l16.369,4.386l13.384,3.586l-3.586-13.384l-4.386-16.369l-4.386-16.369l-3.586-13.384l-9.798,9.798l-2.71,2.71
		L89.688,71.143l2.71-2.71l9.798-9.798l-13.384-3.586l-16.369-4.386l-16.369-4.386L42.69,42.69L42.69,42.69z"/>
</g>
<g>
	<polygon style="fill-rule:evenodd;clip-rule:evenodd;fill:#BDBDBD;" points="60.705,145.531 71.143,155.969 155.969,71.143 
		145.531,60.705 191.654,48.346 179.295,94.469 168.857,84.031 84.031,168.857 94.469,179.295 48.346,191.654 	"/>
	<path style="fill:#1D1D1D;" d="M185.997,54.003l-4.386,16.369l-4.386,16.369l-8.367-8.367l-90.483,90.483l8.367,8.367
		l-16.369,4.386l-16.369,4.386l4.386-16.369l4.386-16.369l8.367,8.367l90.483-90.483l-8.367-8.367l16.369-4.386L185.997,54.003
		 M197.31,42.69l-13.384,3.586l-16.369,4.386l-16.369,4.386l-13.384,3.586l9.798,9.798l2.71,2.71l-79.169,79.169l-2.71-2.71
		l-9.798-9.798l-3.586,13.384l-4.386,16.369l-4.386,16.369L42.69,197.31l13.384-3.586l16.369-4.386l16.369-4.386l13.384-3.586
		l-9.798-9.798l-2.71-2.71l79.169-79.169l2.71,2.71l9.798,9.798l3.586-13.384l4.386-16.369l4.386-16.369L197.31,42.69L197.31,42.69z
		"/>
</g>
<g>
	<polygon style="fill-rule:evenodd;clip-rule:evenodd;fill:#BDBDBD;" points="179.981,129.113 60.019,129.113 60.019,143.874 
		18.667,120 60.019,96.125 60.019,110.886 179.981,110.886 179.981,96.125 221.333,120 179.981,143.874 	"/>
	<path style="fill:#1D1D1D;" d="M183.981,103.053l14.676,8.473L213.333,120l-14.676,8.473l-14.676,8.473v-11.833H56.019v11.833
		l-14.676-8.473L26.667,120l14.676-8.473l14.676-8.473v11.833h127.962V103.053 M64.019,89.197l-12,6.928l-14.676,8.473
		l-14.676,8.473l-12,6.928l12,6.928l14.676,8.473l14.676,8.473l12,6.928v-13.856v-3.833h111.962v3.833v13.856l12-6.928l14.676-8.473
		l14.676-8.473l12-6.928l-12-6.928l-14.676-8.473l-14.676-8.473l-12-6.928v13.856v3.833H64.019v-3.833V89.197L64.019,89.197z"/>
</g>
<rect style="fill-rule:evenodd;clip-rule:evenodd;fill:none;" width="240" height="240"/>
<g>
	<path style="fill:#D6806D;" d="M120,159.75c-21.918,0-39.75-17.832-39.75-39.75c0-21.918,17.832-39.75,39.75-39.75
		c21.918,0,39.75,17.832,39.75,39.75C159.75,141.918,141.918,159.75,120,159.75z"/>
	<path style="fill:#1D1D1D;" d="M120,84.25c19.744,0,35.75,16.006,35.75,35.75s-16.006,35.75-35.75,35.75S84.25,139.744,84.25,120
		S100.256,84.25,120,84.25 M120,76.25c-24.124,0-43.75,19.626-43.75,43.75s19.626,43.75,43.75,43.75s43.75-19.626,43.75-43.75
		S144.124,76.25,120,76.25L120,76.25z"/>
</g>
</svg>
