<?xml version="1.0" encoding="iso-8859-1"?>
<!-- Generator: Adobe Illustrator 19.2.1, SVG Export Plug-In . SVG Version: 6.00 Build 0)  -->
<svg version="1.1" id="orientConstraint" xmlns="http://www.w3.org/2000/svg" xmlns:xlink="http://www.w3.org/1999/xlink" x="0px"
	 y="0px" viewBox="0 0 240 240" style="enable-background:new 0 0 240 240;" xml:space="preserve">
<g>
	<path style="fill-rule:evenodd;clip-rule:evenodd;fill:#BDBDBD;" d="M110.872,223.284c-4.714-1.614-29.098-11.171-46.242-40.866
		c-12.776-22.129-14.286-48.266-14.931-59.426c-0.102-1.771-0.217-3.766-0.326-4.417l-0.499-1.309l-0.263,0.152l-7.105-12.305
		l-1.104-1.914c-1.228-2.126-4.873-5.358-8.088-8.209c-4.027-3.571-7.832-6.944-9.708-10.195
		c-4.901-8.489-7.036-15.452-6.526-21.287c0.503-5.761,3.537-10.285,9.015-13.448c3.069-1.771,6.167-2.67,9.209-2.67
		c7.935,0,15.169,5.849,22.117,17.882c1.877,3.25,2.896,8.231,3.975,13.504c0.861,4.211,1.838,8.983,3.066,11.11l8.209,14.219
		l-0.263,0.152l0.884,1.086c0.51,0.42,2.181,1.518,3.664,2.492c9.343,6.139,31.222,20.515,43.997,42.642
		c17.143,29.692,13.229,55.59,12.271,60.479l-0.351,1.785l-19.282,11.132L110.872,223.284z"/>
	<path style="fill:#1D1D1D;" d="M34.305,51.39c5.9,0,12.069,4.479,18.653,15.882c3.104,5.377,3.936,19.236,7.041,24.614
		l-16.131,9.313c-3.105-5.377-14.691-13.027-17.796-18.405c-9.314-16.132-7.041-24.614,1.025-29.271
		C29.46,52.159,31.859,51.39,34.305,51.39 M63.103,97.263l3.105,5.377l-16.132,9.313l-3.105-5.377L63.103,97.263 M69.313,108.018
		c2.002,2.46,31.655,17.573,47.177,44.459c15.523,26.887,13.113,51.063,11.809,57.71l-16.131,9.313
		c-6.408-2.194-28.551-12.195-44.073-39.082c-15.523-26.887-13.785-60.123-14.914-63.086L69.313,108.018 M34.305,43.39
		c-3.753,0-7.524,1.079-11.209,3.206c-8.315,4.8-10.571,11.657-11,16.564c-0.584,6.68,1.721,14.411,7.046,23.635
		c2.202,3.813,6.242,7.395,10.519,11.188c2.648,2.348,6.258,5.549,7.233,7.141l3.149,5.453l3.105,5.377l2.357,4.083
		c0.065,0.831,0.136,2.06,0.201,3.185c0.661,11.444,2.209,38.245,15.46,61.196c17.857,30.931,43.459,40.955,48.41,42.65l3.441,1.178
		l3.15-1.819l16.131-9.313l3.151-1.819l0.7-3.57c1.007-5.135,5.125-32.319-12.731-63.249c-13.25-22.949-35.685-37.691-45.266-43.985
		c-0.943-0.619-1.971-1.295-2.659-1.768l-2.358-4.083l-3.105-5.377l-2.304-3.99l-0.801-1.387c-0.903-1.565-1.89-6.389-2.611-9.912
		c-1.146-5.6-2.228-10.89-4.429-14.702C52.162,49.893,43.794,43.39,34.305,43.39L34.305,43.39z"/>
</g>
<g>
	<path style="fill-rule:evenodd;clip-rule:evenodd;fill:#AE9CDB;" d="M151.5,177.5c-20.953,0-38-17.047-38-38s17.047-38,38-38
		s38,17.047,38,38S172.453,177.5,151.5,177.5z"/>
	<g>
		<path style="fill:#1D1D1D;" d="M151.5,105.5c18.778,0,34,15.222,34,34s-15.222,34-34,34s-34-15.222-34-34
			S132.722,105.5,151.5,105.5 M151.5,97.5c-23.159,0-42,18.841-42,42s18.841,42,42,42s42-18.841,42-42S174.659,97.5,151.5,97.5
			L151.5,97.5z"/>
	</g>
</g>
<g>
	<path style="fill:#AE9CDB;" d="M155.354,111.315c-6.792,0-13.667-2.976-18.861-8.165c-5.194-5.188-8.174-12.055-8.175-18.841
		c-0.001-5.589,2.04-10.707,5.745-14.409l26.492-26.465c3.706-3.701,8.826-5.74,14.42-5.74c1.07,0,2.144,0.074,3.211,0.219
		c-1.347-1.731-2.078-3.85-2.078-6.08c0-2.655,1.035-5.15,2.914-7.026l11.005-10.813c3.682-3.678,8.802-5.716,14.395-5.716
		c6.791,0,13.664,2.976,18.858,8.164c5.195,5.19,8.174,12.06,8.174,18.846c-0.001,5.589-2.042,10.706-5.749,14.407l-26.49,26.464
		c-3.705,3.701-8.825,5.739-14.417,5.739c-0.001,0-0.001,0-0.001,0c-1.071,0-2.145-0.074-3.214-0.219
		c1.35,1.734,2.08,3.853,2.08,6.083c0,2.653-1.034,5.147-2.912,7.023l-11.006,10.814
		C166.064,109.278,160.944,111.315,155.354,111.315L155.354,111.315z M148.23,83.833c-0.218,0.706,0.13,3.085,2.314,5.267
		c1.743,1.742,3.674,2.359,4.798,2.359c0.256,0,0.416-0.031,0.495-0.052l10.885-10.692c1.321-1.321,2.97-2.226,4.77-2.636
		c-1.989-1.194-3.861-2.651-5.555-4.342c-1.368-1.367-2.289-3.062-2.688-4.908L148.23,83.833z M188.277,41.518
		c1.989,1.195,3.861,2.651,5.555,4.343c1.368,1.366,2.288,3.062,2.688,4.907l15.02-15.004c0.218-0.705-0.127-3.085-2.312-5.269
		c-1.742-1.741-3.673-2.358-4.797-2.358c-0.259,0-0.419,0.031-0.498,0.052l-10.883,10.693
		C191.727,40.204,190.078,41.108,188.277,41.518z"/>
	<path style="fill:#1D1D1D;" d="M204.421,12.281c5.516,0,11.412,2.38,16.031,6.994c8.283,8.276,9.374,20.654,2.426,27.594
		l-26.491,26.464c-3.074,3.07-7.213,4.569-11.591,4.569c-5.517,0-11.413-2.38-16.032-6.994c-2.319-2.317-2.317-6.074,0-8.39
		c1.16-1.158,2.681-1.737,4.201-1.737c1.52,0,3.039,0.579,4.198,1.737c2.404,2.401,5.312,3.528,7.624,3.528
		c1.337,0,2.475-0.377,3.201-1.102l26.493-26.465c1.982-1.981,1.365-7.026-2.428-10.814c-2.403-2.401-5.31-3.528-7.623-3.528
		c-1.337,0-2.476,0.377-3.202,1.102l-10.982,10.791c-1.16,1.158-2.68,1.737-4.199,1.737c-1.52,0-3.039-0.579-4.198-1.737
		c-2.321-2.316-2.321-6.073,0-8.389l10.982-10.79C195.904,13.779,200.043,12.281,204.421,12.281 M174.974,41.696
		c5.517,0,11.412,2.38,16.031,6.994c2.321,2.318,2.317,6.073,0,8.389c-1.16,1.159-2.679,1.738-4.199,1.738
		c-1.519,0-3.039-0.579-4.2-1.738c-2.404-2.401-5.311-3.528-7.623-3.528c-1.337,0-2.476,0.377-3.203,1.103l-26.493,26.465
		c-1.98,1.979-1.362,7.023,2.431,10.812c2.403,2.402,5.312,3.529,7.624,3.529c1.336,0,2.473-0.376,3.198-1.101l10.984-10.79
		c1.16-1.159,2.679-1.738,4.199-1.738c1.519,0,3.039,0.579,4.199,1.738c2.32,2.319,2.318,6.073,0,8.389l-10.982,10.79
		c-3.072,3.069-7.21,4.567-11.587,4.567c-5.517,0-11.414-2.38-16.033-6.994c-8.287-8.276-9.374-20.653-2.43-27.59l26.492-26.464
		C166.456,43.195,170.596,41.696,174.974,41.696 M204.421,4.281c-6.647,0-12.761,2.445-17.219,6.884l-10.961,10.77l-0.022,0.022
		l-0.022,0.022c-2.637,2.632-4.089,6.132-4.089,9.857c0,0.676,0.048,1.344,0.142,2.001c-5.595,0.576-10.676,2.93-14.521,6.771
		l-26.492,26.465c-4.462,4.458-6.919,10.581-6.919,17.239c0.001,7.839,3.409,15.738,9.349,21.671
		c5.938,5.932,13.842,9.334,21.686,9.334c6.646,0,12.758-2.443,17.215-6.881l10.961-10.77l0.024-0.023l0.024-0.024
		c2.634-2.631,4.085-6.13,4.085-9.852c0-0.676-0.048-1.345-0.142-2.003c5.595-0.576,10.676-2.929,14.52-6.77l26.492-26.465
		c4.462-4.457,6.92-10.579,6.921-17.238c0-7.84-3.406-15.74-9.346-21.675C220.167,7.683,212.263,4.281,204.421,4.281L204.421,4.281z
		 M195.871,41.718l9.413-9.249c0.328,0.183,0.717,0.456,1.114,0.854c0.386,0.385,0.655,0.762,0.838,1.085l-9.651,9.641
		c-0.29-0.352-0.599-0.692-0.926-1.019c-0.353-0.353-0.713-0.696-1.079-1.031C195.677,41.907,195.775,41.813,195.871,41.718
		L195.871,41.718z M152.535,85.187l9.649-9.638c0.29,0.352,0.598,0.692,0.925,1.018c0.354,0.353,0.715,0.698,1.082,1.033
		c-0.099,0.093-0.196,0.187-0.293,0.283l-9.41,9.244c-0.328-0.183-0.717-0.457-1.114-0.854
		C152.988,85.887,152.719,85.51,152.535,85.187L152.535,85.187z"/>
</g>
<rect style="fill-rule:evenodd;clip-rule:evenodd;fill:none;" width="240" height="240"/>
</svg>
