<?xml version="1.0" encoding="iso-8859-1"?>
<!-- Generator: Adobe Illustrator 19.2.1, SVG Export Plug-In . SVG Version: 6.00 Build 0)  -->
<svg version="1.1" id="orientConstraint" xmlns="http://www.w3.org/2000/svg" xmlns:xlink="http://www.w3.org/1999/xlink" x="0px"
	 y="0px" viewBox="0 0 240 240" style="enable-background:new 0 0 240 240;" xml:space="preserve">
<g>
	<g>
		<g>
			<path style="fill-rule:evenodd;clip-rule:evenodd;fill:#BDBDBD;" d="M15.997,224V65.328H174.67V224H15.997z M158.518,207.849
				V81.479H32.148v126.369H158.518z"/>
			<path style="fill:#1D1D1D;" d="M170.67,69.328V220H19.997V69.328H170.67 M28.149,211.849h134.369V77.479H28.149V211.849
				 M178.67,61.328h-8H19.997h-8v8V220v8h8H170.67h8v-8V69.328V61.328L178.67,61.328z M36.149,85.479h118.369v118.369H36.149V85.479
				L36.149,85.479z"/>
		</g>
		<g>
			<rect x="50.833" y="64.632" style="fill-rule:evenodd;clip-rule:evenodd;fill:#1D1D1D;" width="8" height="17.589"/>
			<rect x="91.833" y="64.632" style="fill-rule:evenodd;clip-rule:evenodd;fill:#1D1D1D;" width="8" height="17.589"/>
			<rect x="131.833" y="64.632" style="fill-rule:evenodd;clip-rule:evenodd;fill:#1D1D1D;" width="8" height="17.589"/>
			<rect x="50.833" y="207.632" style="fill-rule:evenodd;clip-rule:evenodd;fill:#1D1D1D;" width="8" height="17.589"/>
			<rect x="91.833" y="207.632" style="fill-rule:evenodd;clip-rule:evenodd;fill:#1D1D1D;" width="8" height="17.589"/>
			<rect x="131.833" y="207.632" style="fill-rule:evenodd;clip-rule:evenodd;fill:#1D1D1D;" width="8" height="17.589"/>
		</g>
		<g>
			
				<rect x="19.833" y="176.632" transform="matrix(-1.346052e-10 -1 1 -1.346052e-10 -161.5936 209.2603)" style="fill-rule:evenodd;clip-rule:evenodd;fill:#1D1D1D;" width="8" height="17.589"/>
			
				<rect x="19.833" y="135.632" transform="matrix(-1.346052e-10 -1 1 -1.346052e-10 -120.5936 168.2603)" style="fill-rule:evenodd;clip-rule:evenodd;fill:#1D1D1D;" width="8" height="17.589"/>
			
				<rect x="19.833" y="95.632" transform="matrix(-1.348325e-10 -1 1 -1.348325e-10 -80.5936 128.2603)" style="fill-rule:evenodd;clip-rule:evenodd;fill:#1D1D1D;" width="8" height="17.589"/>
			
				<rect x="162.833" y="176.632" transform="matrix(-1.348325e-10 -1 1 -1.348325e-10 -18.5936 352.2603)" style="fill-rule:evenodd;clip-rule:evenodd;fill:#1D1D1D;" width="8" height="17.589"/>
			
				<rect x="162.833" y="135.632" transform="matrix(-1.348325e-10 -1 1 -1.348325e-10 22.4064 311.2603)" style="fill-rule:evenodd;clip-rule:evenodd;fill:#1D1D1D;" width="8" height="17.589"/>
			
				<rect x="162.833" y="95.632" transform="matrix(-1.348325e-10 -1 1 -1.348325e-10 62.4064 271.2603)" style="fill-rule:evenodd;clip-rule:evenodd;fill:#1D1D1D;" width="8" height="17.589"/>
		</g>
	</g>
	<g>
		<rect x="15.997" y="145.438" style="fill-rule:evenodd;clip-rule:evenodd;fill:#BDBDBD;" width="78.563" height="78.562"/>
		<path style="fill:#1D1D1D;" d="M90.56,149.438V220H19.997v-70.563H90.56 M98.56,141.438h-8H19.997h-8v8V220v8h8H90.56h8v-8
			v-70.563V141.438L98.56,141.438z"/>
	</g>
</g>
<rect x="149.609" y="66" style="fill-rule:evenodd;clip-rule:evenodd;fill:#1D1D1D;" width="23.391" height="23.391"/>
<g>
	<path style="fill:#AE9CDB;" d="M155.354,111.315c-6.792,0-13.667-2.976-18.861-8.165c-5.194-5.188-8.174-12.055-8.175-18.841
		c-0.001-5.589,2.04-10.707,5.745-14.409l26.492-26.465c3.706-3.701,8.826-5.74,14.42-5.74c1.07,0,2.144,0.074,3.211,0.219
		c-1.347-1.731-2.078-3.85-2.078-6.08c0-2.655,1.035-5.15,2.914-7.026l11.005-10.813c3.682-3.678,8.802-5.716,14.395-5.716
		c6.791,0,13.664,2.976,18.858,8.164c5.195,5.19,8.174,12.06,8.174,18.846c-0.001,5.589-2.042,10.706-5.749,14.407l-26.49,26.464
		c-3.705,3.701-8.825,5.739-14.417,5.739c-0.001,0-0.001,0-0.001,0c-1.071,0-2.145-0.074-3.214-0.219
		c1.35,1.734,2.08,3.853,2.08,6.083c0,2.653-1.034,5.147-2.912,7.023l-11.006,10.814
		C166.064,109.278,160.944,111.315,155.354,111.315L155.354,111.315z M148.23,83.833c-0.218,0.706,0.13,3.085,2.314,5.267
		c1.743,1.742,3.674,2.359,4.798,2.359c0.256,0,0.416-0.031,0.495-0.052l10.885-10.692c1.321-1.321,2.97-2.226,4.77-2.636
		c-1.989-1.194-3.861-2.651-5.555-4.342c-1.368-1.367-2.289-3.062-2.688-4.908L148.23,83.833z M188.277,41.518
		c1.989,1.195,3.861,2.651,5.555,4.343c1.368,1.366,2.288,3.062,2.688,4.907l15.02-15.004c0.218-0.705-0.127-3.085-2.312-5.269
		c-1.742-1.741-3.673-2.358-4.797-2.358c-0.259,0-0.419,0.031-0.498,0.052l-10.883,10.693
		C191.727,40.204,190.078,41.108,188.277,41.518z"/>
	<path style="fill:#1D1D1D;" d="M204.421,12.281c5.516,0,11.412,2.38,16.031,6.994c8.283,8.276,9.374,20.654,2.426,27.594
		l-26.491,26.464c-3.074,3.07-7.213,4.569-11.591,4.569c-5.517,0-11.413-2.38-16.032-6.994c-2.319-2.317-2.317-6.074,0-8.39
		c1.16-1.158,2.681-1.737,4.201-1.737c1.52,0,3.039,0.579,4.198,1.737c2.404,2.401,5.312,3.528,7.624,3.528
		c1.337,0,2.475-0.377,3.201-1.102l26.493-26.465c1.982-1.981,1.365-7.026-2.428-10.814c-2.403-2.401-5.31-3.528-7.623-3.528
		c-1.337,0-2.476,0.377-3.202,1.102l-10.982,10.791c-1.16,1.158-2.68,1.737-4.199,1.737c-1.52,0-3.039-0.579-4.198-1.737
		c-2.321-2.316-2.321-6.073,0-8.389l10.982-10.79C195.904,13.779,200.043,12.281,204.421,12.281 M174.974,41.696
		c5.517,0,11.412,2.38,16.031,6.994c2.321,2.318,2.317,6.073,0,8.389c-1.16,1.159-2.679,1.738-4.199,1.738
		c-1.519,0-3.039-0.579-4.2-1.738c-2.404-2.401-5.311-3.528-7.623-3.528c-1.337,0-2.476,0.377-3.203,1.103l-26.493,26.465
		c-1.98,1.979-1.362,7.023,2.431,10.812c2.403,2.402,5.312,3.529,7.624,3.529c1.336,0,2.473-0.376,3.198-1.101l10.984-10.79
		c1.16-1.159,2.679-1.738,4.199-1.738c1.519,0,3.039,0.579,4.199,1.738c2.32,2.319,2.318,6.073,0,8.389l-10.982,10.79
		c-3.072,3.069-7.21,4.567-11.587,4.567c-5.517,0-11.414-2.38-16.033-6.994c-8.287-8.276-9.374-20.653-2.43-27.59l26.492-26.464
		C166.456,43.195,170.596,41.696,174.974,41.696 M204.421,4.281c-6.647,0-12.761,2.445-17.219,6.884l-10.961,10.77l-0.022,0.022
		l-0.022,0.022c-2.637,2.632-4.089,6.132-4.089,9.857c0,0.676,0.048,1.344,0.142,2.001c-5.595,0.576-10.676,2.93-14.521,6.771
		l-26.492,26.465c-4.462,4.458-6.919,10.581-6.919,17.239c0.001,7.839,3.409,15.738,9.349,21.671
		c5.938,5.932,13.842,9.334,21.686,9.334c6.646,0,12.758-2.443,17.215-6.881l10.961-10.77l0.024-0.023l0.024-0.024
		c2.634-2.631,4.085-6.13,4.085-9.852c0-0.676-0.048-1.345-0.142-2.003c5.595-0.576,10.676-2.929,14.52-6.77l26.492-26.465
		c4.462-4.457,6.92-10.579,6.921-17.238c0-7.84-3.406-15.74-9.346-21.675C220.167,7.683,212.263,4.281,204.421,4.281L204.421,4.281z
		 M195.871,41.718l9.413-9.249c0.328,0.183,0.717,0.456,1.114,0.854c0.386,0.385,0.655,0.762,0.838,1.085l-9.651,9.641
		c-0.29-0.352-0.599-0.692-0.926-1.019c-0.353-0.353-0.713-0.696-1.079-1.031C195.677,41.907,195.775,41.813,195.871,41.718
		L195.871,41.718z M152.535,85.187l9.649-9.638c0.29,0.352,0.598,0.692,0.925,1.018c0.354,0.353,0.715,0.698,1.082,1.033
		c-0.099,0.093-0.196,0.187-0.293,0.283l-9.41,9.244c-0.328-0.183-0.717-0.457-1.114-0.854
		C152.988,85.887,152.719,85.51,152.535,85.187L152.535,85.187z"/>
</g>
<g>
	<polygon style="fill:#BDBDBD;" points="105.899,159.04 105.899,134.101 80.96,134.101 80.96,118 122,118 122,159.04 	"/>
	<g>
		<path style="fill:#1D1D1D;" d="M118,122v8.101v24.939h-8.101v-24.939H84.96V122h24.939H118 M126,114h-8h-8.101H84.96h-8v8v8.101v8
			h8h16.939v16.939v8h8H118h8v-8v-24.939V122V114L126,114z"/>
	</g>
</g>
<rect style="fill-rule:evenodd;clip-rule:evenodd;fill:none;" width="240" height="240"/>
</svg>
