<?xml version="1.0" encoding="iso-8859-1"?>
<!-- Generator: Adobe Illustrator 19.2.1, SVG Export Plug-In . SVG Version: 6.00 Build 0)  -->
<svg version="1.1" id="Layer_1" xmlns="http://www.w3.org/2000/svg" xmlns:xlink="http://www.w3.org/1999/xlink" x="0px" y="0px"
	 viewBox="0 0 240 240" style="enable-background:new 0 0 240 240;" xml:space="preserve">
<rect style="fill-rule:evenodd;clip-rule:evenodd;fill:none;" width="240" height="240"/>
<g>
	<path style="fill:#BDBDBD;" d="M112.114,212.592c-7.716,0-14.255-6.192-14.888-14.097c-0.679-8.423,5.442-15.855,13.644-16.568
		c16.763-1.446,33.736-3.743,47.813-6.385c-15.903-1.641-34.539-2.779-48.463-3.63l-0.292-0.019
		c-60.535-3.677-78.229-5.411-83.659-20.566c-2.434-6.786-0.646-14.103,4.782-19.571c11.072-11.15,40.003-16.555,90.187-25.146
		l0.316-0.055c7.799-1.336,17.058-2.922,26.216-4.617c-12.939-1.076-26.439-1.875-36.829-2.49
		C50.2,95.851,32.439,94.136,26.838,78.902c-2.487-6.766-0.773-14.122,4.585-19.676c8.648-8.972,25.966-16.785,51.471-23.221
		c19.489-4.917,37.877-7.558,44.878-8.465c0.626-0.086,1.295-0.132,1.955-0.132c7.483,0,13.827,5.793,14.756,13.475
		c1.013,8.383-4.802,16.065-12.96,17.127c-13.307,1.729-30.533,4.948-45.805,9.049c9.088,0.67,18.588,1.232,26.937,1.726
		c58.805,3.48,85.753,6.191,97.021,17.542c5.246,5.284,7.159,12.471,5.118,19.224c-4.901,16.232-26.605,20.733-88.642,31.357
		l-0.254,0.044c-6.789,1.162-14.295,2.448-21.885,3.816c2.657,0.165,5.235,0.321,7.683,0.471c59.44,3.612,86.67,6.386,97.979,17.774
		c8.641,8.706,6.709,17.997,5.477,21.588c-2.254,6.53-8.236,23.855-101.77,31.942C112.94,212.579,112.524,212.592,112.114,212.592z"
		/>
	<path style="fill:#1D1D1D;" d="M129.728,31.408c5.425,0,10.093,4.232,10.785,9.956c0.752,6.225-3.504,11.899-9.506,12.681
		C111.344,56.6,83.603,62.33,65.608,69.261c13.402,1.54,31.813,2.631,46.812,3.517c56.454,3.341,84.175,6.048,94.418,16.367
		c4.194,4.224,5.738,9.925,4.128,15.248c-4.094,13.557-24.24,18.083-85.487,28.572c-15.56,2.666-35.583,6.091-51.346,9.649
		c11.832,1.065,25.617,1.907,37.321,2.618c57.08,3.469,85.093,6.237,95.384,16.6c7.072,7.125,5.521,14.588,4.532,17.472
		c-1.827,5.289-7.389,21.392-98.332,29.254c-0.312,0.026-0.621,0.035-0.924,0.035c-5.634,0-10.426-4.482-10.901-10.417
		c-0.503-6.246,3.975-11.74,10.003-12.263c27.551-2.377,54.563-6.939,69.488-11.357c-17.214-3.407-49.34-5.359-70.532-6.655
		c-61.075-3.709-75.799-5.812-80.138-17.924c-1.9-5.297-0.459-11.056,3.855-15.403c10.193-10.266,40.089-15.816,88.023-24.023
		c15.853-2.716,36.783-6.296,51.763-9.841c-17.747-2.605-44.235-4.175-62.499-5.257c-61.306-3.63-76.094-5.718-80.585-17.932
		c-1.946-5.293-0.558-11.095,3.71-15.518c19.2-19.92,81.66-28.9,93.984-30.496C128.772,31.44,129.253,31.408,129.728,31.408
		 M129.729,23.408c-0.832,0-1.673,0.057-2.5,0.17c-18.003,2.334-78.164,11.584-98.686,32.874c-6.35,6.582-8.443,15.714-5.459,23.831
		c4.215,11.464,14.435,15.067,24.852,17.254c12.269,2.576,30.764,4.009,62.769,5.904c1.281,0.076,2.61,0.155,3.978,0.236
		c-47.384,8.163-75.004,13.715-86.469,25.262c-6.445,6.493-8.632,15.59-5.709,23.74c4.098,11.438,14.279,15.045,24.671,17.239
		c12.211,2.578,30.632,4.033,62.512,5.969l0.338,0.021c3.992,0.244,8.376,0.512,12.969,0.809c-4.135,0.456-8.307,0.867-12.466,1.226
		c-10.39,0.902-18.144,10.267-17.29,20.876c0.798,9.965,9.089,17.774,18.875,17.774c0.568,0,1.091-0.021,1.597-0.063
		c39.664-3.429,68.295-8.89,85.112-16.232c14.277-6.233,18.177-12.79,20.108-18.382c3.075-8.967,0.675-18.576-6.415-25.719
		c-10.373-10.445-31.809-14.141-74.653-17.252c26.277-4.586,42.538-7.832,54.184-11.481c11.092-3.475,22.924-8.66,26.578-20.758
		c2.473-8.18,0.19-16.852-6.11-23.197c-12.172-12.261-39.446-15.14-98.607-18.656c6.435-1.186,12.621-2.159,18.13-2.875
		c10.328-1.344,17.692-11.022,16.417-21.574C147.283,30.714,139.233,23.408,129.729,23.408L129.729,23.408z"/>
</g>
<g>
	<path style="fill:#BDBDBD;" d="M112.123,212.592c-7.716,0-14.255-6.192-14.888-14.097c-0.536-6.653,3.135-12.856,9.135-15.434
		c0.355-0.152,0.732-0.253,1.117-0.298c5.932-0.688,12.01-1.466,18.063-2.311c21.414-2.457,41.366-6.037,53.615-9.611
		c0.191-0.078,0.391-0.142,0.597-0.189c11.002-2.564,20.801-5.319,29.125-8.188c0.43-0.148,0.869-0.22,1.303-0.22
		c1.423,0,2.781,0.762,3.501,2.065c3.932,7.108,2.339,13.76,1.473,16.289c-2.257,6.531-8.242,23.857-101.772,31.942
		C112.965,212.579,112.541,212.592,112.123,212.592z"/>
	<g>
		<path style="fill:#1D1D1D;" d="M210.191,166.246c3.095,5.597,1.973,10.769,1.188,13.057c-1.827,5.289-7.389,21.392-98.332,29.254
			c-0.312,0.026-0.621,0.035-0.924,0.035c-5.634,0-10.426-4.482-10.901-10.417c-0.407-5.046,2.44-9.598,6.726-11.438
			c4.984-0.579,11.171-1.349,18.154-2.323c22.079-2.532,42.394-6.244,54.611-9.86c-0.014-0.003-0.029-0.005-0.043-0.008
			C190.998,172.141,201.092,169.382,210.191,166.246 M210.189,158.245c-0.868,0-1.747,0.142-2.606,0.438
			c-8.197,2.825-17.863,5.541-28.729,8.074c-0.335,0.078-0.66,0.176-0.976,0.294c-12.058,3.499-31.679,7.008-52.688,9.418
			c-0.065,0.007-0.129,0.016-0.193,0.025c-6.013,0.838-12.06,1.612-17.973,2.299c-0.769,0.089-1.521,0.29-2.232,0.595
			c-7.58,3.254-12.219,11.063-11.545,19.432c0.798,9.965,9.089,17.774,18.875,17.774c0.568,0,1.091-0.021,1.597-0.064
			c39.664-3.429,68.295-8.89,85.113-16.232c14.277-6.233,18.177-12.79,20.108-18.382c1.046-3.051,2.958-11.027-1.749-19.54
			C215.751,159.769,213.034,158.245,210.189,158.245L210.189,158.245z"/>
	</g>
</g>
<g>
	<path style="fill:#BDBDBD;" d="M32.246,85.556c-1.222,0-2.411-0.561-3.186-1.58c-1.137-1.496-2.032-3.156-2.737-5.075
		c-2.488-6.765-0.774-14.121,4.585-19.675c8.648-8.972,25.966-16.785,51.471-23.221c19.49-4.918,37.877-7.559,44.879-8.465
		c0.626-0.086,1.294-0.132,1.954-0.132c7.483,0,13.827,5.793,14.756,13.475c1.014,8.382-4.8,16.065-12.96,17.127
		c-0.052,0.006-0.551,0.068-1.467,0.196c-18.64,2.522-44.968,7.968-62.294,14.515c-0.249,0.148-0.517,0.271-0.804,0.363
		c-11.332,3.639-22.307,7.726-32.622,12.148C33.311,85.451,32.775,85.556,32.246,85.556z"/>
	<g>
		<path style="fill:#1D1D1D;" d="M129.212,31.408c5.425,0,10.093,4.233,10.785,9.956c0.752,6.226-3.504,11.899-9.506,12.681
			c0,0-0.524,0.064-1.502,0.2c-19.554,2.646-46.355,8.26-63.897,15.017c0.041,0.005,0.086,0.009,0.127,0.014
			c-10.506,3.374-21.661,7.43-32.975,12.281c-0.919-1.209-1.621-2.546-2.168-4.034c-1.946-5.293-0.558-11.095,3.71-15.518
			c19.2-19.92,81.66-28.9,93.984-30.496C128.256,31.44,128.737,31.408,129.212,31.408 M129.212,23.408
			c-0.83,0-1.669,0.057-2.496,0.169C108.717,25.91,48.55,35.16,28.027,56.451c-6.35,6.581-8.443,15.714-5.459,23.831
			c0.845,2.298,1.927,4.298,3.307,6.114c1.55,2.039,3.929,3.16,6.372,3.16c1.059,0,2.129-0.21,3.149-0.648
			c10.202-4.374,21.059-8.417,32.269-12.017c0.448-0.144,0.877-0.325,1.282-0.538c17.031-6.386,42.817-11.706,61.115-14.182
			c0.888-0.124,1.364-0.183,1.401-0.187c0.019-0.002,0.041-0.005,0.06-0.008c10.327-1.344,17.691-11.022,16.416-21.574
			C146.767,30.714,138.717,23.408,129.212,23.408L129.212,23.408z"/>
	</g>
</g>
<g>
	<path style="fill:#BDBDBD;" d="M30.27,155.675c-1.52,0-2.944-0.87-3.615-2.291c-0.291-0.615-0.555-1.255-0.788-1.903
		c-2.433-6.785-0.645-14.102,4.783-19.569c11.071-11.15,40.003-16.555,90.187-25.148c15.372-2.633,62.134-10.646,85.864-19.312
		c0.449-0.164,0.913-0.243,1.371-0.243c1.24,0,2.442,0.578,3.213,1.617c3.709,4.997,4.842,11.15,3.11,16.88
		c-3.451,11.427-16.138,16.593-35.489,21.226c-0.068,0.017-0.137,0.031-0.205,0.044c-6.66,1.229-13.496,2.486-20.439,3.763
		c-20.025,3.68-40.733,7.486-60.79,11.311c-3.807,0.707-7.381,1.393-10.641,2.042c-22.749,4.402-40.954,8.158-55.677,11.486
		C30.858,155.643,30.562,155.675,30.27,155.675z"/>
	<path style="fill:#1D1D1D;" d="M208.072,91.209c2.93,3.948,3.872,8.78,2.493,13.339c-2.558,8.472-11.385,13.417-32.592,18.494
		c-25.781,4.761-54.193,9.918-81.252,15.077c-3.596,0.668-7.177,1.353-10.673,2.049c-20.28,3.924-39.455,7.817-55.777,11.507
		c-0.235-0.496-0.447-1.009-0.638-1.543c-1.9-5.297-0.459-11.056,3.855-15.403c10.193-10.266,40.089-15.816,88.023-24.023
		C137.365,107.99,184,100,208.072,91.209 M208.07,83.208c-0.917,0-1.844,0.158-2.743,0.486
		c-23.385,8.541-69.876,16.507-85.154,19.125c-51.001,8.732-80.43,14.257-92.362,26.273c-6.445,6.493-8.632,15.589-5.709,23.74
		c0.276,0.77,0.591,1.532,0.937,2.263c1.344,2.84,4.19,4.58,7.229,4.58c0.585,0,1.176-0.064,1.766-0.198
		c14.688-3.32,32.853-7.067,55.533-11.456c3.319-0.661,6.777-1.325,10.614-2.038c20.082-3.829,40.785-7.634,60.806-11.313
		c6.942-1.276,13.777-2.532,20.437-3.762c0.137-0.025,0.274-0.054,0.41-0.087c20.731-4.963,34.384-10.703,38.387-23.962
		c2.102-6.952,0.743-14.396-3.728-20.42C212.954,84.364,210.55,83.208,208.07,83.208L208.07,83.208z"/>
</g>
</svg>
