<?xml version="1.0" encoding="utf-8"?>
<!-- Generator: Adobe Illustrator 19.2.1, SVG Export Plug-In . SVG Version: 6.00 Build 0)  -->
<svg version="1.1" id="Layer_1" xmlns="http://www.w3.org/2000/svg" xmlns:xlink="http://www.w3.org/1999/xlink" x="0px" y="0px"
	 viewBox="0 0 240 240" enable-background="new 0 0 240 240" xml:space="preserve">
<g>
	<path fill="#BDBDBD" d="M219.2,222c-0.1,0-0.3,0-0.4,0L20.4,201.6c-2-0.2-3.6-1.9-3.6-4V180c0-2.1,1.6-3.8,3.6-4l198.5-20.4
		c0.1,0,0.3,0,0.4,0c1,0,1.9,0.4,2.7,1c0.8,0.8,1.3,1.8,1.3,3V218c0,1.1-0.5,2.2-1.3,3C221.2,221.6,220.2,222,219.2,222z
		 M207.2,204.5v-31.4L51.2,188.8L207.2,204.5z"/>
	<path fill="#1D1D1D" d="M219.2,159.5v29v0.5v29L20.8,197.6V189v-0.5V180L219.2,159.5 M211.2,208.9V189v-0.5v-19.9L28.8,187v1.5v0.5
		v1.5L211.2,208.9 M219.2,151.5c-0.3,0-0.5,0-0.8,0L19.9,172c-4.1,0.4-7.2,3.9-7.2,8v8.6v0.5v8.6c0,4.1,3.1,7.5,7.2,8L218.4,226
		c0.3,0,0.5,0,0.8,0c2,0,3.9-0.7,5.4-2.1c1.7-1.5,2.6-3.7,2.6-5.9v-29v-0.5v-29c0-2.3-1-4.4-2.6-5.9
		C223.1,152.3,221.2,151.5,219.2,151.5L219.2,151.5z M91.1,188.8l112.1-11.3v11.1v0.5v11.1L91.1,188.8L91.1,188.8z"/>
</g>
<g>
	<rect x="75.4" y="176.1" fill="#BDBDBD" width="8" height="25.5"/>
</g>
<line fill-rule="evenodd" clip-rule="evenodd" fill="#48AAB5" stroke="#1D1D1D" stroke-width="4" stroke-miterlimit="10" x1="20.8" y1="110" x2="20.8" y2="81"/>
<g>
	<path fill-rule="evenodd" clip-rule="evenodd" fill="#BDBDBD" d="M219.2,150c-0.9,0-1.9-0.3-2.6-1l-51.4-44c-0.5-0.4-0.9-1-1.1-1.6
		v27.9c0,6.2-5.1,11.3-11.3,11.3H28.1c-6.3,0-11.3-5.1-11.3-11.3v-88c0-6.2,5.1-11.3,11.3-11.3h124.7c6.2,0,11.3,5.1,11.3,11.3v27.9
		c0.2-0.6,0.6-1.2,1.1-1.6l51.4-44c0.7-0.6,1.7-1,2.6-1c0.6,0,1.1,0.1,1.7,0.4c1.4,0.7,2.3,2.1,2.3,3.6V146c0,1.6-0.9,3-2.3,3.6
		C220.4,149.9,219.8,150,219.2,150z"/>
	<path fill="#1D1D1D" d="M219.2,28.7V146l-51.4-44V72.7L219.2,28.7 M152.8,36c4.1,0,7.3,3.3,7.3,7.3v88c0,4.1-3.3,7.3-7.3,7.3H28.1
		c-4.1,0-7.3-3.3-7.3-7.3v-88c0-4.1,3.3-7.3,7.3-7.3H152.8 M219.2,20.7c-1.9,0-3.7,0.7-5.2,1.9l-45.9,39.3V43.3
		c0-8.5-6.9-15.3-15.3-15.3H28.1c-8.5,0-15.3,6.9-15.3,15.3v88c0,8.5,6.9,15.3,15.3,15.3h124.7c8.5,0,15.3-6.9,15.3-15.3v-18.6
		l45.9,39.3c1.5,1.3,3.3,1.9,5.2,1.9c1.1,0,2.3-0.2,3.3-0.7c2.8-1.3,4.7-4.1,4.7-7.3V28.7c0-3.1-1.8-6-4.7-7.3
		C221.5,20.9,220.4,20.7,219.2,20.7L219.2,20.7z"/>
</g>
<rect fill-rule="evenodd" clip-rule="evenodd" fill="none" width="240" height="240"/>
<rect fill-rule="evenodd" clip-rule="evenodd" fill="none" width="240" height="240"/>
<g>
	<rect x="67.4" y="170.7" fill="#1D1D1D" width="8" height="36.2"/>
</g>
</svg>
