<?xml version="1.0" encoding="iso-8859-1"?>
<!-- Generator: Adobe Illustrator 19.2.1, SVG Export Plug-In . SVG Version: 6.00 Build 0)  -->
<svg version="1.1" id="Layer_1" xmlns="http://www.w3.org/2000/svg" xmlns:xlink="http://www.w3.org/1999/xlink" x="0px" y="0px"
	 viewBox="0 0 240 240" style="enable-background:new 0 0 240 240;" xml:space="preserve">
<rect style="fill-rule:evenodd;clip-rule:evenodd;fill:none;" width="240" height="240"/>
<g>
	<path style="fill-rule:evenodd;clip-rule:evenodd;fill:#BDBDBD;" d="M168.823,222.874c-0.346,0-0.695-0.045-1.042-0.139
		l-17.812-4.803c-1.183-0.319-2.153-1.161-2.636-2.286c-0.481-1.125-0.422-2.409,0.162-3.485
		c0.405-0.747,40.354-75.066,22.054-105.826c-5.187-8.718-14.638-12.956-28.894-12.956c-6.437,0-13.866,0.91-22.082,2.705
		c-2.601,0.568-5.244,0.856-7.856,0.856c-41.713,0-68.752-72.017-69.883-75.083c-0.734-1.99,0.213-4.207,2.159-5.052
		c0.518-0.225,1.059-0.332,1.592-0.332c1.468,0,2.875,0.812,3.575,2.202c0.308,0.61,31.126,60.986,66.552,60.984
		c2.871,0,5.741-0.409,8.532-1.213c12.148-3.504,23.002-5.281,32.259-5.281c16.929,0,29.187,5.835,36.434,17.342
		c24.044,38.182-17.718,126.358-19.507,130.094C171.752,222.016,170.331,222.874,168.823,222.874z"/>
	<path style="fill:#1D1D1D;" d="M44.588,20.474c0,0,31.781,63.186,70.125,63.186c3.172,0,6.392-0.433,9.64-1.37
		c12.238-3.53,22.531-5.124,31.15-5.124c81.215,0,13.319,141.707,13.319,141.707l-17.811-4.803c0,0,67.747-124.69-10.355-124.69
		c-6.568,0-14.178,0.884-22.936,2.797c-2.376,0.519-4.709,0.764-7.002,0.764C71.314,92.941,44.588,20.474,44.588,20.474
		 M44.584,12.473c-1.065,0-2.147,0.214-3.183,0.664c-3.892,1.69-5.788,6.125-4.319,10.106c0.285,0.773,7.119,19.146,19.058,37.781
		c16.97,26.487,35.333,39.918,54.578,39.918c2.899,0,5.829-0.319,8.71-0.948c7.936-1.734,15.078-2.613,21.228-2.613
		c12.724,0,21.05,3.598,25.454,10.999c6.701,11.26,5.198,32.72-4.231,60.428c-7.634,22.431-17.797,41.259-17.899,41.446
		c-1.167,2.151-1.286,4.72-0.321,6.969c0.965,2.25,2.906,3.935,5.269,4.572l17.811,4.803c0.693,0.187,1.394,0.277,2.084,0.277
		c3.017,0,5.858-1.715,7.213-4.544c0.449-0.938,11.094-23.278,19.012-50.562c11.05-38.075,11.141-66.132,0.273-83.391
		c-8.027-12.747-21.424-19.211-39.818-19.211c-9.632,0-20.858,1.83-33.367,5.438c-2.43,0.701-4.928,1.057-7.423,1.057
		c-16.645,0-32.687-15.561-43.214-28.615C59.436,32.086,51.811,17.03,51.735,16.88C50.336,14.098,47.521,12.473,44.584,12.473
		L44.584,12.473z"/>
</g>
</svg>
