<?xml version="1.0" encoding="utf-8"?>
<!-- Generator: Adobe Illustrator 19.2.1, SVG Export Plug-In . SVG Version: 6.00 Build 0)  -->
<svg version="1.1" id="Layer_1" xmlns="http://www.w3.org/2000/svg" xmlns:xlink="http://www.w3.org/1999/xlink" x="0px" y="0px"
	 viewBox="0 0 240 240" enable-background="new 0 0 240 240" xml:space="preserve">
<circle id="XMLID_32_" fill="#48AAB5" stroke="#1D1D1D" stroke-width="8" stroke-miterlimit="10" cx="120" cy="120" r="103.7"/>
<path fill="#1D1D1D" d="M193.6,174c-5,3-10.5,5.7-16.4,8c2.2-15.1,2.3-31,0.1-47c3.5-1.5,6.8-3.2,10-5c17-9.8,27.9-23,32.3-38.8
	c-1.5-5.4-3.5-10.5-5.8-15.5c-0.4,24.7-16.7,39.4-30.4,47.3c-2.3,1.4-4.8,2.6-7.3,3.8c-0.6-3.4-1.3-6.7-2.2-10.1
	c-3.4-13.9-8.9-27.2-15.9-39.4c16.5-8.1,27.2-21.2,27.2-36.1c0-0.7,0-1.3-0.1-2c-3.1-2.5-6.3-4.8-9.7-6.9c1.1,2.9,1.7,5.8,1.7,8.9
	c0,12-9.2,22.7-23.4,29.3c-7.7-11.7-16.8-22.1-27-30.7c10.7-7.5,21.8-12.5,32-14.9l-0.3-1.3c-3.6-1.4-7.2-2.7-11-3.7
	c-9.5,3.4-18.7,8.4-27.4,14.7c-8.7-6.4-18-11.4-27.6-14.8c-3.6,1-7.2,2.2-10.7,3.5l-0.4,1.5c10.2,2.4,21.2,7.4,32,14.9
	c-10.1,8.6-19.3,19-27,30.7C72.4,64,63.2,53.4,63.2,41.3c0-3.2,0.7-6.4,1.9-9.3c-3.4,2.1-6.7,4.4-9.8,6.9c-0.1,0.8-0.1,1.6-0.1,2.4
	c0,14.8,10.8,28,27.2,36.1c-7,12.1-12.5,25.4-15.9,39.4c-0.8,3.4-1.5,6.7-2.2,10.1c-2.5-1.2-5-2.4-7.3-3.8
	c-13.9-8-30.5-22.9-30.5-48.1h-0.1c-2.4,4.9-4.4,10.1-6,15.4c4.2,16.1,15.2,29.7,32.5,39.7c3.2,1.8,6.5,3.5,10,5
	c-2.2,16-2.1,31.9,0.1,47c-5.9-2.3-11.4-4.9-16.4-8c-10-6-21.2-15.3-27.5-29.1c2.4,9.6,6.1,18.7,11,27.1c3.7,3.2,7.9,6.1,12.4,8.9
	c6.7,4,14.2,7.4,22.2,10.2c1.5,6.9,3.4,13.7,5.9,20.1c2,1.1,4,2.1,6.1,3L80,213c-2.5-6-4.6-12.4-6.2-19.1c14.3,4,30.1,6.1,46.4,6.1
	c16.4,0,32.1-2.1,46.4-6.1c-1.6,6.6-3.7,13-6.2,19.1l2.9,1.2c2.2-1,4.4-2.1,6.5-3.3c2.4-6.4,4.3-13,5.7-19.8
	c8-2.8,15.5-6.2,22.2-10.2c4.2-2.5,8-5.2,11.4-8c4.7-7.9,8.4-16.6,10.9-25.7C213.6,159.7,203,168.4,193.6,174z M120.2,45
	c9.4,7.6,18.4,17.2,26.1,28.6c-7.8,2.6-16.7,4.1-26.1,4.1c-9.4,0-18.3-1.5-26.1-4.1C101.8,62.2,110.8,52.6,120.2,45z M74.3,118.6
	c3.5-14.2,8.8-27,15.4-38.1c9.1,3.3,19.5,5.2,30.5,5.2c11,0,21.4-1.9,30.5-5.2c6.6,11.2,11.9,23.9,15.4,38.1
	c0.9,3.8,1.7,7.6,2.3,11.4c-14.6,5.4-31.4,8.1-48.2,8.1c-16.8,0-33.6-2.7-48.2-8.1C72.7,126.2,73.4,122.4,74.3,118.6z M168.5,185
	c-14.6,4.5-31.1,6.9-48.3,6.9c-17.2,0-33.7-2.4-48.3-6.9c-2.6-15-3-31-1.1-46.9c14.8,5.3,31.7,8.1,49.4,8.1
	c17.6,0,34.6-2.8,49.4-8.1C171.5,154.1,171.1,170,168.5,185z"/>
<g>
	<path fill-rule="evenodd" clip-rule="evenodd" fill="#BDBDBD" stroke="#1D1D1D" stroke-width="8" stroke-miterlimit="10" d="
		M175.5,15.3c26.9,0,48.8,21.8,48.8,48.8s-21.8,48.8-48.8,48.8S126.7,91,126.7,64.1S148.6,15.3,175.5,15.3z"/>
	<g>
		<rect x="170.7" y="30.7" fill-rule="evenodd" clip-rule="evenodd" fill="#1D1D1D" width="11.7" height="11.8"/>
		<rect x="158.9" y="48.3" fill-rule="evenodd" clip-rule="evenodd" fill="#1D1D1D" width="23.5" height="11.8"/>
		<rect x="158.9" y="83.7" fill-rule="evenodd" clip-rule="evenodd" fill="#1D1D1D" width="35.2" height="11.8"/>
		<rect x="170.7" y="48.3" fill-rule="evenodd" clip-rule="evenodd" fill="#1D1D1D" width="11.7" height="47.1"/>
	</g>
</g>
<rect fill-rule="evenodd" clip-rule="evenodd" fill="none" width="240" height="240"/>
</svg>
