<?xml version="1.0" encoding="iso-8859-1"?>
<!-- Generator: Adobe Illustrator 19.2.1, SVG Export Plug-In . SVG Version: 6.00 Build 0)  -->
<svg version="1.1" id="orientConstraint" xmlns="http://www.w3.org/2000/svg" xmlns:xlink="http://www.w3.org/1999/xlink" x="0px"
	 y="0px" viewBox="0 0 240 240" style="enable-background:new 0 0 240 240;" xml:space="preserve">
<g>
	<path style="fill:#BDBDBD;" d="M211.643,223.649c-10.513-0.001-19.01-3.227-25.257-9.588
		c-14.133-14.386-13.651-41.451-13.142-70.105l0.002-0.12c0.093-5.235,0.188-10.649,0.188-15.926
		c0-19.158-5.826-35.11-16.849-46.132c-9.634-9.634-22.627-14.94-36.586-14.94c-36.713,0-53.435,31.658-53.435,61.072
		c0,5.351,0.098,10.811,0.193,16.092c0.513,28.632,0.998,55.676-13.129,70.058c-6.251,6.363-14.753,9.59-25.271,9.59h-4v-15.321h4
		c6.342,0,11.033-1.637,14.341-5.004c9.623-9.798,9.195-33.722,8.741-59.05c-0.096-5.348-0.195-10.877-0.195-16.364
		c0-23.31,7.378-43.008,21.335-56.966C85.107,58.417,101.948,51.517,120,51.517s34.893,6.899,47.42,19.427
		c13.958,13.958,21.336,33.657,21.336,56.966c0,5.36-0.096,10.791-0.188,16.043l-0.005,0.275
		c-0.451,25.351-0.878,49.294,8.754,59.097c3.307,3.367,7.992,5.003,14.326,5.003h4v15.321H211.643z"/>
	<path style="fill:#1D1D1D;" d="M120,55.517c16.983,0,32.819,6.483,44.592,18.256c13.191,13.191,20.164,31.912,20.164,54.137
		c0,5.418-0.098,10.923-0.192,16.248c-0.467,26.212-0.907,50.972,9.899,61.971c4.097,4.172,9.717,6.199,17.18,6.199v7.321
		c-9.398-0.001-16.935-2.823-22.403-8.39c-12.956-13.19-12.49-39.44-11.996-67.232c0.094-5.292,0.191-10.764,0.191-16.117
		c0-20.242-6.232-37.172-18.02-48.961C149.026,68.56,135.028,62.838,120,62.838c-27.662,0-57.435,20.363-57.435,65.072
		c0,5.368,0.098,10.855,0.193,16.163c0.497,27.769,0.967,53.999-11.984,67.184c-5.47,5.568-13.012,8.392-22.418,8.392v-7.321
		c7.472,0,13.096-2.029,17.195-6.201c10.799-10.994,10.356-35.733,9.887-61.923c-0.096-5.339-0.194-10.86-0.194-16.293
		c0-22.225,6.973-40.946,20.164-54.137C87.181,62,103.017,55.517,120,55.517 M120,47.517c-19.12,0-36.965,7.315-50.248,20.599
		C55.027,82.84,47.244,103.517,47.244,127.91c0,5.513,0.099,11.066,0.196,16.437c0.419,23.389,0.852,47.574-7.595,56.174
		c-1.605,1.634-4.543,3.807-11.487,3.807h-8v8v7.321v8h8c11.631,0,21.094-3.629,28.125-10.786
		c15.303-15.579,14.804-43.438,14.275-72.933c-0.094-5.27-0.192-10.72-0.192-16.02c0-18.297,5.513-33.369,15.942-43.587
		c8.747-8.57,20.955-13.485,33.492-13.485c12.891,0,24.88,4.89,33.758,13.768c10.256,10.256,15.677,25.231,15.677,43.304
		c0,5.26-0.096,10.674-0.189,15.909l-0.001,0.066c-0.525,29.516-1.021,57.396,14.287,72.98c7.028,7.154,16.486,10.783,28.11,10.784
		l8.001,0.001v-8.001v-7.321v-8h-8c-6.934,0-9.868-2.171-11.472-3.805c-8.456-8.607-8.025-32.814-7.608-56.223l0.004-0.223
		c0.093-5.287,0.189-10.754,0.189-16.167c0-24.393-7.783-45.07-22.507-59.794C156.965,54.832,139.12,47.517,120,47.517L120,47.517z"
		/>
</g>
<rect x="149.609" y="66" style="fill-rule:evenodd;clip-rule:evenodd;fill:#1D1D1D;" width="23.391" height="23.391"/>
<g>
	<path style="fill:#AE9CDB;" d="M155.354,111.315c-6.792,0-13.667-2.976-18.861-8.165c-5.194-5.188-8.174-12.055-8.175-18.841
		c-0.001-5.589,2.04-10.707,5.745-14.409l26.492-26.465c3.706-3.701,8.826-5.74,14.42-5.74c1.07,0,2.144,0.074,3.211,0.219
		c-1.347-1.731-2.078-3.85-2.078-6.08c0-2.655,1.035-5.15,2.914-7.026l11.005-10.813c3.682-3.678,8.802-5.716,14.395-5.716
		c6.791,0,13.664,2.976,18.858,8.164c5.195,5.19,8.174,12.06,8.174,18.846c-0.001,5.589-2.042,10.706-5.749,14.407l-26.49,26.464
		c-3.705,3.701-8.825,5.739-14.417,5.739c-0.001,0-0.001,0-0.001,0c-1.071,0-2.145-0.074-3.214-0.219
		c1.35,1.734,2.08,3.853,2.08,6.083c0,2.653-1.034,5.147-2.912,7.023l-11.006,10.814
		C166.064,109.278,160.944,111.315,155.354,111.315L155.354,111.315z M148.23,83.833c-0.218,0.706,0.13,3.085,2.314,5.267
		c1.743,1.742,3.674,2.359,4.798,2.359c0.256,0,0.416-0.031,0.495-0.052l10.885-10.692c1.321-1.321,2.97-2.226,4.77-2.636
		c-1.989-1.194-3.861-2.651-5.555-4.342c-1.368-1.367-2.289-3.062-2.688-4.908L148.23,83.833z M188.277,41.518
		c1.989,1.195,3.861,2.651,5.555,4.343c1.368,1.366,2.288,3.062,2.688,4.907l15.02-15.004c0.218-0.705-0.127-3.085-2.312-5.269
		c-1.742-1.741-3.673-2.358-4.797-2.358c-0.259,0-0.419,0.031-0.498,0.052l-10.883,10.693
		C191.727,40.204,190.078,41.108,188.277,41.518z"/>
	<path style="fill:#1D1D1D;" d="M204.421,12.281c5.516,0,11.412,2.38,16.031,6.994c8.283,8.276,9.374,20.654,2.426,27.594
		l-26.491,26.464c-3.074,3.07-7.213,4.569-11.591,4.569c-5.517,0-11.413-2.38-16.032-6.994c-2.319-2.317-2.317-6.074,0-8.39
		c1.16-1.158,2.681-1.737,4.201-1.737c1.52,0,3.039,0.579,4.198,1.737c2.404,2.401,5.312,3.528,7.624,3.528
		c1.337,0,2.475-0.377,3.201-1.102l26.493-26.465c1.982-1.981,1.365-7.026-2.428-10.814c-2.403-2.401-5.31-3.528-7.623-3.528
		c-1.337,0-2.476,0.377-3.202,1.102l-10.982,10.791c-1.16,1.158-2.68,1.737-4.199,1.737c-1.52,0-3.039-0.579-4.198-1.737
		c-2.321-2.316-2.321-6.073,0-8.389l10.982-10.79C195.904,13.779,200.043,12.281,204.421,12.281 M174.974,41.696
		c5.517,0,11.412,2.38,16.031,6.994c2.321,2.318,2.317,6.073,0,8.389c-1.16,1.159-2.679,1.738-4.199,1.738
		c-1.519,0-3.039-0.579-4.2-1.738c-2.404-2.401-5.311-3.528-7.623-3.528c-1.337,0-2.476,0.377-3.203,1.103l-26.493,26.465
		c-1.98,1.979-1.362,7.023,2.431,10.812c2.403,2.402,5.312,3.529,7.624,3.529c1.336,0,2.473-0.376,3.198-1.101l10.984-10.79
		c1.16-1.159,2.679-1.738,4.199-1.738c1.519,0,3.039,0.579,4.199,1.738c2.32,2.319,2.318,6.073,0,8.389l-10.982,10.79
		c-3.072,3.069-7.21,4.567-11.587,4.567c-5.517,0-11.414-2.38-16.033-6.994c-8.287-8.276-9.374-20.653-2.43-27.59l26.492-26.464
		C166.456,43.195,170.596,41.696,174.974,41.696 M204.421,4.281c-6.647,0-12.761,2.445-17.219,6.884l-10.961,10.77l-0.022,0.022
		l-0.022,0.022c-2.637,2.632-4.089,6.132-4.089,9.857c0,0.676,0.048,1.344,0.142,2.001c-5.595,0.576-10.676,2.93-14.521,6.771
		l-26.492,26.465c-4.462,4.458-6.919,10.581-6.919,17.239c0.001,7.839,3.409,15.738,9.349,21.671
		c5.938,5.932,13.842,9.334,21.686,9.334c6.646,0,12.758-2.443,17.215-6.881l10.961-10.77l0.024-0.023l0.024-0.024
		c2.634-2.631,4.085-6.13,4.085-9.852c0-0.676-0.048-1.345-0.142-2.003c5.595-0.576,10.676-2.929,14.52-6.77l26.492-26.465
		c4.462-4.457,6.92-10.579,6.921-17.238c0-7.84-3.406-15.74-9.346-21.675C220.167,7.683,212.263,4.281,204.421,4.281L204.421,4.281z
		 M195.871,41.718l9.413-9.249c0.328,0.183,0.717,0.456,1.114,0.854c0.386,0.385,0.655,0.762,0.838,1.085l-9.651,9.641
		c-0.29-0.352-0.599-0.692-0.926-1.019c-0.353-0.353-0.713-0.696-1.079-1.031C195.677,41.907,195.775,41.813,195.871,41.718
		L195.871,41.718z M152.535,85.187l9.649-9.638c0.29,0.352,0.598,0.692,0.925,1.018c0.354,0.353,0.715,0.698,1.082,1.033
		c-0.099,0.093-0.196,0.187-0.293,0.283l-9.41,9.244c-0.328-0.183-0.717-0.457-1.114-0.854
		C152.988,85.887,152.719,85.51,152.535,85.187L152.535,85.187z"/>
</g>
<rect style="fill-rule:evenodd;clip-rule:evenodd;fill:none;" width="240" height="240"/>
</svg>
