<?xml version="1.0" encoding="utf-8"?>
<!-- Generator: Adobe Illustrator 19.2.1, SVG Export Plug-In . SVG Version: 6.00 Build 0)  -->
<svg version="1.1" id="Layer_1" xmlns="http://www.w3.org/2000/svg" xmlns:xlink="http://www.w3.org/1999/xlink" x="0px" y="0px"
	 viewBox="0 0 240 240" enable-background="new 0 0 240 240" xml:space="preserve">
<g>
	<g>
		<g>
			<rect x="23.7" y="16.1" fill-rule="evenodd" clip-rule="evenodd" fill="#BDBDBD" width="133.9" height="176.6"/>
			<path fill="#1D1D1D" d="M153.6,20.1v168.6H27.7V20.1H153.6 M161.6,12.1H19.7v184.6h141.9V12.1L161.6,12.1z"/>
		</g>
		<rect x="44.4" y="56.5" fill-rule="evenodd" clip-rule="evenodd" fill="#1D1D1D" width="92.6" height="8"/>
	</g>
	<rect x="44.4" y="81.4" fill-rule="evenodd" clip-rule="evenodd" fill="#1D1D1D" width="92.6" height="8"/>
	<rect x="44.4" y="104.5" fill-rule="evenodd" clip-rule="evenodd" fill="#1D1D1D" width="92.6" height="8"/>
	<rect x="44.4" y="129.3" fill-rule="evenodd" clip-rule="evenodd" fill="#1D1D1D" width="92.6" height="8"/>
</g>
<rect fill-rule="evenodd" clip-rule="evenodd" fill="none" width="240" height="240"/>
<rect fill-rule="evenodd" clip-rule="evenodd" fill="none" width="240" height="240"/>
<g>
	<g>
		<g>
			<rect x="126.5" y="125.7" fill-rule="evenodd" clip-rule="evenodd" fill="#BDBDBD" width="85.3" height="85.3"/>
			<path fill="#1D1D1D" d="M207.8,129.7V207h-77.3v-77.3H207.8 M215.8,121.7h-93.3V215h93.3V121.7L215.8,121.7z"/>
		</g>
	</g>
	<g>
		<path fill-rule="evenodd" clip-rule="evenodd" fill="#1D1D1D" d="M126.9,154.3h28.2v28.2h-28.2V154.3z"/>
		<path fill-rule="evenodd" clip-rule="evenodd" fill="#1D1D1D" d="M155.1,126.1h28.2v28.2h-28.2V126.1z"/>
		<path fill-rule="evenodd" clip-rule="evenodd" fill="#1D1D1D" d="M155.1,182.4h28.2v28.2h-28.2V182.4z"/>
		<path fill-rule="evenodd" clip-rule="evenodd" fill="#1D1D1D" d="M183.2,154.3h28.2v28.2h-28.2V154.3z"/>
	</g>
</g>
</svg>
