<?xml version="1.0" encoding="utf-8"?>
<!-- Generator: Adobe Illustrator 18.1.1, SVG Export Plug-In . SVG Version: 6.00 Build 0)  -->
<svg version="1.1" id="Layer_1" xmlns="http://www.w3.org/2000/svg" xmlns:xlink="http://www.w3.org/1999/xlink" x="0px" y="0px"
	 viewBox="0 0 245 195" enable-background="new 0 0 245 195" xml:space="preserve">
<g>
	<path fill="#BCBCBC" stroke="#000000" stroke-width="6" stroke-miterlimit="10" d="M3,156V7c0,0,0.4-3,3-3c0.3,0,73,0,73,0l24,26
		h98c0,0,2.9,0.3,3,3v123c0,0-0.5,3-3,3H6C6,159,3,158.5,3,156z"/>
	
		<circle opacity="0.7" fill="#FFFFFF" stroke="#FFFFFF" stroke-width="6" stroke-linejoin="round" stroke-miterlimit="10" cx="48.5" cy="151.5" r="41.5"/>
	
		<circle opacity="0.4" fill="#DEB9AA" stroke="#000000" stroke-width="6" stroke-linejoin="round" stroke-miterlimit="10" cx="48.5" cy="151.5" r="41.5"/>
	
		<circle opacity="0.7" fill="#FFFFFF" stroke="#FFFFFF" stroke-width="6" stroke-linejoin="round" stroke-miterlimit="10" cx="91" cy="148" r="45"/>
	
		<circle opacity="0.6" fill="#DDA690" stroke="#000000" stroke-width="6" stroke-linejoin="round" stroke-miterlimit="10" cx="91" cy="148" r="45"/>
	
		<circle opacity="0.7" fill="#FFFFFF" stroke="#FFFFFF" stroke-width="6" stroke-linejoin="round" stroke-miterlimit="10" cx="138.5" cy="142.5" r="50.5"/>
	
		<circle opacity="0.8" fill="#DD8463" stroke="#000000" stroke-width="6" stroke-linejoin="round" stroke-miterlimit="10" cx="138.5" cy="142.5" r="50.5"/>
	
		<circle fill="#DF6F41" stroke="#000000" stroke-width="6" stroke-linejoin="round" stroke-miterlimit="10" cx="188.5" cy="139.5" r="53.5"/>
</g>
</svg>
