<?xml version="1.0" encoding="iso-8859-1"?>
<!-- Generator: Adobe Illustrator 19.2.1, SVG Export Plug-In . SVG Version: 6.00 Build 0)  -->
<svg version="1.1" id="Layer_1" xmlns="http://www.w3.org/2000/svg" xmlns:xlink="http://www.w3.org/1999/xlink" x="0px" y="0px"
	 viewBox="0 0 240 240" style="enable-background:new 0 0 240 240;" xml:space="preserve">
<rect style="fill-rule:evenodd;clip-rule:evenodd;fill:none;" width="240" height="240"/>
<g>
	<path style="fill-rule:evenodd;clip-rule:evenodd;fill:#BDBDBD;" d="M154.873,223.793c-20.784,0-38.364-14.861-41.802-35.338
		c-0.195-1.16,0.131-2.348,0.891-3.246c0.76-0.897,1.877-1.416,3.054-1.416h13.065c1.825,0,3.419,1.235,3.874,3.003
		c2.454,9.537,11.057,16.197,20.918,16.197c11.911,0,21.602-9.69,21.602-21.601s-9.69-21.6-21.602-21.6
		c-0.427,0-0.851,0.017-1.271,0.04c-0.076,0.005-0.152,0.007-0.229,0.007c-0.206,0-0.41-0.016-0.61-0.047H26.875
		c-5.735,0-10.4-4.666-10.4-10.4s4.666-10.399,10.4-10.399h127.999c23.38,0,42.4,19.021,42.4,42.399
		C197.273,204.772,178.253,223.793,154.873,223.793z"/>
	<path style="fill:#1D1D1D;" d="M154.873,142.993c21.21,0,38.401,17.193,38.401,38.4c0,21.207-17.191,38.4-38.401,38.4
		c-19.025,0-34.809-13.841-37.857-32h13.065c2.842,11.041,12.864,19.2,24.792,19.2c14.138,0,25.601-11.462,25.601-25.6
		c0-14.138-11.463-25.6-25.601-25.6c-0.504,0-1.003,0.019-1.499,0.047v-0.047H26.875c-3.536,0-6.401-2.865-6.401-6.4
		c0-3.535,2.865-6.4,6.401-6.4H154.62c0.029,0,0.056,0.004,0.085,0.004C154.761,142.997,154.817,142.993,154.873,142.993
		 M154.873,134.993c-0.043,0-0.086,0-0.129,0.001c-0.041-0.001-0.083-0.001-0.124-0.001H26.875c-7.941,0-14.401,6.46-14.401,14.4
		c0,7.94,6.46,14.4,14.401,14.4h125.654c0.283,0.031,0.569,0.047,0.856,0.047c0.15,0,0.3-0.004,0.451-0.013
		c0.395-0.023,0.734-0.034,1.038-0.034c9.705,0,17.601,7.895,17.601,17.6c0,9.705-7.896,17.6-17.601,17.6
		c-8.036,0-15.045-5.426-17.045-13.194c-0.91-3.535-4.097-6.006-7.747-6.006h-13.065c-2.353,0-4.587,1.036-6.107,2.833
		c-1.52,1.796-2.172,4.171-1.783,6.492c1.796,10.698,7.346,20.489,15.629,27.567c8.382,7.163,19.078,11.109,30.117,11.109
		c25.585,0,46.401-20.815,46.401-46.4C201.274,155.808,180.459,134.993,154.873,134.993L154.873,134.993z"/>
</g>
<g>
	<path style="fill-rule:evenodd;clip-rule:evenodd;fill:#BDBDBD;" d="M52.875,101.093c-5.735,0-10.4-4.666-10.4-10.4
		s4.666-10.4,10.4-10.4h125.911c0.197-0.031,0.397-0.047,0.6-0.047c0.073,0,0.147,0.002,0.221,0.006
		c0.42,0.024,0.842,0.041,1.268,0.041c11.911,0,21.602-9.69,21.602-21.6s-9.69-21.6-21.602-21.6
		c-9.862,0-18.464,6.661-20.918,16.197c-0.455,1.768-2.049,3.003-3.874,3.003h-13.064c-1.177,0-2.294-0.518-3.054-1.416
		c-0.76-0.898-1.086-2.086-0.891-3.246c3.437-20.476,21.017-35.338,41.801-35.338c23.38,0,42.4,19.021,42.4,42.4
		s-19.021,42.4-42.4,42.4C180.846,101.093,52.875,101.093,52.875,101.093z"/>
	<path style="fill:#1D1D1D;" d="M180.873,20.293c21.21,0,38.401,17.193,38.401,38.4c0,21.207-17.191,38.4-38.401,38.4
		c-0.057,0-0.112-0.004-0.169-0.004c-0.028,0-0.056,0.004-0.085,0.004H52.875c-3.536,0-6.401-2.865-6.401-6.4
		c0-3.535,2.865-6.4,6.401-6.4h126.499v-0.047c0.496,0.029,0.996,0.047,1.499,0.047c14.138,0,25.601-11.462,25.601-25.6
		s-11.463-25.6-25.601-25.6c-11.928,0-21.95,8.159-24.792,19.2h-13.065C146.064,34.134,161.848,20.293,180.873,20.293
		 M180.873,12.293c-11.039,0-21.735,3.945-30.117,11.109c-8.283,7.078-13.834,16.869-15.629,27.567
		c-0.39,2.321,0.262,4.695,1.783,6.492c1.52,1.796,3.754,2.833,6.107,2.833h13.065c3.65,0,6.838-2.471,7.747-6.006
		c1.999-7.768,9.008-13.194,17.045-13.194c9.705,0,17.601,7.895,17.601,17.6c0,9.705-7.896,17.6-17.601,17.6
		c-0.304,0-0.644-0.011-1.038-0.034c-0.154-0.009-0.308-0.013-0.462-0.013c-0.291,0-0.581,0.016-0.868,0.047H52.875
		c-7.941,0-14.401,6.46-14.401,14.4c0,7.94,6.46,14.4,14.401,14.4H180.62c0.038,0,0.078,0,0.119-0.001
		c0.045,0.001,0.09,0.001,0.135,0.001c25.585,0,46.401-20.815,46.401-46.4C227.274,33.108,206.459,12.293,180.873,12.293
		L180.873,12.293z"/>
</g>
<g>
	<path style="fill:#D6806D;" d="M120,159.75c-21.918,0-39.75-17.832-39.75-39.75c0-21.918,17.832-39.75,39.75-39.75
		c21.918,0,39.75,17.832,39.75,39.75C159.75,141.918,141.918,159.75,120,159.75z"/>
	<path style="fill:#1D1D1D;" d="M120,84.25c19.744,0,35.75,16.006,35.75,35.75s-16.006,35.75-35.75,35.75S84.25,139.744,84.25,120
		S100.256,84.25,120,84.25 M120,76.25c-24.124,0-43.75,19.626-43.75,43.75s19.626,43.75,43.75,43.75s43.75-19.626,43.75-43.75
		S144.124,76.25,120,76.25L120,76.25z"/>
</g>
</svg>
