<?xml version="1.0" encoding="iso-8859-1"?>
<!-- Generator: Adobe Illustrator 19.2.1, SVG Export Plug-In . SVG Version: 6.00 Build 0)  -->
<svg version="1.1" id="Layer_1" xmlns="http://www.w3.org/2000/svg" xmlns:xlink="http://www.w3.org/1999/xlink" x="0px" y="0px"
	 viewBox="0 0 240 240" style="enable-background:new 0 0 240 240;" xml:space="preserve">
<rect x="22" y="175.747" style="fill-rule:evenodd;clip-rule:evenodd;fill:#48AAB5;stroke:#1D1D1D;stroke-width:8;stroke-miterlimit:10;" width="21.79" height="35.964"/>
<rect x="43.79" y="160.333" style="fill-rule:evenodd;clip-rule:evenodd;fill:#48AAB5;stroke:#1D1D1D;stroke-width:8;stroke-miterlimit:10;" width="21.79" height="51.377"/>
<rect x="65.578" y="175.747" style="fill-rule:evenodd;clip-rule:evenodd;fill:#48AAB5;stroke:#1D1D1D;stroke-width:8;stroke-miterlimit:10;" width="21.79" height="35.964"/>
<rect x="87.369" y="160.333" style="fill-rule:evenodd;clip-rule:evenodd;fill:#48AAB5;stroke:#1D1D1D;stroke-width:8;stroke-miterlimit:10;" width="21.79" height="51.377"/>
<rect x="109.158" y="175.747" style="fill-rule:evenodd;clip-rule:evenodd;fill:#48AAB5;stroke:#1D1D1D;stroke-width:8;stroke-miterlimit:10;" width="21.79" height="35.964"/>
<rect x="130.948" y="160.333" style="fill-rule:evenodd;clip-rule:evenodd;fill:#48AAB5;stroke:#1D1D1D;stroke-width:8;stroke-miterlimit:10;" width="21.79" height="51.377"/>
<rect x="152.737" y="175.747" style="fill-rule:evenodd;clip-rule:evenodd;fill:#48AAB5;stroke:#1D1D1D;stroke-width:8;stroke-miterlimit:10;" width="21.79" height="35.964"/>
<rect x="174.528" y="160.333" style="fill-rule:evenodd;clip-rule:evenodd;fill:#48AAB5;stroke:#1D1D1D;stroke-width:8;stroke-miterlimit:10;" width="21.79" height="51.377"/>
<rect x="196.316" y="175.747" style="fill-rule:evenodd;clip-rule:evenodd;fill:#48AAB5;stroke:#1D1D1D;stroke-width:8;stroke-miterlimit:10;" width="21.79" height="35.964"/>
<g>
	<g>
		<path style="fill:#BDBDBD;" d="M31.852,82.074c-2.209,0-4-1.791-4-4V55.438h-6.326c-2.209,0-4-1.791-4-4V45.16
			c0-1.08,0.437-2.113,1.21-2.866c0.748-0.728,1.749-1.134,2.79-1.134c0.036,0,0.422,0.008,0.578,0.008
			c0.99,0,1.958-0.088,2.875-0.261c0.89-0.167,1.649-0.445,2.323-0.85c0.595-0.357,1.091-0.823,1.514-1.424
			c0.378-0.538,0.642-1.286,0.782-2.222c0.293-1.958,1.976-3.406,3.956-3.406h6.63c2.209,0,4,1.791,4,4v41.069c0,2.209-1.791,4-4,4
			H31.852z"/>
		<path style="fill:#1D1D1D;" d="M40.183,37.004v41.069h-8.331V51.437H21.525V45.16c0.194,0.005,0.388,0.008,0.58,0.008
			c1.241,0,2.446-0.11,3.614-0.331c1.349-0.254,2.561-0.704,3.637-1.349c1.075-0.645,1.985-1.496,2.728-2.552
			c0.742-1.056,1.232-2.366,1.467-3.931H40.183 M40.183,29.004h-6.63c-3.96,0-7.324,2.897-7.911,6.813
			c-0.049,0.329-0.109,0.502-0.133,0.562c-0.106,0.14-0.191,0.203-0.267,0.248c-0.255,0.153-0.592,0.27-1,0.347
			c-0.679,0.128-1.395,0.193-2.135,0.193c-0.12,0-0.241-0.002-0.362-0.005c-0.073-0.002-0.146-0.003-0.218-0.003
			c-2.081,0-4.084,0.811-5.579,2.267c-1.548,1.506-2.421,3.574-2.421,5.733v6.278c0,4.418,3.582,8,8,8h2.326v18.636
			c0,4.418,3.582,8,8,8h8.331c4.418,0,8-3.582,8-8V37.004C48.183,32.586,44.601,29.004,40.183,29.004L40.183,29.004z"/>
	</g>
	<g>
		<path style="fill:#BDBDBD;" d="M66.885,82.836c-2.52,0-4.949-0.446-7.223-1.325c-2.453-0.951-4.609-2.529-6.411-4.691
			c-1.717-2.06-3.072-4.767-4.024-8.044c-0.916-3.15-1.362-6.884-1.362-11.413c0-4.354,0.46-8.121,1.367-11.194
			c0.953-3.231,2.305-5.914,4.02-7.971c1.802-2.163,3.958-3.741,6.41-4.689c2.273-0.88,4.704-1.326,7.223-1.326
			c2.558,0,5.008,0.446,7.282,1.326c2.441,0.945,4.602,2.516,6.422,4.668c1.743,2.063,3.11,4.751,4.067,7.991
			c0.906,3.076,1.366,6.842,1.366,11.195c0,4.528-0.445,8.261-1.361,11.413c-0.957,3.286-2.326,5.999-4.071,8.065
			c-1.82,2.152-3.98,3.723-6.421,4.669C71.892,82.391,69.442,82.836,66.885,82.836z M66.885,47.047c-0.4,0-0.592,0.068-0.628,0.092
			c-0.265,0.176-0.474,0.402-0.657,0.71c-0.298,0.5-0.538,1.091-0.714,1.762c-0.223,0.841-0.384,1.701-0.479,2.561
			c-0.104,0.93-0.165,1.844-0.182,2.717c-0.02,0.969-0.028,1.792-0.028,2.474c0,1.125,0.038,2.492,0.113,4.063
			c0.064,1.372,0.267,2.708,0.604,3.973c0.265,0.996,0.653,1.795,1.188,2.445c0.103,0.125,0.365,0.186,0.784,0.186
			c0.475,0,0.776-0.072,0.896-0.214c0.543-0.647,0.933-1.436,1.192-2.415c0.336-1.266,0.54-2.602,0.604-3.974
			c0.075-1.591,0.113-2.959,0.113-4.064c0-0.683-0.011-1.509-0.029-2.476c-0.016-0.846-0.084-1.736-0.202-2.643
			c-0.117-0.902-0.287-1.811-0.505-2.701c-0.153-0.623-0.375-1.173-0.661-1.635c-0.198-0.319-0.426-0.558-0.715-0.746
			C67.494,47.108,67.265,47.047,66.885,47.047z"/>
		<path style="fill:#1D1D1D;" d="M66.885,36.183c2.072,0,4.019,0.352,5.838,1.056c1.818,0.704,3.422,1.877,4.81,3.52
			c1.388,1.643,2.484,3.824,3.286,6.542c0.801,2.719,1.202,6.073,1.202,10.062c0,4.107-0.401,7.539-1.202,10.297
			c-0.802,2.757-1.898,4.958-3.286,6.6c-1.389,1.643-2.992,2.816-4.81,3.521c-1.819,0.704-3.766,1.056-5.838,1.056
			c-2.035,0-3.961-0.352-5.78-1.056c-1.818-0.704-3.412-1.878-4.781-3.521c-1.369-1.642-2.455-3.843-3.256-6.6
			c-0.802-2.758-1.203-6.19-1.203-10.297c0-3.99,0.401-7.343,1.203-10.062c0.801-2.718,1.887-4.899,3.256-6.542
			c1.369-1.643,2.963-2.816,4.781-3.52C62.924,36.535,64.85,36.183,66.885,36.183 M66.885,72.031c1.72,0,3.041-0.547,3.96-1.643
			c0.919-1.095,1.584-2.414,1.995-3.96c0.411-1.545,0.655-3.148,0.734-4.811c0.078-1.662,0.117-3.08,0.117-4.254
			c0-0.704-0.01-1.555-0.029-2.552c-0.02-0.998-0.098-2.024-0.235-3.08c-0.137-1.056-0.333-2.102-0.586-3.139
			c-0.255-1.036-0.636-1.965-1.144-2.787c-0.508-0.821-1.154-1.486-1.936-1.995c-0.782-0.508-1.74-0.763-2.874-0.763
			c-1.136,0-2.083,0.255-2.846,0.763c-0.763,0.509-1.389,1.173-1.877,1.995c-0.49,0.822-0.871,1.751-1.144,2.787
			c-0.275,1.037-0.47,2.083-0.586,3.139c-0.118,1.056-0.186,2.083-0.205,3.08c-0.021,0.997-0.029,1.848-0.029,2.552
			c0,1.173,0.038,2.591,0.117,4.254c0.078,1.663,0.323,3.266,0.734,4.811c0.411,1.546,1.065,2.866,1.966,3.96
			C63.912,71.484,65.203,72.031,66.885,72.031 M66.885,28.183c-3.016,0-5.932,0.537-8.668,1.596
			c-3.092,1.197-5.797,3.169-8.039,5.86c-2.065,2.477-3.675,5.641-4.783,9.4c-1.029,3.489-1.53,7.521-1.53,12.324
			c0,4.912,0.498,9.011,1.522,12.531c1.107,3.809,2.72,7.002,4.794,9.489c2.24,2.688,4.944,4.66,8.036,5.857
			c2.738,1.059,5.654,1.596,8.669,1.596c3.054,0,5.989-0.537,8.725-1.595c3.075-1.191,5.777-3.148,8.034-5.817
			c2.11-2.498,3.744-5.704,4.857-9.53c1.024-3.523,1.521-7.621,1.521-12.531c0-4.802-0.5-8.833-1.529-12.324
			c-1.115-3.778-2.746-6.954-4.848-9.443c-2.258-2.672-4.961-4.628-8.034-5.818C72.875,28.72,69.94,28.183,66.885,28.183
			L66.885,28.183z"/>
	</g>
	<g>
		<path style="fill:#BDBDBD;" d="M105.223,82.836c-2.52,0-4.949-0.446-7.223-1.325c-2.453-0.951-4.609-2.529-6.411-4.691
			c-1.717-2.06-3.072-4.767-4.024-8.044c-0.916-3.15-1.362-6.884-1.362-11.413c0-4.354,0.46-8.121,1.367-11.194
			c0.953-3.231,2.305-5.914,4.02-7.971c1.802-2.163,3.958-3.741,6.41-4.689c2.273-0.88,4.704-1.326,7.223-1.326
			c2.558,0,5.008,0.446,7.282,1.326c2.441,0.945,4.602,2.515,6.421,4.668c1.743,2.062,3.111,4.751,4.067,7.991
			c0.907,3.076,1.366,6.842,1.366,11.195c0,4.528-0.445,8.261-1.361,11.413c-0.956,3.287-2.326,6-4.072,8.066
			c-1.819,2.152-3.979,3.723-6.42,4.668C110.23,82.391,107.781,82.836,105.223,82.836z M105.223,47.047
			c-0.4,0-0.592,0.068-0.628,0.091c-0.265,0.177-0.474,0.403-0.657,0.711c-0.298,0.5-0.538,1.091-0.714,1.762
			c-0.223,0.844-0.384,1.703-0.479,2.559c-0.104,0.933-0.165,1.846-0.182,2.719c-0.02,0.969-0.028,1.792-0.028,2.474
			c0,1.125,0.038,2.492,0.113,4.063c0.064,1.372,0.267,2.708,0.604,3.973c0.265,0.996,0.653,1.795,1.188,2.445
			c0.103,0.125,0.365,0.186,0.784,0.186c0.327,0,0.747-0.037,0.895-0.213c0.544-0.647,0.934-1.437,1.194-2.417
			c0.335-1.263,0.539-2.6,0.604-3.974c0.075-1.583,0.112-2.951,0.112-4.063c0-0.683-0.01-1.509-0.029-2.476
			c-0.017-0.85-0.085-1.74-0.202-2.642c-0.117-0.903-0.287-1.812-0.505-2.702c-0.153-0.623-0.375-1.173-0.661-1.635
			c-0.198-0.319-0.426-0.557-0.715-0.745C105.832,47.108,105.603,47.047,105.223,47.047z"/>
		<path style="fill:#1D1D1D;" d="M105.223,36.183c2.073,0,4.019,0.352,5.838,1.056c1.818,0.704,3.422,1.877,4.81,3.52
			c1.388,1.643,2.484,3.824,3.286,6.542c0.801,2.719,1.202,6.073,1.202,10.062c0,4.107-0.401,7.539-1.202,10.297
			c-0.802,2.757-1.898,4.958-3.286,6.6c-1.389,1.643-2.992,2.816-4.81,3.521c-1.819,0.704-3.766,1.056-5.838,1.056
			c-2.035,0-3.961-0.352-5.78-1.056c-1.818-0.704-3.412-1.878-4.781-3.521c-1.37-1.642-2.455-3.843-3.256-6.6
			c-0.802-2.758-1.203-6.19-1.203-10.297c0-3.99,0.401-7.343,1.203-10.062c0.801-2.718,1.887-4.899,3.256-6.542
			c1.369-1.643,2.963-2.816,4.781-3.52C101.262,36.535,103.188,36.183,105.223,36.183 M105.223,72.031
			c1.721,0,3.041-0.547,3.96-1.643c0.919-1.095,1.584-2.414,1.995-3.96c0.411-1.545,0.655-3.148,0.734-4.811
			c0.078-1.662,0.117-3.08,0.117-4.254c0-0.704-0.01-1.555-0.029-2.552c-0.02-0.998-0.098-2.024-0.235-3.08
			c-0.137-1.056-0.333-2.102-0.586-3.139c-0.255-1.036-0.636-1.965-1.144-2.787c-0.508-0.821-1.154-1.486-1.936-1.995
			c-0.782-0.508-1.74-0.763-2.875-0.763c-1.136,0-2.083,0.255-2.846,0.763c-0.763,0.509-1.389,1.173-1.877,1.995
			c-0.49,0.822-0.871,1.751-1.144,2.787c-0.275,1.037-0.47,2.083-0.586,3.139c-0.118,1.056-0.186,2.083-0.205,3.08
			c-0.021,0.997-0.029,1.848-0.029,2.552c0,1.173,0.038,2.591,0.117,4.254c0.078,1.663,0.323,3.266,0.734,4.811
			c0.411,1.546,1.065,2.866,1.966,3.96C102.25,71.484,103.54,72.031,105.223,72.031 M105.223,28.183
			c-3.016,0-5.932,0.537-8.668,1.596c-3.092,1.197-5.797,3.169-8.039,5.86c-2.065,2.477-3.675,5.64-4.783,9.4
			c-1.029,3.489-1.53,7.521-1.53,12.325c0,4.912,0.498,9.011,1.522,12.531c1.107,3.809,2.72,7.002,4.794,9.489
			c2.24,2.688,4.944,4.66,8.036,5.857c2.738,1.059,5.654,1.596,8.669,1.596c3.054,0,5.99-0.537,8.725-1.595
			c3.075-1.191,5.777-3.148,8.034-5.817c2.11-2.498,3.744-5.704,4.857-9.53c1.024-3.523,1.521-7.621,1.521-12.531
			c0-4.802-0.5-8.833-1.529-12.324c-1.115-3.778-2.746-6.954-4.848-9.443c-2.258-2.672-4.961-4.628-8.034-5.818
			C111.214,28.72,108.278,28.183,105.223,28.183L105.223,28.183z"/>
	</g>
	<g>
		<path style="fill:#BDBDBD;" d="M150.556,82.836c-2.771,0-5.376-0.482-7.74-1.433c-2.412-0.969-4.505-2.356-6.219-4.123
			c-1.696-1.745-3.03-3.84-3.965-6.225c-0.921-2.353-1.389-4.946-1.389-7.708c0-2.779,0.417-5.413,1.239-7.831
			c0.857-2.525,2.151-4.753,3.847-6.621c1.71-1.887,3.815-3.375,6.256-4.421c2.407-1.032,5.148-1.555,8.146-1.555
			c2.158,0,4.271,0.287,6.278,0.854c2.115,0.598,4.044,1.527,5.733,2.762c1.76,1.289,3.207,2.907,4.304,4.813
			c1.13,1.964,1.78,4.262,1.935,6.831c0.065,1.101-0.325,2.179-1.081,2.982c-0.756,0.802-1.81,1.257-2.912,1.257h-8.154
			c-1.969,0-3.645-1.432-3.951-3.377c-0.229-1.451-0.529-1.844-2.21-1.844c-0.498,0-0.892,0.081-1.108,0.227
			c-0.406,0.273-0.729,0.621-0.992,1.065c-0.343,0.58-0.58,1.21-0.727,1.929c-0.181,0.888-0.272,1.773-0.272,2.636
			c0,0.819,0.091,1.671,0.27,2.532c0.147,0.715,0.381,1.354,0.695,1.901c0.213,0.371,0.486,0.658,0.858,0.9
			c0.292,0.19,0.76,0.23,1.101,0.23c0.59,0,1.368-0.078,1.728-0.451c0.483-0.5,0.792-1.249,0.943-2.287
			c0.286-1.965,1.972-3.423,3.958-3.423h8.038c1.155,0,2.253,0.499,3.013,1.369c0.76,0.87,1.106,2.025,0.951,3.17
			c-0.687,5.046-2.747,9.005-6.125,11.768C159.702,81.466,155.515,82.836,150.556,82.836z"/>
		<path style="fill:#1D1D1D;" d="M150.732,46.92c1.798,0,3.529,0.235,5.192,0.704c1.662,0.47,3.148,1.184,4.459,2.141
			c1.31,0.959,2.376,2.152,3.197,3.579c0.821,1.428,1.291,3.12,1.408,5.075h-8.155c-0.548-3.481-2.602-5.221-6.161-5.221
			c-1.33,0-2.445,0.303-3.344,0.909c-0.901,0.607-1.634,1.389-2.2,2.347c-0.567,0.959-0.968,2.015-1.203,3.168
			c-0.235,1.154-0.352,2.298-0.352,3.432c0,1.096,0.117,2.21,0.352,3.344c0.235,1.135,0.617,2.162,1.144,3.08
			c0.528,0.92,1.241,1.672,2.141,2.259c0.899,0.587,1.995,0.88,3.286,0.88c1.995,0,3.529-0.557,4.606-1.672
			c1.075-1.115,1.75-2.611,2.024-4.488h8.038c-0.548,4.029-2.112,7.099-4.693,9.211c-2.581,2.112-5.887,3.168-9.915,3.168
			c-2.27,0-4.352-0.382-6.248-1.144c-1.898-0.763-3.512-1.828-4.841-3.198c-1.33-1.369-2.367-3.001-3.11-4.899
			c-0.743-1.897-1.114-3.98-1.114-6.248c0-2.347,0.341-4.527,1.027-6.542c0.684-2.014,1.691-3.755,3.022-5.221
			c1.329-1.467,2.952-2.611,4.869-3.433C146.076,47.33,148.267,46.92,150.732,46.92 M165.164,66.457h0.005 M150.732,38.92
			c-3.543,0-6.814,0.632-9.723,1.879c-2.974,1.275-5.547,3.097-7.647,5.415c-2.061,2.272-3.633,4.973-4.668,8.021
			c-0.962,2.83-1.451,5.897-1.451,9.113c0,3.263,0.56,6.347,1.666,9.167c1.129,2.882,2.751,5.424,4.82,7.555
			c2.103,2.167,4.66,3.866,7.595,5.046c2.84,1.142,5.947,1.721,9.232,1.721c5.905,0,10.946-1.674,14.982-4.977
			c4.12-3.371,6.648-8.095,7.515-14.043c0.076-0.442,0.115-0.896,0.115-1.359c0-1.53-0.429-2.959-1.173-4.174
			c0.725-1.315,1.072-2.819,0.98-4.345c-0.192-3.191-1.019-6.078-2.459-8.581c-1.378-2.395-3.197-4.428-5.407-6.047
			c-2.081-1.521-4.438-2.658-7.009-3.385C155.733,39.258,153.256,38.92,150.732,38.92L150.732,38.92z"/>
	</g>
	<g>
		<path style="fill:#BDBDBD;" d="M210.669,82.074c-2.209,0-4-1.791-4-4v-17.19c0-0.887-0.034-1.739-0.103-2.534
			c-0.04-0.45-0.133-0.694-0.188-0.804c-0.002,0.001-0.006,0.002-0.011,0.002c-0.056,0-0.308-0.057-0.802-0.057
			c-0.557,0-0.765,0.089-0.767,0.09c-0.125,0.08-0.223,0.178-0.305,0.322c-0.164,0.29-0.277,0.645-0.342,1.076
			c-0.107,0.721-0.162,1.459-0.162,2.198v16.897c0,2.209-1.791,4-4,4h-8.33c-2.209,0-4-1.791-4-4V61.06
			c0-0.84-0.02-1.671-0.056-2.492c-0.017-0.383-0.075-0.717-0.177-1.017c-0.146-0.027-0.403-0.059-0.804-0.06
			c0.022,0.001-0.146,0.023-0.511,0.123c-0.038,0.01-0.182,0.06-0.423,0.254c-0.004,0.002-0.189,0.156-0.441,0.694
			c-0.062,0.133-0.267,0.666-0.267,1.911v17.601c0,2.209-1.791,4-4,4h-8.332c-2.209,0-4-1.791-4-4V47.741c0-2.209,1.791-4,4-4h7.862
			c0.911,0,1.75,0.304,2.423,0.817c2.071-1.087,4.411-1.638,6.964-1.638c2.498,0,4.836,0.502,6.949,1.493
			c0.834,0.391,1.601,0.877,2.296,1.456c0.348-0.264,0.708-0.519,1.082-0.765c2.203-1.449,4.788-2.184,7.686-2.184
			c1.966,0,3.835,0.249,5.556,0.74c1.939,0.555,3.643,1.47,5.064,2.721c1.455,1.281,2.587,2.932,3.367,4.909
			c0.73,1.851,1.101,4.033,1.101,6.485v20.3c0,2.209-1.791,4-4,4H210.669z"/>
		<path style="fill:#1D1D1D;" d="M207.912,46.92c1.603,0,3.089,0.196,4.459,0.587c1.369,0.392,2.542,1.018,3.521,1.878
			c0.977,0.861,1.74,1.985,2.288,3.374c0.547,1.389,0.821,3.061,0.821,5.016v20.3h-8.331V60.883c0-1.017-0.04-1.974-0.117-2.875
			c-0.08-0.899-0.294-1.681-0.645-2.347c-0.353-0.665-0.871-1.193-1.555-1.584c-0.685-0.39-1.614-0.586-2.787-0.586
			c-1.174,0-2.122,0.226-2.846,0.675c-0.724,0.45-1.291,1.037-1.701,1.76c-0.411,0.725-0.685,1.546-0.821,2.465
			c-0.138,0.919-0.206,1.848-0.206,2.787v16.897h-8.331V61.059c0-0.899-0.02-1.79-0.059-2.669c-0.039-0.88-0.205-1.691-0.498-2.435
			c-0.294-0.742-0.783-1.339-1.467-1.789c-0.684-0.449-1.692-0.675-3.022-0.675c-0.391,0-0.909,0.088-1.554,0.264
			c-0.645,0.176-1.272,0.509-1.878,0.997c-0.606,0.49-1.124,1.194-1.554,2.112c-0.431,0.92-0.645,2.122-0.645,3.608v17.601h-8.332
			V47.741h7.862v4.107h0.117c1.095-1.564,2.415-2.777,3.961-3.637c1.545-0.86,3.315-1.291,5.309-1.291
			c1.916,0,3.667,0.372,5.251,1.115c1.584,0.743,2.787,2.053,3.608,3.931c0.899-1.329,2.122-2.503,3.667-3.52
			C203.97,47.429,205.8,46.92,207.912,46.92 M207.912,38.92c-3.223,0-6.166,0.729-8.768,2.168c-0.196-0.103-0.394-0.202-0.595-0.296
			c-2.65-1.243-5.56-1.872-8.649-1.872c-2.447,0-4.752,0.41-6.882,1.221c-0.788-0.26-1.63-0.4-2.505-0.4h-7.862
			c-4.418,0-8,3.582-8,8v30.333c0,4.418,3.582,8,8,8h8.332c2.052,0,3.923-0.772,5.339-2.042c1.416,1.27,3.287,2.042,5.339,2.042
			h8.331c2.052,0,3.923-0.772,5.339-2.042c1.416,1.27,3.287,2.042,5.339,2.042H219c4.418,0,8-3.582,8-8v-20.3
			c0-2.955-0.464-5.63-1.379-7.951c-1.017-2.576-2.511-4.742-4.443-6.443c-1.876-1.649-4.097-2.847-6.608-3.566
			C212.484,39.22,210.247,38.92,207.912,38.92L207.912,38.92z"/>
	</g>
</g>
<g>
	<g>
		<path style="fill:#BDBDBD;" d="M20,134.841c-2.209,0-4-1.791-4-4v-6.277c0-1.272,0.594-2.406,1.521-3.139
			c-0.926-0.733-1.521-1.867-1.521-3.139v-6.278c0-2.209,1.791-4,4-4h29.628c2.209,0,4,1.791,4,4v6.278
			c0,1.272-0.594,2.406-1.521,3.139c0.926,0.732,1.521,1.866,1.521,3.139v6.277c0,2.209-1.791,4-4,4H20z"/>
		<path style="fill:#1D1D1D;" d="M49.629,112.008v6.277H20v-6.277H49.629 M49.629,124.563v6.278H20v-6.278H49.629 M49.629,104.008
			H20c-4.418,0-8,3.582-8,8v6.277c0,1.114,0.228,2.175,0.639,3.139c-0.412,0.964-0.639,2.025-0.639,3.139v6.278c0,4.418,3.582,8,8,8
			h29.629c4.418,0,8-3.582,8-8v-6.278c0-1.114-0.228-2.175-0.639-3.139c0.412-0.964,0.639-2.025,0.639-3.139v-6.277
			C57.629,107.59,54.047,104.008,49.629,104.008L49.629,104.008z"/>
	</g>
	<g>
		<path style="fill:#BDBDBD;" d="M83.364,140.239c-2.209,0-4-1.791-4-4v-22.637h-6.326c-2.209,0-4-1.791-4-4v-6.278
			c0-1.08,0.437-2.113,1.21-2.866c0.748-0.728,1.75-1.134,2.79-1.134c0.036,0,0.422,0.008,0.578,0.008
			c0.991,0,1.958-0.088,2.875-0.261c0.89-0.167,1.649-0.445,2.325-0.85c0.594-0.357,1.09-0.823,1.513-1.424
			c0.377-0.537,0.641-1.286,0.782-2.222c0.293-1.958,1.976-3.406,3.956-3.406h6.629c2.209,0,4,1.791,4,4v41.07c0,2.209-1.791,4-4,4
			H83.364z"/>
		<path style="fill:#1D1D1D;" d="M91.695,95.169v41.069h-8.331v-26.636H73.038v-6.278c0.194,0.005,0.388,0.008,0.581,0.008
			c1.241,0,2.446-0.11,3.614-0.331c1.35-0.254,2.562-0.704,3.638-1.349c1.075-0.645,1.985-1.496,2.728-2.552
			c0.742-1.056,1.232-2.366,1.467-3.931H91.695 M91.695,87.169h-6.63c-3.96,0-7.324,2.897-7.911,6.813
			c-0.049,0.329-0.109,0.502-0.133,0.562c-0.106,0.14-0.191,0.203-0.268,0.249c-0.257,0.154-0.586,0.268-1,0.346
			c-0.679,0.128-1.395,0.193-2.135,0.193c-0.12,0-0.241-0.002-0.363-0.005c-0.073-0.002-0.146-0.003-0.218-0.003
			c-2.081,0-4.083,0.811-5.579,2.267c-1.548,1.506-2.421,3.574-2.421,5.733v6.278c0,4.418,3.582,8,8,8h2.326v18.636
			c0,4.418,3.582,8,8,8h8.331c4.418,0,8-3.582,8-8V95.169C99.695,90.751,96.113,87.169,91.695,87.169L91.695,87.169z"/>
	</g>
	<g>
		<path style="fill:#BDBDBD;" d="M142.739,140.239c-2.209,0-4-1.791-4-4v-17.191c0-0.887-0.034-1.739-0.103-2.534
			c-0.04-0.447-0.134-0.694-0.19-0.807c-0.002,0.002-0.006,0.002-0.013,0.002c-0.061,0-0.312-0.055-0.799-0.055
			c-0.558,0-0.765,0.089-0.767,0.09c-0.124,0.079-0.221,0.177-0.302,0.319c-0.167,0.295-0.279,0.647-0.343,1.075
			c-0.108,0.725-0.163,1.463-0.163,2.202v16.897c0,2.209-1.791,4-4,4h-8.331c-2.209,0-4-1.791-4-4v-17.015
			c0-0.84-0.019-1.671-0.056-2.492c-0.017-0.383-0.075-0.717-0.176-1.017c-0.146-0.027-0.403-0.059-0.804-0.06
			c0.023,0.001-0.146,0.023-0.514,0.123c-0.035,0.01-0.178,0.059-0.42,0.254c-0.003,0.002-0.189,0.157-0.439,0.691
			c-0.064,0.137-0.269,0.67-0.269,1.914v17.602c0,2.209-1.791,4-4,4h-8.332c-2.209,0-4-1.791-4-4v-30.333c0-2.209,1.791-4,4-4h7.862
			c0.911,0,1.751,0.305,2.423,0.817c2.07-1.087,4.41-1.638,6.963-1.638c2.499,0,4.838,0.502,6.95,1.494
			c0.834,0.391,1.6,0.877,2.295,1.456c0.348-0.264,0.708-0.519,1.082-0.765c2.203-1.45,4.788-2.185,7.686-2.185
			c1.965,0,3.834,0.249,5.556,0.74c1.939,0.555,3.642,1.47,5.064,2.719c1.455,1.283,2.587,2.933,3.367,4.908
			c0.731,1.856,1.101,4.037,1.101,6.487v20.301c0,2.209-1.791,4-4,4H142.739z"/>
		<path style="fill:#1D1D1D;" d="M139.982,105.085c1.603,0,3.089,0.196,4.459,0.586c1.369,0.392,2.542,1.018,3.52,1.878
			c0.977,0.861,1.74,1.985,2.288,3.374c0.548,1.389,0.821,3.061,0.821,5.016v20.3h-8.331v-17.191c0-1.017-0.04-1.974-0.117-2.875
			c-0.08-0.899-0.294-1.681-0.645-2.347c-0.353-0.665-0.871-1.193-1.555-1.584c-0.685-0.39-1.614-0.586-2.787-0.586
			c-1.174,0-2.122,0.226-2.846,0.675c-0.724,0.45-1.291,1.037-1.701,1.76c-0.411,0.725-0.685,1.546-0.821,2.465
			c-0.138,0.919-0.206,1.848-0.206,2.787v16.897h-8.331v-17.014c0-0.899-0.02-1.79-0.059-2.669c-0.039-0.88-0.205-1.691-0.498-2.435
			c-0.294-0.742-0.783-1.339-1.467-1.789c-0.684-0.449-1.692-0.675-3.022-0.675c-0.391,0-0.909,0.088-1.554,0.264
			c-0.645,0.176-1.272,0.509-1.878,0.997c-0.606,0.49-1.124,1.194-1.554,2.112c-0.431,0.92-0.645,2.122-0.645,3.608v17.601h-8.332
			v-30.333h7.862v4.107h0.117c1.095-1.564,2.415-2.777,3.961-3.637c1.545-0.86,3.315-1.291,5.309-1.291
			c1.916,0,3.667,0.372,5.251,1.115c1.584,0.743,2.787,2.053,3.608,3.931c0.899-1.329,2.122-2.503,3.667-3.52
			C136.04,105.594,137.87,105.085,139.982,105.085 M139.982,97.085c-3.223,0-6.166,0.729-8.768,2.168
			c-0.196-0.103-0.394-0.202-0.595-0.296c-2.65-1.243-5.56-1.872-8.649-1.872c-2.447,0-4.752,0.41-6.882,1.221
			c-0.788-0.26-1.63-0.4-2.505-0.4h-7.862c-4.418,0-8,3.582-8,8v30.333c0,4.418,3.582,8,8,8h8.332c2.052,0,3.923-0.772,5.339-2.042
			c1.416,1.27,3.287,2.042,5.339,2.042h8.331c2.052,0,3.923-0.772,5.339-2.042c1.416,1.27,3.287,2.042,5.339,2.042h8.331
			c4.418,0,8-3.582,8-8v-20.3c0-2.955-0.464-5.63-1.379-7.951c-1.017-2.576-2.512-4.742-4.443-6.443
			c-1.876-1.649-4.098-2.848-6.608-3.566C144.554,97.385,142.316,97.085,139.982,97.085L139.982,97.085z"/>
	</g>
</g>
<rect style="fill-rule:evenodd;clip-rule:evenodd;fill:none;" width="240" height="240"/>
</svg>
