<?xml version="1.0" encoding="iso-8859-1"?>
<!-- Generator: Adobe Illustrator 19.2.1, SVG Export Plug-In . SVG Version: 6.00 Build 0)  -->
<svg version="1.1" id="Layer_1" xmlns="http://www.w3.org/2000/svg" xmlns:xlink="http://www.w3.org/1999/xlink" x="0px" y="0px"
	 viewBox="0 0 240 240" style="enable-background:new 0 0 240 240;" xml:space="preserve">
<g>
	<g>
		<g>
			<rect x="15.999" y="85.668" style="fill-rule:evenodd;clip-rule:evenodd;fill:#BDBDBD;" width="138.334" height="138.332"/>
			<path style="fill:#1D1D1D;" d="M150.333,89.668V220H19.999V89.668H150.333 M158.333,81.668H11.999V228h146.334V81.668
				L158.333,81.668z"/>
		</g>
	</g>
	<g>
		<path style="fill-rule:evenodd;clip-rule:evenodd;fill:#1D1D1D;" d="M18.905,132.748h44.174v44.177H18.905V132.748z"/>
		<path style="fill-rule:evenodd;clip-rule:evenodd;fill:#1D1D1D;" d="M63.079,88.574h44.176v44.174H63.079V88.574z"/>
		<path style="fill-rule:evenodd;clip-rule:evenodd;fill:#1D1D1D;" d="M63.079,176.925h44.176v44.172H63.079V176.925z"/>
		<path style="fill-rule:evenodd;clip-rule:evenodd;fill:#1D1D1D;" d="M107.255,132.748h44.174v44.177h-44.174V132.748z"/>
	</g>
</g>
<g>
	<g>
		<rect x="52.332" y="15.667" style="fill-rule:evenodd;clip-rule:evenodd;fill:#239FA5;" width="172.003" height="172"/>
		<path style="fill:#1D1D1D;" d="M220.335,19.667v164H56.332v-164H220.335 M228.335,11.667h-8H56.332h-8v8v164v8h8h164.003h8v-8
			v-164V11.667L228.335,11.667z"/>
	</g>
</g>
<g>
	<g>
		<g>
			<rect x="69.166" y="32.501" style="fill-rule:evenodd;clip-rule:evenodd;fill:#BDBDBD;" width="138.335" height="138.331"/>
			<path style="fill:#1D1D1D;" d="M203.5,36.501v130.332H73.166V36.501H203.5 M211.5,28.501H65.166v146.332H211.5V28.501
				L211.5,28.501z"/>
		</g>
	</g>
	<g>
		<path style="fill-rule:evenodd;clip-rule:evenodd;fill:#1D1D1D;" d="M72.072,79.58h44.174v44.177H72.072V79.58z"/>
		<path style="fill-rule:evenodd;clip-rule:evenodd;fill:#1D1D1D;" d="M116.246,35.406h44.176V79.58h-44.176V35.406z"/>
		<path style="fill-rule:evenodd;clip-rule:evenodd;fill:#1D1D1D;" d="M116.246,123.757h44.176v44.172h-44.176V123.757z"/>
		<path style="fill-rule:evenodd;clip-rule:evenodd;fill:#1D1D1D;" d="M160.422,79.58h44.174v44.177h-44.174V79.58z"/>
	</g>
</g>
<rect style="fill-rule:evenodd;clip-rule:evenodd;fill:none;" width="240" height="240"/>
</svg>
