<?xml version="1.0" encoding="iso-8859-1"?>
<!-- Generator: Adobe Illustrator 19.2.1, SVG Export Plug-In . SVG Version: 6.00 Build 0)  -->
<svg version="1.1" id="Layer_1" xmlns="http://www.w3.org/2000/svg" xmlns:xlink="http://www.w3.org/1999/xlink" x="0px" y="0px"
	 viewBox="0 0 240 240" style="enable-background:new 0 0 240 240;" xml:space="preserve">
<g>
	
		<path style="fill-rule:evenodd;clip-rule:evenodd;fill:#48AAB5;stroke:#1D1D1D;stroke-width:8;stroke-linejoin:round;stroke-miterlimit:10;" d="
		M120.531,206.592c-38.769,0-70.2-17.726-70.2-39.593c0-0.196,0.046-0.387,0.053-0.583c0,0-0.105-93.013-0.105-93.408
		c0-21.866,31.429-39.592,70.2-39.592c38.668,0,70.02,17.634,70.185,39.423h0.015v0.862v92.715c0.005,0.195,0.051,0.387,0.051,0.583
		C190.729,188.865,159.3,206.592,120.531,206.592z"/>
</g>
<ellipse style="fill-rule:evenodd;clip-rule:evenodd;fill:#48AAB5;stroke:#1D1D1D;stroke-width:8;stroke-linejoin:round;stroke-miterlimit:10;" cx="120.478" cy="71.934" rx="70.2" ry="38.507"/>
<g style="opacity:0.5;">
	<path style="fill-rule:evenodd;clip-rule:evenodd;fill:#48AAB5;" d="M120.537,226.246c-47.569,0-86.135-21.75-86.135-48.58
		c0-0.24,0.057-0.475,0.065-0.715c0,0-0.129-114.126-0.129-114.61c0-26.829,38.563-48.579,86.135-48.579
		c47.445,0,85.914,21.637,86.117,48.371h0.019v1.057v113.76c0.006,0.24,0.062,0.474,0.062,0.715
		C206.67,204.496,168.106,226.246,120.537,226.246z"/>
</g>
<rect style="fill-rule:evenodd;clip-rule:evenodd;fill:none;" width="240" height="240"/>
</svg>
