<?xml version="1.0" encoding="iso-8859-1"?>
<!-- Generator: Adobe Illustrator 19.2.1, SVG Export Plug-In . SVG Version: 6.00 Build 0)  -->
<svg version="1.1" id="Layer_1" xmlns="http://www.w3.org/2000/svg" xmlns:xlink="http://www.w3.org/1999/xlink" x="0px" y="0px"
	 viewBox="0 0 240 240" style="enable-background:new 0 0 240 240;" xml:space="preserve">
<rect style="fill-rule:evenodd;clip-rule:evenodd;fill:none;" width="240" height="240"/>
<rect style="fill-rule:evenodd;clip-rule:evenodd;fill:none;" width="240" height="240"/>
<g>
	<g>
		<path style="fill:#BDBDBD;" d="M115.055,117.299l0.71-3.937c5.662-31.38,2.706-53.888-8.787-66.9
			c-9.896-11.205-23.802-11.772-26.49-11.772c-0.246,0-0.397,0.005-0.441,0.007l-3.926,0.168l-0.254-3.922L75.04,17.261l3.973-0.259
			c0.142-0.009,0.707-0.042,1.622-0.042c5.587,0,24.948,1.271,39.499,17.621c15.371,17.27,19.77,44.834,13.077,81.929l-0.71,3.936
			L115.055,117.299z"/>
		<path style="fill:#1D1D1D;" d="M80.634,20.96c5.08,0,23.038,1.141,36.511,16.28c14.511,16.306,18.591,42.737,12.128,78.56
			l-9.571-1.727c5.891-32.644,2.619-56.283-9.725-70.258C99.002,31.388,83.759,30.69,80.49,30.69c-0.392,0-0.612,0.01-0.631,0.011
			l-0.587-9.707C79.392,20.986,79.866,20.96,80.634,20.96 M80.634,12.96L80.634,12.96c-0.991,0-1.643,0.035-1.878,0.051
			l-7.949,0.515l0.481,7.952l0.587,9.707l0.48,7.934l7.875-0.425c0.052-0.001,0.14-0.003,0.261-0.003
			c2.386,0,14.732,0.503,23.491,10.42c10.642,12.049,13.282,33.428,7.848,63.542l-1.421,7.873l7.873,1.42l9.571,1.727l7.873,1.42
			l1.421-7.873c6.923-38.365,2.204-67.064-14.024-85.299C107.463,14.327,86.642,12.96,80.634,12.96L80.634,12.96z"/>
	</g>
	<g>
		<path style="fill:#BDBDBD;" d="M120.342,106.14l4-0.066c31.881-0.525,53.39-7.787,63.929-21.584
			c9.966-13.046,6.36-28.548,6.323-28.703l-0.926-3.82l3.799-1.007l13.271-3.465l1.018,3.858c0.251,0.954,5.987,23.597-9.279,43.739
			c-13.964,18.426-40.153,28.083-77.842,28.704l-4,0.066L120.342,106.14z"/>
		<path style="fill:#1D1D1D;" d="M207.887,52.374c0.231,0.878,5.492,21.709-8.599,40.303
			c-13.184,17.396-38.324,26.521-74.721,27.121l-0.16-9.724c33.167-0.547,55.723-8.337,67.042-23.155
			c11.273-14.757,7.072-31.916,7.028-32.088L207.887,52.374 M213.593,42.617l-7.726,2.017l-9.41,2.456l-7.691,2.008l1.943,7.646
			c0.194,0.845,3.023,14.007-5.617,25.318c-9.759,12.775-30.22,19.509-60.816,20.013l-7.998,0.132l0.131,7.998l0.16,9.724l0.131,8
			l8-0.132c38.98-0.643,66.22-10.833,80.965-30.288c16.138-21.294,10.64-44.584,9.96-47.17L213.593,42.617L213.593,42.617z"/>
	</g>
	<g>
		<path style="fill:#BDBDBD;" d="M186.265,178.365c-3.604,0-7.24-0.389-10.808-1.154c-22.604-4.861-42.434-24.508-58.938-58.395
			l-1.751-3.596l15.935-7.761l1.751,3.596c13.963,28.667,29.642,45.084,46.601,48.797c2.328,0.51,4.713,0.769,7.088,0.769
			c12.479,0,21.501-7.104,21.591-7.176l3.069-2.457l2.524,3.015l8.756,10.562l-3.07,2.554
			C217.629,168.27,204.951,178.365,186.265,178.365z"/>
		<path style="fill:#1D1D1D;" d="M128.859,112.807c14.525,29.822,31.126,46.966,49.341,50.954c2.758,0.604,5.419,0.861,7.942,0.861
			c14.075,0,23.991-7.97,24.107-8.066l6.206,7.488c-0.592,0.492-12.643,10.322-30.19,10.322c-3.156,0-6.49-0.318-9.967-1.066
			c-21.34-4.588-40.242-23.508-56.181-56.234L128.859,112.807 M132.548,102.111l-7.192,3.503l-8.743,4.259l-7.192,3.503l3.503,7.192
			c17.07,35.048,37.827,55.421,61.692,60.552c3.842,0.826,7.761,1.244,11.649,1.244c20.088,0,33.807-10.925,35.305-12.17
			l6.142-5.107l-5.098-6.15l-6.206-7.488l-5.078-6.126l-6.101,5.001c-0.427,0.328-8.364,6.296-19.088,6.296
			c-2.087,0-4.184-0.227-6.231-0.676c-15.704-3.438-30.46-19.131-43.86-46.642L132.548,102.111L132.548,102.111z"/>
	</g>
	<g>
		<path style="fill:#BDBDBD;" d="M117.153,222.659c-0.893-0.421-21.931-10.579-27.559-35.209
			c-5.15-22.538,4.273-48.812,28.008-78.095l2.519-3.107l13.771,11.161l-2.519,3.107c-20.131,24.835-28.374,46.028-24.499,62.987
			c3.672,16.07,17.72,23.065,17.86,23.135l3.555,1.728l-1.668,3.583l-5.851,12.414L117.153,222.659z"/>
		<path style="fill:#1D1D1D;" d="M120.71,111.874l7.556,6.124c-20.944,25.839-29.453,48.178-25.29,66.395
			c4.154,18.182,19.869,25.775,20.028,25.85l-4.146,8.797c-0.821-0.387-20.166-9.737-25.363-32.481
			C88.631,165.281,97.788,140.153,120.71,111.874 M119.532,100.622l-5.037,6.215c-24.548,30.286-34.238,57.708-28.8,81.505
			c5.948,26.031,27.329,36.792,29.748,37.934l7.239,3.416l3.412-7.24l4.146-8.797l3.405-7.226l-7.169-3.391
			c-0.764-0.384-12.521-6.499-15.702-20.425c-3.587-15.7,4.389-35.744,23.706-59.576l5.038-6.215l-6.215-5.037l-7.556-6.124
			L119.532,100.622L119.532,100.622z"/>
	</g>
	<g>
		<path style="fill:#BDBDBD;" d="M32.651,146.274l-13.604-1.828l0.534-3.966c0.132-0.978,3.477-24.108,25.239-36.903
			c9.117-5.36,20.032-8.077,32.443-8.077c14.588,0,31.567,3.764,50.464,11.187l3.724,1.462l-6.481,16.499l-3.724-1.463
			c-16.873-6.627-31.654-9.988-43.934-9.988c-9.21,0-17.119,1.905-23.508,5.661c-14.21,8.355-16.636,23.859-16.659,24.015
			l-0.574,3.91L32.651,146.274z"/>
		<path style="fill:#1D1D1D;" d="M77.263,99.5c14.116,0,30.488,3.637,49.002,10.91l-3.556,9.052
			c-17.415-6.84-32.589-10.265-45.397-10.265c-9.96,0-18.489,2.069-25.536,6.212c-16.077,9.453-18.569,26.727-18.592,26.901
			l-9.639-1.295c0.121-0.899,3.19-22.165,23.302-33.99C55.382,102.008,65.546,99.5,77.263,99.5 M77.263,91.5
			c-13.133,0-24.73,2.903-34.47,8.629c-23.026,13.538-26.82,37.169-27.176,39.819l-1.067,7.93l7.93,1.066l9.639,1.295l7.933,1.066
			l1.053-7.868c0.144-0.892,2.437-13.907,14.726-21.132c5.766-3.39,12.994-5.109,21.481-5.109c11.777,0,26.067,3.267,42.472,9.711
			l7.446,2.925l2.925-7.446l3.556-9.052l2.925-7.446l-7.446-2.925C109.824,95.357,92.354,91.5,77.263,91.5L77.263,91.5z"/>
	</g>
</g>
<g>
	<path style="fill:#D6806D;" d="M120,159.75c-21.918,0-39.75-17.832-39.75-39.75c0-21.918,17.832-39.75,39.75-39.75
		c21.918,0,39.75,17.832,39.75,39.75C159.75,141.918,141.918,159.75,120,159.75z"/>
	<path style="fill:#1D1D1D;" d="M120,84.25c19.744,0,35.75,16.006,35.75,35.75s-16.006,35.75-35.75,35.75S84.25,139.744,84.25,120
		S100.256,84.25,120,84.25 M120,76.25c-24.124,0-43.75,19.626-43.75,43.75s19.626,43.75,43.75,43.75s43.75-19.626,43.75-43.75
		S144.124,76.25,120,76.25L120,76.25z"/>
</g>
</svg>
