<?xml version="1.0" encoding="utf-8"?>
<!-- Generator: Adobe Illustrator 13.0.2, SVG Export Plug-In . SVG Version: 6.00 Build 14948)  -->
<svg version="1.2" baseProfile="tiny" id="Layer_1" xmlns="http://www.w3.org/2000/svg" xmlns:xlink="http://www.w3.org/1999/xlink"
	 x="0px" y="0px" width="240.65px" height="241.11px" viewBox="0 0 240.65 241.11" xml:space="preserve">
<g>
	<path fill="#FFFFFF" stroke="#000000" stroke-width="6.25" stroke-linecap="round" stroke-linejoin="round" d="M237.525,194.976
		c0,40.754-2.261,43.01-43.018,43.01H87.333c-40.755,0-43.016-2.256-43.016-43.01V87.815c0-40.757,2.261-43.018,43.016-43.018
		h107.175c40.757,0,43.018,2.261,43.018,43.018V194.976z"/>
	<g>
		<linearGradient id="SVGID_1_" gradientUnits="userSpaceOnUse" x1="50.4468" y1="3.125" x2="50.4468" y2="97.7612">
			<stop  offset="0" style="stop-color:#8F8F8F"/>
			<stop  offset="0.1624" style="stop-color:#898989"/>
			<stop  offset="0.3765" style="stop-color:#787878"/>
			<stop  offset="0.6194" style="stop-color:#5D5D5D"/>
			<stop  offset="0.8817" style="stop-color:#373737"/>
			<stop  offset="1" style="stop-color:#242424"/>
		</linearGradient>
		<polygon fill="url(#SVGID_1_)" stroke="#000000" stroke-width="6.25" stroke-linecap="round" stroke-linejoin="round" points="
			17.308,97.761 97.769,97.761 97.769,3.125 3.125,3.125 3.125,83.616 		"/>
		<linearGradient id="SVGID_2_" gradientUnits="userSpaceOnUse" x1="50.4087" y1="47.6489" x2="50.4087" y2="3.2202">
			<stop  offset="0" style="stop-color:#FFFFFF"/>
			<stop  offset="0.2092" style="stop-color:#F9F9F9"/>
			<stop  offset="0.485" style="stop-color:#E9E9E9"/>
			<stop  offset="0.7966" style="stop-color:#CDCDCD"/>
			<stop  offset="1" style="stop-color:#B8B8B8"/>
		</linearGradient>
		
			<rect x="20.289" y="3.22" fill="url(#SVGID_2_)" stroke="#000000" stroke-width="6.25" stroke-linecap="round" stroke-linejoin="round" width="60.239" height="44.429"/>
		<linearGradient id="SVGID_3_" gradientUnits="userSpaceOnUse" x1="50.8228" y1="67.1704" x2="50.8228" y2="97.5854">
			<stop  offset="0" style="stop-color:#B5B5B5"/>
			<stop  offset="0.16" style="stop-color:#AFAFAF"/>
			<stop  offset="0.371" style="stop-color:#9F9F9F"/>
			<stop  offset="0.6104" style="stop-color:#838383"/>
			<stop  offset="0.869" style="stop-color:#5D5D5D"/>
			<stop  offset="1" style="stop-color:#474747"/>
		</linearGradient>
		
			<rect x="27.638" y="67.17" fill="url(#SVGID_3_)" stroke="#000000" stroke-width="6.25" stroke-linecap="round" stroke-linejoin="round" width="46.37" height="30.415"/>
		
			<rect x="38.127" y="79.39" fill="#333333" stroke="#333333" stroke-width="2.7695" stroke-linecap="round" stroke-linejoin="round" width="5.692" height="5.693"/>
	</g>
	<g>
		<path stroke="#000000" stroke-width="5.9757" stroke-linecap="round" stroke-linejoin="round" d="M111.445,210.218l5.153-36.875
			h-16.256v-15.465h18.635l3.569-25.176h-17.049v-15.266h19.229l5.156-36.082h14.868l-4.959,36.082h19.231l5.153-36.082h14.871
			l-4.956,36.082h16.058v15.266h-18.438l-3.369,25.176h16.652v15.267h-19.23l-4.957,37.073h-15.266l5.156-37.073h-19.033
			l-5.154,37.073H111.445z M153.275,157.878l3.371-25.176h-19.23l-3.369,25.176H153.275z"/>
	</g>
	<g>
		<path fill="#FDE852" stroke="#FDE852" stroke-width="5.9757" stroke-linecap="round" stroke-linejoin="round" d="M106.445,205.218
			l5.153-36.875H95.343v-15.465h18.635l3.569-25.176h-17.049v-15.266h19.229l5.156-36.082h14.868l-4.959,36.082h19.231l5.153-36.082
			h14.871l-4.956,36.082h16.058v15.266h-18.438l-3.369,25.176h16.652v15.267h-19.23l-4.957,37.073h-15.266l5.156-37.073h-19.033
			l-5.154,37.073H106.445z M148.275,152.878l3.371-25.176h-19.23l-3.369,25.176H148.275z"/>
	</g>
</g>
</svg>
