<?xml version="1.0" encoding="utf-8"?>
<!-- Generator: Adobe Illustrator 13.0.2, SVG Export Plug-In . SVG Version: 6.00 Build 14948)  -->
<svg version="1.2" baseProfile="tiny" id="Layer_1" xmlns="http://www.w3.org/2000/svg" xmlns:xlink="http://www.w3.org/1999/xlink"
	 x="0px" y="0px" width="250.237px" height="236.414px" viewBox="0 0 250.237 236.414" xml:space="preserve">
<g>
	<path fill="none" stroke="#010101" stroke-width="8.75" stroke-linecap="round" stroke-linejoin="round" d="M58.45,48.874"/>
	
		<line fill="none" stroke="#010101" stroke-width="8.75" stroke-linecap="round" stroke-linejoin="round" x1="127.455" y1="115.335" x2="90.996" y2="173.272"/>
	
		<line fill="none" stroke="#010101" stroke-width="8.75" stroke-linecap="round" stroke-linejoin="round" x1="144.332" y1="115.335" x2="180.789" y2="173.272"/>
	<g>
		<path fill="#77ABD3" d="M247.112,189.566c0,24.146-19.577,43.723-43.728,43.723c-24.148,0-43.729-19.577-43.729-43.723
			c0-24.155,19.58-43.732,43.729-43.732C227.535,145.834,247.112,165.411,247.112,189.566z"/>
		<path fill="#5086B1" d="M231.731,156.666c2.044,5.033,3.177,10.531,3.177,16.294c0,23.955-19.424,43.379-43.381,43.379
			c-11.202,0-21.414-4.251-29.109-11.221c6.146,16.709,22.204,28.628,41.047,28.628c24.15,0,43.73-19.575,43.73-43.73
			C247.195,176.65,241.187,164.691,231.731,156.666z"/>
		<path fill="none" stroke="#010101" stroke-width="6.25" stroke-linecap="round" stroke-linejoin="round" d="M247.112,189.566
			c0,24.146-19.577,43.723-43.728,43.723c-24.148,0-43.729-19.577-43.729-43.723c0-24.155,19.58-43.732,43.729-43.732
			C227.535,145.834,247.112,165.411,247.112,189.566z"/>
		<g>
			<circle fill="#FFFFFF" cx="189.569" cy="175.264" r="4.955"/>
		</g>
	</g>
	<g>
		<path fill="#77ABD3" d="M114.712,189.566c0,24.146-19.579,43.723-43.729,43.723c-24.148,0-43.729-19.577-43.729-43.723
			c0-24.155,19.58-43.732,43.729-43.732C95.133,145.834,114.712,165.411,114.712,189.566z"/>
		<path fill="#5086B1" d="M99.33,156.666c2.044,5.033,3.177,10.531,3.177,16.294c0,23.955-19.424,43.379-43.38,43.379
			c-11.203,0-21.415-4.251-29.11-11.221c6.147,16.709,22.204,28.628,41.047,28.628c24.152,0,43.729-19.575,43.729-43.73
			C114.792,176.65,108.786,164.691,99.33,156.666z"/>
		<path fill="none" stroke="#010101" stroke-width="6.25" stroke-linecap="round" stroke-linejoin="round" d="M114.712,189.566
			c0,24.146-19.579,43.723-43.729,43.723c-24.148,0-43.729-19.577-43.729-43.723c0-24.155,19.58-43.732,43.729-43.732
			C95.133,145.834,114.712,165.411,114.712,189.566z"/>
		<g>
			<path fill="#FFFFFF" d="M62.123,175.264c0,2.739-2.218,4.957-4.953,4.957c-2.739,0-4.956-2.218-4.956-4.957
				c0-2.736,2.217-4.955,4.956-4.955C59.905,170.309,62.123,172.527,62.123,175.264z"/>
		</g>
	</g>
	<polyline fill="none" stroke="#010101" stroke-width="8.75" stroke-linecap="round" stroke-linejoin="round" points="52.415,53.49 
		52.415,93.67 92.882,93.67 	"/>
	
		<rect x="3.125" y="3.125" fill="#E6E529" stroke="#010101" stroke-width="6.25" stroke-linecap="round" stroke-linejoin="round" width="102.687" height="49.544"/>
	
		<rect x="83.68" y="70.007" fill="#E6E529" stroke="#010101" stroke-width="6.25" stroke-linecap="round" stroke-linejoin="round" width="102.688" height="49.546"/>
</g>
</svg>
