<?xml version="1.0" encoding="utf-8"?>
<!-- Generator: Adobe Illustrator 13.0.2, SVG Export Plug-In . SVG Version: 6.00 Build 14948)  -->
<svg version="1.2" baseProfile="tiny" id="Layer_1" xmlns="http://www.w3.org/2000/svg" xmlns:xlink="http://www.w3.org/1999/xlink"
	 x="0px" y="0px" width="245.811px" height="245.806px" viewBox="0 0 245.811 245.806" xml:space="preserve">
<g>
	<path fill="#515151" d="M242.686,122.903c0,66.155-53.628,119.778-119.78,119.778S3.125,189.058,3.125,122.903
		S56.753,3.125,122.905,3.125S242.686,56.748,242.686,122.903z"/>
	<g>
		<path fill="#424242" d="M199.089,32.544c5.592,13.782,8.697,28.835,8.697,44.624c0,65.625-53.201,118.826-118.826,118.826
			c-30.688,0-58.66-11.639-79.744-30.738c16.841,45.771,60.828,78.421,112.444,78.421c66.152,0,119.78-53.623,119.78-119.778
			C241.44,87.275,224.985,54.514,199.089,32.544z"/>
	</g>
	<path fill="none" stroke="#000000" stroke-width="6.25" stroke-linecap="round" stroke-linejoin="round" d="M242.686,122.903
		c0,66.155-53.628,119.778-119.78,119.778S3.125,189.058,3.125,122.903S56.753,3.125,122.905,3.125S242.686,56.748,242.686,122.903z
		"/>
	<path fill="#686868" d="M95.186,87.734c0,8.179-6.628,14.807-14.81,14.807c-8.176,0-14.805-6.628-14.805-14.807
		c0-8.176,6.628-14.807,14.805-14.807C88.557,72.927,95.186,79.558,95.186,87.734z"/>
</g>
</svg>
