<?xml version="1.0" encoding="utf-8"?>
<!-- Generator: Adobe Illustrator 13.0.2, SVG Export Plug-In . SVG Version: 6.00 Build 14948)  -->
<svg version="1.2" baseProfile="tiny" id="Layer_1" xmlns="http://www.w3.org/2000/svg" xmlns:xlink="http://www.w3.org/1999/xlink"
	 x="0px" y="0px" width="239.885px" height="237.405px" viewBox="0 0 239.885 237.405" xml:space="preserve">
<g>
	<path fill="#F18983" stroke="#3C1615" stroke-width="6.875" d="M188.904,92.373c0,49.121-39.819,88.936-88.938,88.936
		s-88.937-39.814-88.937-88.936S50.847,3.438,99.966,3.438S188.904,43.252,188.904,92.373z"/>
	<g>
		<path fill="#F7F4B6" stroke="#3C3A19" stroke-width="6.5625" d="M143.907,4.807C103.757,47.319,56.267,82.81,3.463,109.277
			c-0.114,2.09-0.182,4.187-0.182,6.301c0,62.932,51.016,113.946,113.948,113.946c62.932,0,113.95-51.014,113.95-113.946
			C231.179,61.838,193.962,16.814,143.907,4.807z"/>
	</g>
	<g>
		<path fill="#5D61AB" stroke="#171E42" stroke-width="6.25" stroke-linecap="round" stroke-linejoin="round" d="M197.952,26.252
			C149.221,88.674,84.339,137.871,9.585,167.556c19.568,39.531,60.296,66.725,107.395,66.725c66.152,0,119.78-53.623,119.78-119.778
			C236.76,79.573,221.799,48.147,197.952,26.252z"/>
	</g>
</g>
</svg>
