<?xml version="1.0" encoding="utf-8"?>
<!-- Generator: Adobe Illustrator 13.0.2, SVG Export Plug-In . SVG Version: 6.00 Build 14948)  -->
<svg version="1.2" baseProfile="tiny" id="Layer_1" xmlns="http://www.w3.org/2000/svg" xmlns:xlink="http://www.w3.org/1999/xlink"
	 x="0px" y="0px" width="247.295px" height="246.985px" viewBox="0 0 247.295 246.985" xml:space="preserve">
<g>
	<g>
		
			<rect x="3.125" y="3.125" fill="#FFFFFF" stroke="#010101" stroke-width="6.25" stroke-linecap="round" stroke-linejoin="round" width="155.144" height="194.548"/>
		
			<line fill="none" stroke="#010101" stroke-width="8.75" stroke-linecap="round" stroke-linejoin="round" x1="29.727" y1="60.432" x2="131.907" y2="60.432"/>
		
			<line fill="none" stroke="#010101" stroke-width="8.75" stroke-linecap="round" stroke-linejoin="round" x1="29.727" y1="86.379" x2="131.907" y2="86.379"/>
		
			<line fill="none" stroke="#010101" stroke-width="8.75" stroke-linecap="round" stroke-linejoin="round" x1="29.727" y1="113.708" x2="99.958" y2="113.708"/>
		
			<line fill="none" stroke="#010101" stroke-width="8.75" stroke-linecap="round" stroke-linejoin="round" x1="29.727" y1="139.983" x2="100.642" y2="139.983"/>
	</g>
	<g>
		<g>
			
				<line fill="none" stroke="#010101" stroke-width="8.75" stroke-linecap="round" stroke-linejoin="round" x1="169.651" y1="96.072" x2="169.651" y2="242.61"/>
			
				<line fill="none" stroke="#010101" stroke-width="8.75" stroke-linecap="round" stroke-linejoin="round" x1="96.384" y1="169.338" x2="242.92" y2="169.338"/>
			
				<line fill="none" stroke="#010101" stroke-width="8.75" stroke-linecap="round" stroke-linejoin="round" x1="117.844" y1="117.539" x2="221.458" y2="221.155"/>
			
				<line fill="none" stroke="#010101" stroke-width="8.75" stroke-linecap="round" stroke-linejoin="round" x1="117.844" y1="221.155" x2="221.458" y2="117.537"/>
		</g>
		<path fill="#E6E529" stroke="#010101" stroke-width="6.25" stroke-linecap="round" stroke-linejoin="round" d="M205.535,169.456
			c0,19.966-16.188,36.152-36.149,36.152c-19.971,0-36.162-16.187-36.162-36.152c0-19.971,16.191-36.16,36.162-36.16
			C189.346,133.295,205.535,149.485,205.535,169.456z"/>
	</g>
</g>
</svg>
