<?xml version="1.0" encoding="utf-8"?>
<!-- Generator: Adobe Illustrator 13.0.2, SVG Export Plug-In . SVG Version: 6.00 Build 14948)  -->
<svg version="1.2" baseProfile="tiny" id="Layer_1" xmlns="http://www.w3.org/2000/svg" xmlns:xlink="http://www.w3.org/1999/xlink"
	 x="0px" y="0px" width="221.194px" height="216.355px" viewBox="0 0 221.194 216.355" xml:space="preserve">
<g>
	<g>
		
			<rect x="3.125" y="3.125" fill="#FFFFFF" stroke="#000000" stroke-width="6.25" stroke-linecap="round" stroke-linejoin="round" width="155.144" height="194.548"/>
		
			<line fill="none" stroke="#000000" stroke-width="8.75" stroke-linecap="round" stroke-linejoin="round" x1="29.727" y1="60.432" x2="131.907" y2="60.432"/>
		
			<line fill="none" stroke="#000000" stroke-width="8.75" stroke-linecap="round" stroke-linejoin="round" x1="29.727" y1="86.379" x2="131.907" y2="86.379"/>
		
			<line fill="none" stroke="#000000" stroke-width="8.75" stroke-linecap="round" stroke-linejoin="round" x1="29.727" y1="113.708" x2="99.958" y2="113.708"/>
		
			<line fill="none" stroke="#000000" stroke-width="8.75" stroke-linecap="round" stroke-linejoin="round" x1="29.727" y1="139.983" x2="89.392" y2="139.983"/>
	</g>
	<g>
		
			<circle fill="#636363" stroke="#231F20" stroke-width="6.25" stroke-linecap="round" stroke-linejoin="round" cx="158.472" cy="153.635" r="59.597"/>
		<path fill="#515151" d="M196.685,107.944c2.78,6.858,4.326,14.348,4.326,22.202c0,32.652-26.471,59.121-59.121,59.121
			c-15.27,0-29.188-5.788-39.676-15.293c8.379,22.773,30.264,39.02,55.945,39.02c32.914,0,59.597-26.68,59.597-59.596
			C217.756,135.175,209.568,118.875,196.685,107.944z"/>
		<path fill="#FFFFFF" d="M148.423,136.882c0,4.852-3.932,8.781-8.782,8.781c-4.847,0-8.776-3.93-8.776-8.781
			c0-4.849,3.93-8.779,8.776-8.779C144.492,128.103,148.423,132.034,148.423,136.882z"/>
		
			<circle fill="none" stroke="#000000" stroke-width="6.25" stroke-linecap="round" stroke-linejoin="round" cx="158.472" cy="153.635" r="59.597"/>
	</g>
</g>
</svg>
