<?xml version="1.0" encoding="utf-8"?>
<!-- Generator: Adobe Illustrator 13.0.2, SVG Export Plug-In . SVG Version: 6.00 Build 14948)  -->
<svg version="1.2" baseProfile="tiny" id="Layer_1" xmlns="http://www.w3.org/2000/svg" xmlns:xlink="http://www.w3.org/1999/xlink"
	 x="0px" y="0px" width="245.811px" height="245.805px" viewBox="0 0 245.811 245.805" xml:space="preserve">
<g>
	<path fill="#7EEFEE" d="M242.686,122.903c0,66.154-53.628,119.777-119.78,119.777S3.125,189.057,3.125,122.903
		c0-66.155,53.628-119.778,119.78-119.778S242.686,56.748,242.686,122.903z"/>
	<path fill="#42DCE7" d="M199.089,32.544c5.592,13.782,8.697,28.835,8.697,44.624c0,65.625-53.201,118.826-118.826,118.826
		c-30.688,0-58.66-11.638-79.744-30.737c16.841,45.771,60.828,78.42,112.444,78.42c66.152,0,119.78-53.623,119.78-119.777
		C241.44,87.275,224.985,54.514,199.089,32.544z"/>
	<path fill="#FFFFFF" stroke="#FFFFFF" stroke-width="2.5" d="M96.716,71.633c0,8.179-6.628,14.807-14.81,14.807
		c-8.176,0-14.805-6.628-14.805-14.807c0-8.176,6.628-14.807,14.805-14.807C90.088,56.826,96.716,63.457,96.716,71.633z"/>
	<path fill="none" stroke="#000000" stroke-width="6.25" stroke-linecap="round" stroke-linejoin="round" d="M242.686,122.903
		c0,66.154-53.628,119.777-119.78,119.777S3.125,189.057,3.125,122.903c0-66.155,53.628-119.778,119.78-119.778
		S242.686,56.748,242.686,122.903z"/>
</g>
</svg>
