<?xml version="1.0" encoding="utf-8"?>
<!-- Generator: Adobe Illustrator 13.0.2, SVG Export Plug-In . SVG Version: 6.00 Build 14948)  -->
<svg version="1.2" baseProfile="tiny" id="Layer_1" xmlns="http://www.w3.org/2000/svg" xmlns:xlink="http://www.w3.org/1999/xlink"
	 x="0px" y="0px" width="223.142px" height="248.555px" viewBox="0 0 223.142 248.555" xml:space="preserve">
<g>
	<polyline fill="none" stroke="#000000" stroke-width="8.75" stroke-linecap="round" stroke-linejoin="round" points="
		137.744,12.297 137.744,140.105 12.605,170.762 	"/>
	
		<line fill="none" stroke="#000000" stroke-width="8.75" stroke-linecap="round" stroke-linejoin="round" x1="209.603" y1="204.533" x2="131.968" y2="141.18"/>
	<polyline fill="none" stroke="#000000" stroke-width="8.75" stroke-linecap="round" stroke-linejoin="round" points="
		12.854,172.082 8.86,32.395 138.418,8.911 	"/>
	<polyline fill="none" stroke="#000000" stroke-width="8.75" stroke-linecap="round" stroke-linejoin="round" points="
		218.767,68.464 216.377,204.783 73.621,244.18 8.525,173.494 	"/>
	
		<line fill="none" stroke="#000000" stroke-width="8.75" stroke-linecap="round" stroke-linejoin="round" x1="136.152" y1="11.624" x2="216.499" y2="70.31"/>
	<polyline fill="none" stroke="#EC61A1" stroke-width="8.75" stroke-linecap="round" stroke-linejoin="round" points="
		133.011,6.897 133.011,136.025 8.369,166.68 	"/>
	
		<line fill="none" stroke="#EC61A1" stroke-width="8.75" stroke-linecap="round" stroke-linejoin="round" x1="212.388" y1="200.881" x2="133.011" y2="136.025"/>
	<path fill="#77ABD4" stroke="#000000" stroke-width="6.25" d="M200.794,120.107c0,49.051-39.773,88.823-88.837,88.823
		c-49.07,0-88.822-39.772-88.822-88.823c0-49.07,39.752-88.84,88.822-88.84C161.021,31.267,200.794,71.038,200.794,120.107z"/>
	<path fill="none" stroke="#FFFFFF" stroke-width="7.5" d="M201.27,110.886c-23.913,21.873-56.177,34.622-91.111,33.057
		c-33.792-1.517-63.884-16.143-85.594-38.743"/>
	<path fill="none" stroke="#FFFFFF" stroke-width="7.5" d="M99.099,32.012c24.849,19.69,42.378,48.682,46.868,82.598
		c4.632,34.982-5.491,68.506-25.56,94.314"/>
	<path fill="none" stroke="#000000" stroke-width="6.25" d="M200.794,120.107c0,49.051-39.773,88.823-88.837,88.823
		c-49.07,0-88.822-39.772-88.822-88.823c0-49.07,39.752-88.84,88.822-88.84C161.021,31.267,200.794,71.038,200.794,120.107z"/>
	
		<line fill="none" stroke="#231F20" stroke-width="8.75" stroke-linecap="round" stroke-linejoin="round" x1="8.584" y1="37.817" x2="78.662" y2="102.205"/>
	
		<line fill="none" stroke="#000000" stroke-width="8.75" stroke-linecap="round" stroke-linejoin="round" x1="78.433" y1="96.804" x2="218.511" y2="67.62"/>
	
		<line fill="none" stroke="#000000" stroke-width="8.75" stroke-linecap="round" stroke-linejoin="round" x1="78.911" y1="97.4" x2="79.192" y2="240.721"/>
	<polygon fill="none" stroke="#EC61A1" stroke-width="8.75" stroke-linecap="round" stroke-linejoin="round" points="4.375,27.859 
		134.18,4.375 214.531,63.062 212.388,200.881 74.412,238.572 8.369,166.68 	"/>
	<polyline fill="none" stroke="#EC61A1" stroke-width="8.75" stroke-linecap="round" stroke-linejoin="round" points="5.371,28.86 
		74.453,92.246 214.531,63.062 	"/>
	
		<line fill="none" stroke="#EC61A1" stroke-width="8.75" stroke-linecap="round" stroke-linejoin="round" x1="74.453" y1="92.246" x2="74.736" y2="238.572"/>
</g>
</svg>
