<?xml version="1.0" encoding="utf-8"?>
<!-- Generator: Adobe Illustrator 22.0.0, SVG Export Plug-In . SVG Version: 6.00 Build 0)  -->
<svg version="1.1" id="图层_1" xmlns="http://www.w3.org/2000/svg" xmlns:xlink="http://www.w3.org/1999/xlink" x="0px" y="0px"
	 viewBox="0 0 64 64" style="enable-background:new 0 0 64 64;" xml:space="preserve">
<style type="text/css">
	.st0{fill:#FFFF40;stroke:#FFFF40;stroke-width:4;stroke-miterlimit:10;}
</style>
<path class="st0" d="M35.2,45.9h-6.3c-1.1,0-1.8-0.7-1.8-1.6v-1.7c0-4.9,3.3-9.3,8.4-10.9c1.5-0.5,2.8-1.3,4-2.4
	c6.3-7,0.5-15.5-7.1-15.6c-2.7-0.1-5.4,0.8-7.4,2.6c-1.6,1.4-2.6,3.1-2.8,5.1c-0.1,0.7-0.8,1.3-1.9,1.3H14c-1.2,0-2-0.8-1.9-1.9
	c0.5-4.4,2.6-8.4,6-11.5c3.9-3.5,9-5.5,14.5-5.3C43.1,4.4,51.7,12.4,52,22c0.5,8.1-5.1,15.5-13.1,18.3c-1.2,0.5-1.9,1.3-1.9,2.3v1.7
	C37.1,45.2,36.2,45.9,35.2,45.9z M37.1,58.3c0,0.9-0.8,1.7-1.9,1.7h-6.3c-1,0-1.8-0.8-1.8-1.7v-5.9c0-0.9,0.8-1.7,1.9-1.7h6.3
	c1.1,0,1.9,0.8,1.9,1.7L37.1,58.3L37.1,58.3z"/>
</svg>
