<?xml version="1.0" encoding="utf-8"?>
<!-- Generator: Adobe Illustrator 22.0.0, SVG Export Plug-In . SVG Version: 6.00 Build 0)  -->
<svg version="1.1" id="图层_1" xmlns="http://www.w3.org/2000/svg" xmlns:xlink="http://www.w3.org/1999/xlink" x="0px" y="0px"
	 viewBox="0 0 64 64" style="enable-background:new 0 0 64 64;" xml:space="preserve">
<style type="text/css">
	.st0{fill:#5F5F5F;}
	.st1{display:none;}
	.st2{display:inline;fill:#BFBFBF;}
</style>
<path class="st0" d="M34.1,4H12C9.8,4,8,5.8,8,8v48c0,2.2,1.8,4,4,4h40c2.2,0,4-1.8,4-4V25.9L34.1,4z M52,28H32V8h0.1L52,28L52,28z"
	/>
<g class="st1">
	<path class="st2" d="M36.9,44.3l7.1,0.2c-0.5,3.7-1.7,6.5-3.8,8.5c-2.1,2-4.8,3-8.2,3c-3.4,0-6.3-1.1-8.6-3.4S20,47.5,20,44.1
		c0-3.4,1.2-6.3,3.5-8.6s5.2-3.5,8.7-3.5c3.4,0,6.2,1.1,8.5,3.4c1.6,1.6,2.7,3.8,3.3,6.6l-7.3,0.5c-0.8-2.5-2.4-3.8-4.6-3.8
		c-1.5,0-2.7,0.5-3.6,1.5c-0.9,1-1.4,2.3-1.4,3.8c0,1.5,0.5,2.7,1.4,3.7c0.9,1,2.1,1.5,3.5,1.5c1.4,0,2.6-0.4,3.4-1.3
		C36.2,47.1,36.7,45.9,36.9,44.3z"/>
</g>
</svg>
