<?xml version="1.0" encoding="utf-8"?>
<!-- Generator: Adobe Illustrator 22.0.0, SVG Export Plug-In . SVG Version: 6.00 Build 0)  -->
<svg version="1.1" id="图层_1" xmlns="http://www.w3.org/2000/svg" xmlns:xlink="http://www.w3.org/1999/xlink" x="0px" y="0px"
	 viewBox="0 0 64 64" style="enable-background:new 0 0 64 64;" xml:space="preserve">
<style type="text/css">
	.st0{fill:#BFBFBF;}
</style>
<path class="st0" d="M8.6,8L4,11.3c8.2,5.2,15.8,11.2,22.6,17.2C16.3,37.4,8.2,46.1,4,49.6l8.8,6.3c3.1-5.5,9.9-13.8,19-22.6
	c9.1,8.8,15.9,17.2,19,22.7c0,0,8.5-7.8,9.3-6.6c-3.3-3.2-11.3-12.4-22.1-21.8c6.2-5.4,13.1-10.8,20.5-15.5l-2-3.2
	C48,12.5,40,17.8,32.8,23.4C25.6,17.5,17.4,11.9,8.6,8z"/>
</svg>
