<?xml version="1.0" encoding="utf-8"?>
<!-- Generator: Adobe Illustrator 22.0.0, SVG Export Plug-In . SVG Version: 6.00 Build 0)  -->
<svg version="1.1" id="图层_1" xmlns="http://www.w3.org/2000/svg" xmlns:xlink="http://www.w3.org/1999/xlink" x="0px" y="0px"
	 viewBox="0 0 64 64" style="enable-background:new 0 0 64 64;" xml:space="preserve">
<style type="text/css">
	.st0{fill:#427FFF;}
</style>
<path class="st0" d="M52,4H29.9L8,25.9V56c0,2.2,1.8,4,4,4h40c2.2,0,4-1.8,4-4V8C56,5.8,54.2,4,52,4z M29.9,10L29.9,10L30,26H14
	L29.9,10z M50,56H14c-1.1,0-2-0.9-2-2c0-1.1,0.9-2,2-2h36c1.1,0,2,0.9,2,2C52,55.1,51.1,56,50,56z M50,46H14c-1.1,0-2-0.9-2-2
	c0-1.1,0.9-2,2-2h36c1.1,0,2,0.9,2,2C52,45.1,51.1,46,50,46z M50,36H14c-1.1,0-2-0.9-2-2c0-1.1,0.9-2,2-2h36c1.1,0,2,0.9,2,2
	C52,35.1,51.1,36,50,36z"/>
</svg>
