<?xml version="1.0" encoding="utf-8"?>
<!-- Generator: Adobe Illustrator 22.0.0, SVG Export Plug-In . SVG Version: 6.00 Build 0)  -->
<svg version="1.1" id="图层_1" xmlns="http://www.w3.org/2000/svg" xmlns:xlink="http://www.w3.org/1999/xlink" x="0px" y="0px"
	 viewBox="0 0 64 64" style="enable-background:new 0 0 64 64;" xml:space="preserve">
<style type="text/css">
	.st0{fill:#427FFF;}
</style>
<path class="st0" d="M30.6,22.4h17.2L27.9,4v15.6C27.9,21.2,29.1,22.4,30.6,22.4C30.6,22.4,30.6,22.4,30.6,22.4z M53.3,49h-2.7v-2.8
	c0-1.5-1.2-2.8-2.7-2.8s-2.7,1.2-2.7,2.8V49h-2.7c-1.5,0-2.7,1.2-2.7,2.8c0,1.5,1.2,2.8,2.7,2.8h2.7v2.8c0,1.5,1.2,2.8,2.7,2.8
	s2.7-1.2,2.7-2.8v-2.8h2.7c1.5,0,2.7-1.2,2.7-2.8C56,50.2,54.8,49,53.3,49z M37,51.7c0-3,2.4-5.5,5.4-5.5c0-3,2.4-5.5,5.4-5.5V25.1
	H30.6c-3,0-5.4-2.5-5.4-5.5V4h-8.2v0h-6.3C9.2,4,8,5.3,8,6.8v47.7c0,1.5,1.2,2.8,2.7,2.8h31.7C39.4,57.2,37,54.8,37,51.7z"/>
</svg>
