<?xml version="1.0" encoding="utf-8"?>
<!-- Generator: Adobe Illustrator 22.0.0, SVG Export Plug-In . SVG Version: 6.00 Build 0)  -->
<svg version="1.1" id="图层_1" xmlns="http://www.w3.org/2000/svg" xmlns:xlink="http://www.w3.org/1999/xlink" x="0px" y="0px"
	 viewBox="0 0 64 64" style="enable-background:new 0 0 64 64;" xml:space="preserve">
<style type="text/css">
	.st0{fill:#ffff40;}
</style>
<path class="st0" d="M64,22l-1,24c0,0.5-0.3,1-0.7,1.4c-0.5,0.4-1,0.6-1.6,0.6h-9.2c-0.6,0-1.2-0.2-1.6-0.6C49.3,47,49,46.6,49,46
	l-1-24c0-0.5,0.2-1,0.6-1.4c0.4-0.4,1-0.6,1.6-0.6h11.5c0.6,0,1.2,0.2,1.6,0.6C63.8,21,64,21.5,64,22z M62.9,55v7
	c0,0.5-0.2,1-0.7,1.4c-0.5,0.4-1,0.6-1.6,0.6h-9.2c-0.6,0-1.2-0.2-1.6-0.6c-0.5-0.4-0.7-0.9-0.7-1.4v-7c0-0.5,0.2-1,0.7-1.4
	s1-0.6,1.6-0.6h9.2c0.6,0,1.2,0.2,1.6,0.6C62.7,54,62.9,54.5,62.9,55z"/>
</svg>
