<?xml version="1.0" encoding="utf-8"?>
<!-- Generator: Adobe Illustrator 22.0.0, SVG Export Plug-In . SVG Version: 6.00 Build 0)  -->
<svg version="1.1" id="图层_1" xmlns="http://www.w3.org/2000/svg" xmlns:xlink="http://www.w3.org/1999/xlink" x="0px" y="0px"
	 viewBox="0 0 64 64" style="enable-background:new 0 0 64 64;" xml:space="preserve">
<style type="text/css">
	.st0{fill:#BFBFBF;}
</style>
<path class="st0" d="M54.1,27.8c-8.8-7.5-17.6-15-26.3-22.5c-3.1-2.7-7.6-0.2-7.6,4.2v45c0,4.4,4.5,6.9,7.6,4.2
	c8.8-7.5,17.6-15,26.3-22.5C56.6,34.1,56.6,29.9,54.1,27.8z M8.1,7.5v45c0,1.8-0.5,5.5,1.4,6.9c2.1,1.6,4.9-0.1,4.9-2.9v-45
	c0-1.8,0.5-5.5-1.4-6.9C10.8,3,8.1,4.7,8.1,7.5z"/>
</svg>
