<?xml version="1.0" encoding="utf-8"?>
<!-- Generator: Adobe Illustrator 22.0.0, SVG Export Plug-In . SVG Version: 6.00 Build 0)  -->
<svg version="1.1" id="图层_1" xmlns="http://www.w3.org/2000/svg" xmlns:xlink="http://www.w3.org/1999/xlink" x="0px" y="0px"
	 viewBox="0 0 64 64" style="enable-background:new 0 0 64 64;" xml:space="preserve">
<style type="text/css">
	.st0{fill:#BFBFBF;}
</style>
<path class="st0" d="M25.2,8.2h13.6c1.2,0,2.1-0.9,2.1-2.1S39.9,4,38.8,4l0,0H25.2c-1.2,0-2.1,0.9-2.1,2.1S24.1,8.2,25.2,8.2z
	 M41,33.1h-6.9v-6.9c0-1.2-0.9-2.1-2.1-2.1c-1.2,0-2.1,0.9-2.1,2.1v6.9H23c-1.2,0-2.1,0.9-2.1,2.1c0,1.2,0.9,2.1,2.1,2.1h6.9v6.9
	c0,1.2,0.9,2.1,2.1,2.1c1.2,0,2.1-0.9,2.1-2.1v-6.9H41c1.2,0,2.1-0.9,2.1-2.1C43.1,34.1,42.1,33.1,41,33.1z"/>
<path class="st0" d="M46.2,23.5c0,1.5,1.2,2.7,2.7,2.7c1.5,0,2.7-1.2,2.7-2.7c0-1.5-1.2-2.7-2.7-2.7C47.4,20.7,46.2,22,46.2,23.5z"
	/>
<path class="st0" d="M52.3,10.5H11.7c-4.2,0-7.7,3.5-7.7,7.7v34.1c0,4.3,3.4,7.7,7.7,7.7h27.6c1.2,0,2.1-0.9,2.1-2.1
	c0-1.2-0.9-2.1-2.1-2.1H11.7c-1.9,0-3.5-1.6-3.5-3.5V18.2c0-1.9,1.6-3.5,3.5-3.5h40.6c1.9,0,3.5,1.6,3.5,3.5v34.1
	c0,1.9-1.6,3.5-3.5,3.5h-0.6c-1.2,0-2.1,0.9-2.1,2.1c0,1.2,0.9,2.1,2.1,2.1h0.6c4.2,0,7.7-3.5,7.7-7.7V18.2
	C60,13.9,56.5,10.5,52.3,10.5z"/>
</svg>
