<?xml version="1.0" standalone="no"?><!DOCTYPE svg PUBLIC "-//W3C//DTD SVG 1.1//EN" "http://www.w3.org/Graphics/SVG/1.1/DTD/svg11.dtd"><svg t="1564459536340" class="icon" viewBox="0 0 1024 1024" version="1.1" xmlns="http://www.w3.org/2000/svg" p-id="43726" width="64" height="64" xmlns:xlink="http://www.w3.org/1999/xlink"><defs><style type="text/css"></style></defs><path d="M896 256l-192 0 0-128c0-35.20512-28.79488-64-64-64l-256 0c-35.20512 0-64 28.79488-64 64l0 128-192 0c-70.41024 0-128 57.61024-128 128l0 512c0 70.41024 57.61024 128 128 128l768 0c70.41024 0 128-57.61024 128-128l0-512c0-70.38976-57.61024-128-128-128zM384 128l256 0 0 128-256 0 0-128zM768 704l-192 0 0 192-128 0 0-192-192 0 0-128 192 0 0-192 128 0 0 192 192 0 0 128z" p-id="43727" fill="#dfdfdf"></path></svg>