<?xml version="1.0" encoding="utf-8"?>
<!-- Generator: Adobe Illustrator 22.0.0, SVG Export Plug-In . SVG Version: 6.00 Build 0)  -->
<svg version="1.1" id="Layer_1" xmlns="http://www.w3.org/2000/svg" xmlns:xlink="http://www.w3.org/1999/xlink" x="0px" y="0px"
	 viewBox="0 0 64 64" style="enable-background:new 0 0 64 64;" xml:space="preserve">
<style type="text/css">
	.st0{fill:#FFFFFF;}
	.st1{fill:none;}
</style>
<g>
	<g>
		<path class="st0" d="M54.8,16c0.9-0.9,1.4-2.1,1.4-3.4s-0.5-2.5-1.4-3.4c-0.9-0.9-2.1-1.4-3.4-1.4c-1.3,0-2.5,0.5-3.4,1.4
			L32.6,24.6l6.7,6.8L54.8,16z"/>
		<path class="st0" d="M51.4,8.8c-1,0-2,0.4-2.7,1.1L34,24.6l5.4,5.4l14.7-14.7c1.5-1.5,1.5-3.9,0-5.4C53.4,9.1,52.4,8.8,51.4,8.8
			 M51.4,6.9L51.4,6.9c1.5,0,3,0.6,4,1.7c1.1,1.1,1.7,2.5,1.7,4s-0.6,3-1.7,4L40.7,31.4l-1.3,1.3l-1.3-1.3L32.7,26l-1.3-1.3l1.3-1.3
			L47.4,8.6C48.5,7.5,49.9,6.9,51.4,6.9L51.4,6.9z"/>
	</g>
	<g>
		<rect x="30.1" y="45" class="st0" width="5.6" height="11.1"/>
		<path class="st0" d="M31.1,46v9.3h3.7V46H31.1 M29.2,44.1h1.9h3.7h1.9V46v9.3v1.9h-1.9h-3.7h-1.9v-1.9V46V44.1L29.2,44.1z"/>
	</g>
	<g>
		<rect x="7.8" y="28.3" class="st0" width="11.2" height="5.6"/>
		<path class="st0" d="M8.7,29.2V33H18v-3.7L8.7,29.2 M6.9,27.4h1.9H18h1.9v1.9V33v1.9H18H8.7H6.8V33v-3.7v-1.9H6.9z"/>
	</g>
	<g>
		
			<rect x="11.3" y="44" transform="matrix(0.7071 -0.7071 0.7071 0.7071 -28.1128 25.8394)" class="st0" width="11.7" height="5.8"/>
		<path class="st0" d="M19.2,42l-7,7l2.8,2.8l7-7L19.2,42 M19.2,39.4l1.3,1.3l2.8,2.8l1.3,1.3l-1.3,1.3l-7,7L15,54.4l-1.3-1.3
			l-2.8-2.8L9.6,49l1.3-1.3l7-7L19.2,39.4L19.2,39.4z"/>
	</g>
	<g>
		<path class="st0" d="M28.3,41.4c3.1,0,5.6-2.5,5.6-5.6s-2.5-5.6-5.6-5.6c-3.1,0-5.6,2.5-5.6,5.6C22.7,38.8,25.2,41.4,28.3,41.4z"
			/>
		<path class="st0" d="M28.3,31.1c-2.6,0-4.6,2.1-4.6,4.7s2.1,4.7,4.6,4.7c2.6,0,4.6-2.1,4.6-4.7C32.9,33.2,30.9,31.1,28.3,31.1
			 M28.3,29.2c3.6,0,6.5,2.9,6.5,6.5s-2.9,6.5-6.5,6.5s-6.5-2.9-6.5-6.5C21.8,32.1,24.7,29.2,28.3,29.2L28.3,29.2z"/>
	</g>
	<g>
		<path class="st0" d="M38.4,42.9c4.1-4.9,3.8-12-0.7-16.6c-2.3-2.3-5.4-3.6-8.6-3.6c-2.9,0-5.7,1-7.9,2.9l-0.8,0.7l17.4,17.4
			L38.4,42.9z"/>
		<path class="st0" d="M29.1,23.7c-2.6,0-5.2,0.9-7.3,2.6l15.9,16c3.7-4.5,3.5-11.1-0.7-15.3C34.8,24.8,32,23.7,29.1,23.7
			 M29.1,21.8L29.1,21.8c3.5,0,6.8,1.4,9.3,3.9c2.3,2.4,3.7,5.5,3.8,8.8s-1,6.5-3.1,9l-1.3,1.6l-1.4-1.4l-15.9-16l-1.4-1.4l1.6-1.3
			C23,22.9,26,21.8,29.1,21.8L29.1,21.8z"/>
	</g>
</g>
<rect x="4" y="4" class="st1" width="56" height="56"/>
</svg>
