<?xml version="1.0" encoding="utf-8"?>
<!-- Generator: Adobe Illustrator 22.0.0, SVG Export Plug-In . SVG Version: 6.00 Build 0)  -->
<svg version="1.1" id="图层_1" xmlns="http://www.w3.org/2000/svg" xmlns:xlink="http://www.w3.org/1999/xlink" x="0px" y="0px"
	 viewBox="0 0 64 64" style="enable-background:new 0 0 64 64;" xml:space="preserve">
<style type="text/css">
	.st0{fill:#427FFF;}
</style>
<path class="st0" d="M31.7,22c-4.1,0-7.6-0.5-10.8-1.4c-3.1-0.9-5.5-1.8-7.2-2.7c-0.1-0.1-0.1-0.2-0.1-0.4v-0.7c0-0.1,0-0.1,0,0
	c0,0.1,0,0.5,0,1.1v42H4V10.6c0-1.1,0.2-2.3,0.6-3.5C5,5.9,6,5,7.5,4.4C8.3,4.1,9.1,3.9,9.9,4c0.8,0.1,1.5,0.2,2.1,0.5
	C12.5,4.8,13,5,13.5,5.3c0.4,0.3,0.7,0.5,0.9,0.6c1.1,0.8,2.2,1.6,3.3,2.3c1.1,0.7,2.4,1.4,3.7,1.9c1.3,0.6,2.8,1,4.5,1.4
	c1.7,0.3,3.5,0.5,5.7,0.5h0.3H32h0.3c2.1,0,4-0.2,5.7-0.5c1.7-0.3,3.2-0.8,4.5-1.4c1.4-0.6,2.6-1.2,3.8-1.9c1.1-0.7,2.2-1.5,3.3-2.3
	c0.2-0.1,0.5-0.3,0.9-0.6c0.4-0.3,1-0.6,1.6-0.8c0.6-0.2,1.3-0.4,2.1-0.5c0.8-0.1,1.6,0,2.4,0.4C58,5,58.9,5.9,59.4,7.2
	c0.4,1.2,0.6,2.4,0.6,3.5V60h-9.8V18c0-0.7,0-1,0.1-1.1c0.1,0.2,0.1,0.4,0,0.6c0,0.2-0.1,0.4-0.1,0.5c-0.8,0.4-1.8,0.9-3.1,1.4
	c-1.3,0.5-2.7,0.9-4.2,1.3c-1.6,0.4-3.3,0.7-5.1,1C36,21.9,34.1,22,32.3,22C32.3,22,31.7,22,31.7,22z"/>
</svg>
