<?xml version="1.0" encoding="utf-8"?>
<!-- Generator: Adobe Illustrator 22.0.0, SVG Export Plug-In . SVG Version: 6.00 Build 0)  -->
<svg version="1.1" id="图层_1" xmlns="http://www.w3.org/2000/svg" xmlns:xlink="http://www.w3.org/1999/xlink" x="0px" y="0px"
	 viewBox="0 0 64 64" style="enable-background:new 0 0 64 64;" xml:space="preserve">
<style type="text/css">
	.st0{fill:#5F5F5F;}
</style>
<path class="st0" d="M30.2,41.2c-0.7-0.7-1.7-0.7-2.3,0l-4,4.2c-0.7,0.8-1.9,0.3-1.9-0.8V29.3c0-1-0.8-1.7-1.7-1.7h-3.4
	c-0.9,0-1.7,0.8-1.7,1.7v15.3c0,1.1-1.2,1.5-1.9,0.8l-4-4.2c-0.7-0.7-1.7-0.7-2.3,0l-2.5,2.5c-0.7,0.7-0.7,1.7,0,2.4l12.9,13.3
	c0.7,0.7,1.7,0.7,2.3,0l13-13.4c0.7-0.7,0.7-1.7,0-2.4C32.7,43.6,30.2,41.2,30.2,41.2z"/>
<path class="st0" d="M60,6.5C60,5.1,59,4,57.9,4H6.1C5,4,4,5.1,4,6.5v4.9c0,1.4,1,2.5,2.1,2.5h51.8c1.1,0,2.1-1.1,2.1-2.5
	C60,11.4,60,6.5,60,6.5z"/>
<path class="st0" d="M60,23.8c0-1.4-0.8-2.5-1.6-2.5H29.6c-0.9,0-1.6,1.1-1.6,2.5v5c0,1.4,0.8,2.5,1.6,2.5h28.8
	c0.9,0,1.6-1.1,1.6-2.5C60,28.8,60,23.8,60,23.8z"/>
<path class="st0" d="M60,41.3c0-1.4-0.6-2.5-1.2-2.5H45.2c-0.6,0-1.2,1.1-1.2,2.5v5c0,1.4,0.6,2.5,1.2,2.5h13.6
	c0.6,0,1.2-1.1,1.2-2.5V41.3z"/>
</svg>
