<?xml version="1.0" encoding="utf-8"?>
<!-- Generator: Adobe Illustrator 22.0.0, SVG Export Plug-In . SVG Version: 6.00 Build 0)  -->
<svg version="1.1" id="图层_1" xmlns="http://www.w3.org/2000/svg" xmlns:xlink="http://www.w3.org/1999/xlink" x="0px" y="0px"
	 viewBox="0 0 64 64" style="enable-background:new 0 0 64 64;" xml:space="preserve">
<style type="text/css">
	.st0{fill:#BFBFBF;}
</style>
<path class="st0" d="M57,44.6c0,1.1-0.6,2-1.5,2.5L33.6,59.5c-0.4,0.3-1,0.5-1.6,0.5c-0.6,0-1.1-0.2-1.6-0.5L8.5,47.1
	C7.6,46.6,7,45.7,7,44.6V19.4c0-1.1,0.6-2,1.5-2.5L30.4,4.5C30.9,4.2,31.4,4,32,4c0.6,0,1.1,0.2,1.6,0.5l21.9,12.4
	c0.9,0.5,1.5,1.4,1.5,2.5V44.6 M32,10l-5.3,3l16.4,9.5l5.4-3.1L32,10 M15.4,19.4L32,28.8l5.4-3.1l-16.3-9.5L15.4,19.4 M12.6,42.9
	l16.7,9.5V33.6l-16.7-9.4V42.9 M51.4,42.9V24.2l-16.7,9.4v18.8L51.4,42.9z"/>
</svg>
