<?xml version="1.0" encoding="utf-8"?>
<!-- Generator: Adobe Illustrator 22.0.0, SVG Export Plug-In . SVG Version: 6.00 Build 0)  -->
<svg version="1.1" id="图层_1" xmlns="http://www.w3.org/2000/svg" xmlns:xlink="http://www.w3.org/1999/xlink" x="0px" y="0px"
	 viewBox="0 0 64.1 64" style="enable-background:new 0 0 64.1 64;" xml:space="preserve">
<style type="text/css">
	.st0{fill:#BFBFBF;}
</style>
<path class="st0" d="M17.5,18.2c0-5.8,4.8-10.6,10.6-10.6s10.6,4.8,10.6,10.6S33.8,28.7,28,28.7C22.2,28.7,17.5,24,17.5,18.2z
	 M10.7,55.8c-1.7,0-3.1-1.4-3.2-3.1c0,0,0-0.1,0-0.1c0-10.6,8.2-19.3,18.5-20.3h2.2c2.4-0.2,5.8-0.8,7.5-2.4l0.8-0.6
	C40,26.5,42,22.6,42,18.2C42,10.4,35.6,4,27.7,4c-7.4,0-13.7,6.4-13.7,14.2c0,4.4,2,8.4,5.4,11.2l1,0.6l-1,0.4
	C10.1,33.9,4,42.7,4,52.7c0,3.7,2.9,6.7,6.6,6.8c0,0,0.1,0,0.1,0h18.1c0.6,0,1.6-0.6,1.6-1.8c0-1.4-1-1.8-1.6-1.8H10.7z M56.6,47.9
	c-3,0.4-5.2,2.8-5.2,6c0,0.6,0.2,1.4,0.4,1.8L49.3,57l-1-1c-1.2-0.8-2.2-1.2-3.4-1.2c-1,0-2.2,0.4-3.4,1.2c-0.4,0.4-0.8,0.6-1,1
	l-2.4-1.4c0.2-0.4,0.4-1.2,0.4-1.8c0-3-2.2-5.6-5.2-6c0-0.4-0.2-1.2-0.2-2c0-0.6,0.2-1.4,0.2-2c3-0.4,5.2-2.8,5.2-6
	c0-0.6-0.2-1.4-0.4-1.8l2.6-1.4c0.2,0.2,0.6,0.6,1,0.8c1.2,0.8,2.2,1.2,3.2,1.2c1,0,2-0.4,3.2-1.2c0.4-0.4,0.8-0.6,1-0.8l2.6,1.4
	c-0.2,0.4-0.4,1.2-0.4,1.8c0,3,2.2,5.6,5.2,6c0,0.4,0.2,1.2,0.2,2C56.9,46.5,56.6,47.3,56.6,47.9z M59.4,42.9c-0.2-1-1-1.8-1.8-1.8
	h-0.2c-1.8,0-3.2-1.4-3.2-3.2c0-0.4,0.2-1,0.2-1.2c0.4-1,0-2.2-0.8-2.8l-3.6-2h-1c-0.6,0-1.4,0.2-1.8,0.8c-0.4,0.4-1.6,1.4-2.4,1.4
	c-0.8,0-2-1-2.6-1.4c-0.4-0.4-1-0.8-1.8-0.8c-0.4,0-0.6,0-0.8,0.2l-3.8,2c-0.8,0.6-1.2,1.8-0.8,2.8c0,0,0.2,0.6,0.2,1.2
	c0,1.7-1.3,3.1-3.1,3.2c0,0-0.1,0-0.1,0H32c-0.8,0-1.6,0.8-1.8,1.8c0,0.2-0.4,1.6-0.4,3c0,1.2,0.2,2.8,0.4,3c0.2,1,1,1.8,1.8,1.8
	h0.2c1.8,0,3.2,1.4,3.2,3.2c0,0.4-0.2,1-0.2,1.2c-0.4,1,0,2.2,0.8,2.8l3.6,2c0.4-0.2,0.6-0.2,1-0.2c0.6,0,1.4-0.2,1.8-0.8
	c0.4-0.4,1.6-1.6,2.6-1.6c0.8,0,2.2,1,2.6,1.6c0.4,0.4,1,0.8,1.8,0.8c0.4,0,0.6,0,1-0.2l3.6-2c0.8-0.6,1.2-1.8,0.8-2.8
	c0,0-0.2-0.6-0.2-1.2c0-1.8,1.4-3.2,3.2-3.2h0.2c0.8,0,1.6-0.8,1.8-1.8c0,0,0.4-1.6,0.4-3C59.6,44.7,59.4,43.1,59.4,42.9z
	 M44.9,48.5c-1.4,0-2.6-1.2-2.6-2.6c0-1.4,1.2-2.6,2.6-2.6c1.4,0,2.6,1.2,2.6,2.6C47.5,47.3,46.3,48.5,44.9,48.5z M45.9,40.5
	c-3.8-0.8-7.2,2.6-6.4,6.6c0.4,2.2,2.2,4,4.4,4.4c3.8,0.8,7.2-2.6,6.4-6.4C49.9,42.7,48.1,40.9,45.9,40.5z"/>
</svg>
