<?xml version="1.0" encoding="utf-8"?>
<!-- Generator: Adobe Illustrator 22.0.0, SVG Export Plug-In . SVG Version: 6.00 Build 0)  -->
<svg version="1.1" id="图层_1" xmlns="http://www.w3.org/2000/svg" xmlns:xlink="http://www.w3.org/1999/xlink" x="0px" y="0px"
	 viewBox="0 0 64 64" style="enable-background:new 0 0 64 64;" xml:space="preserve">
<style type="text/css">
	.st0{fill:#427FFF;}
</style>
<path class="st0" d="M32,60c-2.3,0-4.3-1.4-5-3.5l-1.9-5.3c-0.2-0.5-0.5-0.7-0.7-0.8c-0.2-0.1-0.6-0.2-1,0l-5.1,2.4
	c-2,1-4.4,0.6-6.1-1c-1.6-1.6-2-4-1-6.1l2.4-5.1c0.2-0.4,0.1-0.8,0-1c-0.1-0.2-0.3-0.6-0.8-0.7L7.5,37C5.4,36.3,4,34.3,4,32
	c0-2.3,1.4-4.2,3.5-5l5.3-1.9c0.5-0.2,0.7-0.5,0.8-0.7c0.1-0.2,0.2-0.6,0-1l-2.4-5.1c-1-2-0.6-4.4,1-6.1c1.6-1.6,4-2,6.1-1l5.1,2.4
	c0.4,0.2,0.8,0.1,1,0c0.2-0.1,0.6-0.3,0.7-0.8L27,7.6C27.7,5.4,29.7,4,32,4s4.3,1.4,5,3.5l1.9,5.3c0.2,0.5,0.5,0.7,0.7,0.8
	s0.6,0.2,1,0l5.1-2.4c2-1,4.4-0.6,6.1,1c1.6,1.6,2,4,1,6.1l-2.4,5.1c-0.2,0.4-0.1,0.8,0,1c0.1,0.2,0.3,0.6,0.8,0.7l5.3,1.9
	c2.2,0.8,3.5,2.7,3.5,5c0,2.3-1.4,4.2-3.5,5l-5.3,1.9c-0.5,0.2-0.7,0.5-0.8,0.7c-0.1,0.2-0.2,0.6,0,1l2.4,5.1c1,2,0.6,4.4-1,6.1
	c-1.6,1.6-4,2-6.1,1l-5.1-2.4c-0.4-0.2-0.8-0.1-1,0c-0.2,0.1-0.6,0.3-0.7,0.8L37,56.4C36.3,58.6,34.2,60,32,60z M23.9,46.3
	c0.7,0,1.4,0.1,2,0.4c1.4,0.6,2.5,1.7,3,3.1l1.9,5.3c0.3,0.8,1,0.9,1.2,0.9c0.3,0,1-0.1,1.2-0.9l1.9-5.3c0.5-1.4,1.6-2.6,3-3.1
	c1.4-0.6,3-0.5,4.3,0.1l5.1,2.4c0.8,0.4,1.3-0.1,1.5-0.2c0.2-0.2,0.6-0.7,0.2-1.5l-2.4-5.1c-0.6-1.4-0.7-2.9-0.1-4.3
	c0.6-1.4,1.7-2.5,3.1-3l5.3-1.9c0.8-0.3,0.9-1,0.9-1.2c0-0.3-0.1-1-0.9-1.2l-5.3-1.9c-1.4-0.5-2.6-1.6-3.1-3c-0.6-1.4-0.5-3,0.1-4.3
	l2.4-5.1c0.4-0.8-0.1-1.3-0.2-1.5c-0.2-0.2-0.7-0.6-1.5-0.2l-5.1,2.4c-1.4,0.6-2.9,0.7-4.3,0.1c-1.4-0.6-2.5-1.7-3-3.1l-1.9-5.3
	C32.9,8,32.2,8,32,8c-0.3,0-1,0.1-1.2,0.9l-1.9,5.3c-0.5,1.4-1.6,2.6-3,3.1c-1.4,0.6-3,0.5-4.3-0.1l-5.1-2.4c-0.8-0.4-1.3,0-1.5,0.2
	c-0.2,0.2-0.6,0.7-0.2,1.5l2.4,5.1c0.6,1.4,0.7,2.9,0.1,4.3c-0.6,1.4-1.7,2.5-3.1,3l-5.3,1.9C8.1,31,8,31.7,8,32
	c0,0.3,0.1,1,0.9,1.2l5.3,1.9c1.4,0.5,2.6,1.6,3.1,3c0.6,1.4,0.5,3-0.1,4.3l-2.4,5.1c-0.4,0.8,0,1.3,0.2,1.5
	c0.2,0.2,0.7,0.6,1.5,0.2l5.1-2.4C22.3,46.5,23.1,46.3,23.9,46.3z"/>
<path class="st0" d="M32,43.4c-6.3,0-11.4-5.1-11.4-11.4S25.7,20.6,32,20.6S43.4,25.7,43.4,32S38.3,43.4,32,43.4z M32,24.6
	c-4.1,0-7.4,3.3-7.4,7.4s3.3,7.4,7.4,7.4s7.4-3.3,7.4-7.4S36.1,24.6,32,24.6z"/>
</svg>
