<?xml version="1.0" encoding="utf-8"?>
<!-- Generator: Adobe Illustrator 22.0.0, SVG Export Plug-In . SVG Version: 6.00 Build 0)  -->
<svg version="1.1" id="图层_1" xmlns="http://www.w3.org/2000/svg" xmlns:xlink="http://www.w3.org/1999/xlink" x="0px" y="0px"
	 viewBox="0 0 64 64" style="enable-background:new 0 0 64 64;" xml:space="preserve">
<style type="text/css">
	.st0{fill:#2F2F2F;}
	.st1{fill:#7F7F7F;}
</style>
<circle class="st0" cx="32" cy="32" r="28"/>
<path class="st1" d="M32,4C16.5,4,4,16.5,4,32s12.5,28,28,28s28-12.5,28-28S47.5,4,32,4z M32,10c5.1,0,9.8,1.8,13.7,4.7l-30.9,31
	c-2.9-3.8-4.7-8.5-4.7-13.7C10,19.9,19.9,10,32,10z M32,54.1c-4.8,0-9.3-1.6-13-4.3l30.7-30.7c2.7,3.6,4.3,8,4.3,12.9
	C54.1,44.1,44.1,54.1,32,54.1z"/>
</svg>
