<?xml version="1.0" encoding="utf-8"?>
<!-- Generator: Adobe Illustrator 22.0.0, SVG Export Plug-In . SVG Version: 6.00 Build 0)  -->
<svg version="1.1" id="图层_1" xmlns="http://www.w3.org/2000/svg" xmlns:xlink="http://www.w3.org/1999/xlink" x="0px" y="0px"
	 viewBox="0 0 64 64" style="enable-background:new 0 0 64 64;" xml:space="preserve">
<style type="text/css">
	.st0{fill:#FFFFFF;}
</style>
<path class="st0" d="M60,12.7V6.9c0-2.6-2.8-3.8-4.3-2l-5.6,6.4c-4.3-3.5-9.7-5.6-15.5-5.6c-9.7,0-18.3,5.8-22.7,12.9
	c-1,2,0.3,4.7,2.3,4.7c0.8,0,1.5-0.6,2-1.5c3.3-5,9.2-7.3,15.8-7.3c4.6,0,8.9,1.2,12.2,3.5l-5.3,6.1c-1.5,1.8-0.5,5,1.8,5h16.8
	c1.5,0,2.5-1.2,2.5-2.9C60,26.2,60,12.7,60,12.7z M51.6,40.8c-1,0-1.8,0.6-2.3,1.5c-3.1,5-8.9,7.3-15.5,7.3c-5.1,0-9.9-1.5-13-4.4
	l4.6-5.3c1.3-1.8,0.3-5-2-5H6.5C5,34.9,4,36.1,4,37.8v19.3c0,2.6,2.8,3.8,4.3,2l6.1-7c4.3,3.8,10.2,6.1,16.5,6.1
	c9.9,0,18.3-5.8,22.7-13.1C54.9,43.4,53.6,40.8,51.6,40.8z"/>
</svg>
