<?xml version="1.0" encoding="utf-8"?>
<!-- Generator: Adobe Illustrator 22.0.0, SVG Export Plug-In . SVG Version: 6.00 Build 0)  -->
<svg version="1.1" id="图层_1" xmlns="http://www.w3.org/2000/svg" xmlns:xlink="http://www.w3.org/1999/xlink" x="0px" y="0px"
	 viewBox="0 0 64 64" style="enable-background:new 0 0 64 64;" xml:space="preserve">
<style type="text/css">
	.st0{fill:#5F5F5F;}
</style>
<path class="st0" d="M30.1,50.3l16.6-16.6c1-1,1-2.3,0-3.3L30.1,13.7c-0.4-0.4-0.9-0.6-1.5-0.6c-0.6,0-1.3,0.3-1.7,0.6l-3.7,3.8
	c-0.5,0.4-0.8,0.9-0.8,1.5c0,0.8,0.3,1.3,0.8,1.7L34.3,32L23.2,43.3c-0.5,0.4-0.8,0.9-0.8,1.7c0,0.6,0.3,1.2,0.8,1.5l3.7,3.8
	c0.4,0.4,1,0.6,1.7,0.6C29.2,50.9,29.7,50.7,30.1,50.3L30.1,50.3z M56.3,46.1c-2.6,4.2-6,7.7-10.2,10.2C42,58.7,37.2,60,32,60
	s-10-1.3-14.1-3.7c-4.2-2.6-7.7-6-10.2-10.2C5.3,42,4,37.2,4,32c0-5.2,1.3-10,3.7-14.1c2.6-4.2,6-7.7,10.2-10.2C22,5.3,26.8,4,32,4
	c5.2,0,10,1.3,14.1,3.7c4.2,2.6,7.7,6,10.2,10.2C58.7,22,60,26.8,60,32C60,37.2,58.7,42,56.3,46.1z"/>
</svg>
