<?xml version="1.0" encoding="utf-8"?>
<!-- Generator: Adobe Illustrator 22.0.0, SVG Export Plug-In . SVG Version: 6.00 Build 0)  -->
<svg version="1.1" id="图层_1" xmlns="http://www.w3.org/2000/svg" xmlns:xlink="http://www.w3.org/1999/xlink" x="0px" y="0px"
	 viewBox="0 0 64 64" style="enable-background:new 0 0 64 64;" xml:space="preserve">
<style type="text/css">
	.st0{fill:#BFBFBF;}
</style>
<path class="st0" d="M54.1,36.5H33.5c-0.7,0-1.3,0.6-1.3,1.3v20.9c0,0.7,0.6,1.3,1.3,1.3h20.6c0.7,0,1.3-0.6,1.3-1.3V37.8
	C55.4,37.1,54.8,36.5,54.1,36.5z M52.8,57.4h-18V39.1h18L52.8,57.4z"/>
<path class="st0" d="M25.9,36.5H5.3c-0.7,0-1.3,0.6-1.3,1.3v20.9C4,59.4,4.6,60,5.3,60h20.6c0.7,0,1.3-0.6,1.3-1.3V37.8
	C27.2,37.1,26.6,36.5,25.9,36.5z M24.6,57.4h-18V39.1h18V57.4z"/>
<path class="st0" d="M25.9,7.7H5.3C4.6,7.7,4,8.3,4,9V30c0,0.7,0.6,1.3,1.3,1.3h20.6c0.7,0,1.3-0.6,1.3-1.3V9
	C27.2,8.3,26.6,7.7,25.9,7.7z M24.6,28.6h-18V10.3h18V28.6z"/>
<path class="st0" d="M59.6,18.1L46.1,4.4C45.9,4.1,45.5,4,45.2,4c-0.3,0-0.7,0.1-0.9,0.4L30.8,18.1c-0.5,0.5-0.5,1.3,0,1.8
	l13.5,13.7c0.3,0.3,0.6,0.4,0.9,0.4c0.3,0,0.7-0.1,0.9-0.4l13.5-13.7c0.2-0.2,0.4-0.6,0.4-0.9C60,18.7,59.9,18.3,59.6,18.1z
	 M45.2,30.9L33.5,19L45.2,7.2L56.9,19L45.2,30.9z"/>
</svg>
