<?xml version="1.0" standalone="no"?><!DOCTYPE svg PUBLIC "-//W3C//DTD SVG 1.1//EN" "http://www.w3.org/Graphics/SVG/1.1/DTD/svg11.dtd"><svg t="1567142580570" class="icon" viewBox="0 0 1024 1024" version="1.1" xmlns="http://www.w3.org/2000/svg" p-id="15506" width="64" height="64" xmlns:xlink="http://www.w3.org/1999/xlink"><defs><style type="text/css"></style></defs><path d="M681.62207 227.574l-38.896-41.59c-9.044-9.672-8.548-24.842 1.112-33.9l86.886-81.482a23.998 23.998 0 0 1 16.418-6.494h63.182c13.254 0 24 10.746 24 24v254.14h51.32c13.254 0 24 10.746 24 24v57.86c0 13.254-10.746 24-24 24H667.29807c-13.254 0-24-10.746-24-24v-57.86c0-13.254 10.746-24 24-24h50.828v-115.876c-14.508 13.16-28.422 9.842-36.504 1.202z m-61.14 477.138c0-65.306 47.73-134.712 136.188-134.712 76.506 0 158.848 57.722 158.848 184.456 0 102.552-64.474 211.544-183.966 211.544-35.672 0-61.092-7.114-77.096-13.562-11.58-4.666-17.578-17.492-13.844-29.406l18.474-58.96c4.07-12.992 18.098-19.966 30.934-15.432 26.058 9.204 55.756 10.55 76.206-8.276-77.484 10.144-145.744-50.72-145.744-135.652z m184.546 38.676c0-44.57-30.604-73.01-51.67-73.01-17.284 0-26.328 15.93-26.328 31.664 0 11.338 3.63 48.336 50.336 48.336 19.946 0 26.754-4.308 27.488-5.462 0.042-0.092 0.174-0.582 0.174-1.528zM415.96807 736H320.00007V96c0-17.674-14.326-32-32-32H224.00007c-17.674 0-32 14.326-32 32v640H96.03807c-28.424 0-42.768 34.488-22.628 54.628l159.962 160.004c12.49 12.49 32.76 12.494 45.254 0l159.968-160.004c20.1-20.1 5.856-54.628-22.626-54.628z" fill="#dfdfdf" p-id="15507"></path></svg>