<?xml version="1.0" encoding="utf-8"?>
<!-- Generator: Adobe Illustrator 22.0.0, SVG Export Plug-In . SVG Version: 6.00 Build 0)  -->
<svg version="1.1" id="图层_1" xmlns="http://www.w3.org/2000/svg" xmlns:xlink="http://www.w3.org/1999/xlink" x="0px" y="0px"
	 viewBox="0 0 64 64" style="enable-background:new 0 0 64 64;" xml:space="preserve">
<style type="text/css">
	.st0{fill:#FFFFFF;}
</style>
<g>
	<path class="st0" d="M37.2,19L23.8,8.4c-1.2-0.9-3-0.3-3,1v6.1H5.9c-1.2,0-2.2,0.8-2.2,1.7v5.6c0,1,1,1.7,2.1,1.7h14.9v6.1
		c0,1.2,1.9,1.9,3,1L37.2,21C37.9,20.5,37.9,19.5,37.2,19z"/>
	<path class="st0" d="M58.1,39.5H43.3v-6.1c0-1.2-1.9-1.9-3-1L26.8,43c-0.7,0.5-0.7,1.4,0,1.9l13.4,10.6c1.2,0.9,3,0.3,3-1v-6.1
		h14.9c1.2,0,2.2-0.8,2.2-1.7v-5.6C60.3,40.2,59.3,39.5,58.1,39.5z"/>
</g>
</svg>
