<?xml version="1.0" encoding="utf-8"?>
<!-- Generator: Adobe Illustrator 22.0.0, SVG Export Plug-In . SVG Version: 6.00 Build 0)  -->
<svg version="1.1" id="图层_1" xmlns="http://www.w3.org/2000/svg" xmlns:xlink="http://www.w3.org/1999/xlink" x="0px" y="0px"
	 viewBox="0 0 64 64" style="enable-background:new 0 0 64 64;" xml:space="preserve">
<style type="text/css">
	.st0{fill:#BFBFBF;}
</style>
<path class="st0" d="M33.6,19.6v13.1l10.8,6.6l-2.2,3.8l-13.3-8V19.6H33.6z M60,26.2H38.9l8.6-8.8c-4.3-4.3-9.4-6.4-15.4-6.5
	c-6,0-11.1,2-15.4,6.2c-4.2,4.3-6.3,9.3-6.3,15.2c0,5.8,2.1,10.9,6.3,15.2S26,53.9,32,53.9s11.2-2.1,15.5-6.4
	c4.2-4.2,6.3-9.2,6.3-15.2H60c0,7.7-2.7,14.2-8.2,19.5C46.4,57.3,39.8,60,32,60s-14.4-2.7-19.8-8.2C6.7,46.5,4,40,4,32.4
	s2.7-14.2,8.2-19.6s12-8.2,19.7-8.2c7.7,0,14.2,2.7,19.7,8.2L60,4L60,26.2L60,26.2z"/>
</svg>
