<?xml version="1.0" encoding="utf-8"?>
<!-- Generator: Adobe Illustrator 22.0.0, SVG Export Plug-In . SVG Version: 6.00 Build 0)  -->
<svg version="1.1" id="图层_1" xmlns="http://www.w3.org/2000/svg" xmlns:xlink="http://www.w3.org/1999/xlink" x="0px" y="0px"
	 viewBox="0 0 64 64" style="enable-background:new 0 0 64 64;" xml:space="preserve">
<style type="text/css">
	.st0{fill:#5F5F5F;}
</style>
<g>
	<path class="st0" d="M44,38c0,2.2-1.8,4-4,4H24c-2.2,0-4-1.8-4-4v-4H4v18c0,2.2,1.8,4,4,4h48c2.2,0,4-1.8,4-4V34H44V38z"/>
	<path class="st0" d="M56,16H44v-4c0-2.2-1.8-4-4-4H24c-2.2,0-4,1.8-4,4v4H8c-2.2,0-4,1.8-4,4v10h20v4v3c0,0.6,0.4,1,1,1h14
		c0.6,0,1-0.4,1-1v-3v-4h20V20C60,17.8,58.2,16,56,16z M24,16v-3c0-0.6,0.4-1,1-1h14c0.6,0,1,0.4,1,1v3H24z"/>
</g>
</svg>
