<?xml version="1.0" encoding="utf-8"?>
<!-- Generator: Adobe Illustrator 22.0.0, SVG Export Plug-In . SVG Version: 6.00 Build 0)  -->
<svg version="1.1" id="图层_1" xmlns="http://www.w3.org/2000/svg" xmlns:xlink="http://www.w3.org/1999/xlink" x="0px" y="0px"
	 viewBox="0 0 64 64" style="enable-background:new 0 0 64 64;" xml:space="preserve">
<style type="text/css">
	.st0{fill:#FFFFFF;}
</style>
<g>
	<path class="st0" d="M56,4H8C5.8,4,4,5.8,4,8v8c0,2.2,1.8,4,4,4h48c2.2,0,4-1.8,4-4V8C60,5.8,58.2,4,56,4z M55.5,14
		c0,1.1-0.9,2-2,2h-44c-1.1,0-2-0.9-2-2v-4c0-1.1,0.9-2,2-2h44c1.1,0,2,0.9,2,2V14z"/>
	<path class="st0" d="M56,24H8c-2.2,0-4,1.8-4,4v8c0,2.2,1.8,4,4,4h48c2.2,0,4-1.8,4-4v-8C60,25.8,58.2,24,56,24z M55.5,34
		c0,1.1-0.9,2-2,2h-44c-1.1,0-2-0.9-2-2v-4c0-1.1,0.9-2,2-2h44c1.1,0,2,0.9,2,2V34z"/>
	<path class="st0" d="M56,44H8c-2.2,0-4,1.8-4,4v8c0,2.2,1.8,4,4,4h48c2.2,0,4-1.8,4-4v-8C60,45.8,58.2,44,56,44z M55.5,54
		c0,1.1-0.9,2-2,2h-44c-1.1,0-2-0.9-2-2v-4c0-1.1,0.9-2,2-2h44c1.1,0,2,0.9,2,2V54z"/>
</g>
</svg>
